<svg xmlns="http://www.w3.org/2000/svg" width="363" height="296" fill="none" viewBox="0 0 363 296">
    <g clip-path="url(#clip0)">
        <path fill="#F8CA06" d="M283 94.5v95c0 2.9-.1 5.7-.4 8.5 0 .4 0 .7-.1 1.1 0 .4-.1.7-.1 1.1-1.9 16.7-8.1 32.1-17.6 45-7.2 9.9-16.4 18.4-26.9 24.8-11.2 6.9-23.8 11.5-37.4 13.2-.3 0-.6.1-.9.1-.3 0-.6.1-.8.1-3.4.4-6.8.6-10.3.6-52.2 0-94.5-42.3-94.5-94.5v-95c0-1.1 0-2.1.1-3.2 0-1.8.2-3.6.3-5.3.4-4.5 1.1-8.9 2.1-13.3 4.1-17.4 13-32.8 25.1-45C138.8 10.6 162.4 0 188.5 0 240.7 0 283 42.3 283 94.5zM415.5 278c58.266 0 105.5-47.01 105.5-105S473.766 68 415.5 68 310 115.01 310 173s47.234 105 105.5 105z"/>
        <path fill="#fff" d="M204 152.3c-3.3-1.7-5.9-3.3-7.1-4.6-.2-.2-.3-.3-.4-.5.6-.2 1-.6.9-1.2 0-.6-.5-1.6-1.7-2.9-1.5-1.6-3.7-3-5.8-4.1.1 0-.3-1.1-1-2.9 0-.1-.1-.2-.1-.3-.8-1.8-1.9-4.3-3.3-6.9-.1-.1-.1-.3-.2-.4-.1-.2-.2-.3-.3-.5-1.4-2.5-3-5.1-4.8-7.5 0 0 0-.1-.1-.1 3.2-1.9 6.1-3 8.7-3.4h.2c.1 0 .2 0 .2-.1h.1c.1 0 .2 0 .3-.1h.3c6.2-.8 10.4 2.1 13.2 6.6.5.9 1 1.8 1.4 2.7 0 0 0 .1.1.1 1.9 4.3 2.6 9.5 2.5 14.2 0 4.3-1.1 8.3-3.1 11.9z"/>
        <path fill="#181C19" d="M205.3 126.2c0-.1 0-.1-.1-.2l-1.3-2.6c0-.1 0-.1-.1-.2-3.2-5.2-8-7.6-13.9-6.9h-.2c-.1 0-.2 0-.3.1H189.1 188.8c-2.6.5-5.4 1.6-8.4 3.2-.2.1-.3.2-.5.3l-.1.1c-.2.2-.3.4-.2.7 0 .1.1.2.2.3.4.6.9 1.2 1.3 1.8.2.2.3.4.5.7.2.3.4.6.6 1 .8 1.2 1.6 2.5 2.3 3.9l.3.6s0 .1.1.1c0 .1.1.1.1.2 1.5 2.8 2.7 5.2 3.3 6.8 0 .1.1.1.1.2l.6-.3-.5.4c.2.5.4.9.5 1.2 0 .1 0 .1.1.2.1.3.2.5.2.7 0 .1 0 .1.1.2v.2c0 .2 0 .4.2.5l.2.2c.9.5 1.7.9 2.5 1.4.3.2.5.3.7.5.9.6 1.7 1.3 2.4 2 .8.9 1.2 1.5 1.4 1.9 0 .1 0 .1.1.2v.1c0 .1 0 .2.1.3 0 .2 0 .3-.4.5h-.1c-.1 0-.3.2-.4.3-.1.2-.1.5 0 .7.1.1.2.3.3.4 0 0 .1.1.1.2.5.5 1.2 1.1 2.1 1.8.4.3.8.6 1.3.9.3.2.6.4 1 .6.3.2.6.4 1 .6h.1l.6.3.6.3.6.3c.1 0 .2.1.3.1.2 0 .5-.1.6-.4l.3-.6c1.8-3.6 2.8-7.5 2.9-11.4.1-5.2-.8-10.3-2.6-14.4zm1.2 14.4c-.1 3.6-1 7.3-2.7 10.8-1.7-.9-3-1.7-3.9-2.3-.3-.2-.5-.4-.7-.5-.6-.4-1.1-.8-1.4-1.2.1-.1.2-.2.2-.3l.2-.2c.1-.3.2-.6.1-1v-.3c0-.1 0-.2-.1-.3-.2-.8-.8-1.7-1.8-2.8-.4-.4-.8-.8-1.3-1.2-.2-.1-.3-.3-.5-.4-.5-.4-1.1-.8-1.7-1.2-.7-.5-1.5-.9-2.2-1.3-.1-.2-.2-.5-.3-1v-.1c-.2-.4-.4-.9-.7-1.6v-.2l-.7.5.5-.4c-.7-1.6-1.8-4.1-3.4-7l-.1-.1c-.1-.1-.1-.2-.1-.2l-.3-.5c-.7-1.2-1.4-2.5-2.1-3.7-.1-.2-.2-.3-.3-.5-.6-1-1.3-1.9-1.9-2.8 2.8-1.5 5.4-2.5 7.9-3h1c5.3-.7 9.5 1.4 12.5 6.1 0 0 0 .1.1.2.4.8.9 1.6 1.3 2.5 0 .1 0 .1.1.2 1.5 3.9 2.4 8.8 2.3 13.8z"/>
        <path fill="#F8CA06" d="M204.001 152.3c-5 9.5-9.7 13.9-10.4 14.6-1-5.3-9.6-7.6-9.6-7.6-3.6-1.3-13.7 0-13.8-10.4 0 0-.2-4.5-1.5-7.8 0 0 5.6-1.4 7.7-5.8 0 0 6 .3 13.6 3.8 2.2 1 4.3 2.4 5.8 4.1 1.1 1.2 1.6 2.1 1.7 2.8.1.7-.3 1-.9 1.2.1.2.2.3.4.5 1.2 1.3 3.7 2.9 7 4.6z"/>
        <path fill="#181C19" d="M204.7 152.1c-.1-.2-.2-.3-.4-.4 0 0-.1 0-.1-.1-.2-.1-.3-.2-.5-.2-1.7-.9-3-1.7-3.9-2.3-.3-.2-.5-.4-.7-.5-.7-.5-1.1-.9-1.4-1.2l.2-.2.2-.2c.2-.3.2-.7.2-1v-.2c0-.1 0-.2-.1-.3-.2-.8-.8-1.6-1.8-2.7-.4-.4-.8-.9-1.3-1.3-.2-.1-.3-.3-.5-.4-.5-.4-1.1-.8-1.7-1.2-.7-.4-1.5-.9-2.3-1.2-.1-.1-.2-.1-.3-.2-.2-.1-.3-.2-.5-.2-.3-.1-.6-.3-.9-.4-7-3-12.2-3.2-12.5-3.2-.2 0-.4.1-.5.2 0 0-.1.1-.1.2-.1.1-.1.3-.2.4-2.1 3.7-6.9 4.9-7 5-.2 0-.4.2-.5.3-.1.2-.1.4 0 .6 1.2 3.2 1.5 7.5 1.5 7.6.1 8.8 6.9 9.8 11.4 10.5 1.1.2 2.1.3 2.8.6h.1c.2.1 7.8 2.2 9 6.7 0 .1.1.2.1.3 0 .2.1.3.2.4l.2.2h.2c.2 0 .3 0 .4-.2l.1-.1c3.4-3.4 7-8.4 10.1-14.1l.3-.6c.3-.2.3-.4.2-.6zm-20.4 6.6c-.8-.3-1.9-.5-3.1-.6-4.5-.7-10.1-1.5-10.2-9.1 0-.2-.2-4-1.3-7.3 1.6-.5 5.3-2.1 7.2-5.5 1.5.1 6.7.8 12.9 3.7.9.4 1.7.8 2.4 1.3.3.2.5.3.7.5.9.6 1.7 1.3 2.4 2.1.8.8 1.1 1.4 1.3 1.8 0 .1 0 .1.1.2v.1c0 .1.1.2.1.3 0 .2 0 .3-.3.5 0 0-.1 0-.2.1l-.3.3c-.1.2-.1.5 0 .7.1.1.2.3.3.4l.1.1c.5.5 1.2 1.1 2.1 1.8.4.3.8.6 1.3.9.3.2.6.4 1 .6.3.2.6.4 1 .6h.1l.6.3.6.3c-1.1 2-2.2 3.9-3.4 5.7-.4.6-.8 1.2-1.2 1.7-1.1 1.5-2.1 2.9-3.2 4.2-.4.5-.8.9-1.2 1.3-1.9-4.7-8.5-6.7-9.8-7z"/>
        <path fill="#181C19" d="M194.8 148.1c-2 0-4.3-.5-4.7-.6-.4-.1-.6-.5-.5-.8.1-.4.5-.6.8-.5 1.2.3 4.5.9 5.9.4.4-.1.8.1.9.4.1.4-.1.8-.4.9-.5.2-1.2.2-2 .2z"/>
        <path fill="#fff" d="M188.9 135.9c-.8-1.8-1.9-4.3-3.3-6.9 1.4 2.7 2.6 5.1 3.3 6.9z"/>
        <path fill="#181C19" d="M188.9 136.6c-.3 0-.5-.2-.6-.4-.7-1.6-1.8-4-3.3-6.8-.1-.1-.1-.2-.1-.3 0-.2.1-.5.4-.6.3-.2.8-.1 1 .3 1.6 2.8 2.7 5.3 3.4 6.9 0 .1.1.2.1.3 0 .3-.2.5-.4.6h-.5z"/>
        <path fill="#181C19" d="M189.9 138.9c-7.5-3.4-13.6-3.8-13.6-3.8-8.9-4.9-18-21.6-9.3-23 4.6-.7 9.3 3.3 13.2 8.5l.1.1c1.8 2.4 3.4 4.9 4.8 7.4.1.2.2.3.3.5.1.1.1.3.2.4 1.4 2.6 2.6 5.1 3.3 6.9.1.1.1.2.1.3.7 1.6 1 2.7.9 2.7z"/>
        <path fill="#181C19" d="M190.6 138.7c0-.2-.1-.6-.3-1.1v-.1c-.2-.4-.3-1-.6-1.6 0-.1-.1-.2-.1-.3 0-.1-.1-.2-.1-.2-.1-.3-.2-.6-.4-.9 0 0 0-.1-.1-.1-.1-.2-.2-.4-.3-.7 0 0 0-.1-.1-.1-.2-.5-.5-1-.8-1.6-.2-.3-.3-.7-.5-1v-.1c-.3-.7-.7-1.3-1.1-2.1v-.1s0-.1-.1-.1c0-.1-.1-.1-.1-.2l-.3-.5c-.7-1.3-1.4-2.5-2.2-3.6-.1-.2-.2-.3-.3-.5-.8-1.2-1.6-2.3-2.4-3.4l-.1-.1c-.1-.2-.2-.3-.3-.4-3.3-4.4-8.3-9.2-13.5-8.4-2.3.4-3.7 1.7-4 3.8-1 5.5 5.7 16.1 12.6 20.2.1.1.3.2.4.2.1 0 .1.1.2.1h.1c.1 0 6 .4 13.2 3.7 0 0 .1 0 .1.1.1.1.2.1.3.1.2 0 .4-.1.5-.3.3-.2.4-.4.3-.7zm-26.3-23.2c.3-1.5 1.2-2.4 2.8-2.7 4.7-.7 9.4 4.1 12.5 8.3 0 0 0 .1.1.1.5.6.9 1.2 1.4 1.8.2.2.3.4.5.7.2.3.4.6.6 1 .8 1.2 1.6 2.5 2.3 3.9l.4.6c0 .1.1.2.1.2.2.3.4.6.5.9 0 .1.1.1.1.2.2.3.3.6.5.9.2.4.4.8.6 1.1.1.2.2.5.3.7.1.2.1.3.2.4.1.3.2.5.4.8.1.3.2.5.3.7l.3.6v.1c0 .1.1.2.1.3V136.4c.2.5.4.9.5 1.3-6.3-2.7-11.4-3.2-12.4-3.3-6.4-3.7-13-13.9-12.1-18.9z"/>
        <path fill="#F8CA06" d="M147.002 248.5c-32.8-22-52.4-70.8-55.1-73.2-3-2.8-10.4-7.1-14.2-12.4-2.5-3.6-1.8-7.1-.2-9.4 1.2-1.7 1.3-3.9.2-5.7-1.9-3.2-2-5.4-1.5-6.8.3-1 1.7-1.2 2.3-.3 5.9 9.5 37.4 56.7 75.7 51.7 0-.1 9 32.6-7.2 56.1z"/>
        <path fill="#181C19" d="M155.501 194.9c0-.2-.1-.3-.1-.5s-.1-.3-.1-.5c-.2-.9-.4-1.5-.4-1.8 0-.1-.1-.2-.1-.2-.1-.3-.4-.4-.7-.4h-.1c-24.4 3.2-46.1-15.3-59.9-31.3-7.6-8.7-12.8-16.7-14.9-20.1-.4-.6-1.1-1-1.9-.9-.8.1-1.4.6-1.7 1.4-.4 1.4-.5 3.8 1.6 7.4.9 1.5.9 3.5-.2 4.9-1.7 2.4-2.5 6.4.2 10.2 2.7 3.7 7 6.9 10.4 9.5 1.6 1.2 2.9 2.2 3.9 3 .3.3 1.3 2.1 2.5 4.4.3.7.7 1.4 1.1 2.1 7.6 14.7 25.3 49.2 51.6 66.8.1.1.2.1.4.1s.4-.1.6-.3c.1-.2.3-.4.4-.6.2-.3.4-.7.6-1 0 0 0-.1.1-.1l1.2-2.1c.4-.6.7-1.3 1-2 .3-.6.6-1.2.9-1.9 8.3-18 5.2-38.6 3.6-46.1zm-6 48.1c-.3.7-.7 1.3-1.1 1.9-.2.3-.3.6-.5.8-.3.4-.5.9-.8 1.3-.1.2-.2.3-.3.5-25.7-17.5-43-51.4-50.5-65.9-1-1.9-1.7-3.4-2.3-4.5-.7-1.4-1.2-2.1-1.6-2.4-1-.9-2.4-1.9-4-3.1-3.4-2.5-7.6-5.6-10.1-9.2-2.9-4.1-.9-7.6-.2-8.6 1.4-1.9 1.5-4.4.2-6.4-1.9-3.1-1.8-5.1-1.5-6.2.1-.3.4-.4.5-.4h.1c.1 0 .3 0 .5.3 2.2 3.5 7.9 12.1 16.1 21.4 14 15.8 35.5 33.5 59.6 30.7.2.6.4 1.6.7 3.1 0 .2.1.3.1.5v.1c.1.6.2 1.2.3 1.9 0 .3.1.7.2 1 0 .3.1.5.1.8 0 .2.1.4.1.7.1.5.1 1 .2 1.5 1.1 9.1 1.5 23.1-3.8 36-.2.6-.5 1.1-.7 1.7-.3.6-.6 1.2-.8 1.8-.2.1-.4.4-.5.7z"/>
        <path fill="#181C19" d="M264.8 245.2c9.5-12.9 15.7-28.3 17.6-45 0-.4.1-.7.1-1.1-3.1-4.5-6.9-9.1-11.5-13.5-9-8.5-19.8-15-31.5-19.1-9.6-3.4-25.2-9.1-34.8-13.9l-.6-.3-.3.6c-.1.2-.3.5-.4.7-.1.2-.2.4-.4.7-.1.2-.3.4-.4.7-.1.2-.2.4-.4.6-.8 1.4-1.7 2.7-2.4 3.8-.3.4-.5.8-.8 1.1-.8 1.1-1.5 2-2.1 2.7l-.1.1c-.1.1-.2.3-.3.4-.4.4-.7.8-1 1.2-.9 1-1.5 1.6-1.8 1.8-.1.2-.3.4-.4.5-13.1 15.7-26.1 23-38.4 24.8-.2 0-.4.1-.7.1 0 0 .5 2 1.1 5.4.1.7.2 1.4.3 2.2.1.5.2 1.1.2 1.6.1.6.1 1.1.2 1.7.2 1.5.3 3.1.4 4.8 0 .7.1 1.4.1 2.1V217c0 .4 0 .9-.1 1.3-.1.9-.1 1.8-.2 2.7-.1.9-.2 1.8-.3 2.8-.1 1.1-.3 2.2-.5 3.4-.1.4-.1.7-.2 1.1-.2 1-.4 2.1-.7 3.1-.1.3-.2.6-.2.9l-.3.9-.6 1.8c-.2.5-.3 1-.5 1.6v.1l-.6 1.5c-.4 1-.9 2.1-1.4 3.1-.2.3-.3.6-.4.9-.1.3-.3.5-.4.8-.3.6-.6 1.2-.9 1.7-.2.3-.3.6-.5.8-.2.3-.3.5-.5.8-.4.6-.7 1.2-1.1 1.7.2.1.4.3.6.4 4.1 2.8 8.5 5 13.1 6.8 22.6 8.5 33.8 19.6 39.2 27.8.3 0 .2.5.5.5 13.6-1.7 26.9-6.6 38-13.5l26.3-24.8zm30.9-11.9c-.7-5-2-11-4.4-17.4-.2-.1-.3-.2-.5-.3-.2-.1-.4-.1-.5-.1-.2.1-.3.2-.3.5 0 4.7 1.1 10.8 4.7 16.1.3.3.7.8 1 1.2z"/>
        <path fill="#181C19" d="M296.5 234.2c-.6-5-1.9-11.1-4.2-17.7-.3-.2-.6-.5-.9-.7-.2-.1-.3-.2-.5-.3-.2-.1-.4-.1-.5-.1 2.3 6.1 3.7 11.7 4.4 16.6.3.4.6.9 1 1.3.1.3.4.6.7.9zm-25-49.1c-8.9-8.4-19.8-15.1-31.8-19.2-10.5-3.7-25.4-9.2-34.7-13.9l-.6-.3h-.1c-.3-.1-.6.1-.8.3l-.3.6c-1.1 2-2.2 3.9-3.4 5.7-.4.6-.8 1.2-1.2 1.7-1.1 1.5-2.2 2.9-3.2 4.2-.4.5-.8.9-1.2 1.3-.2.2-.4.4-.5.6l-.3.3c-.1.1-.2.2-.2.3-12.2 14.7-25.2 23.1-38.8 24.9h-.2l-.3.3c-.1.1-.1.3-.1.5v.1c0 .1.4 1.4.8 3.7 0 .2.1.3.1.5v.1c.1.6.2 1.2.3 1.9 0 .3.1.7.2 1 0 .3.1.5.1.8 0 .2.1.4.1.7.1.5.1 1 .2 1.5 1.1 9.1 1.4 23.1-3.8 36-.2.6-.5 1.1-.7 1.7-.3.6-.6 1.2-.8 1.8-.2.3-.3.6-.5.9-.3.7-.7 1.3-1.1 1.9-.2.3-.3.6-.5.8-.3.4-.5.9-.8 1.3-.1.2-.2.3-.3.5-.1.2-.2.4-.4.6-.1.2-.1.3-.1.5s.1.3.3.4c4.5 3 9.1 5.5 13.8 7.2 22.1 8.3 33 19.1 38.4 27.1.3 0 .6 0 .8-.1.3 0 .6-.1.9-.1-5.3-8.3-16.4-19.5-39.6-28.2-4.4-1.6-8.7-3.9-13-6.7.2-.3.4-.7.6-1 0 0 0-.1.1-.1l1.2-2.1c.4-.6.7-1.3 1-2 .3-.6.6-1.2.9-1.9 8.2-18.2 5.1-39 3.6-46.4 0-.2-.1-.3-.1-.5s-.1-.3-.1-.5c-.1-.4-.2-.8-.2-1.1 13.7-2.1 26.9-10.6 39.1-25.5v-.1l.1-.1c3.4-3.4 7-8.4 10.1-14.1 9.4 4.7 24.4 10.2 34.9 14 11.7 4.1 22.5 10.7 31.2 18.9 4.8 4.6 8.7 9.3 11.9 14 0-.4.1-.7.1-1.1 0-.4.1-.7.1-1.1-3.1-3.9-6.8-8.3-11.2-12.5z"/>
        <path fill="#fff" d="M42.7 85.5L91 72.6c5.3-1.4 10.799 1.7 12.199 7.1l6.5 24.1c1.4 5.3-1.7 10.8-7.1 12.2l-48.3 13c-5.3 1.4-10.8-1.7-12.2-7.1l-6.5-24.1c-1.4-5.4 1.7-10.8 7.1-12.3z"/>
        <path fill="#181C19" d="M90 93.4c2.761 0 5-2.239 5-5 0-2.762-2.239-5-5-5s-5 2.238-5 5c0 2.761 2.239 5 5 5z"/>
        <path fill="#F8CA06" d="M82.3 95.4c2.762 0 5-2.239 5-5 0-2.762-2.238-5-5-5-2.76 0-5 2.238-5 5 0 2.761 2.24 5 5 5z"/>
        <path fill="#181C19" d="M194.799 37.8l32.9 8.8c3.7 1 6 4.8 4.9 8.6l-4.4 16.3c-1 3.7-4.8 6-8.6 4.9l-32.9-8.8c-3.7-1-6-4.8-4.9-8.6l4.4-16.3c1-3.7 4.8-5.9 8.6-4.9z"/>
        <path fill="#fff" d="M221.8 59.1c1.878 0 3.4-1.522 3.4-3.4s-1.522-3.4-3.4-3.4c-1.877 0-3.4 1.522-3.4 3.4s1.523 3.4 3.4 3.4z"/>
        <path fill="#F8CA06" d="M216.5 57.7c1.877 0 3.4-1.522 3.4-3.4s-1.523-3.4-3.4-3.4c-1.878 0-3.4 1.522-3.4 3.4s1.522 3.4 3.4 3.4zM276 255.5l-4.3 16.2v.1c-.1.4-.2.8-.4 1.1-.2.5-.5.9-.8 1.3-1.1 1.5-2.8 2.5-4.7 2.7-.5.1-1 .1-1.5 0-.4 0-.8-.1-1.2-.2h-.1l-25-6.7-7.9-2.1c-3.7-1-6-4.8-5-8.6l4.4-16.3c1-3.7 4.8-6 8.6-5l26.7 7.2 6.2 1.7c3.8 1 6 4.8 5 8.6z"/>
        <path fill="#181C19" d="M235.9 262.2c1.878 0 3.4-1.522 3.4-3.4s-1.522-3.4-3.4-3.4-3.4 1.522-3.4 3.4 1.522 3.4 3.4 3.4z"/>
        <path fill="#fff" d="M241.3 263.7c1.878 0 3.4-1.522 3.4-3.4s-1.522-3.4-3.4-3.4c-1.877 0-3.4 1.522-3.4 3.4s1.523 3.4 3.4 3.4z"/>
        <path fill="#fff" d="M329.2 288c10.383 0 18.8-.895 18.8-2s-8.417-2-18.8-2c-10.383 0-18.8.895-18.8 2s8.417 2 18.8 2z" opacity=".1"/>
        <path fill="#fff" d="M358.5 203.9c-18.2 5.2-28.5 22.8-31.5 31.2v1c0 .3.2.5.5.5 28.4 2.3 33-20.1 31.6-32.2-.1-.4-.3-.6-.6-.5zM327.3 240.5v2.8c0 .3-.3.5-.5.5h-.1c-14.9-3.4-21.1-1.9-26.8-6.4-1.3-1-2.4-2-3.4-3.2-.3-.3-.5-.6-.8-.9-.3-.4-.7-.8-1-1.3-3.7-5.3-4.7-11.4-4.7-16.1 0-.2.1-.4.3-.5.2-.1.3 0 .5.1.1.1.3.2.5.3.3.2.6.5.9.7 4.9 3.4 11.7 6.2 18.7 9.1 7.6 3 12 8.7 15.6 13.6.2.3.4.6.7 1 .1.1.1.2.1.3zM330.799 192.2c19.2-1.9 21.9-22.8 20.8-33.8 0-.4-.4-.6-.8-.4-8.7 5.6-13.1 9.1-15.4 12.6-3.6 5.6-2.9 10.1-5.2 18.6v2.4c0 .4.3.6.6.6zM328.899 202.5c-17.6 3.3-24.4-12.3-25.7-21.3-.1-.4.3-.6.6-.5 4.3 1.5 5.4 2.1 10.4 3.3 5.2 1.3 8.4 4.9 10.1 7.8 1.6 2.8 2.8 5.9 4.9 9.9.2.4 0 .8-.3.8z"/>
        <path fill="#fff" fill-rule="evenodd" d="M329.1 179.1c.4-.1.7.2.8.6.5 3.2 1.3 10.3 1.3 13.2 0 3.5-.9 9.8-1.8 15.7l-.3 1.8c-.4 2.3-.7 4.6-1 6.5-.3 2.4-.6 4.4-.6 5.5v.5c0 5.2 0 20.4 1.3 30.5 1.1 8.8.6 19.8.2 28-.1 1.6-.2 3.2-.2 4.5 0 .4-.3.7-.7.7-.4 0-.7-.3-.7-.7.1-1.4.1-2.9.2-4.6.4-8.2.9-19-.2-27.7-1.3-10.1-1.3-25.4-1.3-30.6v-.5c0-1.2.2-3.2.6-5.7.3-1.9.6-4.2 1-6.5l.3-1.8c.9-5.9 1.8-12.1 1.8-15.5 0-2.8-.8-9.8-1.3-13 0-.4.3-.8.6-.9z" clip-rule="evenodd"/>
        <path fill="#fff" fill-rule="evenodd" d="M350.201 239.4c.2.1.3.4.3.6-.1 5.4-4.7 17.1-21.8 21.6l-.4-1.4c15.2-4 20-13.9 20.6-19.1-1.8.8-3.4 1.4-4.8 1.9-.3.1-.7.3-1 .4-1.8.7-3.3 1.3-4.8 2.4-5.3 3.9-8.2 8.7-9.2 11.4l-1.3-.5c1.1-3 4.2-8 9.7-12.1 1.6-1.2 3.3-1.9 5.1-2.6.3-.1.7-.3 1-.4 1.6-.6 3.5-1.3 5.7-2.4.5.1.7.1.9.2zM300.6 243.4c.2-.2.5-.3.7-.2 17.8 6.4 26.1 20.7 28.1 27.2.1.4-.1.8-.5.9-.4.1-.8-.1-.9-.5-1.9-6-9.5-19.4-25.9-25.8.4 1.6.7 3 .9 4.4 0 .2.1.4.1.7.3 2 .7 4 1.8 6.2 1.8 4 4.3 7.6 8.6 10.7 1.9 1.3 3.6 1.9 6 2.6.3.1.6.2 1 .3 2.2.6 4.9 1.4 8.5 2.8.4.1.5.6.4.9-.1.4-.6.5-.9.4-3.5-1.4-6.1-2.1-8.3-2.7-.3-.1-.7-.2-1-.3-2.4-.7-4.3-1.3-6.4-2.8-4.6-3.3-7.2-7.1-9.1-11.3-1.1-2.4-1.5-4.5-1.9-6.6 0-.2-.1-.4-.1-.7-.3-1.8-.6-3.6-1.3-5.6 0-.1 0-.4.2-.6zM327.5 220c-.3-.4-.6-.9-1-1.3-1.6-2-4-4.5-7.1-6.7-.8-.6-1.7-1.1-2.6-1.6-3.4-2-7.5-3.5-12.1-3.7-.2 0-.5.1-.6.3-.1.2-.2.4-.1.7.9 2 1.4 3.5 1.9 4.6.1.4.3.7.4 1 .5 1.3 1 2.3 1.7 3.3 1.3 1.9 5.6 5.5 14.2 5.7 1.2 0 2.5 0 4-.1.2 0 .5 0 .8-.1.4 0 .7-.4.6-.8 0-.2-.1-.3-.2-.4.3-.3.3-.6.1-.9zm-6 .8c-7.7-.4-11.4-3.7-12.3-5.1-.6-.9-1-1.8-1.5-3.1-.1-.3-.2-.6-.4-1-.4-1-.8-2.1-1.5-3.6 4.5.4 8.6 2.2 11.9 4.3.3.2.6.4 1 .6 3.7 2.6 6.4 5.7 7.7 7.7-1.8.3-3.4.3-4.9.2zM346.099 191.1c.2.2.3.4.2.6-.6 3.6-2.1 9.1-5 13.9-2.9 4.8-7.2 8.9-13.3 9.6-.4 0-.7-.2-.8-.6 0-.4.2-.7.6-.8 5.5-.6 9.4-4.4 12.2-8.9 2.5-4.1 4-8.8 4.6-12.3-10.9 3.4-14.8 13.2-15.4 17.8-.1.4-.4.7-.8.6-.4-.1-.7-.4-.6-.8.7-5.1 5.1-16 17.5-19.2.4-.1.6-.1.8.1z" clip-rule="evenodd"/>
        <path fill="#fff" d="M38.1 288c10.88 0 19.7-.94 19.7-2.1 0-1.16-8.82-2.1-19.7-2.1-10.88 0-19.7.94-19.7 2.1 0 1.16 8.82 2.1 19.7 2.1z" opacity=".1"/>
        <path fill="#fff" fill-rule="evenodd" d="M72.9 255.6c-.6-.1-1.3-.1-2 0-1.5.2-3.2.7-5.1 1.4-2.2.8-4.5 1.9-6.9 3.2 8.4-9.2 12.9-16.1 15-21 1.2-2.8 1.7-5 1.6-6.7-.1-1.7-.7-2.9-1.6-3.5-2.6-1.8-5.7-1.2-8.5.3.9-2.2 1.7-4.4 2.2-6.4 1-3.7 1.4-7 1.3-9.5 0-1.2-.2-2.3-.4-3.2-.2-.8-.6-1.6-1.2-2-.9-.6-2.1-.3-3.2.2s-2.3 1.5-3.6 2.6c-2.4 2.2-5 5.2-7.4 8.2.3-4.8-.1-10.3-1-15.5-1-5.9-2.5-11.4-4.3-15.5-.9-2-1.8-3.7-2.8-4.8-.9-1.1-2.1-1.8-3.3-1.4-1.5.5-2.6 1.7-3.6 3.3-.9 1.6-1.7 3.8-2.3 6.2-1.2 4.9-1.8 11.1-2 17.1-.1 4 0 8 .2 11.5-.5-.8-1-1.6-1.4-2.3-1.9-3-4.2-6.3-6.5-9.1s-4.6-5.2-6.6-6.4c-1-.6-2-1-3-.7-1 .2-1.7 1.1-2 2.2-.3 1.2-.5 2.8-.3 5 .1 2.2.5 5 1.2 8.5 1.2 6.2 3 11.6 4.9 16.1l-.3-.3c-2-2-4.7-3.9-7.4-5.2-2.7-1.3-5.5-2.2-7.7-2.2-1.1 0-2.1.2-2.9.7-.8.5-1.3 1.4-1.4 2.5-.1 1.1.2 2.4.9 3.9s1.8 3.4 3.4 5.5c6.3 8.6 13.4 15.4 17.6 19.4l.3.3c.6.6 1.2 1.1 1.7 1.6-.3-.1-.6-.3-.9-.5-4.9-2.5-9-4.2-12.2-5.3-3.2-1.1-5.7-1.5-7.5-1.4-.9 0-1.7.2-2.2.6-.6.4-1 .9-1.2 1.6-.3 1.3.2 2.9 1.1 4.6 1.9 3.5 6.1 8 11.8 12.6 5 4.1 11.1 8.3 18 11.9 1 .5 2 1 3 1.6.3.2.8 0 .9-.3.2-.3 0-.8-.3-.9l-.8-.4c-7.7-3.9-14.5-8.5-20-12.9-5.6-4.6-9.7-9-11.5-12.2-.9-1.7-1.2-2.8-1-3.6.1-.3.3-.6.6-.8.3-.2.8-.4 1.6-.4 1.5-.1 3.8.3 7 1.4 3.2 1.1 7.1 2.7 12 5.2 1.3.7 2.3 1.1 2.9 1.3.1.1.3.1.4.1.1 0 .3.1.4 0 .2 0 .5-.1.7-.5.1-.3 0-.6 0-.7-.1-.2-.3-.5-.5-.7l-.8-.8c-.6-.6-1.4-1.3-2.3-2.2l-.3-.3c-4.2-4-11.3-10.7-17.5-19.2-1.5-2.1-2.6-3.8-3.2-5.3-.6-1.4-.9-2.5-.8-3.2.1-.7.3-1.1.8-1.4.5-.3 1.2-.5 2.1-.5 1.9 0 4.5.8 7.1 2.1 2.6 1.3 5.2 3 7 4.9 1.1 1.1 2.1 2.2 3 3.2 2.9 6 5.9 10 7.8 11.7.4.4.8.7 1.2.9.2.1.4.2.6.2.2 0 .6 0 .8-.2.2-.2.3-.6.2-.8 0-.2-.1-.4-.1-.6-.1-.4-.4-.9-.8-1.6-1.2-2.1-3.9-5.5-8.5-10.5-2.5-5.1-4.9-11.6-6.5-19.5-.7-3.4-1.1-6.2-1.2-8.3-.1-2.1 0-3.6.3-4.5.3-.9.7-1.2 1-1.3.4-.1 1 0 1.9.6 1.8 1 4 3.3 6.2 6.1 2.3 2.8 4.5 6 6.4 9 .4.8.9 1.6 1.5 2.4.4.7.9 1.5 1.4 2.2.1.7.1 1.3.2 1.9.3 2.2.6 4.1 1 5.5.2.7.4 1.2.7 1.7.2.4.7.9 1.3.9.6 0 1.2-.2 1.5-.7.3-.5.4-1.1.3-1.6-.1-1.1-.7-2.5-1.4-3.9-.6-1.3-1.5-2.7-2.3-4.1-.4-4.1-.5-9-.4-14.1.2-6 .8-12.1 1.9-16.8.6-2.4 1.3-4.4 2.1-5.9s1.8-2.4 2.8-2.7c.4-.1 1 0 1.9 1 .8.9 1.7 2.4 2.5 4.4 1.7 3.9 3.2 9.4 4.2 15.1 1 5.8 1.4 11.8.9 16.8 0 .2 0 .4-.1.6-2.1 2.8-3.8 5.5-4.9 7.5-.3.6-.5 1.1-.7 1.5-.2.4-.3.8-.3 1.2 0 .2 0 .4.2.7.2.2.5.4.7.4.2 0 .5 0 .6-.1.1-.1.4-.2.6-.3 1.6-1 2.7-2.5 3.5-4.5.7-1.7 1.2-3.7 1.5-5.9.3-.3.5-.7.8-1.1 2.5-3.3 5.3-6.5 7.8-8.8 1.2-1.1 2.4-2 3.3-2.4 1-.5 1.5-.4 1.8-.3.2.1.5.5.7 1.2.2.7.3 1.7.4 2.8.1 2.3-.3 5.5-1.3 9.1-.7 2.5-1.7 5.3-3 8.2-2.6 1.9-5 4.5-7.1 7.1-2.5 3.1-4.4 6.2-5.3 8.1-.2.5-.4.9-.5 1.3 0 .2-.1.4-.1.5 0 .2 0 .4.2.7.2.3.6.3.8.3.2 0 .4-.1.6-.2.3-.2.7-.5 1.1-1 5.2-5.1 8.8-10.7 11.3-15.9.3-.2.7-.5 1-.7 2.9-1.8 5.6-2.3 7.7-.8.5.3.9 1.1 1 2.4.1 1.4-.3 3.4-1.5 6.1-2.3 5.4-7.8 13.5-18.8 24.9-.3.3-.3.7 0 1 .3.3.7.3.9.1 3.5-2.7 7.8-5 11.5-6.4 1.8-.7 3.5-1.1 4.8-1.3.7-.1 1.2-.1 1.6 0 .4.1.7.2.8.3.2.2.4.6-.2 1.9-.6 1.2-1.8 2.9-3.9 5.1-4.2 4.4-11.7 10.8-23.9 19.6-.1.1-.3.2-.5.3-.3.2-.4.7-.2 1 .2.3.7.4 1 .2.6-.5 1.2-.9 1.8-1.4 11.4-8.3 18.6-14.4 22.7-18.7 2.2-2.3 3.5-4.1 4.2-5.5.6-1.4.8-2.7-.2-3.5.3.1-.2-.1-.8-.2zm-42.4-7.7s0 .1 0 0c-1.1-1.1-2.6-3-4.3-5.7 2.2 2.6 3.5 4.5 4.3 5.7zm6.1-20.1c.7 1.5 1.2 2.7 1.3 3.5 0 .4 0 .6-.1.6 0 0-.1.1-.3.1l-.2-.2c-.2-.3-.3-.7-.5-1.3-.3-1-.6-2.3-.8-3.9l.6 1.2zm13.4-.5c-.7 1.7-1.7 3-2.9 3.8v-.1c.1-.4.3-.8.6-1.4.7-1.3 1.8-3 3.1-4.9-.2.9-.5 1.8-.8 2.6zm2.1 19.2c.9-1.8 2.7-4.7 5-7.7 1.3-1.7 2.8-3.4 4.4-4.8-2.3 4.1-5.4 8.4-9.4 12.5z" clip-rule="evenodd"/>
    </g>
    <defs>
        <clipPath id="clip0">
            <path fill="#fff" d="M0 0H363V296H0z"/>
        </clipPath>
    </defs>
</svg>
