<?xml version="1.0" encoding="utf-8"?>
<!-- Generator: Adobe Illustrator 23.0.3, SVG Export Plug-In . SVG Version: 6.00 Build 0)  -->
<svg version="1.1" id="Слой_1" xmlns="http://www.w3.org/2000/svg" xmlns:xlink="http://www.w3.org/1999/xlink" x="0px" y="0px"
	 viewBox="0 0 363 296" style="enable-background:new 0 0 363 296;" xml:space="preserve">
<style type="text/css">
	.st0{fill:#F8CA06;}
	.st1{fill:#FFFFFF;}
	.st2{fill:#181C19;}
	.st3{opacity:0.1;enable-background:new    ;}
	.st4{fill-rule:evenodd;clip-rule:evenodd;fill:#181C19;}
</style>
<g>
	<path class="st0" d="M283,94.5v95c0,2.9-0.1,5.7-0.4,8.5c0,0.4,0,0.7-0.1,1.1c0,0.4-0.1,0.7-0.1,1.1c-1.9,16.7-8.1,32.1-17.6,45
		c-7.2,9.9-16.4,18.4-26.9,24.8c-11.2,6.9-23.8,11.5-37.4,13.2c-0.3,0-0.6,0.1-0.9,0.1c-0.3,0-0.6,0.1-0.8,0.1
		c-3.4,0.4-6.8,0.6-10.3,0.6c-52.2,0-94.5-42.3-94.5-94.5v-95c0-1.1,0-2.1,0.1-3.2c0-1.8,0.2-3.6,0.3-5.3c0.4-4.5,1.1-8.9,2.1-13.3
		c4.1-17.4,13-32.8,25.1-45C138.8,10.6,162.4,0,188.5,0C240.7,0,283,42.3,283,94.5z"/>
</g>
<g>
	<ellipse class="st0" cx="415.5" cy="173" rx="105.5" ry="105"/>
</g>
<g>
	<path class="st1" d="M204,152.3c-3.3-1.7-5.9-3.3-7.1-4.6c-0.2-0.2-0.3-0.3-0.4-0.5c0,0,0,0,0,0c0.6-0.2,1-0.6,0.9-1.2
		c0-0.6-0.5-1.6-1.7-2.9c-1.5-1.6-3.7-3-5.8-4.1c0.1,0-0.3-1.1-1-2.9c0-0.1-0.1-0.2-0.1-0.3c-0.8-1.8-1.9-4.3-3.3-6.9
		c-0.1-0.1-0.1-0.3-0.2-0.4c-0.1-0.2-0.2-0.3-0.3-0.5c-1.4-2.5-3-5.1-4.8-7.5c0,0,0-0.1-0.1-0.1c3.2-1.9,6.1-3,8.7-3.4
		c0.1,0,0.2,0,0.2,0c0.1,0,0.2,0,0.2-0.1c0,0,0.1,0,0.1,0c0.1,0,0.2,0,0.3-0.1c0.1,0,0.2,0,0.3,0c6.2-0.8,10.4,2.1,13.2,6.6
		c0,0,0,0,0,0v0c0.5,0.9,1,1.8,1.4,2.7c0,0,0,0,0,0c0,0,0,0.1,0.1,0.1c1.9,4.3,2.6,9.5,2.5,14.2C207.1,144.7,206,148.7,204,152.3z"
		/>
	<path class="st2" d="M205.3,126.2C205.3,126.2,205.3,126.2,205.3,126.2c0-0.1,0-0.1-0.1-0.2c-0.5-1-0.9-1.8-1.3-2.6
		c0-0.1,0-0.1-0.1-0.2c-3.2-5.2-8-7.6-13.9-6.9c0,0-0.1,0-0.2,0c-0.1,0-0.2,0-0.3,0.1c0,0-0.1,0-0.1,0c-0.1,0-0.1,0-0.2,0
		c0,0,0,0-0.1,0c-0.1,0-0.2,0-0.2,0c-2.6,0.5-5.4,1.6-8.4,3.2c-0.2,0.1-0.3,0.2-0.5,0.3c0,0-0.1,0.1-0.1,0.1
		c-0.2,0.2-0.3,0.4-0.2,0.7c0,0.1,0.1,0.2,0.2,0.3c0.4,0.6,0.9,1.2,1.3,1.8c0.2,0.2,0.3,0.4,0.5,0.7c0.2,0.3,0.4,0.6,0.6,1
		c0.8,1.2,1.6,2.5,2.3,3.9l0.3,0.6c0,0,0,0.1,0.1,0.1c0,0.1,0.1,0.1,0.1,0.2c1.5,2.8,2.7,5.2,3.3,6.8c0,0.1,0.1,0.1,0.1,0.2l0,0
		c0,0,0,0,0,0h0l0.6-0.3l-0.5,0.4l0,0l0,0c0.2,0.5,0.4,0.9,0.5,1.2c0,0.1,0,0.1,0.1,0.2c0.1,0.3,0.2,0.5,0.2,0.7v0
		c0,0.1,0,0.1,0.1,0.2c0,0.1,0,0.1,0,0.2c0,0.2,0,0.4,0.2,0.5c0.1,0.1,0.1,0.1,0.2,0.2c0.9,0.5,1.7,0.9,2.5,1.4
		c0.3,0.2,0.5,0.3,0.7,0.5c0,0,0,0,0,0c0.9,0.6,1.7,1.3,2.4,2c0.8,0.9,1.2,1.5,1.4,1.9c0,0.1,0,0.1,0.1,0.2c0,0,0,0,0,0.1
		c0,0.1,0,0.2,0.1,0.3c0,0.2,0,0.3-0.4,0.5c0,0-0.1,0-0.1,0c0,0,0,0,0,0c0,0,0,0,0,0c-0.1,0-0.3,0.2-0.4,0.3c-0.1,0.2-0.1,0.5,0,0.7
		c0.1,0.1,0.2,0.3,0.3,0.4c0,0,0.1,0.1,0.1,0.2c0.5,0.5,1.2,1.1,2.1,1.8c0.4,0.3,0.8,0.6,1.3,0.9c0.3,0.2,0.6,0.4,1,0.6
		c0.3,0.2,0.6,0.4,1,0.6c0,0,0.1,0,0.1,0c0.2,0.1,0.4,0.2,0.6,0.3c0.2,0.1,0.4,0.2,0.6,0.3c0,0,0,0,0,0c0.2,0.1,0.4,0.2,0.6,0.3
		c0,0,0,0,0,0c0.1,0,0.2,0.1,0.3,0.1c0.2,0,0.5-0.1,0.6-0.4c0,0,0,0,0,0c0,0,0,0,0,0c0.1-0.2,0.2-0.4,0.3-0.6
		c1.8-3.6,2.8-7.5,2.9-11.4C208,135.4,207.1,130.3,205.3,126.2z M206.5,140.6c-0.1,3.6-1,7.3-2.7,10.8c-1.7-0.9-3-1.7-3.9-2.3
		c-0.3-0.2-0.5-0.4-0.7-0.5c-0.6-0.4-1.1-0.8-1.4-1.2c0.1-0.1,0.2-0.2,0.2-0.3c0.1-0.1,0.1-0.1,0.2-0.2c0.1-0.3,0.2-0.6,0.1-1
		c0-0.1,0-0.2,0-0.3c0-0.1,0-0.2-0.1-0.3c-0.2-0.8-0.8-1.7-1.8-2.8c-0.4-0.4-0.8-0.8-1.3-1.2c-0.2-0.1-0.3-0.3-0.5-0.4
		c-0.5-0.4-1.1-0.8-1.7-1.2c-0.7-0.5-1.5-0.9-2.2-1.3c-0.1-0.2-0.2-0.5-0.3-1c0,0,0,0,0-0.1c-0.2-0.4-0.4-0.9-0.7-1.6c0,0,0,0,0-0.1
		c0,0,0,0,0,0c0,0,0-0.1,0-0.1L189,136v0l0.5-0.4c-0.7-1.6-1.8-4.1-3.4-7l-0.1-0.1c0,0,0,0,0,0c-0.1-0.1-0.1-0.2-0.1-0.2l-0.3-0.5
		c-0.7-1.2-1.4-2.5-2.1-3.7c-0.1-0.2-0.2-0.3-0.3-0.5c-0.6-1-1.3-1.9-1.9-2.8c2.8-1.5,5.4-2.5,7.9-3c0.1,0,0.2,0,0.2,0
		c0,0,0,0,0.1,0c0.1,0,0.1,0,0.2,0c0.1,0,0.2,0,0.3,0c0.1,0,0.2,0,0.2,0c5.3-0.7,9.5,1.4,12.5,6.1c0,0,0,0.1,0.1,0.2
		c0.4,0.8,0.9,1.6,1.3,2.5c0,0.1,0,0.1,0.1,0.2c0,0,0,0,0,0C205.7,130.7,206.6,135.6,206.5,140.6z"/>
</g>
<g>
	<path class="st0" d="M204,152.3c-5,9.5-9.7,13.9-10.4,14.6c-1-5.3-9.6-7.6-9.6-7.6c-3.6-1.3-13.7,0-13.8-10.4c0,0-0.2-4.5-1.5-7.8
		c0,0,5.6-1.4,7.7-5.8c0,0,6,0.3,13.6,3.8c2.2,1,4.3,2.4,5.8,4.1c1.1,1.2,1.6,2.1,1.7,2.8c0.1,0.7-0.3,1-0.9,1.2c0,0,0,0,0,0
		c0.1,0.2,0.2,0.3,0.4,0.5C198.2,149,200.7,150.6,204,152.3z"/>
	<path class="st2" d="M204.7,152.1c-0.1-0.2-0.2-0.3-0.4-0.4c0,0-0.1,0-0.1-0.1c0,0,0,0,0,0c-0.2-0.1-0.3-0.2-0.5-0.2
		c-1.7-0.9-3-1.7-3.9-2.3c-0.3-0.2-0.5-0.4-0.7-0.5c-0.7-0.5-1.1-0.9-1.4-1.2c0.1-0.1,0.2-0.2,0.2-0.2c0.1-0.1,0.1-0.1,0.2-0.2
		c0.2-0.3,0.2-0.7,0.2-1c0-0.1,0-0.1,0-0.2c0-0.1,0-0.2-0.1-0.3c-0.2-0.8-0.8-1.6-1.8-2.7c-0.4-0.4-0.8-0.9-1.3-1.3
		c-0.2-0.1-0.3-0.3-0.5-0.4c-0.5-0.4-1.1-0.8-1.7-1.2c-0.7-0.4-1.5-0.9-2.3-1.2c-0.1-0.1-0.2-0.1-0.3-0.2c-0.2-0.1-0.3-0.2-0.5-0.2
		h0c-0.3-0.1-0.6-0.3-0.9-0.4c-7-3-12.2-3.2-12.5-3.2c-0.2,0-0.4,0.1-0.5,0.2c0,0-0.1,0.1-0.1,0.2c-0.1,0.1-0.1,0.3-0.2,0.4
		c-2.1,3.7-6.9,4.9-7,5c-0.2,0-0.4,0.2-0.5,0.3c-0.1,0.2-0.1,0.4,0,0.6c1.2,3.2,1.5,7.5,1.5,7.6c0.1,8.8,6.9,9.8,11.4,10.5
		c1.1,0.2,2.1,0.3,2.8,0.6c0,0,0,0,0.1,0c0.2,0.1,7.8,2.2,9,6.7c0,0.1,0.1,0.2,0.1,0.3c0,0.2,0.1,0.3,0.2,0.4
		c0.1,0.1,0.1,0.1,0.2,0.2c0.1,0,0.1,0,0.2,0c0.2,0,0.3,0,0.4-0.2c0,0,0,0,0,0l0.1-0.1c3.4-3.4,7-8.4,10.1-14.1
		c0.1-0.2,0.2-0.4,0.3-0.6c0,0,0,0,0,0c0,0,0,0,0,0C204.8,152.5,204.8,152.3,204.7,152.1z M184.3,158.7L184.3,158.7
		c-0.8-0.3-1.9-0.5-3.1-0.6c-4.5-0.7-10.1-1.5-10.2-9.1c0-0.2-0.2-4-1.3-7.3c1.6-0.5,5.3-2.1,7.2-5.5c1.5,0.1,6.7,0.8,12.9,3.7
		c0.9,0.4,1.7,0.8,2.4,1.3c0.3,0.2,0.5,0.3,0.7,0.5c0,0,0,0,0,0c0.9,0.6,1.7,1.3,2.4,2.1c0.8,0.8,1.1,1.4,1.3,1.8
		c0,0.1,0,0.1,0.1,0.2c0,0,0,0,0,0.1c0,0.1,0.1,0.2,0.1,0.3c0,0.2,0,0.3-0.3,0.5c0,0-0.1,0-0.2,0.1c-0.1,0.1-0.2,0.2-0.3,0.3
		c-0.1,0.2-0.1,0.5,0,0.7c0.1,0.1,0.2,0.3,0.3,0.4c0,0,0.1,0.1,0.1,0.1c0.5,0.5,1.2,1.1,2.1,1.8c0.4,0.3,0.8,0.6,1.3,0.9
		c0.3,0.2,0.6,0.4,1,0.6c0.3,0.2,0.6,0.4,1,0.6c0,0,0.1,0,0.1,0c0.2,0.1,0.4,0.2,0.6,0.3c0.2,0.1,0.4,0.2,0.6,0.3c0,0,0,0,0,0
		c-1.1,2-2.2,3.9-3.4,5.7c-0.4,0.6-0.8,1.2-1.2,1.7c-1.1,1.5-2.1,2.9-3.2,4.2c-0.4,0.5-0.8,0.9-1.2,1.3
		C192.2,161,185.6,159,184.3,158.7z"/>
</g>
<g>
	<path class="st2" d="M194.8,148.1c-2,0-4.3-0.5-4.7-0.6c-0.4-0.1-0.6-0.5-0.5-0.8c0.1-0.4,0.5-0.6,0.8-0.5c1.2,0.3,4.5,0.9,5.9,0.4
		c0.4-0.1,0.8,0.1,0.9,0.4c0.1,0.4-0.1,0.8-0.4,0.9C196.3,148.1,195.6,148.1,194.8,148.1z"/>
</g>
<g>
	<path class="st1" d="M188.9,135.9c-0.8-1.8-1.9-4.3-3.3-6.9C187,131.7,188.2,134.1,188.9,135.9z"/>
	<path class="st2" d="M188.9,136.6c-0.3,0-0.5-0.2-0.6-0.4c-0.7-1.6-1.8-4-3.3-6.8c-0.1-0.1-0.1-0.2-0.1-0.3c0-0.2,0.1-0.5,0.4-0.6
		c0.3-0.2,0.8-0.1,1,0.3c1.6,2.8,2.7,5.3,3.4,6.9c0,0.1,0.1,0.2,0.1,0.3c0,0.3-0.2,0.5-0.4,0.6C189.1,136.6,189,136.6,188.9,136.6z"
		/>
</g>
<g>
	<path class="st2" d="M189.9,138.9c-7.5-3.4-13.6-3.8-13.6-3.8c-8.9-4.9-18-21.6-9.3-23c4.6-0.7,9.3,3.3,13.2,8.5
		c0,0,0.1,0.1,0.1,0.1c1.8,2.4,3.4,4.9,4.8,7.4c0.1,0.2,0.2,0.3,0.3,0.5c0.1,0.1,0.1,0.3,0.2,0.4c1.4,2.6,2.6,5.1,3.3,6.9
		c0.1,0.1,0.1,0.2,0.1,0.3C189.7,137.8,190,138.9,189.9,138.9z"/>
	<path class="st2" d="M190.6,138.7c0-0.2-0.1-0.6-0.3-1.1c0,0,0,0,0-0.1c-0.2-0.4-0.3-1-0.6-1.6c0-0.1-0.1-0.2-0.1-0.3
		c0-0.1-0.1-0.2-0.1-0.2c0,0,0,0,0,0c-0.1-0.3-0.2-0.6-0.4-0.9c0,0,0-0.1-0.1-0.1c-0.1-0.2-0.2-0.4-0.3-0.7c0,0,0-0.1-0.1-0.1
		c-0.2-0.5-0.5-1-0.8-1.6c-0.2-0.3-0.3-0.7-0.5-1c0,0,0,0,0-0.1c-0.3-0.7-0.7-1.3-1.1-2.1c0,0,0-0.1,0-0.1c0,0,0-0.1-0.1-0.1
		c0-0.1-0.1-0.1-0.1-0.2l-0.3-0.5c-0.7-1.3-1.4-2.5-2.2-3.6c-0.1-0.2-0.2-0.3-0.3-0.5c-0.8-1.2-1.6-2.3-2.4-3.4c0,0,0,0,0,0
		c0,0,0,0-0.1-0.1c-0.1-0.2-0.2-0.3-0.3-0.4c-3.3-4.4-8.3-9.2-13.5-8.4c-2.3,0.4-3.7,1.7-4,3.8c-1,5.5,5.7,16.1,12.6,20.2
		c0.1,0.1,0.3,0.2,0.4,0.2c0.1,0,0.1,0.1,0.2,0.1c0,0,0,0,0.1,0c0.1,0,6,0.4,13.2,3.7c0,0,0.1,0,0.1,0.1c0.1,0.1,0.2,0.1,0.3,0.1
		c0.2,0,0.4-0.1,0.5-0.3c0,0,0,0,0,0l0,0C190.6,139.2,190.7,139,190.6,138.7z M164.3,115.5c0.3-1.5,1.2-2.4,2.8-2.7
		c4.7-0.7,9.4,4.1,12.5,8.3l0,0c0,0,0,0.1,0.1,0.1c0.5,0.6,0.9,1.2,1.4,1.8c0.2,0.2,0.3,0.4,0.5,0.7c0.2,0.3,0.4,0.6,0.6,1
		c0.8,1.2,1.6,2.5,2.3,3.9l0.4,0.6c0,0.1,0.1,0.2,0.1,0.2c0,0,0,0,0,0c0.2,0.3,0.4,0.6,0.5,0.9c0,0.1,0.1,0.1,0.1,0.2
		c0.2,0.3,0.3,0.6,0.5,0.9c0.2,0.4,0.4,0.8,0.6,1.1c0.1,0.2,0.2,0.5,0.3,0.7c0.1,0.2,0.1,0.3,0.2,0.4c0.1,0.3,0.2,0.5,0.4,0.8
		c0,0,0,0,0,0c0.1,0.3,0.2,0.5,0.3,0.7c0.1,0.2,0.2,0.4,0.3,0.6c0,0,0,0,0,0.1c0,0.1,0.1,0.2,0.1,0.3c0,0,0,0.1,0,0.1c0,0,0,0,0,0.1
		c0,0,0,0,0,0c0,0,0,0.1,0,0.1l0,0c0.2,0.5,0.4,0.9,0.5,1.3h0c-6.3-2.7-11.4-3.2-12.4-3.3C170,130.7,163.4,120.5,164.3,115.5z"/>
</g>
<g>
	<path class="st0" d="M147,248.5c-32.8-22-52.4-70.8-55.1-73.2c-3-2.8-10.4-7.1-14.2-12.4c-2.5-3.6-1.8-7.1-0.2-9.4
		c1.2-1.7,1.3-3.9,0.2-5.7c-1.9-3.2-2-5.4-1.5-6.8c0.3-1,1.7-1.2,2.3-0.3c5.9,9.5,37.4,56.7,75.7,51.7
		C154.2,192.3,163.2,225,147,248.5z"/>
	<path class="st2" d="M155.5,194.9c0-0.2-0.1-0.3-0.1-0.5c0-0.2-0.1-0.3-0.1-0.5c-0.2-0.9-0.4-1.5-0.4-1.8c0-0.1-0.1-0.2-0.1-0.2
		c-0.1-0.3-0.4-0.4-0.7-0.4c0,0-0.1,0-0.1,0c0,0,0,0,0,0c-24.4,3.2-46.1-15.3-59.9-31.3c-7.6-8.7-12.8-16.7-14.9-20.1
		c-0.4-0.6-1.1-1-1.9-0.9c-0.8,0.1-1.4,0.6-1.7,1.4c-0.4,1.4-0.5,3.8,1.6,7.4c0.9,1.5,0.9,3.5-0.2,4.9c-1.7,2.4-2.5,6.4,0.2,10.2
		c2.7,3.7,7,6.9,10.4,9.5c1.6,1.2,2.9,2.2,3.9,3c0.3,0.3,1.3,2.1,2.5,4.4c0.3,0.7,0.7,1.4,1.1,2.1c7.6,14.7,25.3,49.2,51.6,66.8
		c0.1,0.1,0.2,0.1,0.4,0.1c0.2,0,0.4-0.1,0.6-0.3c0,0,0,0,0,0c0.1-0.2,0.3-0.4,0.4-0.6c0.2-0.3,0.4-0.7,0.6-1c0,0,0-0.1,0.1-0.1
		c0.4-0.7,0.8-1.4,1.2-2.1c0.4-0.6,0.7-1.3,1-2l0,0c0.3-0.6,0.6-1.2,0.9-1.9l0,0C160.2,223,157.1,202.4,155.5,194.9z M149.5,243
		c-0.3,0.7-0.7,1.3-1.1,1.9c-0.2,0.3-0.3,0.6-0.5,0.8c-0.3,0.4-0.5,0.9-0.8,1.3c-0.1,0.2-0.2,0.3-0.3,0.5c0,0,0,0,0,0
		c-25.7-17.5-43-51.4-50.5-65.9c-1-1.9-1.7-3.4-2.3-4.5c-0.7-1.4-1.2-2.1-1.6-2.4c-1-0.9-2.4-1.9-4-3.1c-3.4-2.5-7.6-5.6-10.1-9.2
		c-2.9-4.1-0.9-7.6-0.2-8.6c1.4-1.9,1.5-4.4,0.2-6.4c-1.9-3.1-1.8-5.1-1.5-6.2c0.1-0.3,0.4-0.4,0.5-0.4h0.1c0.1,0,0.3,0,0.5,0.3
		c2.2,3.5,7.9,12.1,16.1,21.4c14,15.8,35.5,33.5,59.6,30.7c0.2,0.6,0.4,1.6,0.7,3.1c0,0.2,0.1,0.3,0.1,0.5c0,0,0,0,0,0.1
		c0.1,0.6,0.2,1.2,0.3,1.9c0,0.3,0.1,0.7,0.2,1c0,0.3,0.1,0.5,0.1,0.8c0,0.2,0.1,0.4,0.1,0.7c0.1,0.5,0.1,1,0.2,1.5
		c1.1,9.1,1.5,23.1-3.8,36c-0.2,0.6-0.5,1.1-0.7,1.7c-0.3,0.6-0.6,1.2-0.8,1.8C149.8,242.4,149.6,242.7,149.5,243z"/>
</g>
<g>
	<path class="st2" d="M264.8,245.2c9.5-12.9,15.7-28.3,17.6-45c0-0.4,0.1-0.7,0.1-1.1c-3.1-4.5-6.9-9.1-11.5-13.5
		c-9-8.5-19.8-15-31.5-19.1c-9.6-3.4-25.2-9.1-34.8-13.9h0c-0.2-0.1-0.4-0.2-0.6-0.3h0c0,0,0,0,0,0c-0.1,0.2-0.2,0.4-0.3,0.6
		c-0.1,0.2-0.3,0.5-0.4,0.7c-0.1,0.2-0.2,0.4-0.4,0.7c-0.1,0.2-0.3,0.4-0.4,0.7c-0.1,0.2-0.2,0.4-0.4,0.6c-0.8,1.4-1.7,2.7-2.4,3.8
		c-0.3,0.4-0.5,0.8-0.8,1.1c-0.8,1.1-1.5,2-2.1,2.7c0,0-0.1,0.1-0.1,0.1c-0.1,0.1-0.2,0.3-0.3,0.4c-0.4,0.4-0.7,0.8-1,1.2
		c-0.9,1-1.5,1.6-1.8,1.8l0,0c-0.1,0.2-0.3,0.4-0.4,0.5c-13.1,15.7-26.1,23-38.4,24.8c-0.2,0-0.4,0.1-0.7,0.1c0,0,0.5,2,1.1,5.4
		c0,0,0,0,0,0c0.1,0.7,0.2,1.4,0.3,2.2c0.1,0.5,0.2,1.1,0.2,1.6c0.1,0.6,0.1,1.1,0.2,1.7c0.2,1.5,0.3,3.1,0.4,4.8
		c0,0.7,0.1,1.4,0.1,2.1l0,1.1c0,0.4,0,0.7,0,1.1c0,0.8,0,1.6,0,2.5c0,0.1,0,0.1,0,0.2c0,0.3,0,0.6,0,0.9c0,0.4,0,0.9,0,1.3
		c0,0.4,0,0.9-0.1,1.3c-0.1,0.9-0.1,1.8-0.2,2.7c-0.1,0.9-0.2,1.8-0.3,2.8c-0.1,1.1-0.3,2.2-0.5,3.4c-0.1,0.4-0.1,0.7-0.2,1.1
		c-0.2,1-0.4,2.1-0.7,3.1c-0.1,0.3-0.2,0.6-0.2,0.9c-0.1,0.3-0.2,0.6-0.3,0.9c-0.2,0.6-0.4,1.2-0.6,1.8c-0.2,0.5-0.3,1-0.5,1.6
		c0,0,0,0.1,0,0.1c0,0,0,0,0,0c-0.2,0.5-0.4,1-0.6,1.5c-0.4,1-0.9,2.1-1.4,3.1c-0.2,0.3-0.3,0.6-0.4,0.9c-0.1,0.3-0.3,0.5-0.4,0.8
		c-0.3,0.6-0.6,1.2-0.9,1.7c-0.2,0.3-0.3,0.6-0.5,0.8c-0.2,0.3-0.3,0.5-0.5,0.8c-0.4,0.6-0.7,1.2-1.1,1.7c0.2,0.1,0.4,0.3,0.6,0.4
		c4.1,2.8,8.5,5,13.1,6.8c22.6,8.5,33.6,19.5,39,27.7c0.3,0,0.6-0.1,0.9-0.1c13.6-1.7,26.3-6.3,37.4-13.2 M295.7,233.3
		c-0.7-5-2-11-4.4-17.4v0c-0.2-0.1-0.3-0.2-0.5-0.3c-0.2-0.1-0.4-0.1-0.5-0.1c-0.2,0.1-0.3,0.2-0.3,0.5c0,4.7,1.1,10.8,4.7,16.1v0
		C295,232.4,295.4,232.9,295.7,233.3z"/>
	<path class="st2" d="M296.5,234.2c-0.6-5-1.9-11.1-4.2-17.7c-0.3-0.2-0.6-0.5-0.9-0.7v0c-0.2-0.1-0.3-0.2-0.5-0.3
		c-0.2-0.1-0.4-0.1-0.5-0.1c2.3,6.1,3.7,11.7,4.4,16.6v0c0.3,0.4,0.6,0.9,1,1.3v0C295.9,233.6,296.2,233.9,296.5,234.2z
		 M271.5,185.1c-8.9-8.4-19.8-15.1-31.8-19.2c-10.5-3.7-25.4-9.2-34.7-13.9c-0.2-0.1-0.4-0.2-0.6-0.3h0c0,0-0.1,0-0.1,0c0,0,0,0,0,0
		c-0.3-0.1-0.6,0.1-0.8,0.3c0,0,0,0,0,0c-0.1,0.2-0.2,0.4-0.3,0.6c-1.1,2-2.2,3.9-3.4,5.7c-0.4,0.6-0.8,1.2-1.2,1.7
		c-1.1,1.5-2.2,2.9-3.2,4.2c-0.4,0.5-0.8,0.9-1.2,1.3c-0.2,0.2-0.4,0.4-0.5,0.6l-0.3,0.3c-0.1,0.1-0.2,0.2-0.2,0.3
		c-12.2,14.7-25.2,23.1-38.8,24.9c-0.1,0-0.1,0-0.2,0c0,0,0,0,0,0c-0.1,0.1-0.2,0.2-0.3,0.3c-0.1,0.1-0.1,0.3-0.1,0.5
		c0,0,0,0.1,0,0.1c0,0.1,0.4,1.4,0.8,3.7c0,0.2,0.1,0.3,0.1,0.5c0,0,0,0,0,0.1c0.1,0.6,0.2,1.2,0.3,1.9c0,0.3,0.1,0.7,0.2,1
		c0,0.3,0.1,0.5,0.1,0.8c0,0.2,0.1,0.4,0.1,0.7c0.1,0.5,0.1,1,0.2,1.5c1.1,9.1,1.4,23.1-3.8,36c-0.2,0.6-0.5,1.1-0.7,1.7
		c-0.3,0.6-0.6,1.2-0.8,1.8c-0.2,0.3-0.3,0.6-0.5,0.9c-0.3,0.7-0.7,1.3-1.1,1.9c-0.2,0.3-0.3,0.6-0.5,0.8c-0.3,0.4-0.5,0.9-0.8,1.3
		c-0.1,0.2-0.2,0.3-0.3,0.5c-0.1,0.2-0.2,0.4-0.4,0.6c-0.1,0.2-0.1,0.3-0.1,0.5c0,0.2,0.1,0.3,0.3,0.4c4.5,3,9.1,5.5,13.8,7.2
		c22.1,8.3,33,19.1,38.4,27.1c0.3,0,0.6,0,0.8-0.1c0.3,0,0.6-0.1,0.9-0.1c-5.3-8.3-16.4-19.5-39.6-28.2c-4.4-1.6-8.7-3.9-13-6.7
		c0.2-0.3,0.4-0.7,0.6-1c0,0,0-0.1,0.1-0.1c0.4-0.7,0.8-1.4,1.2-2.1c0.4-0.6,0.7-1.3,1-2l0,0c0.3-0.6,0.6-1.2,0.9-1.9l0,0
		c8.2-18.2,5.1-39,3.6-46.4c0-0.2-0.1-0.3-0.1-0.5c0-0.2-0.1-0.3-0.1-0.5c-0.1-0.4-0.2-0.8-0.2-1.1c13.7-2.1,26.9-10.6,39.1-25.5
		c0,0,0,0,0-0.1l0.1-0.1c3.4-3.4,7-8.4,10.1-14.1l0,0c9.4,4.7,24.4,10.2,34.9,14c11.7,4.1,22.5,10.7,31.2,18.9
		c4.8,4.6,8.7,9.3,11.9,14c0-0.4,0.1-0.7,0.1-1.1c0-0.4,0.1-0.7,0.1-1.1C279.6,193.7,275.9,189.3,271.5,185.1z"/>
</g>
<g>
	<path class="st2" d="M42.7,85.5L91,72.6c5.3-1.4,10.8,1.7,12.2,7.1l6.5,24.1c1.4,5.3-1.7,10.8-7.1,12.2L54.3,129
		c-5.3,1.4-10.8-1.7-12.2-7.1l-6.5-24.1C34.2,92.4,37.3,87,42.7,85.5z"/>
</g>
<g>
	<circle class="st1" cx="90" cy="88.4" r="5"/>
</g>
<g>
	<circle class="st0" cx="82.3" cy="90.4" r="5"/>
</g>
<g>
	<path class="st1" d="M194.8,37.8l32.9,8.8c3.7,1,6,4.8,4.9,8.6l-4.4,16.3c-1,3.7-4.8,6-8.6,4.9l-32.9-8.8c-3.7-1-6-4.8-4.9-8.6
		l4.4-16.3C187.2,39,191,36.8,194.8,37.8z"/>
</g>
<g>
	<circle class="st2" cx="221.8" cy="55.7" r="3.4"/>
</g>
<g>
	<circle class="st0" cx="216.5" cy="54.3" r="3.4"/>
</g>
<g>
	<g>
		<path class="st0" d="M276,255.5l-4.3,16.2l0,0.1c-0.1,0.4-0.2,0.8-0.4,1.1c-0.2,0.5-0.5,0.9-0.8,1.3c-1.1,1.5-2.8,2.5-4.7,2.7
			c-0.5,0.1-1,0.1-1.5,0c-0.4,0-0.8-0.1-1.2-0.2l-0.1,0l-25-6.7l-7.9-2.1c-3.7-1-6-4.8-5-8.6l4.4-16.3c1-3.7,4.8-6,8.6-5l26.7,7.2
			l6.2,1.7C274.8,247.9,277,251.7,276,255.5z"/>
	</g>
	<g>
		<circle class="st2" cx="235.9" cy="258.8" r="3.4"/>
	</g>
	<g>
		<circle class="st1" cx="241.3" cy="260.3" r="3.4"/>
	</g>
</g>
<g class="st3">
	<ellipse class="st2" cx="329.2" cy="286" rx="18.8" ry="2"/>
</g>
<g>
	<path class="st1" d="M358.5,203.9c-18.2,5.2-28.5,22.8-31.5,31.2c0,0.1,0,0.1,0,0.2v0.8c0,0.3,0.2,0.5,0.5,0.5
		c28.4,2.3,33-20.1,31.6-32.2C359,204,358.8,203.8,358.5,203.9z"/>
</g>
<g>
	<path class="st0" d="M327.3,240.5v2.8c0,0.3-0.3,0.5-0.5,0.5c0,0,0,0-0.1,0c-14.9-3.4-21.1-1.9-26.8-6.4c-1.3-1-2.4-2-3.4-3.2v0
		c-0.3-0.3-0.5-0.6-0.8-0.9v0c-0.3-0.4-0.7-0.8-1-1.3v0c-3.7-5.3-4.7-11.4-4.7-16.1c0-0.2,0.1-0.4,0.3-0.5c0.2-0.1,0.3,0,0.5,0.1
		c0.1,0.1,0.3,0.2,0.5,0.3v0c0.3,0.2,0.6,0.5,0.9,0.7c4.9,3.4,11.7,6.2,18.7,9.1c7.6,3,12,8.7,15.6,13.6c0,0,0,0,0,0
		c0.2,0.3,0.4,0.6,0.7,1C327.3,240.3,327.3,240.4,327.3,240.5z"/>
</g>
<g>
	<path class="st1" d="M330.8,192.2c19.2-1.9,21.9-22.8,20.8-33.8c0-0.4-0.4-0.6-0.8-0.4c-8.7,5.6-13.1,9.1-15.4,12.6
		c-3.6,5.6-2.9,10.1-5.2,18.6c0,0,0,0.1,0,0.1v2.3C330.2,192,330.5,192.2,330.8,192.2z"/>
</g>
<g>
	<path class="st1" d="M328.9,202.5c-17.6,3.3-24.4-12.3-25.7-21.3c-0.1-0.4,0.3-0.6,0.6-0.5c4.3,1.5,5.4,2.1,10.4,3.3
		c5.2,1.3,8.4,4.9,10.1,7.8c1.6,2.8,2.8,5.9,4.9,9.9C329.4,202.1,329.2,202.5,328.9,202.5z"/>
</g>
<g>
	<path class="st4" d="M329.1,179.1c0.4-0.1,0.7,0.2,0.8,0.6c0.5,3.2,1.3,10.3,1.3,13.2c0,3.5-0.9,9.8-1.8,15.7
		c-0.1,0.6-0.2,1.2-0.3,1.8c-0.4,2.3-0.7,4.6-1,6.5c-0.3,2.4-0.6,4.4-0.6,5.5c0,0.2,0,0.3,0,0.5c0,5.2,0,20.4,1.3,30.5
		c1.1,8.8,0.6,19.8,0.2,28c-0.1,1.6-0.2,3.2-0.2,4.5c0,0.4-0.3,0.7-0.7,0.7c-0.4,0-0.7-0.3-0.7-0.7c0.1-1.4,0.1-2.9,0.2-4.6
		c0.4-8.2,0.9-19-0.2-27.7c-1.3-10.1-1.3-25.4-1.3-30.6c0-0.2,0-0.4,0-0.5c0-1.2,0.2-3.2,0.6-5.7c0.3-1.9,0.6-4.2,1-6.5
		c0.1-0.6,0.2-1.2,0.3-1.8c0.9-5.9,1.8-12.1,1.8-15.5c0-2.8-0.8-9.8-1.3-13C328.5,179.6,328.8,179.2,329.1,179.1z"/>
</g>
<g>
	<path class="st4" d="M350.2,239.4c0.2,0.1,0.3,0.4,0.3,0.6c-0.1,5.4-4.7,17.1-21.8,21.6l-0.4-1.4c15.2-4,20-13.9,20.6-19.1
		c-1.8,0.8-3.4,1.4-4.8,1.9c-0.3,0.1-0.7,0.3-1,0.4c-1.8,0.7-3.3,1.3-4.8,2.4c-5.3,3.9-8.2,8.7-9.2,11.4l-1.3-0.5
		c1.1-3,4.2-8,9.7-12.1c1.6-1.2,3.3-1.9,5.1-2.6c0.3-0.1,0.7-0.3,1-0.4c1.6-0.6,3.5-1.3,5.7-2.4C349.8,239.3,350,239.3,350.2,239.4z
		"/>
</g>
<g>
	<path class="st4" d="M300.6,243.4c0.2-0.2,0.5-0.3,0.7-0.2c17.8,6.4,26.1,20.7,28.1,27.2c0.1,0.4-0.1,0.8-0.5,0.9
		c-0.4,0.1-0.8-0.1-0.9-0.5c-1.9-6-9.5-19.4-25.9-25.8c0.4,1.6,0.7,3,0.9,4.4c0,0.2,0.1,0.4,0.1,0.7c0.3,2,0.7,4,1.8,6.2
		c1.8,4,4.3,7.6,8.6,10.7c1.9,1.3,3.6,1.9,6,2.6c0.3,0.1,0.6,0.2,1,0.3c2.2,0.6,4.9,1.4,8.5,2.8c0.4,0.1,0.5,0.6,0.4,0.9
		c-0.1,0.4-0.6,0.5-0.9,0.4c-3.5-1.4-6.1-2.1-8.3-2.7c-0.3-0.1-0.7-0.2-1-0.3c-2.4-0.7-4.3-1.3-6.4-2.8c-4.6-3.3-7.2-7.1-9.1-11.3
		c-1.1-2.4-1.5-4.5-1.9-6.6c0-0.2-0.1-0.4-0.1-0.7c-0.3-1.8-0.6-3.6-1.3-5.6C300.4,243.9,300.4,243.6,300.6,243.4z"/>
</g>
<g>
	<path class="st4" d="M327.5,220c-0.3-0.4-0.6-0.9-1-1.3v0c-1.6-2-4-4.5-7.1-6.7c-0.8-0.6-1.7-1.1-2.6-1.6h0
		c-3.4-2-7.5-3.5-12.1-3.7c-0.2,0-0.5,0.1-0.6,0.3c-0.1,0.2-0.2,0.4-0.1,0.7c0.9,2,1.4,3.5,1.9,4.6c0.1,0.4,0.3,0.7,0.4,1
		c0.5,1.3,1,2.3,1.7,3.3c1.3,1.9,5.6,5.5,14.2,5.7c1.2,0,2.5,0,4-0.1c0.2,0,0.5,0,0.8-0.1c0.4,0,0.7-0.4,0.6-0.8
		c0-0.2-0.1-0.3-0.2-0.4C327.7,220.6,327.7,220.3,327.5,220z M321.5,220.8c-7.7-0.4-11.4-3.7-12.3-5.1c-0.6-0.9-1-1.8-1.5-3.1
		c-0.1-0.3-0.2-0.6-0.4-1c-0.4-1-0.8-2.1-1.5-3.6c4.5,0.4,8.6,2.2,11.9,4.3c0.3,0.2,0.6,0.4,1,0.6c3.7,2.6,6.4,5.7,7.7,7.7
		C324.6,220.9,323,220.9,321.5,220.8z"/>
</g>
<g>
	<path class="st4" d="M346.1,191.1c0.2,0.2,0.3,0.4,0.2,0.6c-0.6,3.6-2.1,9.1-5,13.9c-2.9,4.8-7.2,8.9-13.3,9.6
		c-0.4,0-0.7-0.2-0.8-0.6c0-0.4,0.2-0.7,0.6-0.8c5.5-0.6,9.4-4.4,12.2-8.9c2.5-4.1,4-8.8,4.6-12.3c-10.9,3.4-14.8,13.2-15.4,17.8
		c-0.1,0.4-0.4,0.7-0.8,0.6c-0.4-0.1-0.7-0.4-0.6-0.8c0.7-5.1,5.1-16,17.5-19.2C345.7,190.9,345.9,190.9,346.1,191.1z"/>
</g>
<g class="st3">
	<ellipse class="st2" cx="38.1" cy="285.9" rx="19.7" ry="2.1"/>
</g>
<g>
	<path class="st4" d="M72.9,255.6c-0.6-0.1-1.3-0.1-2,0c-1.5,0.2-3.2,0.7-5.1,1.4c-2.2,0.8-4.5,1.9-6.9,3.2c8.4-9.2,12.9-16.1,15-21
		c1.2-2.8,1.7-5,1.6-6.7c-0.1-1.7-0.7-2.9-1.6-3.5c-2.6-1.8-5.7-1.2-8.5,0.3c0.9-2.2,1.7-4.4,2.2-6.4c1-3.7,1.4-7,1.3-9.5
		c0-1.2-0.2-2.3-0.4-3.2c-0.2-0.8-0.6-1.6-1.2-2c-0.9-0.6-2.1-0.3-3.2,0.2c-1.1,0.5-2.3,1.5-3.6,2.6c-2.4,2.2-5,5.2-7.4,8.2
		c0.3-4.8-0.1-10.3-1-15.5c-1-5.9-2.5-11.4-4.3-15.5c-0.9-2-1.8-3.7-2.8-4.8c-0.9-1.1-2.1-1.8-3.3-1.4c-1.5,0.5-2.6,1.7-3.6,3.3
		c-0.9,1.6-1.7,3.8-2.3,6.2c-1.2,4.9-1.8,11.1-2,17.1c-0.1,4,0,8,0.2,11.5c-0.5-0.8-1-1.6-1.4-2.3c0,0,0,0,0,0
		c-1.9-3-4.2-6.3-6.5-9.1c-2.3-2.8-4.6-5.2-6.6-6.4c-1-0.6-2-1-3-0.7c-1,0.2-1.7,1.1-2,2.2c-0.3,1.2-0.5,2.8-0.3,5
		c0.1,2.2,0.5,5,1.2,8.5c1.2,6.2,3,11.6,4.9,16.1c-0.1-0.1-0.2-0.2-0.3-0.3c-2-2-4.7-3.9-7.4-5.2c-2.7-1.3-5.5-2.2-7.7-2.2
		c-1.1,0-2.1,0.2-2.9,0.7c-0.8,0.5-1.3,1.4-1.4,2.5c-0.1,1.1,0.2,2.4,0.9,3.9c0.7,1.5,1.8,3.4,3.4,5.5c6.3,8.6,13.4,15.4,17.6,19.4
		c0.1,0.1,0.2,0.2,0.3,0.3c0.6,0.6,1.2,1.1,1.7,1.6c-0.3-0.1-0.6-0.3-0.9-0.5c-4.9-2.5-9-4.2-12.2-5.3c-3.2-1.1-5.7-1.5-7.5-1.4
		c-0.9,0-1.7,0.2-2.2,0.6c-0.6,0.4-1,0.9-1.2,1.6c-0.3,1.3,0.2,2.9,1.1,4.6c1.9,3.5,6.1,8,11.8,12.6c5,4.1,11.1,8.3,18,11.9
		c1,0.5,2,1,3,1.6c0.3,0.2,0.8,0,0.9-0.3c0.2-0.3,0-0.8-0.3-0.9l-0.8-0.4c-7.7-3.9-14.5-8.5-20-12.9c-5.6-4.6-9.7-9-11.5-12.2
		c-0.9-1.7-1.2-2.8-1-3.6c0.1-0.3,0.3-0.6,0.6-0.8c0.3-0.2,0.8-0.4,1.6-0.4c1.5-0.1,3.8,0.3,7,1.4c3.2,1.1,7.1,2.7,12,5.2
		c1.3,0.7,2.3,1.1,2.9,1.3c0.1,0.1,0.3,0.1,0.4,0.1c0.1,0,0.3,0.1,0.4,0c0.2,0,0.5-0.1,0.7-0.5c0.1-0.3,0-0.6,0-0.7
		c-0.1-0.2-0.3-0.5-0.5-0.7c-0.2-0.2-0.5-0.5-0.8-0.8c-0.6-0.6-1.4-1.3-2.3-2.2c-0.1-0.1-0.2-0.2-0.3-0.3
		c-4.2-4-11.3-10.7-17.5-19.2c-1.5-2.1-2.6-3.8-3.2-5.3c-0.6-1.4-0.9-2.5-0.8-3.2c0.1-0.7,0.3-1.1,0.8-1.4c0.5-0.3,1.2-0.5,2.1-0.5
		c1.9,0,4.5,0.8,7.1,2.1c2.6,1.3,5.2,3,7,4.9c1.1,1.1,2.1,2.2,3,3.2c2.9,6,5.9,10,7.8,11.7c0.4,0.4,0.8,0.7,1.2,0.9
		c0.2,0.1,0.4,0.2,0.6,0.2c0.2,0,0.6,0,0.8-0.2c0.2-0.2,0.3-0.6,0.2-0.8c0-0.2-0.1-0.4-0.1-0.6c-0.1-0.4-0.4-0.9-0.8-1.6
		c-1.2-2.1-3.9-5.5-8.5-10.5c-2.5-5.1-4.9-11.6-6.5-19.5c-0.7-3.4-1.1-6.2-1.2-8.3c-0.1-2.1,0-3.6,0.3-4.5c0.3-0.9,0.7-1.2,1-1.3
		c0.4-0.1,1,0,1.9,0.6c1.8,1,4,3.3,6.2,6.1c2.3,2.8,4.5,6,6.4,9c0.4,0.8,0.9,1.6,1.5,2.4c0.4,0.7,0.9,1.5,1.4,2.2
		c0.1,0.7,0.1,1.3,0.2,1.9c0.3,2.2,0.6,4.1,1,5.5c0.2,0.7,0.4,1.2,0.7,1.7c0.2,0.4,0.7,0.9,1.3,0.9s1.2-0.2,1.5-0.7
		c0.3-0.5,0.4-1.1,0.3-1.6c-0.1-1.1-0.7-2.5-1.4-3.9c-0.6-1.3-1.5-2.7-2.3-4.1c-0.4-4.1-0.5-9-0.4-14.1c0.2-6,0.8-12.1,1.9-16.8
		c0.6-2.4,1.3-4.4,2.1-5.9c0.8-1.5,1.8-2.4,2.8-2.7c0.4-0.1,1,0,1.9,1c0.8,0.9,1.7,2.4,2.5,4.4c1.7,3.9,3.2,9.4,4.2,15.1
		c1,5.8,1.4,11.8,0.9,16.8c0,0.2,0,0.4-0.1,0.6c-2.1,2.8-3.8,5.5-4.9,7.5c-0.3,0.6-0.5,1.1-0.7,1.5c-0.2,0.4-0.3,0.8-0.3,1.2
		c0,0.2,0,0.4,0.2,0.7c0.2,0.2,0.5,0.4,0.7,0.4c0.2,0,0.5,0,0.6-0.1s0.4-0.2,0.6-0.3c1.6-1,2.7-2.5,3.5-4.5c0.7-1.7,1.2-3.7,1.5-5.9
		c0.3-0.3,0.5-0.7,0.8-1.1c2.5-3.3,5.3-6.5,7.8-8.8c1.2-1.1,2.4-2,3.3-2.4c1-0.5,1.5-0.4,1.8-0.3c0.2,0.1,0.5,0.5,0.7,1.2
		c0.2,0.7,0.3,1.7,0.4,2.8c0.1,2.3-0.3,5.5-1.3,9.1c-0.7,2.5-1.7,5.3-3,8.2c-2.6,1.9-5,4.5-7.1,7.1c-2.5,3.1-4.4,6.2-5.3,8.1
		c-0.2,0.5-0.4,0.9-0.5,1.3c0,0.2-0.1,0.4-0.1,0.5c0,0.2,0,0.4,0.2,0.7c0.2,0.3,0.6,0.3,0.8,0.3c0.2,0,0.4-0.1,0.6-0.2
		c0.3-0.2,0.7-0.5,1.1-1c5.2-5.1,8.8-10.7,11.3-15.9c0.3-0.2,0.7-0.5,1-0.7c2.9-1.8,5.6-2.3,7.7-0.8c0.5,0.3,0.9,1.1,1,2.4
		c0.1,1.4-0.3,3.4-1.5,6.1c-2.3,5.4-7.8,13.5-18.8,24.9c-0.3,0.3-0.3,0.7,0,1s0.7,0.3,0.9,0.1c3.5-2.7,7.8-5,11.5-6.4
		c1.8-0.7,3.5-1.1,4.8-1.3c0.7-0.1,1.2-0.1,1.6,0c0.4,0.1,0.7,0.2,0.8,0.3c0.2,0.2,0.4,0.6-0.2,1.9c-0.6,1.2-1.8,2.9-3.9,5.1
		c-4.2,4.4-11.7,10.8-23.9,19.6c-0.1,0.1-0.3,0.2-0.5,0.3c-0.3,0.2-0.4,0.7-0.2,1c0.2,0.3,0.7,0.4,1,0.2c0.6-0.5,1.2-0.9,1.8-1.4h0
		c11.4-8.3,18.6-14.4,22.7-18.7c2.2-2.3,3.5-4.1,4.2-5.5c0.6-1.4,0.8-2.7-0.2-3.5C74,255.9,73.5,255.7,72.9,255.6z M30.5,247.9
		C30.5,247.9,30.5,248,30.5,247.9c-1.1-1.1-2.6-3-4.3-5.7C28.4,244.8,29.7,246.7,30.5,247.9z M36.6,227.8c0.7,1.5,1.2,2.7,1.3,3.5
		c0,0.4,0,0.6-0.1,0.6c0,0-0.1,0.1-0.3,0.1c0,0-0.1-0.1-0.2-0.2c-0.2-0.3-0.3-0.7-0.5-1.3c-0.3-1-0.6-2.3-0.8-3.9
		C36.2,227,36.4,227.4,36.6,227.8z M50,227.3c-0.7,1.7-1.7,3-2.9,3.8c0,0,0-0.1,0-0.1c0.1-0.4,0.3-0.8,0.6-1.4
		c0.7-1.3,1.8-3,3.1-4.9C50.6,225.6,50.3,226.5,50,227.3z M52.1,246.5c0.9-1.8,2.7-4.7,5-7.7c1.3-1.7,2.8-3.4,4.4-4.8
		C59.2,238.1,56.1,242.4,52.1,246.5z"/>
</g>
</svg>
