<svg xmlns="http://www.w3.org/2000/svg" width="375" height="388" fill="none" viewBox="0 0 375 388">
    <g clip-path="url(#clip0)">
        <path fill="#F8CA06" d="M200.5 284c52.2 0 94.5-42.3 94.5-94.5v-95C295 42.3 252.7 0 200.5 0S106 42.3 106 94.5v95c0 52.2 42.3 94.5 94.5 94.5zM427.5 278c58.266 0 105.5-47.01 105.5-105S485.766 68 427.5 68 322 115.01 322 173s47.234 105 105.5 105z"/>
        <path fill="#F8CA06" d="M45 133.5l75.1-23.5 5.9 8.5L56.7 175 45 133.5z" opacity=".2"/>
        <path fill="#fff" d="M79.5 293c12.979 0 23.5-1.343 23.5-3s-10.521-3-23.5-3-23.5 1.343-23.5 3 10.521 3 23.5 3z" opacity=".1"/>
        <path fill="#181C19" d="M80.5 287c10.8 0 19.5-8.7 19.5-19.5S91.3 248 80.5 248 61 256.7 61 267.5 69.7 287 80.5 287z"/>
        <path fill="#fff" d="M82.3 261.5c.8.4 1 1.4.6 2.2l-4.7 8.1c-.4.8-1.4 1-2.2.6-.8-.4-1-1.4-.6-2.2l4.7-8.1c.5-.7 1.4-1 2.2-.6zM85.5 267.3c.993 0 1.8-.806 1.8-1.8s-.807-1.8-1.8-1.8c-.995 0-1.8.806-1.8 1.8s.805 1.8 1.8 1.8zM45.1 138.1c-1.1 0-2.1-.8-2.4-1.9l-5.9-23.6c-.3-1.3.5-2.7 1.8-3 1.3-.3 2.7.5 3 1.8l5.9 23.6c.3 1.3-.5 2.7-1.8 3-.2.1-.4.1-.6.1zM73.4 251c-1.1 0-2.1-.8-2.4-1.9l-18.4-73.7c-.3-1.3.5-2.7 1.8-3 1.3-.3 2.7.5 3 1.8l18.4 73.7c.3 1.3-.5 2.7-1.8 3-.2 0-.4.1-.6.1zM0 264.8h60.5c1.4 0 2.5 1.1 2.5 2.5s-1.1 2.5-2.5 2.5H0"/>
        <path fill="#fff" d="M80.6 290c-12.5 0-22.7-10.2-22.7-22.7s10.2-22.7 22.7-22.7 22.7 10.2 22.7 22.7S93.1 290 80.6 290zm0-40.4c-9.7 0-17.7 7.9-17.7 17.7 0 9.8 8 17.7 17.7 17.7s17.7-7.9 17.7-17.7c0-9.8-8-17.7-17.7-17.7zM37.8 114.6c-3.9 0-7.1-2.9-7.5-6.7-.1-.4-.1-.7-.1-.9 0-2.7 1.5-5.2 3.8-6.6h.1c1.1-.6 2.4-.9 3.6-.9 3 0 5.7 1.7 6.9 4.4.5 1 .7 2.1.7 3.1 0 1.8-.6 3.5-1.8 4.9-1 1.1-2.3 2-3.7 2.3-.5.3-1.2.4-2 .4zm-1.2-9.8c-.8.5-1.3 1.4-1.3 2.3V107.4c.1 1.3 1.2 2.3 2.5 2.3.2 0 .5 0 .7-.1.5-.1 1-.4 1.3-.8.4-.5.6-1.1.6-1.7 0-.4-.1-.7-.2-1.1-.7-1.3-2.3-1.9-3.6-1.2z"/>
        <path fill="#fff" d="M73.4 249.2c-.2 0-.4-.1-.5-.3-.2-.2-16.2-20.3-15.6-42 .1-5.5.6-11.8 1.2-18.4.9-10.8 1.8-23.1 1.3-34.1-.8-17.1-20.9-41.7-21.1-42-.2-.3-.2-.7.1-1 .3-.2.7-.2 1 .1.1.1 5.2 6.3 10.3 14.7 7 11.3 10.7 20.7 11 28.1.5 11.1-.4 23.4-1.3 34.3-.5 6.6-1 12.8-1.2 18.3-.6 21.2 15.1 40.9 15.3 41.1.2.3.2.7-.1 1-.1.1-.2.2-.4.2z"/>
        <path fill="#F8CA06" d="M55 177.2c-1.1 0-2.1-.8-2.4-1.9l-9.8-39.2c-.3-1.3.5-2.7 1.8-3 1.3-.3 2.7.5 3 1.8l9.8 39.2c.3 1.3-.5 2.7-1.8 3-.2.1-.4.1-.6.1zM295 94.5v95c0 20-6.2 38.5-16.8 53.7-.2.3-.5.7-.7 1-.2.3-.5.6-.7 1-12 16.4-29.1 28.8-49 34.8-.2.1-.4.1-.7.2-.2.1-.5.1-.7.2-4.7 1.3-9.6 2.3-14.5 2.9-.2 0-.5.1-.8.1-.2 0-.5.1-.7.1-3.3.3-6.6.5-10 .5-11.8 0-23.1-2.2-33.5-6.1-.2-.1-.5-.2-.7-.3-.2-.1-.5-.2-.7-.3-34.9-13.9-59.6-48-59.6-87.8v-54.7l20-16.3-5.9-8.5-14.1 4.4V94.5c0-26.1 10.6-49.7 27.7-66.8C150.8 10.6 174.4 0 200.5 0 252.7 0 295 42.3 295 94.5z"/>
        <path fill="#FFDC45" d="M126 118.5l-20 16.3v-20.4l14.1-4.4 5.9 8.5z"/>
        <path fill="#FFDC45" d="M106 114.4v20.4L56.7 175 45 133.5l61-19.1z" opacity=".15"/>
        <path fill="#181C19" d="M203.899 108.5c-.1 0-.2 0-.3-.1-.2-.1-.3-.3-.4-.6-.1-3-.9-5.8-5-6.4-.2 0-6.3-.9-7.1-5.4 0-.1-.3-3.2-1.2-5.6-.1-.2-.1-.4 0-.5.1-.1.2-.3.4-.4 0 0 2.8-.9 4.4-3.9.1-.2.4-.4.7-.4.2 0 4.7.4 10.5 3.2.6.3 1.1.6 1.7 1 0 0 .1 0 .1.1.8.5 1.5 1.1 2.1 1.7l.1.1.3.3.2.2.2.2s0 .1.1.1c.4.5.7.9.8 1.2.2.4.5.9.5 1.4 1.7.3 4.3 1.1 6.3 2.6 0 0 .1 0 .1.1.2.2.3.6.2.8-3.4 7.6-10.8 9.4-13.6 10-.3.1-.7.2-.8.2 0 0-.1.1-.3.1zm-12.4-18c.8 2.4 1 5.1 1 5.2.6 3.4 5.9 4.2 5.9 4.2 4.7.7 5.8 4 6.1 6.8h.2c2.5-.6 9.2-2.2 12.4-8.7-3-2-6.1-2.1-6.4-2.2-.3 0-.5-.1-.7-.3-.2-.3-.1-.6.1-.8.1-.1.2-.1.4-.2.1 0 .2-.1.2-.1s-.1-.2-.3-.5c-.2-.3-.4-.6-.7-.9l-.1-.1s0-.1-.1-.1l-.3-.3-.2-.2-.2-.2c-.6-.6-1.2-1.1-1.9-1.5l-.1-.1c-.5-.3-1-.6-1.5-.8-4.5-2.3-8.3-2.9-9.5-3.1-1.3 2.4-3.2 3.5-4.3 3.9z"/>
        <path fill="#181C19" d="M209.4 96.1c-1.6 0-3.5-.5-3.8-.6-.4-.1-.6-.5-.5-.9.1-.4.5-.6.9-.5 1.2.3 3.5.7 4.4.4.4-.1.8.1.9.5.1.4-.1.8-.5.9-.4.2-.9.2-1.4.2z"/>
        <path fill="#fff" d="M198.6 74.8c1.8 2.6 3.4 5.6 4.6 8.1.4.8.7 1.6 1.1 2.3 0 .1.1.2.2.4v.1c.8 2 1.2 3.3 1.1 3.3.6.3 1.2.7 1.8 1.1.7.5 1.4 1.1 2.1 1.6l.2.2c.1.1.2.2.3.4.1.2.2.3.4.4 1.1 1.5.8 2.4 0 2.7-.1 0-.2.1-.2.1s1.7.1 7.8 2.4c5.6-9.9 0-30.9-19.4-23.1z"/>
        <path fill="#181C19" d="M218 98.5h-.3c-5.9-2.2-7.6-2.3-7.7-2.3-.4 0-.7-.4-.6-.7 0-.3.3-.6.6-.7h.1c.2-.1.2-.2.2-.2 0-.1.1-.5-.6-1.4 0-.1-.1-.1-.1-.2-.1-.1-.1-.2-.2-.3-.1-.1-.2-.2-.2-.3l-.2-.2c-.5-.5-1.2-1-2-1.6 0 0-.1 0-.1-.1-.5-.3-1.1-.7-1.6-1-.3-.1-.4-.4-.4-.7-.1-.3-.4-1.4-1-2.9v-.1c-.1-.2-.1-.3-.2-.4-.3-.7-.6-1.5-1-2.3-1-2.1-2.6-5.2-4.6-8-.1-.2-.2-.4-.1-.6.1-.2.2-.4.4-.5 7.5-3 14-2.1 18.2 2.7 4.7 5.4 5.6 15.1 2.1 21.3-.2.4-.4.5-.7.5zm-6.4-3.5c1.1.3 3 .8 6.1 1.9 2.9-5.7 2-14.4-2.2-19.2-2.6-3-7.4-5.8-15.8-2.7 1.8 2.7 3.3 5.5 4.2 7.5.4.8.8 1.6 1.1 2.4 0 .1.1.2.1.2 0 .1.1.1.1.2v.1c.7 1.6 1 2.5 1.1 3.1.5.3 1.1.6 1.5.9l.1.1c.8.5 1.5 1.1 2.1 1.7l.2.2c.2.2.3.3.4.5l.1.1c.1.1.1.2.2.3.7 1 1 1.9.8 2.6l-.1.1z"/>
        <path fill="#181C19" d="M195.301 85.8s4.6.4 10.2 3.2c.3 0-2.6-8.1-7-14.1-2.8-4.1-6.3-7.2-9.8-6.8-6.6.8-.1 13.7 6.6 17.7z"/>
        <path fill="#181C19" d="M205.501 89.6c-.1 0-.2 0-.3-.1-5.4-2.6-9.9-3.1-10-3.1-.1 0-.2 0-.3-.1-5.5-3.3-10.5-11.7-9.6-16.1.3-1.7 1.5-2.7 3.3-2.9 3.4-.4 7 2 10.5 7.1 3.9 5.4 7.5 13.8 7.1 14.8-.1.2-.3.4-.7.4.1 0 .1 0 0 0zm-10-4.5c.8.1 4.4.6 9 2.6-.9-2.5-3.3-8-6.5-12.4-2.2-3.2-5.6-6.9-9.2-6.5-1.2.2-1.9.7-2.1 1.8-.7 3.7 4 11.5 8.8 14.5z"/>
        <path fill="#F8CA06" d="M130.9 155.2c7.6 4.1 7.1 6.3 7.1 6.3.6 6.5 5.6 10.5 5.6 10.5 7.8 6.9 15.6 12.2 22.9 16.2 32.7 18 58.3 11.5 58.3 11.5s-10.1-24.6-34.2-36c-17.1-8-19-25.7-19-25.7-19.2-1.2-31.6-15.7-35.7-21.3-1.8-2.4-3.9-4.6-6.3-6.4-5-3.7-10.6-5.5 0 17.5 7.4 16.1 10.2 24.5 16 29.1-6.5-4.5-11.9-5-11.9-5-11.2-1.3-2.8 3.3-2.8 3.3z"/>
        <path fill="#181C19" d="M212.701 201.5c-10.7 0-27.5-2.2-46.5-12.7-8-4.4-15.8-9.9-23-16.3-.2-.1-5.2-4.2-5.8-10.9v-.2s-.1-1.9-6.8-5.5c-1.4-.8-3.8-2.3-3.3-3.7.4-1.2 2.3-1.4 6.6-.9.2 0 3.3.3 7.7 2.5-2.9-3.8-5.3-9.2-8.7-16.8-1.2-2.6-2.5-5.6-4-8.8-7.3-15.9-6.6-19.2-5.2-20.3 1.2-1 3.2-.3 6.2 2 2.3 1.8 4.5 4 6.4 6.6 4.3 5.9 16.5 19.8 35.2 21 .3 0 .6.3.7.6 0 .2 2.1 17.4 18.6 25.1 24.1 11.3 34.5 36.1 34.6 36.3.1.2.1.4 0 .6-.1.2-.3.3-.5.4 0-.1-4.5 1-12.2 1zm-74-40c.6 6 5.3 9.9 5.3 9.9 7.2 6.3 14.9 11.8 22.8 16.2 28.9 15.9 52.4 12.5 57 11.6-1.9-4.2-12.3-24.9-33.6-34.8-15.5-7.3-18.8-22.5-19.3-25.7-19-1.5-31.3-15.5-35.7-21.5-1.8-2.5-3.9-4.6-6.1-6.3-2.7-2-4.1-2.3-4.5-2-.5.4-1.6 3 5.6 18.7 1.5 3.2 2.8 6.2 4 8.8 4.6 10.3 7.3 16.5 11.9 20.1.3.2.4.7.1 1-.2.3-.7.4-1 .2-6.3-4.4-11.5-4.9-11.5-4.9-3.7-.4-4.8-.2-5.1-.1.3.4 1.4 1.3 2.6 2 7.1 3.7 7.6 6 7.5 6.8z"/>
        <path fill="#181C19" d="M164 206.4c52.5 39.7 112.6 4.1 112.6 4.1-7-100.6-58.6-112.7-58.6-112.7-3.9 8.7-13.3 9.4-14.1 9.9 0 0-5.5 30.7-30.5 30.3-.6 0-1.2 0-1.8-.1 0 0 1.9 17.7 19 25.7 24.2 11.3 34.2 36 34.2 36s-25.6 6.6-58.3-11.5c-1.4 7.9-2.5 18.3-2.5 18.3z"/>
        <path fill="#181C19" d="M220.501 225.9c-17.3 0-37.6-4.3-56.9-18.9-.2-.1-.3-.4-.3-.6 0-.1 1.1-10.6 2.5-18.3 0-.2.2-.4.4-.5.2-.1.4-.1.6 0 28.9 15.9 52.4 12.5 57 11.6-1.9-4.2-12.3-24.9-33.6-34.8-17.3-8.1-19.4-26.1-19.4-26.3 0-.2 0-.4.2-.6.1-.1.3-.2.6-.2.6 0 1.2.1 1.8.1h.5c23.7 0 29.2-29.4 29.3-29.7 0-.2.2-.4.3-.5.2-.1.5-.2 1.2-.3 2.6-.6 9.4-2.2 12.6-9.1v-.2c.1-.3.5-.5.8-.4.5.1 13.3 3.2 27 18.8 12.6 14.3 28.5 42.3 32.2 94.5 0 .3-.1.5-.3.7-.2.1-15.4 9-36.9 12.9-5.8 1-12.4 1.8-19.6 1.8zm-55.7-19.8c26.8 20.1 55.6 20.1 75.1 16.6 19.4-3.5 33.6-11.2 36-12.5-2.1-28.6-9.3-67.8-31.8-93.3-11.9-13.4-23.1-17.5-25.7-18.2-3.5 7.2-10.7 8.9-13.4 9.5-.2 0-.4.1-.5.1-.8 3.7-7.3 30.5-30.5 30.5h-1.5c.6 3.5 4 17.5 18.5 24.3 24.1 11.3 34.5 36.1 34.6 36.3.1.2.1.4 0 .6-.1.2-.3.3-.5.4-.3.1-25.8 6.3-58-11.1-1.2 6.6-2.1 14.9-2.3 16.8z"/>
        <path fill="#181C19" d="M190.501 164.3l-3.3-.1c-24.9-1-35.2-1.5-41.9-6.7-.3-.2-.4-.7-.1-1 .3-.3.7-.4 1-.1 6.4 5 16.5 5.4 41.1 6.4l3.3.1c.4 0 .7.3.7.7-.1.4-.4.7-.8.7z"/>
        <path fill="#fff" d="M276.699 210.6s-60.1 35.6-112.7-4.1c-2.1 16.1.3 49.9 2.2 71.2.2.1.5.2.7.3 10.4 4 21.7 6.1 33.5 6.1 3.4 0 6.7-.2 10-.5.2 0 .5 0 .7-.1 3-11.3 5.5-18.8 6.8-18.8 2.8 0 6 6.5 9.2 15.6.2-.1.4-.1.7-.2 19.9-6 37-18.4 49-34.8.2-.3.5-.6.7-1 0-25.5-.8-33.7-.8-33.7z"/>
        <path fill="#181C19" d="M277.4 210.5c0-.2-.2-.5-.4-.6-.2-.1-.5-.1-.7 0-.1.1-15.2 8.9-36.4 12.7-19.5 3.5-48.5 3.5-75.4-16.8-.2-.1-.5-.2-.7-.1-.2.1-.4.3-.4.6-2.1 16 .3 49.6 2.2 71 .2.1.5.2.7.3.2.1.5.2.7.3-1.9-20.8-4.2-53.7-2.4-70.2 27.1 20 56 19.9 75.6 16.4 18.4-3.4 32.2-10.4 35.9-12.4.2 3 .8 12.6.8 33.5.2-.3.5-.6.7-1 .2-.3.5-.7.7-1-.1-24.3-.9-32.6-.9-32.7zM218 263.9c-.9 0-2.2 0-7.5 19.6.2 0 .5 0 .7-.1.2 0 .5 0 .8-.1 2.7-10 5-17.2 6.1-18 2.5.1 5.4 6.5 8.4 15.1.2-.1.5-.1.7-.2.2-.1.4-.1.7-.2-3.5-9.9-6.8-16.1-9.9-16.1z"/>
        <path fill="#fff" d="M141 129.8l3.8-3.7c.5-.5 1-.9 1.5-1.4 2-1.8 2.3-4.8.8-7L134.8 100c-.7-1-1.7-1.7-2.8-2.1-1.9-.6-4 0-5.4 1.4l-4 3.5c-.5.5-1 .9-1.5 1.4-2 1.8-2.3 4.8-.8 7l12.4 18c.7 1 1.7 1.7 2.8 2.1 2 .6 4.1 0 5.5-1.5z"/>
        <path fill="#181C19" d="M137.101 132.2c-.6 0-1.2-.1-1.8-.3-1.3-.4-2.4-1.2-3.1-2.3l-12.4-18c-1.7-2.5-1.4-5.9.9-7.9.5-.4 1-.9 1.5-1.3l4-3.5c1.6-1.6 3.9-2.2 6.1-1.6 1.3.4 2.4 1.2 3.1 2.3l12.2 17.8c1.7 2.5 1.4 5.9-.9 7.9-.5.4-1 .9-1.5 1.3l-3.8 3.7c-1.1 1.2-2.7 1.9-4.3 1.9zm-6.6-33.8c-1.2 0-2.4.5-3.4 1.4l-4 3.5c-.4.5-1 .9-1.5 1.4-1.7 1.5-2 4.1-.7 6.1l12.4 18c.6.9 1.4 1.5 2.4 1.8 1.6.5 3.4 0 4.7-1.2l3.8-3.7c.5-.5 1-1 1.5-1.4 1.7-1.5 2-4.1.7-6.1l-12.2-17.9c-.6-.9-1.4-1.5-2.4-1.8-.4-.1-.8-.1-1.3-.1z"/>
        <path fill="#181C19" d="M127.101 99l.4.5c.6.9.5 2-.2 2.7l-2.9 2.4c-.9.9-2.3.7-3-.3l-.1-.1 5.8-5.2z"/>
        <path fill="#181C19" d="M122.999 105.8h-.2c-.8-.1-1.5-.5-1.9-1.1l-.1-.1c-.3-.3-.3-.7 0-1 .3-.3.7-.3 1 0l.1.1.1.1c.2.3.6.5.9.5.4 0 .7-.1 1-.4l2.9-2.4c.4-.5.5-1.2.1-1.8l-.3-.5c-.2-.3-.1-.8.2-1 .3-.2.8-.1 1 .2l.4.5c.8 1.1.6 2.6-.3 3.6l-2.9 2.4c-.6.7-1.3.9-2 .9z"/>
        <path fill="#181C19" fill-rule="evenodd" d="M138.601 112c-.2-.2-.5-.3-.8-.1l-2.5 2.6c-.2.2-.3.5-.1.8l1.9 2.8c.2.2.5.3.8.1l2.5-2.6c.2-.2.3-.5.1-.8l-1.9-2.8zm-.5 1l1.4 2.1-1.8 1.8-1.4-2.1 1.8-1.8zM135.4 107.2c-.2-.2-.5-.3-.8-.1l-2.5 2.6c-.2.2-.3.5-.1.8l1.9 2.8c.2.2.5.3.8.1l2.5-2.6c.2-.2.3-.5.1-.8l-1.9-2.8zm-.4 1.1l1.4 2.1-1.8 1.8-1.4-2.1 1.8-1.8zM131.2 111.4c-.2-.2-.5-.3-.8-.1l-2.5 2.6c-.2.2-.3.5-.1.8l1.9 2.8c.2.2.5.3.8.1l2.5-2.6c.2-.2.3-.5.1-.8l-1.9-2.8zm-.5 1.1l1.4 2.1-1.8 1.8-1.4-2.1 1.8-1.8z" clip-rule="evenodd"/>
        <path fill="#181C19" d="M134.799 118.9c.1 0 .2 0 .3-.1.2-.1.3-.5.1-.7l-.8-1.2c-.1-.1-.2-.2-.4-.2-.1 0-.3 0-.4.1l-1 1c-.2.2-.2.5 0 .7.2.2.5.2.7 0l.6-.6.4.7c.1.2.3.3.5.3zM133.5 122c.1 0 .3-.1.3-.1l1-1c.2-.2.2-.5 0-.7-.2-.2-.5-.2-.7 0l-.6.6-.4-.7c-.1-.2-.5-.3-.7-.1-.2.1-.3.5-.1.7l.8 1.2c.1 0 .2.1.4.1z"/>
        <path fill="#fff" d="M369.1 288c10.88 0 19.7-.94 19.7-2.1 0-1.16-8.82-2.1-19.7-2.1-10.88 0-19.7.94-19.7 2.1 0 1.16 8.82 2.1 19.7 2.1z" opacity=".1"/>
        <path fill="#fff" fill-rule="evenodd" d="M375.9 183.6c-.9-1.1-2.1-1.8-3.3-1.4-1.5.5-2.6 1.7-3.6 3.3-.9 1.7-1.7 3.8-2.299 6.2-1.201 4.9-1.8 11.1-2 17.1-.1 4-.001 8 .199 11.5-.5-.8-1-1.6-1.4-2.3-1.9-3-4.2-6.3-6.5-9.1s-4.6-5.3-6.6-6.4c-1-.6-2-1-3-.7-1 .2-1.7 1.1-2 2.3-.4 1.2-.5 2.8-.3 5 .1 2.2.5 5 1.2 8.5 1.2 6.2 3.001 11.6 4.901 16.1l-.301-.3c-2-2-4.7-3.9-7.4-5.2-2.7-1.3-5.5-2.2-7.7-2.2-1.1 0-2.1.2-2.9.7-.8.5-1.3 1.4-1.4 2.5-.1 1.1.2 2.4.9 3.9s1.8 3.4 3.4 5.5c6.3 8.6 13.4 15.4 17.6 19.3l.301.3c.6.6 1.199 1.1 1.599 1.6-.3-.1-.6-.3-.9-.5-4.9-2.5-8.999-4.2-12.199-5.3-3.2-1.1-5.7-1.5-7.5-1.4-.9 0-1.701.2-2.301.6-.6.4-.999.9-1.199 1.6-.3 1.3.199 2.9 1.099 4.6 1.9 3.5 6.1 8 11.8 12.6 5.7 4.7 12.9 9.5 21 13.5.3.2.8 0 .9-.3.2-.3 0-.8-.299-.9-8-4-15.101-8.7-20.701-13.3-5.6-4.6-9.7-9-11.5-12.2-.9-1.7-1.2-2.8-1-3.6.1-.3.3-.6.6-.8.3-.2.801-.4 1.601-.4 1.5-.1 3.799.3 6.899 1.4 3.1 1.1 7.1 2.7 12 5.2 1.3.7 2.3 1.1 2.9 1.3.2.1.3.1.4.1.1 0 .3.1.4 0 .2 0 .5-.1.7-.5.1-.3 0-.6 0-.7-.1-.2-.3-.5-.5-.7l-.799-.8c-.6-.6-1.401-1.3-2.301-2.2l-.3-.3c-4.2-4-11.3-10.7-17.5-19.2-1.5-2.1-2.6-3.8-3.2-5.3-.6-1.4-.9-2.5-.8-3.2.1-.7.3-1.1.8-1.4.5-.3 1.2-.5 2.1-.5 1.9 0 4.5.8 7.1 2.1 2.6 1.3 5.2 3 7 4.9 1.1 1.1 2.1 2.2 3 3.2 2.9 6 5.9 10 7.8 11.7.4.4.8.7 1.2.9.2.1.4.2.601.2.2 0 .599 0 .799-.3.2-.3.3-.6.201-.8 0-.2-.101-.4-.101-.6-.1-.4-.4-.9-.8-1.6-1.2-2.1-3.9-5.5-8.5-10.5-2.5-5.1-4.9-11.6-6.5-19.5-.7-3.4-1.1-6.2-1.2-8.3-.1-2.1 0-3.6.3-4.5.3-.9.7-1.2 1-1.3.4-.1 1 0 1.9.6 1.7 1 4 3.3 6.2 6.1 2.3 2.8 4.5 6 6.4 9 .4.8.9 1.6 1.5 2.4.4.7.9 1.5 1.301 2.2.099.7.099 1.3.199 1.9.3 2.2.6 4.1 1 5.5.2.7.4 1.2.7 1.7.2.4.7.9 1.3.9.6 0 1.2-.2 1.5-.7.3-.5.4-1 .301-1.6-.1-1.1-.701-2.5-1.401-3.9-.6-1.3-1.5-2.7-2.3-4.1-.4-4.1-.5-9-.4-14.1.2-6 .8-12.1 1.9-16.8.6-2.4 1.3-4.4 2.1-5.9.9-1.5 1.8-2.4 2.8-2.7.4-.1 1 0 1.9 1 .8.9 1.7 2.4 2.5 4.4 1.7 3.9 3.2 9.4 4.2 15.1 1 5.8 1.4 11.8.9 16.8 0 .2 0 .4-.1.6-2.1 2.8-3.8 5.6-4.9 7.5-.3.6-.499 1.1-.699 1.5-.201.4-.301.8-.301 1.2 0 .2 0 .4.2.7.2.3.5.4.7.4.2 0 .5 0 .6-.1l.6-.3c1.6-1 2.7-2.5 3.5-4.5.7-1.7 1.2-3.7 1.5-5.9.3-.3.5-.7.8-1.1 2.5-3.3 5.3-6.5 7.8-8.8 1.2-1.1 2.4-2 3.3-2.4 1-.5 1.5-.4 1.801-.3.199.1.499.5.699 1.2.2.7.4 1.7.4 2.8.1 2.3-.3 5.5-1.3 9.1-.7 2.6-1.7 5.3-3 8.2-2.6 1.9-5 4.6-7.1 7.2-2.5 3.1-4.4 6.2-5.3 8.1-.2.5-.4.9-.5 1.3 0 .2-.1.4-.1.5 0 .2 0 .4.201.7.2.3.599.3.799.3.2 0 .4-.1.6-.2.3-.2.7-.5 1.101-1 5.2-5.2 8.799-10.7 11.299-15.9.3-.3.7-.5 1-.7 2.9-1.8 5.601-2.3 7.701-.8.5.3 1 1.1 1 2.4.099 1.4-.301 3.4-1.5 6.1-2.301 5.4-7.701 13.5-18.801 24.9-.3.3-.3.7 0 1 .2.3.7.3.9.1 3.5-2.7 7.8-5 11.5-6.4 1.8-.7 3.5-1.1 4.8-1.3.7-.1 1.2-.1 1.601 0 .4.1.699.2.799.3.2.2.4.6-.2 1.9-.6 1.2-1.8 2.9-3.9 5.1-4.2 4.4-11.9 10.9-24.4 19.9-.3.2-.4.7-.2 1 .2.3.7.4 1 .2 12.5-9 20.2-15.6 24.6-20.1 2.2-2.3 3.5-4.1 4.2-5.5.7-1.4.8-2.7-.2-3.5-.4-.4-1-.6-1.6-.7-.6-.1-1.3-.1-2 0-1.5.2-3.199.7-5.099 1.4-2.201.8-4.501 1.9-6.901 3.3 8.4-9.3 12.9-16.1 15-21 1.2-2.8 1.7-5 1.6-6.7-.1-1.7-.7-2.9-1.6-3.5-2.6-1.8-5.7-1.2-8.5.3.9-2.2 1.7-4.4 2.2-6.4 1-3.7 1.4-7 1.3-9.5 0-1.2-.2-2.3-.4-3.2-.3-.8-.6-1.6-1.199-2-.901-.6-2.101-.3-3.201.2s-2.3 1.5-3.6 2.6c-2.4 2.1-5 5.2-7.4 8.2.3-4.8-.1-10.3-1-15.5-1-5.8-2.5-11.4-4.299-15.5.099-1.6-.801-3.3-1.801-4.4zm16.6 50.4c-2.3 4.2-5.4 8.4-9.4 12.5.9-1.8 2.7-4.7 5-7.7 1.3-1.7 2.8-3.4 4.4-4.8zm-9.9 13.8c0 .1 0 .1 0 0zm-.8-23.2c-.2 1-.5 1.9-.9 2.7-.7 1.7-1.7 3-2.9 3.8v-.1c.1-.4.4-.8.6-1.4.9-1.3 1.9-3.1 3.2-5zm-14.8 2l.6 1.2c.7 1.5 1.2 2.7 1.3 3.5 0 .4 0 .6-.1.6 0 0-.1.1-.3.1l-.2-.2c-.2-.3-.4-.7-.5-1.3-.3-1-.6-2.3-.8-3.9zm-9.799 15.6c2.1 2.5 3.499 4.4 4.299 5.7-1.1-1.1-2.599-3-4.299-5.7zM339.2 137.7c.8-1.9 2.3-3.6 4.3-5.1 2.5-1.8 5.6-3.1 9-3.3 3.3-.2 6.8.6 9.9 3.1 3 2.5 5.5 6.5 6.9 12.6.1.4-.1.8-.5.8-.4.1-.8-.1-.8-.5-1.4-5.9-3.7-9.6-6.4-11.9-2.7-2.2-5.8-3-8.9-2.8-3 .2-6 1.4-8.2 3-2.3 1.7-3.8 3.7-4.1 5.6 0 .3-.3.5-.5.6-.3.1-.6-.1-.7-.3-2.8-4.2-7.4-5-11.5-3.7-4.1 1.4-7.5 4.9-7.7 9.3 0 .4-.4.7-.7.7-.4 0-.7-.4-.7-.7.3-5.1 4.1-9.1 8.7-10.6 3.8-1.3 8.7-.6 11.9 3.2zM215.9 23.4c-5.3 2.3-9.2 8.1-10.5 12.9-.1.4-.5.6-.9.5-.4-.1-.6-.5-.5-.9 1.4-5.1 5.5-11.3 11.3-13.8 2.9-1.3 6.3-1.6 9.8-.3 3.4 1.2 6.9 3.7 10.4 8 1.8-2.8 5.8-4.6 10-3.9 4.7.9 9.5 5 11.8 14.5.1.4-.1.8-.5.8-.4.1-.8-.1-.8-.5-2.2-9.1-6.7-12.7-10.7-13.4-4.1-.8-7.9 1.4-9 4-.1.2-.3.4-.5.4s-.5-.1-.6-.3c-3.7-4.7-7.2-7.3-10.5-8.4-3.3-1-6.2-.7-8.8.4z" clip-rule="evenodd"/>
    </g>
    <defs>
        <clipPath id="clip0">
            <path fill="#fff" d="M0 0H375V388H0z"/>
        </clipPath>
    </defs>
</svg>
