<svg xmlns="http://www.w3.org/2000/svg" width="375" height="388" fill="none" viewBox="0 0 375 388">
    <rect width="189" height="284" fill="#F8CA06" rx="94.5" transform="matrix(1 0 0 -1 106 284)"/>
    <ellipse fill="#F8CA06" rx="105.5" ry="105" transform="matrix(1 0 0 -1 427.5 173)"/>
    <path fill="#F8CA06" d="M45 133.5l75.138-23.5 5.862 8.5L56.724 175 45 133.5z" opacity=".2"/>
    <ellipse cx="79.5" cy="290" fill="#181C19" opacity=".1" rx="23.5" ry="3"/>
    <path fill="#fff" d="M80.5 287c10.77 0 19.5-8.73 19.5-19.5S91.27 248 80.5 248 61 256.73 61 267.5 69.73 287 80.5 287z"/>
    <rect width="3.177" height="12.508" x="80.912" y="260.749" fill="#181C19" rx="1.588" transform="rotate(30 80.912 260.749)"/>
    <circle cx="85.521" cy="265.474" r="1.787" fill="#181C19" transform="rotate(30 85.521 265.474)"/>
    <path stroke="#181C19" stroke-linecap="round" stroke-linejoin="round" stroke-miterlimit="10" stroke-width="5" d="M45.146 135.578l-5.916-23.629M73.4 248.463l-18.44-73.726M-53.397 267.3H60.448M80.603 287.458c11.134 0 20.159-9.025 20.159-20.158 0-11.133-9.025-20.158-20.159-20.158-11.132 0-20.158 9.025-20.158 20.158 0 11.133 9.026 20.158 20.158 20.158zM35.33 102.597c.727-.396 1.553-.628 2.445-.628 2.049 0 3.833 1.223 4.627 2.974.297.661.462 1.355.462 2.115 0 1.256-.462 2.413-1.223 3.305-.627.727-1.487 1.289-2.445 1.553-.43.132-.892.198-1.388.198-2.61 0-4.759-1.949-5.023-4.494-.033-.198-.033-.363-.033-.562 0-1.916 1.057-3.569 2.578-4.461z"/>
    <path stroke="#181C19" stroke-linecap="round" stroke-linejoin="round" stroke-miterlimit="10" stroke-width="1.4" d="M73.4 248.497s-16.027-19.861-15.432-41.573c.396-14.87 3.337-34.996 2.478-52.576-.859-17.581-21.215-42.399-21.215-42.399"/>
    <path stroke="#F8CA06" stroke-linecap="round" stroke-linejoin="round" stroke-miterlimit="10" stroke-width="5" d="M54.96 174.737l-9.816-39.16"/>
    <rect width="189" height="284" fill="#F8CA06" rx="94.5" transform="matrix(1 0 0 -1 106 284)"/>
    <path fill="#FFDC45" d="M45 133.5l75.138-23.5 5.862 8.5L56.724 175 45 133.5z"/>
    <path stroke="#181C19" stroke-linecap="round" stroke-linejoin="round" stroke-miterlimit="10" stroke-width="1.4" d="M190.674 90.14c.898 2.538 1.21 5.7 1.21 5.7.703 4.022 6.521 4.842 6.521 4.842 4.568.703 5.388 3.983 5.544 7.067.82-.468 10.23-1.21 14.135-9.917l-.039-.04c-3.592-2.576-7.341-2.615-7.302-2.576.703-.196.937-.625.313-1.64-.157-.274-.391-.625-.703-1.016-.078-.078-.156-.195-.234-.273-.157-.156-.274-.312-.43-.468l-.156-.157c-.625-.624-1.328-1.171-2.07-1.64l-.039-.039c-.546-.351-1.093-.663-1.679-.937-5.7-2.85-10.23-3.163-10.23-3.163-1.757 3.32-4.841 4.257-4.841 4.257zM210.582 95.293c-1.445.469-4.803-.39-4.803-.39"/>
    <path fill="#fff" stroke="#181C19" stroke-linecap="round" stroke-linejoin="round" stroke-miterlimit="10" stroke-width="1.4" d="M198.638 74.794c1.835 2.616 3.436 5.584 4.647 8.122.39.82.742 1.6 1.054 2.343.039.117.078.234.156.35 0 .04.039.079.039.118.82 1.952 1.211 3.28 1.094 3.28.585.312 1.21.703 1.757 1.054 0 0 .039 0 .039.04.742.507 1.444 1.053 2.069 1.64l.156.155c.117.117.235.235.313.352.117.156.234.273.351.43 1.132 1.522.781 2.381.039 2.693-.078.04-.156.079-.234.079 0 0 1.718.117 7.848 2.381h.039c5.623-9.8 0-30.807-19.367-23.037z"/>
    <path fill="#181C19" stroke="#181C19" stroke-linecap="round" stroke-linejoin="round" stroke-miterlimit="10" stroke-width="1.4" d="M195.319 85.766s4.608.43 10.23 3.163c.313-.04-2.577-8.083-6.989-14.096-2.811-4.06-6.286-7.223-9.801-6.794-6.637.898-.117 13.744 6.56 17.727z"/>
    <path fill="#F8CA06" stroke="#181C19" stroke-linecap="round" stroke-linejoin="round" stroke-miterlimit="10" stroke-width="1.4" d="M130.934 155.19c7.575 4.1 7.106 6.287 7.106 6.287.586 6.481 5.584 10.464 5.584 10.464 7.848 6.911 15.579 12.182 22.92 16.243 32.721 18.04 58.335 11.48 58.335 11.48s-10.074-24.638-34.244-35.962c-17.102-8.004-19.015-25.692-19.015-25.692-19.172-1.211-31.627-15.697-35.727-21.28-1.796-2.421-3.866-4.608-6.287-6.443-4.959-3.748-10.62-5.544 0 17.532 7.38 16.087 10.152 24.521 16.048 29.128-6.481-4.529-11.87-4.998-11.87-4.998-11.284-1.366-2.85 3.241-2.85 3.241z"/>
    <path fill="#181C19" stroke="#181C19" stroke-linecap="round" stroke-linejoin="round" stroke-miterlimit="10" stroke-width="1.4" d="M164.041 206.418c52.478 39.71 112.648 4.139 112.648 4.139-7.106-100.661-58.647-112.726-58.647-112.726h-.039l.039.04c-3.905 8.706-13.315 9.448-14.135 9.917 0 0-5.505 30.729-30.456 30.3-.585 0-1.21-.039-1.796-.078 0 0 1.874 17.687 19.016 25.692 24.169 11.323 34.243 35.961 34.243 35.961s-25.614 6.599-58.335-11.479c-1.484 7.77-2.538 18.234-2.538 18.234z"/>
    <path stroke="#181C19" stroke-linecap="round" stroke-linejoin="round" stroke-miterlimit="10" stroke-width="1.4" d="M145.693 156.908c6.833 5.35 17.805 5.584 44.825 6.716"/>
    <path fill="#fff" stroke="#181C19" stroke-linecap="round" stroke-linejoin="round" stroke-miterlimit="10" stroke-width="1.4" d="M155.96 382.087c-.039 3.475 3.787 4.452 13.393 4.452 9.605 0 15.071 1.64 18.664-8.161 3.592-9.801 25.38-113.82 29.987-113.82 8.2 0 19.679 55.095 23.857 68.605 3.593 11.635 11.48 30.729 3.397 45.645-2.499 4.568-3.67 6.052.157 7.34 3.865 1.25 19.054 1.172 20.538-.546 1.484-1.718 11.557-111.985 11.597-139.005.039-27.254-.859-36.039-.859-36.039s-60.132 35.571-112.649-4.139c-3.162 24.482 4.1 90.079 4.1 90.079s4.256 44.357 3.046 59.585c-1.211 15.228-4.412 18.547-7.146 20.108-2.733 1.523-8.004 2.46-8.082 5.896zM140.99 129.849l3.787-3.67c.469-.469.977-.937 1.484-1.367 1.953-1.757 2.343-4.764.781-6.989l-12.221-17.844c-.703-1.016-1.679-1.718-2.773-2.07-1.913-.585-3.982 0-5.388 1.406l-3.983 3.514c-.468.469-.976.937-1.483 1.367-1.953 1.757-2.343 4.763-.781 6.989l12.416 18c.703 1.015 1.679 1.718 2.773 2.07 1.913.624 4.021 0 5.388-1.406z"/>
    <path fill="#181C19" d="M127.127 98.964l.352.507c.585.859.468 1.992-.235 2.733l-2.85 2.382c-.859.859-2.265.703-2.968-.273l-.117-.117"/>
    <path stroke="#181C19" stroke-linecap="round" stroke-linejoin="round" stroke-miterlimit="10" stroke-width="1.4" d="M127.127 98.964l.352.507c.585.859.468 1.992-.235 2.733l-2.85 2.382c-.859.859-2.265.703-2.968-.273l-.117-.117"/>
    <path fill="#181C19" fill-rule="evenodd" d="M138.612 111.965c-.174-.243-.522-.313-.8-.139l-2.469 2.609c-.244.174-.313.521-.14.8l1.913 2.817c.174.243.522.313.8.139l2.469-2.609c.244-.174.313-.521.14-.8l-1.913-2.817zm-.487 1.044l1.391 2.086-1.809 1.844-1.356-2.052 1.774-1.878zM135.448 107.236c-.174-.244-.522-.313-.8-.139l-2.47 2.608c-.243.174-.313.522-.139.8l1.913 2.817c.174.243.522.313.8.139l2.469-2.608c.244-.174.313-.522.139-.8l-1.912-2.817zm-.487 1.043l1.391 2.087-1.809 1.843-1.356-2.052 1.774-1.878zM131.235 111.444c-.174-.243-.522-.313-.8-.139l-2.469 2.608c-.244.174-.313.522-.14.8l1.913 2.817c.174.244.522.313.8.139l2.469-2.608c.244-.174.313-.522.14-.8l-1.913-2.817zm-.487 1.078l1.391 2.087-1.808 1.843-1.357-2.052 1.774-1.878z" clip-rule="evenodd"/>
    <path fill="#181C19" d="M134.752 118.852c.105 0 .174-.035.279-.07.208-.139.278-.452.139-.66l-.765-1.183c-.07-.139-.209-.209-.383-.209-.139 0-.313.035-.382.14l-.974 1.043c-.174.209-.174.522.035.695.208.174.521.174.695-.034l.557-.592.417.661c.069.139.243.209.382.209zM133.533 122.016c.139 0 .278-.069.347-.139l.974-1.043c.174-.209.174-.522-.035-.696-.208-.174-.487-.174-.695.035l-.557.591-.417-.661c-.139-.208-.452-.278-.661-.139-.208.139-.278.452-.139.661l.765 1.182c.07.14.209.209.383.209h.035z"/>
    <ellipse fill="#181C19" opacity=".1" rx="19.651" ry="2.124" transform="matrix(-1 0 0 1 369.087 285.879)"/>
    <path fill="#181C19" fill-rule="evenodd" d="M375.931 183.614c-.926-1.064-2.081-1.828-3.334-1.437-1.475.459-2.64 1.706-3.565 3.345-.933 1.651-1.678 3.799-2.271 6.239-1.185 4.884-1.787 11.075-1.961 17.139-.116 3.997-.046 7.955.168 11.471-.5-.824-.971-1.602-1.378-2.296l-.015-.024c-1.913-2.981-4.22-6.278-6.523-9.117-2.286-2.817-4.623-5.255-6.598-6.441-.975-.585-2.004-.953-2.95-.736-1.018.232-1.674 1.066-2.032 2.255-.356 1.179-.468 2.838-.331 5.029.138 2.202.531 4.993 1.225 8.463 1.24 6.198 2.997 11.59 4.9 16.112l-.266-.274c-1.995-2.043-4.688-3.87-7.399-5.197-2.701-1.322-5.495-2.184-7.696-2.224-1.1-.02-2.129.163-2.922.676-.83.535-1.324 1.381-1.404 2.488-.077 1.07.229 2.367.917 3.896.692 1.538 1.793 3.365 3.372 5.514 6.284 8.552 13.427 15.361 17.642 19.346l.288.273c.628.593 1.181 1.116 1.649 1.567-.278-.134-.584-.285-.918-.452-4.932-2.466-8.973-4.183-12.206-5.262-3.217-1.075-5.69-1.538-7.464-1.444-.891.047-1.655.237-2.254.606-.617.38-1.022.93-1.201 1.606-.339 1.283.167 2.894 1.119 4.597 1.941 3.467 6.13 7.998 11.804 12.641 5.688 4.655 12.921 9.464 21.005 13.471.346.172.766.031.938-.316.171-.346.03-.766-.317-.938-7.986-3.959-15.13-8.711-20.74-13.301-5.625-4.603-9.655-9.002-11.468-12.241-.924-1.651-1.178-2.836-.988-3.555.086-.325.268-.578.583-.772.332-.205.843-.36 1.593-.4 1.509-.08 3.782.317 6.947 1.374 3.149 1.051 7.127 2.738 12.023 5.186 1.324.662 2.273 1.104 2.875 1.32.154.054.299.1.431.13.12.028.281.056.448.04.161-.015.513-.099.676-.473.133-.307.029-.586-.012-.684-.097-.233-.293-.478-.48-.693-.206-.236-.476-.517-.797-.836-.581-.579-1.359-1.314-2.28-2.185l-.293-.276c-4.21-3.981-11.272-10.716-17.475-19.158-1.544-2.101-2.585-3.84-3.223-5.259-.642-1.428-.851-2.479-.798-3.221.052-.705.336-1.135.767-1.413.467-.301 1.179-.47 2.137-.452 1.913.035 4.495.804 7.106 2.081 2.6 1.273 5.153 3.013 7.013 4.918 1.097 1.124 2.107 2.184 3.037 3.183 2.934 5.975 5.943 9.953 7.777 11.722.429.415.825.738 1.163.934.164.096.36.189.569.226.21.037.561.032.832-.253.243-.255.26-.575.25-.757-.012-.202-.067-.413-.138-.616-.145-.412-.408-.934-.783-1.558-1.238-2.06-3.887-5.53-8.504-10.5-2.465-5.058-4.885-11.59-6.462-19.471-.687-3.435-1.068-6.159-1.201-8.277-.133-2.13-.011-3.594.274-4.537.281-.933.671-1.218 1.004-1.295.404-.092 1.031.04 1.917.573 1.747 1.049 3.953 3.314 6.232 6.122 2.258 2.785 4.533 6.032 6.424 8.979.442.754.945 1.583 1.472 2.45.439.724.895 1.474 1.345 2.231.063.675.132 1.326.206 1.947.267 2.233.608 4.119 1.013 5.461.2.667.429 1.241.696 1.663.242.383.652.852 1.273.852.614 0 1.184-.192 1.545-.693.333-.464.379-1.049.325-1.585-.109-1.075-.675-2.478-1.4-3.942-.645-1.302-1.458-2.735-2.293-4.146-.364-4.067-.518-9.044-.372-14.093.173-6.016.77-12.098 1.923-16.849.577-2.377 1.285-4.387 2.129-5.881.85-1.505 1.782-2.391 2.762-2.697.4-.124 1.009.04 1.862 1.02.82.942 1.682 2.447 2.525 4.397 1.681 3.886 3.21 9.362 4.189 15.134.978 5.773 1.398 11.794.888 16.772-.02.2-.042.398-.065.594-2.081 2.829-3.849 5.553-4.868 7.505-.297.568-.536 1.083-.703 1.525-.158.421-.279.85-.272 1.217.004.187.043.44.209.664.187.253.458.367.719.385.233.017.457-.042.642-.112.194-.073.399-.179.613-.309 1.567-.953 2.714-2.529 3.53-4.467.712-1.688 1.188-3.685 1.473-5.871.26-.35.525-.703.794-1.055 2.493-3.27 5.31-6.536 7.784-8.777 1.241-1.125 2.362-1.961 3.289-2.42.969-.48 1.494-.439 1.757-.263.195.13.459.483.679 1.21.212.703.352 1.654.385 2.826.064 2.341-.301 5.471-1.269 9.058-.69 2.555-1.684 5.332-3.038 8.21-2.574 1.913-5.05 4.55-7.119 7.154-2.45 3.082-4.382 6.184-5.271 8.108-.222.481-.392.914-.484 1.27-.046.175-.081.361-.083.54-.001.157.02.438.219.677.245.291.585.33.823.292.214-.034.407-.133.561-.227.317-.195.698-.524 1.14-.966 5.152-5.152 8.82-10.689 11.327-15.927.349-.251.698-.486 1.047-.704 2.898-1.809 5.559-2.299 7.72-.814.473.325.951 1.052 1.011 2.443.061 1.393-.308 3.388-1.47 6.091-2.324 5.406-7.746 13.479-18.769 24.926-.254.263-.262.678-.018.951.244.273.657.312.948.09 3.528-2.7 7.825-5.002 11.504-6.373 1.841-.686 3.5-1.128 4.811-1.28.657-.076 1.202-.076 1.627-.01.431.067.687.193.828.322.195.178.421.635-.167 1.88-.572 1.209-1.805 2.889-3.935 5.119-4.247 4.445-11.897 10.911-24.367 19.932-.314.227-.384.664-.157.978.226.313.664.383.977.156 12.491-9.036 20.223-15.56 24.559-20.099 2.162-2.263 3.52-4.073 4.188-5.487.652-1.378.766-2.674-.155-3.514-.417-.38-.97-.579-1.556-.67-.591-.092-1.27-.082-2.002.002-1.465.17-3.24.651-5.14 1.359-2.172.81-4.546 1.929-6.861 3.26 8.398-9.252 12.868-16.096 14.971-20.989 1.21-2.816 1.656-5.028 1.583-6.705-.073-1.68-.674-2.887-1.617-3.536-2.631-1.808-5.663-1.246-8.511.341.945-2.24 1.679-4.404 2.227-6.435.996-3.689 1.386-6.957 1.317-9.462-.035-1.25-.184-2.333-.444-3.192-.252-.834-.641-1.569-1.243-1.97-.932-.622-2.1-.348-3.154.174-1.098.543-2.331 1.479-3.608 2.636-2.372 2.15-5.012 5.17-7.388 8.226.294-4.781-.149-10.26-1.036-15.493-.992-5.848-2.547-11.439-4.284-15.456-.866-2.002-1.796-3.658-2.754-4.76zm16.557 50.36c-2.31 4.166-5.39 8.444-9.404 12.487.86-1.808 2.688-4.735 5.029-7.68 1.336-1.681 2.823-3.348 4.375-4.807zm-9.909 13.87v-.001.001zm-.731-23.207c-.234.965-.518 1.855-.856 2.657-.727 1.727-1.684 3-2.877 3.758l.037-.099c.139-.37.351-.83.633-1.37.693-1.327 1.764-3.055 3.063-4.946zm-3.878 7.021l-.001-.005.001.005zm-10.996-5.084c.225.417.438.828.635 1.226.724 1.462 1.181 2.663 1.262 3.462.04.4-.029.57-.069.626-.013.018-.071.099-.344.11-.028-.025-.08-.082-.154-.199-.168-.265-.352-.699-.539-1.318-.293-.974-.561-2.302-.791-3.907zm1.507 5.442l-.002-.001.002.001zm-11.251 10.2c2.141 2.541 3.51 4.433 4.276 5.706l.027.047c-1.103-1.126-2.632-3.058-4.303-5.753zm4.998 7.24v-.002.002z" clip-rule="evenodd"/>
    <path fill="#fff" fill-rule="evenodd" d="M339.222 137.692c.755-1.869 2.306-3.644 4.259-5.06 2.455-1.781 5.642-3.067 8.972-3.296 3.341-.229 6.837.608 9.852 3.087 3.01 2.476 5.479 6.536 6.878 12.643.087.376-.149.752-.526.838-.376.087-.752-.149-.838-.526-1.351-5.893-3.695-9.646-6.403-11.873-2.704-2.223-5.833-2.98-8.867-2.772-3.045.209-5.983 1.391-8.246 3.032-2.28 1.654-3.781 3.701-4.113 5.579-.049.281-.265.505-.545.563-.28.059-.568-.059-.726-.297-2.788-4.181-7.427-5.022-11.509-3.661-4.108 1.369-7.479 4.913-7.71 9.31-.02.386-.35.682-.736.662-.386-.02-.682-.35-.662-.736.269-5.103 4.148-9.059 8.665-10.565 4.158-1.386 9.001-.741 12.255 3.072zM215.853 23.404c-5.295 2.29-9.183 8.082-10.477 12.854-.101.373-.486.593-.859.492-.373-.101-.594-.486-.492-.859 1.372-5.061 5.484-11.269 11.272-13.772 2.921-1.262 6.259-1.575 9.838-.322 3.353 1.173 6.869 3.703 10.442 8.012 1.794-2.809 5.834-4.634 10.001-3.86 4.733.879 9.511 5.04 11.802 14.46.092.376-.139.754-.514.846-.376.091-.755-.14-.846-.515-2.209-9.08-6.68-12.669-10.698-13.415-4.107-.763-7.874 1.374-8.976 4.019-.095.229-.305.39-.55.424-.246.034-.492-.065-.645-.26-3.696-4.682-7.241-7.257-10.479-8.39-3.223-1.128-6.198-.847-8.819.287z" clip-rule="evenodd"/>
</svg>
