<?xml version="1.0" encoding="utf-8"?>
<!-- Generator: Adobe Illustrator 23.0.3, SVG Export Plug-In . SVG Version: 6.00 Build 0)  -->
<svg version="1.1" id="Слой_1" xmlns="http://www.w3.org/2000/svg" xmlns:xlink="http://www.w3.org/1999/xlink" x="0px" y="0px"
	 viewBox="0 0 362 289" style="enable-background:new 0 0 362 289;" xml:space="preserve">
<style type="text/css">
	.st0{fill:#F8CA06;}
	.st1{opacity:0.1;enable-background:new    ;}
	.st2{fill:#181C19;}
	.st3{fill-rule:evenodd;clip-rule:evenodd;fill:#181C19;}
	.st4{fill-rule:evenodd;clip-rule:evenodd;fill:#FFFFFF;}
	.st5{fill:#FFFFFF;}
</style>
<g>
	<path class="st0" d="M187.5,284L187.5,284c52.2,0,94.5-42.3,94.5-94.5v-95C282,42.3,239.7,0,187.5,0l0,0C135.3,0,93,42.3,93,94.5
		v95C93,241.7,135.3,284,187.5,284z"/>
</g>
<g>
	<ellipse class="st0" cx="414.5" cy="173" rx="105.5" ry="105"/>
</g>
<g class="st1">
	<ellipse class="st2" cx="39.2" cy="286" rx="18.8" ry="2"/>
</g>
<g>
	<path class="st0" d="M68.5,203.9C50.3,209,39.9,226.7,37,235c0,0.1,0,0.1,0,0.2v0.8c0,0.3,0.2,0.5,0.5,0.5
		c28.4,2.3,33-20.1,31.6-32.2C69,204,68.8,203.8,68.5,203.9z"/>
</g>
<g>
	<path class="st0" d="M37.3,243.3v-2.8c0-0.1,0-0.2-0.1-0.3c-3.6-5.1-8.2-11.3-16.3-14.6c-7.7-3.1-15.2-6.2-20.1-10.1
		c-0.3-0.3-0.8,0-0.8,0.4c0,6.4,2,15.4,9.8,21.5c5.8,4.5,11.9,3,26.8,6.4C37,243.8,37.3,243.6,37.3,243.3z"/>
</g>
<g>
	<path class="st0" d="M40.8,192.2c19.2-1.9,21.9-22.8,20.8-33.8c0-0.4-0.4-0.6-0.8-0.4c-8.7,5.6-13.1,9.1-15.4,12.6
		c-3.6,5.6-2.9,10.1-5.2,18.6c0,0,0,0.1,0,0.1v2.3C40.2,192,40.5,192.2,40.8,192.2z"/>
</g>
<g>
	<path class="st0" d="M38.9,202.5c-17.6,3.3-24.4-12.3-25.7-21.3c-0.1-0.4,0.3-0.6,0.6-0.5c4.3,1.5,5.4,2.1,10.4,3.3
		c5.2,1.3,8.4,4.9,10.1,7.8c1.6,2.8,2.8,5.9,4.9,9.9C39.4,202.1,39.2,202.5,38.9,202.5z"/>
</g>
<g>
	<path class="st3" d="M39.1,179.1c0.4-0.1,0.7,0.2,0.8,0.6c0.5,3.2,1.3,10.3,1.3,13.2c0,3.5-0.9,9.8-1.8,15.7
		c-0.1,0.6-0.2,1.2-0.3,1.8c-0.4,2.3-0.7,4.6-1,6.5c-0.3,2.4-0.6,4.4-0.6,5.5c0,0.2,0,0.3,0,0.5c0,5.2,0,20.4,1.3,30.5
		c1.1,8.8,0.6,19.8,0.2,28c-0.1,1.6-0.2,3.2-0.2,4.5c0,0.4-0.3,0.7-0.7,0.7c-0.4,0-0.7-0.3-0.7-0.7c0.1-1.4,0.1-2.9,0.2-4.6
		c0.4-8.2,0.9-19-0.2-27.7c-1.3-10.1-1.3-25.4-1.3-30.6c0-0.2,0-0.4,0-0.5c0-1.2,0.2-3.2,0.6-5.7c0.3-1.9,0.6-4.2,1-6.5
		c0.1-0.6,0.2-1.2,0.3-1.8c0.9-6,1.8-12.1,1.8-15.5c0-2.8-0.8-9.8-1.3-13C38.5,179.6,38.8,179.2,39.1,179.1z"/>
</g>
<g>
	<path class="st3" d="M60.2,239.4c0.2,0.1,0.3,0.4,0.3,0.6c-0.1,5.4-4.7,17.1-21.8,21.6l-0.4-1.4c15.2-4,20-13.9,20.6-19.1
		c-1.8,0.8-3.4,1.4-4.8,1.9c-0.3,0.1-0.7,0.3-1,0.4c-1.8,0.7-3.3,1.3-4.8,2.4c-5.3,3.9-8.2,8.7-9.2,11.4l-1.3-0.5
		c1.1-3,4.2-8,9.7-12.1c1.6-1.2,3.3-1.9,5.1-2.6c0.3-0.1,0.7-0.3,1-0.4c1.6-0.6,3.5-1.3,5.7-2.4C59.8,239.3,60,239.3,60.2,239.4z"/>
</g>
<g>
	<path class="st3" d="M10.6,243.4c0.2-0.2,0.5-0.3,0.7-0.2c17.8,6.4,26.1,20.7,28.1,27.2c0.1,0.4-0.1,0.8-0.5,0.9
		c-0.4,0.1-0.8-0.1-0.9-0.5c-1.9-6-9.5-19.4-25.9-25.8c0.4,1.6,0.7,3,0.9,4.4c0,0.2,0.1,0.4,0.1,0.7c0.3,2,0.7,4,1.8,6.2
		c1.8,4,4.3,7.6,8.6,10.7c1.9,1.3,3.6,1.9,6,2.6c0.3,0.1,0.6,0.2,1,0.3c2.2,0.6,4.9,1.4,8.4,2.8c0.4,0.1,0.5,0.6,0.4,0.9
		c-0.1,0.4-0.6,0.5-0.9,0.4c-3.5-1.4-6.1-2.1-8.3-2.7c-0.3-0.1-0.7-0.2-1-0.3c-2.4-0.7-4.3-1.3-6.4-2.8c-4.6-3.3-7.2-7.1-9.1-11.3
		c-1.1-2.4-1.5-4.5-1.9-6.6c0-0.2-0.1-0.4-0.1-0.7c-0.3-1.8-0.6-3.6-1.3-5.6C10.4,243.9,10.4,243.6,10.6,243.4z"/>
</g>
<g>
	<path class="st3" d="M14.2,206.9c0.1-0.2,0.4-0.3,0.6-0.3c5.8,0.3,10.8,2.6,14.7,5.3c3.9,2.7,6.7,5.9,8.1,8.1
		c0.2,0.3,0.1,0.6-0.1,0.9c0.1,0.1,0.2,0.3,0.2,0.4c0,0.4-0.2,0.7-0.6,0.8c-11.8,1.2-17.5-3.3-19-5.5c-0.7-1.1-1.1-2-1.7-3.3
		c-0.1-0.3-0.3-0.6-0.4-1c-0.5-1.2-1-2.6-1.9-4.6C14,207.4,14,207.1,14.2,206.9z M36.3,220.7c-1.3-2-4-5-7.7-7.7
		c-3.5-2.4-7.8-4.5-12.8-5c0.6,1.5,1.1,2.7,1.5,3.6c0.1,0.4,0.3,0.7,0.4,1c0.5,1.3,0.9,2.1,1.5,3.1
		C20.4,217.4,25.4,221.7,36.3,220.7z"/>
</g>
<g>
	<path class="st3" d="M56.1,191.1c0.2,0.2,0.3,0.4,0.2,0.6c-0.6,3.6-2.1,9.1-5,13.9c-2.9,4.8-7.2,8.9-13.3,9.6
		c-0.4,0-0.7-0.2-0.8-0.6c0-0.4,0.2-0.7,0.6-0.8c5.5-0.6,9.4-4.4,12.2-8.9c2.5-4.1,4-8.8,4.6-12.3c-10.9,3.4-14.8,13.2-15.4,17.8
		c-0.1,0.4-0.4,0.7-0.8,0.6c-0.4-0.1-0.7-0.4-0.6-0.8c0.7-5.1,5.1-16,17.5-19.2C55.7,190.9,55.9,190.9,56.1,191.1z"/>
</g>
<g class="st1">
	<ellipse class="st2" cx="356.1" cy="285.9" rx="19.7" ry="2.1"/>
</g>
<g>
	<path class="st3" d="M362.9,183.6c-0.9-1.1-2.1-1.8-3.3-1.4c-1.5,0.5-2.6,1.7-3.6,3.3c-0.9,1.7-1.7,3.8-2.3,6.2
		c-1.2,4.9-1.8,11.1-2,17.1c-0.1,4,0,8,0.2,11.5c-0.5-0.8-1-1.6-1.4-2.3c0,0,0,0,0,0c-1.9-3-4.2-6.3-6.5-9.1
		c-2.3-2.8-4.6-5.3-6.6-6.4c-1-0.6-2-1-3-0.7c-1,0.2-1.7,1.1-2,2.3c-0.4,1.2-0.5,2.8-0.3,5c0.1,2.2,0.5,5,1.2,8.5
		c1.2,6.2,3,11.6,4.9,16.1c-0.1-0.1-0.2-0.2-0.3-0.3c-2-2-4.7-3.9-7.4-5.2c-2.7-1.3-5.5-2.2-7.7-2.2c-1.1,0-2.1,0.2-2.9,0.7
		c-0.8,0.5-1.3,1.4-1.4,2.5c-0.1,1.1,0.2,2.4,0.9,3.9c0.7,1.5,1.8,3.4,3.4,5.5c6.3,8.6,13.4,15.4,17.6,19.3c0.1,0.1,0.2,0.2,0.3,0.3
		c0.6,0.6,1.2,1.1,1.6,1.6c-0.3-0.1-0.6-0.3-0.9-0.5c-4.9-2.5-9-4.2-12.2-5.3c-3.2-1.1-5.7-1.5-7.5-1.4c-0.9,0-1.7,0.2-2.3,0.6
		c-0.6,0.4-1,0.9-1.2,1.6c-0.3,1.3,0.2,2.9,1.1,4.6c1.9,3.5,6.1,8,11.8,12.6c5.7,4.7,12.9,9.5,21,13.5c0.3,0.2,0.8,0,0.9-0.3
		c0.2-0.3,0-0.8-0.3-0.9c-8-4-15.1-8.7-20.7-13.3c-5.6-4.6-9.7-9-11.5-12.2c-0.9-1.7-1.2-2.8-1-3.6c0.1-0.3,0.3-0.6,0.6-0.8
		c0.3-0.2,0.8-0.4,1.6-0.4c1.5-0.1,3.8,0.3,6.9,1.4c3.1,1.1,7.1,2.7,12,5.2c1.3,0.7,2.3,1.1,2.9,1.3c0.2,0.1,0.3,0.1,0.4,0.1
		c0.1,0,0.3,0.1,0.4,0c0.2,0,0.5-0.1,0.7-0.5c0.1-0.3,0-0.6,0-0.7c-0.1-0.2-0.3-0.5-0.5-0.7c-0.2-0.2-0.5-0.5-0.8-0.8
		c-0.6-0.6-1.4-1.3-2.3-2.2c-0.1-0.1-0.2-0.2-0.3-0.3c-4.2-4-11.3-10.7-17.5-19.2c-1.5-2.1-2.6-3.8-3.2-5.3
		c-0.6-1.4-0.9-2.5-0.8-3.2c0.1-0.7,0.3-1.1,0.8-1.4c0.5-0.3,1.2-0.5,2.1-0.5c1.9,0,4.5,0.8,7.1,2.1c2.6,1.3,5.2,3,7,4.9
		c1.1,1.1,2.1,2.2,3,3.2c2.9,6,5.9,10,7.8,11.7c0.4,0.4,0.8,0.7,1.2,0.9c0.2,0.1,0.4,0.2,0.6,0.2c0.2,0,0.6,0,0.8-0.3
		c0.2-0.3,0.3-0.6,0.2-0.8c0-0.2-0.1-0.4-0.1-0.6c-0.1-0.4-0.4-0.9-0.8-1.6c-1.2-2.1-3.9-5.5-8.5-10.5c-2.5-5.1-4.9-11.6-6.5-19.5
		c-0.7-3.4-1.1-6.2-1.2-8.3c-0.1-2.1,0-3.6,0.3-4.5c0.3-0.9,0.7-1.2,1-1.3c0.4-0.1,1,0,1.9,0.6c1.7,1,4,3.3,6.2,6.1
		c2.3,2.8,4.5,6,6.4,9c0.4,0.8,0.9,1.6,1.5,2.4c0.4,0.7,0.9,1.5,1.3,2.2c0.1,0.7,0.1,1.3,0.2,1.9c0.3,2.2,0.6,4.1,1,5.5
		c0.2,0.7,0.4,1.2,0.7,1.7c0.2,0.4,0.7,0.9,1.3,0.9c0.6,0,1.2-0.2,1.5-0.7c0.3-0.5,0.4-1,0.3-1.6c-0.1-1.1-0.7-2.5-1.4-3.9
		c-0.6-1.3-1.5-2.7-2.3-4.1c-0.4-4.1-0.5-9-0.4-14.1c0.2-6,0.8-12.1,1.9-16.8c0.6-2.4,1.3-4.4,2.1-5.9c0.9-1.5,1.8-2.4,2.8-2.7
		c0.4-0.1,1,0,1.9,1c0.8,0.9,1.7,2.4,2.5,4.4c1.7,3.9,3.2,9.4,4.2,15.1c1,5.8,1.4,11.8,0.9,16.8c0,0.2,0,0.4-0.1,0.6
		c-2.1,2.8-3.8,5.6-4.9,7.5c-0.3,0.6-0.5,1.1-0.7,1.5c-0.2,0.4-0.3,0.9-0.3,1.2c0,0.2,0,0.4,0.2,0.7c0.2,0.3,0.5,0.4,0.7,0.4
		c0.2,0,0.5,0,0.6-0.1c0.2-0.1,0.4-0.2,0.6-0.3c1.6-1,2.7-2.5,3.5-4.5c0.7-1.7,1.2-3.7,1.5-5.9c0.3-0.3,0.5-0.7,0.8-1.1
		c2.5-3.3,5.3-6.5,7.8-8.8c1.2-1.1,2.4-2,3.3-2.4c1-0.5,1.5-0.4,1.8-0.3c0.2,0.1,0.5,0.5,0.7,1.2c0.2,0.7,0.4,1.7,0.4,2.8
		c0.1,2.3-0.3,5.5-1.3,9.1c-0.7,2.6-1.7,5.3-3,8.2c-2.6,1.9-5,4.5-7.1,7.2c-2.5,3.1-4.4,6.2-5.3,8.1c-0.2,0.5-0.4,0.9-0.5,1.3
		c0,0.2-0.1,0.4-0.1,0.5c0,0.2,0,0.4,0.2,0.7c0.2,0.3,0.6,0.3,0.8,0.3c0.2,0,0.4-0.1,0.6-0.2c0.3-0.2,0.7-0.5,1.1-1
		c5.2-5.2,8.8-10.7,11.3-15.9c0.3-0.3,0.7-0.5,1-0.7c2.9-1.8,5.6-2.3,7.7-0.8c0.5,0.3,1,1.1,1,2.4c0.1,1.4-0.3,3.4-1.5,6.1
		c-2.3,5.4-7.7,13.5-18.8,24.9c-0.3,0.3-0.3,0.7,0,1c0.2,0.3,0.7,0.3,0.9,0.1c3.5-2.7,7.8-5,11.5-6.4c1.8-0.7,3.5-1.1,4.8-1.3
		c0.7-0.1,1.2-0.1,1.6,0c0.4,0.1,0.7,0.2,0.8,0.3c0.2,0.2,0.4,0.6-0.2,1.9c-0.6,1.2-1.8,2.9-3.9,5.1c-4.2,4.4-11.9,10.9-24.4,19.9
		c-0.3,0.2-0.4,0.7-0.2,1c0.2,0.3,0.7,0.4,1,0.2c12.5-9,20.2-15.6,24.6-20.1c2.2-2.3,3.5-4.1,4.2-5.5c0.7-1.4,0.8-2.7-0.2-3.5
		c-0.4-0.4-1-0.6-1.6-0.7c-0.6-0.1-1.3-0.1-2,0c-1.5,0.2-3.2,0.7-5.1,1.4c-2.2,0.8-4.5,1.9-6.9,3.3c8.4-9.3,12.9-16.1,15-21
		c1.2-2.8,1.7-5,1.6-6.7c-0.1-1.7-0.7-2.9-1.6-3.5c-2.6-1.8-5.7-1.2-8.5,0.3c0.9-2.2,1.7-4.4,2.2-6.4c1-3.7,1.4-7,1.3-9.5
		c0-1.3-0.2-2.3-0.4-3.2c-0.3-0.8-0.6-1.6-1.2-2c-0.9-0.6-2.1-0.3-3.2,0.2c-1.1,0.5-2.3,1.5-3.6,2.6c-2.4,2.1-5,5.2-7.4,8.2
		c0.3-4.8-0.1-10.3-1-15.5c-1-5.8-2.5-11.4-4.3-15.5C364.8,186.4,363.9,184.7,362.9,183.6z M379.5,234c-2.3,4.2-5.4,8.4-9.4,12.5
		c0.9-1.8,2.7-4.7,5-7.7C376.4,237.1,377.9,235.4,379.5,234z M369.6,247.8C369.6,247.9,369.6,247.9,369.6,247.8L369.6,247.8z
		 M368.8,224.6c-0.2,1-0.5,1.9-0.9,2.7c-0.7,1.7-1.7,3-2.9,3.8c0,0,0-0.1,0-0.1c0.1-0.4,0.4-0.8,0.6-1.4
		C366.5,228.3,367.5,226.5,368.8,224.6z M365,231.7C365,231.7,365,231.7,365,231.7C365,231.7,365,231.7,365,231.7z M354,226.6
		c0.2,0.4,0.4,0.8,0.6,1.2c0.7,1.5,1.2,2.7,1.3,3.5c0,0.4,0,0.6-0.1,0.6l0,0c0,0-0.1,0.1-0.3,0.1c0,0-0.1-0.1-0.2-0.2
		c-0.2-0.3-0.4-0.7-0.5-1.3C354.5,229.5,354.2,228.2,354,226.6z M355.5,232C355.5,232,355.5,232,355.5,232S355.5,232,355.5,232z
		 M344.2,242.2c2.1,2.5,3.5,4.4,4.3,5.7c0,0,0,0,0,0C347.4,246.8,345.9,244.9,344.2,242.2z M349.2,249.5
		C349.2,249.5,349.2,249.5,349.2,249.5L349.2,249.5z"/>
</g>
<g class="st1">
	<ellipse class="st2" cx="119.2" cy="285.8" rx="20.7" ry="2.2"/>
</g>
<g class="st1">
	<ellipse class="st2" cx="256.8" cy="285.8" rx="20.7" ry="2.2"/>
</g>
<g>
	<path class="st4" d="M117.1,24.6c-1.6,1.5-2.6,3.3-2.9,4.8c0,0.3-0.2,0.5-0.5,0.6c-0.3,0.1-0.6,0-0.7-0.2c-3.1-3.9-6.1-6.1-8.9-7
		c-2.8-0.9-5.4-0.7-7.5,0.4c-4.4,2.2-7.3,7.6-6.8,13.1c0,0.4-0.3,0.7-0.6,0.8c-0.4,0-0.7-0.3-0.8-0.6c-0.5-6,2.6-12,7.6-14.5
		c2.5-1.2,5.5-1.5,8.6-0.5c2.8,1,5.8,3,8.7,6.4c0.5-1.5,1.6-3,2.9-4.2c1.8-1.7,4.2-3.1,6.8-3.8c2.7-0.7,5.7-0.8,8.7,0.3
		c2.7,1,5.4,2.9,7.8,6c4.2-6,18.5-10.7,31.6,4.8c0.2,0.3,0.2,0.7-0.1,1c-0.3,0.2-0.7,0.2-1-0.1c-13.2-15.7-27.1-9.4-29.8-4.1
		c-0.1,0.2-0.3,0.4-0.6,0.4c-0.2,0-0.5-0.1-0.6-0.3c-2.4-3.4-5.1-5.4-7.8-6.3c-2.7-1-5.4-0.9-7.8-0.3
		C120.9,21.8,118.7,23.1,117.1,24.6z"/>
</g>
<g>
	<path class="st4" d="M326.2,137.7c0.8-1.9,2.3-3.6,4.3-5.1c2.5-1.8,5.6-3.1,9-3.3c3.3-0.2,6.8,0.6,9.9,3.1c3,2.5,5.5,6.5,6.9,12.6
		c0.1,0.4-0.1,0.8-0.5,0.8c-0.4,0.1-0.8-0.1-0.8-0.5c-1.4-5.9-3.7-9.6-6.4-11.9c-2.7-2.2-5.8-3-8.9-2.8c-3,0.2-6,1.4-8.2,3
		c-2.3,1.7-3.8,3.7-4.1,5.6c0,0.3-0.3,0.5-0.5,0.6c-0.3,0.1-0.6-0.1-0.7-0.3c-2.8-4.2-7.4-5-11.5-3.7c-4.1,1.4-7.5,4.9-7.7,9.3
		c0,0.4-0.4,0.7-0.7,0.7c-0.4,0-0.7-0.4-0.7-0.7c0.3-5.1,4.1-9.1,8.7-10.6C318.1,133.2,323,133.9,326.2,137.7z"/>
</g>
<g>
	<path class="st4" d="M222.2,51.7c-5.3,2.3-9.2,8.1-10.5,12.9c-0.1,0.4-0.5,0.6-0.9,0.5c-0.4-0.1-0.6-0.5-0.5-0.9
		c1.4-5.1,5.5-11.3,11.3-13.8c2.9-1.3,6.3-1.6,9.8-0.3c3.4,1.2,6.9,3.7,10.4,8c1.8-2.8,5.8-4.6,10-3.9c4.7,0.9,9.5,5,11.8,14.5
		c0.1,0.4-0.1,0.8-0.5,0.8c-0.4,0.1-0.8-0.1-0.8-0.5c-2.2-9.1-6.7-12.7-10.7-13.4c-4.1-0.8-7.9,1.4-9,4c-0.1,0.2-0.3,0.4-0.6,0.4
		c-0.2,0-0.5-0.1-0.6-0.3c-3.7-4.7-7.2-7.3-10.5-8.4C227.7,50.3,224.8,50.6,222.2,51.7z"/>
</g>
<g>
	<path class="st5" d="M141.2,265.3c-0.7,11.6-10.4,20.8-22.2,20.8s-21.5-9.2-22.2-20.8H141.2z"/>
	<path class="st2" d="M119,286.8c-12.1,0-22.1-9.4-22.9-21.5c0-0.2,0.1-0.4,0.2-0.5s0.3-0.2,0.5-0.2h44.4c0.2,0,0.4,0.1,0.5,0.2
		s0.2,0.3,0.2,0.5C141.1,277.3,131.1,286.8,119,286.8z M97.6,266c1.1,10.9,10.3,19.4,21.4,19.4c11.1,0,20.4-8.5,21.4-19.4H97.6z"/>
</g>
<g>
	<path class="st5" d="M278.9,265.3c-0.7,11.6-10.4,20.8-22.2,20.8c-11.8,0-21.5-9.2-22.2-20.8H278.9z"/>
	<path class="st2" d="M256.8,286.8c-12.1,0-22.1-9.4-22.9-21.5c0-0.2,0.1-0.4,0.2-0.5c0.1-0.1,0.3-0.2,0.5-0.2h44.4
		c0.2,0,0.4,0.1,0.5,0.2c0.1,0.1,0.2,0.3,0.2,0.5C278.9,277.3,268.8,286.8,256.8,286.8z M235.3,266c1.1,10.9,10.3,19.4,21.4,19.4
		c11.1,0,20.4-8.5,21.4-19.4H235.3z"/>
</g>
<g>
	<path class="st0" d="M162.1,99.6c-3.3,9.1-8.8,11-9.6,11.5c-1.6-1.2-3.6-2.3-6.2-3.2c-0.1,0-0.1-0.1-0.2-0.1c0,0,0,0,0,0
		s-0.1,0-0.1,0c0,0-0.1,0-0.1,0c-0.7-0.2-1.5-0.4-2.2-0.6h0c-0.5-0.1-1.1-0.2-1.6-0.3c-0.2,0-0.3-0.1-0.5-0.1
		c-0.4-0.1-0.9-0.2-1.4-0.4c-0.1,0-0.1,0-0.2-0.1c-1-0.4-2.1-0.9-3.1-2c-0.9-0.9-1.7-2.1-2.1-3.8c0,0-0.3-3.5-1.4-6
		c0,0,4.2-1.3,5.7-4.7c0.1,0,4.7,0,10.6,2.5c1.7,0.7,3.4,1.7,4.7,3c0.9,0.9,1.3,1.6,1.4,2.1c0,0,0,0.1,0,0.1c0,0.4-0.3,0.7-0.7,0.8
		v0c0,0,0,0,0,0.1c0,0,0,0,0,0c0,0,0,0,0.1,0c0.1,0.1,0.2,0.1,0.3,0.2c0,0,0.1,0,0.1,0.1c0,0,0.1,0,0.1,0.1c0.1,0,0.1,0,0.2,0.1
		c0,0,0.1,0,0.1,0c0.1,0,0.1,0,0.1,0.1c0.1,0.1,0.3,0.1,0.5,0.1c0,0,0.1,0,0.1,0c0.1,0,0.1,0,0.2,0.1c0.1,0,0.2,0,0.3,0.1
		c0.1,0,0.2,0.1,0.3,0.1c0.1,0,0.1,0,0.2,0c0.1,0,0.3,0.1,0.5,0.1c0.2,0,0.3,0.1,0.5,0.1c0.1,0,0.3,0,0.4,0.1
		C159.9,99.4,160.9,99.5,162.1,99.6z"/>
	<path class="st2" d="M152.4,111.8c-0.1,0-0.3,0-0.4-0.1c-1.7-1.3-3.7-2.3-6-3.1c0,0-0.1,0-0.1-0.1c0,0,0,0-0.1,0c0,0-0.1,0-0.1,0
		c0,0-0.1,0-0.1-0.1c-0.7-0.2-1.4-0.4-2.1-0.6c0,0-0.1,0-0.1,0c-0.5-0.1-1-0.2-1.5-0.3c-0.2,0-0.4-0.1-0.5-0.1
		c-0.3,0-0.8-0.1-1.5-0.4c0,0-0.1,0-0.2,0c-1.4-0.5-2.5-1.2-3.4-2.1c-1.1-1.1-1.9-2.5-2.2-4.1c0-0.1-0.4-3.5-1.4-5.8
		c-0.1-0.2-0.1-0.4,0-0.6c0.1-0.2,0.2-0.3,0.4-0.4c0,0,3.9-1.2,5.3-4.3c0.1-0.3,0.4-0.4,0.6-0.4c0.2,0,4.9,0,10.9,2.5
		c2,0.8,3.7,1.9,4.9,3.1c1,1,1.5,1.8,1.6,2.5c0,0,0,0.1,0,0.1c0,0.2,0,0.5-0.2,0.7c0,0,0,0,0.1,0c0.1,0,0.1,0,0.2,0l0.2,0.1
		c0,0,0,0,0,0c0.1,0,0.2,0,0.3,0.1c0.1,0,0.2,0,0.3,0.1l0,0c0,0,0.3,0,0.4,0.1c0.2,0,0.3,0.1,0.5,0.1c0.2,0,0.4,0.1,0.5,0.1
		c0.1,0,0.1,0,0.2,0c0.1,0,0.1,0,0.2,0c0.4,0,0.9,0.1,1.4,0.1c0.5,0,1,0.1,1.6,0.1c0.2,0,0.4,0.1,0.6,0.3c0.1,0.2,0.2,0.4,0.1,0.6
		c-3.1,8.5-8,10.9-9.6,11.7c-0.1,0.1-0.3,0.1-0.3,0.2C152.7,111.7,152.6,111.8,152.4,111.8z M146.2,107.1c0.1,0,0.1,0,0.2,0.1
		c0.1,0,0.2,0.1,0.2,0.1c2.2,0.8,4.2,1.8,5.9,3c0,0,0,0,0,0c1.4-0.7,5.7-2.8,8.6-10c-0.2,0-0.5,0-0.7-0.1c-0.5,0-1-0.1-1.4-0.1
		c0,0-0.1,0-0.1,0c0,0-0.1,0-0.1,0c-0.1,0-0.2,0-0.3,0c-0.1,0-0.3,0-0.5-0.1c-0.2,0-0.4-0.1-0.5-0.1l0,0c0,0-0.1,0-0.1,0
		c-0.1,0-0.3,0-0.4-0.1c-0.1,0-0.2,0-0.3-0.1l0,0c-0.1,0-0.2,0-0.3-0.1c0,0,0,0,0,0l-0.2,0c-0.1,0-0.3-0.1-0.4-0.1c0,0,0,0,0,0
		c0,0-0.1,0-0.1,0c0,0,0,0,0,0c0,0-0.1,0-0.1,0c0,0-0.1,0-0.2-0.1c0,0,0,0,0,0c-0.1,0-0.1-0.1-0.2-0.1c-0.1-0.1-0.2-0.1-0.3-0.2
		c-0.2-0.1-0.4-0.3-0.4-0.6c0,0,0,0,0,0c0,0,0,0,0,0c0-0.3,0.2-0.6,0.4-0.7c0.2-0.1,0.2-0.2,0.2-0.2c0-0.1-0.1-0.6-1.2-1.7
		c-1.1-1.1-2.6-2.1-4.4-2.8c-4.8-2-8.7-2.4-9.9-2.4c-1.3,2.6-4,3.9-5.3,4.4c0.9,2.5,1.2,5.4,1.2,5.5c0.3,1.3,0.9,2.4,1.9,3.4
		c0.8,0.8,1.7,1.4,2.9,1.8c0.1,0,0.2,0,0.3,0.1c0.5,0.2,0.9,0.3,1.2,0.3c0.2,0,0.3,0.1,0.4,0.1c0.6,0.1,1.1,0.2,1.6,0.3
		c0,0,0.1,0,0.1,0C144.6,106.6,145.4,106.8,146.2,107.1C146.2,107.1,146.2,107.1,146.2,107.1C146.2,107.1,146.2,107.1,146.2,107.1z
		 M156.5,99.6L156.5,99.6L156.5,99.6z M156.6,99.6l0.2-0.6L156.6,99.6z"/>
</g>
<g>
	<path class="st2" d="M153.3,99.2c-1.5,0-3-0.3-3.2-0.3c-0.4-0.1-0.6-0.4-0.6-0.8c0.1-0.4,0.4-0.6,0.8-0.6c0.9,0.2,3.4,0.5,4.5,0.1
		c0.4-0.1,0.8,0.1,0.9,0.4c0.1,0.4-0.1,0.8-0.4,0.9C154.8,99.1,154.1,99.2,153.3,99.2z"/>
</g>
<g>
	<path class="st5" d="M162.1,99.6c-1.2-0.1-2.2-0.1-3-0.3c-0.1,0-0.3,0-0.4-0.1c-0.2,0-0.4-0.1-0.5-0.1c-0.2,0-0.3-0.1-0.5-0.1
		c-0.1,0-0.1,0-0.2,0c-0.1,0-0.2,0-0.3-0.1c-0.1,0-0.2,0-0.2-0.1c-0.1,0-0.1,0-0.2-0.1c0,0-0.1,0-0.1,0c-0.2-0.1-0.3-0.1-0.5-0.1
		c-0.1,0-0.1,0-0.1-0.1c0,0-0.1,0-0.1,0c-0.1,0-0.1,0-0.2-0.1c-0.1,0-0.1,0-0.1-0.1c0,0-0.1,0-0.1-0.1c-0.2-0.1-0.3-0.2-0.4-0.2
		c0.4-0.2,0.7-0.4,0.6-0.9c0,0,0-0.1,0-0.1c0-0.5-0.4-1.2-1.4-2.2c-1.3-1.2-2.9-2.2-4.7-3c0.1,0-0.1-0.4-0.4-1.2
		c-0.1-0.3-0.3-0.7-0.5-1.1c-0.1-0.1-0.1-0.3-0.2-0.4c0,0,0,0,0-0.1c-0.1-0.1-0.1-0.2-0.1-0.3c-0.1-0.3-0.3-0.6-0.4-0.8
		c-0.5-1-1.1-2.1-1.8-3.3c-0.1-0.2-0.2-0.4-0.3-0.6c-1.2-2.1-2.7-4.2-4.3-6.2C160.4,66.3,165.4,90.4,162.1,99.6z"/>
	<path class="st2" d="M162.1,100.3C162.1,100.3,162.1,100.3,162.1,100.3c-1.2-0.1-2.3-0.1-3.1-0.3c-0.1,0-0.1,0-0.2,0
		c-0.1,0-0.2,0-0.3,0c-0.2,0-0.3-0.1-0.5-0.1c-0.2,0-0.4-0.1-0.5-0.1l0,0c0,0-0.1,0-0.1,0l-0.2,0c-0.1,0-0.2,0-0.2,0
		c-0.1,0-0.2,0-0.3-0.1c-0.1,0-0.1,0-0.2-0.1c0,0,0,0,0,0c0,0,0,0-0.1,0l-0.2-0.1c-0.1,0-0.2-0.1-0.3-0.1c-0.1,0-0.1,0-0.2-0.1
		c0,0-0.1,0-0.1,0c0,0-0.1,0-0.2-0.1c0,0-0.1,0-0.2-0.1c0,0,0,0-0.1,0c-0.1-0.1-0.2-0.1-0.2-0.2c-0.2-0.1-0.4-0.4-0.4-0.7
		c0-0.3,0.2-0.5,0.4-0.6c0.2-0.1,0.2-0.1,0.2-0.2c0-0.2-0.1-0.7-1.2-1.8c-1.1-1-2.6-2-4.4-2.8c-0.3-0.1-0.4-0.4-0.4-0.7
		c0-0.1-0.1-0.4-0.4-0.9l-0.2-0.4c-0.1-0.2-0.2-0.5-0.3-0.7c-0.1-0.1-0.1-0.2-0.2-0.4c0-0.1-0.1-0.1-0.1-0.2l-0.5-0.9
		c-0.6-1.2-1.2-2.2-1.8-3.2l-0.2-0.3c-0.1-0.1-0.1-0.2-0.2-0.3c-1.3-2.2-2.8-4.3-4.2-6.1c-0.1-0.2-0.2-0.4-0.1-0.6
		c0-0.2,0.1-0.4,0.3-0.5c8.1-5.1,13.2-3.5,16.1-1.1c6.4,5.1,7.5,17.4,5.4,23.2C162.6,100.1,162.4,100.3,162.1,100.3z M157.6,98.4
		c0,0,0.1,0,0.1,0c0.2,0,0.3,0.1,0.5,0.1c0.2,0,0.3,0.1,0.5,0.1c0.1,0,0.1,0,0.2,0c0.1,0,0.2,0,0.3,0c0.7,0.1,1.5,0.2,2.4,0.2
		c1.8-5.7,0.5-16.7-5.1-21.2c-3.6-2.9-8.2-2.6-13.9,0.8c1.3,1.7,2.7,3.6,3.9,5.6c0.1,0.1,0.1,0.2,0.2,0.3c0.1,0.1,0.1,0.2,0.2,0.3
		c0.6,1,1.2,2.1,1.8,3.3l0.5,1c0,0.1,0.1,0.2,0.1,0.3l0,0c0,0.1,0.1,0.2,0.1,0.3c0.1,0.3,0.2,0.5,0.3,0.8l0.2,0.4
		c0.2,0.4,0.3,0.7,0.4,1c1.9,0.9,3.4,1.8,4.5,2.9c1.1,1.1,1.6,1.9,1.6,2.6c0,0.2,0,0.5-0.1,0.8c0,0,0.1,0,0.1,0c0,0,0.1,0,0.2,0
		l0.2,0.1c0,0,0,0,0.1,0c0,0,0.1,0,0.1,0c0,0,0.1,0,0.2,0c0.1,0,0.2,0,0.3,0.1C157.5,98.4,157.5,98.4,157.6,98.4z M156.4,98.2
		C156.4,98.2,156.4,98.2,156.4,98.2C156.4,98.2,156.4,98.2,156.4,98.2z M156.4,98.2C156.4,98.2,156.4,98.2,156.4,98.2
		S156.4,98.2,156.4,98.2z"/>
</g>
<g>
	<path class="st2" d="M149.6,92.1c-5.9-2.4-10.6-2.5-10.6-2.5c-7.1-3.5-14.7-16-8-17.5c3.5-0.7,7.3,2.3,10.4,6.2
		c2.8,3.3,5.1,7.2,6.5,10c0.1,0.3,0.3,0.6,0.4,0.8c0.1,0.1,0.1,0.2,0.1,0.3c0,0,0,0,0,0.1c0.1,0.1,0.1,0.3,0.2,0.4
		c0.2,0.4,0.4,0.8,0.5,1.1C149.5,91.7,149.7,92.1,149.6,92.1z"/>
	<path class="st2" d="M149.6,92.8c-0.1,0-0.2,0-0.3-0.1c-5.7-2.3-10.3-2.4-10.4-2.4c-0.1,0-0.2,0-0.3-0.1
		c-5.8-2.8-11.5-10.9-10.9-15.5c0.2-1.7,1.3-2.9,3.1-3.3c4.3-0.8,8.4,3,11.1,6.4c3.2,3.8,5.7,8.4,6.6,10.2l0.2,0.3
		c0.1,0.2,0.2,0.3,0.3,0.5c0,0,0.1,0.1,0.1,0.2c0,0,0.1,0.1,0.1,0.2c0,0,0,0,0,0.1l0.2,0.4c0.1,0.2,0.2,0.5,0.3,0.7l0.2,0.4
		c0.4,1,0.5,1.4,0.3,1.8C150.1,92.7,149.8,92.8,149.6,92.8z M139.2,89c0.8,0,4.5,0.3,9.3,2c-0.1-0.2-0.2-0.5-0.3-0.7l-0.2-0.4
		c0,0,0,0,0,0c0-0.1-0.1-0.1-0.1-0.2c-0.1-0.3-0.2-0.4-0.3-0.6l-0.1-0.3c-0.9-1.7-3.3-6.2-6.5-9.9c-3.5-4.4-7-6.5-9.8-5.9
		c-1.2,0.3-1.9,0.9-2,2.1C128.7,78.8,134.1,86.4,139.2,89z"/>
</g>
<g>
	<path class="st2" d="M291.4,148.1c-15.3,18.2-36.9,14.9-54.6,9c-3.7-1.2-7.2-2.5-10.4-3.8c-5.9-2.3-11-4.5-14.7-5.4
		c-5.4-1.4-24.3-2-39,6.1c1-13-3-28.5-20.2-43c0.8-0.5,6.3-2.3,9.6-11.5c0,0,9.7,0.5,22.6-3.8c13.6-4.5,70.2-10.7,98.4,35.5
		C286.8,137.4,289.5,143,291.4,148.1z"/>
	<path class="st2" d="M261.4,162.5c-8.9,0-17.6-2.3-24.8-4.7c-3.2-1.1-6.5-2.3-10.5-3.8c-1.2-0.5-2.3-0.9-3.4-1.4
		c-4.4-1.8-8.3-3.3-11.2-4c-4.8-1.3-23.5-2.3-38.5,6.1c-0.2,0.1-0.5,0.1-0.7,0c-0.2-0.1-0.3-0.4-0.3-0.6c1.2-15.9-5.5-30.2-20-42.4
		c-0.2-0.1-0.3-0.4-0.2-0.6c0-0.2,0.1-0.4,0.3-0.5c0.1-0.1,0.2-0.1,0.4-0.2c1.5-0.7,6-2.9,8.9-10.9c0.1-0.3,0.4-0.5,0.7-0.5
		c0.1,0,9.8,0.5,22.4-3.7c12.8-4.3,70.5-11.3,99.2,35.8c3.6,5.9,6.4,11.5,8.4,16.9c0.1,0.2,0,0.5-0.1,0.7
		C283.1,159.1,272.1,162.5,261.4,162.5z M202.3,146.3c4.4,0,7.8,0.4,9.5,0.9c3,0.8,6.9,2.3,11.4,4.1c1.1,0.4,2.2,0.9,3.4,1.4
		c3.9,1.5,7.2,2.7,10.4,3.8c15.5,5.2,37.9,9.9,53.6-8.5c-2-5.1-4.7-10.6-8.1-16.2c-28.2-46.3-85-39.4-97.6-35.2
		c-11.4,3.8-20.2,3.9-22.4,3.8c-2.8,7.3-6.9,9.9-8.9,10.9c13.9,12,20.6,26,19.8,41.6C183.2,147.7,194.4,146.3,202.3,146.3z"/>
</g>
<g>
	<path class="st0" d="M291.4,265.3H83c0,0,1.8-29,31.7-44.2c20.1-10.2,32.5-23.1,38.6-30.5c1.9-2.4,0.3-5.9-2.8-5.9h-4v-15.6h8.2
		c1.1,0,2.1,0.4,2.8,1.2l7.6,7.6c-1,1.7-4.8,8.7,1.8,10.3c0,0,0,0.1,0,0.1c0,0.1,0,0.1,0,0.1c0,0,0,0.1,0,0.1
		c0.1,0.1,0.1,0.3,0.2,0.4c0.2,0.5,0.5,0.9,0.9,1.3c0.1,0.1,0.1,0.1,0.1,0.1c0,0-5.3,4-9.8,10.7c-5.6,8.5-9.9,21.3,0,35.8
		c6,8.8,15.4,14.7,26,15.7c0.3,0,0.6,0.1,0.9,0.1c1.9,0.1,5,0,5,0s4.5-0.2,7.4-1.6c5-1.8,10-5.3,14.2-11.4
		c4.6-6.7,6.9-14.6,6.9-22.7v-16.2c21,1.9,33.4,1.6,41.4,0.4c0.8,16.1,11.4,25.3,11.4,25.3C295,244.8,291.4,265.3,291.4,265.3z"/>
	<path class="st2" d="M291.4,266H83c-0.2,0-0.4-0.1-0.5-0.2s-0.2-0.3-0.2-0.5c0-0.3,2.2-29.6,32-44.7c20.2-10.3,32.7-23.4,38.4-30.3
		c0.7-0.9,0.9-2.1,0.4-3.1c-0.5-1-1.5-1.7-2.6-1.7h-4c-0.4,0-0.7-0.3-0.7-0.7v-15.6c0-0.4,0.3-0.7,0.7-0.7h8.2
		c1.3,0,2.5,0.5,3.3,1.4l7.6,7.6c0.2,0.2,0.3,0.6,0.1,0.9c-1.3,2.2-2.4,5.2-1.6,7.1c0.4,1.1,1.4,1.8,3,2.2c0.3,0.1,0.4,0.3,0.5,0.5
		c0,0.1,0,0.1,0,0.2c0,0,0,0,0,0c0,0.1,0,0.1,0.1,0.2c0,0.1,0,0.1,0.1,0.1c0,0,0,0.1,0,0.1c0.2,0.4,0.4,0.7,0.7,1.1l0.1,0.1
		c0.1,0.1,0.2,0.3,0.2,0.5c0,0.2-0.1,0.4-0.3,0.5c-0.1,0-5.3,4-9.6,10.5c-5.4,8.1-9.7,20.8,0,35.1c6,8.8,15.3,14.4,25.5,15.4
		c0.2,0,0.6,0.1,0.9,0.1c1.9,0.1,4.9,0,4.9,0c0,0,4.4-0.2,7.1-1.5c5.5-2,10.2-5.8,13.9-11.2c4.5-6.5,6.8-14.2,6.8-22.3v-16.2
		c0-0.2,0.1-0.4,0.2-0.5c0.1-0.1,0.3-0.2,0.5-0.2c18.2,1.7,31.7,1.8,41.2,0.4c0.2,0,0.4,0,0.5,0.2c0.2,0.1,0.2,0.3,0.3,0.5
		c0.8,15.6,11,24.7,11.1,24.8c12.2,9.6,17,19.8,18.9,26.7c2.1,7.5,1.2,12.6,1.2,12.8C292.1,265.7,291.8,266,291.4,266z M83.8,264.6
		h207c0.2-1.5,0.4-5.9-1.2-11.7c-1.8-6.6-6.5-16.5-18.4-25.9c-0.5-0.4-10.5-9.3-11.6-25.1c-9.4,1.2-22.5,1.1-40-0.5v15.4
		c0,8.4-2.4,16.3-7.1,23.1c-3.9,5.7-8.8,9.6-14.6,11.7c-2.8,1.4-7.4,1.6-7.6,1.6c0,0-3.1,0.1-5,0c0,0,0,0,0,0c-0.4,0-0.7,0-1-0.1
		c-10.6-1-20.3-6.8-26.5-16c-10.2-14.9-5.6-28.2,0-36.6c3.6-5.5,7.8-9.1,9.3-10.4c-0.3-0.3-0.5-0.7-0.6-1c-0.1-0.1-0.1-0.3-0.2-0.4
		l0-0.1c-1.8-0.5-3-1.5-3.6-2.9c-1.1-2.7,0.4-6.1,1.4-7.9l-7.3-7.2c-0.6-0.6-1.4-1-2.3-1h-7.5V184h3.3c1.7,0,3.2,0.9,3.9,2.5
		c0.7,1.5,0.5,3.3-0.5,4.6c-5.7,7-18.4,20.3-38.8,30.7C88.5,235.2,84.3,260,83.8,264.6z M167.7,188.3
		C167.7,188.4,167.7,188.4,167.7,188.3C167.7,188.4,167.7,188.3,167.7,188.3z M167.7,188.3C167.7,188.3,167.7,188.3,167.7,188.3
		C167.7,188.3,167.7,188.3,167.7,188.3z M167.6,188.1L167.6,188.1L167.6,188.1z M167,187.8c0,0,0.1,0,0.1,0
		C167.1,187.8,167.1,187.8,167,187.8z M167,187.8C167,187.8,167,187.8,167,187.8C167,187.8,167,187.8,167,187.8z M167,187.8
		C167,187.8,167,187.8,167,187.8C167,187.8,167,187.8,167,187.8z"/>
</g>
<g>
	<path class="st5" d="M172.7,154c-0.8,9.8-4.3,18.1-7.4,23.5c0,0-0.1,0.1-0.3,0.4l-7.6-7.6C160.8,162.8,166.4,157.6,172.7,154z"/>
	<path class="st2" d="M165.1,178.6c-0.2,0-0.4-0.1-0.5-0.2l-7.6-7.6c-0.2-0.2-0.3-0.5-0.1-0.8c3.1-7,8.3-12.5,15.5-16.6
		c0.2-0.1,0.5-0.1,0.7,0s0.3,0.4,0.3,0.6c-0.8,10-4.5,18.5-7.4,23.8c0,0-0.1,0.2-0.3,0.4C165.5,178.5,165.3,178.6,165.1,178.6
		C165.1,178.6,165.1,178.6,165.1,178.6z M158.3,170.1l6.7,6.6c2.7-4.9,6-12.5,6.9-21.4C165.7,159,161.1,164,158.3,170.1z"/>
</g>
<g>
	<path class="st5" d="M146.4,169.1v15.6c-4.3,0-7.8-3.5-7.8-7.8C138.6,172.6,142.1,169.1,146.4,169.1z"/>
	<path class="st2" d="M146.4,185.4c-4.7,0-8.5-3.8-8.5-8.5c0-4.7,3.8-8.5,8.5-8.5c0.4,0,0.7,0.3,0.7,0.7v15.6
		C147.1,185.1,146.8,185.4,146.4,185.4z M145.7,169.8c-3.6,0.4-6.4,3.4-6.4,7c0,3.7,2.8,6.7,6.4,7.1V169.8z"/>
</g>
<g>
	<path class="st5" d="M175.5,187.1c0,2.4-1.9,4.4-4.4,4.4c-1.1,0-2.2-0.4-3-1.2c0,0,0,0,0,0c-0.1,0-0.1-0.1-0.1-0.1
		c-0.4-0.4-0.6-0.8-0.9-1.3c-0.1-0.1-0.1-0.3-0.2-0.4c0,0,0-0.1,0-0.1c0-0.1,0-0.1,0-0.1c0,0,0-0.1,0-0.1c0,0,0,0,0-0.1
		c-0.1-0.2-0.2-1.4,0.2-2.6c0,0,0-0.1,0-0.1c0.4-0.9,1-1.6,1.8-2.1c0.6-0.3,1.3-0.5,2.3-0.6C173.6,182.8,175.5,184.7,175.5,187.1z"
		/>
	<path class="st2" d="M171.2,192.2c-1.3,0-2.5-0.5-3.5-1.4c-0.1-0.1-0.2-0.1-0.2-0.2c-0.4-0.4-0.7-0.9-1-1.5l-0.2-0.4c0,0,0,0,0,0
		c-0.1-0.1-0.1-0.2-0.1-0.3c0-0.1,0-0.1,0-0.2c-0.1-0.5-0.2-1.7,0.2-2.9h0c0,0,0,0,0-0.1c0,0,0,0,0-0.1c0.4-1,1.1-1.9,2.1-2.5
		c0.8-0.4,1.6-0.6,2.6-0.7c0,0,0,0,0,0c2.9,0,5.1,2.3,5.1,5.1C176.2,189.9,174,192.2,171.2,192.2z M168.6,189.7
		C168.6,189.8,168.6,189.8,168.6,189.7c0.8,0.7,1.6,1.1,2.6,1.1c2,0,3.7-1.6,3.7-3.7s-1.6-3.7-3.7-3.7c-0.7,0.1-1.4,0.2-1.9,0.5
		c-0.7,0.4-1.2,1-1.5,1.7c0,0,0,0,0,0c0,0,0,0,0,0c-0.4,1.1-0.2,2.2-0.2,2.2c0,0,0,0,0,0c0,0.1,0,0.1,0,0.2c0,0,0,0,0,0l0,0l0.2,0.4
		C168,189,168.2,189.4,168.6,189.7C168.5,189.7,168.6,189.7,168.6,189.7z M167.1,185.5L167.1,185.5L167.1,185.5z"/>
</g>
<g>
	<path class="st5" d="M260.2,201.1c-7.9,1.1-20.4,1.5-41.4-0.4c-4.6-0.4-9.6-0.9-15.1-1.6c0,0-21.5-5.9-6.5,35.6
		c0.9,2.6,2.1,5,3.4,7.4c1.2,2.2,2.2,6.1-2.9,8.8c-2.8,1.4-7.4,1.6-7.4,1.6s-3,0.1-5,0c-0.6-0.2-0.8-1.1-0.3-1.6
		c2.2-1.9,5.2-5.4,2.2-8.6c-2.8-2.9-21-21-28.9-41.4c4.5-6.7,9.8-10.7,9.8-10.7s0,0,0,0c0.8,0.7,1.8,1.2,3,1.2c2.4,0,4.4-2,4.4-4.4
		c0-2.4-1.9-4.4-4.4-4.4c5.3-0.5,49.9,1.4,55.2-29.5c3.3,1.3,6.8,2.6,10.4,3.8c17.8,5.9,39.3,9.2,54.6-9
		C291.4,148.1,305.8,190,260.2,201.1z"/>
	<path class="st2" d="M187.5,253.3c-0.7,0-1.5,0-2.2,0c-0.1,0-0.1,0-0.2,0c-0.5-0.2-0.9-0.6-1.1-1.2c-0.1-0.6,0.1-1.2,0.5-1.5
		c1.1-1,3.1-3,3.2-5c0-0.9-0.3-1.8-1.1-2.6l-0.5-0.5c-17.3-17.8-25-32.1-28.5-41.1c-0.1-0.2-0.1-0.5,0.1-0.6
		c4.5-6.7,9.7-10.7,9.9-10.9c0.3-0.2,0.7-0.2,0.9,0.1c0.7,0.7,1.6,1,2.5,1c2,0,3.7-1.6,3.7-3.7s-1.6-3.7-3.7-3.7
		c-0.4,0-0.7-0.3-0.7-0.7s0.3-0.7,0.6-0.7c0.5,0,1.3-0.1,2.5-0.1c31.5-0.9,49-10.6,52.1-28.8c0-0.2,0.2-0.4,0.3-0.5
		c0.2-0.1,0.4-0.1,0.6,0c3,1.2,6.6,2.6,10.4,3.8c15.6,5.2,38.1,9.9,53.9-8.8c0.2-0.2,0.4-0.3,0.7-0.2c0.2,0,0.5,0.2,0.5,0.5
		c0.1,0.2,6.2,18.4-2.4,34c-5.4,9.8-15.2,16.5-29.4,19.9c0,0,0,0-0.1,0c-9.6,1.4-23.2,1.2-41.5-0.4c-4.6-0.4-9.7-1-15.1-1.6
		c0,0-0.1,0-0.1,0c0,0-5.1-1.3-8.2,2.1c-3,3.3-5,11.6,2.5,32.6c0.8,2.2,1.9,4.6,3.4,7.3c0.7,1.3,1.5,3.3,0.8,5.4
		c-0.5,1.7-1.9,3.2-4,4.4c-2.9,1.5-7.5,1.7-7.7,1.7C190.3,253.3,189,253.3,187.5,253.3z M185.5,251.9c1.9,0,4.7,0,4.8,0
		c0,0,4.4-0.2,7.1-1.5c1.8-1,2.9-2.2,3.3-3.5c0.5-1.6-0.1-3.3-0.7-4.3c-1.5-2.8-2.7-5.2-3.5-7.5c-6.3-17.4-7-28.9-2.2-34
		c3.6-3.9,8.9-2.7,9.6-2.5c5.4,0.6,10.4,1.2,15,1.6c18.2,1.6,31.7,1.8,41.2,0.4c13.7-3.3,23.3-9.8,28.4-19.2
		c7-12.8,3.8-27.4,2.6-31.7c-16.2,18.2-38.8,13.5-54.5,8.3c-3.5-1.1-6.8-2.4-9.7-3.5c-3.6,18.2-21.2,28-52.4,29.1
		c1.1,0.9,1.7,2.3,1.7,3.8c0,2.8-2.3,5.1-5.1,5.1c-1.1,0-2.2-0.4-3-1c-1.3,1.1-5.4,4.6-9,9.9c3.5,8.8,11.2,22.9,28.1,40.2l0.5,0.5
		c1,1.1,1.5,2.3,1.4,3.7c-0.1,2.4-2.1,4.6-3.7,6c-0.1,0.1-0.1,0.2-0.1,0.2C185.5,251.8,185.5,251.8,185.5,251.9z M260.2,201.1
		L260.2,201.1L260.2,201.1z"/>
</g>
</svg>
