<svg xmlns="http://www.w3.org/2000/svg" width="362" height="289" fill="none" viewBox="0 0 362 289">
    <g clip-path="url(#clip0)">
        <path fill="#F8CA06" d="M187.5 284c52.2 0 94.5-42.3 94.5-94.5v-95C282 42.3 239.7 0 187.5 0S93 42.3 93 94.5v95c0 52.2 42.3 94.5 94.5 94.5zM414.5 278c58.266 0 105.5-47.01 105.5-105S472.766 68 414.5 68 309 115.01 309 173s47.234 105 105.5 105z"/>
        <path fill="#fff" d="M39.2 288c10.383 0 18.8-.895 18.8-2s-8.417-2-18.8-2c-10.383 0-18.8.895-18.8 2s8.417 2 18.8 2z" opacity=".1"/>
        <path fill="#F8CA06" d="M68.5 203.9C50.3 209 39.9 226.7 37 235v1c0 .3.2.5.5.5 28.4 2.3 33-20.1 31.6-32.2-.1-.3-.3-.5-.6-.4zM37.3 243.3v-2.8c0-.1 0-.2-.1-.3-3.6-5.1-8.2-11.3-16.3-14.6-7.7-3.1-15.2-6.2-20.1-10.1-.3-.3-.8 0-.8.4 0 6.4 2 15.4 9.8 21.5 5.8 4.5 11.9 3 26.8 6.4.4 0 .7-.2.7-.5zM40.8 192.2c19.2-1.9 21.9-22.8 20.8-33.8 0-.4-.4-.6-.8-.4-8.7 5.6-13.1 9.1-15.4 12.6-3.6 5.6-2.9 10.1-5.2 18.6v2.4c0 .4.3.6.6.6zM38.9 202.5c-17.6 3.3-24.4-12.3-25.7-21.3-.1-.4.3-.6.6-.5 4.3 1.5 5.4 2.1 10.4 3.3 5.2 1.3 8.4 4.9 10.1 7.8 1.6 2.8 2.8 5.9 4.9 9.9.2.4 0 .8-.3.8z"/>
        <path fill="#fff" fill-rule="evenodd" d="M39.1 179.1c.4-.1.7.2.8.6.5 3.2 1.3 10.3 1.3 13.2 0 3.5-.9 9.8-1.8 15.7l-.3 1.8c-.4 2.3-.7 4.6-1 6.5-.3 2.4-.6 4.4-.6 5.5v.5c0 5.2 0 20.4 1.3 30.5 1.1 8.8.6 19.8.2 28-.1 1.6-.2 3.2-.2 4.5 0 .4-.3.7-.7.7-.4 0-.7-.3-.7-.7.1-1.4.1-2.9.2-4.6.4-8.2.9-19-.2-27.7-1.3-10.1-1.3-25.4-1.3-30.6v-.5c0-1.2.2-3.2.6-5.7.3-1.9.6-4.2 1-6.5l.3-1.8c.9-6 1.8-12.1 1.8-15.5 0-2.8-.8-9.8-1.3-13 0-.4.3-.8.6-.9z" clip-rule="evenodd"/>
        <path fill="#fff" fill-rule="evenodd" d="M60.2 239.4c.2.1.3.4.3.6-.1 5.4-4.7 17.1-21.8 21.6l-.4-1.4c15.2-4 20-13.9 20.6-19.1-1.8.8-3.4 1.4-4.8 1.9-.3.1-.7.3-1 .4-1.8.7-3.3 1.3-4.8 2.4-5.3 3.9-8.2 8.7-9.2 11.4l-1.3-.5c1.1-3 4.2-8 9.7-12.1 1.6-1.2 3.3-1.9 5.1-2.6.3-.1.7-.3 1-.4 1.6-.6 3.5-1.3 5.7-2.4.5.1.7.1.9.2zM10.6 243.4c.2-.2.5-.3.7-.2 17.8 6.4 26.1 20.7 28.1 27.2.1.4-.1.8-.5.9-.4.1-.8-.1-.9-.5-1.9-6-9.5-19.4-25.9-25.8.4 1.6.7 3 .9 4.4 0 .2.1.4.1.7.3 2 .7 4 1.8 6.2 1.8 4 4.3 7.6 8.6 10.7 1.9 1.3 3.6 1.9 6 2.6.3.1.6.2 1 .3 2.2.6 4.9 1.4 8.4 2.8.4.1.5.6.4.9-.1.4-.6.5-.9.4-3.5-1.4-6.1-2.1-8.3-2.7-.3-.1-.7-.2-1-.3-2.4-.7-4.3-1.3-6.4-2.8-4.6-3.3-7.2-7.1-9.1-11.3-1.1-2.4-1.5-4.5-1.9-6.6 0-.2-.1-.4-.1-.7-.3-1.8-.6-3.6-1.3-5.6.1-.1.1-.4.3-.6zM14.2 206.9c.1-.2.4-.3.6-.3 5.8.3 10.8 2.6 14.7 5.3 3.9 2.7 6.7 5.9 8.1 8.1.2.3.1.6-.1.9.1.1.2.3.2.4 0 .4-.2.7-.6.8-11.8 1.2-17.5-3.3-19-5.5-.7-1.1-1.1-2-1.7-3.3-.1-.3-.3-.6-.4-1-.5-1.2-1-2.6-1.9-4.6-.1-.3-.1-.6.1-.8zm22.1 13.8c-1.3-2-4-5-7.7-7.7-3.5-2.4-7.8-4.5-12.8-5 .6 1.5 1.1 2.7 1.5 3.6.1.4.3.7.4 1 .5 1.3.9 2.1 1.5 3.1 1.2 1.7 6.2 6 17.1 5zM56.1 191.1c.2.2.3.4.2.6-.6 3.6-2.1 9.1-5 13.9-2.9 4.8-7.2 8.9-13.3 9.6-.4 0-.7-.2-.8-.6 0-.4.2-.7.6-.8 5.5-.6 9.4-4.4 12.2-8.9 2.5-4.1 4-8.8 4.6-12.3-10.9 3.4-14.8 13.2-15.4 17.8-.1.4-.4.7-.8.6-.4-.1-.7-.4-.6-.8.7-5.1 5.1-16 17.5-19.2.4-.1.6-.1.8.1z" clip-rule="evenodd"/>
        <path fill="#fff" d="M356.1 288c10.88 0 19.7-.94 19.7-2.1 0-1.16-8.82-2.1-19.7-2.1-10.88 0-19.7.94-19.7 2.1 0 1.16 8.82 2.1 19.7 2.1z" opacity=".1"/>
        <path fill="#fff" fill-rule="evenodd" d="M362.9 183.6c-.9-1.1-2.1-1.8-3.3-1.4-1.5.5-2.6 1.7-3.6 3.3-.9 1.7-1.7 3.8-2.299 6.2-1.201 4.9-1.8 11.1-2 17.1-.1 4-.001 8 .199 11.5-.5-.8-1-1.6-1.4-2.3-1.9-3-4.2-6.3-6.5-9.1s-4.6-5.3-6.6-6.4c-1-.6-2-1-3-.7-1 .2-1.7 1.1-2 2.3-.4 1.2-.5 2.8-.3 5 .1 2.2.5 5 1.2 8.5 1.2 6.2 3.001 11.6 4.901 16.1l-.301-.3c-2-2-4.7-3.9-7.4-5.2-2.7-1.3-5.5-2.2-7.7-2.2-1.1 0-2.1.2-2.9.7-.8.5-1.3 1.4-1.4 2.5-.1 1.1.2 2.4.9 3.9s1.8 3.4 3.4 5.5c6.3 8.6 13.4 15.4 17.6 19.3l.301.3c.6.6 1.199 1.1 1.599 1.6-.3-.1-.6-.3-.9-.5-4.9-2.5-8.999-4.2-12.199-5.3-3.2-1.1-5.7-1.5-7.5-1.4-.9 0-1.701.2-2.301.6-.6.4-.999.9-1.199 1.6-.3 1.3.199 2.9 1.099 4.6 1.9 3.5 6.1 8 11.8 12.6 5.7 4.7 12.9 9.5 21 13.5.3.2.8 0 .9-.3.2-.3 0-.8-.299-.9-8-4-15.101-8.7-20.701-13.3-5.6-4.6-9.7-9-11.5-12.2-.9-1.7-1.2-2.8-1-3.6.1-.3.3-.6.6-.8.3-.2.801-.4 1.601-.4 1.5-.1 3.799.3 6.899 1.4 3.1 1.1 7.1 2.7 12 5.2 1.3.7 2.3 1.1 2.9 1.3.2.1.3.1.4.1.1 0 .3.1.4 0 .2 0 .5-.1.7-.5.1-.3 0-.6 0-.7-.1-.2-.3-.5-.5-.7l-.799-.8c-.6-.6-1.401-1.3-2.301-2.2l-.3-.3c-4.2-4-11.3-10.7-17.5-19.2-1.5-2.1-2.6-3.8-3.2-5.3-.6-1.4-.9-2.5-.8-3.2.1-.7.3-1.1.8-1.4.5-.3 1.2-.5 2.1-.5 1.9 0 4.5.8 7.1 2.1 2.6 1.3 5.2 3 7 4.9 1.1 1.1 2.1 2.2 3 3.2 2.9 6 5.9 10 7.8 11.7.4.4.8.7 1.2.9.2.1.4.2.601.2.2 0 .599 0 .799-.3.2-.3.3-.6.201-.8 0-.2-.101-.4-.101-.6-.1-.4-.4-.9-.8-1.6-1.2-2.1-3.9-5.5-8.5-10.5-2.5-5.1-4.9-11.6-6.5-19.5-.7-3.4-1.1-6.2-1.2-8.3-.1-2.1 0-3.6.3-4.5.3-.9.7-1.2 1-1.3.4-.1 1 0 1.9.6 1.7 1 4 3.3 6.2 6.1 2.3 2.8 4.5 6 6.4 9 .4.8.9 1.6 1.5 2.4.4.7.9 1.5 1.301 2.2.099.7.099 1.3.199 1.9.3 2.2.6 4.1 1 5.5.2.7.4 1.2.7 1.7.2.4.7.9 1.3.9.6 0 1.2-.2 1.5-.7.3-.5.4-1 .301-1.6-.1-1.1-.701-2.5-1.401-3.9-.6-1.3-1.5-2.7-2.3-4.1-.4-4.1-.5-9-.4-14.1.2-6 .8-12.1 1.9-16.8.6-2.4 1.3-4.4 2.1-5.9.9-1.5 1.8-2.4 2.8-2.7.4-.1 1 0 1.9 1 .8.9 1.7 2.4 2.5 4.4 1.7 3.9 3.2 9.4 4.2 15.1 1 5.8 1.4 11.8.9 16.8 0 .2 0 .4-.1.6-2.1 2.8-3.8 5.6-4.9 7.5-.3.6-.499 1.1-.699 1.5-.201.4-.301.9-.301 1.2 0 .2 0 .4.2.7.2.3.5.4.7.4.2 0 .5 0 .6-.1l.6-.3c1.6-1 2.7-2.5 3.5-4.5.7-1.7 1.2-3.7 1.5-5.9.3-.3.5-.7.8-1.1 2.5-3.3 5.3-6.5 7.8-8.8 1.2-1.1 2.4-2 3.3-2.4 1-.5 1.5-.4 1.801-.3.199.1.499.5.699 1.2.2.7.4 1.7.4 2.8.1 2.3-.3 5.5-1.3 9.1-.7 2.6-1.7 5.3-3 8.2-2.6 1.9-5 4.5-7.1 7.2-2.5 3.1-4.4 6.2-5.3 8.1-.2.5-.4.9-.5 1.3 0 .2-.1.4-.1.5 0 .2 0 .4.201.7.2.3.599.3.799.3.2 0 .4-.1.6-.2.3-.2.7-.5 1.101-1 5.2-5.2 8.799-10.7 11.299-15.9.3-.3.7-.5 1-.7 2.9-1.8 5.601-2.3 7.701-.8.5.3 1 1.1 1 2.4.099 1.4-.301 3.4-1.5 6.1-2.301 5.4-7.701 13.5-18.801 24.9-.3.3-.3.7 0 1 .2.3.7.3.9.1 3.5-2.7 7.8-5 11.5-6.4 1.8-.7 3.5-1.1 4.8-1.3.7-.1 1.2-.1 1.601 0 .4.1.699.2.799.3.2.2.4.6-.2 1.9-.6 1.2-1.8 2.9-3.9 5.1-4.2 4.4-11.9 10.9-24.4 19.9-.3.2-.4.7-.2 1 .2.3.7.4 1 .2 12.5-9 20.2-15.6 24.6-20.1 2.2-2.3 3.5-4.1 4.2-5.5.7-1.4.8-2.7-.2-3.5-.4-.4-1-.6-1.6-.7-.6-.1-1.3-.1-2 0-1.5.2-3.199.7-5.099 1.4-2.201.8-4.501 1.9-6.901 3.3 8.4-9.3 12.9-16.1 15-21 1.2-2.8 1.7-5 1.6-6.7-.1-1.7-.7-2.9-1.6-3.5-2.6-1.8-5.7-1.2-8.5.3.9-2.2 1.7-4.4 2.2-6.4 1-3.7 1.4-7 1.3-9.5 0-1.3-.2-2.3-.4-3.2-.3-.8-.6-1.6-1.199-2-.901-.6-2.101-.3-3.201.2s-2.3 1.5-3.6 2.6c-2.4 2.1-5 5.2-7.4 8.2.3-4.8-.1-10.3-1-15.5-1-5.8-2.5-11.4-4.299-15.5.099-1.6-.801-3.3-1.801-4.4zm16.6 50.4c-2.3 4.2-5.4 8.4-9.4 12.5.9-1.8 2.7-4.7 5-7.7 1.3-1.7 2.8-3.4 4.4-4.8zm-9.9 13.8c0 .1 0 .1 0 0zm-.8-23.2c-.2 1-.5 1.9-.9 2.7-.7 1.7-1.7 3-2.9 3.8v-.1c.1-.4.4-.8.6-1.4.9-1.3 1.9-3.1 3.2-5zm-14.8 2l.6 1.2c.7 1.5 1.2 2.7 1.3 3.5 0 .4 0 .6-.1.6 0 0-.1.1-.3.1l-.2-.2c-.2-.3-.4-.7-.5-1.3-.3-1-.6-2.3-.8-3.9zm-9.799 15.6c2.1 2.5 3.499 4.4 4.299 5.7-1.1-1.1-2.599-3-4.299-5.7z" clip-rule="evenodd"/>
        <path fill="#fff" d="M119.2 288c11.432 0 20.7-.985 20.7-2.2 0-1.215-9.268-2.2-20.7-2.2-11.432 0-20.7.985-20.7 2.2 0 1.215 9.268 2.2 20.7 2.2zM256.8 288c11.432 0 20.7-.985 20.7-2.2 0-1.215-9.268-2.2-20.7-2.2-11.433 0-20.7.985-20.7 2.2 0 1.215 9.267 2.2 20.7 2.2z" opacity=".1"/>
        <path fill="#fff" fill-rule="evenodd" d="M117.1 24.6c-1.6 1.5-2.6 3.3-2.9 4.8 0 .3-.2.5-.5.6-.3.1-.6 0-.7-.2-3.1-3.9-6.1-6.1-8.9-7-2.8-.9-5.4-.7-7.5.4-4.4 2.2-7.3 7.6-6.8 13.1 0 .4-.3.7-.6.8-.4 0-.7-.3-.8-.6-.5-6 2.6-12 7.6-14.5 2.5-1.2 5.5-1.5 8.6-.5 2.8 1 5.8 3 8.7 6.4.5-1.5 1.6-3 2.9-4.2 1.8-1.7 4.2-3.1 6.8-3.8 2.7-.7 5.7-.8 8.7.3 2.7 1 5.4 2.9 7.8 6 4.2-6 18.5-10.7 31.6 4.8.2.3.2.7-.1 1-.3.2-.7.2-1-.1-13.2-15.7-27.1-9.4-29.8-4.1-.1.2-.3.4-.6.4-.2 0-.5-.1-.6-.3-2.4-3.4-5.1-5.4-7.8-6.3-2.7-1-5.4-.9-7.8-.3-2.5.5-4.7 1.8-6.3 3.3zM326.2 137.7c.8-1.9 2.3-3.6 4.3-5.1 2.5-1.8 5.6-3.1 9-3.3 3.3-.2 6.8.6 9.9 3.1 3 2.5 5.5 6.5 6.9 12.6.1.4-.1.8-.5.8-.4.1-.8-.1-.8-.5-1.4-5.9-3.7-9.6-6.4-11.9-2.7-2.2-5.8-3-8.9-2.8-3 .2-6 1.4-8.2 3-2.3 1.7-3.8 3.7-4.1 5.6 0 .3-.3.5-.5.6-.3.1-.6-.1-.7-.3-2.8-4.2-7.4-5-11.5-3.7-4.1 1.4-7.5 4.9-7.7 9.3 0 .4-.4.7-.7.7-.4 0-.7-.4-.7-.7.3-5.1 4.1-9.1 8.7-10.6 3.8-1.3 8.7-.6 11.9 3.2zM222.201 51.7c-5.3 2.3-9.2 8.1-10.5 12.9-.1.4-.5.6-.9.5-.4-.1-.6-.5-.5-.9 1.4-5.1 5.5-11.3 11.3-13.8 2.9-1.3 6.3-1.6 9.8-.3 3.4 1.2 6.9 3.7 10.4 8 1.8-2.8 5.8-4.6 10-3.9 4.7.9 9.5 5 11.8 14.5.1.4-.1.8-.5.8-.4.1-.8-.1-.8-.5-2.2-9.1-6.7-12.7-10.7-13.4-4.1-.8-7.9 1.4-9 4-.1.2-.3.4-.6.4-.2 0-.5-.1-.6-.3-3.7-4.7-7.2-7.3-10.5-8.4-3.2-1-6.1-.7-8.7.4z" clip-rule="evenodd"/>
        <path fill="#fff" d="M141.199 265.3c-.7 11.6-10.4 20.8-22.2 20.8-11.8 0-21.5-9.2-22.2-20.8h44.4z"/>
        <path fill="#181C19" d="M119 286.8c-12.1 0-22.1-9.4-22.9-21.5 0-.2.1-.4.2-.5.1-.1.3-.2.5-.2h44.4c.2 0 .4.1.5.2.1.1.2.3.2.5-.8 12-10.8 21.5-22.9 21.5zM97.6 266c1.1 10.9 10.3 19.4 21.4 19.4 11.1 0 20.4-8.5 21.4-19.4H97.6z"/>
        <path fill="#fff" d="M278.9 265.3c-.7 11.6-10.4 20.8-22.2 20.8-11.8 0-21.5-9.2-22.2-20.8h44.4z"/>
        <path fill="#181C19" d="M256.8 286.8c-12.1 0-22.1-9.4-22.9-21.5 0-.2.1-.4.2-.5.1-.1.3-.2.5-.2H279c.2 0 .4.1.5.2.1.1.2.3.2.5-.8 12-10.9 21.5-22.9 21.5zM235.3 266c1.1 10.9 10.3 19.4 21.4 19.4 11.1 0 20.4-8.5 21.4-19.4h-42.8z"/>
        <path fill="#F8CA06" d="M162.1 99.6c-3.3 9.1-8.8 11-9.6 11.5-1.6-1.2-3.6-2.3-6.2-3.2-.1 0-.1-.1-.2-.1h-.2c-.7-.2-1.5-.4-2.2-.6-.5-.1-1.1-.2-1.6-.3-.2 0-.3-.1-.5-.1-.4-.1-.9-.2-1.4-.4-.1 0-.1 0-.2-.1-1-.4-2.1-.9-3.1-2-.9-.9-1.7-2.1-2.1-3.8 0 0-.3-3.5-1.4-6 0 0 4.2-1.3 5.7-4.7.1 0 4.7 0 10.6 2.5 1.7.7 3.4 1.7 4.7 3 .9.9 1.3 1.6 1.4 2.1v.1c0 .4-.3.7-.7.8v.1h.1c.1.1.2.1.3.2 0 0 .1 0 .1.1 0 0 .1 0 .1.1.1 0 .1 0 .2.1h.1c.1 0 .1 0 .1.1.1.1.3.1.5.1h.1c.1 0 .1 0 .2.1.1 0 .2 0 .3.1.1 0 .2.1.3.1h.2c.1 0 .3.1.5.1s.3.1.5.1c.1 0 .3 0 .4.1.8-.3 1.8-.2 3-.1z"/>
        <path fill="#181C19" d="M152.4 111.8c-.1 0-.3 0-.4-.1-1.7-1.3-3.7-2.3-6-3.1 0 0-.1 0-.1-.1h-.2s-.1 0-.1-.1l-2.1-.6h-.1l-1.5-.3c-.2 0-.4-.1-.5-.1-.3 0-.8-.1-1.5-.4h-.2c-1.4-.5-2.5-1.2-3.4-2.1-1.1-1.1-1.9-2.5-2.2-4.1 0-.1-.4-3.5-1.4-5.8-.1-.2-.1-.4 0-.6.1-.2.2-.3.4-.4 0 0 3.9-1.2 5.3-4.3.1-.3.4-.4.6-.4.2 0 4.9 0 10.9 2.5 2 .8 3.7 1.9 4.9 3.1 1 1 1.5 1.8 1.6 2.5v.1c0 .2 0 .5-.2.7H156.5l.2.1c.1 0 .2 0 .3.1.1 0 .2 0 .3.1 0 0 .3 0 .4.1.2 0 .3.1.5.1s.4.1.5.1h.4c.4 0 .9.1 1.4.1.5 0 1 .1 1.6.1.2 0 .4.1.6.3.1.2.2.4.1.6-3.1 8.5-8 10.9-9.6 11.7-.1.1-.3.1-.3.2-.2-.1-.3 0-.5 0zm-6.2-4.7c.1 0 .1 0 .2.1.1 0 .2.1.2.1 2.2.8 4.2 1.8 5.9 3 1.4-.7 5.7-2.8 8.6-10-.2 0-.5 0-.7-.1-.5 0-1-.1-1.4-.1h-.5c-.1 0-.3 0-.5-.1-.2 0-.4-.1-.5-.1h-.1c-.1 0-.3 0-.4-.1-.1 0-.2 0-.3-.1-.1 0-.2 0-.3-.1h-.2c-.1 0-.3-.1-.4-.1h-.2s-.1 0-.2-.1c-.1 0-.1-.1-.2-.1-.1-.1-.2-.1-.3-.2-.2-.1-.4-.3-.4-.6s.2-.6.4-.7c.2-.1.2-.2.2-.2 0-.1-.1-.6-1.2-1.7-1.1-1.1-2.6-2.1-4.4-2.8-4.8-2-8.7-2.4-9.9-2.4-1.3 2.6-4 3.9-5.3 4.4.9 2.5 1.2 5.4 1.2 5.5.3 1.3.9 2.4 1.9 3.4.8.8 1.7 1.4 2.9 1.8.1 0 .2 0 .3.1.5.2.9.3 1.2.3.2 0 .3.1.4.1.6.1 1.1.2 1.6.3h.1c.7 0 1.5.2 2.3.5zm10.4-7.5l.2-.6-.2.6z"/>
        <path fill="#181C19" d="M153.3 99.2c-1.5 0-3-.3-3.2-.3-.4-.1-.6-.4-.6-.8.1-.4.4-.6.8-.6.9.2 3.4.5 4.5.1.4-.1.8.1.9.4.1.4-.1.8-.4.9-.5.2-1.2.3-2 .3z"/>
        <path fill="#fff" d="M162.101 99.6c-1.2-.1-2.2-.1-3-.3-.1 0-.3 0-.4-.1-.2 0-.4-.1-.5-.1-.2 0-.3-.1-.5-.1h-.2c-.1 0-.2 0-.3-.1-.1 0-.2 0-.2-.1-.1 0-.1 0-.2-.1h-.1c-.2-.1-.3-.1-.5-.1-.1 0-.1 0-.1-.1h-.1c-.1 0-.1 0-.2-.1-.1 0-.1 0-.1-.1 0 0-.1 0-.1-.1-.2-.1-.3-.2-.4-.2.4-.2.7-.4.6-.9V97c0-.5-.4-1.2-1.4-2.2-1.3-1.2-2.9-2.2-4.7-3 .1 0-.1-.4-.4-1.2-.1-.3-.3-.7-.5-1.1-.1-.1-.1-.3-.2-.4V89c-.1-.1-.1-.2-.1-.3-.1-.3-.3-.6-.4-.8-.5-1-1.1-2.1-1.8-3.3l-.3-.6c-1.2-2.1-2.7-4.2-4.3-6.2 18.7-11.5 23.7 12.6 20.4 21.8z"/>
        <path fill="#181C19" d="M162.101 100.3c-1.2-.1-2.3-.1-3.1-.3h-.5c-.2 0-.3-.1-.5-.1s-.4-.1-.5-.1h-.5c-.1 0-.2 0-.3-.1-.1 0-.1 0-.2-.1h-.1l-.2-.1c-.1 0-.2-.1-.3-.1-.1 0-.1 0-.2-.1h-.1s-.1 0-.2-.1c0 0-.1 0-.2-.1h-.1c-.1-.1-.2-.1-.2-.2-.2-.1-.4-.4-.4-.7 0-.3.2-.5.4-.6.2-.1.2-.1.2-.2 0-.2-.1-.7-1.2-1.8-1.1-1-2.6-2-4.4-2.8-.3-.1-.4-.4-.4-.7 0-.1-.1-.4-.4-.9l-.2-.4c-.1-.2-.2-.5-.3-.7-.1-.1-.1-.2-.2-.4 0-.1-.1-.1-.1-.2l-.5-.9c-.6-1.2-1.2-2.2-1.8-3.2l-.2-.3c-.1-.1-.1-.2-.2-.3-1.3-2.2-2.8-4.3-4.2-6.1-.1-.2-.2-.4-.1-.6 0-.2.1-.4.3-.5 8.1-5.1 13.2-3.5 16.1-1.1 6.4 5.1 7.5 17.4 5.4 23.2-.1.4-.3.6-.6.6zm-4.5-1.9h.1c.2 0 .3.1.5.1s.3.1.5.1h.5c.7.1 1.5.2 2.4.2 1.8-5.7.5-16.7-5.1-21.2-3.6-2.9-8.2-2.6-13.9.8 1.3 1.7 2.7 3.6 3.9 5.6.1.1.1.2.2.3.1.1.1.2.2.3.6 1 1.2 2.1 1.8 3.3l.5 1c0 .1.1.2.1.3 0 .1.1.2.1.3.1.3.2.5.3.8l.2.4c.2.4.3.7.4 1 1.9.9 3.4 1.8 4.5 2.9 1.1 1.1 1.6 1.9 1.6 2.6 0 .2 0 .5-.1.8H156.601l.2.1h.4c.1 0 .2 0 .3.1 0 .2 0 .2.1.2z"/>
        <path fill="#181C19" d="M149.599 92.1c-5.9-2.4-10.6-2.5-10.6-2.5-7.1-3.5-14.7-16-8-17.5 3.5-.7 7.3 2.3 10.4 6.2 2.8 3.3 5.1 7.2 6.5 10 .1.3.3.6.4.8.1.1.1.2.1.3v.1c.1.1.1.3.2.4.2.4.4.8.5 1.1.4.7.6 1.1.5 1.1z"/>
        <path fill="#181C19" d="M149.6 92.8c-.1 0-.2 0-.3-.1-5.7-2.3-10.3-2.4-10.4-2.4-.1 0-.2 0-.3-.1-5.8-2.8-11.5-10.9-10.9-15.5.2-1.7 1.3-2.9 3.1-3.3 4.3-.8 8.4 3 11.1 6.4 3.2 3.8 5.7 8.4 6.6 10.2l.2.3c.1.2.2.3.3.5 0 0 .1.1.1.2 0 0 .1.1.1.2v.1l.2.4c.1.2.2.5.3.7l.2.4c.4 1 .5 1.4.3 1.8-.1.1-.4.2-.6.2zM139.2 89c.8 0 4.5.3 9.3 2-.1-.2-.2-.5-.3-.7l-.2-.4c0-.1-.1-.1-.1-.2-.1-.3-.2-.4-.3-.6l-.1-.3c-.9-1.7-3.3-6.2-6.5-9.9-3.5-4.4-7-6.5-9.8-5.9-1.2.3-1.9.9-2 2.1-.5 3.7 4.9 11.3 10 13.9zM291.4 148.1c-15.3 18.2-36.9 14.9-54.6 9-3.7-1.2-7.2-2.5-10.4-3.8-5.9-2.3-11-4.5-14.7-5.4-5.4-1.4-24.3-2-39 6.1 1-13-3-28.5-20.2-43 .8-.5 6.3-2.3 9.6-11.5 0 0 9.7.5 22.6-3.8 13.6-4.5 70.2-10.7 98.4 35.5 3.7 6.2 6.4 11.8 8.3 16.9z"/>
        <path fill="#181C19" d="M261.401 162.5c-8.9 0-17.6-2.3-24.8-4.7-3.2-1.1-6.5-2.3-10.5-3.8-1.2-.5-2.3-.9-3.4-1.4-4.4-1.8-8.3-3.3-11.2-4-4.8-1.3-23.5-2.3-38.5 6.1-.2.1-.5.1-.7 0-.2-.1-.3-.4-.3-.6 1.2-15.9-5.5-30.2-20-42.4-.2-.1-.3-.4-.2-.6 0-.2.1-.4.3-.5.1-.1.2-.1.4-.2 1.5-.7 6-2.9 8.9-10.9.1-.3.4-.5.7-.5.1 0 9.8.5 22.4-3.7 12.8-4.3 70.5-11.3 99.2 35.8 3.6 5.9 6.4 11.5 8.4 16.9.1.2 0 .5-.1.7-8.9 10.4-19.9 13.8-30.6 13.8zm-59.1-16.2c4.4 0 7.8.4 9.5.9 3 .8 6.9 2.3 11.4 4.1 1.1.4 2.2.9 3.4 1.4 3.9 1.5 7.2 2.7 10.4 3.8 15.5 5.2 37.9 9.9 53.6-8.5-2-5.1-4.7-10.6-8.1-16.2-28.2-46.3-85-39.4-97.6-35.2-11.4 3.8-20.2 3.9-22.4 3.8-2.8 7.3-6.9 9.9-8.9 10.9 13.9 12 20.6 26 19.8 41.6 9.8-5.2 21-6.6 28.9-6.6z"/>
        <path fill="#F8CA06" d="M291.4 265.3H83s1.8-29 31.7-44.2c20.1-10.2 32.5-23.1 38.6-30.5 1.9-2.4.3-5.9-2.8-5.9h-4v-15.6h8.2c1.1 0 2.1.4 2.8 1.2l7.6 7.6c-1 1.7-4.8 8.7 1.8 10.3V188.5c.1.1.1.3.2.4.2.5.5.9.9 1.3l.1.1s-5.3 4-9.8 10.7c-5.6 8.5-9.9 21.3 0 35.8 6 8.8 15.4 14.7 26 15.7.3 0 .6.1.9.1 1.9.1 5 0 5 0s4.5-.2 7.4-1.6c5-1.8 10-5.3 14.2-11.4 4.6-6.7 6.9-14.6 6.9-22.7v-16.2c21 1.9 33.4 1.6 41.4.4.8 16.1 11.4 25.3 11.4 25.3 23.5 18.4 19.9 38.9 19.9 38.9z"/>
        <path fill="#181C19" d="M291.401 266h-208.4c-.2 0-.4-.1-.5-.2-.1-.1-.2-.3-.2-.5 0-.3 2.2-29.6 32-44.7 20.2-10.3 32.7-23.4 38.4-30.3.7-.9.9-2.1.4-3.1s-1.5-1.7-2.6-1.7h-4c-.4 0-.7-.3-.7-.7v-15.6c0-.4.3-.7.7-.7h8.2c1.3 0 2.5.5 3.3 1.4l7.6 7.6c.2.2.3.6.1.9-1.3 2.2-2.4 5.2-1.6 7.1.4 1.1 1.4 1.8 3 2.2.3.1.4.3.5.5v.2c0 .1 0 .1.1.2 0 .1 0 .1.1.1v.1c.2.4.4.7.7 1.1l.1.1c.1.1.2.3.2.5s-.1.4-.3.5c-.1 0-5.3 4-9.6 10.5-5.4 8.1-9.7 20.8 0 35.1 6 8.8 15.3 14.4 25.5 15.4.2 0 .6.1.9.1 1.9.1 4.9 0 4.9 0s4.4-.2 7.1-1.5c5.5-2 10.2-5.8 13.9-11.2 4.5-6.5 6.8-14.2 6.8-22.3v-16.2c0-.2.1-.4.2-.5.1-.1.3-.2.5-.2 18.2 1.7 31.7 1.8 41.2.4.2 0 .4 0 .5.2.2.1.2.3.3.5.8 15.6 11 24.7 11.1 24.8 12.2 9.6 17 19.8 18.9 26.7 2.1 7.5 1.2 12.6 1.2 12.8.2.1-.1.4-.5.4zm-207.6-1.4h207c.2-1.5.4-5.9-1.2-11.7-1.8-6.6-6.5-16.5-18.4-25.9-.5-.4-10.5-9.3-11.6-25.1-9.4 1.2-22.5 1.1-40-.5v15.4c0 8.4-2.4 16.3-7.1 23.1-3.9 5.7-8.8 9.6-14.6 11.7-2.8 1.4-7.4 1.6-7.6 1.6 0 0-3.1.1-5 0-.4 0-.7 0-1-.1-10.6-1-20.3-6.8-26.5-16-10.2-14.9-5.6-28.2 0-36.6 3.6-5.5 7.8-9.1 9.3-10.4-.3-.3-.5-.7-.6-1-.1-.1-.1-.3-.2-.4v-.1c-1.8-.5-3-1.5-3.6-2.9-1.1-2.7.4-6.1 1.4-7.9l-7.3-7.2c-.6-.6-1.4-1-2.3-1h-7.5V184h3.3c1.7 0 3.2.9 3.9 2.5.7 1.5.5 3.3-.5 4.6-5.7 7-18.4 20.3-38.8 30.7-26.4 13.4-30.6 38.2-31.1 42.8zm83.9-76.3c0 .1 0 .1 0 0 0 .1 0 0 0 0zm-.7-.5h0z"/>
        <path fill="#fff" d="M172.7 154c-.8 9.8-4.3 18.1-7.4 23.5 0 0-.1.1-.3.4l-7.6-7.6c3.4-7.5 9-12.7 15.3-16.3z"/>
        <path fill="#181C19" d="M165.1 178.6c-.2 0-.4-.1-.5-.2l-7.6-7.6c-.2-.2-.3-.5-.1-.8 3.1-7 8.3-12.5 15.5-16.6.2-.1.5-.1.7 0 .2.1.3.4.3.6-.8 10-4.5 18.5-7.4 23.8 0 0-.1.2-.3.4-.2.3-.4.4-.6.4zm-6.8-8.5l6.7 6.6c2.7-4.9 6-12.5 6.9-21.4-6.2 3.7-10.8 8.7-13.6 14.8z"/>
        <path fill="#fff" d="M146.4 169.1v15.6c-4.3 0-7.8-3.5-7.8-7.8s3.5-7.8 7.8-7.8z"/>
        <path fill="#181C19" d="M146.4 185.4c-4.7 0-8.5-3.8-8.5-8.5s3.8-8.5 8.5-8.5c.4 0 .7.3.7.7v15.6c0 .4-.3.7-.7.7zm-.7-15.6c-3.6.4-6.4 3.4-6.4 7 0 3.7 2.8 6.7 6.4 7.1v-14.1z"/>
        <path fill="#fff" d="M175.5 187.1c0 2.4-1.9 4.4-4.4 4.4-1.1 0-2.2-.4-3-1.2-.1 0-.1-.1-.1-.1-.4-.4-.6-.8-.9-1.3-.1-.1-.1-.3-.2-.4v-.1-.2-.1c-.1-.2-.2-1.4.2-2.6v-.1c.4-.9 1-1.6 1.8-2.1.6-.3 1.3-.5 2.3-.6 2.4.1 4.3 2 4.3 4.4z"/>
        <path fill="#181C19" d="M171.201 192.2c-1.3 0-2.5-.5-3.5-1.4-.1-.1-.2-.1-.2-.2-.4-.4-.7-.9-1-1.5l-.2-.4c-.1-.1-.1-.2-.1-.3v-.2c-.1-.5-.2-1.7.2-2.9v-.1-.1c.4-1 1.1-1.9 2.1-2.5.8-.4 1.6-.6 2.6-.7 2.9 0 5.1 2.3 5.1 5.1 0 2.9-2.2 5.2-5 5.2zm-2.6-2.5c0 .1 0 .1 0 0 .8.7 1.6 1.1 2.6 1.1 2 0 3.7-1.6 3.7-3.7s-1.6-3.7-3.7-3.7c-.7.1-1.4.2-1.9.5-.7.4-1.2 1-1.5 1.7-.4 1.1-.2 2.2-.2 2.2v.2l.2.4c.2.6.4 1 .8 1.3-.1 0 0 0 0 0z"/>
        <path fill="#fff" d="M260.201 201.1c-7.9 1.1-20.4 1.5-41.4-.4-4.6-.4-9.6-.9-15.1-1.6 0 0-21.5-5.9-6.5 35.6.9 2.6 2.1 5 3.4 7.4 1.2 2.2 2.2 6.1-2.9 8.8-2.8 1.4-7.4 1.6-7.4 1.6s-3 .1-5 0c-.6-.2-.8-1.1-.3-1.6 2.2-1.9 5.2-5.4 2.2-8.6-2.8-2.9-21-21-28.9-41.4 4.5-6.7 9.8-10.7 9.8-10.7.8.7 1.8 1.2 3 1.2 2.4 0 4.4-2 4.4-4.4 0-2.4-1.9-4.4-4.4-4.4 5.3-.5 49.9 1.4 55.2-29.5 3.3 1.3 6.8 2.6 10.4 3.8 17.8 5.9 39.3 9.2 54.6-9 .1.2 14.5 42.1-31.1 53.2z"/>
        <path fill="#181C19" d="M187.501 253.3H185.101c-.5-.2-.9-.6-1.1-1.2-.1-.6.1-1.2.5-1.5 1.1-1 3.1-3 3.2-5 0-.9-.3-1.8-1.1-2.6l-.5-.5c-17.3-17.8-25-32.1-28.5-41.1-.1-.2-.1-.5.1-.6 4.5-6.7 9.7-10.7 9.9-10.9.3-.2.7-.2.9.1.7.7 1.6 1 2.5 1 2 0 3.7-1.6 3.7-3.7s-1.6-3.7-3.7-3.7c-.4 0-.7-.3-.7-.7 0-.4.3-.7.6-.7.5 0 1.3-.1 2.5-.1 31.5-.9 49-10.6 52.1-28.8 0-.2.2-.4.3-.5.2-.1.4-.1.6 0 3 1.2 6.6 2.6 10.4 3.8 15.6 5.2 38.1 9.9 53.9-8.8.2-.2.4-.3.7-.2.2 0 .5.2.5.5.1.2 6.2 18.4-2.4 34-5.4 9.8-15.2 16.5-29.4 19.9h-.1c-9.6 1.4-23.2 1.2-41.5-.4-4.6-.4-9.7-1-15.1-1.6h-.1s-5.1-1.3-8.2 2.1c-3 3.3-5 11.6 2.5 32.6.8 2.2 1.9 4.6 3.4 7.3.7 1.3 1.5 3.3.8 5.4-.5 1.7-1.9 3.2-4 4.4-2.9 1.5-7.5 1.7-7.7 1.7.2-.2-1.1-.2-2.6-.2zm-2-1.4h4.8s4.4-.2 7.1-1.5c1.8-1 2.9-2.2 3.3-3.5.5-1.6-.1-3.3-.7-4.3-1.5-2.8-2.7-5.2-3.5-7.5-6.3-17.4-7-28.9-2.2-34 3.6-3.9 8.9-2.7 9.6-2.5 5.4.6 10.4 1.2 15 1.6 18.2 1.6 31.7 1.8 41.2.4 13.7-3.3 23.3-9.8 28.4-19.2 7-12.8 3.8-27.4 2.6-31.7-16.2 18.2-38.8 13.5-54.5 8.3-3.5-1.1-6.8-2.4-9.7-3.5-3.6 18.2-21.2 28-52.4 29.1 1.1.9 1.7 2.3 1.7 3.8 0 2.8-2.3 5.1-5.1 5.1-1.1 0-2.2-.4-3-1-1.3 1.1-5.4 4.6-9 9.9 3.5 8.8 11.2 22.9 28.1 40.2l.5.5c1 1.1 1.5 2.3 1.4 3.7-.1 2.4-2.1 4.6-3.7 6-.1.1-.1.2-.1.2.2-.2.2-.2.2-.1z"/>
    </g>
    <defs>
        <clipPath id="clip0">
            <path fill="#fff" d="M0 0H362V289H0z"/>
        </clipPath>
    </defs>
</svg>
