<svg xmlns="http://www.w3.org/2000/svg" width="343" height="289" fill="none" viewBox="0 0 343 289">
    <g clip-path="url(#clip0)">
        <path fill="#F8CA06" d="M168.5 284c52.2 0 94.5-42.3 94.5-94.5v-95C263 42.3 220.7 0 168.5 0S74 42.3 74 94.5v95c0 52.2 42.3 94.5 94.5 94.5zM395.5 278c58.266 0 105.5-47.01 105.5-105S453.766 68 395.5 68 290 115.01 290 173s47.234 105 105.5 105z"/>
        <path fill="#181C19" d="M306.2 288c10.383 0 18.8-.895 18.8-2s-8.417-2-18.8-2c-10.383 0-18.8.895-18.8 2s8.417 2 18.8 2z" opacity=".1"/>
        <path fill="#fff" d="M335.5 204.3c-18.2 5.2-28.5 22.8-31.5 31.2v1c0 .3.2.5.5.5 28.4 2.3 33-20.1 31.6-32.2-.1-.4-.3-.6-.6-.5zM304.3 243.7v-2.8c0-.1 0-.2-.1-.3-3.6-5.1-8.2-11.3-16.3-14.6-7.7-3.1-15.2-6.2-20.1-10.1-.3-.3-.8 0-.8.4 0 6.4 2 15.4 9.8 21.5 5.8 4.5 11.9 3 26.8 6.4.4.1.7-.2.7-.5zM307.799 192.6c19.2-1.9 21.9-22.8 20.8-33.8 0-.4-.4-.6-.8-.4-8.7 5.6-13.1 9.1-15.4 12.6-3.6 5.6-2.9 10.1-5.2 18.6v2.4c0 .4.3.6.6.6zM305.899 202.9c-17.6 3.3-24.4-12.3-25.7-21.3-.1-.4.3-.6.6-.5 4.3 1.5 5.4 2.1 10.4 3.3 5.2 1.3 8.4 4.9 10.1 7.8 1.6 2.8 2.8 5.9 4.9 9.9.2.4 0 .8-.3.8z"/>
        <path fill="#fff" fill-rule="evenodd" d="M306.1 179.5c.4-.1.7.2.8.6.5 3.2 1.3 10.3 1.3 13.2 0 3.5-.9 9.8-1.8 15.7l-.3 1.8c-.4 2.3-.7 4.6-1 6.5-.3 2.4-.6 4.4-.6 5.5v.5c0 5.2 0 20.4 1.3 30.5 1.1 8.8.6 19.8.2 28-.1 1.6-.2 3.2-.2 4.5 0 .4-.3.7-.7.7-.4 0-.7-.3-.7-.7.1-1.4.1-2.9.2-4.6.4-8.2.9-19-.2-27.7-1.3-10.1-1.3-25.5-1.3-30.6v-.5c0-1.2.2-3.2.6-5.7.3-2 .6-4.2 1-6.5l.3-1.8c.9-6 1.8-12.1 1.8-15.5 0-2.8-.8-9.8-1.3-13 0-.4.3-.8.6-.9z" clip-rule="evenodd"/>
        <path fill="#fff" fill-rule="evenodd" d="M327.201 239.8c.2.1.3.4.3.6-.1 5.4-4.7 17.1-21.8 21.6l-.4-1.4c15.2-4.1 20-13.9 20.6-19.1-1.8.8-3.4 1.4-4.8 1.9-.3.1-.7.3-1 .4-1.8.7-3.3 1.3-4.8 2.4-5.3 3.9-8.2 8.7-9.2 11.4l-1.3-.5c1.1-3 4.2-8 9.7-12.1 1.6-1.2 3.3-1.9 5.1-2.6.3-.1.7-.3 1-.4 1.6-.6 3.5-1.3 5.7-2.4.5.1.7.1.9.2zM277.6 243.8c.2-.2.5-.3.7-.2 17.8 6.4 26.1 20.7 28.1 27.2.1.4-.1.8-.5.9-.4.1-.8-.1-.9-.5-1.9-6-9.5-19.4-25.9-25.8.4 1.6.7 3 .9 4.4 0 .2.1.4.1.7.3 2 .7 4 1.8 6.2 1.8 4 4.3 7.6 8.6 10.7 1.9 1.3 3.6 1.9 6 2.6.3.1.6.2 1 .3 2.2.6 4.9 1.4 8.5 2.8.4.1.5.6.4.9-.1.4-.6.5-.9.4-3.5-1.4-6.1-2.1-8.3-2.7-.3-.1-.7-.2-1-.3-2.4-.7-4.3-1.3-6.4-2.8-4.6-3.3-7.2-7.1-9.1-11.3-1.1-2.4-1.5-4.5-1.9-6.6 0-.2-.1-.4-.1-.7-.3-1.8-.6-3.6-1.3-5.6 0-.1 0-.4.2-.6zM281.201 207.3c.1-.2.4-.3.6-.3 5.8.3 10.8 2.6 14.7 5.3 3.9 2.7 6.7 5.9 8.1 8.1.2.3.1.6-.1.9.1.1.2.3.2.4 0 .4-.2.7-.6.8-11.8 1.2-17.5-3.3-19-5.5-.7-1.1-1.1-2-1.7-3.3-.1-.3-.3-.6-.4-1-.5-1.2-1-2.6-1.9-4.6-.1-.3-.1-.6.1-.8zm22.2 13.8c-1.3-2-4-5-7.7-7.7-3.5-2.5-7.8-4.5-12.8-5 .6 1.5 1.1 2.7 1.5 3.6.1.4.3.7.4 1 .5 1.3.9 2.1 1.5 3.1 1.1 1.7 6.1 6 17.1 5zM323.099 191.5c.2.2.3.4.2.6-.6 3.6-2.1 9.1-5 13.9-2.9 4.8-7.2 8.9-13.3 9.6-.4 0-.7-.2-.8-.6 0-.4.2-.7.6-.8 5.5-.6 9.4-4.4 12.2-8.9 2.5-4.1 4-8.8 4.6-12.3-10.9 3.4-14.8 13.2-15.4 17.8-.1.4-.4.7-.8.6-.4-.1-.7-.4-.6-.8.7-5.1 5.1-16 17.5-19.2.4-.1.6-.1.8.1zM245.399 86.6c1.6 1.5 2.6 3.3 2.9 4.8 0 .3.2.5.5.6.3.1.6 0 .7-.2 3.1-3.9 6.1-6.1 8.9-7 2.8-.9 5.4-.7 7.5.4 4.4 2.2 7.3 7.6 6.8 13.1 0 .4.3.7.6.8.4 0 .7-.3.8-.6.5-6-2.6-12-7.6-14.5-2.5-1.2-5.5-1.5-8.6-.5-2.8 1-5.8 3-8.7 6.4-.5-1.5-1.6-3-2.9-4.2-1.8-1.7-4.2-3.1-6.8-3.8-2.7-.7-5.7-.8-8.7.3-2.7 1-5.4 2.9-7.8 6-4.2-6-18.5-10.7-31.6 4.8-.2.3-.2.7.1 1 .3.2.7.2 1-.1 13.2-15.7 27.1-9.4 29.8-4.1.1.2.3.4.6.4.2 0 .5-.1.6-.3 2.4-3.4 5.1-5.4 7.8-6.3 2.7-1 5.4-.9 7.8-.3 2.5.5 4.7 1.8 6.3 3.3zM306.2 125.7c.8-1.9 2.3-3.6 4.3-5.1 2.5-1.8 5.6-3.1 9-3.3 3.3-.2 6.8.6 9.9 3.1 3 2.5 5.5 6.5 6.9 12.6.1.4-.1.8-.5.8-.4.1-.8-.1-.8-.5-1.4-5.9-3.7-9.6-6.4-11.9-2.7-2.2-5.8-3-8.9-2.8-3 .2-6 1.4-8.2 3-2.3 1.7-3.8 3.7-4.1 5.6 0 .3-.3.5-.5.6-.3.1-.6-.1-.7-.3-2.8-4.2-7.4-5-11.5-3.7-4.1 1.4-7.5 4.9-7.7 9.3 0 .4-.4.7-.7.7-.4 0-.7-.4-.7-.7.3-5.1 4.1-9.1 8.7-10.6 3.8-1.3 8.7-.6 11.9 3.2zM138.201 29.7c-5.3 2.3-9.2 8.1-10.5 12.9-.1.4-.5.6-.9.5-.4-.1-.6-.5-.5-.9 1.4-5.1 5.5-11.3 11.3-13.8 2.9-1.3 6.3-1.6 9.8-.3 3.4 1.2 6.9 3.7 10.4 8 1.8-2.8 5.8-4.6 10-3.9 4.7.9 9.5 5 11.8 14.5.1.4-.1.8-.5.8-.4.1-.8-.1-.8-.5-2.2-9.1-6.7-12.7-10.7-13.4-4.1-.8-7.9 1.4-9 4-.1.2-.3.4-.6.4-.2 0-.5-.1-.6-.3-3.7-4.7-7.2-7.3-10.5-8.4-3.2-1-6.1-.7-8.7.4z" clip-rule="evenodd"/>
        <path fill="#181C19" d="M18.8 288c10.383 0 18.8-.895 18.8-2s-8.417-2-18.8-2c-10.383 0-18.8.895-18.8 2s8.417 2 18.8 2zM148.8 288c10.383 0 18.8-.895 18.8-2s-8.417-2-18.8-2c-10.383 0-18.8.895-18.8 2s8.417 2 18.8 2z" opacity=".1"/>
        <path fill="#181C19" d="M149.5 283.5c8.6 0 15.5-6.9 15.5-15.5s-6.9-15.5-15.5-15.5S134 259.4 134 268s6.9 15.5 15.5 15.5z"/>
        <path fill="#fff" d="M150.8 263.3c.6.4.8 1.1.5 1.7l-3.7 6.4c-.4.6-1.1.8-1.7.5-.6-.4-.8-1.1-.5-1.7l3.7-6.4c.3-.6 1.1-.8 1.7-.5zM154.551 267.107c.386-.67.157-1.526-.513-1.913-.669-.386-1.526-.157-1.912.513-.387.669-.157 1.525.512 1.912.67.387 1.526.157 1.913-.512z"/>
        <path fill="#181C19" d="M34.9 272c2.2-8.3-2.7-16.8-11-19-8.3-2.2-16.8 2.7-19 11-2.2 8.3 2.7 16.8 11 19 8.3 2.2 16.8-2.7 19-11z"/>
        <path fill="#fff" d="M15.8 265.5c.5-.5 1.3-.5 1.8 0l5.3 5.3c.5.5.5 1.3 0 1.8s-1.3.5-1.8 0l-5.3-5.3c-.5-.5-.5-1.3 0-1.8zM20.513 264.864c.546-.546.546-1.433 0-1.979-.547-.547-1.433-.547-1.98 0-.547.546-.547 1.433 0 1.979.547.547 1.433.547 1.98 0z"/>
        <path fill="#181C19" d="M128 104.3c-.2 0-.4-.1-.6-.3-.2-.3-.4-.5-.6-.8-1.3-1.8-2.2-3.2-5.3-4.1-.2-.1-5.5-1.6-6-6 0 0-.3-2.8-1-4.9-.1-.2 0-.4 0-.6 0-.2.3-.3.5-.3 0 0 3.5-.8 4.8-3.4.1-.2.4-.4.7-.4.2 0 4.2.3 9.4 2.9 1.7.8 3.1 1.9 4.1 3.1.4.4.7.9.9 1.2.2.3.4.7.4 1.2 1.6.2 3.8 1 5.7 2.4.3.2.4.6.2.9-3.1 6.9-9.7 8.4-12.2 9-.3.1-.6.1-.7.2-.1-.1-.2-.1-.3-.1zm-11.9-15.8c.6 2.1.9 4.4.9 4.5.3 3.5 4.9 4.8 5 4.8 3.6 1.1 4.7 2.7 6.1 4.6.1.1.2.3.3.4.1 0 .2-.1.4-.1 2.2-.5 8.1-1.9 11-7.7-2.7-1.7-5.3-1.9-5.6-1.9-.3 0-.5-.1-.7-.3-.2-.3-.2-.6 0-.8.1-.1.2-.1.3-.2h.1c0-.1-.1-.2-.2-.4-.2-.3-.4-.7-.8-1-.9-1-2.1-2-3.7-2.7-3.9-2-7.3-2.6-8.4-2.7-1.2 2.1-3.5 3.1-4.7 3.5z"/>
        <path fill="#181C19" d="M132.9 93.4c-1.4 0-3.2-.4-3.4-.5-.4-.1-.6-.5-.5-.9.1-.4.5-.6.9-.5 1.1.3 3.1.6 3.9.4.4-.1.8.1.9.4.1.3-.1.8-.4.9-.5.1-.9.2-1.4.2z"/>
        <path fill="#fff" d="M123.4 74.4c17.2-6.9 22.2 11.7 17.2 20.5-5-2.4-6.7-2.3-6.7-2.3.8-.2 1-1-.5-2.7-1-1.1-2.4-2.1-3.9-2.9.3 0-2.3-7.2-6.1-12.6z"/>
        <path fill="#181C19" d="M140.6 95.5c-.1 0-.2 0-.3-.1-4.7-2.2-6.3-2.2-6.4-2.2-.3 0-.7-.2-.7-.6 0-.4.1-.7.5-.8.1 0 .1-.1.2-.1 0 0 0-.4-.9-1.5-.9-.9-2.1-1.9-3.7-2.7-.3-.1-.4-.4-.4-.7-.2-1-2.7-7.3-6.1-12.1-.1-.2-.2-.4-.1-.6.1-.2.2-.4.4-.5 6.7-2.7 12.5-1.8 16.2 2.4 4.2 4.8 5 13.5 1.8 19-.1.4-.3.5-.5.5zm-5.4-3.5c1 .2 2.6.7 5.1 1.9 2.5-5.1 1.7-12.6-2-16.8-2.3-2.6-6.5-5.1-13.8-2.4 2.5 3.7 5.3 9.6 5.7 11.8 1.6.9 2.9 1.9 3.8 2.9.9 1.1 1.3 1.9 1.2 2.6z"/>
        <path fill="#181C19" d="M114.601 68.4c3.1-.4 6.2 2.4 8.7 6 3.9 5.4 6.5 12.5 6.2 12.5-5-2.5-9.1-2.8-9.1-2.8-5.9-3.6-11.7-14.9-5.8-15.7z"/>
        <path fill="#181C19" d="M129.501 87.6c-.1 0-.2 0-.3-.1-4.8-2.4-8.8-2.8-8.9-2.8-.1 0-.2 0-.3-.1-4.9-2.9-9.3-10.4-8.5-14.4.3-1.5 1.4-2.5 3-2.7 3.8-.5 7.2 3.2 9.4 6.3 3.4 4.7 6.7 12.3 6.3 13.2-.2.4-.4.6-.7.6zm-8.9-4.2c.8.1 3.9.5 7.8 2.2-.8-2.2-2.9-7-5.7-10.9-2.8-4-5.6-6-8-5.8-1 .1-1.6.6-1.8 1.6-.7 3.4 3.5 10.3 7.7 12.9zM186.6 163.1c-4 2.8-21.6 5.7-31.7 5.5-6.5-.2-15.3-1.6-22.5-6.9-4.1-3-7.6-7.3-9.8-13.4-6.6-18.3-12-23.8-12-23.8 28-4.1 17.5-20.8 17.5-20.8.7-.4 9.1-1 12.6-8.8 11.4 5.8 35.9 23.3 45.9 68.2z"/>
        <path fill="#181C19" d="M156.2 169.2h-1.3c-6.3-.2-15.4-1.5-22.9-7-4.6-3.5-8-8.1-10-13.7-6.5-18-11.8-23.4-11.8-23.5-.2-.2-.3-.5-.2-.7.1-.3.3-.4.6-.5 9.8-1.4 15.8-4.5 18-9.2 2.4-5.1-1-10.5-1-10.6-.1-.2-.1-.4-.1-.6 0-.2.2-.3.3-.4.2-.1.5-.2 1-.3 2.3-.5 8.5-1.9 11.3-8.2.1-.2.2-.3.4-.4.2-.1.4-.1.6 0 6 3.1 15 9 23.8 19.7 10.6 12.9 18.2 29.4 22.6 49 .1.3 0 .6-.3.7-4.4 3.1-21.1 5.7-31 5.7zM111.9 125c1.8 2.3 6.2 8.8 11.3 23 1.9 5.4 5.1 9.8 9.6 13.1 7.2 5.3 16 6.6 22.1 6.7 9.9.3 26.4-2.5 30.9-5.1-3.5-15.2-14.6-51-44.9-66.9-3.2 6.3-9.4 7.7-11.8 8.3.9 1.8 2.7 6.4.6 11.1-2.3 4.9-8.3 8.2-17.8 9.8z"/>
        <path fill="#fff" d="M237.6 235.8c-3.7 7.7-10.8-4.1-12.4-5.5-2.8-2.6-11.2-7.2-22.3-7.4-12.5-.2-38-4.7-46.8-11.7-8.8-6.9-17.6-23.2-19.5-22.4-1.9.8-15.3 11.4-41.2 46.4 0 0-11.5 14.1-11.9 24.5 0 .7 0 1.5.1 2.3.1 1.3 0 4.6-4.1 4.8-5.1.3-15 0-14.7-1.9.5-3.2 3.6-.7 8-6.7 4.5-6.1 4.3-38.7 12.3-60.9 8-22.2 18-38.7 18-38.7 8.4 2.7 18.1 3.9 29.2 3 7.2 5.3 16 6.7 22.5 6.9 10.1.3 27.7-2.7 31.7-5.5.2.8.4 1.7.5 2.5 9.7 47.1 33.9 51.7 44.8 51.2 3.5-.2 6.5 2.4 7 5.8.7 4.2.7 9.3-1.2 13.3z"/>
        <path fill="#181C19" d="M75.9 267.6c-4 0-10-.3-11.3-1.7-.3-.3-.4-.7-.3-1.1.3-1.9 1.4-2.3 2.6-2.7 1.4-.5 3.2-1.2 5.5-4.3 2-2.7 3.1-11.3 4.4-21.3 1.5-12.2 3.5-27.3 7.8-39.4 7.9-22 17.999-38.7 18.099-38.9.2-.3.5-.4.8-.3 8.9 2.8 18.7 3.8 28.9 3 .2 0 .3 0 .5.1 7.1 5.3 16 6.6 22.1 6.7 10.2.3 27.5-2.7 31.3-5.3.2-.1.4-.2.7-.1.2.1.4.3.4.5.2.8.4 1.7.5 2.6 3.2 15.7 14 52 44.1 50.7 3.9-.2 7.2 2.6 7.7 6.5.5 3.8.6 9.3-1.4 13.5-.9 1.8-2.1 2.8-3.5 3-3.3.4-6.8-4.2-8.9-6.9-.5-.6-.9-1.2-1.1-1.4-2.8-2.7-11.3-7-21.8-7.2-13.5-.3-38.5-5-47.2-11.8-4.9-3.9-9.9-10.8-13.6-15.8-2.1-2.9-4.5-6.2-5.3-6.5-2.3 1.1-15.7 12.2-40.8 46.1-.1.2-11.3 14-11.7 24.1 0 .7 0 1.5.1 2.2.1 1 0 2.7-1.1 4-.8.9-2 1.5-3.6 1.5-.2.1-1.8.2-3.9.2zM65.6 265c.8.9 7.7 1.5 13.9 1.1 1.2-.1 2.1-.4 2.6-1.1.8-.9.8-2.3.8-3-.1-.8-.1-1.6-.1-2.4.4-10.6 11.6-24.3 12-24.9 25.699-34.7 39.399-45.7 41.499-46.6 1.3-.6 2.8 1.4 6.9 7 3.6 4.9 8.5 11.7 13.3 15.5 8.4 6.6 33.1 11.3 46.3 11.5 11.1.2 19.7 4.7 22.8 7.6.3.3.7.8 1.3 1.6 1.8 2.3 5.1 6.6 7.6 6.3.9-.1 1.7-.8 2.4-2.2 1.9-3.9 1.8-9.1 1.3-12.7-.4-3.1-3.1-5.4-6.2-5.2-5.9.3-14.7-.9-23.4-7.9-10.5-8.5-17.9-23.2-22.2-43.9-.1-.5-.2-1.1-.3-1.6-5.6 2.9-22.1 5.3-31.3 5.1-6.3-.2-15.3-1.5-22.7-6.9-10.1.8-19.8-.1-28.7-2.9-1.7 2.9-10.5 18.4-17.7 38.1-4.3 11.9-6.2 27-7.8 39.1-1.4 10.6-2.4 19-4.6 22-2.5 3.4-4.7 4.2-6.1 4.7-1 .5-1.4.7-1.6 1.7z"/>
        <path fill="#F8CA06" d="M132.4 161.6c-11.1.9-20.8-.3-29.2-3-3-1-5.9-2.1-8.6-3.4-12.5-5.9-21.6-15-28.2-23.6C57 119 53.2 107.2 53.1 107l1.6-10.4s21.8 25.7 55.8 27.8c0 0 5.4 5.4 12 23.8 2.2 6.1 5.8 10.4 9.9 13.4z"/>
        <path fill="#181C19" d="M125.2 162.6c-7.8 0-15.3-1.1-22.2-3.3-2.9-.9-5.8-2-8.7-3.4-10.8-5.2-20.4-13.2-28.4-23.9-8.7-11.6-12.7-22.6-13.4-24.7 0-.1-.1-.3-.1-.4L54 96.5c0-.3.2-.5.5-.6.3-.1.5 0 .7.2.2.3 22 25.5 55.4 27.6.2 0 .3.1.5.2.2.2 5.6 5.8 12.2 24 2 5.4 5.2 9.8 9.6 13.1.2.2.3.5.3.8 0 .3-.3.5-.6.5-2.6.2-5 .3-7.4.3zM53.8 107c.9 2.5 4.8 13 13.2 24.2 7.9 10.5 17.3 18.4 27.9 23.4 2.9 1.4 5.7 2.4 8.5 3.4 8.4 2.7 17.5 3.7 27.1 3.1-3.9-3.3-6.8-7.5-8.6-12.6-5.8-16.1-10.7-22.2-11.7-23.3-29.7-2-50.4-22-55-27l-1.4 8.8zM46.7 95c-.3 0-.6 0-1.6-1.8-.9-1.7-1.1-3-.5-3.9.5-.8 1.5-1.1 3-1 .2 0 .4.1.5.3.1.2.2.3.1.5l-.8 5.3c0 .3-.3.6-.7.6zm.1-5.4c-.4 0-.8.1-.9.4-.2.5.1 1.4.5 2.3l.4-2.7z"/>
        <path fill="#fff" d="M51.1 110.2c-.4 0-.8-.1-1.1-.3l-3.7-1.8c-1.3-.6-2.1-2.1-1.8-3.5L48 81.8c.1-.8.6-1.5 1.3-1.9.7-.4 1.6-.4 2.3 0l3.7 1.8c1.3.6 2 2 1.8 3.5L53.6 108c-.1.8-.6 1.5-1.3 1.9-.4.2-.8.3-1.2.3zM50.5 81c-.2 0-.4 0-.5.1-.3.2-.6.5-.6.9l-3.6 22.7c-.1.8.3 1.7 1.1 2.1l3.7 1.8c.3.2.7.2 1.1 0 .3-.2.6-.5.6-.9L55.8 85c.1-.9-.3-1.7-1-2l-3.7-1.8c-.2-.1-.4-.2-.6-.2z"/>
        <path fill="#F8CA06" d="M47.001 89L46 94.5c-.1 0-4.199-6 1.001-5.5zM94.6 155.3c-19.2 1.6-37-9-36.4-15.3.1-.4.1-.9 0-1.2v-.5c0-1.5-.9-2.9-2.1-3.6-1.8-1.1-4.3-.7-5.3 1-.2.3-.3.6-.4.8-.2.5-.4 1.1-.4 1.7 0 1 .4 1.9 1 2.7.3.5.5.8.5.8s-5.6-.3-4-7.3c1.6-7 18.8-2.9 18.8-2.9 6.6 8.8 15.8 17.8 28.3 23.8z"/>
        <path fill="#181C19" d="M90.6 156.1c-13 0-25.1-5.2-30.4-10.6-1.9-2-2.9-3.9-2.7-5.6 0-.4.1-.7 0-1.1v-.2-.3c0-1.2-.7-2.4-1.7-3-.8-.5-1.8-.7-2.6-.5-.8.2-1.4.6-1.8 1.3-.1.2-.2.5-.3.7v.1c-.2.4-.3.9-.3 1.4 0 .8.3 1.6.8 2.2l.1.1c.3.5.5.7.5.8.2.2.2.5.1.8-.1.2-.4.4-.7.4-.1 0-2.4-.2-3.9-2.1-1.1-1.5-1.4-3.5-.8-6.1.3-1.3 1.1-2.3 2.3-3.1 5.1-3.2 16.9-.4 17.3-.3.2 0 .3.1.4.3 8 10.5 17.3 18.4 27.9 23.4.3.1.4.4.4.8-.1.3-.3.5-.6.6h-4zM59 138.8v1.3c-.1 1.2.7 2.8 2.3 4.5 5.3 5.4 17.6 10.5 30.7 10.1-9.8-5.1-18.5-12.7-25.9-22.4-1.7-.4-11.8-2.4-16 .2-.9.6-1.4 1.3-1.7 2.2-.5 2.1-.3 3.8.5 4.9.3.4.7.8 1.1 1-.4-.7-.6-1.5-.6-2.3 0-.7.1-1.4.4-2 .1-.3.2-.6.4-.9.6-1 1.5-1.6 2.6-1.9 1.2-.3 2.6-.1 3.7.6 1.5.8 2.4 2.4 2.4 4.2.1.2.1.3.1.5z"/>
        <path fill="#181C19" d="M58.3 139.4c-.4 0-.7-.3-.7-.7-.1-2-1-3-1.8-3.5-.3-.2-.4-.6-.2-1 .2-.3.6-.4 1-.2 1.5.9 2.3 2.6 2.4 4.6 0 .5-.3.8-.7.8zM51.1 141.7c-.2 0-.5-.1-.6-.4-.5-1-1.3-2.9-.7-4.9.1-.4.5-.6.9-.5.4.1.6.5.5.9-.5 1.5.2 3 .6 3.8.2.3.1.8-.3 1-.2 0-.3.1-.4.1z"/>
        <path fill="#fff" d="M25.5 255c-.2 0-.4 0-.6-.1-1.3-.3-2.2-1.7-1.8-3l27.6-110.3c.3-1.3 1.7-2.2 3-1.8 1.3.3 2.2 1.7 1.8 3L27.9 253.1c-.3 1.1-1.3 1.9-2.4 1.9zM124 270.2H35.9c-1.4 0-2.5-1.1-2.5-2.5s1.1-2.5 2.5-2.5H124c1.4 0 2.5 1.1 2.5 2.5s-1.1 2.5-2.5 2.5z"/>
        <path fill="#fff" d="M19.7 286.5C9.3 286.5.9 278.1.9 267.7s8.4-18.8 18.8-18.8 18.8 8.4 18.8 18.8c-.1 10.4-8.5 18.8-18.8 18.8zm0-32.6c-7.6 0-13.8 6.2-13.8 13.8 0 7.6 6.2 13.8 13.8 13.8 7.6 0 13.8-6.2 13.8-13.8 0-7.6-6.2-13.8-13.8-13.8zM149.499 286.5c-10.4 0-18.8-8.4-18.8-18.8s8.4-18.8 18.8-18.8 18.8 8.4 18.8 18.8-8.4 18.8-18.8 18.8zm0-32.6c-7.6 0-13.8 6.2-13.8 13.8 0 7.6 6.2 13.8 13.8 13.8 7.6 0 13.8-6.2 13.8-13.8 0-7.6-6.2-13.8-13.8-13.8z"/>
        <path fill="#fff" d="M123.999 270c-1.3 0-2.5-1.1-2.5-2.4-.2-7.6 2.3-14.3 7.3-19.5 5.3-5.4 12.8-8.5 20.7-8.5 7.8 0 15.2 3.4 20.4 9.4.9 1 .8 2.6-.3 3.5-1.1.9-2.6.8-3.5-.3-4.2-4.9-10.2-7.7-16.6-7.7-6.5 0-12.8 2.6-17.1 7-4.1 4.2-6.1 9.7-5.9 15.9 0 1.4-1 2.6-2.5 2.6.1 0 0 0 0 0zM54.2 144.9c-.6 0-1.3-.1-1.9-.3-1.2-.3-2.3-1-3.1-2-1-1.2-1.6-2.7-1.6-4.3 0-.9.2-1.9.6-2.7 1.1-2.4 3.4-3.9 6-3.9 1.1 0 2.2.3 3.2.8 2.1 1.2 3.4 3.4 3.4 5.8v.8c-.4 3.3-3.2 5.8-6.6 5.8zm0-8.2c-.6 0-1.2.4-1.5.9-.1.2-.2.4-.2.7 0 .4.1.8.4 1 .2.2.5.4.7.5.2.1.3.1.5.1.8 0 1.5-.6 1.6-1.4v-.2c0-.6-.3-1.1-.8-1.4-.1-.2-.4-.2-.7-.2z"/>
        <path fill="#fff" d="M25.5 253.2c-.2 0-.3-.1-.4-.2-.3-.2-.3-.7-.1-1 .1-.2 12.8-16.1 12.3-33.1-.1-4.4-.5-9.5-.9-14.8-.7-8.8-1.5-18.8-1.1-27.7 1-19.5 17.2-34.6 17.4-34.7.3-.3.7-.2 1 0 .3.2.2.7 0 1-.2.1-16 14.8-16.9 33.8-.4 8.9.4 18.8 1.1 27.6.4 5.3.8 10.4.9 14.9.5 17.6-12.5 33.9-12.6 34-.3.1-.5.2-.7.2z"/>
    </g>
    <defs>
        <clipPath id="clip0">
            <path fill="#fff" d="M0 0H343V289H0z"/>
        </clipPath>
    </defs>
</svg>
