<?xml version="1.0" encoding="utf-8"?>
<!-- Generator: Adobe Illustrator 23.0.3, SVG Export Plug-In . SVG Version: 6.00 Build 0)  -->
<svg version="1.1" id="Слой_1" xmlns="http://www.w3.org/2000/svg" xmlns:xlink="http://www.w3.org/1999/xlink" x="0px" y="0px"
	 viewBox="0 0 343 289" style="enable-background:new 0 0 343 289;" xml:space="preserve">
<style type="text/css">
	.st0{fill:#F8CA06;}
	.st1{opacity:0.1;enable-background:new    ;}
	.st2{fill:#181C19;}
	.st3{fill:#FFFFFF;}
	.st4{fill-rule:evenodd;clip-rule:evenodd;fill:#181C19;}
	.st5{fill-rule:evenodd;clip-rule:evenodd;fill:#FFFFFF;}
</style>
<g>
	<path class="st0" d="M168.5,284L168.5,284c52.2,0,94.5-42.3,94.5-94.5v-95C263,42.3,220.7,0,168.5,0l0,0C116.3,0,74,42.3,74,94.5
		v95C74,241.7,116.3,284,168.5,284z"/>
</g>
<g>
	<ellipse class="st0" cx="395.5" cy="173" rx="105.5" ry="105"/>
</g>
<g class="st1">
	<ellipse class="st2" cx="306.2" cy="286" rx="18.8" ry="2"/>
</g>
<g>
	<path class="st3" d="M335.5,204.3c-18.2,5.2-28.5,22.8-31.5,31.2c0,0.1,0,0.1,0,0.2v0.8c0,0.3,0.2,0.5,0.5,0.5
		c28.4,2.3,33-20.1,31.6-32.2C336,204.4,335.8,204.2,335.5,204.3z"/>
</g>
<g>
	<path class="st3" d="M304.3,243.7v-2.8c0-0.1,0-0.2-0.1-0.3c-3.6-5.1-8.2-11.3-16.3-14.6c-7.7-3.1-15.2-6.2-20.1-10.1
		c-0.3-0.3-0.8,0-0.8,0.4c0,6.4,2,15.4,9.8,21.5c5.8,4.5,11.9,3,26.8,6.4C304,244.3,304.3,244,304.3,243.7z"/>
</g>
<g>
	<path class="st3" d="M307.8,192.6c19.2-1.9,21.9-22.8,20.8-33.8c0-0.4-0.4-0.6-0.8-0.4c-8.7,5.6-13.1,9.1-15.4,12.6
		c-3.6,5.6-2.9,10.1-5.2,18.6c0,0,0,0.1,0,0.1v2.3C307.2,192.4,307.5,192.6,307.8,192.6z"/>
</g>
<g>
	<path class="st3" d="M305.9,202.9c-17.6,3.3-24.4-12.3-25.7-21.3c-0.1-0.4,0.3-0.6,0.6-0.5c4.3,1.5,5.4,2.1,10.4,3.3
		c5.2,1.3,8.4,4.9,10.1,7.8c1.6,2.8,2.8,5.9,4.9,9.9C306.4,202.5,306.2,202.9,305.9,202.9z"/>
</g>
<g>
	<path class="st4" d="M306.1,179.5c0.4-0.1,0.7,0.2,0.8,0.6c0.5,3.2,1.3,10.3,1.3,13.2c0,3.5-0.9,9.8-1.8,15.7
		c-0.1,0.6-0.2,1.2-0.3,1.8c-0.4,2.3-0.7,4.6-1,6.5c-0.3,2.4-0.6,4.4-0.6,5.5c0,0.2,0,0.3,0,0.5c0,5.2,0,20.4,1.3,30.5
		c1.1,8.8,0.6,19.8,0.2,28c-0.1,1.6-0.2,3.2-0.2,4.5c0,0.4-0.3,0.7-0.7,0.7c-0.4,0-0.7-0.3-0.7-0.7c0.1-1.4,0.1-2.9,0.2-4.6
		c0.4-8.2,0.9-19-0.2-27.7c-1.3-10.1-1.3-25.5-1.3-30.6c0-0.2,0-0.4,0-0.5c0-1.2,0.2-3.2,0.6-5.7c0.3-2,0.6-4.2,1-6.5
		c0.1-0.6,0.2-1.2,0.3-1.8c0.9-6,1.8-12.1,1.8-15.5c0-2.8-0.8-9.8-1.3-13C305.5,180,305.8,179.6,306.1,179.5z"/>
</g>
<g>
	<path class="st4" d="M327.2,239.8c0.2,0.1,0.3,0.4,0.3,0.6c-0.1,5.4-4.7,17.1-21.8,21.6l-0.4-1.4c15.2-4.1,20-13.9,20.6-19.1
		c-1.8,0.8-3.4,1.4-4.8,1.9c-0.3,0.1-0.7,0.3-1,0.4c-1.8,0.7-3.3,1.3-4.8,2.4c-5.3,3.9-8.2,8.7-9.2,11.4l-1.3-0.5
		c1.1-3,4.2-8,9.7-12.1c1.6-1.2,3.3-1.9,5.1-2.6c0.3-0.1,0.7-0.3,1-0.4c1.6-0.6,3.5-1.3,5.7-2.4C326.8,239.7,327,239.7,327.2,239.8z
		"/>
</g>
<g>
	<path class="st4" d="M277.6,243.8c0.2-0.2,0.5-0.3,0.7-0.2c17.8,6.4,26.1,20.7,28.1,27.2c0.1,0.4-0.1,0.8-0.5,0.9
		c-0.4,0.1-0.8-0.1-0.9-0.5c-1.9-6-9.5-19.4-25.9-25.8c0.4,1.6,0.7,3,0.9,4.4c0,0.2,0.1,0.4,0.1,0.7c0.3,2,0.7,4,1.8,6.2
		c1.8,4,4.3,7.6,8.6,10.7c1.9,1.3,3.6,1.9,6,2.6c0.3,0.1,0.6,0.2,1,0.3c2.2,0.6,4.9,1.4,8.5,2.8c0.4,0.1,0.5,0.6,0.4,0.9
		c-0.1,0.4-0.6,0.5-0.9,0.4c-3.5-1.4-6.1-2.1-8.3-2.7c-0.3-0.1-0.7-0.2-1-0.3c-2.4-0.7-4.3-1.3-6.4-2.8c-4.6-3.3-7.2-7.1-9.1-11.3
		c-1.1-2.4-1.5-4.5-1.9-6.6c0-0.2-0.1-0.4-0.1-0.7c-0.3-1.8-0.6-3.6-1.3-5.6C277.4,244.3,277.4,244,277.6,243.8z"/>
</g>
<g>
	<path class="st4" d="M281.2,207.3c0.1-0.2,0.4-0.3,0.6-0.3c5.8,0.3,10.8,2.6,14.7,5.3c3.9,2.7,6.7,5.9,8.1,8.1
		c0.2,0.3,0.1,0.6-0.1,0.9c0.1,0.1,0.2,0.3,0.2,0.4c0,0.4-0.2,0.7-0.6,0.8c-11.8,1.2-17.5-3.3-19-5.5c-0.7-1.1-1.1-2-1.7-3.3
		c-0.1-0.3-0.3-0.6-0.4-1c-0.5-1.2-1-2.6-1.9-4.6C281,207.8,281,207.5,281.2,207.3z M303.4,221.1c-1.3-2-4-5-7.7-7.7
		c-3.5-2.5-7.8-4.5-12.8-5c0.6,1.5,1.1,2.7,1.5,3.6c0.1,0.4,0.3,0.7,0.4,1c0.5,1.3,0.9,2.1,1.5,3.1
		C287.4,217.8,292.4,222.1,303.4,221.1z"/>
</g>
<g>
	<path class="st4" d="M323.1,191.5c0.2,0.2,0.3,0.4,0.2,0.6c-0.6,3.6-2.1,9.1-5,13.9c-2.9,4.8-7.2,8.9-13.3,9.6
		c-0.4,0-0.7-0.2-0.8-0.6c0-0.4,0.2-0.7,0.6-0.8c5.5-0.6,9.4-4.4,12.2-8.9c2.5-4.1,4-8.8,4.6-12.3c-10.9,3.4-14.8,13.2-15.4,17.8
		c-0.1,0.4-0.4,0.7-0.8,0.6c-0.4-0.1-0.7-0.4-0.6-0.8c0.7-5.1,5.1-16,17.5-19.2C322.7,191.3,322.9,191.3,323.1,191.5z"/>
</g>
<g>
	<path class="st5" d="M245.4,86.6c1.6,1.5,2.6,3.3,2.9,4.8c0,0.3,0.2,0.5,0.5,0.6c0.3,0.1,0.6,0,0.7-0.2c3.1-3.9,6.1-6.1,8.9-7
		c2.8-0.9,5.4-0.7,7.5,0.4c4.4,2.2,7.3,7.6,6.8,13.1c0,0.4,0.3,0.7,0.6,0.8c0.4,0,0.7-0.3,0.8-0.6c0.5-6-2.6-12-7.6-14.5
		c-2.5-1.2-5.5-1.5-8.6-0.5c-2.8,1-5.8,3-8.7,6.4c-0.5-1.5-1.6-3-2.9-4.2c-1.8-1.7-4.2-3.1-6.8-3.8c-2.7-0.7-5.7-0.8-8.7,0.3
		c-2.7,1-5.4,2.9-7.8,6c-4.2-6-18.5-10.7-31.6,4.8c-0.2,0.3-0.2,0.7,0.1,1c0.3,0.2,0.7,0.2,1-0.1c13.2-15.7,27.1-9.4,29.8-4.1
		c0.1,0.2,0.3,0.4,0.6,0.4c0.2,0,0.5-0.1,0.6-0.3c2.4-3.4,5.1-5.4,7.8-6.3c2.7-1,5.4-0.9,7.8-0.3C241.6,83.8,243.8,85.1,245.4,86.6z
		"/>
</g>
<g>
	<path class="st5" d="M306.2,125.7c0.8-1.9,2.3-3.6,4.3-5.1c2.5-1.8,5.6-3.1,9-3.3c3.3-0.2,6.8,0.6,9.9,3.1c3,2.5,5.5,6.5,6.9,12.6
		c0.1,0.4-0.1,0.8-0.5,0.8c-0.4,0.1-0.8-0.1-0.8-0.5c-1.4-5.9-3.7-9.6-6.4-11.9c-2.7-2.2-5.8-3-8.9-2.8c-3,0.2-6,1.4-8.2,3
		c-2.3,1.7-3.8,3.7-4.1,5.6c0,0.3-0.3,0.5-0.5,0.6c-0.3,0.1-0.6-0.1-0.7-0.3c-2.8-4.2-7.4-5-11.5-3.7c-4.1,1.4-7.5,4.9-7.7,9.3
		c0,0.4-0.4,0.7-0.7,0.7c-0.4,0-0.7-0.4-0.7-0.7c0.3-5.1,4.1-9.1,8.7-10.6C298.1,121.2,303,121.9,306.2,125.7z"/>
</g>
<g>
	<path class="st5" d="M138.2,29.7c-5.3,2.3-9.2,8.1-10.5,12.9c-0.1,0.4-0.5,0.6-0.9,0.5s-0.6-0.5-0.5-0.9
		c1.4-5.1,5.5-11.3,11.3-13.8c2.9-1.3,6.3-1.6,9.8-0.3c3.4,1.2,6.9,3.7,10.4,8c1.8-2.8,5.8-4.6,10-3.9c4.7,0.9,9.5,5,11.8,14.5
		c0.1,0.4-0.1,0.8-0.5,0.8c-0.4,0.1-0.8-0.1-0.8-0.5c-2.2-9.1-6.7-12.7-10.7-13.4c-4.1-0.8-7.9,1.4-9,4c-0.1,0.2-0.3,0.4-0.6,0.4
		c-0.2,0-0.5-0.1-0.6-0.3c-3.7-4.7-7.2-7.3-10.5-8.4C143.7,28.3,140.8,28.6,138.2,29.7z"/>
</g>
<g class="st1">
	<ellipse class="st2" cx="18.8" cy="286" rx="18.8" ry="2"/>
</g>
<g class="st1">
	<ellipse class="st2" cx="148.8" cy="286" rx="18.8" ry="2"/>
</g>
<g>
	<path class="st3" d="M149.5,283.5c8.6,0,15.5-6.9,15.5-15.5s-6.9-15.5-15.5-15.5S134,259.4,134,268S140.9,283.5,149.5,283.5z"/>
</g>
<g>
	<path class="st2" d="M150.8,263.3L150.8,263.3c0.6,0.4,0.8,1.1,0.5,1.7l-3.7,6.4c-0.4,0.6-1.1,0.8-1.7,0.5l0,0
		c-0.6-0.4-0.8-1.1-0.5-1.7l3.7-6.4C149.4,263.2,150.2,263,150.8,263.3z"/>
</g>
<g>
	<ellipse transform="matrix(0.5 -0.866 0.866 0.5 -154.0641 266.0511)" class="st2" cx="153.4" cy="266.4" rx="1.4" ry="1.4"/>
</g>
<g>
	<path class="st3" d="M34.9,272c2.2-8.3-2.7-16.8-11-19c-8.3-2.2-16.8,2.7-19,11c-2.2,8.3,2.7,16.8,11,19
		C24.2,285.2,32.7,280.3,34.9,272z"/>
</g>
<g>
	<path class="st2" d="M15.8,265.5L15.8,265.5c0.5-0.5,1.3-0.5,1.8,0l5.3,5.3c0.5,0.5,0.5,1.3,0,1.8h0c-0.5,0.5-1.3,0.5-1.8,0
		l-5.3-5.3C15.3,266.8,15.3,266,15.8,265.5z"/>
</g>
<g>
	
		<ellipse transform="matrix(0.7071 -0.7071 0.7071 0.7071 -180.8699 91.0594)" class="st2" cx="19.5" cy="263.9" rx="1.4" ry="1.4"/>
</g>
<g>
	<path class="st2" d="M128,104.3c-0.2,0-0.4-0.1-0.6-0.3c-0.2-0.3-0.4-0.5-0.6-0.8c-1.3-1.8-2.2-3.2-5.3-4.1c-0.2-0.1-5.5-1.6-6-6
		c0,0-0.3-2.8-1-4.9c-0.1-0.2,0-0.4,0-0.6s0.3-0.3,0.5-0.3c0,0,3.5-0.8,4.8-3.4c0.1-0.2,0.4-0.4,0.7-0.4c0.2,0,4.2,0.3,9.4,2.9
		c1.7,0.8,3.1,1.9,4.1,3.1c0.4,0.4,0.7,0.9,0.9,1.2c0.2,0.3,0.4,0.7,0.4,1.2c1.6,0.2,3.8,1,5.7,2.4c0.3,0.2,0.4,0.6,0.2,0.9
		c-3.1,6.9-9.7,8.4-12.2,9c-0.3,0.1-0.6,0.1-0.7,0.2C128.2,104.3,128.1,104.3,128,104.3z M116.1,88.5c0.6,2.1,0.9,4.4,0.9,4.5
		c0.3,3.5,4.9,4.8,5,4.8c3.6,1.1,4.7,2.7,6.1,4.6c0.1,0.1,0.2,0.3,0.3,0.4c0.1,0,0.2-0.1,0.4-0.1c2.2-0.5,8.1-1.9,11-7.7
		c-2.7-1.7-5.3-1.9-5.6-1.9c-0.3,0-0.5-0.1-0.7-0.3c-0.2-0.3-0.2-0.6,0-0.8c0.1-0.1,0.2-0.1,0.3-0.2l0,0c0,0,0.1,0,0.1,0
		c0-0.1-0.1-0.2-0.2-0.4c-0.2-0.3-0.4-0.7-0.8-1c-0.9-1-2.1-2-3.7-2.7c-3.9-2-7.3-2.6-8.4-2.7C119.6,87.1,117.3,88.1,116.1,88.5z"/>
</g>
<g>
	<path class="st2" d="M132.9,93.4c-1.4,0-3.2-0.4-3.4-0.5c-0.4-0.1-0.6-0.5-0.5-0.9c0.1-0.4,0.5-0.6,0.9-0.5
		c1.1,0.3,3.1,0.6,3.9,0.4c0.4-0.1,0.8,0.1,0.9,0.4s-0.1,0.8-0.4,0.9C133.8,93.3,133.4,93.4,132.9,93.4z"/>
</g>
<g>
	<path class="st3" d="M123.4,74.4c17.2-6.9,22.2,11.7,17.2,20.5c-5-2.4-6.7-2.3-6.7-2.3c0.8-0.2,1-1-0.5-2.7c-1-1.1-2.4-2.1-3.9-2.9
		C129.8,87,127.2,79.8,123.4,74.4z"/>
	<path class="st2" d="M140.6,95.5c-0.1,0-0.2,0-0.3-0.1c-4.7-2.2-6.3-2.2-6.4-2.2c-0.3,0-0.7-0.2-0.7-0.6s0.1-0.7,0.5-0.8
		c0.1,0,0.1-0.1,0.2-0.1l0,0c0,0,0-0.4-0.9-1.5c-0.9-0.9-2.1-1.9-3.7-2.7c-0.3-0.1-0.4-0.4-0.4-0.7c-0.2-1-2.7-7.3-6.1-12.1
		c-0.1-0.2-0.2-0.4-0.1-0.6c0.1-0.2,0.2-0.4,0.4-0.5c6.7-2.7,12.5-1.8,16.2,2.4c4.2,4.8,5,13.5,1.8,19
		C141,95.4,140.8,95.5,140.6,95.5z M135.2,92c1,0.2,2.6,0.7,5.1,1.9c2.5-5.1,1.7-12.6-2-16.8c-2.3-2.6-6.5-5.1-13.8-2.4
		c2.5,3.7,5.3,9.6,5.7,11.8c1.6,0.9,2.9,1.9,3.8,2.9C134.9,90.5,135.3,91.3,135.2,92z"/>
</g>
<g>
	<path class="st2" d="M114.6,68.4c3.1-0.4,6.2,2.4,8.7,6c3.9,5.4,6.5,12.5,6.2,12.5c-5-2.5-9.1-2.8-9.1-2.8
		C114.5,80.5,108.7,69.2,114.6,68.4z"/>
	<path class="st2" d="M129.5,87.6c-0.1,0-0.2,0-0.3-0.1c-4.8-2.4-8.8-2.8-8.9-2.8c-0.1,0-0.2,0-0.3-0.1c-4.9-2.9-9.3-10.4-8.5-14.4
		c0.3-1.5,1.4-2.5,3-2.7c0,0,0,0,0,0c3.8-0.5,7.2,3.2,9.4,6.3c3.4,4.7,6.7,12.3,6.3,13.2C130,87.4,129.8,87.6,129.5,87.6
		C129.5,87.6,129.5,87.6,129.5,87.6z M120.6,83.4c0.8,0.1,3.9,0.5,7.8,2.2c-0.8-2.2-2.9-7-5.7-10.9c-2.8-4-5.6-6-8-5.8
		c-1,0.1-1.6,0.6-1.8,1.6C112.2,73.9,116.4,80.8,120.6,83.4z"/>
</g>
<g>
	<path class="st2" d="M186.6,163.1c-4,2.8-21.6,5.7-31.7,5.5c-6.5-0.2-15.3-1.6-22.5-6.9c-4.1-3-7.6-7.3-9.8-13.4
		c-6.6-18.3-12-23.8-12-23.8c28-4.1,17.5-20.8,17.5-20.8c0.7-0.4,9.1-1,12.6-8.8C152.1,100.7,176.6,118.2,186.6,163.1z"/>
	<path class="st2" d="M156.2,169.2c-0.4,0-0.9,0-1.3,0c-6.3-0.2-15.4-1.5-22.9-7c-4.6-3.5-8-8.1-10-13.7
		c-6.5-18-11.8-23.4-11.8-23.5c-0.2-0.2-0.3-0.5-0.2-0.7c0.1-0.3,0.3-0.4,0.6-0.5c9.8-1.4,15.8-4.5,18-9.2c2.4-5.1-1-10.5-1-10.6
		c-0.1-0.2-0.1-0.4-0.1-0.6s0.2-0.3,0.3-0.4c0.2-0.1,0.5-0.2,1-0.3c2.3-0.5,8.5-1.9,11.3-8.2c0.1-0.2,0.2-0.3,0.4-0.4
		c0.2-0.1,0.4-0.1,0.6,0c6,3.1,15,9,23.8,19.7c10.6,12.9,18.2,29.4,22.6,49c0.1,0.3,0,0.6-0.3,0.7
		C182.8,166.6,166.1,169.2,156.2,169.2z M111.9,125c1.8,2.3,6.2,8.8,11.3,23c1.9,5.4,5.1,9.8,9.6,13.1c7.2,5.3,16,6.6,22.1,6.7
		c9.9,0.3,26.4-2.5,30.9-5.1c-3.5-15.2-14.6-51-44.9-66.9c-3.2,6.3-9.4,7.7-11.8,8.3c0.9,1.8,2.7,6.4,0.6,11.1
		C127.4,120.1,121.4,123.4,111.9,125z"/>
</g>
<g>
	<path class="st3" d="M237.6,235.8c-3.7,7.7-10.8-4.1-12.4-5.5c-2.8-2.6-11.2-7.2-22.3-7.4c-12.5-0.2-38-4.7-46.8-11.7
		c-8.8-6.9-17.6-23.2-19.5-22.4c-1.9,0.8-15.3,11.4-41.2,46.4c0,0-11.5,14.1-11.9,24.5c0,0.7,0,1.5,0.1,2.3c0.1,1.3,0,4.6-4.1,4.8
		c-5.1,0.3-15,0-14.7-1.9c0.5-3.2,3.6-0.7,8-6.7c4.5-6.1,4.3-38.7,12.3-60.9s18-38.7,18-38.7c8.4,2.7,18.1,3.9,29.2,3
		c7.2,5.3,16,6.7,22.5,6.9c10.1,0.3,27.7-2.7,31.7-5.5c0.2,0.8,0.4,1.7,0.5,2.5c9.7,47.1,33.9,51.7,44.8,51.2c3.5-0.2,6.5,2.4,7,5.8
		C239.5,226.7,239.5,231.8,237.6,235.8z"/>
	<path class="st2" d="M75.9,267.6c-4,0-10-0.3-11.3-1.7c-0.3-0.3-0.4-0.7-0.3-1.1c0.3-1.9,1.4-2.3,2.6-2.7c1.4-0.5,3.2-1.2,5.5-4.3
		c2-2.7,3.1-11.3,4.4-21.3c1.5-12.2,3.5-27.3,7.8-39.4c7.9-22,18-38.7,18.1-38.9c0.2-0.3,0.5-0.4,0.8-0.3c8.9,2.8,18.7,3.8,28.9,3
		c0.2,0,0.3,0,0.5,0.1c7.1,5.3,16,6.6,22.1,6.7c10.2,0.3,27.5-2.7,31.3-5.3c0.2-0.1,0.4-0.2,0.7-0.1c0.2,0.1,0.4,0.3,0.4,0.5
		c0.2,0.8,0.4,1.7,0.5,2.6c3.2,15.7,14,52,44.1,50.7c3.9-0.2,7.2,2.6,7.7,6.5c0.5,3.8,0.6,9.3-1.4,13.5h0c-0.9,1.8-2.1,2.8-3.5,3
		c-3.3,0.4-6.8-4.2-8.9-6.9c-0.5-0.6-0.9-1.2-1.1-1.4c-2.8-2.7-11.3-7-21.8-7.2c-13.5-0.3-38.5-5-47.2-11.8
		c-4.9-3.9-9.9-10.8-13.6-15.8c-2.1-2.9-4.5-6.2-5.3-6.5c-2.3,1.1-15.7,12.2-40.8,46.1c-0.1,0.2-11.3,14-11.7,24.1
		c0,0.7,0,1.5,0.1,2.2c0.1,1,0,2.7-1.1,4c-0.8,0.9-2,1.5-3.6,1.5C79.6,267.5,78,267.6,75.9,267.6z M65.6,265
		c0.8,0.9,7.7,1.5,13.9,1.1c1.2-0.1,2.1-0.4,2.6-1.1c0.8-0.9,0.8-2.3,0.8-3c-0.1-0.8-0.1-1.6-0.1-2.4c0.4-10.6,11.6-24.3,12-24.9
		c25.7-34.7,39.4-45.7,41.5-46.6c1.3-0.6,2.8,1.4,6.9,7c3.6,4.9,8.5,11.7,13.3,15.5c8.4,6.6,33.1,11.3,46.3,11.5
		c11.1,0.2,19.7,4.7,22.8,7.6c0.3,0.3,0.7,0.8,1.3,1.6c1.8,2.3,5.1,6.6,7.6,6.3c0.9-0.1,1.7-0.8,2.4-2.2c0,0,0,0,0,0
		c1.9-3.9,1.8-9.1,1.3-12.7c-0.4-3.1-3.1-5.4-6.2-5.2c-5.9,0.3-14.7-0.9-23.4-7.9c-10.5-8.5-17.9-23.2-22.2-43.9
		c-0.1-0.5-0.2-1.1-0.3-1.6c-5.6,2.9-22.1,5.3-31.3,5.1c-6.3-0.2-15.3-1.5-22.7-6.9c-10.1,0.8-19.8-0.1-28.7-2.9
		c-1.7,2.9-10.5,18.4-17.7,38.1c-4.3,11.9-6.2,27-7.8,39.1c-1.4,10.6-2.4,19-4.6,22c-2.5,3.4-4.7,4.2-6.1,4.7
		C66.2,263.8,65.8,264,65.6,265z M65.6,265C65.6,265,65.6,265,65.6,265C65.6,265,65.6,265,65.6,265z"/>
</g>
<g>
	<path class="st0" d="M132.4,161.6c-11.1,0.9-20.8-0.3-29.2-3c-3-1-5.9-2.1-8.6-3.4c-12.5-5.9-21.6-15-28.2-23.6
		C57,119,53.2,107.2,53.1,107l1.6-10.4c0,0,21.8,25.7,55.8,27.8c0,0,5.4,5.4,12,23.8C124.7,154.3,128.3,158.6,132.4,161.6z"/>
	<path class="st2" d="M125.2,162.6c-7.8,0-15.3-1.1-22.2-3.3c-2.9-0.9-5.8-2-8.7-3.4c-10.8-5.2-20.4-13.2-28.4-23.9
		c-8.7-11.6-12.7-22.6-13.4-24.7c0-0.1-0.1-0.3-0.1-0.4L54,96.5c0-0.3,0.2-0.5,0.5-0.6c0.3-0.1,0.5,0,0.7,0.2
		c0.2,0.3,22,25.5,55.4,27.6c0.2,0,0.3,0.1,0.5,0.2c0.2,0.2,5.6,5.8,12.2,24c2,5.4,5.2,9.8,9.6,13.1c0.2,0.2,0.3,0.5,0.3,0.8
		s-0.3,0.5-0.6,0.5C130,162.5,127.6,162.6,125.2,162.6z M53.8,107c0.9,2.5,4.8,13,13.2,24.2c7.9,10.5,17.3,18.4,27.9,23.4
		c2.9,1.4,5.7,2.4,8.5,3.4c8.4,2.7,17.5,3.7,27.1,3.1c-3.9-3.3-6.8-7.5-8.6-12.6c-5.8-16.1-10.7-22.2-11.7-23.3
		c-29.7-2-50.4-22-55-27L53.8,107z"/>
</g>
<g>
	<path class="st2" d="M51.1,110.2c-0.4,0-0.8-0.1-1.1-0.3l-3.7-1.8c-1.3-0.6-2.1-2.1-1.8-3.5L48,81.8c0.1-0.8,0.6-1.5,1.3-1.9
		c0.7-0.4,1.6-0.4,2.3,0l3.7,1.8c1.3,0.6,2,2,1.8,3.5c0,0,0,0,0,0L53.6,108c-0.1,0.8-0.6,1.5-1.3,1.9
		C51.9,110.1,51.5,110.2,51.1,110.2z M50.5,81c-0.2,0-0.4,0-0.5,0.1c-0.3,0.2-0.6,0.5-0.6,0.9l-3.6,22.7c-0.1,0.8,0.3,1.7,1.1,2.1
		l3.7,1.8c0.3,0.2,0.7,0.2,1.1,0c0.3-0.2,0.6-0.5,0.6-0.9L55.8,85c0.1-0.9-0.3-1.7-1-2l-3.7-1.8C50.9,81.1,50.7,81,50.5,81z
		 M56.5,85.1L56.5,85.1L56.5,85.1z"/>
</g>
<g>
	<path class="st0" d="M47.6,89l-0.8,5.3C46.7,94.3,42.4,88.5,47.6,89z"/>
	<path class="st2" d="M46.7,95c-0.3,0-0.6,0-1.6-1.8c-0.9-1.7-1.1-3-0.5-3.9c0.5-0.8,1.5-1.1,3-1c0.2,0,0.4,0.1,0.5,0.3
		c0.1,0.2,0.2,0.3,0.1,0.5l-0.8,5.3C47.4,94.7,47.1,95,46.7,95z M46.8,89.6c-0.4,0-0.8,0.1-0.9,0.4c-0.2,0.5,0.1,1.4,0.5,2.3
		L46.8,89.6z"/>
</g>
<g>
	<path class="st0" d="M94.6,155.3c-19.2,1.6-37-9-36.4-15.3c0.1-0.4,0.1-0.9,0-1.2c0-0.2,0-0.3,0-0.5c0-1.5-0.9-2.9-2.1-3.6
		c-1.8-1.1-4.3-0.7-5.3,1c-0.2,0.3-0.3,0.6-0.4,0.8c-0.2,0.5-0.4,1.1-0.4,1.7c0,1,0.4,1.9,1,2.7c0.3,0.5,0.5,0.8,0.5,0.8
		s-5.6-0.3-4-7.3c1.6-7,18.8-2.9,18.8-2.9C72.9,140.3,82.1,149.3,94.6,155.3z"/>
	<path class="st2" d="M90.6,156.1c-13,0-25.1-5.2-30.4-10.6c-1.9-2-2.9-3.9-2.7-5.6c0-0.4,0.1-0.7,0-1.1c0-0.1,0-0.1,0-0.2
		c0-0.1,0-0.2,0-0.3c0-1.2-0.7-2.4-1.7-3c-0.8-0.5-1.8-0.7-2.6-0.5c-0.8,0.2-1.4,0.6-1.8,1.3c-0.1,0.2-0.2,0.5-0.3,0.7
		c0,0,0,0.1,0,0.1c-0.2,0.4-0.3,0.9-0.3,1.4c0,0.8,0.3,1.6,0.8,2.2c0,0,0.1,0.1,0.1,0.1c0.3,0.5,0.5,0.7,0.5,0.8
		c0.2,0.2,0.2,0.5,0.1,0.8c-0.1,0.2-0.4,0.4-0.7,0.4c-0.1,0-2.4-0.2-3.9-2.1c-1.1-1.5-1.4-3.5-0.8-6.1c0.3-1.3,1.1-2.3,2.3-3.1
		c5.1-3.2,16.9-0.4,17.3-0.3c0.2,0,0.3,0.1,0.4,0.3c8,10.5,17.3,18.4,27.9,23.4c0.3,0.1,0.4,0.4,0.4,0.8c-0.1,0.3-0.3,0.5-0.6,0.6
		C93.3,156.1,92,156.1,90.6,156.1z M59,138.8c0,0.4,0,0.9,0,1.3c-0.1,1.2,0.7,2.8,2.3,4.5c5.3,5.4,17.6,10.5,30.7,10.1
		c-9.8-5.1-18.5-12.7-25.9-22.4c-1.7-0.4-11.8-2.4-16,0.2c-0.9,0.6-1.4,1.3-1.7,2.2c-0.5,2.1-0.3,3.8,0.5,4.9c0.3,0.4,0.7,0.8,1.1,1
		c-0.4-0.7-0.6-1.5-0.6-2.3c0-0.7,0.1-1.4,0.4-2c0.1-0.3,0.2-0.6,0.4-0.9c0.6-1,1.5-1.6,2.6-1.9c1.2-0.3,2.6-0.1,3.7,0.6
		c1.5,0.8,2.4,2.4,2.4,4.2C59,138.5,59,138.6,59,138.8z"/>
</g>
<g>
	<path class="st2" d="M58.3,139.4c-0.4,0-0.7-0.3-0.7-0.7c-0.1-2-1-3-1.8-3.5c-0.3-0.2-0.4-0.6-0.2-1c0.2-0.3,0.6-0.4,1-0.2
		c1.5,0.9,2.3,2.6,2.4,4.6C59,139.1,58.7,139.4,58.3,139.4C58.3,139.4,58.3,139.4,58.3,139.4z"/>
</g>
<g>
	<path class="st2" d="M51.1,141.7c-0.2,0-0.5-0.1-0.6-0.4c-0.5-1-1.3-2.9-0.7-4.9c0.1-0.4,0.5-0.6,0.9-0.5c0.4,0.1,0.6,0.5,0.5,0.9
		c-0.5,1.5,0.2,3,0.6,3.8c0.2,0.3,0.1,0.8-0.3,1C51.3,141.6,51.2,141.7,51.1,141.7z"/>
</g>
<g>
	<path class="st2" d="M25.5,255c-0.2,0-0.4,0-0.6-0.1c-1.3-0.3-2.2-1.7-1.8-3l27.6-110.3c0.3-1.3,1.7-2.2,3-1.8
		c1.3,0.3,2.2,1.7,1.8,3L27.9,253.1C27.6,254.2,26.6,255,25.5,255z"/>
</g>
<g>
	<path class="st2" d="M124,270.2H35.9c-1.4,0-2.5-1.1-2.5-2.5s1.1-2.5,2.5-2.5H124c1.4,0,2.5,1.1,2.5,2.5S125.4,270.2,124,270.2z"/>
</g>
<g>
	<path class="st2" d="M19.7,286.5c-10.4,0-18.8-8.4-18.8-18.8c0-10.4,8.4-18.8,18.8-18.8c10.4,0,18.8,8.4,18.8,18.8
		C38.4,278.1,30,286.5,19.7,286.5z M19.7,253.9c-7.6,0-13.8,6.2-13.8,13.8s6.2,13.8,13.8,13.8s13.8-6.2,13.8-13.8
		S27.3,253.9,19.7,253.9z"/>
</g>
<g>
	<path class="st2" d="M149.5,286.5c-10.4,0-18.8-8.4-18.8-18.8c0-10.4,8.4-18.8,18.8-18.8s18.8,8.4,18.8,18.8
		C168.3,278.1,159.9,286.5,149.5,286.5z M149.5,253.9c-7.6,0-13.8,6.2-13.8,13.8s6.2,13.8,13.8,13.8c7.6,0,13.8-6.2,13.8-13.8
		S157.1,253.9,149.5,253.9z"/>
</g>
<g>
	<path class="st2" d="M124,270c-1.3,0-2.5-1.1-2.5-2.4c-0.2-7.6,2.3-14.3,7.3-19.5c5.3-5.4,12.8-8.5,20.7-8.5
		c7.8,0,15.2,3.4,20.4,9.4c0.9,1,0.8,2.6-0.3,3.5s-2.6,0.8-3.5-0.3c-4.2-4.9-10.2-7.7-16.6-7.7c-6.5,0-12.8,2.6-17.1,7
		c-4.1,4.2-6.1,9.7-5.9,15.9C126.5,268.8,125.5,270,124,270C124.1,270,124,270,124,270z"/>
</g>
<g>
	<path class="st2" d="M54.2,144.9c-0.6,0-1.3-0.1-1.9-0.3c-1.2-0.3-2.3-1-3.1-2c-1-1.2-1.6-2.7-1.6-4.3c0-0.9,0.2-1.9,0.6-2.7
		c1.1-2.4,3.4-3.9,6-3.9c1.1,0,2.2,0.3,3.2,0.8c2.1,1.2,3.4,3.4,3.4,5.8c0,0.2,0,0.5,0,0.8C60.4,142.4,57.6,144.9,54.2,144.9z
		 M54.2,136.7c-0.6,0-1.2,0.4-1.5,0.9c-0.1,0.2-0.2,0.4-0.2,0.7c0,0.4,0.1,0.8,0.4,1c0.2,0.2,0.5,0.4,0.7,0.5
		c0.2,0.1,0.3,0.1,0.5,0.1c0.8,0,1.5-0.6,1.6-1.4c0-0.1,0-0.1,0-0.2l0,0c0-0.6-0.3-1.1-0.8-1.4C54.8,136.7,54.5,136.7,54.2,136.7z"
		/>
</g>
<g>
	<path class="st2" d="M25.5,253.2c-0.2,0-0.3-0.1-0.4-0.2c-0.3-0.2-0.3-0.7-0.1-1c0.1-0.2,12.8-16.1,12.3-33.1
		c-0.1-4.4-0.5-9.5-0.9-14.8c-0.7-8.8-1.5-18.8-1.1-27.7c1-19.5,17.2-34.6,17.4-34.7c0.3-0.3,0.7-0.2,1,0s0.2,0.7,0,1
		c-0.2,0.1-16,14.8-16.9,33.8c-0.4,8.9,0.4,18.8,1.1,27.6c0.4,5.3,0.8,10.4,0.9,14.9c0.5,17.6-12.5,33.9-12.6,34
		C25.9,253.1,25.7,253.2,25.5,253.2z"/>
</g>
</svg>
