<?xml version="1.0" encoding="utf-8"?>
<!-- Generator: Adobe Illustrator 23.0.3, SVG Export Plug-In . SVG Version: 6.00 Build 0)  -->
<svg version="1.1" id="Слой_1" xmlns="http://www.w3.org/2000/svg" xmlns:xlink="http://www.w3.org/1999/xlink" x="0px" y="0px"
	 viewBox="0 0 361 289" style="enable-background:new 0 0 361 289;" xml:space="preserve">
<style type="text/css">
	.st0{fill:#F8CA06;}
	.st1{opacity:0.1;enable-background:new    ;}
	.st2{fill:#181C19;}
	.st3{fill-rule:evenodd;clip-rule:evenodd;fill:#181C19;}
	.st4{fill-rule:evenodd;clip-rule:evenodd;fill:#FFFFFF;}
	.st5{fill:#FFFFFF;}
</style>
<g>
	<path class="st0" d="M186.5,284L186.5,284c52.2,0,94.5-42.3,94.5-94.5v-95C281,42.3,238.7,0,186.5,0l0,0C134.3,0,92,42.3,92,94.5
		v95C92,241.7,134.3,284,186.5,284z"/>
</g>
<g>
	<ellipse class="st0" cx="413.5" cy="173" rx="105.5" ry="105"/>
</g>
<g class="st1">
	<ellipse class="st2" cx="313.1" cy="285.9" rx="19.7" ry="2.1"/>
</g>
<g>
	<path class="st3" d="M319.9,183.6c-0.9-1.1-2.1-1.8-3.3-1.4c-1.5,0.5-2.6,1.7-3.6,3.3c-0.9,1.7-1.7,3.8-2.3,6.2
		c-1.2,4.9-1.8,11.1-2,17.1c-0.1,4,0,8,0.2,11.5c-0.5-0.8-1-1.6-1.4-2.3c0,0,0,0,0,0c-1.9-3-4.2-6.3-6.5-9.1
		c-2.3-2.8-4.6-5.3-6.6-6.4c-1-0.6-2-1-3-0.7c-1,0.2-1.7,1.1-2,2.3c-0.4,1.2-0.5,2.8-0.3,5c0.1,2.2,0.5,5,1.2,8.5
		c1.2,6.2,3,11.6,4.9,16.1c-0.1-0.1-0.2-0.2-0.3-0.3c-2-2-4.7-3.9-7.4-5.2c-2.7-1.3-5.5-2.2-7.7-2.2c-1.1,0-2.1,0.2-2.9,0.7
		c-0.8,0.5-1.3,1.4-1.4,2.5c-0.1,1.1,0.2,2.4,0.9,3.9c0.7,1.5,1.8,3.4,3.4,5.5c6.3,8.6,13.4,15.4,17.6,19.3c0.1,0.1,0.2,0.2,0.3,0.3
		c0.6,0.6,1.2,1.1,1.6,1.6c-0.3-0.1-0.6-0.3-0.9-0.5c-4.9-2.5-9-4.2-12.2-5.3c-3.2-1.1-5.7-1.5-7.5-1.4c-0.9,0-1.7,0.2-2.3,0.6
		c-0.6,0.4-1,0.9-1.2,1.6c-0.3,1.3,0.2,2.9,1.1,4.6c1.9,3.5,6.1,8,11.8,12.6c5.7,4.7,12.9,9.5,21,13.5c0.3,0.2,0.8,0,0.9-0.3
		c0.2-0.3,0-0.8-0.3-0.9c-8-4-15.1-8.7-20.7-13.3c-5.6-4.6-9.7-9-11.5-12.2c-0.9-1.7-1.2-2.8-1-3.6c0.1-0.3,0.3-0.6,0.6-0.8
		c0.3-0.2,0.8-0.4,1.6-0.4c1.5-0.1,3.8,0.3,6.9,1.4c3.1,1.1,7.1,2.7,12,5.2c1.3,0.7,2.3,1.1,2.9,1.3c0.2,0.1,0.3,0.1,0.4,0.1
		c0.1,0,0.3,0.1,0.4,0c0.2,0,0.5-0.1,0.7-0.5c0.1-0.3,0-0.6,0-0.7c-0.1-0.2-0.3-0.5-0.5-0.7c-0.2-0.2-0.5-0.5-0.8-0.8
		c-0.6-0.6-1.4-1.3-2.3-2.2c-0.1-0.1-0.2-0.2-0.3-0.3c-4.2-4-11.3-10.7-17.5-19.2c-1.5-2.1-2.6-3.8-3.2-5.3
		c-0.6-1.4-0.9-2.5-0.8-3.2c0.1-0.7,0.3-1.1,0.8-1.4c0.5-0.3,1.2-0.5,2.1-0.5c1.9,0,4.5,0.8,7.1,2.1c2.6,1.3,5.2,3,7,4.9
		c1.1,1.1,2.1,2.2,3,3.2c2.9,6,5.9,10,7.8,11.7c0.4,0.4,0.8,0.7,1.2,0.9c0.2,0.1,0.4,0.2,0.6,0.2c0.2,0,0.6,0,0.8-0.3
		c0.2-0.3,0.3-0.6,0.2-0.8c0-0.2-0.1-0.4-0.1-0.6c-0.1-0.4-0.4-0.9-0.8-1.6c-1.2-2.1-3.9-5.5-8.5-10.5c-2.5-5.1-4.9-11.6-6.5-19.5
		c-0.7-3.4-1.1-6.2-1.2-8.3c-0.1-2.1,0-3.6,0.3-4.5c0.3-0.9,0.7-1.2,1-1.3c0.4-0.1,1,0,1.9,0.6c1.7,1,4,3.3,6.2,6.1
		c2.3,2.8,4.5,6,6.4,9c0.4,0.8,0.9,1.6,1.5,2.4c0.4,0.7,0.9,1.5,1.3,2.2c0.1,0.7,0.1,1.3,0.2,1.9c0.3,2.2,0.6,4.1,1,5.5
		c0.2,0.7,0.4,1.2,0.7,1.7c0.2,0.4,0.7,0.9,1.3,0.9c0.6,0,1.2-0.2,1.5-0.7c0.3-0.5,0.4-1,0.3-1.6c-0.1-1.1-0.7-2.5-1.4-3.9
		c-0.6-1.3-1.5-2.7-2.3-4.1c-0.4-4.1-0.5-9-0.4-14.1c0.2-6,0.8-12.1,1.9-16.8c0.6-2.4,1.3-4.4,2.1-5.9c0.9-1.5,1.8-2.4,2.8-2.7
		c0.4-0.1,1,0,1.9,1c0.8,0.9,1.7,2.4,2.5,4.4c1.7,3.9,3.2,9.4,4.2,15.1c1,5.8,1.4,11.8,0.9,16.8c0,0.2,0,0.4-0.1,0.6
		c-2.1,2.8-3.8,5.6-4.9,7.5c-0.3,0.6-0.5,1.1-0.7,1.5c-0.2,0.4-0.3,0.9-0.3,1.2c0,0.2,0,0.4,0.2,0.7c0.2,0.3,0.5,0.4,0.7,0.4
		c0.2,0,0.5,0,0.6-0.1c0.2-0.1,0.4-0.2,0.6-0.3c1.6-1,2.7-2.5,3.5-4.5c0.7-1.7,1.2-3.7,1.5-5.9c0.3-0.3,0.5-0.7,0.8-1.1
		c2.5-3.3,5.3-6.5,7.8-8.8c1.2-1.1,2.4-2,3.3-2.4c1-0.5,1.5-0.4,1.8-0.3c0.2,0.1,0.5,0.5,0.7,1.2c0.2,0.7,0.4,1.7,0.4,2.8
		c0.1,2.3-0.3,5.5-1.3,9.1c-0.7,2.6-1.7,5.3-3,8.2c-2.6,1.9-5,4.5-7.1,7.2c-2.5,3.1-4.4,6.2-5.3,8.1c-0.2,0.5-0.4,0.9-0.5,1.3
		c0,0.2-0.1,0.4-0.1,0.5c0,0.2,0,0.4,0.2,0.7c0.2,0.3,0.6,0.3,0.8,0.3c0.2,0,0.4-0.1,0.6-0.2c0.3-0.2,0.7-0.5,1.1-1
		c5.2-5.2,8.8-10.7,11.3-15.9c0.3-0.3,0.7-0.5,1-0.7c2.9-1.8,5.6-2.3,7.7-0.8c0.5,0.3,1,1.1,1,2.4c0.1,1.4-0.3,3.4-1.5,6.1
		c-2.3,5.4-7.7,13.5-18.8,24.9c-0.3,0.3-0.3,0.7,0,1c0.2,0.3,0.7,0.3,0.9,0.1c3.5-2.7,7.8-5,11.5-6.4c1.8-0.7,3.5-1.1,4.8-1.3
		c0.7-0.1,1.2-0.1,1.6,0c0.4,0.1,0.7,0.2,0.8,0.3c0.2,0.2,0.4,0.6-0.2,1.9c-0.6,1.2-1.8,2.9-3.9,5.1c-4.2,4.4-11.9,10.9-24.4,19.9
		c-0.3,0.2-0.4,0.7-0.2,1c0.2,0.3,0.7,0.4,1,0.2c12.5-9,20.2-15.6,24.6-20.1c2.2-2.3,3.5-4.1,4.2-5.5c0.7-1.4,0.8-2.7-0.2-3.5
		c-0.4-0.4-1-0.6-1.6-0.7c-0.6-0.1-1.3-0.1-2,0c-1.5,0.2-3.2,0.7-5.1,1.4c-2.2,0.8-4.5,1.9-6.9,3.3c8.4-9.3,12.9-16.1,15-21
		c1.2-2.8,1.7-5,1.6-6.7c-0.1-1.7-0.7-2.9-1.6-3.5c-2.6-1.8-5.7-1.2-8.5,0.3c0.9-2.2,1.7-4.4,2.2-6.4c1-3.7,1.4-7,1.3-9.5
		c0-1.3-0.2-2.3-0.4-3.2c-0.3-0.8-0.6-1.6-1.2-2c-0.9-0.6-2.1-0.3-3.2,0.2c-1.1,0.5-2.3,1.5-3.6,2.6c-2.4,2.1-5,5.2-7.4,8.2
		c0.3-4.8-0.1-10.3-1-15.5c-1-5.8-2.5-11.4-4.3-15.5C321.8,186.4,320.9,184.7,319.9,183.6z M336.5,234c-2.3,4.2-5.4,8.4-9.4,12.5
		c0.9-1.8,2.7-4.7,5-7.7C333.4,237.1,334.9,235.4,336.5,234z M326.6,247.8C326.6,247.9,326.6,247.9,326.6,247.8L326.6,247.8z
		 M325.8,224.6c-0.2,1-0.5,1.9-0.9,2.7c-0.7,1.7-1.7,3-2.9,3.8c0,0,0-0.1,0-0.1c0.1-0.4,0.4-0.8,0.6-1.4
		C323.5,228.3,324.5,226.5,325.8,224.6z M322,231.7C322,231.7,322,231.7,322,231.7C322,231.7,322,231.7,322,231.7z M311,226.6
		c0.2,0.4,0.4,0.8,0.6,1.2c0.7,1.5,1.2,2.7,1.3,3.5c0,0.4,0,0.6-0.1,0.6l0,0c0,0-0.1,0.1-0.3,0.1c0,0-0.1-0.1-0.2-0.2
		c-0.2-0.3-0.4-0.7-0.5-1.3C311.5,229.5,311.2,228.2,311,226.6z M312.5,232C312.5,232,312.5,232,312.5,232S312.5,232,312.5,232z
		 M301.2,242.2c2.1,2.5,3.5,4.4,4.3,5.7c0,0,0,0,0,0C304.4,246.8,302.9,244.9,301.2,242.2z M306.2,249.5
		C306.2,249.5,306.2,249.5,306.2,249.5L306.2,249.5z"/>
</g>
<g>
	<path class="st4" d="M246.1,91.3c1.6,1.5,2.6,3.3,2.9,4.8c0,0.3,0.2,0.5,0.5,0.6c0.3,0.1,0.6,0,0.7-0.2c3.1-3.9,6.1-6.1,8.9-7
		c2.8-0.9,5.4-0.7,7.5,0.4c4.4,2.2,7.3,7.6,6.8,13.1c0,0.4,0.3,0.7,0.6,0.8c0.4,0,0.7-0.3,0.8-0.6c0.5-6-2.6-12-7.6-14.5
		c-2.5-1.2-5.5-1.5-8.6-0.5c-2.8,1-5.8,3-8.7,6.4c-0.5-1.5-1.6-3-2.9-4.2c-1.8-1.7-4.2-3.1-6.8-3.8c-2.7-0.7-5.7-0.8-8.7,0.3
		c-2.7,1-5.4,2.9-7.8,6c-4.2-6-18.5-10.7-31.6,4.8c-0.2,0.3-0.2,0.7,0.1,1c0.3,0.2,0.7,0.2,1-0.1c13.2-15.7,27.1-9.4,29.8-4.1
		c0.1,0.2,0.3,0.4,0.6,0.4c0.2,0,0.5-0.1,0.6-0.3c2.4-3.4,5.1-5.4,7.8-6.3c2.7-1,5.4-0.9,7.8-0.3C242.3,88.5,244.5,89.8,246.1,91.3z
		"/>
</g>
<g>
	<path class="st4" d="M324.2,125.7c0.8-1.9,2.3-3.6,4.3-5.1c2.5-1.8,5.6-3.1,9-3.3c3.3-0.2,6.8,0.6,9.9,3.1c3,2.5,5.5,6.5,6.9,12.6
		c0.1,0.4-0.1,0.8-0.5,0.8c-0.4,0.1-0.8-0.1-0.8-0.5c-1.4-5.9-3.7-9.6-6.4-11.9c-2.7-2.2-5.8-3-8.9-2.8c-3,0.2-6,1.4-8.2,3
		c-2.3,1.7-3.8,3.7-4.1,5.6c0,0.3-0.3,0.5-0.5,0.6c-0.3,0.1-0.6-0.1-0.7-0.3c-2.8-4.2-7.4-5-11.5-3.7c-4.1,1.4-7.5,4.9-7.7,9.3
		c0,0.4-0.4,0.7-0.7,0.7c-0.4,0-0.7-0.4-0.7-0.7c0.3-5.1,4.1-9.1,8.7-10.6C316.1,121.2,321,121.9,324.2,125.7z"/>
</g>
<g>
	<path class="st4" d="M92.9,50.4c-5.3,2.3-9.2,8.1-10.5,12.9c-0.1,0.4-0.5,0.6-0.9,0.5c-0.4-0.1-0.6-0.5-0.5-0.9
		c1.4-5.1,5.5-11.3,11.3-13.8c2.9-1.3,6.3-1.6,9.8-0.3c3.4,1.2,6.9,3.7,10.4,8c1.8-2.8,5.8-4.6,10-3.9c4.7,0.9,9.5,5,11.8,14.5
		c0.1,0.4-0.1,0.8-0.5,0.8c-0.4,0.1-0.8-0.1-0.8-0.5c-2.2-9.1-6.7-12.7-10.7-13.4c-4.1-0.8-7.9,1.4-9,4c-0.1,0.2-0.3,0.4-0.6,0.4
		c-0.2,0-0.5-0.1-0.6-0.3c-3.7-4.7-7.2-7.3-10.5-8.4C98.4,49,95.5,49.3,92.9,50.4z"/>
</g>
<g class="st1">
	<ellipse class="st2" cx="142.5" cy="285" rx="29.5" ry="3"/>
</g>
<g class="st1">
	<ellipse class="st2" cx="18.5" cy="285" rx="18.5" ry="2"/>
</g>
<g>
	<path class="st0" d="M76.2,145c0,0-6.7,8.8-20.4,7.2c-13.7-1.6-16.7,7.5-16.7,7.5l-17.9-15.9L38,131.8l13.3-9.6L76.2,145z"/>
	<path class="st2" d="M39.1,160.4c-0.2,0-0.3-0.1-0.5-0.2l-17.9-15.9c-0.2-0.1-0.2-0.3-0.2-0.6s0.1-0.4,0.3-0.5l30.1-21.6
		c0.3-0.2,0.6-0.2,0.9,0.1l24.9,22.8c0.3,0.2,0.3,0.7,0.1,0.9c-0.3,0.4-7.1,9.1-21,7.5c-12.9-1.5-16,6.9-16,7
		c-0.1,0.2-0.3,0.4-0.5,0.5C39.2,160.4,39.1,160.4,39.1,160.4z M22.3,143.9l16.5,14.7c1.3-2.4,5.7-8.4,17.1-7
		c11.2,1.3,17.7-4.7,19.3-6.4l-24-22L22.3,143.9z"/>
</g>
<g>
	<path class="st5" d="M85.4,174.7l-18.8,9.4l-27.6-24.5c0,0,3.1-9.1,16.7-7.5c13.7,1.6,20.4-7.2,20.4-7.2l8.9,8.1
		C76.1,168.4,85.4,174.7,85.4,174.7z"/>
	<path class="st2" d="M66.6,184.9c-0.2,0-0.3-0.1-0.5-0.2l-27.6-24.5c-0.2-0.2-0.3-0.5-0.2-0.7c0-0.1,3.4-9.6,17.5-8
		c13.1,1.5,19.7-6.8,19.7-6.9c0.1-0.2,0.3-0.3,0.5-0.3c0.2,0,0.4,0,0.5,0.2l8.9,8.1c0.2,0.2,0.3,0.6,0.1,0.9
		c-8.5,14.5,0.1,20.6,0.1,20.6c0.2,0.1,0.3,0.4,0.3,0.6c0,0.2-0.2,0.5-0.4,0.6L67,184.8C66.9,184.8,66.7,184.9,66.6,184.9z
		 M39.9,159.5l26.8,23.8l17.4-8.8c-2.1-2.1-7-8.8,0-21.3l-7.9-7.3c-1.8,2-8.5,8.3-20.5,6.9C44.5,151.6,40.7,157.8,39.9,159.5z"/>
</g>
<g>
	<path class="st2" d="M100.4,167.2l-15,7.5c0,0-9.3-6.3-0.4-21.6L100.4,167.2z"/>
	<path class="st2" d="M85.4,175.4c-0.1,0-0.3,0-0.4-0.1c-0.1-0.1-9.7-6.9-0.6-22.5c0.1-0.2,0.3-0.3,0.5-0.3c0.2,0,0.4,0,0.6,0.2
		l15.3,14.1c0.2,0.2,0.3,0.4,0.2,0.6c0,0.2-0.2,0.4-0.4,0.5l-15,7.5C85.6,175.4,85.5,175.4,85.4,175.4z M85.2,154.3
		c-7,12.5-1.2,18.4,0.3,19.6l13.7-6.9L85.2,154.3z"/>
</g>
<g>
	<path class="st2" d="M38,131.8l-16.8,12.1l1.3-26.1L38,131.8z"/>
	<path class="st2" d="M21.2,144.6c-0.1,0-0.2,0-0.3-0.1c-0.2-0.1-0.4-0.4-0.4-0.6l1.3-26.1c0-0.3,0.2-0.5,0.4-0.6
		c0.2-0.1,0.5-0.1,0.7,0.1l15.5,14.1c0.2,0.1,0.2,0.3,0.2,0.6c0,0.2-0.1,0.4-0.3,0.5l-16.8,12.1C21.5,144.5,21.4,144.6,21.2,144.6z
		 M23.2,119.2L22,142.4l14.9-10.7L23.2,119.2z"/>
</g>
<g>
	<path class="st5" d="M140.2,137.6c-2.9-1.1-6.2-2.2-6.3-2.3c0.4-0.3,0.6-0.6,0.4-1.1c-0.1-0.5-0.7-1-1.8-1.8
		c-1.4-0.9-3.2-1.4-5-1.8c-1.1-2.2-7-8.5-10.5-11.4c10.3-9.8,22.2-1.1,23.3,9.3C140.5,131.5,140.9,134.6,140.2,137.6z"/>
	<path class="st2" d="M140.2,138.3c-0.1,0-0.2,0-0.2,0c-1.5-0.6-3.2-1.2-4.5-1.6c-2-0.7-2-0.7-2.1-0.8c-0.1-0.1-0.2-0.4-0.2-0.6
		c0-0.2,0.1-0.4,0.3-0.5c0.1-0.1,0.2-0.2,0.2-0.2c0,0,0-0.1-0.1-0.1c0-0.1-0.2-0.6-1.5-1.4c-1.2-0.7-2.8-1.3-4.8-1.7
		c-0.2,0-0.4-0.2-0.5-0.4c-1-2-6.7-8.2-10.4-11.2c-0.2-0.1-0.2-0.3-0.3-0.5c0-0.2,0.1-0.4,0.2-0.5c4.4-4.2,9.6-5.5,14.5-3.7
		c5.4,2,9.4,7.4,10,13.4l0,0.2c0.3,3,0.7,6.1,0,9.1c0,0.2-0.2,0.4-0.4,0.5C140.4,138.2,140.3,138.3,140.2,138.3z M134.9,135
		c0.3,0.1,0.6,0.2,1,0.3c1,0.4,2.4,0.8,3.7,1.3c0.4-2.6,0.1-5.3-0.2-7.9l0-0.2c-0.5-5.4-4.3-10.4-9.1-12.2
		c-4.2-1.6-8.6-0.5-12.4,2.8c3.4,2.9,8.5,8.4,9.9,10.8c2,0.5,3.6,1.1,4.9,1.9c1.2,0.8,1.9,1.4,2.1,2.1
		C135,134.3,135,134.7,134.9,135z M133.8,135.3L133.8,135.3L133.8,135.3z"/>
</g>
<g>
	<path class="st2" d="M133.9,151.6C133.9,151.6,133.8,151.6,133.9,151.6c-0.3,0-0.5-0.2-0.6-0.4c-1.6-3.4-5-5.1-6.1-5.6
		c-0.8-0.4-2-0.6-3.2-0.8c-2.4-0.4-5.1-0.9-6.8-2.8c-0.4-0.5-0.8-1.1-1.1-1.6c-0.3-0.6-0.7-1.2-1.1-1.6l-0.2-0.2
		c-0.7-0.7-1.1-1.1-2.1-1.7c-0.2-0.1-0.4-0.3-0.4-0.6c0-0.2,0.1-0.5,0.3-0.6c0,0,3-2,3.7-5.2c0.1-0.3,0.3-0.5,0.5-0.5
		c0.2,0,4.6-1,10.8,0.1c2,0.4,3.9,1,5.3,1.9c1.1,0.7,1.8,1.4,2,2c0.1,0.4,0.1,0.7,0.1,1c0.1,0,0.3,0.1,0.4,0.1c1.3,0.4,3.1,1,5,1.8
		c0.3,0.1,0.5,0.5,0.4,0.8c-1.6,6.8-4.9,11.5-6.1,13.1c-0.2,0.2-0.3,0.4-0.3,0.5C134.3,151.5,134.1,151.6,133.9,151.6z M114.2,136.2
		c0.6,0.4,1,0.8,1.5,1.4l0.2,0.2c0.5,0.5,0.9,1.2,1.3,1.8c0.3,0.5,0.6,1.1,0.9,1.4c1.4,1.6,3.8,2,6,2.3c1.4,0.2,2.6,0.4,3.6,0.9
		c1.1,0.6,4.3,2.2,6.2,5.3c1.2-1.7,4-5.9,5.4-11.6c-1.6-0.7-3.3-1.2-4.4-1.6c-1.5-0.5-1.6-0.5-1.7-0.8c-0.2-0.3-0.1-0.7,0.3-0.9
		c0.2-0.1,0.2-0.1,0.1-0.2c-0.1-0.1-0.3-0.6-1.5-1.3c-1.2-0.8-2.9-1.4-4.7-1.7c-4.9-0.9-8.6-0.4-9.8-0.2
		C116.9,133.6,115.3,135.3,114.2,136.2z M133.9,135.3L133.9,135.3L133.9,135.3z"/>
</g>
<g>
	<path class="st2" d="M129.2,137c-0.4,0-0.7-0.3-0.7-0.7c0-0.4,0.3-0.7,0.7-0.7c1.2,0,3.5-0.3,4.2-0.8c0.3-0.2,0.8-0.1,1,0.2
		c0.2,0.3,0.1,0.8-0.2,1C132.9,136.8,129.6,137,129.2,137C129.2,137,129.2,137,129.2,137z"/>
</g>
<g>
	<path class="st2" d="M127.4,130.6c-6.1-1-10.5-0.1-10.5-0.1c-7.4-1.9-17.1-12.1-11.1-14.9c3.2-1.4,7.3,0.6,11.1,3.6
		c0,0,0,0,0.1,0.1c1.8,1.4,3.4,2.9,4.9,4.4c0.1,0.1,0.2,0.2,0.3,0.3c0.1,0.1,0.1,0.2,0.2,0.2c1.6,1.6,2.8,3.2,3.7,4.3
		c0,0,0.1,0.1,0.1,0.2C127,129.9,127.5,130.6,127.4,130.6z"/>
	<path class="st2" d="M127.4,131.3c0,0-0.1,0-0.1,0c-5.8-1-10.2-0.1-10.3-0.1c-0.1,0-0.2,0-0.3,0c-6-1.5-13.1-8-13.5-12.4
		c-0.2-1.7,0.7-3,2.3-3.7c3-1.3,7.1,0,11.9,3.7c0,0,0,0,0,0c0,0,0,0,0.1,0c1.7,1.3,3.3,2.8,5,4.5c0.1,0.1,0.2,0.2,0.3,0.4l0.1,0.1
		c0,0,0.1,0.1,0.1,0.1c1.7,1.8,3,3.4,3.8,4.4c0,0,0,0,0.1,0.1c0,0,0.1,0.1,0.1,0.1c1.4,1.9,1.3,2.1,1.2,2.5
		c-0.1,0.2-0.3,0.4-0.5,0.5C127.5,131.3,127.4,131.3,127.4,131.3z M108,115.9c-0.7,0-1.3,0.1-2,0.4c-1.1,0.5-1.5,1.2-1.4,2.3
		c0.3,3.7,7,9.7,12.3,11.2c0.8-0.1,4.4-0.7,9.2-0.1c-0.1-0.1-0.2-0.3-0.3-0.5c0,0,0-0.1-0.1-0.1c0,0-0.1-0.1-0.1-0.1
		c-0.8-1-2-2.5-3.6-4.2c-0.1-0.1-0.1-0.1-0.2-0.2c0,0-0.1-0.1-0.1-0.1c-0.1-0.1-0.1-0.2-0.2-0.3c-1.6-1.6-3.2-3.1-4.8-4.4
		c-0.1-0.1-0.1-0.1-0.2-0.2C114,117.9,110.8,115.9,108,115.9z M117.3,118.7C117.3,118.7,117.3,118.7,117.3,118.7
		C117.3,118.7,117.3,118.7,117.3,118.7z"/>
</g>
<g>
	<path class="st5" d="M198.2,247.9c-6.3,11.6-14.3,18.4-16,19.8c-3.1,2.6-28.9,24.9-57.7,13.1c-5.6-2.3-10.6-5.7-15-9.9
		c-5.5-5.4-16.4-16.2-22.6-23.8c-4.8-6-10.2-7-14.7-6.1c-3,0.6-5.8,1.9-8.2,3.7c-3.3,2.4-10,7.5-12.8,10.4c-3,3.2-21,20.8-26.7,26.3
		c-1.8,1.7-4.2,2.7-6.6,2.6c-1.5,0-3.2-0.5-4.4-1.8c-3-3.2-11-9.6-7.6-11.8c0.8-0.6,1.9-0.5,2.8,0.1c2.8,1.9,11.1,6.3,15.7-4.9
		c5.6-13.5,25.1-65,54.2-66.8c0,0,45.5,52.8,64.8,28.6c0,0,18.4,34.4,53.3,21.3C197.2,248.4,197.7,248.2,198.2,247.9z"/>
	<path class="st2" d="M141.8,284.9c-5.6,0-11.5-1-17.5-3.5c-5.5-2.3-10.7-5.7-15.2-10c-5.8-5.7-16.5-16.3-22.7-23.9
		c-3.9-4.9-8.7-6.9-14.1-5.8c-2.8,0.5-5.5,1.8-7.9,3.5c-2.9,2.1-9.9,7.4-12.7,10.3c-2.9,3.1-20.3,20.1-26.7,26.3
		c-2,1.9-4.5,2.9-7.1,2.8c-2-0.1-3.7-0.8-4.9-2.1c-0.6-0.6-1.3-1.3-2.1-2.1c-3.8-3.7-6.7-6.7-6.5-9c0.1-0.7,0.5-1.3,1.1-1.8
		c1.1-0.7,2.5-0.7,3.6,0.1c1.8,1.2,5.3,3.1,8.7,2c2.5-0.8,4.5-3,6-6.6l0.8-2c3.1-7.7,9.7-23.8,18.7-37.9
		c11.3-17.4,23.1-26.6,35.2-27.3c0.2,0,0.4,0.1,0.6,0.2c0.3,0.4,30.5,35.1,51.6,34.7c4.9-0.1,9-2.1,12.2-6.1
		c0.1-0.2,0.4-0.3,0.6-0.3c0.2,0,0.4,0.2,0.6,0.4c0.2,0.3,18.5,33.7,52.4,21c0.5-0.2,1-0.4,1.5-0.7c0.3-0.1,0.6-0.1,0.8,0.1
		c0.2,0.2,0.3,0.6,0.1,0.8c-6.2,11.3-13.9,18.1-16.2,20l-0.3,0.3C175.5,274.2,160.1,284.9,141.8,284.9z M75.2,240
		c4.7,0,8.8,2.2,12.4,6.6c6.1,7.5,16.7,18.1,22.5,23.8c4.4,4.3,9.4,7.5,14.7,9.8c8.3,3.4,30.4,9,56.6-12.7l0.3-0.3
		c2.1-1.7,9-7.7,14.8-17.8c-31.6,11.6-50.1-15.5-53.3-20.9c-3.3,3.8-7.6,5.7-12.6,5.8c-0.1,0-0.3,0-0.4,0c-20.9,0-49-31.5-52.1-35
		c-27.2,2-46.1,48.9-52.4,64.3l-0.8,2c-1.7,4-4,6.5-6.9,7.4c-3.9,1.2-7.9-0.9-9.9-2.2c-0.6-0.4-1.4-0.4-2-0.1
		c-0.3,0.2-0.5,0.4-0.5,0.7c-0.2,1.8,3.6,5.5,6.1,7.9c0.8,0.8,1.6,1.5,2.2,2.1c1,1,2.3,1.6,3.9,1.6c2.3,0.1,4.5-0.8,6.1-2.4
		c6.4-6.2,23.7-23.2,26.7-26.3c2.7-2.9,9.2-7.8,12.9-10.5c2.6-1.9,5.5-3.2,8.5-3.8C73.2,240.1,74.2,240,75.2,240z"/>
</g>
<g>
	<path class="st0" d="M143.4,227.3c-19.3,24.2-64.8-28.6-64.8-28.6l-20-19.3c-1.2-1.1-2-2.6-2.5-4.1c-1.6-5.9,6.5-1.4,6.5-1.4
		c31.5,18.6,49.2,17.3,59,9.6C136.3,193.7,140.5,220.6,143.4,227.3z"/>
	<path class="st2" d="M130.3,234.3c-9.1,0-20.6-5.9-34.3-17.5c-10.2-8.7-17.9-17.6-18-17.7l-20-19.2c-1.3-1.2-2.2-2.8-2.7-4.4
		c-0.4-1.6-0.3-2.8,0.6-3.4c1.9-1.5,6.1,0.8,7,1.3c26.7,15.8,46.3,19,58.2,9.7c0.2-0.2,0.6-0.2,0.8,0c11.6,8,16.8,26.1,19.8,36.9
		c0.9,3.2,1.6,5.7,2.3,7.2c0.1,0.2,0.1,0.5-0.1,0.7c-3.4,4.3-7.9,6.5-13.2,6.6C130.6,234.3,130.5,234.3,130.3,234.3z M57.6,172.9
		c-0.3,0-0.6,0.1-0.8,0.2c-0.4,0.3-0.2,1.4-0.1,1.9c0.4,1.4,1.2,2.8,2.3,3.8l20,19.3c0.3,0.4,30.2,34.8,51.3,34.8c0.1,0,0.2,0,0.4,0
		c4.8-0.1,8.8-2,11.9-5.8c-0.6-1.6-1.3-4-2.2-6.9c-3-10.5-7.9-28-18.9-35.9c-12.5,9.4-32.4,6-59.4-9.9
		C60.9,173.8,58.8,172.9,57.6,172.9z"/>
</g>
<g>
	<path class="st2" d="M198.9,246.5c-0.3,0.7-0.7,1.5-0.7,1.5s-1,0.4-1.5,0.6c0,0,0,0,0,0c-34.9,13.1-53.3-21.3-53.3-21.3
		c-2.9-6.7-7.1-33.6-21.8-43.8c13.3-10.4,12.3-32.6,12.3-32.6c0.4-0.6,4.5-5.6,6.3-13.4c0,0,47.2,19.4,58.1,45.9
		C211.2,215.1,201.6,240.2,198.9,246.5z"/>
	<path class="st2" d="M181.3,252.3c-25,0-38.4-24.3-38.6-24.6c-0.7-1.6-1.4-4.2-2.3-7.4c-3-10.6-8.1-28.4-19.3-36.2
		c-0.2-0.1-0.3-0.3-0.3-0.6s0.1-0.4,0.3-0.6c12.9-10.1,12-31.8,12-32c0-0.1,0-0.3,0.1-0.4c0.1-0.1,0.2-0.2,0.3-0.5
		c1.1-1.5,4.3-6,5.9-12.7c0-0.2,0.2-0.4,0.4-0.5c0.2-0.1,0.4-0.1,0.6,0c0.1,0,12,5,25.1,13.1c12.1,7.5,27.7,19.4,33.4,33.2
		c12.4,30.1,4.6,54.5,0.7,63.5c-0.3,0.7-0.7,1.5-0.7,1.5c-0.1,0.1-0.2,0.2-0.3,0.3c0,0-1,0.4-1.6,0.7c0,0-0.1,0-0.1,0
		C191.3,251.4,186.1,252.3,181.3,252.3z M122.7,183.5c11.1,8.3,16.1,25.8,19.1,36.4c0.9,3.2,1.6,5.7,2.3,7.2
		c0.2,0.3,18.5,33.7,52.4,20.9c0,0,0.1,0,0.1,0c0.4-0.2,0.9-0.4,1.2-0.5c0.1-0.3,0.4-0.8,0.6-1.2c0,0,0,0,0,0
		c3.8-8.9,11.5-32.8-0.7-62.4c-9.9-24.1-50.9-42.6-56.9-45.2c-1.7,6.5-4.9,10.9-5.9,12.4c-0.1,0.1-0.1,0.1-0.1,0.2
		c0,1.1,0.1,6.2-1.2,12.3C132.1,169.6,129.2,177.9,122.7,183.5z M198.2,248L198.2,248L198.2,248z"/>
</g>
</svg>
