<svg xmlns="http://www.w3.org/2000/svg" width="361" height="289" fill="none" viewBox="0 0 361 289">
    <g clip-path="url(#clip0)">
        <path fill="#F8CA06" d="M186.5 284c52.2 0 94.5-42.3 94.5-94.5v-95C281 42.3 238.7 0 186.5 0S92 42.3 92 94.5v95c0 52.2 42.3 94.5 94.5 94.5zM413.5 278c58.266 0 105.5-47.01 105.5-105S471.766 68 413.5 68 308 115.01 308 173s47.234 105 105.5 105z"/>
        <path fill="#fff" d="M313.1 288c10.88 0 19.7-.94 19.7-2.1 0-1.16-8.82-2.1-19.7-2.1-10.88 0-19.7.94-19.7 2.1 0 1.16 8.82 2.1 19.7 2.1z" opacity=".1"/>
        <path fill="#fff" fill-rule="evenodd" d="M319.9 183.6c-.9-1.1-2.1-1.8-3.3-1.4-1.5.5-2.6 1.7-3.6 3.3-.9 1.7-1.7 3.8-2.299 6.2-1.201 4.9-1.8 11.1-2 17.1-.1 4-.001 8 .199 11.5-.5-.8-1-1.6-1.4-2.3-1.9-3-4.2-6.3-6.5-9.1s-4.6-5.3-6.6-6.4c-1-.6-2-1-3-.7-1 .2-1.7 1.1-2 2.3-.4 1.2-.5 2.8-.3 5 .1 2.2.5 5 1.2 8.5 1.2 6.2 3.001 11.6 4.901 16.1l-.301-.3c-2-2-4.7-3.9-7.4-5.2-2.7-1.3-5.5-2.2-7.7-2.2-1.1 0-2.1.2-2.9.7-.8.5-1.3 1.4-1.4 2.5-.1 1.1.2 2.4.9 3.9s1.8 3.4 3.4 5.5c6.3 8.6 13.4 15.4 17.6 19.3l.301.3c.6.6 1.199 1.1 1.599 1.6-.3-.1-.6-.3-.9-.5-4.9-2.5-8.999-4.2-12.199-5.3-3.2-1.1-5.7-1.5-7.5-1.4-.9 0-1.701.2-2.301.6-.6.4-.999.9-1.199 1.6-.3 1.3.199 2.9 1.099 4.6 1.9 3.5 6.1 8 11.8 12.6 5.7 4.7 12.9 9.5 21 13.5.3.2.8 0 .9-.3.2-.3 0-.8-.299-.9-8-4-15.101-8.7-20.701-13.3-5.6-4.6-9.7-9-11.5-12.2-.9-1.7-1.2-2.8-1-3.6.1-.3.3-.6.6-.8.3-.2.801-.4 1.601-.4 1.5-.1 3.799.3 6.899 1.4 3.1 1.1 7.1 2.7 12 5.2 1.3.7 2.3 1.1 2.9 1.3.2.1.3.1.4.1.1 0 .3.1.4 0 .2 0 .5-.1.7-.5.1-.3 0-.6 0-.7-.1-.2-.3-.5-.5-.7l-.799-.8c-.6-.6-1.401-1.3-2.301-2.2l-.3-.3c-4.2-4-11.3-10.7-17.5-19.2-1.5-2.1-2.6-3.8-3.2-5.3-.6-1.4-.9-2.5-.8-3.2.1-.7.3-1.1.8-1.4.5-.3 1.2-.5 2.1-.5 1.9 0 4.5.8 7.1 2.1 2.6 1.3 5.2 3 7 4.9 1.1 1.1 2.1 2.2 3 3.2 2.9 6 5.9 10 7.8 11.7.4.4.8.7 1.2.9.2.1.4.2.601.2.2 0 .599 0 .799-.3.2-.3.3-.6.201-.8 0-.2-.101-.4-.101-.6-.1-.4-.4-.9-.8-1.6-1.2-2.1-3.9-5.5-8.5-10.5-2.5-5.1-4.9-11.6-6.5-19.5-.7-3.4-1.1-6.2-1.2-8.3-.1-2.1 0-3.6.3-4.5.3-.9.7-1.2 1-1.3.4-.1 1 0 1.9.6 1.7 1 4 3.3 6.2 6.1 2.3 2.8 4.5 6 6.4 9 .4.8.9 1.6 1.5 2.4.4.7.9 1.5 1.301 2.2.099.7.099 1.3.199 1.9.3 2.2.6 4.1 1 5.5.2.7.4 1.2.7 1.7.2.4.7.9 1.3.9.6 0 1.2-.2 1.5-.7.3-.5.4-1 .301-1.6-.1-1.1-.701-2.5-1.401-3.9-.6-1.3-1.5-2.7-2.3-4.1-.4-4.1-.5-9-.4-14.1.2-6 .8-12.1 1.9-16.8.6-2.4 1.3-4.4 2.1-5.9.9-1.5 1.8-2.4 2.8-2.7.4-.1 1 0 1.9 1 .8.9 1.7 2.4 2.5 4.4 1.7 3.9 3.2 9.4 4.2 15.1 1 5.8 1.4 11.8.9 16.8 0 .2 0 .4-.1.6-2.1 2.8-3.8 5.6-4.9 7.5-.3.6-.499 1.1-.699 1.5-.201.4-.301.9-.301 1.2 0 .2 0 .4.2.7.2.3.5.4.7.4.2 0 .5 0 .6-.1l.6-.3c1.6-1 2.7-2.5 3.5-4.5.7-1.7 1.2-3.7 1.5-5.9.3-.3.5-.7.8-1.1 2.5-3.3 5.3-6.5 7.8-8.8 1.2-1.1 2.4-2 3.3-2.4 1-.5 1.5-.4 1.801-.3.199.1.499.5.699 1.2.2.7.4 1.7.4 2.8.1 2.3-.3 5.5-1.3 9.1-.7 2.6-1.7 5.3-3 8.2-2.6 1.9-5 4.5-7.1 7.2-2.5 3.1-4.4 6.2-5.3 8.1-.2.5-.4.9-.5 1.3 0 .2-.1.4-.1.5 0 .2 0 .4.201.7.2.3.599.3.799.3.2 0 .4-.1.6-.2.3-.2.7-.5 1.101-1 5.2-5.2 8.799-10.7 11.299-15.9.3-.3.7-.5 1-.7 2.9-1.8 5.601-2.3 7.701-.8.5.3 1 1.1 1 2.4.099 1.4-.301 3.4-1.5 6.1-2.301 5.4-7.701 13.5-18.801 24.9-.3.3-.3.7 0 1 .2.3.7.3.9.1 3.5-2.7 7.8-5 11.5-6.4 1.8-.7 3.5-1.1 4.8-1.3.7-.1 1.2-.1 1.601 0 .4.1.699.2.799.3.2.2.4.6-.2 1.9-.6 1.2-1.8 2.9-3.9 5.1-4.2 4.4-11.9 10.9-24.4 19.9-.3.2-.4.7-.2 1 .2.3.7.4 1 .2 12.5-9 20.2-15.6 24.6-20.1 2.2-2.3 3.5-4.1 4.2-5.5.7-1.4.8-2.7-.2-3.5-.4-.4-1-.6-1.6-.7-.6-.1-1.3-.1-2 0-1.5.2-3.199.7-5.099 1.4-2.201.8-4.501 1.9-6.901 3.3 8.4-9.3 12.9-16.1 15-21 1.2-2.8 1.7-5 1.6-6.7-.1-1.7-.7-2.9-1.6-3.5-2.6-1.8-5.7-1.2-8.5.3.9-2.2 1.7-4.4 2.2-6.4 1-3.7 1.4-7 1.3-9.5 0-1.3-.2-2.3-.4-3.2-.3-.8-.6-1.6-1.199-2-.901-.6-2.101-.3-3.201.2s-2.3 1.5-3.6 2.6c-2.4 2.1-5 5.2-7.4 8.2.3-4.8-.1-10.3-1-15.5-1-5.8-2.5-11.4-4.299-15.5.099-1.6-.801-3.3-1.801-4.4zm16.6 50.4c-2.3 4.2-5.4 8.4-9.4 12.5.9-1.8 2.7-4.7 5-7.7 1.3-1.7 2.8-3.4 4.4-4.8zm-9.9 13.8c0 .1 0 .1 0 0zm-.8-23.2c-.2 1-.5 1.9-.9 2.7-.7 1.7-1.7 3-2.9 3.8v-.1c.1-.4.4-.8.6-1.4.9-1.3 1.9-3.1 3.2-5zm-14.8 2l.6 1.2c.7 1.5 1.2 2.7 1.3 3.5 0 .4 0 .6-.1.6 0 0-.1.1-.3.1l-.2-.2c-.2-.3-.4-.7-.5-1.3-.3-1-.6-2.3-.8-3.9zm-9.799 15.6c2.1 2.5 3.499 4.4 4.299 5.7-1.1-1.1-2.599-3-4.299-5.7zM246.1 91.3c1.6 1.5 2.6 3.3 2.9 4.8 0 .3.2.5.5.6.3.1.6 0 .7-.2 3.1-3.9 6.1-6.1 8.9-7 2.8-.9 5.4-.7 7.5.4 4.4 2.2 7.3 7.6 6.8 13.1 0 .4.3.7.6.8.4 0 .7-.3.8-.6.5-6-2.6-12-7.6-14.5-2.5-1.2-5.5-1.5-8.6-.5-2.8 1-5.8 3-8.7 6.4-.5-1.5-1.6-3-2.9-4.2-1.8-1.7-4.2-3.1-6.8-3.8-2.7-.7-5.7-.8-8.7.3-2.7 1-5.4 2.9-7.8 6-4.2-6-18.5-10.7-31.6 4.8-.2.3-.2.7.1 1 .3.2.7.2 1-.1 13.2-15.7 27.1-9.4 29.8-4.1.1.2.3.4.6.4.2 0 .5-.1.6-.3 2.4-3.4 5.1-5.4 7.8-6.3 2.7-1 5.4-.9 7.8-.3 2.5.5 4.7 1.8 6.3 3.3zM324.2 125.7c.8-1.9 2.3-3.6 4.3-5.1 2.5-1.8 5.6-3.1 9-3.3 3.3-.2 6.8.6 9.9 3.1 3 2.5 5.5 6.5 6.9 12.6.1.4-.1.8-.5.8-.4.1-.8-.1-.8-.5-1.4-5.9-3.7-9.6-6.4-11.9-2.7-2.2-5.8-3-8.9-2.8-3 .2-6 1.4-8.2 3-2.3 1.7-3.8 3.7-4.1 5.6 0 .3-.3.5-.5.6-.3.1-.6-.1-.7-.3-2.8-4.2-7.4-5-11.5-3.7-4.1 1.4-7.5 4.9-7.7 9.3 0 .4-.4.7-.7.7-.4 0-.7-.4-.7-.7.3-5.1 4.1-9.1 8.7-10.6 3.8-1.3 8.7-.6 11.9 3.2zM92.9 50.4c-5.3 2.3-9.2 8.1-10.5 12.9-.1.4-.5.6-.9.5-.4-.1-.6-.5-.5-.9 1.4-5.1 5.5-11.3 11.3-13.8 2.9-1.3 6.3-1.6 9.8-.3 3.4 1.2 6.9 3.7 10.4 8 1.8-2.8 5.8-4.6 10-3.9 4.7.9 9.5 5 11.8 14.5.1.4-.1.8-.5.8-.4.1-.8-.1-.8-.5-2.2-9.1-6.7-12.7-10.7-13.4-4.1-.8-7.9 1.4-9 4-.1.2-.3.4-.6.4-.2 0-.5-.1-.6-.3-3.7-4.7-7.2-7.3-10.5-8.4-3.2-1-6.1-.7-8.7.4z" clip-rule="evenodd"/>
        <path fill="#fff" d="M142.5 288c16.292 0 29.5-1.343 29.5-3s-13.208-3-29.5-3-29.5 1.343-29.5 3 13.208 3 29.5 3zM18.5 287c10.217 0 18.5-.895 18.5-2s-8.283-2-18.5-2-18.5.895-18.5 2 8.283 2 18.5 2z" opacity=".1"/>
        <path fill="#F8CA06" d="M76.2 145s-6.7 8.8-20.4 7.2c-13.7-1.6-16.7 7.5-16.7 7.5l-17.9-15.9 16.8-12 13.3-9.6L76.2 145z"/>
        <path fill="#fff" d="M39.1 160.4c-.2 0-.3-.1-.5-.2l-17.9-15.9c-.2-.1-.2-.3-.2-.6s.1-.4.3-.5l30.1-21.6c.3-.2.6-.2.9.1l24.9 22.8c.3.2.3.7.1.9-.3.4-7.1 9.1-21 7.5-12.9-1.5-16 6.9-16 7-.1.2-.3.4-.5.5h-.2zm-16.8-16.5l16.5 14.7c1.3-2.4 5.7-8.4 17.1-7 11.2 1.3 17.7-4.7 19.3-6.4l-24-22-28.9 20.7z"/>
        <path fill="#181C19" d="M85.4 174.7l-18.8 9.4L39 159.6s3.1-9.1 16.7-7.5c13.7 1.6 20.4-7.2 20.4-7.2L85 153c-8.9 15.4.4 21.7.4 21.7z"/>
        <path fill="#fff" d="M66.6 184.9c-.2 0-.3-.1-.5-.2l-27.6-24.5c-.2-.2-.3-.5-.2-.7 0-.1 3.4-9.6 17.5-8 13.1 1.5 19.7-6.8 19.7-6.9.1-.2.3-.3.5-.3.201 0 .401 0 .5.2l8.901 8.1c.2.2.3.6.1.9-8.5 14.5.1 20.6.1 20.6.2.1.3.4.3.6 0 .2-.2.5-.4.6L67 184.8c-.1 0-.3.1-.4.1zm-26.699-25.4l26.8 23.8 17.4-8.8c-2.1-2.1-7-8.8 0-21.3l-7.9-7.3c-1.8 2-8.5 8.3-20.5 6.9-11.2-1.2-15 5-15.8 6.7z"/>
        <path fill="#F8CA06" d="M100.399 167.2l-15 7.5s-9.3-6.3-.4-21.6l15.4 14.1z"/>
        <path fill="#fff" d="M85.4 175.4c-.1 0-.3 0-.4-.1-.1-.1-9.7-6.9-.6-22.5.1-.2.3-.3.5-.3s.4 0 .6.2l15.3 14.1c.2.2.3.4.2.6 0 .2-.2.4-.4.5l-15 7.5h-.2zm-.2-21.1c-7 12.5-1.2 18.4.3 19.6l13.7-6.9-14-12.7z"/>
        <path fill="#181C19" d="M38 131.8l-16.8 12.1 1.3-26.1 15.5 14z"/>
        <path fill="#fff" d="M21.2 144.6c-.1 0-.2 0-.3-.1-.2-.1-.4-.4-.4-.6l1.3-26.1c0-.3.2-.5.4-.6.2-.1.5-.1.7.1l15.5 14.1c.2.1.2.3.2.6 0 .2-.1.4-.3.5l-16.8 12.1c0-.1-.1 0-.3 0zm2-25.4L22 142.4l14.9-10.7-13.7-12.5zM140.2 137.6c-2.9-1.1-6.2-2.2-6.3-2.3.4-.3.6-.6.4-1.1-.1-.5-.7-1-1.8-1.8-1.4-.9-3.2-1.4-5-1.8-1.1-2.2-7-8.5-10.5-11.4 10.3-9.8 22.2-1.1 23.3 9.3.2 3 .6 6.1-.1 9.1z"/>
        <path fill="#181C19" d="M140.2 138.3h-.2c-1.5-.6-3.2-1.2-4.5-1.6-2-.7-2-.7-2.1-.8-.1-.1-.2-.4-.2-.6 0-.2.1-.4.3-.5l.2-.2s0-.1-.1-.1c0-.1-.2-.6-1.5-1.4-1.2-.7-2.8-1.3-4.8-1.7-.2 0-.4-.2-.5-.4-1-2-6.7-8.2-10.4-11.2-.2-.1-.2-.3-.3-.5 0-.2.1-.4.2-.5 4.4-4.2 9.6-5.5 14.5-3.7 5.4 2 9.4 7.4 10 13.4v.2c.3 3 .7 6.1 0 9.1 0 .2-.2.4-.4.5 0-.1-.1 0-.2 0zm-5.3-3.3c.3.1.6.2 1 .3 1 .4 2.4.8 3.7 1.3.4-2.6.1-5.3-.2-7.9v-.2c-.5-5.4-4.3-10.4-9.1-12.2-4.2-1.6-8.6-.5-12.4 2.8 3.4 2.9 8.5 8.4 9.9 10.8 2 .5 3.6 1.1 4.9 1.9 1.2.8 1.9 1.4 2.1 2.1.2.4.2.8.1 1.1z"/>
        <path fill="#181C19" d="M133.901 151.6s-.1 0 0 0c-.3 0-.5-.2-.6-.4-1.6-3.4-5-5.1-6.1-5.6-.8-.4-2-.6-3.2-.8-2.4-.4-5.1-.9-6.8-2.8-.4-.5-.8-1.1-1.1-1.6-.3-.6-.7-1.2-1.1-1.6l-.2-.2c-.7-.7-1.1-1.1-2.1-1.7-.2-.1-.4-.3-.4-.6 0-.2.1-.5.3-.6 0 0 3-2 3.7-5.2.1-.3.3-.5.5-.5s4.6-1 10.8.1c2 .4 3.9 1 5.3 1.9 1.1.7 1.8 1.4 2 2 .1.4.1.7.1 1 .1 0 .3.1.4.1 1.3.4 3.1 1 5 1.8.3.1.5.5.4.8-1.6 6.8-4.9 11.5-6.1 13.1-.2.2-.3.4-.3.5-.1.2-.3.3-.5.3zm-19.7-15.4c.6.4 1 .8 1.5 1.4l.2.2c.5.5.9 1.2 1.3 1.8.3.5.6 1.1.9 1.4 1.4 1.6 3.8 2 6 2.3 1.4.2 2.6.4 3.6.9 1.1.6 4.3 2.2 6.2 5.3 1.2-1.7 4-5.9 5.4-11.6-1.6-.7-3.3-1.2-4.4-1.6-1.5-.5-1.6-.5-1.7-.8-.2-.3-.1-.7.3-.9.2-.1.2-.1.1-.2s-.3-.6-1.5-1.3c-1.2-.8-2.9-1.4-4.7-1.7-4.9-.9-8.6-.4-9.8-.2-.7 2.4-2.3 4.1-3.4 5z"/>
        <path fill="#181C19" d="M129.2 137c-.4 0-.7-.3-.7-.7 0-.4.3-.7.7-.7 1.2 0 3.5-.3 4.2-.8.3-.2.8-.1 1 .2.2.3.1.8-.2 1-1.3.8-4.6 1-5 1zM127.4 130.6c-6.1-1-10.5-.1-10.5-.1-7.4-1.9-17.1-12.1-11.1-14.9 3.2-1.4 7.3.6 11.1 3.6l.1.1c1.8 1.4 3.4 2.9 4.9 4.4l.3.3c.1.1.1.2.2.2 1.6 1.6 2.8 3.2 3.7 4.3 0 0 .1.1.1.2.8 1.2 1.3 1.9 1.2 1.9z"/>
        <path fill="#181C19" d="M127.399 131.3h-.1c-5.8-1-10.2-.1-10.3-.1h-.3c-6-1.5-13.1-8-13.5-12.4-.2-1.7.7-3 2.3-3.7 3-1.3 7.1 0 11.9 3.7h.1c1.7 1.3 3.3 2.8 5 4.5.1.1.2.2.3.4l.1.1.1.1c1.7 1.8 3 3.4 3.8 4.4l.1.1.1.1c1.4 1.9 1.3 2.1 1.2 2.5-.1.2-.3.4-.5.5-.2-.2-.3-.2-.3-.2zm-19.4-15.4c-.7 0-1.3.1-2 .4-1.1.5-1.5 1.2-1.4 2.3.3 3.7 7 9.7 12.3 11.2.8-.1 4.4-.7 9.2-.1-.1-.1-.2-.3-.3-.5 0 0 0-.1-.1-.1l-.1-.1c-.8-1-2-2.5-3.6-4.2l-.2-.2-.1-.1c-.1-.1-.1-.2-.2-.3-1.6-1.6-3.2-3.1-4.8-4.4l-.2-.2c-2.5-1.7-5.7-3.7-8.5-3.7z"/>
        <path fill="#fff" d="M198.2 247.9c-6.3 11.6-14.3 18.4-16 19.8-3.1 2.6-28.9 24.9-57.7 13.1-5.6-2.3-10.6-5.7-15-9.9-5.5-5.4-16.4-16.2-22.6-23.8-4.8-6-10.2-7-14.7-6.1-3 .6-5.8 1.9-8.2 3.7-3.3 2.4-10 7.5-12.8 10.4-3 3.2-21 20.8-26.7 26.3-1.8 1.7-4.2 2.7-6.6 2.6-1.5 0-3.2-.5-4.4-1.8-3-3.2-11-9.6-7.6-11.8.8-.6 1.9-.5 2.8.1 2.8 1.9 11.1 6.3 15.7-4.9 5.6-13.5 25.1-65 54.2-66.8 0 0 45.5 52.8 64.8 28.6 0 0 18.4 34.4 53.3 21.3.5-.3 1-.5 1.5-.8z"/>
        <path fill="#181C19" d="M141.8 284.9c-5.6 0-11.5-1-17.5-3.5-5.5-2.3-10.7-5.7-15.2-10-5.8-5.7-16.5-16.3-22.7-23.9-3.9-4.9-8.7-6.9-14.1-5.8-2.8.5-5.5 1.8-7.9 3.5-2.9 2.1-9.9 7.4-12.7 10.3-2.9 3.1-20.3 20.1-26.7 26.3-2 1.9-4.5 2.9-7.1 2.8-2-.1-3.7-.8-4.9-2.1l-2.1-2.1c-3.8-3.7-6.7-6.7-6.5-9 .1-.7.5-1.3 1.1-1.8 1.1-.7 2.5-.7 3.6.1 1.8 1.2 5.3 3.1 8.7 2 2.5-.8 4.5-3 6-6.6l.8-2c3.1-7.7 9.7-23.8 18.7-37.9 11.3-17.4 23.1-26.6 35.2-27.3.2 0 .4.1.6.2.3.4 30.5 35.1 51.6 34.7 4.9-.1 9-2.1 12.2-6.1.1-.2.4-.3.6-.3.2 0 .4.2.6.4.2.3 18.5 33.7 52.4 21 .5-.2 1-.4 1.5-.7.3-.1.6-.1.8.1.2.2.3.6.1.8-6.2 11.3-13.9 18.1-16.2 20l-.3.3c-6.9 5.9-22.3 16.6-40.6 16.6zM75.2 240c4.7 0 8.8 2.2 12.4 6.6 6.1 7.5 16.7 18.1 22.5 23.8 4.4 4.3 9.4 7.5 14.7 9.8 8.3 3.4 30.4 9 56.6-12.7l.3-.3c2.1-1.7 9-7.7 14.8-17.8-31.6 11.6-50.1-15.5-53.3-20.9-3.3 3.8-7.6 5.7-12.6 5.8h-.4c-20.9 0-49-31.5-52.1-35-27.2 2-46.1 48.9-52.4 64.3l-.8 2c-1.7 4-4 6.5-6.9 7.4-3.9 1.2-7.9-.9-9.9-2.2-.6-.4-1.4-.4-2-.1-.3.2-.5.4-.5.7-.2 1.8 3.6 5.5 6.1 7.9.8.8 1.6 1.5 2.2 2.1 1 1 2.3 1.6 3.9 1.6 2.3.1 4.5-.8 6.1-2.4 6.4-6.2 23.7-23.2 26.7-26.3 2.7-2.9 9.2-7.8 12.9-10.5 2.6-1.9 5.5-3.2 8.5-3.8 1.2.1 2.2 0 3.2 0z"/>
        <path fill="#F8CA06" d="M143.4 227.3c-19.3 24.2-64.8-28.6-64.8-28.6l-20-19.3c-1.2-1.1-2-2.6-2.5-4.1-1.6-5.9 6.5-1.4 6.5-1.4 31.5 18.6 49.2 17.3 59 9.6 14.7 10.2 18.9 37.1 21.8 43.8z"/>
        <path fill="#181C19" d="M130.3 234.3c-9.1 0-20.6-5.9-34.3-17.5-10.2-8.7-17.9-17.6-18-17.7l-20-19.2c-1.3-1.2-2.2-2.8-2.7-4.4-.4-1.6-.3-2.8.6-3.4 1.9-1.5 6.1.8 7 1.3 26.7 15.8 46.3 19 58.2 9.7.2-.2.6-.2.8 0 11.6 8 16.8 26.1 19.8 36.9.9 3.2 1.6 5.7 2.3 7.2.1.2.1.5-.1.7-3.4 4.3-7.9 6.5-13.2 6.6-.1-.2-.2-.2-.4-.2zm-72.7-61.4c-.3 0-.6.1-.8.2-.4.3-.2 1.4-.1 1.9.4 1.4 1.2 2.8 2.3 3.8l20 19.3c.3.4 30.2 34.8 51.3 34.8h.4c4.8-.1 8.8-2 11.9-5.8-.6-1.6-1.3-4-2.2-6.9-3-10.5-7.9-28-18.9-35.9-12.5 9.4-32.4 6-59.4-9.9-1.2-.6-3.3-1.5-4.5-1.5z"/>
        <path fill="#181C19" d="M198.902 246.5c-.3.7-.7 1.5-.7 1.5l-1.5.6c-34.9 13.1-53.3-21.3-53.3-21.3-2.9-6.7-7.1-33.6-21.8-43.8 13.3-10.4 12.3-32.6 12.3-32.6.4-.6 4.5-5.6 6.3-13.4 0 0 47.2 19.4 58.1 45.9 12.9 31.7 3.3 56.8.6 63.1z"/>
        <path fill="#181C19" d="M181.301 252.3c-25 0-38.4-24.3-38.6-24.6-.7-1.6-1.4-4.2-2.3-7.4-3-10.6-8.1-28.4-19.3-36.2-.2-.1-.3-.3-.3-.6s.1-.4.3-.6c12.9-10.1 12-31.8 12-32 0-.1 0-.3.1-.4.1-.1.2-.2.3-.5 1.1-1.5 4.3-6 5.9-12.7 0-.2.2-.4.4-.5.2-.1.4-.1.6 0 .1 0 12 5 25.1 13.1 12.1 7.5 27.7 19.4 33.4 33.2 12.4 30.1 4.6 54.5.7 63.5-.3.7-.7 1.5-.7 1.5l-.3.3s-1 .4-1.6.7h-.1c-5.6 2.3-10.8 3.2-15.6 3.2zm-58.6-68.8c11.1 8.3 16.1 25.8 19.1 36.4.9 3.2 1.6 5.7 2.3 7.2.2.3 18.5 33.7 52.4 20.9h.1c.4-.2.9-.4 1.2-.5.1-.3.4-.8.6-1.2 3.8-8.9 11.5-32.8-.7-62.4-9.9-24.1-50.9-42.6-56.9-45.2-1.7 6.5-4.9 10.9-5.9 12.4-.1.1-.1.1-.1.2 0 1.1.1 6.2-1.2 12.3-1.5 6-4.4 14.3-10.9 19.9z"/>
    </g>
    <defs>
        <clipPath id="clip0">
            <path fill="#fff" d="M0 0H361V289H0z"/>
        </clipPath>
    </defs>
</svg>
