<svg xmlns="http://www.w3.org/2000/svg" width="325" height="110" fill="none" viewBox="0 0 325 110">
    <path fill="#F8CA06" d="M0 15C0 6.716 6.716 0 15 0h295c8.284 0 15 6.716 15 15v80c0 8.284-6.716 15-15 15H15c-8.284 0-15-6.716-15-15V15z"/>
    <mask id="prefix__a" width="325" height="110" x="0" y="0" maskUnits="userSpaceOnUse">
        <path fill="#F8CA06" d="M0 15C0 6.716 6.716 0 15 0h295c8.284 0 15 6.716 15 15v80c0 8.284-6.716 15-15 15H15c-8.284 0-15-6.716-15-15V15z"/>
    </mask>
    <g fill="#fff" mask="url(#prefix__a)">
        <path fill-rule="evenodd" d="M32.964 48.434c-.638-.741-1.511-1.366-2.503-1.054-1.081.341-1.908 1.255-2.546 2.4-.646 1.156-1.157 2.651-1.561 4.334-.81 3.371-1.218 7.634-1.337 11.801-.068 2.41-.04 4.798.066 6.98-.165-.276-.32-.54-.464-.788l-.015-.024c-1.3-2.05-2.87-4.318-4.438-6.273-1.55-1.934-3.156-3.634-4.532-4.47-.675-.41-1.44-.702-2.172-.533-.802.186-1.288.848-1.542 1.7-.252.844-.326 2.013-.233 3.524.095 1.524.363 3.449.835 5.834.754 3.816 1.79 7.19 2.93 10.09-1.29-1.186-2.883-2.236-4.482-3.028-1.846-.913-3.776-1.52-5.317-1.549-.77-.014-1.52.114-2.11.5-.627.41-.993 1.056-1.052 1.875-.056.783.167 1.71.64 2.775.477 1.074 1.233 2.34 2.31 3.822 4.273 5.885 9.13 10.567 11.988 13.302l.195.186.074.07c-3.043-1.512-5.569-2.585-7.623-3.279-2.19-.74-3.9-1.069-5.147-1.002-.628.034-1.188.17-1.638.45-.467.291-.776.715-.911 1.233-.253.965.128 2.135.779 3.312 1.336 2.413 4.201 5.543 8.056 8.734 3.87 3.204 8.79 6.513 14.286 9.27.346.173.767.033.94-.312.173-.346.034-.766-.312-.94-5.4-2.708-10.23-5.958-14.021-9.096-3.806-3.151-6.514-6.148-7.724-8.334-.622-1.124-.756-1.872-.65-2.28.045-.17.134-.296.298-.399.182-.113.487-.214.972-.24.979-.053 2.487.208 4.624.93 2.122.717 4.809 1.87 8.123 3.546.897.453 1.552.763 1.975.916.109.039.216.074.318.097.09.021.228.047.379.032.147-.014.487-.094.643-.458.127-.294.026-.556-.006-.636-.081-.196-.236-.388-.362-.535-.145-.168-.333-.365-.552-.585-.396-.4-.926-.906-1.55-1.502l-.198-.19c-2.855-2.73-7.63-7.338-11.824-13.113-1.041-1.433-1.738-2.613-2.163-3.567-.428-.964-.555-1.647-.522-2.107.03-.424.192-.653.42-.802.263-.172.694-.285 1.32-.273 1.248.023 2.965.535 4.72 1.404 1.745.864 3.454 2.043 4.693 3.328.735.761 1.412 1.48 2.035 2.156 1.995 4.103 4.043 6.843 5.303 8.073.297.29.58.526.832.674.121.072.282.151.462.183.183.032.514.032.77-.24.227-.242.237-.536.229-.68-.01-.168-.054-.334-.105-.482-.105-.303-.292-.675-.55-1.109-.848-1.427-2.649-3.813-5.771-7.215-1.658-3.448-3.288-7.901-4.35-13.276-.465-2.35-.722-4.21-.812-5.65-.09-1.451-.005-2.427.178-3.037.18-.604.403-.71.516-.736.184-.042.542.009 1.13.365 1.147.698 2.622 2.224 4.166 4.15 1.524 1.9 3.061 4.12 4.34 6.135.303.523.646 1.094 1.003 1.69.289.48.587.977.881 1.477.042.448.087.88.136 1.293.182 1.536.415 2.844.694 3.783.139.464.3.88.496 1.194.171.273.508.69 1.056.69.465 0 .933-.15 1.233-.57.271-.382.298-.847.26-1.234-.079-.78-.48-1.773-.97-2.778-.434-.884-.979-1.857-1.539-2.816-.243-2.772-.345-6.158-.247-9.595.117-4.12.521-8.276 1.298-11.514.39-1.622.864-2.979 1.422-3.98.566-1.013 1.161-1.561 1.745-1.745.129-.041.452-.03 1.02.631.535.621 1.109 1.63 1.677 2.96 1.131 2.645 2.164 6.384 2.826 10.333.662 3.949.944 8.058.6 11.448-.01.117-.024.233-.037.348-1.4 1.93-2.592 3.789-3.285 5.13-.203.394-.37.756-.487 1.07-.109.294-.203.62-.197.915.003.15.033.374.183.579.171.233.42.339.654.355.206.015.394-.037.535-.091.149-.057.301-.138.453-.231 1.116-.687 1.918-1.813 2.483-3.168.485-1.166.81-2.536 1.006-4.027.165-.225.333-.45.503-.677 1.687-2.237 3.588-4.466 5.251-5.99.837-.767 1.579-1.324 2.18-1.625.643-.322.892-.241.96-.195.067.045.228.227.372.71.137.459.23 1.091.252 1.884.043 1.58-.201 3.707-.853 6.152-.461 1.727-1.123 3.603-2.024 5.547-1.753 1.327-3.428 3.136-4.825 4.914-1.668 2.124-2.989 4.267-3.6 5.607-.154.335-.275.645-.342.907-.033.129-.06.275-.062.422-.002.124.013.38.198.604.232.28.555.314.77.279.19-.03.35-.116.465-.187.238-.148.511-.39.814-.696 3.495-3.536 5.99-7.335 7.699-10.935.217-.157.435-.304.652-.441 1.94-1.225 3.632-1.503 4.982-.564.245.171.552.594.591 1.506.04.913-.2 2.248-.98 4.085-1.561 3.674-5.217 9.19-12.684 17.033-.252.266-.258.68-.012.952.245.272.658.309.948.084 2.373-1.838 5.267-3.406 7.742-4.338 1.239-.467 2.344-.764 3.208-.865.432-.05.78-.05 1.04-.008.266.041.391.115.443.163.022.02.225.207-.164 1.039-.373.797-1.19 1.93-2.629 3.454-2.866 3.034-8.04 7.46-16.493 13.646-.312.228-.38.666-.151.978.228.312.666.38.978.152 8.474-6.201 13.73-10.687 16.684-13.815 1.471-1.558 2.411-2.82 2.88-3.822.45-.965.58-1.982-.156-2.661-.327-.302-.75-.45-1.174-.517-.428-.067-.912-.06-1.42 0-1.02.12-2.242.456-3.54.946-1.127.424-2.332.972-3.54 1.614 5.152-5.869 7.964-10.275 9.328-13.487.828-1.95 1.142-3.5 1.09-4.693-.05-1.195-.476-2.098-1.19-2.595-1.715-1.193-3.65-.95-5.464-.067.535-1.346.962-2.648 1.29-3.88.68-2.546.948-4.809.9-6.551-.023-.87-.126-1.633-.31-2.246-.175-.587-.458-1.152-.93-1.471-.743-.5-1.642-.26-2.37.105-.773.386-1.627 1.045-2.499 1.844-1.475 1.352-3.097 3.199-4.595 5.104.121-3.126-.18-6.621-.74-9.965-.675-4.023-1.733-7.876-2.92-10.652-.59-1.38-1.231-2.541-1.902-3.322zm9.976 36.104c-1.174 1.925-2.592 3.865-4.288 5.75.65-1.094 1.538-2.41 2.578-3.735.539-.686 1.113-1.367 1.71-2.015zm-6.15 7.61l.003-.002-.004.001zm-.644-14.025c-.042.114-.086.225-.132.334-.32.77-.704 1.394-1.147 1.87l.06-.119c.306-.591.721-1.302 1.22-2.085zm-2.298 2.97h.004-.004zm-6.658-1.592c.343.758.548 1.367.59 1.782.007.082.008.144.005.188-.093-.163-.201-.426-.315-.807-.098-.328-.191-.718-.28-1.163zm.694 2.112l-.01-.01.01.01zm-7.507 19.541l-.005-.001.005.001z" clip-rule="evenodd" opacity=".7"/>
        <path d="M74 40.5C74 55.136 85.865 67 100.5 67c14.636 0 26.5-11.864 26.5-26.5v-53c0-14.636-11.864-26.5-26.5-26.5S74-27.136 74-12.5v53z" opacity=".2"/>
        <path d="M251 140.5c0 14.636 11.864 26.5 26.5 26.5s26.5-11.864 26.5-26.5v-53c0-14.635-11.864-26.5-26.5-26.5S251 72.865 251 87.5v53z" opacity=".3"/>
        <path d="M203 66c0-16.016-13.208-29-29.5-29S144 49.984 144 66s13.208 29 29.5 29S203 82.016 203 66z" opacity=".15"/>
        <path fill-rule="evenodd" d="M291.651 24.206c.602-1.291 1.701-2.496 3.042-3.463 1.812-1.305 4.163-2.249 6.623-2.416 2.471-.169 5.062.446 7.297 2.273 2.231 1.823 4.044 4.8 5.069 9.242.087.377-.148.753-.525.84-.376.087-.752-.148-.839-.525-.975-4.229-2.662-6.897-4.59-8.473-1.924-1.572-4.151-2.108-6.317-1.96-2.176.148-4.28.988-5.899 2.155-1.637 1.18-2.685 2.62-2.914 3.907-.05.282-.265.504-.545.563-.279.059-.566-.058-.725-.295-1.969-2.934-5.245-3.534-8.153-2.57-2.934.97-5.313 3.476-5.476 6.553-.02.386-.35.682-.736.662-.386-.02-.682-.35-.662-.736.201-3.789 3.094-6.703 6.434-7.809 2.997-.992 6.495-.573 8.916 2.052z" clip-rule="evenodd" opacity=".7"/>
    </g>
</svg>
