<svg xmlns="http://www.w3.org/2000/svg" fill="none" viewBox="0 0 186 50">
    <path fill="#fff" fill-rule="evenodd" d="M119.401 48.019c2.331 1.012 5.369 1.6 8.172 1.6.07 0 .141 0 .211-.023 3.345-.047 5.111-2.472 5.111-4.874 0-2.403-1.743-4.852-5.111-4.899-1.483-.023-3.061-.259-3.979-.589-1.084-.4-2.073-.965-2.944-1.672-.895-.706-1.672-1.578-2.308-2.543-.189-.283-.353-.542-.495-.824h25.693c2.073 0 3.792-1.696 3.792-3.792v-1.06c0-2.779-.542-5.44-1.601-7.936-1.06-2.473-2.52-4.64-4.334-6.453-1.789-1.79-3.956-3.25-6.405-4.31-2.473-1.06-5.134-1.6-7.913-1.6s-5.44.54-7.913 1.6c-2.426 1.06-4.592 2.497-6.429 4.31-1.837 1.837-3.297 4.004-4.357 6.477-1.06 2.472-1.601 5.157-1.601 7.936 0 2.802.541 5.44 1.601 7.89 1.06 2.425 2.52 4.568 4.357 6.405 1.837 1.837 4.003 3.297 6.453 4.357zm17.05-23.574h-18.369c.082-.13.159-.265.235-.4.077-.136.153-.271.236-.4.636-.966 1.413-1.814 2.284-2.52.872-.707 1.861-1.249 2.968-1.65 1.083-.4 2.26-.588 3.485-.588s2.402.189 3.485.589c1.107.4 2.096.966 2.968 1.648.871.683 1.625 1.531 2.237 2.497l.134.226c.119.199.234.392.337.598zM159.365 44.892c0 2.802 2.261 5.063 5.063 5.063 2.803 0 5.087-2.261 5.064-5.063V14.719c0-2.803-2.261-5.064-5.064-5.064-2.802 0-5.063 2.261-5.063 5.064v30.173zM0 44.892c0 2.802 2.26 5.063 5.063 5.063s5.087-2.261 5.064-5.063V14.719c0-2.803-2.261-5.064-5.064-5.064C2.261 9.655 0 11.916 0 14.72v30.173zM54.52 49.884h2.544c8.808 0 16.132-7.23 16.344-16.132V14.72c0-2.873-2.237-5.11-5.11-5.11-2.78 0-5.04 2.284-5.04 5.11V33.54c0 3.297-2.897 6.194-6.194 6.194h-2.543c-3.25 0-6.1-2.802-6.194-6.1V14.72c0-2.826-2.26-5.11-5.04-5.11-2.873 0-5.11 2.237-5.11 5.11v19.057c.188 8.878 7.513 16.108 16.344 16.108zM85.206 44.844c0 2.78 2.261 5.04 5.04 5.04 2.802 0 5.11-2.26 5.11-5.04V5.04c0-2.78-2.284-5.04-5.11-5.04-2.779 0-5.04 2.26-5.04 5.04v39.804z" clip-rule="evenodd"/>
    <path fill="#00B559" fill-rule="evenodd" d="M14.556 15.543c0 3.25 2.638 5.887 5.887 5.887 3.227 0 5.888-2.637 5.888-5.887 0-3.25-2.638-5.888-5.888-5.888s-5.887 2.638-5.887 5.888z" clip-rule="evenodd"/>
    <path fill="#F8CA06" fill-rule="evenodd" d="M174.225 15.543c0 3.25 2.638 5.887 5.887 5.887 3.227 0 5.888-2.637 5.888-5.887 0-3.25-2.638-5.888-5.888-5.888-3.249 0-5.887 2.638-5.887 5.888z" clip-rule="evenodd"/>
</svg>
