<svg xmlns="http://www.w3.org/2000/svg" width="325" height="132" fill="none" viewBox="0 0 325 132">
    <path fill="#00B559" d="M0 15C0 6.716 6.716 0 15 0h295c8.284 0 15 6.716 15 15v102c0 8.284-6.716 15-15 15H15c-8.284 0-15-6.716-15-15V15z"/>
    <mask id="prefix__a" width="325" height="132" x="0" y="0" maskUnits="userSpaceOnUse">
        <path fill="#00B559" d="M0 15C0 6.716 6.716 0 15 0h295c8.284 0 15 6.716 15 15v102c0 8.284-6.716 15-15 15H15c-8.284 0-15-6.716-15-15V15z"/>
    </mask>
    <g mask="url(#prefix__a)">
        <path fill="#F8CA06" d="M198 134.663c0-10.306 8.354-18.66 18.659-18.66 10.306 0 18.66 8.354 18.66 18.66v12.681c0 10.305-8.354 18.659-18.66 18.659-10.305 0-18.659-8.354-18.659-18.659v-12.681z"/>
        <path fill="#fff" d="M206 0h37.319v37.506c0 10.305-8.354 18.66-18.66 18.66-10.305 0-18.659-8.355-18.659-18.66V0zM332.368 96.733c0 11.45-9.283 20.732-20.733 20.732-11.45 0-20.733-9.282-20.733-20.732S300.185 76 311.635 76c11.45 0 20.733 9.282 20.733 20.733z" opacity=".2"/>
        <path fill="#F8CA06" d="M275.088 17.884c0 6.375-5.169 11.544-11.544 11.544-6.376 0-11.544-5.169-11.544-11.544V0h23.088v17.884z"/>
        <path fill="#fff" d="M143.001 99.604c0-7.084 5.743-12.827 12.827-12.827s12.826 5.743 12.826 12.827-5.742 12.826-12.826 12.826c-7.084 0-12.827-5.742-12.827-12.826z" opacity=".2"/>
    </g>
</svg>
