<svg xmlns="http://www.w3.org/2000/svg" width="208" height="181" fill="none" viewBox="0 0 208 181">
    <path fill="#F8CA06" d="M207.422 90c0 48.1-37.7 87.4-85.2 89.9h-1.4c-1.1 0-2.2.1-3.3.1-23.3 0-44.5-8.8-60.5-23.4l-.6-.6c-.2-.2-.4-.3-.6-.5-17.6-16.4-28.4-39.7-28.4-65.5 0-49.7 40.3-90 90-90s90 40.3 90 90z"/>
    <path fill="#fff" d="M146.423 47.2l4.4-.5c.3 0 .6-.2.7-.5.6-1.7 2.8-7.5 2.8-8.9 0-1.7-3.2-2.2-3.5-3.7-.4-1.5-2.6-7.7-3-7.6-.4.1-15.3 5.3-15.8 6.4-.5 1.1 3.1 4.6 3.2 5.6.1 1-1.3 9.5-.1 10.1 1.3.6 11.3-.9 11.3-.9z"/>
    <path fill="#181C19" d="M136.723 48.9c-.8 0-1.5-.1-1.8-.2-1.1-.6-1-3-.4-8.6.1-.9.2-1.9.2-2.1-.1-.2-.7-1.1-1.2-1.8-1.5-2-2.4-3.2-1.9-4.1.7-1.5 16.1-6.8 16.3-6.8.2 0 .4 0 .5.1 1 .6 3.2 7.9 3.3 8 .1.4.8.8 1.4 1.2 1 .6 2.2 1.3 2.2 2.7 0 1.1-.9 4-2.8 9.1-.2.6-.7.9-1.3 1l-4.4.5c-2.6.4-7.4 1-10.1 1zm-1.1-1.4c.9.2 6.2-.3 10.7-1l4.4-.5c.1 0 .1 0 .2-.1 2.3-6 2.7-8 2.7-8.7 0-.5-.6-.9-1.5-1.5-.9-.5-1.8-1.1-2-2-.3-1.3-1.9-5.7-2.5-6.9-2.5.8-13.6 4.9-14.9 5.9.1.4 1.2 1.9 1.8 2.7.9 1.2 1.4 1.9 1.5 2.5 0 .3 0 1-.2 2.4-.1 1.7-.6 6.3-.2 7.2z"/>
    <path fill="#fff" d="M7.024 71.8c-1.9.2-3.3.1-3.3.1-3.6-7.3-3-16.4-3-16.4 1.1-.3 2-.4 2.9-.6.1 0 .6 10.7 3.4 16.9z"/>
    <path fill="#181C19" d="M4.224 72.6h-.5c-.3 0-.5-.2-.6-.4-3.6-7.4-3.1-16.4-3.1-16.8 0-.3.2-.6.5-.6l3-.6h.1c.7 0 .7.6.7.9.2 3.3 1 11.4 3.2 16.4.2.2.2.5.1.7-.1.2-.3.3-.5.3-1.3.1-2.3.1-2.9.1zm0-1.4h1.8c-1.9-4.9-2.7-12-2.9-15.4-.5.1-1.1.2-1.6.3-.1 1.9-.1 9.1 2.7 15.1zM33.523 52.5h-2.7V51c0-.6.5-1.1 1.1-1.1h.4c.6 0 1.1.5 1.1 1.1v.6c.1.4.1.6.1.9z"/>
    <path fill="#181C19" d="M33.523 53.2h-2.7c-.4 0-.7-.3-.7-.7V51c0-1 .8-1.8 1.8-1.8h.4c1 0 1.8.8 1.8 1.8v.7c0 .2 0 .4.1.6.1.2 0 .4-.1.6-.1.2-.3.3-.6.3zm-2-1.4h1.2v-.7c0-.2-.2-.4-.4-.4h-.4c-.2 0-.4.2-.4.4v.7z"/>
    <path fill="#fff" d="M35.623 60.3c-.2 1-.4 2.8-.8 6.2-.2 2-1.6.5-2.8-1.1-1.2-1.6-3.1-2.6-5.1-2.6-2.8 0-6.5.7-8.1 3.9-1.2 2.5-4.4 3.8-7.6 4.4-2.7-6.1-3.2-16.3-3.2-16.3 4.9.5 5.8 3.6 9.3 4.3 3.9.8 6.7-2.1 7.6-3.2.2-.2.1-.5-.1-.7-1.3-.8-5.5-3.3-6.2-3.8-.9-.6-1.1-2.8.9-1.7 2 1.1 5.2 2.4 6.6 1.4 1.3-1 5 1.3 5 1.3h2.7c.1.3.2.6.3.8 2 4.1 1.7 6.1 1.5 7.1z"/>
    <path fill="#181C19" d="M11.322 71.9c-.3 0-.5-.2-.6-.4-2.8-6.2-3.3-16.3-3.4-16.7 0-.2.1-.4.2-.5.1-.1.3-.2.6-.2 2.9.3 4.5 1.5 6 2.5 1.1.8 2 1.5 3.4 1.8 3.3.7 5.8-1.7 6.7-2.8-.4-.2-1-.6-1.7-1-1.8-1.1-3.8-2.3-4.3-2.6-.9-.5-1.2-1.9-.8-2.6.2-.3.8-1.1 2.4-.2 2.6 1.4 5 2 5.8 1.4 1.5-1.1 4.6.6 5.6 1.2h2.5c.3 0 .6.2.7.5.1.2.1.4.2.6 1.7 3.1 2.2 5.5 1.8 7.5-.2.8-.4 2.4-.7 5.3l-.1.9c-.1.9-.4 1.4-1 1.6-.8.2-1.7-.5-3.1-2.3-1.1-1.5-2.7-2.3-4.5-2.3-2.6 0-6 .7-7.5 3.6-1.1 2.3-3.9 4-8.1 4.8 0-.1-.1-.1-.1-.1zm-2.6-16.3c.2 2.5.9 9.8 3 14.8 2.5-.6 5.4-1.7 6.5-3.9 1.7-3.5 5.7-4.3 8.7-4.3 2.2 0 4.3 1.1 5.6 2.9.8 1.1 1.3 1.5 1.5 1.7v-.3l.1-.9c.3-2.9.5-4.5.7-5.5.4-1.6-.2-3.8-1.6-6.5-.1-.1-.2-.3-.2-.5h-2.2c-.1 0-.3 0-.4-.1-1.6-1-3.6-1.8-4.2-1.4-1.9 1.4-6.1-.7-7.3-1.3-.3-.1-.4-.2-.5-.2 0 .2.1.5.3.7.5.3 2.6 1.6 4.3 2.6.8.5 1.5.9 2 1.2.3.2.5.5.5.8 0 .3 0 .6-.2.9-.8 1-3.9 4.3-8.2 3.5-1.7-.3-2.9-1.2-4-2-1.1-.9-2.3-1.8-4.4-2.2z"/>
    <path fill="#181C19" d="M29.722 56.1c-.2 0-.4-.1-.6-.3-.2-.3-.2-.7.1-1 .9-.7.8-2.3.8-2.3 0-.4.3-.7.6-.7.4 0 .7.3.7.6 0 .1.2 2.4-1.4 3.5.1.2 0 .2-.2.2z"/>
    <path fill="#F8CA06" d="M11.224 71.2c-1.5.3-3 .5-4.3.6-2.7-6.2-3.2-16.9-3.2-16.9 1.7-.2 3.1-.3 4.3-.2-.1.1.4 10.3 3.2 16.5z"/>
    <path fill="#181C19" d="M7.023 72.5c-.3 0-.5-.2-.6-.4-2.9-6.2-3.4-16.7-3.4-17.1 0-.4.2-.7.6-.7 1.7-.3 3.2-.3 4.4-.2.3 0 .6.3.6.7 0 .4.6 10.3 3.2 16.2.1.2.1.4 0 .6-.1.2-.3.3-.5.4-1.2.2-2.6.4-4.3.5zm-2.6-16.9c.2 2.3.8 10.4 3 15.5 1-.1 2-.2 2.8-.4-2.2-5.4-2.8-12.9-3-15.3-.8 0-1.7 0-2.8.2zM102.822 65.4H102.522c-3.8-.7-10.8-2.6-15.4-7.6-.1-.2-.2-.4-.2-.6 0-.2.2-.4.3-.5 2.4-1.4 3.5-2.5 4-3.1-.4-.4-.5-.9-.4-1.6v-.1c.1-.4.3-.8.5-1.3.6-1.3 1.5-2.5 2.7-3.6 3.7-3.5 7.1-4.7 7.3-4.8.3-.1.6 0 .7.2 1.7 1.8 4.3 1.4 4.4 1.4.2 0 .4 0 .6.2.2.2.2.3.2.6-.1 2 .4 4.1.4 4.1.3 1.6-.2 3-1.4 4.5-2.3 2.7-3.5 6.1-3.1 9.5.1.5.2 1 .3 1.4.1.2.1.5.2.7 0 .2 0 .5-.2.6-.3-.1-.5 0-.6 0zm-14.2-8c4 3.9 9.6 5.7 13.2 6.4-.1-.3-.2-.7-.2-1.1-.4-3.7.9-7.6 3.5-10.6.9-1.1 1.3-2.2 1.1-3.3 0 0-.5-1.8-.5-3.7-1 0-2.9-.2-4.4-1.6-1 .4-3.6 1.7-6.4 4.3-1.1 1-1.9 2.1-2.4 3.2-.2.4-.3.7-.4 1v.3h.1c.4 0 .7.3.7.7v.3c-.2.5-1 2.1-4.3 4.1z"/>
    <path fill="#181C19" d="M87.523 57.9c-.2 0-.4-.1-.5-.2l-.1-.1-.2-.2c-.1-.1-.1-.2-.2-.2-.2-.3-.2-.6 0-.9 1.4-1.8 3.1-2.9 4.2-3.4-.1-.5 0-.9 0-1.1.1-.4.5-.6.8-.5.4.1.6.4.5.8v.3c.1 0 .2 0 .2.1.1 0 .3.1.4.2.1.2.2.4.1.6-.2.5-1 2.2-5 4.5 0 .1-.1.1-.2.1z"/>
    <path fill="#181C19" d="M92.122 53.8c-.4 0-.7-.3-.7-.7 0-.4.3-.7.7-.7.7 0 2.3-.7 3.2-1.3.3-.2.8-.1 1 .2.2.3.1.8-.2 1-.4.2-2.6 1.5-4 1.5z"/>
    <path fill="#fff" d="M96.622 35.1c-.6 1.9-1.1 3.9-1.5 5.7v.2c-.3 1.8-.5 3.4-.6 4.5-.1 1.1-.1 1.8 0 1.8-1 1-2 2.2-2.6 3.4-.2.5-.4.9-.4 1.3-.1.5 0 .8.2 1 .1.1.3.2.5.2-.1.2-.7 1.8-4.7 4.1-6.4-6.4-7.2-23.8 9.1-22.2z"/>
    <path fill="#181C19" d="M87.522 57.9c-.2 0-.4-.1-.5-.2-3.8-3.7-6-11.5-3.3-17.3 2.1-4.5 6.7-6.6 12.9-6 .2 0 .4.1.5.3.1.2.1.4.1.6-.6 1.6-1 3.5-1.4 5.6 0 .1 0 .2-.1.3-.4 2.1-.5 3.6-.6 4.4-.1 1-.1 1.4-.1 1.5.1.2 0 .5-.2.7-1.1 1.1-1.9 2.2-2.4 3.2-.2.4-.3.7-.4 1v.3h.1c.4 0 .7.3.7.7v.3c-.2.5-1.1 2.2-5 4.4-.1.2-.2.2-.3.2zm7.1-22.2c-4.7 0-8 1.8-9.6 5.3-2.3 5-.5 11.9 2.6 15.3 2.1-1.3 3.1-2.3 3.5-2.8-.2-.2-.6-.6-.4-1.6v-.1c.1-.4.2-.9.5-1.4.5-1.1 1.3-2.2 2.5-3.4 0-.3 0-.8.1-1.6.1-1.3.3-3 .6-4.6 0-.2 0-.2.1-.3.3-1.7.7-3.4 1.2-4.9-.4.1-.8.1-1.1.1z"/>
    <path fill="#181C19" d="M101.523 42.6s-3.4 1.3-7 4.7c-.3.1.2-6.7 2.1-12.2 1.2-3.7 3.2-6.8 5.9-7.3 5.2-.8 3.1 10.3-1 14.8z"/>
    <path fill="#181C19" d="M94.523 47.9c-.2 0-.4-.1-.5-.2-.7-.8.4-8.3 2-12.9s3.8-7.3 6.4-7.7c1.5-.2 2.6.4 3.3 1.6 1.7 3.2-.3 10.7-3.7 14.4-.1.1-.2.1-.3.2 0 0-3.3 1.3-6.8 4.5-.1.1-.2.1-.3.2 0-.1-.1-.1-.1-.1zm8.5-19.5h-.4c-2.1.3-4 2.8-5.3 6.8-1.4 3.9-2 8.3-2.1 10.4 2.8-2.3 5.3-3.5 5.9-3.7 2.9-3.2 4.7-10 3.4-12.6-.4-.6-.8-.9-1.5-.9zM128.123 115.8c-9.2 5.5-11.1 10.5-11.6 14.5-30.5 22.6-57.2-.8-57.2-.8-.8-6-3.7-13.5-13.3-18.2-5.8-15.2-2.1-28.1-2-28.3 3-1.3 5.8-4 7.7-6 4.7-5.2 10.3-10.2 20.8-13.7 6.7-2.2 14.8-5.9 15-6 5.5 6 14.5 7.3 15.3 7.5 5.7 12.4 18 14.3 26 11.3-.1-.1 9.3 19.8-.7 39.7z"/>
    <path fill="#181C19" d="M88.823 140.8c-17.4 0-29.8-10.6-30-10.8-.1-.1-.2-.3-.2-.4-1-8-5.3-13.9-12.9-17.7-.2-.1-.3-.2-.3-.4-5.7-14.8-2.4-27.4-2-28.8.1-.2.2-.4.4-.5 3.1-1.4 6-4.3 7.4-5.9 4.5-5.1 10.2-10.2 21.1-13.9 6.7-2.2 14.8-6 14.9-6 .3-.1.6-.1.8.2 4.3 4.7 11 6.5 14.6 7.2h.2c.2 0 .4.2.5.4 5.9 12.7 18.2 13.5 25.1 10.9.3-.1.7 0 .9.4.1.2 9.5 20.5-.6 40.5l-.3.3c-9.2 5.4-10.8 10.3-11.3 14 0 .2-.1.4-.3.5-9.9 7.5-19.6 10-28 10zm-28.9-11.6c2.5 2 27.7 21.5 55.9.8.5-3.9 2.5-9.1 11.8-14.6 8.7-17.5 2.1-35.1.7-38.5-7.4 2.5-19.9 1.3-26.1-11.6-3.7-.7-10.4-2.5-14.9-7.2-1.8.8-8.7 3.9-14.6 5.9-10.6 3.5-16.1 8.6-20.5 13.5-1.8 2-4.5 4.6-7.6 6.1-.6 2.4-3.1 13.9 2 27.3 7.7 3.8 12.2 10 13.3 18.3z"/>
    <path fill="#F8CA06" d="M133.123 113.2c-1.8.9-3.5 1.8-5 2.6 10-19.9.6-39.8.6-39.8 2.1-.8 3.9-1.9 5.2-3.3 6.1-6.5 5.9-12.5 5.8-15.4-.1-2.9-2.5-9.4.6-18.2 3.1-8.8 7.1-8.3 6.2 1.7-.9 10 2.1 20.9 2.1 20.9 5 12.7 2.1 43.1-15.5 51.5z"/>
    <path fill="#181C19" d="M128.123 116.5c-.2 0-.3-.1-.5-.2-.2-.2-.3-.5-.1-.8 9.7-19.4.7-39 .6-39.2-.1-.2-.1-.4 0-.6.1-.2.2-.3.4-.4 2.1-.8 3.8-1.9 5-3.2 5.9-6.4 5.7-12.1 5.6-14.9 0-.6-.2-1.5-.3-2.5-.6-3.6-1.5-9 .9-16 1.6-4.6 3.6-7 5.4-6.7 1.9.4 2.7 3.5 2.2 8.7-.8 9.8 2.1 20.6 2.1 20.7 2.6 6.7 3 17.8.7 27.7-2.7 12.1-8.6 20.8-16.7 24.6-1.9.9-3.5 1.8-4.9 2.6-.2.2-.3.2-.4.2zm1.5-40.1c1.5 3.6 7.6 20.5.1 37.8 1-.5 2-1 3.1-1.6 17.1-8.2 20.1-38.1 15.2-50.6-.1-.2-3-11.3-2.2-21.3.5-5.6-.6-7.1-1.1-7.2-.6-.1-2.2 1.3-3.8 5.7-2.3 6.6-1.5 11.9-.9 15.3.2 1 .3 1.9.3 2.7.1 3 .3 9.1-5.9 15.9-1.2 1.3-2.8 2.4-4.8 3.3z"/>
    <path fill="#fff" d="M116.223 134.4c.1-1.2.1-2.5.2-4-30.5 22.6-57.2-.8-57.2-.8.4 3.2.2 6 0 7.8-.2 2.2-1.5 10-3 18.7l.6.6c16 14.5 37.2 23.4 60.5 23.4 1.1 0 2.2 0 3.3-.1h.7c-1.7-10.8-5.7-35.7-5.1-45.6z"/>
    <path fill="#181C19" d="M116.923 134.4v-1.1c0-.9.1-1.8.2-2.8 0-.3-.1-.5-.3-.7-.2-.1-.5-.1-.8 0-29.7 22-56.1-.6-56.3-.8-.2-.2-.5-.2-.8-.1-.3.1-.4.4-.4.7.3 2.4.3 4.9 0 7.6-.3 2.9-1.5 10.2-2.9 18.2.2.2.4.4.6.5l.6.6c1.7-9.4 2.9-17.8 3.1-19.2.2-2.2.3-4.3.2-6.3 5.7 4.2 29.2 19.2 55.5.7 0 .5 0 1-.1 1.4v1.1c-.6 10.1 3.3 34.8 5.2 45.6h1.4c-1.8-10.6-5.7-35.5-5.2-45.4z"/>
    <path fill="#F8CA06" d="M46.024 111.301c-1.3-.7-2.7-1.2-4.2-1.8-19.1-6.5-23.3-33.7-18.5-47.4 4.8-13.7 6.6.1 6.6.1 1.8 20.8 8.3 23.3 14.1 20.8-.1.2-3.8 13.1 2 28.3z"/>
    <path fill="#181C19" d="M46.023 112.001c-.1 0-.2 0-.3-.1-1.3-.6-2.7-1.2-4.2-1.7-6.9-2.4-12.5-7.7-16.2-15.3-4.9-10.1-6-23.7-2.7-33.1 1.6-4.7 3.1-6.7 4.7-6.5 2.3.2 3.1 5.2 3.3 6.8 1 11.2 3.4 18 7.1 20.2 1.7 1 3.7 1 6 0 .2-.1.5-.1.7.1.2.2.3.5.2.7-.4 1.4-3.5 13.5 2 27.9.1.3 0 .6-.2.8-.1.2-.2.2-.4.2zm-18.9-55.3c-.2 0-1.3.3-3.2 5.6-2.6 7.4-2.9 20.6 2.7 32 3.5 7.3 8.8 12.3 15.4 14.5 1 .3 1.9.7 2.8 1.1-4.1-12-2.5-22.2-1.8-25.9-2.2.7-4.3.5-6-.6-4.1-2.5-6.8-9.6-7.8-21.3-.4-2.4-1.3-5.3-2.1-5.4zM160.823 74.7c-.3 0-.5-.1-.7-.2-1.8-1 0-6.6 1.2-9.9.1-.4.5-.5.9-.4.4.1.5.5.4.9-1.4 3.8-2.3 7.6-1.8 8.2 0 0 1.2-.1 5.5-5.5.1-.2.9-1.2 1.9-.9.9.3 1.2 1.3 1.2 3.6 0 .2 0 .7.3.8.1.1.9.3 3.3-1.6 0 0 1.1-.9 2.5-.7 1 .1 1.9.8 2.6 1.9.2.3 1.1.5 3.5-1.1.2-.1.4-.3.6-.4.3-.3 1.5-.9 3.2.3.1.1.2.1.2.2.1 0 .1.1.2.1.3.2.4.7.2 1-.2.3-.7.4-1 .2-.1-.1-.2-.1-.3-.2-.1 0-.1-.1-.2-.1-.9-.6-1.4-.4-1.5-.3-.2.2-.4.3-.6.5-1.8 1.2-3.3 1.7-4.3 1.4-.8-.2-1.1-.7-1.1-.8-.5-.7-1-1.1-1.6-1.2-.8-.1-1.4.4-1.4.4-2.2 1.7-3.8 2.3-4.8 1.7-.9-.5-1.1-1.5-1.1-2.1 0-1.4-.2-1.9-.3-2.1-.1.1-.2.2-.3.4-3.9 4.7-5.6 5.9-6.7 5.9zM156.622 57.5h-.2c-1.6-.2-2.4-2.4-2.5-2.7-.1-.4.101-.8.401-.9.4-.1.799.1.899.4.2.7.801 1.7 1.301 1.8.3 0 .8-.3 1.3-1 .9-1.3 1.9-2.1 3-2.1.7 0 1.599.1 2.599 1.3h.2c.1 0 .401 0 .6-.2.4-.3.7-.3 1-.2.601.1.901.7 1.101 1.2.1.1.1.2.2.3.9.1 5.2-.1 6-.4.6-.2.999 0 1.199.1.601.5.601 1.4.601 1.6 0 .4-.4.7-.8.6-.4 0-.701-.4-.601-.8v-.3c-1.4.4-6.3.6-7 .3-.4-.1-.6-.6-.8-1-.1-.1-.1-.3-.2-.4-1 .6-2.099.3-2.399-.1-.6-.6-1.101-.9-1.601-.9-.6 0-1.299.6-1.899 1.5-.8 1.3-1.601 1.9-2.401 1.9zM168.123 44h-.2c-.7-.1-1.1-.6-1.3-.9-.8-1.2-1.6-1.8-2.3-1.8-.8 0-1.4.8-1.4.8-.2.3-.6.4-1 .2-.3-.2-.4-.7-.2-1 0-.1 1-1.4 2.6-1.4 1.2 0 2.4.8 3.4 2.5l.1.1s.1.1.2.1c.2 0 1.8-.2 5.7-5.7.2-.3.7-.4 1-.2.3.2.4.7.2 1-2.9 4.2-5.1 6.3-6.8 6.3z"/>
    <path fill="#fff" d="M146.423 47.2l4.4-.5c.3 0 .6-.2.7-.5.6-1.7 2.8-7.5 2.8-8.9 0-1.7-3.2-2.2-3.5-3.7-.4-1.5-2.6-7.7-3-7.6-.4.1-15.3 5.3-15.8 6.4-.5 1.1 3.1 4.6 3.2 5.6.1 1-1.3 9.5-.1 10.1 1.3.6 11.3-.9 11.3-.9z"/>
    <path fill="#181C19" d="M136.723 48.9c-.8 0-1.5-.1-1.8-.2-1.1-.6-1-3-.4-8.6.1-.9.2-1.9.2-2.1-.1-.2-.7-1.1-1.2-1.8-1.5-2-2.4-3.2-1.9-4.1.7-1.5 16.1-6.8 16.3-6.8.2 0 .4 0 .5.1 1 .6 3.2 7.9 3.3 8 .1.4.8.8 1.4 1.2 1 .6 2.2 1.3 2.2 2.7 0 1.1-.9 4-2.8 9.1-.2.6-.7.9-1.3 1l-4.4.5c-2.6.4-7.4 1-10.1 1zm-1.1-1.4c.9.2 6.2-.3 10.7-1l4.4-.5c.1 0 .1 0 .2-.1 2.3-6 2.7-8 2.7-8.6 0-.5-.6-.9-1.5-1.5-.9-.5-1.8-1.1-2-2-.3-1.3-1.9-5.7-2.5-6.9-2.5.8-13.6 4.9-14.9 5.9.1.4 1.2 1.9 1.8 2.7.9 1.2 1.4 1.9 1.5 2.5 0 .3 0 1-.2 2.4-.1 1.6-.6 6.2-.2 7.1z"/>
    <path fill="#fff" d="M7.024 71.8c-1.9.2-3.3.1-3.3.1-3.6-7.3-3-16.4-3-16.4 1.1-.3 2-.4 2.9-.6.1 0 .6 10.7 3.4 16.9z"/>
    <path fill="#181C19" d="M4.224 72.6h-.5c-.3 0-.5-.2-.6-.4-3.6-7.4-3.1-16.4-3.1-16.8 0-.3.2-.6.5-.6l3-.6h.1c.7 0 .7.6.7.9.2 3.3 1 11.4 3.2 16.4.2.2.2.5.1.7-.1.2-.3.3-.5.3-1.3.1-2.3.1-2.9.1zm0-1.4h1.8c-1.9-4.9-2.7-12-2.9-15.4-.5.1-1.1.2-1.6.3-.1 1.9-.1 9.1 2.7 15.1zM33.523 52.5h-2.7V51c0-.6.5-1.1 1.1-1.1h.4c.6 0 1.1.5 1.1 1.1v.6c0 .4.1.6.1.9z"/>
    <path fill="#181C19" d="M33.523 53.2h-2.7c-.4 0-.7-.3-.7-.7V51c0-1 .8-1.8 1.8-1.8h.4c1 0 1.8.8 1.8 1.8v.7c0 .2 0 .4.1.6.1.2 0 .4-.1.6-.1.2-.3.3-.6.3zm-2-1.4h1.2v-.7c0-.2-.2-.4-.4-.4h-.4c-.2 0-.4.2-.4.4v.7z"/>
    <path fill="#fff" d="M35.623 60.3c-.2 1-.4 2.8-.8 6.2-.2 2-1.6.5-2.8-1.1-1.2-1.6-3.1-2.6-5.1-2.6-2.8 0-6.5.7-8.1 3.9-1.2 2.5-4.4 3.8-7.6 4.4-2.7-6.1-3.2-16.3-3.2-16.3 4.9.5 5.8 3.6 9.3 4.3 3.9.8 6.7-2.1 7.6-3.2.2-.2.1-.5-.1-.7-1.3-.8-5.5-3.3-6.2-3.8-.9-.6-1.1-2.8.9-1.7 2 1.1 5.2 2.4 6.6 1.4 1.3-1 5 1.3 5 1.3h2.7c.1.3.2.6.3.8 2 4.1 1.7 6.1 1.5 7.1z"/>
    <path fill="#181C19" d="M11.322 71.9c-.3 0-.5-.2-.6-.4-2.8-6.2-3.3-16.3-3.4-16.7 0-.2.1-.4.2-.5.1-.1.3-.2.6-.2 2.9.3 4.5 1.5 6 2.5 1.1.8 2 1.5 3.4 1.8 3.3.7 5.8-1.7 6.7-2.8-.4-.2-1-.6-1.7-1-1.8-1.1-3.8-2.3-4.3-2.6-.9-.5-1.2-1.9-.8-2.6.2-.3.8-1.1 2.4-.2 2.6 1.4 5 2 5.8 1.4 1.5-1.1 4.6.6 5.6 1.2h2.5c.3 0 .6.2.7.5.1.2.1.4.2.6 1.7 3.1 2.2 5.5 1.8 7.5-.2.8-.4 2.4-.7 5.3l-.1.9c-.1.9-.4 1.4-1 1.6-.8.2-1.7-.5-3.1-2.3-1.1-1.5-2.7-2.4-4.5-2.3-2.6 0-6 .7-7.5 3.6-1.1 2.3-3.9 4-8.1 4.8 0-.1-.1-.1-.1-.1zm-2.6-16.3c.2 2.5.9 9.8 3 14.8 2.5-.6 5.4-1.7 6.5-3.9 1.7-3.5 5.7-4.3 8.7-4.3 2.2 0 4.3 1.1 5.6 2.9.8 1.1 1.3 1.5 1.5 1.7v-.3l.1-.9c.3-2.9.5-4.5.7-5.5.4-1.6-.2-3.8-1.6-6.5-.1-.1-.2-.3-.2-.5h-2.2c-.1 0-.3 0-.4-.1-1.6-1-3.6-1.8-4.2-1.4-1.9 1.4-6.1-.7-7.3-1.3-.3-.1-.4-.2-.5-.2 0 .2.1.5.3.7.5.3 2.6 1.6 4.3 2.6.8.5 1.5.9 2 1.2.3.2.5.5.5.8 0 .3 0 .6-.2.9-.8 1-3.9 4.3-8.2 3.5-1.7-.3-2.9-1.2-4-2-1.1-.9-2.3-1.8-4.4-2.2z"/>
    <path fill="#181C19" d="M29.722 56.1c-.2 0-.4-.1-.6-.3-.2-.3-.2-.7.1-1 .9-.7.8-2.3.8-2.3 0-.4.3-.7.6-.8.4 0 .7.3.8.6 0 .1.2 2.4-1.4 3.5 0 .3-.1.3-.3.3z"/>
    <path fill="#F8CA06" d="M11.224 71.2c-1.5.3-3 .5-4.3.6-2.7-6.2-3.2-16.9-3.2-16.9 1.7-.2 3.1-.3 4.3-.2-.1.1.4 10.3 3.2 16.5z"/>
    <path fill="#181C19" d="M7.023 72.5c-.3 0-.5-.2-.6-.4-2.9-6.2-3.4-16.7-3.4-17.1 0-.4.2-.7.6-.7 1.7-.3 3.2-.3 4.4-.2.3 0 .6.3.6.7 0 .4.6 10.3 3.2 16.2.1.2.1.4 0 .6-.1.2-.3.3-.5.4-1.2.2-2.6.4-4.3.5zm-2.6-16.9c.2 2.3.8 10.4 3 15.5 1-.1 2-.2 2.8-.4-2.2-5.4-2.8-12.9-3-15.3-.8 0-1.7 0-2.8.2zM102.822 65.4H102.522c-3.8-.7-10.8-2.6-15.4-7.6-.1-.2-.2-.4-.2-.6 0-.2.2-.4.3-.5 2.4-1.4 3.5-2.5 4-3.1-.4-.4-.5-.9-.4-1.6v-.1c.1-.4.3-.8.5-1.3.6-1.3 1.5-2.5 2.7-3.6 3.7-3.5 7.1-4.7 7.3-4.8.3-.1.6 0 .7.2 1.7 1.8 4.3 1.4 4.4 1.4.2 0 .4 0 .6.2.2.2.2.3.2.6-.1 2 .4 4.1.4 4.1.3 1.6-.2 3-1.4 4.5-2.3 2.7-3.5 6.1-3.1 9.5.1.5.2 1 .3 1.4.1.2.1.5.2.7 0 .2 0 .5-.2.6-.3-.1-.5 0-.6 0zm-14.2-8c4 3.9 9.6 5.7 13.2 6.4-.1-.3-.2-.7-.2-1.1-.4-3.7.9-7.6 3.5-10.6.9-1.1 1.3-2.2 1.1-3.3 0 0-.5-1.8-.5-3.7-1 0-2.9-.2-4.4-1.6-1 .4-3.6 1.7-6.4 4.3-1.1 1-1.9 2.1-2.4 3.2-.2.4-.3.7-.4 1v.3h.1c.4 0 .7.3.7.7v.3c-.2.5-1 2.1-4.3 4.1z"/>
    <path fill="#181C19" d="M87.523 57.9c-.2 0-.4-.1-.5-.2l-.1-.1-.2-.2c-.1-.1-.1-.2-.2-.2-.2-.3-.2-.6 0-.9 1.4-1.8 3.1-2.9 4.2-3.4-.1-.5 0-.9 0-1.1.1-.4.5-.6.8-.5.4.1.6.4.5.8v.3c.1 0 .2 0 .2.1.1 0 .3.1.4.2.1.2.2.4.1.6-.2.5-1 2.2-5 4.5 0 .1-.1.1-.2.1z"/>
    <path fill="#181C19" d="M92.122 53.8c-.4 0-.7-.3-.7-.7 0-.4.3-.7.7-.7.7 0 2.3-.7 3.2-1.3.3-.2.8-.1 1 .2.2.3.1.8-.2 1-.4.2-2.6 1.5-4 1.5z"/>
    <path fill="#fff" d="M96.622 35.1c-.6 1.9-1.1 3.9-1.5 5.7v.2c-.3 1.8-.5 3.4-.6 4.5-.1 1.1-.1 1.8 0 1.8-1 1-2 2.2-2.6 3.4-.2.5-.4.9-.4 1.3-.1.5 0 .8.2 1 .1.1.3.2.5.2-.1.2-.7 1.8-4.7 4.1-6.4-6.4-7.2-23.8 9.1-22.2z"/>
    <path fill="#181C19" d="M87.522 57.9c-.2 0-.4-.1-.5-.2-3.8-3.7-6-11.5-3.3-17.3 2.1-4.5 6.7-6.6 12.9-6 .2 0 .4.1.5.3.1.2.1.4.1.6-.6 1.6-1 3.5-1.4 5.6 0 .1 0 .2-.1.3-.4 2.1-.5 3.6-.6 4.4-.1 1-.1 1.4-.1 1.5.1.2 0 .5-.2.7-1.1 1.1-1.9 2.2-2.4 3.2-.2.4-.3.7-.4 1v.3h.1c.4 0 .7.3.7.7v.3c-.2.5-1.1 2.2-5 4.4-.1.2-.2.2-.3.2zm7.1-22.2c-4.7 0-8 1.8-9.6 5.3-2.3 5-.5 11.9 2.6 15.3 2.1-1.3 3.1-2.3 3.5-2.8-.2-.2-.6-.6-.4-1.6v-.1c.1-.4.2-.9.5-1.4.5-1.1 1.3-2.2 2.5-3.4 0-.3 0-.8.1-1.6.1-1.3.3-3 .6-4.6 0-.2 0-.2.1-.3.3-1.7.7-3.4 1.2-4.9-.4.1-.8.1-1.1.1z"/>
    <path fill="#181C19" d="M101.523 42.6s-3.4 1.3-7 4.7c-.3.1.2-6.7 2.1-12.2 1.2-3.7 3.2-6.8 5.9-7.3 5.2-.8 3.1 10.3-1 14.8z"/>
    <path fill="#181C19" d="M94.523 47.9c-.2 0-.4-.1-.5-.2-.7-.8.4-8.3 2-12.9s3.8-7.3 6.4-7.7c1.5-.2 2.6.4 3.3 1.6 1.7 3.2-.3 10.7-3.7 14.4-.1.1-.2.1-.3.2 0 0-3.3 1.3-6.8 4.5-.1.1-.2.1-.3.2 0-.1-.1-.1-.1-.1zm8.5-19.5h-.4c-2.1.3-4 2.8-5.3 6.8-1.4 3.9-2 8.3-2.1 10.4 2.8-2.3 5.3-3.5 5.9-3.7 2.9-3.2 4.7-10 3.4-12.6-.4-.6-.8-.9-1.5-.9zM128.124 115.8c-9.2 5.5-11.1 10.5-11.6 14.5-15.5 11.5-30 11.1-40.5 7.9-11.7-3.5-16.1-17.5-26-24.6-1.2-.8-2.5-1.6-3.9-2.3-5.8-15.2-2.1-28.1-2-28.3 3-1.3 5.8-4 7.7-6 4.7-5.2 10.3-10.2 20.8-13.7 6.7-2.2 14.8-5.9 15-6 5.5 6 14.5 7.3 15.3 7.5 5.7 12.4 18 14.3 26 11.3-.2-.1 9.2 19.8-.8 39.7z"/>
    <path fill="#181C19" d="M88.623 140.9c-4.9 0-9.2-.8-12.9-1.9-7.1-2.1-11.6-8-16-13.7-3.1-4-6.2-8.1-10.2-11-1.2-.8-2.5-1.6-3.8-2.3-.2-.1-.3-.2-.3-.4-5.7-14.8-2.4-27.4-2-28.8.1-.2.2-.4.4-.5 3.1-1.4 6-4.3 7.4-5.9 4.5-5.1 10.2-10.2 21.1-13.9 6.7-2.2 14.8-6 14.9-6 .3-.1.6-.1.8.2 4.3 4.7 11 6.5 14.6 7.2h.2c.2 0 .4.2.5.4 5.9 12.7 18.2 13.5 25.1 10.9.3-.1.7 0 .9.4.1.2 9.5 20.5-.6 40.5l-.3.3c-9.2 5.4-10.8 10.3-11.3 14 0 .2-.1.4-.3.5-10.1 7.6-19.9 10-28.2 10zm-42.1-30.1c1.4.7 2.6 1.5 3.8 2.3 4.2 3 7.4 7.2 10.5 11.3 4.4 5.8 8.6 11.3 15.3 13.3 9.5 2.9 24 3.8 39.7-7.6.5-3.9 2.5-9.1 11.8-14.6 8.7-17.5 2.1-35.1.7-38.5-7.4 2.5-19.9 1.3-26.1-11.6-3.7-.7-10.4-2.5-14.9-7.2-1.8.8-8.7 3.9-14.6 5.9-10.6 3.5-16.1 8.6-20.5 13.5-1.8 2-4.5 4.6-7.6 6.1-.6 2.1-3.1 13.6 1.9 27.1z"/>
    <path fill="#F8CA06" d="M133.123 113.2c-1.8.9-3.5 1.8-5 2.6 10-19.9.6-39.8.6-39.8 2.1-.8 3.9-1.9 5.2-3.3 6.1-6.5 5.9-12.5 5.8-15.4-.1-2.9-2.5-9.4.6-18.2 3.1-8.8 7.1-8.3 6.2 1.7-.9 10 2.1 20.9 2.1 20.9 5 12.7 2.1 43.1-15.5 51.5z"/>
    <path fill="#181C19" d="M128.123 116.5c-.2 0-.3-.1-.5-.2-.2-.2-.3-.5-.1-.8 9.7-19.4.7-39 .6-39.2-.1-.2-.1-.4 0-.6.1-.2.2-.3.4-.4 2.1-.8 3.8-1.9 5-3.2 5.9-6.4 5.7-12.1 5.6-14.9 0-.6-.2-1.5-.3-2.5-.6-3.6-1.5-9 .9-16 1.6-4.6 3.6-7 5.4-6.7 1.9.4 2.7 3.5 2.2 8.7-.8 9.8 2.1 20.6 2.1 20.7 2.6 6.7 3 17.8.7 27.7-2.7 12.1-8.6 20.8-16.7 24.6-1.9.9-3.5 1.7-4.9 2.6-.2.2-.3.2-.4.2zm1.5-40.1c1.5 3.6 7.6 20.5.1 37.8 1-.5 2-1 3.1-1.6 17.1-8.2 20.1-38.1 15.2-50.6-.1-.2-3-11.3-2.2-21.3.5-5.6-.6-7.1-1.1-7.2-.6-.1-2.2 1.3-3.8 5.7-2.3 6.6-1.5 11.9-.9 15.3.2 1 .3 1.9.3 2.7.1 3 .3 9.1-5.9 15.9-1.2 1.3-2.8 2.4-4.8 3.3z"/>
    <path fill="#F8CA06" d="M46.024 111.301c-1.3-.7-2.7-1.2-4.2-1.8-19.1-6.5-23.3-33.7-18.5-47.4 4.8-13.7 6.6.1 6.6.1 1.8 20.8 8.3 23.3 14.1 20.8-.1.2-3.8 13.1 2 28.3z"/>
    <path fill="#181C19" d="M46.023 112.001c-.1 0-.2 0-.3-.1-1.3-.6-2.7-1.2-4.2-1.7-6.9-2.4-12.5-7.7-16.2-15.3-4.9-10.1-6-23.7-2.7-33.1 1.6-4.7 3.1-6.7 4.7-6.5 2.3.2 3.1 5.2 3.3 6.8 1 11.2 3.4 18 7.1 20.2 1.7 1 3.7 1 6 0 .2-.1.5-.1.7.1.2.2.3.5.2.7-.4 1.4-3.5 13.5 2 27.9.1.3 0 .6-.2.8-.1.2-.2.2-.4.2zm-18.9-55.3c-.2 0-1.3.3-3.2 5.6-2.6 7.4-2.9 20.6 2.7 32 3.5 7.3 8.8 12.3 15.4 14.5 1 .3 1.9.7 2.8 1.1-4.1-12-2.5-22.2-1.8-25.9-2.2.7-4.3.5-6-.6-4.1-2.5-6.8-9.6-7.8-21.3-.4-2.4-1.3-5.3-2.1-5.4zM160.823 74.7c-.3 0-.5-.1-.7-.2-1.8-1 0-6.6 1.2-9.9.1-.4.5-.5.9-.4.4.1.5.5.4.9-1.4 3.8-2.3 7.6-1.8 8.2 0 0 1.2-.1 5.5-5.5.1-.2.9-1.2 1.9-.9.9.3 1.2 1.3 1.2 3.6 0 .2 0 .7.3.8.1.1.9.3 3.3-1.6 0 0 1.1-.9 2.5-.7 1 .1 1.9.8 2.6 1.9.2.3 1.1.5 3.5-1.1.2-.1.4-.3.6-.4.3-.3 1.5-.9 3.2.3.1.1.2.1.2.2.1 0 .1.1.2.1.3.2.4.7.2 1-.2.3-.7.4-1 .2-.1-.1-.2-.1-.3-.2-.1 0-.1-.1-.2-.1-.9-.6-1.4-.4-1.5-.3-.2.2-.4.3-.6.5-1.8 1.2-3.3 1.7-4.3 1.4-.8-.2-1.1-.7-1.1-.8-.5-.7-1-1.1-1.6-1.2-.8-.1-1.4.4-1.4.4-2.2 1.7-3.8 2.3-4.8 1.7-.9-.5-1.1-1.5-1.1-2.1 0-1.4-.2-1.9-.3-2.1-.1.1-.2.2-.3.4-3.9 4.7-5.6 5.9-6.7 5.9zM156.622 57.5h-.2c-1.6-.2-2.4-2.4-2.5-2.7-.1-.4.101-.8.401-.9.4-.1.799.1.899.4.2.7.801 1.7 1.301 1.8.3 0 .8-.3 1.3-1 .9-1.3 1.9-2.1 3-2.1.7 0 1.599.1 2.599 1.3h.2c.1 0 .401 0 .6-.2.4-.3.7-.3 1-.2.601.1.901.7 1.101 1.2.1.1.1.2.2.3.9.1 5.2-.1 6-.4.6-.2.999 0 1.199.1.601.5.601 1.4.601 1.6 0 .4-.4.7-.8.6-.4 0-.701-.4-.601-.8v-.3c-1.4.4-6.3.6-7 .3-.4-.1-.6-.6-.8-1-.1-.1-.1-.3-.2-.4-1 .6-2.099.3-2.399-.1-.6-.6-1.101-.9-1.601-.9-.6 0-1.299.6-1.899 1.5-.8 1.3-1.601 1.9-2.401 1.9zM168.123 44h-.2c-.7-.1-1.1-.6-1.3-.9-.8-1.2-1.6-1.8-2.3-1.8-.8 0-1.4.8-1.4.8-.2.3-.7.4-1 .2-.3-.2-.4-.7-.2-1 0-.1 1-1.4 2.6-1.4 1.2 0 2.4.8 3.4 2.5l.1.1s.1.1.2.1c.3 0 1.8-.2 5.7-5.7.2-.3.7-.4 1-.2.3.2.4.7.2 1-2.9 4.2-5.1 6.3-6.8 6.3z"/>
</svg>
