<svg xmlns="http://www.w3.org/2000/svg" width="180" height="201" fill="none" viewBox="0 0 180 201">
    <path fill="#F8CA06" d="M180 110.678c0 34.2-19 63.9-47.1 79.1-.3.1-.5.3-.8.4-.3.2-.5.3-.8.4-12.4 6.4-26.4 10-41.3 10-11.4 0-22.2-2.1-32.3-6-.2-.1-.5-.2-.8-.3-.2-.1-.5-.2-.8-.3-32.8-13.2-56.1-45.5-56.1-83.3 0-30.3 15-57.1 37.9-73.4.2-.1.4-.3.6-.4.2-.1.4-.3.6-.4 14.5-10 32-15.8 51-15.8 20.2 0 38.8 6.6 53.8 17.9.4.3.7.5 1.1.8.4.3.7.5 1.1.8 20.6 16.5 33.9 41.9 33.9 70.5z"/>
    <path fill="#181C19" d="M87.6 95.078c-.3 0-.7-.1-.9-.1-.4-.1-.6-.5-.5-.9.1-.4.5-.6.9-.5 0 0 1.1.3 1.5-.3.2-.3.6-.4 1-.2.3.2.4.6.2 1-.6.8-1.5 1-2.2 1z"/>
    <path fill="#fff" d="M94.6 95.278c-4.1-.9-5.4-1.5-5.4-1.5.1-.4.1-.9-.4-1.5-.1-.1-.2-.3-.4-.4-.5-.6-1.2-1.1-2-1.5-.4-.3-.9-.5-1.3-.7.1 0-.2-.7-.6-1.7 0 0 0-.1-.1-.2-.4-.9-.9-2-1.5-3.2-.1-.1-.1-.3-.2-.4-.1-.1-.2-.3-.2-.4-.8-1.4-1.7-3-2.7-4.3 9.6-6.7 17.7 6.4 14.8 15.8z"/>
    <path fill="#181C19" d="M85.001 89.478c-4.1-1.9-7.5-2.1-7.5-2.1-4.9-2.7-10-11.9-5.1-12.7 2.5-.4 5.1 1.9 7.3 4.7 1.1 1.4 2 2.9 2.8 4.3.1.1.2.3.2.4.1.1.2.3.2.4.6 1.2 1.2 2.3 1.5 3.2 0 0 0 .1.1.2.4.9.6 1.6.5 1.6z"/>
    <path fill="#181C19" d="M85.7 89.078s-.1-.4-.3-.8c0 0 0-.1-.1-.2 0 0 0-.1-.1-.1 0-.1-.1-.2-.1-.3 0 0-.1-.3-.3-.7-.1-.1-.1-.3-.2-.4 0-.1-.1-.2-.1-.2-.3-.6-.6-1.2-.8-1.7 0 0 0-.1-.1-.2-.2-.5-.8-1.5-.9-1.7-.2-.4-.5-.8-.7-1.2-.4-.7-1.2-1.8-1.7-2.5-.2-.3-.4-.5-.4-.6-.4-.6-.9-1.1-1.3-1.5-.4-.4-.7-.7-1.1-1-1.8-1.5-3.5-2.2-5.2-2-.8.1-1.4.4-1.8.9-.3.3-.5.6-.6 1 0 .1-.1.3-.1.5V77.678c0 .2.1.5.1.7 0 .2.1.5.2.7.1.5.3 1 .5 1.5s.5 1 .8 1.5c.4.8.9 1.5 1.5 2.2.1.2.3.3.4.5.3.3.6.7.9 1 .4.4.8.8 1.2 1.1l1.2.9h.1c.1.1.4.2.6.3.1 0 .1.1.2.1 0 0 3.2.2 7.1 2 .1 0 .3.1.4.1.2 0 .5-.1.6-.3.1-.3.2-.5.1-.9zm-14.6-12.6c0-.1 0-.2.1-.2 0-.1.1-.3.2-.4 0-.1.1-.1.1-.2.2-.2.6-.4 1-.5 1-.1 2.1.2 3.3 1.1.2.1.3.2.4.3l.6.6.3.3.3.3c.1.1.2.2.3.4.3.3.5.6.8 1 .1.2.3.4.4.5.1.1.2.3.3.4.1.1.2.3.3.5.2.3.5.7.7 1 .2.4.5.7.7 1.1v.1l.3.6c.1.2.2.3.3.5v.1c0 .1.1.1.1.2s.1.1.1.2.1.2.1.2v.1s0 .1.1.1c.7 1.2 1.2 2.3 1.5 3.2v.2c-3.1-1.2-5.5-1.5-6.2-1.5-.8-.5-1.7-1.2-2.5-2-.5-.5-.9-1-1.3-1.5-1.1-1.4-2-3-2.5-4.4.2-.9.1-1.6.2-2.3zM145.6 123.778c-6.2.9-11.8 7.3-14.8 11.4-.9 1.3-1.9 2.6-3 3.8-3.3 3.7-7.1 6.9-11.4 9.3-10.5 6-27.5 10.9-49.3.8-.6-3.3-2-6.4-4.1-8.9 0-4.4 1.2-10.8 1.2-10.8 3.9-1.3 6.3-3.6 7.2-4.5 1.9-1.8 9.5-10 11.2-19.3 1.4.2 8.9-.2 12-10.3 0 0 9.6 2 20 5.4 7.1 2.3 14.5 5.3 19.7 8.8 4.8 3.2 8.7 8.5 11.3 14.3z"/>
    <path fill="#fff" d="M125.299 94.978c-3 1.8-6.6 3.7-10.7 5.7-10.4-3.4-20-5.4-20-5.4 2.9-9.4-5.2-22.5-14.9-16 1 1.4 2 2.9 2.7 4.3-.8-1.4-1.8-3-2.8-4.3-2.1-2.9-4.7-5.1-7.3-4.7-4.8.8.2 10 5.1 12.7 0 0 3.4.2 7.5 2.1v-.2-.2c0-.1 0-.2-.1-.3 0-.1 0-.1-.1-.2v-.2c0-.1-.1-.2-.1-.2v-.1c.3.9.5 1.4.5 1.4.4.2.9.5 1.3.7-.4-.2-.9-.5-1.3-.7-4.2-2-7.5-2.1-7.5-2.1-1.2 2.4-4.3 3.2-4.3 3.2.7 1.8.9 4.3.9 4.3.2 1.2.8 2.1 1.4 2.8 1.2 1.4 5.4 2.1 6.6 2.6 1.4.7.9 3.6.5 5.2-1.7 9.3-9.3 17.5-11.2 19.3-.9.9-3.3 3.1-7.2 4.5-3.1 1.1-7.2 1.5-12.2.1-11-3.2-8.8-16.5-8.8-16.5s-.3-18.8 10.2-30.7c3.6-4.1 8.5-7.5 15.1-8.9 2.7-.6 5.8-.9 9.1-.7 19.7.8 28.2-3.9 29.9-13.6 1-5.3-1.2-10.6-5-14.5-17.6-18.3-45.6-5-45.6-5s-12.9 4.4-19.5-3.3c-6.7-7.8-1.7-17 3.6-23.1 8.1-9.3 34.6-17.5 63.7-7.9 29 9.7 37.5 28.7 38.5 30.7.2.3.6 1.2 1.2 2.5 8.8 21 .5 45.3-19.2 56.7z"/>
    <path fill="#181C19" d="M72.2 73.878c-.8.1-1.4.5-1.8.9.4-.5 1-.8 1.8-.9zm-2.5 3.1V76.378v.6zm76.299-36.8c-.3-.8-.6-1.5-.9-2.2-.6-1.4-1-2.3-1.2-2.6l-.1-.2c-3.1-6.4-13.1-22.2-38.8-30.8-29-9.7-56-1.6-64.4 8-7.9 9.1-9.2 17.6-3.6 24l.9.9c7 6.7 18.9 2.8 19.5 2.6.3-.1 27.7-12.8 44.8 4.9 3.8 4 5.6 9.2 4.8 13.9-1.2 6.6-5.6 14-29.2 13.1-2.5-.1-4.9 0-7.1.3-.8.1-1.5.2-2.2.4-6.2 1.3-11.4 4.4-15.5 9.1-.1.1-.1.2-.2.3-10.1 11.8-10.1 29.6-10.1 31-.1.5-.5 3.7.3 7.3 1.1 5.1 4.2 8.6 9 10 2.2.6 4.3 1 6.4 1 1.8 0 3.4-.2 5.1-.7.2-.1.5-.1.8-.2.1 0 .3-.1.4-.1.1 0 .2-.1.4-.1 3.7-1.4 6.1-3.6 7.1-4.5 2.5-2.4 9.4-10.3 11.2-19.1 0-.2.1-.3.1-.5v-.2c.1-.2.1-.5.2-.7.3-1.8.5-3.7-.5-4.7-.1-.1-.2-.2-.3-.2-.1-.1-.2-.2-.3-.2-.4-.2-1.1-.4-1.9-.6-1.3-.4-3.3-.9-4.2-1.6-.1 0-.1-.1-.2-.2 0 0 0-.1-.1-.1-.6-.7-1-1.5-1.2-2.4 0-.3-.2-2.1-.7-3.8 1-.4 2.8-1.2 3.8-2.9 1 .1 3.7.5 6.8 2 .2.1.3.2.5.2 0 0 .1 0 .1.1.2.1.3.2.5.3.8.5 1.4.9 1.9 1.4.1.1.2.3.3.4.2.3.3.6.3.8v.4c0 .2.2.3.3.4 0 0 .2.1.5.2.7.2 2.401.6 4.701 1.1.2 0 .1.2.3.3h.1c.1 0 .3.1.5.1 2.2.5 10.499 2.3 19.299 5.2h.5l.6-.3c.3-.1.6-.3.9-.4 3.4-1.7 6.5-3.3 9.3-4.9 19.5-11.3 27.9-34.8 20.5-55.5zm-74.9 36.3c0-.1 0-.2.1-.2 0-.1.1-.3.2-.4 0-.1.1-.1.1-.2.2-.2.5-.4 1-.5 1-.1 2.1.2 3.3 1.1.2.1.3.2.4.3l.6.6.3.3.3.3c.1.1.2.2.3.4.3.3.5.6.8 1 .1.2.3.3.4.5.1.2.2.3.3.5.1.1.2.3.3.5.2.3.5.7.7 1 .2.4.5.7.7 1.1v.1l.3.6c.1.2.2.3.3.5 0 .1.1.2.2.3l.1.1v.1c0 .1.1.2.1.2s0 .1.1.1c.6 1.2 1.1 2.3 1.5 3.2v.2c-3.1-1.2-5.5-1.5-6.1-1.5-.8-.5-1.7-1.2-2.5-1.9-.5-.5-.9-1-1.3-1.5-1.1-1.4-2-3-2.5-4.4 0-1-.1-1.7 0-2.4zm18.2 15.2c-.1-.1-.3-.3-.4-.5-.5-.5-2.4-1.8-2.5-1.9-.2-.1-.4-.2-.7-.4 0-.1-.2-.5-.3-.8 0 0 0-.1-.1-.2 0 0 0-.1-.1-.1-.2-.3-.3-.6-.3-.6 0-.1-.1-.2-.2-.4-.1-.1-.1-.3-.2-.4 0-.1-.1-.2-.1-.2-.2-.5-.5-1.1-.8-1.7 0 0 0-.1-.1-.2-.2-.4-.5-1.1-.6-1.1-.8-1.4-1.6-2.7-2.4-3.8.3-.2.6-.3.9-.5.3-.1.6-.2.8-.3 1.7-.6 3.2-.6 4.4-.2.5.1 1 .3 1.4.6.4.2.8.5 1.1.7 4 3 6.752 9.2 4.901 14.5 0-.1 0 .1 0 0-2.3-.5-3.7-.7-4.3-1 .2-.4 0-.9-.4-1.5zm25.2 8.2c-8.6-2.8-16.6-4.6-19-5.2 1.4-5.7-.9-12.8-5.3-16.1-.2-.1-.4-.3-.6-.4-.6-.4-1.3-.7-1.9-.9-.9-.3-1.8-.5-2.7-.5h-.6c-.2 0-.4 0-.5.1-.2 0-.4.1-.6.1h-.1c-.2 0-.4.1-.6.2-.2.1-.4.1-.6.2l-.6.3c-.2.1-.4.2-.7.3-.2.1-.4.2-.6.4-.4-.6-.9-1.1-1.3-1.5-.4-.4-.7-.7-1.1-1-1.8-1.5-3.5-2.2-5.2-2-.8.1-1.4.5-1.8.9-.3.3-.5.6-.6 1 0 .1-.1.3-.1.5v1.3c0 .2.1.5.1.7 0 .2.1.5.2.7.1.5.3 1 .5 1.5s.5 1 .8 1.5c.4.8.9 1.5 1.5 2.2.1.2.3.3.4.5.3.3.6.7.9 1 .4.4.8.8 1.2 1.1l1.2.9h.1c-1.2 1.7-3.5 2.3-3.5 2.3-.2 0-.4.2-.5.4-.1.2-.1.4 0 .6.7 1.7.8 4.2.8 4.2.2.9.5 1.7 1 2.4 0 0 .1.1.1.2.2.2.4.6.7.8.1 0 .1.1.1.1s.1.1.2.1.1.1.2.1h.1c.1.1.2.1.2.1 1.2.7 2.7 1.1 4.1 1.5.7.2 1.3.4 1.6.5l.1.1c.3.3.7 1.3 0 4.1 0 0-.1.4-.1.5-2 10.1-10.8 18.6-10.9 18.7-.9.8-3.2 3-6.9 4.3-.1 0-.1 0-.2.1-3.6 1.2-7.5 1.2-11.6 0-10.2-3-8.3-15.8-8.3-15.8 0-.2-.1-18.7 10-30.4 3.9-4.5 8.9-7.4 14.8-8.7 2.3-.5 4.7-.7 7.3-.7h1.6c19.3.8 28.7-3.6 30.6-14.2.9-5.1-1-10.8-5.1-15.1-17.9-18.5-46.3-5.4-46.5-5.3-.1 0-11.3 3.7-17.8-2.1-.3-.3-.7-.6-1-1-6.4-7.4-1.6-16.1 3.7-22.1 8.1-9.4 34.4-17.2 62.9-7.7 25.2 8.4 34.9 23.8 37.9 30.1l.1.2c.1.3.6 1.1 1.1 2.5v.1c2.3 5.5 3.4 11.3 3.4 17 0 15.5-8.1 30.6-22.3 38.8-2.9 1.8-6.4 3.7-10.3 5.5zm-44.8-23.5v0zm2.5-2.5c-.8.1-1.4.5-1.8.9.5-.4 1.1-.8 1.8-.9 1.6-.2 3.4.5 5.2 2-1.8-1.6-3.5-2.2-5.2-2z"/>
    <path fill="#fff" d="M67.5 152.678c0 6.8-3.4 12.9-8.5 16.5-3.3 2.4-7.4 3.8-11.8 3.8-11.2 0-20.3-9.1-20.3-20.3 0-11.2 9.1-20.3 20.3-20.3 6.5 0 12.2 3 16 7.7 2 2.6 3.4 5.6 4.1 8.9.1 1.2.2 2.4.2 3.7z"/>
    <path fill="#181C19" d="M71.2 68.078c-.9-2.7-4.7-5.2-11-4.8-2.1.2-3.8 1-5.1 2.6-3.8 4.7-2.7 14.3-2.4 16v.2c0 .2.1.4.3.5.1 0 .1.1.2.1h.2c.2 0 .4-.1.5-.2 3.9-4.5 8.8-7.4 14.8-8.7.1 0 .2-.1.2-.1.3-.2.7-.5 1-.8.3-.3.5-.5.7-.8.9-1.2 1.1-2.6.6-4zm-15-1.3c1-1.3 2.4-2 4.1-2.1h1.2c4.8 0 7.7 2 8.3 3.9.5 1.4-.1 2.8-1.6 3.9-5.6 1.2-10.4 3.9-14.3 8-.2-3.2-.5-10.2 2.3-13.7z"/>
    <path fill="#fff" d="M134.499 170.678c0-.3-.1-.6-.1-.9-4.6 4.3-10.5 8-18.2 9.9-6.6 1.7-7.7-1.7-2.4-4.7 2.6-1.4 5.4-2.8 8.3-5.7 4.6-4.7 8-11.2 8.4-19 .2-3.5-1.2-8.2-2.3-10.7-.1-.2-.2-.5-.3-.7l-.5.5c-.7.7-1.3 1.4-2 2.1-.4.4-.8.7-1.1 1h-.1l-.4.4c-.1.1-.2.1-.2.2-.3.3-.6.5-.9.8-.5.4-1 .8-1.4 1.1-.5.4-1 .7-1.5 1.1-.5.4-1 .7-1.5 1-.5.3-1 .6-1.6 1l-1.2.6c-.8.4-1.6.9-2.5 1.3l-2.7 1.2c-.9.4-1.9.7-2.9 1.1-1 .3-2 .6-3.1.9-1.1.3-2.2.5-3.3.7-.5.1-1 .2-1.5.2h-.1c-.2 0-.4.1-.6.1-.4.1-.9.1-1.3.2-.6.1-1.2.1-1.8.2h-5.3c-.4 0-.8 0-1.1-.1h-.5c-.3 0-.5 0-.8-.1-.6-.1-1.2-.1-1.8-.2-.5 0-1-.1-1.4-.2-.3 0-.6-.1-.9-.1-.2 0-.4-.1-.6-.1-.1 0-.2 0-.4-.1-.3 0-.6-.1-1-.2h-.1c-.5-.1-1-.2-1.6-.3-.5-.1-1-.2-1.6-.4-.5-.1-1-.3-1.6-.4-.5-.1-1.1-.3-1.6-.5-1.1-.3-2.2-.7-3.2-1.1-.5-.2-1.1-.4-1.7-.6-.5-.2-1.1-.4-1.6-.7-.3-.1-.6-.3-1-.4-.2-.1-.4-.2-.7-.3h-.1c.1.3.1.5.1.8v.2c.1.5.1 1.1.1 1.6V153.778c0 .2 0 .5-.1.7v.3c0 .2 0 .4-.1.6 0 .1 0 .3-.1.4v.1c0 .1 0 .3-.1.4 0 .3-.1.5-.2.8 0 .2-.1.3-.1.5s-.1.4-.2.7c0 .1-.1.2-.1.3-.1.3-.2.7-.3 1-.1.3-.3.7-.4 1-.1.3-.3.6-.4.9 0 .1-.1.2-.1.2 0 .1-.1.1-.1.2-.1.2-.2.3-.3.5-.2.3-.3.6-.5.9 0 0 0 .1-.1.1-.2.3-.3.5-.5.8-.4.6-.8 1.1-1.3 1.6-.3.3-.5.6-.8.9l-.6.6-.3.3-.3.3c-.2.2-.5.4-.7.6-.2.2-.5.4-.7.5 0 0-.1.4-.2 1-.8 3.5-3.1 15.1-1.8 24.2.2.1.5.2.8.3 10 3.9 20.9 6 32.3 6 14.9 0 29-3.6 41.3-10 .3-.1.5-.3.8-.4 1.4-6.7 2.8-14.8 2.4-19.4z"/>
    <path fill="#181C19" d="M146.299 123.478c-2.9-6.4-6.9-11.4-11.6-14.6-4.2-2.9-10.4-5.7-18.2-8.4-.3-.1-.6-.2-1-.3-.2-.1-.4-.1-.6-.2-8.7-2.9-16.9-4.7-19.3-5.3H94.8c-.4-.1-.7.1-.8.5-.1.2-.1.5-.2.7-2.5 7.3-7.7 9-10.2 9.1H82.8c-.3 0-.6.1-.7.3 0 .1-.1.1-.1.2v.1c-1.6 8.5-8.4 16.4-11 18.8-.9.8-3.2 3-6.9 4.3-.1 0-.1 0-.2.1s-.3.3-.3.5c0 0 0 .2-.1.4 0 .2-.1.5-.1.8-.3 1.7-.8 4.9-.9 7.9-4-4.2-9.4-6.6-15.3-6.6-11.6 0-21 9.4-21 21s9.4 21 21 21c3.8 0 7.5-1 10.7-3-.9 4.1-2.9 14.7-1.7 23.4.2.1.5.2.8.3.2.1.5.2.8.3-1.6-9.7 1.3-22.8 1.8-25 0-.1.1-.1.1-.2l.3-.3c.2-.1.3-.2.5-.4.1-.1.2-.1.3-.2.2-.2.4-.4.7-.6.1-.1.2-.1.2-.2l.6-.6.2-.2.7-.7c.3-.3.5-.6.7-.9 0-.1.1-.1.1-.2l.6-.9c.2-.3.4-.7.7-1 .2-.4.4-.7.6-1.1.2-.4.4-.7.5-1.1.2-.4.3-.8.5-1.1.2-.3.3-.8.4-1.2.2-.8.4-1.5.6-2.3v-.2c.1-.4.1-.7.2-1.1.1-.8.2-1.6.2-2.5v-.4-.8-.5-.5-.2h.1c1.2.6 13.8 7 29.4 5 1.2-.1 2.4-.3 3.5-.5 1.7-.3 3.4-.7 4.9-1.2.5-.2 1-.3 1.5-.5.1 0 .2-.1.3-.1.4-.1.8-.3 1.2-.4 12.1-4.4 18.2-11.7 18.7-12.3.2.5.4 1 .5 1.3 1.3 3.8 1.7 8.5 1.7 8.9-.4 7-3.3 13.6-8.2 18.6-.1.1-.2.2-.3.2-1.3 1.2-5 3.7-6.5 4.6-.2.1-.3.2-.4.2 0 0-.1.1-.2.1s-.1.1-.2.1c-.2.1-.5.3-.7.4-.1 0-.1.1-.2.1-.5.3-1 .6-1.1.7-.3.3-1.4 1.3-1.6 1.6-.1.2-.3.5-.4.8 0 .1-.1.1-.1.2V178.478c-.5 1.8 1.3 2.3 2 2.4H112.499c1.4.2 3-.1 3.2-.1.2 0 1.2-.3 1.2-.3.5-.1 1.1-.3 1.9-.5.1 0 .2 0 .2-.1.5-.2 1-.3 1.3-.4.8-.2 1.8-.6 2.8-1.1.1 0 .2-.1.3-.1.2-.1.4-.2.5-.2l2.2-1.1c.2-.1.5-.3.9-.5.1-.1.2-.1.2-.1.1 0 .1-.1.2-.1l.6-.3s.1 0 .1-.1c.1 0 .1-.1.2-.1.1-.1.2-.1.3-.2.2-.1.4-.2.6-.4 1-.7 2.4-1.6 3.1-2.2.2-.2.7-.6 1.2-1 0 0 .1 0 .1-.1.3-.2.5-.4.6-.5.3 4.7-1.1 12.7-2.5 19.4.3-.1.5-.3.8-.4.3-.1.5-.3.8-.4 1.4-7.1 2.7-15.2 2.2-19.7 2.7-2.6 5-5.4 7-8.3 2.1-3 3.9-6 5.7-9 3.6-7 2.9-18.8-1.9-29.5zm-80.4 35c-.3 1.1-.8 2.2-1.3 3.2-.9 1.7-2 3.3-3.4 4.7-.3.3-.5.6-.8.8l-1.8 1.5c-3.3 2.4-7.3 3.7-11.4 3.7-10.8 0-19.6-8.8-19.6-19.6s8.8-19.6 19.6-19.6c6 0 11.5 2.6 15.3 7.3 0 .1.1.1.1.2 2 2.5 3.3 5.5 3.9 8.6.1.2.1.5.1.8 0 .3.1.6.1.9.1.6.1 1.2.1 1.9 0 1.8-.3 3.7-.9 5.6zm41.1-6.8c-.5.2-1 .3-1.5.5-.8.2-1.5.4-2.3.6-.8.2-1.6.4-2.4.5-3.2.6-6.8.9-10.5.8h-1.1c-.4 0-.9 0-1.3-.1-1.2-.1-2.4-.2-3.6-.4-1.2-.2-2.5-.4-3.7-.7-.5-.1-1-.2-1.5-.4-1-.3-2-.5-3.1-.9-.1 0-.2 0-.2-.1-.9-.3-1.8-.6-2.8-1-1.1-.4-2.3-.9-3.4-1.4-.4-.2-.8-.3-1.2-.5-.1-.1-.3-.1-.4-.2-.6-3.2-2-6.2-4-8.8 0-3.6.8-8.5 1.1-9.9 3.7-1.4 6.1-3.6 7.1-4.5.1-.1 9-8.6 11.2-19.1 2.1-.1 8.8-1 11.9-10.2 2.3.5 10.5 2.4 19.3 5.2 8.5 2.8 15.1 5.7 19.5 8.7 4.2 2.8 8 7.5 10.7 13.2h-.2c-.1 0-.3.1-.5.1-.1 0-.3.1-.3.1h-.1c-.2.1-.4.1-.6.2-.6.2-1.2.5-1.8.8-2.5 1.3-4.8 3.2-6.8 5.3l-.1.1-.1.1c-.4.4-.7.8-1 1.1 0 .1-.1.1-.2.2-.3.3-.5.6-.8.9-.7.9-1.4 1.7-1.9 2.5-.2.2-.3.5-.5.7-.9 1.1-1.7 2.1-2.1 2.6l-.2.2s0 .1-.1.1h-.1c-3.3 3.7-7.1 6.8-11.2 9.2-1.5.9-3.2 1.7-4.9 2.5-.7.3-1.3.6-2 .8-.8.7-1.6 1-2.3 1.2zm39.6.4c-3.4 5.9-7.2 12-12.7 17.2-2.2 2.1-4.6 3.9-7.2 5.4-.8.5-1.7.9-2.5 1.4-.9.4-1.7.8-2.6 1.2-1.8.7-3.6 1.3-5.6 1.8-.6.2-1.2.3-1.7.3-.8.1-1.5.1-1.9.1-.3 0-.5-.1-.7-.2-.2-.1-.3-.2-.4-.3 0 0 0-.1-.1-.1v-.6c0-.1.1-.2.2-.3.1-.2.3-.5.6-.7.3-.3.6-.6 1-.9.3-.2.7-.5 1.1-.7l.9-.5c.3-.2.7-.4 1-.6.4-.2.8-.5 1.2-.7 1.3-.7 2.6-1.6 3.9-2.8.3-.3.6-.5.9-.8l.5-.5c1-1 1.9-2 2.7-3.1.5-.7 1.1-1.5 1.5-2.2 2.6-4.2 4.2-9.1 4.5-14.1v-1.5-.7c-.1-1-.2-1.9-.5-2.9-.2-.7-.3-1.5-.5-2.2 0-.1-.1-.2-.1-.3-.2-.5-.3-1-.5-1.4-.1-.5-.3-.9-.5-1.3s-.3-.8-.5-1.1v-.1c.2-.2.3-.4.5-.6.2-.3.5-.6.7-.9.5-.6 1-1.3 1.5-2 .3-.5.7-1 1.1-1.5.2-.3.4-.5.6-.8.7-.8 1.4-1.7 2.2-2.5l.8-.8c.3-.3.6-.6.9-.8.2-.1.3-.3.5-.4.1-.1.3-.3.5-.4.1-.1.3-.3.5-.4.2-.1.3-.2.5-.4.2-.1.4-.3.6-.4.1-.1.3-.2.4-.3.2-.1.3-.2.5-.3l1.5-.9c.2-.1.4-.2.5-.2.1-.1.3-.1.4-.2.2-.1.4-.1.5-.2.6-.2 1.2-.4 1.7-.5 2.5 5.6 3.8 11.6 3.8 16.9.2 4.3-.6 8.1-2.2 10.8z"/>
</svg>
