<svg xmlns="http://www.w3.org/2000/svg" width="180" height="211" fill="none" viewBox="0 0 180 211">
    <path fill="#F8CA06" d="M90 194.702c49.706 0 90-40.294 90-90s-40.294-90-90-90-90 40.294-90 90 40.294 90 90 90z"/>
    <path fill="#fff" d="M73.2 40.002H64c-2.5 0-4.6-2.1-4.6-4.6v-27.6c0-2.5 2.1-4.6 4.6-4.6h9.2c2.5 0 4.6 2.1 4.6 4.6v27.6c0 2.5-2 4.6-4.6 4.6z"/>
    <path fill="#181C19" d="M73.2 40.702H64c-2.9 0-5.3-2.4-5.3-5.3v-27.6c0-2.9 2.4-5.3 5.3-5.3h9.2c2.9 0 5.3 2.4 5.3 5.3v27.6c0 2.9-2.4 5.3-5.3 5.3zM64 3.902c-2.2 0-3.9 1.8-3.9 3.9v27.6c0 2.2 1.8 3.9 3.9 3.9h9.2c2.2 0 3.9-1.8 3.9-3.9v-27.6c0-2.2-1.8-3.9-3.9-3.9H64z"/>
    <path fill="#181C19" d="M71.6 5.902h-5.9c-.8 0-1.4-.6-1.4-1.4v-1.3H73v1.3c-.1.7-.7 1.4-1.4 1.4zM103.7 72.602c-1.4 0-3.4-.8-3.6-1-.4-.2-.5-.6-.4-.9.2-.4.6-.5.9-.4.9.4 2.5.9 3.2.8.4-.1.7.2.8.6.1.4-.2.7-.6.8-.1.1-.2.1-.3.1z"/>
    <path fill="#fff" d="M97.3 54.902c16-5.6 15.5 13 11.5 19.2-5.2-1.2-4.9-2.2-4.9-2.2.7-.1 1-.7 0-2.4-.7-1.1-1.8-2.1-2.9-3 .1.1-1.1-6.4-3.7-11.6z"/>
    <path fill="#181C19" d="M108.8 74.802h-.2c-4.6-1.1-5.2-2-5.3-2.3-.2-.3-.2-.6-.1-.7.1-.3.3-.5.6-.5h.1s0-.4-.6-1.3-1.5-1.8-2.7-2.8c-.2-.2-.3-.4-.3-.7-.1-.8-1.2-6.4-3.6-11.2-.1-.2-.1-.4 0-.6.1-.2.2-.3.4-.4 7-2.4 10.5-.3 12.3 2 3.9 4.9 2.6 14.3 0 18.3-.1.1-.3.2-.6.2zm-3.8-2.7c.5.3 1.5.7 3.5 1.2 2.2-3.9 3.1-12.1-.2-16.2-2.1-2.6-5.4-3.2-10-1.8 1.5 3.3 3.2 8.8 3.3 10.8 1.2 1 2.2 2 2.8 3 .7 1.2.9 2.1.6 2.7.1.1 0 .2 0 .3z"/>
    <path fill="#181C19" d="M90.6 48.602c2.7.1 5 2.9 6.7 6.4 2.6 5.1 3.9 11.6 3.6 11.6-3.9-2.8-7.4-3.6-7.4-3.6-4.6-4-8-14.5-2.9-14.4z"/>
    <path fill="#181C19" d="M100.899 67.202h-.1c-.1 0-.2-.1-.3-.1-3.8-2.7-7.1-3.5-7.2-3.5-.1 0-.2-.1-.3-.1-3.8-3.1-6.6-10.2-5.4-13.5.5-1.3 1.6-2 3-2 3.3.1 5.8 3.7 7.3 6.7 2.2 4.3 4.2 11.5 3.6 12.3-.2.1-.4.2-.6.2zm-7.1-5c.7.2 3.2 1 6.2 2.9-.4-2.1-1.5-6.2-3.4-9.8-1.8-3.8-4-5.9-6-6-.9 0-1.4.3-1.7 1.1-.9 2.6 1.7 9 4.9 11.8z"/>
    <path fill="#181C19" d="M109 91.602c-.1 0-.2 0-.3-.1l-18.9-8.1.3-.6-.3-.6s2.7-1.2 3.1-3.1c.1-.7 0-1.7-.7-2.4-.2-.2-.7-.6-.9-.7l-.2-.2c-.9-.6-1.6-1.3-2.1-2.2-.6-1-1-2.2-1-3.5v-.1s.3-2.5 0-4.4c0-.2 0-.4.1-.6.1-.2.3-.3.5-.3 0 0 3.1-.2 4.5-2.2.2-.2.4-.3.7-.3.1 0 3.6.9 7.7 3.8 1.4 1 2.4 2.1 3.1 3.2.7 1.2.9 2 .6 2.7 0 .1-.1.1-.1.2.5.3 1.7.8 4 1.3.2 0 .4.2.5.4.1.2.1.4 0 .6-.1.1-5.8 12.9-.2 15.8.3.2.5.6.3.9-.2.3-.5.5-.7.5zm-17.4-8.9l14.6 6.2c-2.1-4.4.7-11.9 1.7-14.3-3.9-1-4.4-1.8-4.6-2.1-.2-.3-.2-.6-.1-.7.1-.3.3-.5.6-.5h.1s0-.4-.6-1.3c-.6-1-1.5-1.9-2.7-2.8-3-2.2-5.8-3.1-6.8-3.4-1.4 1.6-3.4 2.1-4.5 2.3.2 1.8 0 3.7-.1 4.1 0 1 .3 2 .8 2.7.4.7 1 1.3 1.8 1.8l.1.1c.5.3 1.1.8 1.2.9 1 .9 1.4 2.4 1.2 3.7-.4 1.4-1.6 2.6-2.7 3.3z"/>
    <path fill="#F8CA06" d="M115.1 165.002c-9.5 3.1-22 5.8-38.1 6.9 0 0-21.8-.2-24.1 6.3-2.3 6.5-2.1 14-5.6 16.5-3.5 2.5-7.3 3.6-7 6.4.3 2.9 2.7 11.4-.9 7.6-3.6-3.8-5.9-11.2-5.7-17.8.2-6.6 3.1-22.1 7.5-30.5 3.5-6.5 10.7-11.1 14.5-13.1 1.1-.6 1.9-.9 2.3-1.1 1.8-.7 30.7-10.9 44.4-13.7.1.1 13.8 10.7 12.7 32.5z"/>
    <path fill="#181C19" d="M40.8 210.402c-.7 0-1.3-.6-1.9-1.2-3.7-3.8-6.1-11.3-5.9-18.3.2-6.1 3-22.1 7.6-30.8 3.7-7 11.6-11.7 14.8-13.4.9-.5 1.7-.8 2.1-1l.2-.1c1.8-.8 30.7-10.9 44.6-13.8.2 0 .4 0 .6.1 1.5 1.2 13.8 12.1 12.8 33 0 .3-.2.5-.5.6-11.1 3.6-23.9 5.9-38.3 6.9-6 0-21.7.9-23.5 5.8-.8 2.4-1.3 4.8-1.8 7.2-.9 4.2-1.6 7.9-4 9.6-1 .7-2.1 1.4-3 1.9-2.5 1.4-3.8 2.3-3.7 3.9.1.6.2 1.6.4 2.6.8 4.1 1 6.1-.1 6.7-.1.3-.2.3-.4.3zm61.5-77.1c-13.9 3-42.2 12.9-44 13.6l-.1.1c-.4.2-1.2.5-2.1 1-3.1 1.6-10.7 6.2-14.3 12.8-4.5 8.5-7.2 24.1-7.4 30.2-.2 6.5 2.1 13.7 5.5 17.2.3.4.6.5.7.6.2-.9-.3-3.5-.6-5-.2-1-.4-2-.4-2.7-.2-2.5 1.9-3.8 4.4-5.2.9-.6 1.9-1.1 2.9-1.8 2-1.4 2.7-4.8 3.5-8.8.5-2.4 1-5 1.9-7.4 2.4-6.8 22.5-6.8 24.8-6.7 14-1 26.6-3.2 37.4-6.7.7-19.1-10.1-29.4-12.2-31.2z"/>
    <path fill="#F8CA06" d="M65.3 67.102c-9.7 8.9-20.8 10-20.8 10-1.6-5.7-2.8-13.1-3.3-24.4-1.2-30.3 15-47.8 15-47.8s10.4-11.6 7 3.8c-3.5 15.5-11.4 31.3 1.3 56.7.2.6.5 1.1.8 1.7z"/>
    <path fill="#181C19" d="M44.5 77.802c-.3 0-.6-.2-.7-.5-1.8-6.5-2.9-14.3-3.3-24.6-.6-15.8 3.5-28.1 7.1-35.6 3.9-8.1 7.9-12.5 8.1-12.7.8-.9 5.1-5.4 7.5-4.2 1.6.8 1.8 3.6.7 8.6-.5 2.4-1.2 4.8-1.9 7.4-3.5 13-7.4 27.7 3.2 48.9.3.6.5 1.1.8 1.6.1.3.1.6-.1.8-9.9 9.1-20.9 10.2-21.4 10.3zm17.6-76.4c-1.3 0-3.9 2.2-5.5 4-.2.2-16 17.6-14.8 47.3.4 9.9 1.4 17.5 3.1 23.7 2.3-.4 11.4-2.2 19.4-9.4l-.6-1.2c-10.7-21.7-6.7-36.7-3.1-49.9.7-2.5 1.3-4.9 1.9-7.3 1.3-5.9.4-6.9.1-7.1-.2-.1-.3-.1-.5-.1z"/>
    <path fill="#181C19" d="M140.999 151.102s-7.1 7.7-26 13.9c1.1-21.8-12.5-32.4-12.5-32.4-13.8 2.9-42.7 13-44.4 13.7-.4.2-1.2.5-2.3 1.1 0 0 5.6-24.7-.7-43.7-3.9-11.9-7.9-17-10.6-26.6 0 0 11.1-1.1 20.8-10 12.4 23.4 24.7 15.7 24.7 15.7l18.9 8.1s37.9 10.9 41.5 29.5c3.7 18.6-9.4 30.7-9.4 30.7z"/>
    <path fill="#181C19" d="M115.099 165.702c-.2 0-.3 0-.4-.1-.2-.1-.3-.4-.3-.6.6-11-2.8-19.1-5.7-23.9-2.7-4.4-5.5-7-6.3-7.7-13.9 2.9-42.4 12.9-44 13.6-.4.2-1.1.5-2.2 1.1-.2.1-.5.1-.8-.1-.2-.2-.3-.4-.3-.7.1-.2 5.5-24.8-.7-43.3-1.9-5.8-3.8-9.9-5.6-13.8-1.9-4.1-3.6-7.9-5-12.9-.1-.2 0-.4.1-.6.1-.2.3-.3.5-.3.1 0 11-1.2 20.4-9.8.2-.1.4-.2.6-.2.2 0 .4.2.5.4 4.8 9.1 10.3 14.7 16 16.2 4.6 1.2 7.7-.7 7.8-.7.2-.1.4-.1.6-.1l18.9 8.1s9.6 2.8 19.5 7.8c13.4 6.8 21 14.3 22.5 22.2 3.6 18.4-9 30.7-9.6 31.3-.5.5-7.7 8-26.3 14.1h-.2zm-12.6-33.8c.2 0 .3.1.4.1.1.1 13.5 10.8 12.8 32 17.8-5.9 24.7-13.3 24.7-13.4.1-.1 12.7-12.1 9.2-30.1s-40.7-28.9-41-29l-18.7-8c-1 .5-4.2 1.8-8.5.7-5.9-1.6-11.4-7-16.4-16.1-8.2 7.2-17 9.1-19.7 9.5 1.3 4.5 3 8.1 4.7 11.9 1.8 4 3.7 8.1 5.7 14 5.4 16.3 2.1 37.1 1 42.6l1-.5c1.6-.7 30.8-10.9 44.6-13.8.1.1.2.1.2.1z"/>
</svg>
