<svg xmlns="http://www.w3.org/2000/svg" width="202" height="183" fill="none" viewBox="0 0 202 183">
    <path fill="#F8CA06" d="M202 90.122c0 29.039-13.719 54.774-34.947 71.297-.201.2-.401.3-.601.5-.2.2-.401.301-.601.501-3.605 2.704-7.41 5.107-11.415 7.31-.201.1-.501.2-.701.4-.201.1-.501.201-.701.401-7.41 3.805-15.521 6.609-23.933 8.211-.6.1-1.101.2-1.702.3-.501.101-1.101.201-1.602.301-3.505.5-7.01.901-10.715 1.001h-3.204c-3.505 0-7.009-.2-10.414-.601-.401 0-.801-.1-1.102-.1-.4-.1-.8-.1-1.101-.2-6.509-.901-12.717-2.503-18.725-4.706-.2-.101-.501-.201-.701-.301-.2-.1-.501-.2-.701-.3-33.646-13.118-57.378-45.762-57.378-84.014C21.756 40.355 62.111 0 111.878 0S202 40.355 202 90.122z"/>
    <path fill="#F8CA06" d="M96.757 49.968c0 1.602.1 2.403 1.101 3.504.902 1.002 2.904 2.504 4.106 4.506.901 1.602 1.903 4.006-1.602 10.114.801 0 14.319 2.203 20.628-7.91-5.307-3.606-5.408-7.811-5.408-7.811.902-.1 1.302-.902 0-2.904-.801-1.402-2.102-2.704-3.504-3.705-4.807-3.605-9.013-4.606-9.013-4.606-2.102 2.803-6.208 3.004-6.208 3.004.3 2.603-.1 5.808-.1 5.808z"/>
    <path fill="#181C19" d="M103.967 68.993c-1.102 0-2.203-.1-3.305-.2h-.4c-.2 0-.5-.1-.6-.4-.101-.2-.101-.501 0-.701 3.504-6.209 2.302-8.212 1.601-9.513-.801-1.402-2.003-2.504-3.004-3.405l-1.001-1.001c-1.202-1.302-1.302-2.303-1.302-3.906v-.1s.4-3.104 0-5.407c0-.2 0-.4.1-.6.1-.201.3-.301.5-.301 0 0 3.806-.2 5.709-2.704.2-.2.5-.3.701-.3.2 0 4.406 1.101 9.212 4.706 1.602 1.202 2.904 2.503 3.705 3.905.901 1.402 1.102 2.404.701 3.104-.1.2-.3.401-.601.601.2 1.102 1.102 4.006 5.007 6.71.3.2.4.6.2 1-3.204 5.608-9.312 8.512-17.223 8.512zm-2.604-1.502c8.412.601 14.921-1.902 18.525-7.11-5.006-3.704-5.207-7.71-5.207-7.91 0-.4.301-.701.601-.701.1 0 .2 0 .2-.1 0 0 .201-.4-.7-1.803-.701-1.301-1.903-2.403-3.305-3.504-3.805-2.804-7.21-4.006-8.311-4.306-1.702 2.002-4.406 2.603-5.708 2.804.3 2.303 0 4.706-.1 5.107 0 1.502.1 2.002.901 2.903.2.3.601.601.901.902 1.002.9 2.304 2.203 3.205 3.805 1.302 2.003 1.902 4.606-1.002 9.913z"/>
    <path fill="#181C19" d="M115.283 53.072c-1.602 0-4.105-1.102-4.406-1.202-.4-.2-.501-.6-.4-.901.2-.4.6-.5.901-.4 1.101.5 3.104 1.201 4.005 1.1.401 0 .701.201.801.602.1.4-.2.7-.6.8h-.301z"/>
    <path fill="#fff" d="M111.979 45.762c1.401 1.101 2.703 2.303 3.504 3.705 1.202 2.103.901 2.804 0 2.904 0 0 .1 4.306 5.408 7.81 7.309-9.913 4.806-33.945-13.118-28.738 3.004 6.408 4.406 14.319 4.206 14.319z"/>
    <path fill="#181C19" d="M120.89 60.983c-.1 0-.3 0-.4-.1-5.608-3.706-5.708-8.212-5.708-8.412 0-.4.3-.7.601-.7.1 0 .2 0 .2-.101 0 0 .2-.4-.701-1.803-.701-1.1-1.903-2.303-3.405-3.504-.2-.2-.3-.5-.2-.701-.1-1.102-1.502-8.011-4.206-13.819-.1-.2-.1-.4 0-.6.101-.2.201-.301.401-.401 6.208-1.803 11.415-.3 14.62 4.306 4.606 6.609 4.206 18.825-.701 25.534-.1.2-.301.3-.501.3zm-4.606-8.111c.2 1.101 1.001 3.805 4.506 6.408 4.206-6.308 4.406-17.423.3-23.331-2.703-3.906-7.009-5.307-12.316-4.006 2.103 4.707 3.805 11.115 3.905 13.418 1.502 1.202 2.704 2.504 3.405 3.706.901 1.401 1.101 2.403.801 3.204-.1.2-.301.4-.601.6z"/>
    <path fill="#181C19" d="M102.866 41.156s4.206 1.101 9.013 4.606c.3.1-1.102-7.91-4.306-14.22-2.003-4.205-4.707-7.71-8.011-7.81-6.208-.3-2.203 12.617 3.304 17.424z"/>
    <path fill="#181C19" d="M111.879 46.363h-.101c-.1 0-.2-.1-.3-.1-4.606-3.305-8.712-4.406-8.812-4.507-.1 0-.2-.1-.3-.1-4.507-3.905-7.911-12.517-6.309-16.422.6-1.502 1.802-2.303 3.505-2.303 4.005.2 6.909 4.606 8.612 8.211 2.803 5.508 4.806 14.019 4.205 14.92 0 .2-.3.3-.5.3zm-8.612-5.908c.801.2 4.005 1.201 7.81 3.805-.4-2.504-1.802-7.91-4.105-12.417-2.203-4.706-4.807-7.31-7.41-7.41-1.102 0-1.803.4-2.203 1.402-1.202 3.204 1.902 11.115 5.908 14.62zM56.703 133.581c.2.1.3.1.5.2 12.818 5.407 18.225 12.417 20.528 17.824h58.179c4.306-6.709 7.811-13.819 8.311-19.827 14.72-5.707 25.635 5.207 25.635 5.207 6.008-20.127-.501-43.058-16.823-57.578-4.005-3.604-9.613-6.508-10.915-7.009-12.016-5.507-21.228-12.116-21.228-12.116-6.309 10.113-19.727 7.91-20.628 7.91 0 0-17.324 30.542-36.25 30.241 0-.1 5.708 20.828-7.31 35.148z"/>
    <path fill="#181C19" d="M135.91 152.306H77.731c-.3 0-.5-.2-.6-.4-2.103-5.007-7.31-12.017-20.128-17.424-.1 0-.2-.1-.3-.1-.1 0-.1-.1-.2-.1-.2-.1-.401-.301-.501-.501-.1-.2 0-.501.2-.601 12.417-13.718 7.31-33.846 7.11-34.547v-.3c0-.4.3-.7.7-.7h.301c18.124 0 35.148-29.54 35.248-29.841.1-.2.4-.4.601-.4h.5c9.012.9 15.922-1.803 19.527-7.611.1-.2.3-.3.5-.3.201 0 .401 0 .501.1.1.1 9.313 6.608 21.129 12.116 1.301.6 7.009 3.505 11.115 7.21 16.522 14.72 23.231 37.651 17.023 58.279-.1.2-.301.4-.501.5-.2.1-.501 0-.701-.2-.1-.1-10.514-10.314-24.533-5.207-.601 5.307-3.405 11.916-8.311 19.727-.101.2-.301.3-.501.3zm-57.778-1.402h57.277c4.807-7.71 7.51-14.119 8.011-19.226 0-.3.2-.501.401-.601 12.617-4.906 22.63 2.203 25.534 4.607 5.408-19.627-1.302-41.957-16.923-55.776-3.905-3.505-9.412-6.409-10.714-6.91-10.214-4.706-18.525-10.213-20.728-11.815-4.006 5.808-11.215 8.511-20.428 7.61-1.001 1.702-5.107 8.411-10.915 14.92-8.712 9.814-17.023 14.92-24.833 15.22 1.001 4.307 3.905 21.53-7.01 34.347 12.717 5.508 18.125 12.517 20.328 17.624z"/>
    <path fill="#fff" d="M152.634 160.417c-10.014 8.211-19.427 14.52-25.335 18.425.601-.1 1.202-.2 1.703-.3 8.511-1.602 16.522-4.406 23.932-8.211.2-.1.501-.201.701-.401l.1-10.414c-.4.401-.701.701-1.101.901zm-74.902-8.812c.901 2.203 1.302 4.206 1.502 5.708 0 .401.1.801.1 1.102v1.001c0 .501-.1.901-.1.901l.601 14.019c.2.1.5.2.701.301 5.908 2.203 12.216 3.805 18.725 4.706.4.1.801.1 1.102.2.4 0 .801.1 1.101.1 3.405.401 6.91.601 10.414.601h2.404c.801-1.902 2.203-4.005 3.504-5.407 2.604-2.804 11.416-12.517 18.125-23.131H77.732v-.101z"/>
    <path fill="#181C19" d="M136.512 151.305c-.1-.2-.4-.401-.601-.401H77.733c-.2 0-.401.101-.501.301-.1.2-.1.4-.1.701.2.4.3.801.4 1.101.4 1.002.601 2.003.801 2.904.1.601.2 1.202.2 1.703 0 .4.1.801.1 1.201 0 .901-.1 1.402-.1 1.502v.1l.501 13.719c.2.1.501.2.701.3.2.1.501.201.701.301l-.6-14.22v-.2c0-.2 0-.5.1-.901v-1.001c-.1-1.402-.3-3.505-1.202-5.808h55.775c-6.008 9.212-13.418 17.624-17.423 21.929-1.302 1.402-2.604 3.505-3.506 5.708h1.602c.802-1.702 1.704-3.304 3.005-4.706 4.206-4.506 12.017-13.518 18.225-23.232.2-.5.2-.801.1-1.001zm17.524 7.61c-.2-.1-.501-.1-.701.1l-.2.201c-.301.2-.601.5-.902.701-9.312 7.71-18.224 13.718-24.132 17.624-.901.6-1.703 1.101-2.404 1.602.501-.1 1.102-.201 1.603-.301.6-.1 1.201-.2 1.702-.3 5.908-4.006 14.72-9.914 24.033-17.524v9.313c.2-.1.5-.201.7-.401.201-.1.501-.2.701-.4l.101-10.014c-.101-.2-.201-.501-.501-.601z"/>
    <path fill="#fff" d="M164.148 157.613l-41.956-41.957c-3.305-3.304-8.712-3.304-12.017 0l-30.841 30.842c-3.004 3.004-3.305 7.811-.801 11.115.2.301.5.601.8.901l.702.701 20.327 20.328c.401 0 .801.1 1.102.1 3.404.401 6.909.601 10.414.601h3.204c3.605-.1 7.21-.501 10.715-1.001.5-.101 1.101-.201 1.602-.301.601-.1 1.201-.2 1.702-.3 8.512-1.602 16.522-4.406 23.932-8.211.201-.101.501-.201.701-.401.201-.1.501-.2.701-.4 4.006-2.103 7.811-4.607 11.416-7.31.2-.201.4-.301.601-.501-.301-1.502-1.102-3.004-2.304-4.206z"/>
    <path fill="#181C19" d="M164.649 157.112l-41.957-41.956c-3.605-3.605-9.413-3.605-12.918 0l-30.942 30.841c-3.504 3.505-3.604 9.213-.2 12.718l.2.2.501.501.701.6 19.226 19.226c.4.101.801.101 1.102.201.4 0 .801.1 1.101.1l-21.429-21.329-.2-.2-.6-.601c-.401-.501-.702-.901-.902-1.402-.5-.901-.701-1.903-.801-2.904-.1-.701 0-1.402.1-2.103.3-1.402 1.001-2.804 2.103-4.005l30.842-30.842c1.502-1.502 3.504-2.303 5.507-2.303 2.003 0 4.005.801 5.507 2.303l41.957 41.957c1.202 1.201 1.903 2.704 2.203 4.206.2-.201.401-.301.601-.501.2-.2.401-.301.601-.501-.301-1.502-1.102-3.004-2.303-4.206z"/>
    <path fill="#181C19" d="M121.292 158.314h-12.417c-.401 0-.701-.3-.701-.701 0-.4.3-.701.701-.701h11.716v-19.726c0-.401.3-.701.701-.701.4 0 .7.3.7.701v20.427c0 .401-.4.701-.7.701z"/>
    <path fill="#F8CA06" d="M89.247 142.593l16.923-16.923c.801-.801.801-2.003 0-2.804l-3.104-3.104c-.801-.801-2.003-.801-2.804 0l-2.203 2.203c-1.001 1.001-2.403 1.602-3.805 1.602-3.805.1-6.91 3.205-7.01 7.01 0 1.402-.6 2.804-1.602 3.805l-2.203 2.203c-.8.801-.8 2.003 0 2.804l3.105 3.104c.7.801 2.002.801 2.703.1z"/>
    <path fill="#181C19" d="M87.945 143.795c-.7 0-1.402-.301-1.902-.801l-3.105-3.105c-1-1.001-1-2.703 0-3.805l2.203-2.203c.902-.901 1.402-2.103 1.402-3.404.1-4.206 3.505-7.611 7.71-7.711 1.302 0 2.504-.5 3.405-1.402l2.203-2.203c1.002-1.001 2.804-1.001 3.806 0l3.104 3.105c1.001 1.001 1.001 2.703 0 3.805l-16.923 16.923c-.601.6-1.302.801-1.903.801zm13.719-23.933c-.301 0-.701.1-.901.401l-2.203 2.203c-1.102 1.101-2.704 1.802-4.306 1.802-3.405.1-6.209 2.904-6.309 6.309 0 1.602-.7 3.204-1.802 4.306l-2.203 2.203c-.5.5-.5 1.301 0 1.802l3.104 3.104c.5.501 1.302.501 1.802 0l16.923-16.923c.501-.5.501-1.301 0-1.802l-3.104-3.104c-.3-.201-.601-.301-1.001-.301zM67.319 85.816c-.1 0-.2 0-.3-.1-.301-.2-.502-.6-.301-.901l.4-.901c.2-.3.601-.5.901-.3.3.2.501.6.3.9l-.4.902c-.1.3-.3.4-.6.4zm4.406-10.013h-.2c-.401-.1-.602-.5-.401-.901 1.201-3.505 2.002-6.61 2.303-9.513 0-.4.4-.701.8-.601.401 0 .702.4.602.801-.3 3.004-1.002 6.208-2.303 9.913-.3.1-.601.3-.801.3zm1.201-19.627c-.3 0-.6-.2-.7-.5-1.002-2.804-2.604-5.608-4.907-8.412-.2-.3-.2-.7.1-1.001.3-.2.7-.2 1.001.1 2.403 2.904 4.106 5.808 5.107 8.812.1.4-.1.8-.4.901-.1.1-.2.1-.2.1zM60.61 40.656c-.1 0-.3 0-.4-.1-2.604-1.803-5.508-3.205-8.812-4.106-.4-.1-.6-.501-.5-.902.1-.4.5-.6.9-.5 3.405 1.001 6.51 2.403 9.213 4.305.3.2.4.701.2 1.002-.1.2-.3.3-.6.3zM31.77 35.748c-.3 0-.6-.2-.7-.501-.1-.4.2-.801.5-.801.2 0 4.406-1.002 10.114-.801.4 0 .7.3.7.7 0 .401-.3.702-.7.702-5.608-.2-9.713.7-9.813.7h-.1z"/>
    <path fill="#F8CA06" d="M129.401 176.739c5.607-3.805 11.916-7.009 23.231-16.222.301-.3.701-.601 1.102-.901 3.204-2.503 7.21-5.207 9.412-8.512 3.005-4.405 5.208-9.212 6.71-14.119 0 0-10.915-10.914-25.635-5.207-.601 6.008-4.006 13.118-8.311 19.827-6.81 10.615-11.316 16.723-14.019 19.527-4.306 4.706-9.714 17.423 7.51 5.607z"/>
    <path fill="#181C19" d="M119.388 182.347c-.801 0-1.502-.301-1.903-.801-1.902-2.203 1.502-8.312 3.905-10.915 1.803-2.003 6.109-7.11 13.919-19.426 4.907-7.611 7.711-14.42 8.211-19.527 0-.3.201-.501.401-.601 15.02-5.808 26.336 5.207 26.436 5.308.2.2.2.4.2.7-1.502 5.107-3.805 9.914-6.809 14.32-2.003 2.904-5.207 5.407-8.111 7.51-.501.401-1.002.801-1.502 1.102-.401.3-.701.6-1.102.901-8.111 6.709-13.718 10.214-18.325 13.017-1.802 1.102-3.404 2.203-5.006 3.205-4.807 3.605-8.211 5.207-10.314 5.207zm25.434-50.068c-.601 5.407-3.404 12.016-8.311 19.727-7.911 12.416-12.217 17.624-14.019 19.626-2.804 3.004-4.907 7.911-3.905 9.012.2.301 1.902 1.402 10.514-4.506 1.602-1.101 3.304-2.203 5.007-3.304 4.506-2.804 10.113-6.309 18.124-12.918.301-.3.701-.6 1.102-.901.5-.4 1.001-.701 1.502-1.101 2.803-2.103 5.908-4.506 7.81-7.21 2.804-4.106 5.007-8.712 6.509-13.518-1.903-1.603-11.716-9.513-24.333-4.907z"/>
    <path fill="#F8CA06" d="M14.747 71.297c6.81 4.606 12.918 9.412 15.821 18.625 2.804 9.212 2.103 33.145 26.236 43.559 13.017-14.32 7.31-35.248 7.31-35.248-6.008-.1-12.217-3.404-18.125-11.916 0 0-12.316-20.728-31.142-19.927-.1 0-6.81.3-.1 4.907z"/>
    <path fill="#181C19" d="M56.704 134.282c-.1 0-.2 0-.3-.1-19.928-8.712-23.132-26.136-25.235-37.651-.5-2.504-.9-4.707-1.402-6.409-2.803-9.012-8.711-13.618-15.52-18.325-2.504-1.702-3.605-3.104-3.305-4.305.3-1.002 1.402-1.703 3.505-1.903h.1c19.126-.701 31.743 20.127 31.843 20.328 5.207 7.61 11.115 11.515 17.524 11.615.3 0 .6.2.7.5.1.201 5.608 21.53-7.51 35.95 0 .2-.2.3-.4.3zM14.847 67.091c-.1 0-.1 0 0 0-1.702.2-2.303.6-2.303.801 0 .1-.1.901 2.704 2.804 6.809 4.606 13.118 9.613 16.021 19.026.501 1.802 1.002 4.005 1.402 6.609 2.003 11.115 5.107 27.937 23.933 36.349 11.115-12.617 7.71-30.542 6.91-33.746-6.71-.3-12.818-4.406-18.125-12.216-.1-.2-12.317-20.328-30.542-19.627z"/>
    <path fill="#fff" d="M25.26 47.664L.727 38.152l22.03-1.903 2.503 11.415z"/>
    <path fill="#181C19" d="M25.26 48.365h-.3L.427 38.853c-.3-.1-.501-.4-.401-.802 0-.3.3-.6.6-.6l22.03-1.903c.401 0 .702.2.702.6l2.403 11.416c.1.3 0 .501-.2.701 0 0-.2.1-.3.1zM3.831 38.552l20.428 7.91-2.003-9.612-18.425 1.702z"/>
    <path fill="#fff" d="M22.756 36.249L.726 38.152l16.823-7.41 5.207 5.507z"/>
    <path fill="#181C19" d="M.727 38.852c-.3 0-.6-.2-.701-.5-.1-.3.1-.701.4-.801l16.823-7.41c.3-.1.601-.1.801.2l5.207 5.507c.2.2.2.501.1.701-.1.3-.3.4-.6.501L.727 38.852zm16.622-7.31L4.933 37.05l16.322-1.402-3.905-4.106z"/>
</svg>
