<svg xmlns="http://www.w3.org/2000/svg" width="232" height="181" fill="none" viewBox="0 0 232 181">
    <path fill="#F8CA06" d="M232 90.1c0 30.735-15.317 57.866-38.843 74.084-.201.2-.401.3-.601.5-.2.201-.501.301-.701.501-14.316 9.511-31.435 15.117-49.956 15.117-8.109 0-16.018-1.101-23.426-3.104-.2 0-.501-.1-.701-.2-.2-.1-.5-.1-.701-.2-23.326-6.708-42.748-22.625-54.26-43.449-.1-.2-.2-.4-.4-.7-.101-.201-.201-.501-.401-.701-6.508-12.514-10.212-26.73-10.212-41.847 0-14.016 3.204-27.23 8.81-39.044.1-.3.3-.6.4-.8.1-.301.3-.601.401-.802C76.326 20.123 106.76 0 141.899 0 191.655 0 232 40.345 232 90.1z"/>
    <path fill="#181C19" d="M140.697 51.558h-.2c-.701-.2-1.101-.801-1.001-1.402 0-.4.4-.7.7-.7.401 0 .701.3.701.7h.1c.401.1.601.5.501.901-.3.3-.501.5-.801.5z"/>
    <path fill="#181C19" d="M141.699 51.658c-.501 0-.901 0-1.302-.2-.4-.1-.6-.501-.4-.901.2-.4.5-.601.901-.4.701.2 2.403 0 3.504-.201.4-.1.801.1.801.5.1.4-.2.801-.501.801-.3.1-1.702.4-3.003.4z"/>
    <path fill="#fff" d="M135.092 52.158c.4 0 .701 0 1.001-.1h.401c3.504-.3 4.004-.9 4.104-1.1v-.101c-.3-.1-.6-.3-.6-.6 0-.401.3-1.002 1.101-1.803 1.001-1 2.202-1.802 3.604-2.502-.2 0 2.302-6.508 6.007-11.413-15.418-9.01-18.521 10.311-15.618 17.62z"/>
    <path fill="#181C19" d="M140.699 47.853c-.301.401-.601.701-.801 1.002.2-.3.4-.601.801-1.002l.3-.3-.3.3zm0 0c-.301.401-.601.701-.801 1.002.2-.3.4-.601.801-1.002l.3-.3-.3.3zm10.511-13.915s-.1-.1 0 0c-.3-.2-.4-.3-.6-.4-6.408-3.504-10.412-2.003-12.614-.1-4.906 4.304-5.407 13.915-3.605 18.72 0 .1.101.2.101.2.1.3.4.401.6.401h.1l.701-.1H136.594c.801-.1 1.502-.2 2.102-.3h.201c.1 0 .2-.1.4-.1.1 0 .2 0 .3-.1.1 0 .201 0 .301-.1.1 0 .2 0 .2-.1.1 0 .1 0 .2-.101.1 0 .1-.1.2-.1.201-.1.401-.2.501-.3l.1-.1c.1-.1.1-.2.2-.3v-.201-.2c0-.1 0-.3-.1-.4l-.1-.1h-.2v-.101c0-.1.1-.3.3-.5 0-.1.1-.1.1-.1.1-.1.2-.301.401-.501l.3-.3c.601-.501 1.301-1.002 2.102-1.502 0 0 .1 0 .1-.1.301-.2.601-.3.901-.5.101 0 .101-.101.201-.101.1-.1.2-.3.2-.5 0-.1 0-.2.1-.3v-.101c.1-.2.2-.5.3-.8v-.101c.701-1.802 2.303-5.006 4.205-7.909.1-.2.2-.3.3-.5l.901-1.202c.101-.2.201-.4.101-.6 0-.3-.101-.4-.201-.501zm-1.902 1.401c-2.102 3.204-4.605 8.01-5.106 10.012-.1.1-.2.1-.3.2-.1 0-.1.1-.2.1-.2.1-.3.2-.501.3-.801.501-1.501 1.002-2.102 1.602l-.3.3c-.301.401-.601.701-.801 1.002-.1.1-.1.2-.2.3-.101.2-.201.5-.201.7v.401c0 .2.1.4.201.6h-.201c-.1 0-.2 0-.2.101h-.2c-.1 0-.3.1-.501.1h-.2c-.5.1-1.001.2-1.702.2h-.3H135.793c-1.502-4.505-.901-13.114 3.304-16.819 1.301-1.2 2.903-1.701 4.605-1.701 1.802 0 3.904.6 6.207 1.902-.3.3-.401.5-.601.7zm-8.609 12.514c-.301.401-.601.701-.801 1.002.2-.3.4-.601.801-1.002l.3-.3-.3.3zm0 0c-.301.401-.601.701-.801 1.002.2-.3.4-.601.801-1.002l.3-.3-.3.3z"/>
    <path fill="#181C19" d="M158.917 29.132c-2.803-.4-5.707 2.103-8.109 5.306-3.705 4.806-6.307 11.313-6.007 11.313 4.605-2.102 8.409-2.303 8.409-2.303 5.506-3.103 11.113-13.415 5.707-14.316z"/>
    <path fill="#181C19" d="M161.721 31.035c-.201-1.402-1.202-2.303-2.703-2.603-2.603-.4-5.507 1.401-8.41 5.106-.1.1-.2.3-.3.4l-.1.1c-.1.2-.301.4-.401.6-.1.201-.3.401-.4.601-2.403 3.504-4.806 8.21-5.106 10.012-.1.3-.1.5 0 .6 0 0 0 .1.1.1.1.2.3.3.501.3h.1c.1 0 .2 0 .3-.1.1 0 .1 0 .2-.1 4.405-2.002 7.909-2.202 8.009-2.202h.201s.1 0 .1-.1c.2-.1.3-.2.5-.3 4.105-2.403 8.109-8.91 7.409-12.414zm-8.71 11.713c-.701.1-3.504.4-7.008 1.802h-.1c.701-1.702 2.202-4.906 4.205-8.01.1-.2.2-.3.3-.5l.901-1.201c2.403-3.304 4.905-5.006 6.908-5.006h.5c.901.2 1.402.601 1.502 1.502.701 3.003-3.304 9.11-7.208 11.413z"/>
    <path fill="#F8CA06" d="M96.65 111.625c.1.301.1.601.2 1.001 2.202 9.911 8.008 15.017 15.317 17.32 2.803.901 5.806 1.301 8.91 1.501 12.413.701 26.529-3.504 34.638-5.506-11.813-7.008-19.822-14.116-34.839-17.119-5.105 1.201-17.419 4.105-24.227 2.803z"/>
    <path fill="#181C19" d="M156.115 125.34l-.1-.1h-.1c-.701-.4-1.302-.801-2.002-1.201-.701-.401-1.302-.801-2.003-1.201-1.301-.801-2.502-1.602-3.704-2.403-3.103-2.002-6.107-3.905-9.21-5.707-.401-.2-.701-.4-1.101-.6-.301-.2-.601-.301-.901-.501-2.003-1.001-4.005-1.902-6.207-2.803-1.102-.4-2.203-.801-3.404-1.201-.1 0-.2 0-.2-.1-.501-.1-1.001-.301-1.602-.401-.3-.1-.601-.2-.901-.2-.3-.1-.601-.2-.901-.2h-.1c-.501-.1-.901-.2-1.402-.301-.4-.1-.901-.2-1.401-.3h-.301c-.3.1-.701.2-1.201.3-.1 0-.3.101-.501.101-1.001.2-2.102.5-3.403.8-.301.101-.701.201-1.102.201l-1.501.3c-4.505.901-9.811 1.602-13.916 1.301-.3 0-.5 0-.8-.1h-.201c-.2 0-.4-.1-.7-.1h-.101c-.2 0-.3 0-.5-.1h-.2c-.1 0-.301.1-.401.2-.1.1-.2.201-.2.401v.3l.2 1.001c.7 3.304 1.902 6.207 3.504 8.71.3.4.5.801.801 1.201.3.401.6.701.901 1.102l.1.1c.3.4.6.7.901 1.001l.901.901c.1 0 .1.1.2.2.3.3.701.601 1.001.801.401.3.701.601 1.101.801 0 0 .1.1.201.1.3.2.5.3.8.5.201.101.501.301.701.401.2.1.501.3.701.4.2.1.3.201.501.201.3.1.6.3.8.4.301.1.601.2.901.401.101.1.301.1.401.2.1.1.3.1.4.2.201.1.501.2.701.2.1 0 .2 0 .2.1.201 0 .301.1.501.1 2.303.701 4.905 1.202 7.909 1.402H125.681c.601 0 1.301-.1 1.902-.1 1.001-.1 1.902-.1 2.903-.2 1.001-.1 1.902-.201 2.904-.401.6-.1 1.301-.2 1.902-.3.6-.1 1.301-.2 1.902-.3 1.401-.301 2.803-.501 4.205-.801.5-.101.901-.201 1.301-.301.601-.1 1.201-.3 1.802-.4.901-.2 1.702-.401 2.603-.601 1.101-.3 2.102-.5 3.103-.801h.101c.4-.1.7-.2 1.101-.3.4-.1.701-.2 1.101-.3.1 0 .2-.101.3-.101l1.202-.3c.5-.1 1.001-.3 1.501-.4.1 0 .201 0 .301-.1.2 0 .3-.201.4-.301 0-.1.1-.1.1-.2 0-.2-.1-.4-.2-.601zm-7.008 1.402c-1.001.2-2.102.5-3.203.801-1.402.3-2.804.701-4.305 1.001-1.502.3-3.004.601-4.605.901-.301 0-.601.1-.901.2-.601.1-1.202.2-1.903.301-1.902.3-3.804.5-5.706.7-.601 0-1.201.1-1.902.1-1.902.101-3.804.101-5.606 0-3.404-.2-6.207-.7-8.71-1.501-1.001-.301-1.902-.701-2.803-1.102-1.302-.6-2.603-1.401-3.704-2.202-.301-.2-.501-.4-.801-.601-.501-.4-1.001-.801-1.402-1.301-.2-.2-.4-.401-.5-.601-.301-.4-.701-.701-1.002-1.101-2.202-2.703-3.704-6.007-4.605-9.911.3 0 .701.1 1.002.1.3 0 .6 0 .9.1H100.754c1.101 0 2.203-.1 3.404-.1.701-.1 1.301-.1 2.002-.2.501 0 1.001-.1 1.502-.2.901-.101 1.802-.301 2.703-.401.3 0 .6-.1.801-.1.6-.1 1.201-.2 1.902-.3l1.502-.301c.5-.1 1.101-.2 1.601-.3.601-.1 1.102-.3 1.702-.4.2 0 .301-.101.501-.101.5-.1 1.001-.2 1.401-.3.201 0 .401-.1.601-.2.1 0 .1 0 .2-.1.301.1.601.1.901.2.2 0 .501.1.701.1 1.902.401 3.604.901 5.206 1.402.5.2 1.001.3 1.502.5 1.001.301 1.902.701 2.803 1.101.3.101.6.201.801.401 2.602 1.101 5.005 2.403 7.408 3.804.801.401 1.502.901 2.302 1.402 1.602 1.001 3.304 2.102 5.006 3.203 1.001.601 2.002 1.302 3.003 1.902.501.301 1.102.701 1.602 1.002.501.3 1.101.7 1.702 1.001-.5.2-1.101.3-1.702.4-.6.2-1.602.501-2.703.701z"/>
    <path fill="#F8CA06" d="M135.391 57.865c9.111 7.208 17.62 1.902 17.62 1.902 0-.4 0-.901.1-1.201.2-1.202.901-2.303 1.802-3.104.1-.1.301-.2.401-.4.701-.701 1.301-1.702 1.501-3.104 0 0 .101-2.803.901-4.805 0 0-3.403-.901-4.705-3.604 0 0-3.704.2-8.409 2.302-1.302.601-2.603 1.502-3.604 2.503-.701.801-1.001 1.302-1.102 1.702 0 .3.201.5.601.6v.1s.1.802-4.104 1.102h-.401c-.3 0-.601 0-1.001.1.1.2.801 2.603.4 5.907z"/>
    <path fill="#181C19" d="M141.699 48.855c-.2.2-.3.3-.401.5.101-.1.201-.3.401-.5zm0 0c-.2.2-.3.3-.401.5.101-.1.201-.3.401-.5zm-.901 1.301h0zm17.72-3.304c-.1-.2-.301-.3-.501-.4 0 0-2.703-.701-4.004-2.703-.1-.1-.201-.3-.301-.5 0 0 0-.1-.1-.1-.1-.201-.3-.301-.6-.301-.101 0-3.104.1-7.209 1.802-.3.1-.6.2-.901.4-.2.1-.4.2-.5.2-.1 0-.2.1-.3.1-.101.1-.201.1-.301.2-.1 0-.1.1-.2.1-.2.101-.3.201-.501.301-.8.5-1.501 1.001-2.102 1.602l-.4.4c-.301.3-.501.601-.701.901-.1.1-.1.2-.2.3-.201.301-.201.501-.301.802v.6c0 .1 0 .2.1.3h-.2c-.1 0-.2 0-.2.1h-.2c-.2 0-.501.101-.801.101-.401.1-1.001.1-1.602.2h-.3H134.891c-.2.1-.4.3-.5.5v.201c0 .1 0 .2.1.2.1.3.4 1.902.4 4.005V57.564c0 .2.1.4.301.5.1.1.2.201.4.301.2.2.401.3.601.5 3.504 2.503 7.008 3.204 9.711 3.204.7 0 1.401 0 2.002-.1 2.102-.3 3.804-.9 4.805-1.401.301-.1.501-.2.701-.3.2-.1.2-.1.3-.1.201-.1.1-.301.1-.501v-.2c0-.3 0-.601.101-.901.2-1.002 1.001-2.003 1.802-2.804.2-.1.3-.3.4-.4.901-.901 1.001-2.002 1.301-3.304v-.1s.201-2.503 1.002-4.405c0-.5.2-.6.1-.7zm-3.905 8.01c-1.101 1-1.802 2.202-2.002 3.403-.1.3-.1.6-.1.901-1.602.8-8.71 4.005-16.218-1.802.1-1.401 0-3.404-.2-4.705H136.693c.501 0 1.001-.1 1.502-.1.2 0 .3 0 .4-.1.301-.1.501-.1.801-.2.1 0 .201 0 .301-.1.1 0 .2 0 .3-.1.1 0 .2 0 .2-.101.1 0 .1 0 .2-.1.101 0 .101-.1.201-.1.2-.1.4-.2.5-.3l.1-.1c.1-.1.201-.301.201-.401v-.1-.2c0-.2 0-.3-.101-.4l-.1-.101h-.1-.1s0-.1.1-.1c0-.1.1-.3.301-.5 0-.1.1-.1.1-.1.1-.1.2-.301.4-.501l.3-.3c.601-.501 1.202-1.102 2.103-1.502 0 0 .1 0 .1-.1.3-.1.5-.3.801-.401 3.604-1.702 6.607-2.102 7.708-2.202 1.102 1.902 3.204 2.903 4.205 3.303-.601 1.802-.701 3.905-.701 4.305-.2 1.101-.7 2.002-1.401 2.703-.2-.1-.301 0-.401.1zm-12.914-6.008c-.2.2-.3.3-.401.501.101-.1.201-.3.401-.5zm0 0c-.2.2-.3.3-.401.501.101-.1.201-.3.401-.5z"/>
    <path fill="#181C19" d="M96.65 111.625c6.907 1.402 19.221-1.501 24.126-2.803 1.402-.4 2.203-.601 2.203-.601 13.114-3.604 26.229-3.403 37.742-1.701 10.011-5.707 17.92-2.303 20.523-.501 3.604 2.503 2.603 6.307 2.603 6.307 10.011 3.504 16.318 7.108 16.618 7.208.501-6.507.901-18.02-1.701-27.03-3.905-13.315-17.62-19.021-25.529-20.723-7.909-1.702-15.217-5.006-18.521-8.31-1.201-1.201-1.602-2.502-1.602-3.704 0 0-8.609 5.306-17.619-1.902-.401 4.105-2.303 9.51-9.11 13.015-11.914 6.107-35.54 12.614-29.734 40.745z"/>
    <path fill="#181C19" d="M181.744 105.318c-.5-.3-3.003-1.902-6.908-2.503 3.905.601 6.408 2.303 6.908 2.503 1.101.801 1.802 1.702 2.303 2.603-.501-.801-1.202-1.802-2.303-2.603zm-21.124.401c-13.515-2.003-26.229-1.402-37.842 1.701 0 0-.1 0-.2.101-.301.1-1.302.4-1.902.5-.301.1-.701.2-1.202.3-.1 0-.3.101-.5.101-1.001.2-2.103.5-3.404.8-.3.101-.701.201-1.101.201l-1.502.3c-4.505.901-9.811 1.602-13.915 1.302-.3 0-.501 0-.801-.101h-.2c-.2 0-.401-.1-.701-.1h-.1c-4.606-23.626 12.213-31.435 24.527-37.141 1.802-.801 3.504-1.602 5.006-2.403 6.407-3.304 8.609-8.31 9.31-12.314-.2-.1-.4-.3-.601-.5 0 .2 0 .4-.1.6 0 .1 0 .3-.1.4v.201c-.1.4-.2.8-.3 1.101-.1.3-.201.5-.301.801 0 .1-.1.3-.1.4-.2.601-.5 1.302-.901 1.903 0 0 0 .1-.1.2-.1.3-.3.5-.5.8-.101.1-.201.201-.201.401-.1.1-.2.2-.3.4-.4.501-.801 1.102-1.301 1.602l-.201.2-.5.501c-.2.2-.301.3-.501.4-.1.1-.3.201-.4.401-.2.1-.301.2-.501.3-.2.1-.3.2-.5.3-.201.101-.301.201-.501.301-.1.1-.2.2-.4.2-.1.1-.301.2-.401.2-.3.2-.5.301-.801.501-3.504 1.802-8.009 3.604-12.514 6.007-.4.2-.901.5-1.301.7-1.902 1.102-3.804 2.303-5.606 3.605l-1.202.9c-.6.501-1.101 1.002-1.702 1.502-.2.2-.4.3-.5.501-.2.2-.401.3-.501.5-5.206 5.407-8.61 12.815-7.008 24.027 0 .401.1.701.2 1.102.1.4.1.7.2 1.101 0 .2.1.501.1.701.201 0 .501.1.702.1.3 0 .6.1.8.1.2 0 .401 0 .601.1h4.305c.601 0 1.201-.1 1.702-.1h1.602c.901-.1 1.802-.2 2.703-.4h.2c.2 0 .3 0 .501-.101.2 0 .5-.1.7-.1h.1c.201 0 .401-.1.501-.1h.1c.2 0 .401-.1.601-.1.2 0 .4-.1.701-.1.2 0 .4-.1.6-.1.201 0 .401-.1.601-.1h.2c.1 0 .301-.1.401-.1H114.669c.1 0 .2 0 .3-.101h.1c.201 0 .401-.1.601-.1.2 0 .401-.1.601-.1.1 0 .3-.1.4-.1h.2c.101 0 .201-.1.401-.1.2-.1.5-.1.801-.2.1 0 .2 0 .3-.1.701-.201 1.201-.301 1.802-.501.1 0 .2-.1.3-.1h.101c.1 0 .2 0 .2-.1.1 0 .2 0 .2-.1.1 0 .2 0 .2-.1h.1c.401-.1.701-.201.901-.201h.501c.901-.3 1.902-.5 2.803-.7.901-.201 1.902-.401 2.803-.601.501-.1.901-.2 1.402-.3l1.802-.301c.2 0 .4-.1.6-.1.601-.1 1.202-.2 1.802-.2.501-.1 1.002-.1 1.502-.2.401 0 .801-.1 1.202-.1.901-.1 1.802-.201 2.803-.201 3.103-.2 6.207-.2 9.31-.1.601 0 1.302 0 1.902.1.301 0 .701 0 1.001.101h.1c.401 0 .701 0 1.102.1.2 0 .5 0 .801.1.3 0 .6 0 .901.1.5.1 1.101.1 1.701.2.201 0 .401 0 .501.1.4 0 .801.1 1.302.1.6.1 1.201.201 1.802.201 0-.201.2-.401.3-.501.4-.3.5-.3.5-.4l.601-.301-.601.301zm.601-.301c.401-.2.801-.4 1.101-.6-.3.2-.7.4-1.101.6zm20.523-.1c-.5-.3-3.003-1.902-6.908-2.503 3.905.601 6.408 2.303 6.908 2.503 1.101.801 1.802 1.702 2.303 2.603-.501-.801-1.202-1.802-2.303-2.603zm-19.322-.5c-.4.2-.8.4-1.101.6.301-.2.701-.4 1.101-.6zm-1.802.901c-13.515-2.003-26.229-1.402-37.842 1.701 0 0-.1 0-.2.101-.301.1-1.302.4-1.902.5-.301.1-.701.2-1.202.3-.1 0-.3.101-.5.101-1.001.2-2.103.5-3.404.8-.3.101-.701.201-1.101.201l-1.502.3c-4.505.901-9.811 1.602-13.915 1.302-.3 0-.501 0-.801-.101h-.2c-.2 0-.401-.1-.701-.1h-.1c-4.606-23.626 12.213-31.435 24.527-37.141 1.802-.801 3.504-1.602 5.006-2.403 6.407-3.304 8.609-8.31 9.31-12.314-.2-.1-.4-.3-.601-.5 0 .2 0 .4-.1.6 0 .1 0 .3-.1.4v.201c-.1.4-.2.8-.3 1.101-.1.3-.201.5-.301.801 0 .1-.1.3-.1.4-.2.601-.5 1.302-.901 1.903 0 0 0 .1-.1.2-.1.3-.3.5-.5.8-.101.1-.201.201-.201.401-.1.1-.2.2-.3.4-.4.501-.801 1.102-1.301 1.602l-.201.2-.5.501c-.2.2-.301.3-.501.4-.1.1-.3.201-.4.401-.2.1-.301.2-.501.3-.2.1-.3.2-.5.3-.201.101-.301.201-.501.301-.1.1-.2.2-.4.2-.1.1-.301.2-.401.2-.3.2-.5.301-.801.501-3.504 1.802-8.009 3.604-12.514 6.007-.4.2-.901.5-1.301.7-1.902 1.102-3.804 2.303-5.606 3.605l-1.202.9c-.6.501-1.101 1.002-1.702 1.502-.2.2-.4.3-.5.501-.2.2-.401.3-.501.5-5.206 5.407-8.61 12.815-7.008 24.027 0 .401.1.701.2 1.102.1.4.1.7.2 1.101 0 .2.1.501.1.701.201 0 .501.1.702.1.3 0 .6.1.8.1.2 0 .401 0 .601.1h4.305c.601 0 1.201-.1 1.702-.1h1.602c.901-.1 1.802-.2 2.703-.4h.2c.2 0 .3 0 .501-.101.2 0 .5-.1.7-.1h.1c.201 0 .401-.1.501-.1h.1c.2 0 .401-.1.601-.1.2 0 .4-.1.701-.1.2 0 .4-.1.6-.1.201 0 .401-.1.601-.1h.2c.1 0 .301-.1.401-.1H114.669c.1 0 .2 0 .3-.101h.1c.201 0 .401-.1.601-.1.2 0 .401-.1.601-.1.1 0 .3-.1.4-.1h.2c.101 0 .201-.1.401-.1.2-.1.5-.1.801-.2.1 0 .2 0 .3-.1.701-.201 1.201-.301 1.802-.501.1 0 .2-.1.3-.1h.101c.1 0 .2 0 .2-.1.1 0 .2 0 .2-.1.1 0 .2 0 .2-.1h.1c.401-.1.701-.201.901-.201h.501c.901-.3 1.902-.5 2.803-.7.901-.201 1.902-.401 2.803-.601.501-.1.901-.2 1.402-.3l1.802-.301c.2 0 .4-.1.6-.1.601-.1 1.202-.2 1.802-.2.501-.1 1.002-.1 1.502-.2.401 0 .801-.1 1.202-.1.901-.1 1.802-.201 2.803-.201 3.103-.2 6.207-.2 9.31-.1.601 0 1.302 0 1.902.1.301 0 .701 0 1.001.101h.1c.401 0 .701 0 1.102.1.2 0 .5 0 .801.1.3 0 .6 0 .901.1.5.1 1.101.1 1.701.2.201 0 .401 0 .501.1.4 0 .801.1 1.302.1.6.1 1.201.201 1.802.201 0-.201.2-.401.3-.501.4-.3.5-.3.5-.4.301-.101.501-.201.701-.301-.3.1-.5.2-.701.301zm38.844-13.415c-3.604-12.214-15.818-19.022-26.029-21.124-7.809-1.602-14.917-4.806-18.221-8.21-.901-.9-1.401-2.002-1.401-3.203v-.1c0-.2-.2-.4-.301-.5-.1-.1-.2-.1-.3-.1-.1 0-.3 0-.4.1 0 0-.1.1-.301.2-1.601.8-8.709 3.904-16.218-1.802-.1-.1-.2-.1-.3-.2h-.1c-.1-.1-.2-.1-.301-.1h-.3c-.1.1-.2.1-.3.2-.1.1-.1.2-.1.3v.4c-.501 3.805-2.403 8.81-8.61 12.014-1.502.8-3.204 1.602-4.906 2.403-12.113 5.606-30.334 14.115-25.228 39.143 0 .1 0 .201.1.201.1.2.3.3.5.3h.301c.2 0 .5.1.701.1.3 0 .7.1 1.001.1.3 0 .6 0 .901.1H101.054c1.101 0 2.202-.1 3.404-.1.7-.1 1.301-.1 2.002-.2.5 0 1.001-.1 1.501-.2.901-.1 1.802-.301 2.703-.401.301 0 .601-.1.801-.1.601-.1 1.202-.2 1.903-.3l1.501-.301c.501-.1 1.101-.2 1.602-.3.601-.1 1.101-.3 1.702-.4.2 0 .3-.101.5-.101.501-.1 1.002-.2 1.402-.3.2 0 .4-.1.601-.2.1 0 .1 0 .2-.1h.2c.501-.1 1.001-.2 1.302-.301.6-.2.901-.2.901-.2.2 0 .4-.1.5-.1 11.313-3.003 23.727-3.504 36.841-1.502h.201c.1 0 .2 0 .3-.1.2-.1.501-.3.701-.4h.1c.4-.2.701-.401 1.101-.501 10.011-4.705 17.119-.1 17.92.401.901.6 1.502 1.401 1.802 2.102.2.3.301.601.301.801 0 .1.1.3.1.4 0 .201 0 .301.1.401 0 .3.1.701 0 .901v.1c0 .401-.1.601-.1.701-.1.3.1.701.4.801.1 0 .2 0 .2.1.901.3 1.702.601 2.603 1.001.501.2.901.4 1.402.501.5.2.901.3 1.301.5.401.2.801.3 1.202.501 2.002.801 3.804 1.601 5.306 2.302.3.1.6.301.901.401l3.203 1.601c.1 0 .1.101.2.101.201.1.301.1.301.2.1 0 .1 0 .2.1h.1c.1 0 .2 0 .4-.1l.301-.301c0-.1.1-.2.1-.2.5-7.808.701-18.821-1.802-27.43zm.4 26.029c-.2-.1-.4-.201-.5-.301-1.202-.6-2.703-1.401-4.705-2.202-.401-.2-.701-.3-1.102-.501-.801-.3-1.501-.7-2.402-1.001-.401-.2-.801-.3-1.202-.5 0 0-.1 0-.2-.1-.901-.401-1.802-.701-2.803-1.102-.401-.1-.701-.3-1.101-.4 0 0-.1 0-.201-.1-.4-.1-.7-.301-1.101-.401v-.3c0-.4 0-.901-.1-1.402 0-.2-.1-.4-.1-.6-.1-.401-.2-.701-.3-1.102-.1-.1-.1-.3-.201-.4-.5-.901-1.201-1.802-2.302-2.603-.501-.3-3.004-1.902-6.908-2.503-1.401-.2-3.103-.3-4.805-.1-.2 0-.401.1-.701.1-.401.1-.901.1-1.402.201-.4.1-.7.1-1.101.2-.4.1-.701.2-1.101.3-.2.1-.401.1-.601.2-.6.201-1.201.401-1.802.701-.3.1-.6.3-1.001.401-.4.2-.801.4-1.101.6l-.601.301c-13.515-2.003-26.229-1.402-37.842 1.701 0 0-.1 0-.2.101-.301.1-1.302.4-1.903.5-.3.1-.7.2-1.201.3-.1 0-.3.101-.5.101-1.002.2-2.103.5-3.404.8-.301.101-.701.201-1.101.201l-1.502.3c-4.505.901-9.811 1.602-13.916 1.302-.3 0-.5 0-.8-.101h-.2c-.201 0-.401-.1-.702-.1h-.1c-4.605-23.626 12.214-31.435 24.528-37.141 1.802-.801 3.504-1.602 5.005-2.403 6.407-3.304 8.61-8.31 9.311-12.314 4.505 3.204 8.81 3.404 11.713 3.104 2.102-.3 3.804-.901 4.705-1.402.2 1.202.801 2.203 1.702 3.104 3.404 3.503 10.812 6.907 18.821 8.51 9.911 2.102 21.624 8.509 25.028 20.222 2.703 8.609 2.503 19.522 2.002 25.829zm-39.244-12.614c-13.515-2.003-26.229-1.402-37.842 1.701 0 0-.1 0-.2.101-.301.1-1.302.4-1.902.5-.301.1-.701.2-1.202.3-.1 0-.3.101-.5.101-1.001.2-2.103.5-3.404.8-.3.101-.701.201-1.101.201l-1.502.3c-4.505.901-9.811 1.602-13.915 1.302-.3 0-.501 0-.801-.101h-.2c-.2 0-.401-.1-.701-.1h-.1c-4.606-23.626 12.213-31.435 24.527-37.141 1.802-.801 3.504-1.602 5.006-2.403 6.407-3.304 8.609-8.31 9.31-12.314-.2-.1-.4-.3-.601-.5 0 .2 0 .4-.1.6 0 .1 0 .3-.1.4v.201c-.1.4-.2.8-.3 1.101-.1.3-.201.5-.301.801 0 .1-.1.3-.1.4-.2.601-.5 1.302-.901 1.903 0 0 0 .1-.1.2-.1.3-.3.5-.5.8-.101.1-.201.201-.201.401-.1.1-.2.2-.3.4-.4.501-.801 1.102-1.301 1.602l-.201.2-.5.501c-.2.2-.301.3-.501.4-.1.1-.3.201-.4.401-.2.1-.301.2-.501.3-.2.1-.3.2-.5.3-.201.101-.301.201-.501.301-.1.1-.2.2-.4.2-.1.1-.301.2-.401.2-.3.2-.5.301-.801.501-3.504 1.802-8.009 3.604-12.514 6.007-.4.2-.901.5-1.301.7-1.902 1.102-3.804 2.303-5.606 3.605l-1.202.9c-.6.501-1.101 1.002-1.702 1.502-.2.2-.4.3-.5.501-.2.2-.401.3-.501.5-5.206 5.407-8.61 12.815-7.008 24.027 0 .401.1.701.2 1.102.1.4.1.7.2 1.101 0 .2.1.501.1.701.201 0 .501.1.702.1.3 0 .6.1.8.1.2 0 .401 0 .601.1h4.305c.601 0 1.201-.1 1.702-.1h1.602c.901-.1 1.802-.2 2.703-.4h.2c.2 0 .3 0 .501-.101.2 0 .5-.1.7-.1h.1c.201 0 .401-.1.501-.1h.1c.2 0 .401-.1.601-.1.2 0 .4-.1.701-.1.2 0 .4-.1.6-.1.201 0 .401-.1.601-.1h.2c.1 0 .301-.1.401-.1H114.669c.1 0 .2 0 .3-.101h.1c.201 0 .401-.1.601-.1.2 0 .401-.1.601-.1.1 0 .3-.1.4-.1h.2c.101 0 .201-.1.401-.1.2-.1.5-.1.801-.2.1 0 .2 0 .3-.1.701-.201 1.201-.301 1.802-.501.1 0 .2-.1.3-.1h.101c.1 0 .2 0 .2-.1.1 0 .2 0 .2-.1.1 0 .2 0 .2-.1h.1c.401-.1.701-.201.901-.201h.501c.901-.3 1.902-.5 2.803-.7.901-.201 1.902-.401 2.803-.601.501-.1.901-.2 1.402-.3l1.802-.301c.2 0 .4-.1.6-.1.601-.1 1.202-.2 1.802-.2.501-.1 1.002-.1 1.502-.2.401 0 .801-.1 1.202-.1.901-.1 1.802-.201 2.803-.201 3.103-.2 6.207-.2 9.31-.1.601 0 1.302 0 1.902.1.301 0 .701 0 1.001.101h.1c.401 0 .701 0 1.102.1.2 0 .5 0 .801.1.3 0 .6 0 .901.1.5.1 1.101.1 1.701.2.201 0 .401 0 .501.1.4 0 .801.1 1.302.1.6.1 1.201.201 1.802.201 0-.201.2-.401.3-.501.4-.3.5-.3.5-.4l.601-.301-.601.301zm.601-.301c.401-.2.801-.4 1.101-.6-.3.2-.7.4-1.101.6zm20.523-.1c-.5-.3-3.003-1.902-6.908-2.503 3.905.601 6.408 2.303 6.908 2.503 1.101.801 1.802 1.702 2.303 2.603-.501-.801-1.202-1.802-2.303-2.603zm-21.124.401c-13.515-2.003-26.229-1.402-37.842 1.701 0 0-.1 0-.2.101-.301.1-1.302.4-1.902.5-.301.1-.701.2-1.202.3-.1 0-.3.101-.5.101-1.001.2-2.103.5-3.404.8-.3.101-.701.201-1.101.201l-1.502.3c-4.505.901-9.811 1.602-13.915 1.302-.3 0-.501 0-.801-.101h-.2c-.2 0-.401-.1-.701-.1h-.1c-4.606-23.626 12.213-31.435 24.527-37.141 1.802-.801 3.504-1.602 5.006-2.403 6.407-3.304 8.609-8.31 9.31-12.314-.2-.1-.4-.3-.601-.5 0 .2 0 .4-.1.6 0 .1 0 .3-.1.4v.201c-.1.4-.2.8-.3 1.101-.1.3-.201.5-.301.801 0 .1-.1.3-.1.4-.2.601-.5 1.302-.901 1.903 0 0 0 .1-.1.2-.1.3-.3.5-.5.8-.101.1-.201.201-.201.401-.1.1-.2.2-.3.4-.4.501-.801 1.102-1.301 1.602l-.201.2-.5.501c-.2.2-.301.3-.501.4-.1.1-.3.201-.4.401-.2.1-.301.2-.501.3-.2.1-.3.2-.5.3-.201.101-.301.201-.501.301-.1.1-.2.2-.4.2-.1.1-.301.2-.401.2-.3.2-.5.301-.801.501-3.504 1.802-8.009 3.604-12.514 6.007-.4.2-.901.5-1.301.7-1.902 1.102-3.804 2.303-5.606 3.605l-1.202.9c-.6.501-1.101 1.002-1.702 1.502-.2.2-.4.3-.5.501-.2.2-.401.3-.501.5-5.206 5.407-8.61 12.815-7.008 24.027 0 .401.1.701.2 1.102.1.4.1.7.2 1.101 0 .2.1.501.1.701.201 0 .501.1.702.1.3 0 .6.1.8.1.2 0 .401 0 .601.1h4.305c.601 0 1.201-.1 1.702-.1h1.602c.901-.1 1.802-.2 2.703-.4h.2c.2 0 .3 0 .501-.101.2 0 .5-.1.7-.1h.1c.201 0 .401-.1.501-.1h.1c.2 0 .401-.1.601-.1.2 0 .4-.1.701-.1.2 0 .4-.1.6-.1.201 0 .401-.1.601-.1h.2c.1 0 .301-.1.401-.1H114.669c.1 0 .2 0 .3-.101h.1c.201 0 .401-.1.601-.1.2 0 .401-.1.601-.1.1 0 .3-.1.4-.1h.2c.101 0 .201-.1.401-.1.2-.1.5-.1.801-.2.1 0 .2 0 .3-.1.701-.201 1.201-.301 1.802-.501.1 0 .2-.1.3-.1h.101c.1 0 .2 0 .2-.1.1 0 .2 0 .2-.1.1 0 .2 0 .2-.1h.1c.401-.1.701-.201.901-.201h.601c.901-.3 1.902-.5 2.803-.7.901-.201 1.902-.401 2.803-.601.501-.1.901-.2 1.402-.3l1.802-.301c.2 0 .4-.1.601-.1.6-.1 1.201-.2 1.802-.2.5-.1 1.001-.1 1.501-.2.401 0 .801-.1 1.202-.1.901-.1 1.802-.201 2.803-.201 3.103-.2 6.207-.2 9.31-.1.601 0 1.302 0 1.902.1.301 0 .701 0 1.001.101h.101c.4 0 .7 0 1.101.1.2 0 .5 0 .801.1.3 0 .6 0 .901.1.5.1 1.101.1 1.702.2.2 0 .4 0 .5.1.401 0 .801.1 1.302.1.6.1 1.201.201 1.802.201 0-.201.2-.401.3-.501.3-.3.4-.3.4-.4l.601-.301-.601.301zm.601-.301c.401-.2.801-.4 1.101-.6-.3.2-.7.4-1.101.6zm20.523-.1c-.5-.3-3.003-1.902-6.908-2.503 3.905.601 6.408 2.303 6.908 2.503 1.101.801 1.802 1.702 2.303 2.603-.501-.801-1.202-1.802-2.303-2.603z"/>
    <path fill="#F8CA06" d="M120.774 108.722c15.017 2.903 23.026 10.111 34.839 17.119 5.006 3.004 10.812 5.907 18.02 8.41 5.006 1.802 9.11 2.402 12.414 2.302 12.714-.4 13.916-11.913 13.916-11.913s.3-2.002.5-5.106c-.3-.2-6.707-3.704-16.618-7.208-6.408-2.302-14.317-4.505-23.126-5.806-11.613-1.702-24.628-1.903-37.743 1.701 0-.1-.901.201-2.202.501z"/>
    <path fill="#181C19" d="M160.019 106.62v-.201c-.601-.1-1.202-.2-1.802-.2-.401-.1-.801-.1-1.302-.1-.2 0-.4-.1-.5-.1-.501-.1-1.102-.1-1.702-.2-.301 0-.601-.101-.901-.101-.201 0-.501-.1-.801-.1-.401 0-.701-.1-1.101-.1-.301 0-.701 0-1.002-.1-.6 0-1.201-.1-1.902-.1-3.003-.1-6.107-.1-9.31.1-.901.1-1.802.1-2.803.2-.401 0-.801.1-1.202.1-.5 0-1.001.101-1.501.201-.601.1-1.202.2-1.802.2-.201 0-.401.1-.601.1l-1.802.3c-.501.101-.901.201-1.402.301-.901.2-1.902.4-2.803.6-1.001.201-1.902.501-2.803.701h-.2H122.477c.5.1.901.2 1.401.301 11.313-3.004 23.627-3.504 36.741-1.502-.4.1-.5-.1-.6-.3zm0 0v-.201c-.601-.1-1.202-.2-1.802-.2-.401-.1-.801-.1-1.302-.1-.2 0-.4-.1-.5-.1-.501-.1-1.102-.1-1.702-.2-.301 0-.601-.101-.901-.101-.201 0-.501-.1-.801-.1-.401 0-.701-.1-1.101-.1-.301 0-.701 0-1.002-.1-.6 0-1.201-.1-1.902-.1-3.003-.1-6.107-.1-9.31.1-.901.1-1.802.1-2.803.2-.401 0-.801.1-1.202.1-.5 0-1.001.101-1.501.201-.601.1-1.202.2-1.802.2-.201 0-.401.1-.601.1l-1.802.3c-.501.101-.901.201-1.402.301-.901.2-1.902.4-2.803.6-1.001.201-1.902.501-2.803.701h-.2H122.477c.5.1.901.2 1.401.301 11.313-3.004 23.627-3.504 36.741-1.502-.4.1-.5-.1-.6-.3zm40.745 12.213l-.1-.1h-.1c-.2-.1-.4-.2-.701-.3-.2-.1-.4-.2-.5-.301-1.202-.6-2.703-1.401-4.706-2.202-.4-.2-.7-.3-1.101-.501-.801-.3-1.502-.7-2.403-1.001-.4-.2-.8-.3-1.201-.5 0 0-.1 0-.2-.1-.901-.401-1.802-.701-2.803-1.102-.401-.1-.701-.3-1.101-.4 0 0-.101 0-.201-.1-.4-.1-.7-.301-1.101-.401-.2-.1-.4-.2-.601-.2h-.1c-.2-.1-.5-.2-.7-.2-6.808-2.303-13.616-4.105-20.323-5.206-.401-.1-.801-.1-1.101-.2-.301-.1-.601-.1-1.002-.2h-.1c-13.515-2.003-26.229-1.402-37.942 1.702-.1 0-.1.1-.2.1-.301.1-1.302.4-1.903.5-.3.1-.5.401-.5.701v.2c.1.2.3.501.5.501h.201c.3.1.6.1.901.2.2 0 .5.1.7.1 1.903.401 3.605.901 5.206 1.402.501.2 1.001.3 1.502.5 1.001.301 1.902.701 2.803 1.101.3.101.601.201.801.401 2.603 1.101 5.006 2.403 7.408 3.804.801.501 1.502.901 2.303 1.402 1.602 1.001 3.304 2.102 5.006 3.203 1.001.601 2.002 1.302 3.003 1.902.5.301 1.101.701 1.602 1.002.5.3 1.101.7 1.702 1.001.3.2.5.3.8.5l.601.301c.1 0 .2.1.3.2 6.007 3.504 11.714 6.207 17.921 8.309 4.404 1.502 8.309 2.303 11.713 2.303H186.949c12.213-1.001 13.515-12.314 13.515-12.414 0-.1.3-1.902.5-4.906v-.3c.201-.3.101-.601-.2-.701zm-14.616 17.019H185.347c-3.304 0-7.108-.701-11.413-2.202-8.009-2.803-13.915-6.007-17.72-8.31-.1 0-.1-.1-.2-.1 0 0-.1 0-.1-.1-.601-.4-1.301-.801-1.902-1.101-.701-.4-1.302-.801-2.002-1.201-1.302-.801-2.503-1.602-3.704-2.403-3.104-2.002-6.107-3.904-9.211-5.706-.4-.201-.701-.401-1.101-.601-.3-.2-.601-.3-.901-.501-2.002-1.001-4.005-1.902-6.207-2.803-1.101-.4-2.202-.801-3.404-1.201-.1 0-.2 0-.2-.1-.501-.1-1.001-.301-1.602-.401-.3-.1-.6-.2-.901-.2-.3-.1-.601-.2-.901-.2 11.313-3.004 23.627-3.504 36.741-1.502h.401c7.508 1.101 15.217 3.104 22.825 5.807.1 0 .1 0 .201.1.4.2.8.3 1.301.5.501.201.901.301 1.402.501.5.2.901.4 1.401.5.501.201.901.301 1.302.501.4.2.8.3 1.201.501 2.002.8 3.804 1.601 5.306 2.302.3.1.601.301.901.401l3.203 1.601c-.2 2.804-.5 4.606-.5 4.706 0 0-.3 2.703-2.102 5.506-2.703 3.504-6.408 5.506-11.313 5.706zm-26.129-29.232v-.201c-.601-.1-1.202-.2-1.802-.2-.401-.1-.801-.1-1.302-.1-.2 0-.4-.1-.5-.1-.501-.1-1.102-.1-1.702-.2-.301 0-.601-.101-.901-.101-.201 0-.501-.1-.801-.1-.401 0-.701-.1-1.101-.1-.301 0-.701 0-1.002-.1-.6 0-1.201-.1-1.902-.1-3.003-.1-6.107-.1-9.31.1-.901.1-1.802.1-2.803.2-.401 0-.801.1-1.202.1-.5 0-1.001.101-1.501.201-.601.1-1.202.2-1.802.2-.201 0-.401.1-.601.1l-1.802.3c-.501.101-.901.201-1.402.301-.901.2-1.902.4-2.803.6-1.001.201-1.902.501-2.803.701h-.2H122.477c.5.1.901.2 1.401.301 11.313-3.004 23.627-3.504 36.741-1.502-.4.1-.5-.1-.6-.3zm0 0v-.201c-.601-.1-1.202-.2-1.802-.2-.401-.1-.801-.1-1.302-.1-.2 0-.4-.1-.5-.1-.501-.1-1.102-.1-1.702-.2-.301 0-.601-.101-.901-.101-.201 0-.501-.1-.801-.1-.401 0-.701-.1-1.101-.1-.301 0-.701 0-1.002-.1-.6 0-1.201-.1-1.902-.1-3.003-.1-6.107-.1-9.31.1-.901.1-1.802.1-2.803.2-.401 0-.801.1-1.202.1-.5 0-1.001.101-1.501.201-.601.1-1.202.2-1.802.2-.201 0-.401.1-.601.1l-1.802.3c-.501.101-.901.201-1.402.301-.901.2-1.902.4-2.803.6-1.001.201-1.902.501-2.803.701h-.2H122.477c.5.1.901.2 1.401.301 11.313-3.004 23.627-3.504 36.741-1.502-.4.1-.5-.1-.6-.3z"/>
    <path fill="#F8CA06" d="M160.719 106.52c8.81 1.301 16.719 3.604 23.126 5.806 0 0 1.001-3.804-2.603-6.307-2.503-1.802-10.412-5.206-20.523.501z"/>
    <path fill="#181C19" d="M184.647 110.023c0-.2-.101-.4-.101-.6-.1-.401-.2-.701-.3-1.102-.1-.1-.1-.3-.2-.4-.501-.901-1.201-1.802-2.303-2.603-.5-.3-3.003-2.002-6.907-2.603-1.402-.2-3.104-.3-4.806-.1-.2 0-.4.1-.701.1-.4.1-.901.1-1.401.2-.401.1-.701.1-1.101.201-.401.1-.701.2-1.102.3-.2.1-.4.1-.6.2-.601.2-1.202.401-1.802.701-.301.1-.601.3-1.001.4-.401.201-.801.401-1.102.601l-.6.3c-.1 0-.201.1-.301.201-.2.1-.3.3-.3.5v.2c0 .201.2.401.4.501h.201c7.608 1.101 15.317 3.103 23.025 5.806H183.946c.1 0 .2 0 .3-.1.2-.1.3-.2.3-.4s.101-.401.101-.701v-.3c.1-.301.1-.801 0-1.302zm-1.402 1.202v.1c-6.808-2.303-13.615-4.105-20.323-5.206 10.011-4.705 17.119-.1 17.92.501.901.6 1.502 1.301 1.802 2.002.1.3.201.6.301.801 0 .1.1.3.1.4 0 .2 0 .3.1.401.2.4.2.7.1 1.001z"/>
    <path fill="#fff" d="M.94 53.16c2.003 3.203 7.41 14.316 7.61 20.022.2 5.706-1.002 17.32 1.401 21.224s5.806 4.305 8.71 4.805c2.903.5 5.506.6 10.612 0 5.105-.6 12.113-2.403 14.216 6.708.5 2.202.4 4.505-.2 6.607-1.602 5.406-1.903 13.615 4.905 17.62 6.107 3.604 13.014 2.803 17.72 2.002 1.301-.2 2.502-.5 3.704-.901 3.203-.901 14.716-3.204 17.52 9.811 3.003 13.415 8.309 17.219 13.515 21.224.8.601 1.902 0 1.802-1.001-.401-6.107-.801-19.923 9.71-31.536-7.308-2.302-13.014-7.408-15.317-17.319-.1-.3-.1-.601-.2-1.001-5.706-28.031 17.82-34.639 29.733-40.746 6.708-3.504 8.71-8.91 9.111-13.014-9.111-7.208-19.422-10.612-33.938-12.614-14.417-1.903-35.74 3.103-50.157 7.908-14.416 4.806-35.34 6.207-49.155-1.601-.9-.4-1.902.9-1.301 1.802z"/>
    <path fill="#181C19" d="M135.892 57.264l-.1-.1c-.1-.1-.2-.2-.3-.2-.201-.2-.401-.4-.701-.5-8.409-6.308-18.421-9.912-33.137-11.914-11.113-1.502-26.63 1.101-40.145 4.805-3.604 1.001-7.108 2.003-10.312 3.104-19.922 6.707-38.743 4.004-48.554-1.502-.7-.4-1.502-.3-2.102.3-.601.601-.701 1.602-.3 2.303 2.002 3.203 7.307 14.216 7.508 19.722.1 1.602 0 3.604 0 5.806 0 6.007-.2 12.815 1.702 15.718 2.502 4.005 6.106 4.605 9.01 5.106h.2c2.803.5 5.406.601 10.812 0 .4-.1.901-.1 1.402-.2 4.705-.601 10.211-1.302 11.913 6.407.4 2.002.4 4.204-.2 6.307-.901 3.103-3.204 13.515 5.206 18.42 4.905 2.904 10.311 3.004 15.016 2.503 1.102-.1 2.103-.3 3.104-.5 1.201-.201 2.503-.501 3.804-.901 2.002-.601 7.108-1.602 11.313.901 2.703 1.601 4.505 4.405 5.406 8.409 3.003 13.315 8.209 17.42 13.315 21.324l.4.3c.3.201.701.401 1.101.401.301 0 .601-.1.901-.2.601-.301 1.002-1.002 1.002-1.702-.301-4.706-1.302-18.821 9.31-30.635l.3-.3c.1-.1.1-.2.2-.3v-.401c-.1-.2-.2-.4-.5-.5-1.001-.301-1.902-.701-2.803-1.102-1.302-.6-2.603-1.401-3.704-2.202-.301-.2-.501-.4-.801-.601-.501-.4-1.001-.801-1.402-1.301-.2-.2-.4-.401-.5-.601-.301-.4-.701-.701-1.002-1.101-2.102-2.703-3.704-6.007-4.505-9.911 0-.2-.1-.501-.2-.701v-.2c0-.2-.1-.301-.1-.501-4.605-23.626 12.214-31.435 24.528-37.141 1.802-.801 3.503-1.602 5.005-2.403 6.407-3.304 8.61-8.31 9.311-12.314 0-.2.1-.5.1-.8v-.401c-.2-.3-.301-.5-.501-.7zm-28.732 71.28c.2.1.501.3.701.4.2.1.3.201.5.201.301.1.601.3.801.4.301.1.601.2.901.4.1.101.301.101.401.201.1.1.3.1.4.2-10.512 12.214-9.511 26.53-9.21 31.235 0 .2-.1.3-.2.4-.101 0-.301.1-.501 0l-.4-.3c-5.106-3.904-10.012-7.609-12.815-20.523-1-4.405-3.003-7.508-6.007-9.31-2.302-1.402-4.805-1.802-7.007-1.802-2.303 0-4.305.5-5.406.8-1.202.301-2.503.601-3.704.801-1.102.201-2.303.401-3.605.501-4.304.4-9.21.2-13.615-2.403-7.508-4.405-5.406-14.015-4.605-16.819.7-2.302.8-4.705.2-7.007-2.002-8.91-8.71-8.01-13.615-7.409-.5.1-.901.1-1.301.2-5.206.601-7.71.501-10.412 0h-.2c-2.904-.5-5.807-1-8.01-4.505-1.501-2.703-1.3-9.61-1.2-15.117 0-2.202.1-4.304 0-5.906-.301-5.907-5.707-17.02-7.81-20.423-.1-.2 0-.5.1-.6.201-.2.301-.1.401 0 14.016 7.908 35.04 6.607 49.756 1.701 2.803-.9 5.806-1.902 9.01-2.803 13.615-3.804 29.533-6.607 40.846-5.106 15.117 2.003 24.828 5.507 33.237 12.214-.501 3.804-2.403 8.81-8.61 12.114-1.501.8-3.103 1.501-4.905 2.302-12.014 5.606-30.134 14.016-25.228 38.844 0 .1 0 .2.1.3v.2c0 .2.1.501.2.801.7 3.304 1.902 6.207 3.504 8.61.3.4.5.801.801 1.201.3.401.6.701.901 1.101l.1.101c.3.4.6.7.901 1.001l.901.901c.1 0 .1.1.2.2.3.3.701.601 1.001.801.401.3.701.6 1.101.801 0 0 .101.1.201.1.3.2.5.3.801.5-.101.201.2.301.4.501z"/>
    <path fill="#fff" d="M186.348 137.254c-.2-.401-.3-.701-.3-.701h-.1c-3.304.1-7.309-.5-12.214-2.302-7.008-2.503-12.514-5.306-17.42-8.11l-.6-.3c-.2 0-.501.1-.701.2-.1 0-.2 0-.2.1-.401.101-.801.201-1.302.301-.3.1-.6.1-.901.2-.801.2-1.501.4-2.302.601-.901.2-1.902.5-2.903.7-2.203.501-4.606 1.102-7.008 1.602-.601.1-1.202.301-1.802.401-.501.1-.901.2-1.302.2-.701.1-1.502.2-2.202.4-1.001.201-2.003.301-3.004.401-.5.1-1.101.1-1.601.2-.601.1-1.202.1-1.802.2h-.201c-.3 0-.5 0-.801.1H124.679c-1.201 0-2.303 0-3.404-.1l-.2.1c.1.201.2.401.2.601 6.708 18.321.401 36.741-3.203 44.85.2.1.4.1.7.2 7.509 2.003 15.318 3.104 23.427 3.104 18.52 0 35.64-5.506 49.956-15.117.2-.1.5-.3.7-.501-1.201-13.715-5.406-24.627-6.507-27.33z"/>
    <path fill="#181C19" d="M155.514 126.642c-.501.1-1.001.2-1.502.4.501-.2 1.001-.3 1.502-.4zm-4.105 1.001c.301-.1.701-.2 1.001-.3h.101c-.401.1-.801.2-1.102.3zm4.105-1.001c-.501.1-1.001.2-1.502.4.501-.2 1.001-.3 1.502-.4zm-3.104.701c-.3.1-.6.2-1.001.3.301-.1.701-.2 1.001-.3zm34.639 9.811c-.1-.301-.2-.501-.3-.701-.1-.1-.1-.2-.1-.2 0-.1-.1-.201-.2-.201-.101-.1-.301-.2-.401-.2H185.247c-3.303 0-7.108-.801-11.413-2.202-8.109-2.803-14.115-6.107-17.92-8.41h-.5c-.2.1-.501.1-.701.201-.3.1-.601.2-.901.2-.601.1-1.201.3-1.802.4-.901.2-1.902.501-2.903.701-1.001.2-2.103.501-3.204.801-1.401.3-2.803.701-4.305 1.001-1.501.3-3.003.601-4.605.901-.3 0-.6.1-.901.2-.6.1-1.201.2-1.902.301-1.902.3-3.804.5-5.706.7-.601 0-1.202.1-1.902.1-1.903.101-3.805.101-5.607 0h-.2l-.2.101c-.2.1-.3.2-.401.4 0 0 0 .1-.1.2v.401c0 .1.1.2.1.3 6.808 18.12.401 36.641-3.203 44.65.2.1.5.1.701.2.2.1.4.1.7.201 3.604-8.21 9.911-26.73 3.304-44.951h3.904c.601 0 1.302-.1 1.903-.1 1.001-.1 1.902-.1 2.903-.2 1.001-.1 1.902-.2 2.903-.401.601-.1 1.302-.2 1.902-.3.601-.1 1.302-.2 1.902-.3 1.402-.301 2.803-.501 4.205-.801.501-.1.901-.2 1.302-.301.6-.1 1.201-.3 1.802-.4.901-.2 1.701-.4 2.602-.601 1.102-.3 2.103-.5 3.104-.801h.1c.4-.1.701-.2 1.101-.3.301-.1.701-.2 1.001-.3h.1c.101 0 .201-.1.301-.1l1.201-.301c.501-.1 1.001-.2 1.502-.4 6.007 3.504 11.713 6.207 17.92 8.309 4.505 1.602 8.61 2.403 12.113 2.303.901 2.202 5.407 13.615 6.207 27.831.201-.1.501-.3.701-.501.2-.1.401-.3.601-.5-.701-13.215-4.705-23.827-5.907-26.93zm-35.64-9.511c.301-.1.701-.2 1.001-.3h.101c-.401.1-.801.2-1.102.3zm4.105-1.001c-.501.1-1.001.2-1.502.4.501-.2 1.001-.3 1.502-.4zm0 0c-.501.1-1.001.2-1.502.4.501-.2 1.001-.3 1.502-.4zm-4.105 1.001c.301-.1.701-.2 1.001-.3h.101c-.401.1-.801.2-1.102.3zM140.697 51.558h-.2c-.701-.2-1.101-.801-1.001-1.402 0-.4.4-.7.7-.7.401 0 .701.3.701.7h.1c.401.1.601.5.501.901-.3.3-.501.5-.801.5z"/>
    <path fill="#181C19" d="M141.699 51.658c-.501 0-.901 0-1.302-.2-.4-.1-.6-.501-.4-.901.2-.4.5-.601.901-.4.701.2 2.403 0 3.504-.201.4-.1.801.1.801.5.1.4-.2.801-.501.801-.3.1-1.702.4-3.003.4z"/>
    <path fill="#fff" d="M135.092 52.158c.4 0 .701 0 1.001-.1h.401c3.504-.3 4.004-.9 4.104-1.1v-.101c-.3-.1-.6-.3-.6-.6 0-.401.3-1.002 1.101-1.803 1.001-1 2.202-1.802 3.604-2.502-.2 0 2.302-6.508 6.007-11.413-15.418-9.01-18.521 10.311-15.618 17.62z"/>
    <path fill="#181C19" d="M140.699 47.853c-.301.401-.601.701-.801 1.002.2-.3.4-.601.801-1.002zm0 0c-.301.401-.601.701-.801 1.002.2-.3.4-.601.801-1.002zm10.511-13.915c-.3-.2-.4-.3-.6-.4-6.408-3.504-10.412-2.003-12.614-.1-4.906 4.304-5.407 13.915-3.605 18.72 0 .1.101.2.101.2.1.3.4.401.6.401h.1l.701-.1H136.594c.801-.1 1.502-.2 2.102-.3h.201c.1 0 .2-.1.4-.1.1 0 .2 0 .3-.1.1 0 .201 0 .301-.1.1 0 .2 0 .2-.1.1 0 .1 0 .2-.101.1 0 .1-.1.2-.1.201-.1.401-.2.501-.3l.1-.1c.1-.1.1-.2.2-.3v-.201-.2c0-.1 0-.3-.1-.4l-.1-.1h-.2v-.101c0-.1.1-.3.3-.5 0-.1.1-.1.1-.1.1-.1.2-.301.401-.501l.3-.3c.601-.501 1.301-1.002 2.102-1.502 0 0 .1 0 .1-.1.301-.2.601-.3.901-.5.101 0 .101-.101.201-.101.1-.1.2-.3.2-.5 0-.1 0-.2.1-.3v-.101c.1-.2.2-.5.3-.8v-.101c.701-1.802 2.303-5.006 4.205-7.909.1-.2.2-.3.3-.5l.901-1.202c.101-.2.201-.4.101-.6 0-.3-.101-.4-.201-.501zm-1.902 1.401c-2.102 3.204-4.605 8.01-5.106 10.012-.1.1-.2.1-.3.2-.1 0-.1.1-.2.1-.2.1-.3.2-.501.3-.801.501-1.501 1.002-2.102 1.602l-.3.3c-.301.401-.601.701-.801 1.002-.1.1-.1.2-.2.3-.101.2-.201.5-.201.7v.401c0 .2.1.4.201.6h-.201c-.1 0 .299.301.3.201-.1 0-.749.3-.849.3.2 0-.1 0 0 0l-.653.2c-.5.1-.9-.3-1.601-.3h-.3H135.793c-1.502-4.505-.901-13.114 3.304-16.819 1.301-1.2 2.903-1.701 4.605-1.701 1.802 0 3.904.6 6.207 1.902-.3.3-.401.5-.601.7zm-8.609 12.514c-.301.401-.601.701-.801 1.002.2-.3.4-.601.801-1.002zm0 0c-.301.401-.601.701-.801 1.002.2-.3.4-.601.801-1.002z"/>
    <path fill="#181C19" d="M158.917 29.132c-2.803-.4-5.707 2.103-8.109 5.306-3.705 4.806-6.307 11.313-6.007 11.313 4.605-2.102 8.409-2.303 8.409-2.303 5.506-3.103 11.113-13.415 5.707-14.316z"/>
    <path fill="#181C19" d="M161.721 31.035c-.201-1.402-1.202-2.303-2.703-2.603-2.603-.4-5.507 1.401-8.41 5.106-.1.1-.2.3-.3.4l-.1.1c-.1.2-.301.4-.401.6-.1.201-.3.401-.4.601-2.403 3.504-4.806 8.21-5.106 10.012-.1.3-.1.5 0 .6 0 0 0 .1.1.1.1.2.3.3.501.3h.1c.1 0 .2 0 .3-.1.1 0 .1 0 .2-.1 4.405-2.002 7.909-2.202 8.009-2.202h.201s.1 0 .1-.1c.2-.1.3-.2.5-.3 4.105-2.403 8.109-8.91 7.409-12.414zm-8.71 11.713c-.701.1-3.504.4-7.008 1.802h-.1c.701-1.702 2.202-4.906 4.205-8.01.1-.2.2-.3.3-.5l.901-1.201c2.403-3.304 4.905-5.006 6.908-5.006h.5c.901.2 1.402.601 1.502 1.502.701 3.003-3.304 9.11-7.208 11.413z"/>
    <path fill="#F8CA06" d="M96.65 111.625c.1.301.1.601.2 1.001 2.202 9.911 8.008 15.017 15.317 17.32 2.803.901 5.806 1.301 8.91 1.501 12.413.701 26.529-3.504 34.638-5.506-11.813-7.008-19.822-14.116-34.839-17.119-5.105 1.201-17.419 4.105-24.227 2.803z"/>
    <path fill="#181C19" d="M156.115 125.34l-.1-.1h-.1c-.701-.4-1.302-.801-2.002-1.201-.701-.401-1.302-.801-2.003-1.201-1.301-.801-2.502-1.602-3.704-2.403-3.103-2.002-6.107-3.905-9.21-5.707-.401-.2-.701-.4-1.101-.6-.301-.2-.601-.301-.901-.501-2.003-1.001-4.005-1.902-6.207-2.803-1.102-.4-2.203-.801-3.404-1.201-.1 0-.2 0-.2-.1-.501-.1-1.001-.301-1.602-.401-.3-.1-.601-.2-.901-.2-.3-.1-.601-.2-.901-.2h-.1c-.501-.1-.901-.2-1.402-.301-.4-.1-.901-.2-1.401-.3h-.301c-.3.1-.701.2-1.201.3-.1 0-.3.101-.501.101-1.001.2-2.102.5-3.403.8-.301.101-.701.201-1.102.201l-1.501.3c-4.505.901-9.811 1.602-13.916 1.301-.3 0-.5 0-.8-.1h-.201c-.2 0-.4-.1-.7-.1h-.101c-.2 0-.3 0-.5-.1h-.2c-.1 0-.301.1-.401.2-.1.1-.2.201-.2.401v.3l.2 1.001c.7 3.304 1.902 6.207 3.504 8.71.3.4.5.801.801 1.201.3.401.6.701.901 1.102l.1.1c.3.4.6.7.901 1.001l.901.901c.1 0 .1.1.2.2.3.3.701.601 1.001.801.401.3.701.601 1.101.801 0 0 .1.1.201.1.3.2.5.3.8.5.201.101.501.301.701.401.2.1.501.3.701.4.2.1.3.201.501.201.3.1.6.3.8.4.301.1.601.2.901.401.101.1.301.1.401.2.1.1.3.1.4.2.201.1.501.2.701.2.1 0 .2 0 .2.1.201 0 .301.1.501.1 2.303.701 4.905 1.202 7.909 1.402H125.681c.601 0 1.301-.1 1.902-.1 1.001-.1 1.902-.1 2.903-.2 1.001-.1 1.902-.201 2.904-.401.6-.1 1.301-.2 1.902-.3.6-.1 1.301-.2 1.902-.3 1.401-.301 2.803-.501 4.205-.801.5-.101.901-.201 1.301-.301.601-.1 1.201-.3 1.802-.4.901-.2 1.702-.401 2.603-.601 1.101-.3 2.102-.5 3.103-.801h.101c.4-.1.7-.2 1.101-.3.4-.1.701-.2 1.101-.3.1 0 .2-.101.3-.101l1.202-.3c.5-.1 1.001-.3 1.501-.4.1 0 .201 0 .301-.1.2 0 .3-.201.4-.301 0-.1.1-.1.1-.2 0-.2-.1-.4-.2-.601zm-7.008 1.402c-1.001.2-2.102.5-3.203.801-1.402.3-2.804.701-4.305 1.001-1.502.3-3.004.601-4.605.901-.301 0-.601.1-.901.2-.601.1-1.202.2-1.903.301-1.902.3-3.804.5-5.706.7-.601 0-1.201.1-1.902.1-1.902.101-3.804.101-5.606 0-3.404-.2-6.207-.7-8.71-1.501-1.001-.301-1.902-.701-2.803-1.102-1.302-.6-2.603-1.401-3.704-2.202-.301-.2-.501-.4-.801-.601-.501-.4-1.001-.801-1.402-1.301-.2-.2-.4-.401-.5-.601-.301-.4-.701-.701-1.002-1.101-2.202-2.703-3.704-6.007-4.605-9.911.3 0 .701.1 1.002.1.3 0 .6 0 .9.1H100.754c1.101 0 2.203-.1 3.404-.1.701-.1 1.301-.1 2.002-.2.501 0 1.001-.1 1.502-.2.901-.101 1.802-.301 2.703-.401.3 0 .6-.1.801-.1.6-.1 1.201-.2 1.902-.3l1.502-.301c.5-.1 1.101-.2 1.601-.3.601-.1 1.102-.3 1.702-.4.2 0 .301-.101.501-.101.5-.1 1.001-.2 1.401-.3.201 0 .401-.1.601-.2.1 0 .1 0 .2-.1.301.1.601.1.901.2.2 0 .501.1.701.1 1.902.401 3.604.901 5.206 1.402.5.2 1.001.3 1.502.5 1.001.301 1.902.701 2.803 1.101.3.101.6.201.801.401 2.602 1.101 5.005 2.403 7.408 3.804.801.401 1.502.901 2.302 1.402 1.602 1.001 3.304 2.102 5.006 3.203 1.001.601 2.002 1.302 3.003 1.902.501.301 1.102.701 1.602 1.002.501.3 1.101.7 1.702 1.001-.5.2-1.101.3-1.702.4-.6.2-1.602.501-2.703.701z"/>
    <path fill="#F8CA06" d="M135.392 57.865c9.11 7.208 17.62 1.902 17.62 1.902 0-.4 0-.901.1-1.201.2-1.202.901-2.303 1.802-3.104.1-.1.3-.2.4-.4.701-.701 1.302-1.702 1.502-3.104 0 0 .1-2.803.901-4.805 0 0-3.404-.901-4.705-3.604 0 0-3.705.2-8.41 2.302-1.301.601-2.603 1.502-3.604 2.503-.701.801-1.001 1.302-1.101 1.702 0 .3.4.8.801.901 0 0-.2.6-4.405 1.001h-.401c-.3 0-.6 0-1.001.1.2.1.901 2.503.501 5.807z"/>
    <path fill="#F8CA06" d="M140.898 51.057c.901.3 3.003-.4 3.003-.4l-3.003.4z"/>
    <path fill="#181C19" d="M144.603 50.456c-.101-.3-.301-.5-.601-.5h-.501c-.801.2-1.802.4-2.202.4h-.1s0 .1.1.1V51.257c0 .1-.1.2-.2.3l-.1.1c-.101.1-.301.2-.501.301-.1 0-.1.1-.2.1s-.1.1-.201.1c-.1 0-.2.1-.2.1-.1 0 .1-.2 0-.2h-.501c-.1 0-1.127.4-1.328.4 1.202-.2 2.63-.3 3.031-.5.901.1 2.002-.2 2.703-.4.2-.1.3-.1.3-.1.4-.2.601-.601.501-1.002zm-2.904-1.602c-.2.2-.3.3-.4.501.1-.1.2-.3.4-.5zm-.5.501l-.1.1c.1 0 .1 0 .1-.1zm3.404 1.101c-.101-.3-.301-.5-.601-.5h-.501c-.801.2-1.802.4-2.202.4h-.1s0 .1.1.1V51.257c0 .1-.1.2-.2.3l-.1.1c-.101.1-.301.2-.501.301-.1 0-.1.1-.2.1s-.1.1-.201.1c-.1 0-.2.1-.2.1-.1 0 .1-.2 0-.2h-.501c-.1 0-1.127.4-1.328.4 1.202-.2 2.63-.3 3.031-.5.901.1 2.002-.2 2.703-.4.2-.1.3-.1.3-.1.4-.2.601-.601.501-1.002zm-2.904-1.602c-.2.2-.3.3-.4.501.1-.1.2-.3.4-.5zm-.5.501l-.1.1c.1 0 .1 0 .1-.1zm17.319-2.503c-.1-.2-.3-.3-.5-.4 0 0-2.703-.701-4.005-2.703-.1-.1-.2-.3-.3-.5 0 0 0-.1-.1-.1-.1-.201-.301-.301-.601-.301-.1 0-3.104.1-7.208 1.802-.3.1-.601.2-.901.4-.2.1-.401.2-.501.2-.1 0-.2.1-.3.1-.1.1-.2.1-.3.2-.1 0-.1.1-.201.1-.2.101-.3.201-.5.301-.801.5-1.502 1.001-2.102 1.602l-.401.4c-.3.3-.501.601-.701.901-.1.1-.1.2-.2.3-.2.301-.2.501-.3.802v.6c0 .1.1.2.1.3 0 0-.038.114-.096.129-.288.073-.657.082-1.106.172H137.995c-.4.1-1.001.1-1.602.2h-.3-1.301c-.201.1-.401.3-.501.5v.201c0 .1 0 .2.1.2.1.3.401 1.902.401 4.005V57.664c0 .2.1.4.3.5.1.101.2.201.4.301.201.2.401.3.601.5 3.504 2.504 7.008 3.204 9.711 3.204.701 0 1.401 0 2.002-.1 2.102-.3 3.804-.9 4.806-1.401.3-.1.5-.2.7-.3.201-.1.201-.1.301-.1.2-.1.199-.401.199-.601v-.2c0-.3 0-.601.101-.901.2-1.002.901-1.903 1.702-2.704.2-.1.3-.3.4-.4.879-.879 1.377-2.043 1.679-3.306.016-.065.023-.131.023-.198 0 0 .084-2.275.717-4.12.111-.324.327-.743.084-.986zm-4.194 8.61c-1.101 1.001-1.199 1.262-1.712 2.803-.101.3-.101.6-.101.901-1.601.8-8.709 4.005-16.218-1.802.1-1.401 0-3.404-.2-4.705h.601c.5 0 .7-.1 1.201-.1.199 0 .461-.1.721-.1h.38c1.202-.2 1.802-.4 2.203-.601.901.1 2.002-.2 2.703-.4.2-.1.3-.1.3-.1.401-.1.601-.501.501-.902-.1-.3-.301-.5-.601-.5h-.501c-.8.2-1.802.4-2.202.4h-.1c-.1 0-.2-.1-.2-.2 0 0 .03-.2.1-.237.1-.113.1-.163.3-.364l.1-.1c.1-.1.2-.3.401-.5l.3-.3c.601-.501 1.201-1.102 2.102-1.502 0 0 .162-.12.248-.16.225-.107.405-.258.653-.341 3.604-1.702 6.608-2.102 7.709-2.202 1.101 1.902 3.204 2.903 4.205 3.303-.135.405-.245.826-.334 1.239-.434 2.011-.314 4.314-1.769 5.77-.2.3-.69.6-.79.7zm-13.125-6.107l-.1.1c.1 0 .1 0 .1-.1zm.5-.5c-.2.2-.3.3-.4.5.1-.1.2-.3.4-.5zm2.904 1.601c-.101-.3-.301-.5-.601-.5h-.501c-.801.2-1.802.4-2.202.4h-.1s0 .1.1.1V51.257c0 .1-.1.2-.2.3l-.1.1c-.101.1-.301.2-.501.301-.1 0-.1.1-.2.1s-.1.1-.201.1c-.1 0-.2.1-.2.1-.1 0 .1-.2 0-.2h-.501c-.1 0-1.127.4-1.328.4 1.202-.2 2.63-.3 3.031-.5.901.1 2.002-.2 2.703-.4.2-.1.3-.1.3-.1.4-.2.601-.601.501-1.002zm-3.404-1.1l-.1.1c.1 0 .1 0 .1-.1zm.5-.502c-.2.2-.3.3-.4.501.1-.1.2-.3.4-.5zm2.904 1.602c-.101-.3-.301-.5-.601-.5h-.501c-.801.2-1.802.4-2.202.4h-.1s0 .1.1.1V51.257c0 .1-.1.2-.2.3l-.1.1c-.101.1-.301.2-.501.301-.1 0-.1.1-.2.1s-.1.1-.201.1c-.1 0-.2.1-.2.1-.1 0 .1-.2 0-.2h-.501c-.1 0-1.127.4-1.328.4 1.202-.2 2.63-.3 3.031-.5.901.1 2.002-.2 2.703-.4.2-.1.3-.1.3-.1.4-.2.601-.601.501-1.002z"/>
    <path fill="#181C19" d="M96.65 111.625c6.907 1.402 19.221-1.501 24.126-2.803 1.402-.4 2.203-.601 2.203-.601 13.114-3.604 26.229-3.403 37.742-1.701 10.011-5.707 17.92-2.303 20.523-.501 3.604 2.503 2.603 6.307 2.603 6.307 10.011 3.504 16.318 7.108 16.618 7.208.501-6.507.901-18.02-1.701-27.03-3.905-13.315-17.62-19.021-25.529-20.723-7.909-1.702-15.217-5.006-18.521-8.31-1.201-1.201-1.602-2.502-1.602-3.704 0 0-8.609 5.306-17.619-1.902-.401 4.105-2.303 9.51-9.11 13.015-11.914 6.107-35.54 12.614-29.734 40.745z"/>
    <path fill="#181C19" d="M181.744 105.318c-.5-.3-3.003-1.902-6.908-2.503 3.905.601 6.408 2.303 6.908 2.503 1.101.801 1.802 1.702 2.303 2.603-.501-.801-1.202-1.802-2.303-2.603zm-21.124.401c-13.515-2.003-26.229-1.402-37.842 1.701 0 0-.1 0-.2.101-.301.1-1.302.4-1.902.5-.301.1-.701.2-1.202.3-.1 0-.3.101-.5.101-1.001.2-2.103.5-3.404.8-.3.101-.701.201-1.101.201l-1.502.3c-4.505.901-9.811 1.602-13.915 1.302-.3 0-.501 0-.801-.101h-.2c-.2 0-.401-.1-.701-.1h-.1c-4.606-23.626 12.213-31.435 24.527-37.141 1.802-.801 3.504-1.602 5.006-2.403 6.407-3.304 8.609-8.31 9.31-12.314-.2-.1-.4-.3-.601-.5 0 .2 0 .4-.1.6 0 .1 0 .3-.1.4v.201c-.1.4-.2.8-.3 1.101-.1.3-.201.5-.301.801 0 .1-.1.3-.1.4-.2.601-.5 1.302-.901 1.903 0 0 0 .1-.1.2-.1.3-.3.5-.5.8-.101.1-.201.201-.201.401-.1.1-.2.2-.3.4-.4.501-.801 1.102-1.301 1.602l-.201.2-.5.501c-.2.2-.301.3-.501.4-.1.1-.3.201-.4.401-.2.1-.301.2-.501.3-.2.1-.3.2-.5.3-.201.101-.301.201-.501.301-.1.1-.2.2-.4.2-.1.1-.301.2-.401.2-.3.2-.5.301-.801.501-3.504 1.802-8.009 3.604-12.514 6.007-.4.2-.901.5-1.301.7-1.902 1.102-3.804 2.303-5.606 3.605l-1.202.9c-.6.501-1.101 1.002-1.702 1.502-.2.2-.4.3-.5.501-.2.2-.401.3-.501.5-5.206 5.407-8.61 12.815-7.008 24.027 0 .401.1.701.2 1.102.1.4.1.7.2 1.101 0 .2.1.501.1.701.201 0 .501.1.702.1.3 0 .6.1.8.1.2 0 .401 0 .601.1h4.305c.601 0 1.201-.1 1.702-.1h1.602c.901-.1 1.802-.2 2.703-.4h.2c.2 0 .3 0 .501-.101.2 0 .5-.1.7-.1h.1c.201 0 .401-.1.501-.1h.1c.2 0 .401-.1.601-.1.2 0 .4-.1.701-.1.2 0 .4-.1.6-.1.201 0 .401-.1.601-.1h.2c.1 0 .301-.1.401-.1H114.669c.1 0 .2 0 .3-.101h.1c.201 0 .401-.1.601-.1.2 0 .401-.1.601-.1.1 0 .3-.1.4-.1h.2c.101 0 .201-.1.401-.1.2-.1.5-.1.801-.2.1 0 .2 0 .3-.1.701-.201 1.201-.301 1.802-.501.1 0 .2-.1.3-.1h.101c.1 0 .2 0 .2-.1.1 0 .2 0 .2-.1.1 0 .2 0 .2-.1h.1c.401-.1.701-.201.901-.201h.501c.901-.3 1.902-.5 2.803-.7.901-.201 1.902-.401 2.803-.601.501-.1.901-.2 1.402-.3l1.802-.301c.2 0 .4-.1.6-.1.601-.1 1.202-.2 1.802-.2.501-.1 1.002-.1 1.502-.2.401 0 .801-.1 1.202-.1.901-.1 1.802-.201 2.803-.201 3.103-.2 6.207-.2 9.31-.1.601 0 1.302 0 1.902.1.301 0 .701 0 1.001.101h.1c.401 0 .701 0 1.102.1.2 0 .5 0 .801.1.3 0 .6 0 .901.1.5.1 1.101.1 1.701.2.201 0 .401 0 .501.1.4 0 .801.1 1.302.1.6.1 1.201.201 1.802.201 0-.201.2-.401.3-.501.4-.3.5-.3.5-.4l.601-.301-.601.301zm.601-.301c.401-.2.801-.4 1.101-.6-.3.2-.7.4-1.101.6zm20.523-.1c-.5-.3-3.003-1.902-6.908-2.503 3.905.601 6.408 2.303 6.908 2.503 1.101.801 1.802 1.702 2.303 2.603-.501-.801-1.202-1.802-2.303-2.603zm-19.322-.5c-.4.2-.8.4-1.101.6.301-.2.701-.4 1.101-.6zm-1.802.901c-13.515-2.003-26.229-1.402-37.842 1.701 0 0-.1 0-.2.101-.301.1-1.302.4-1.902.5-.301.1-.701.2-1.202.3-.1 0-.3.101-.5.101-1.001.2-2.103.5-3.404.8-.3.101-.701.201-1.101.201l-1.502.3c-4.505.901-9.811 1.602-13.915 1.302-.3 0-.501 0-.801-.101h-.2c-.2 0-.401-.1-.701-.1h-.1c-4.606-23.626 12.213-31.435 24.527-37.141 1.802-.801 3.504-1.602 5.006-2.403 6.407-3.304 8.609-8.31 9.31-12.314-.2-.1-.4-.3-.601-.5 0 .2 0 .4-.1.6 0 .1 0 .3-.1.4v.201c-.1.4-.2.8-.3 1.101-.1.3-.201.5-.301.801 0 .1-.1.3-.1.4-.2.601-.5 1.302-.901 1.903 0 0 0 .1-.1.2-.1.3-.3.5-.5.8-.101.1-.201.201-.201.401-.1.1-.2.2-.3.4-.4.501-.801 1.102-1.301 1.602l-.201.2-.5.501c-.2.2-.301.3-.501.4-.1.1-.3.201-.4.401-.2.1-.301.2-.501.3-.2.1-.3.2-.5.3-.201.101-.301.201-.501.301-.1.1-.2.2-.4.2-.1.1-.301.2-.401.2-.3.2-.5.301-.801.501-3.504 1.802-8.009 3.604-12.514 6.007-.4.2-.901.5-1.301.7-1.902 1.102-3.804 2.303-5.606 3.605l-1.202.9c-.6.501-1.101 1.002-1.702 1.502-.2.2-.4.3-.5.501-.2.2-.401.3-.501.5-5.206 5.407-8.61 12.815-7.008 24.027 0 .401.1.701.2 1.102.1.4.1.7.2 1.101 0 .2.1.501.1.701.201 0 .501.1.702.1.3 0 .6.1.8.1.2 0 .401 0 .601.1h4.305c.601 0 1.201-.1 1.702-.1h1.602c.901-.1 1.802-.2 2.703-.4h.2c.2 0 .3 0 .501-.101.2 0 .5-.1.7-.1h.1c.201 0 .401-.1.501-.1h.1c.2 0 .401-.1.601-.1.2 0 .4-.1.701-.1.2 0 .4-.1.6-.1.201 0 .401-.1.601-.1h.2c.1 0 .301-.1.401-.1H114.669c.1 0 .2 0 .3-.101h.1c.201 0 .401-.1.601-.1.2 0 .401-.1.601-.1.1 0 .3-.1.4-.1h.2c.101 0 .201-.1.401-.1.2-.1.5-.1.801-.2.1 0 .2 0 .3-.1.701-.201 1.201-.301 1.802-.501.1 0 .2-.1.3-.1h.101c.1 0 .2 0 .2-.1.1 0 .2 0 .2-.1.1 0 .2 0 .2-.1h.1c.401-.1.701-.201.901-.201h.501c.901-.3 1.902-.5 2.803-.7.901-.201 1.902-.401 2.803-.601.501-.1.901-.2 1.402-.3l1.802-.301c.2 0 .4-.1.6-.1.601-.1 1.202-.2 1.802-.2.501-.1 1.002-.1 1.502-.2.401 0 .801-.1 1.202-.1.901-.1 1.802-.201 2.803-.201 3.103-.2 6.207-.2 9.31-.1.601 0 1.302 0 1.902.1.301 0 .701 0 1.001.101h.1c.401 0 .701 0 1.102.1.2 0 .5 0 .801.1.3 0 .6 0 .901.1.5.1 1.101.1 1.701.2.201 0 .401 0 .501.1.4 0 .801.1 1.302.1.6.1 1.201.201 1.802.201 0-.201.2-.401.3-.501.4-.3.5-.3.5-.4.301-.101.501-.201.701-.301-.3.1-.5.2-.701.301zm38.844-13.415c-3.604-12.214-15.818-19.022-26.029-21.124-7.809-1.602-14.917-4.806-18.221-8.21-.901-.9-1.401-2.002-1.401-3.203v-.1c0-.2-.2-.4-.301-.5-.1-.1-.2-.1-.3-.1-.1 0-.3 0-.4.1 0 0-.1.1-.301.2-1.601.8-8.709 3.904-16.218-1.802-.1-.1-.2-.1-.3-.2h-.1c-.1-.1-.2-.1-.301-.1h-.3c-.1.1-.2.1-.3.2-.1.1-.1.2-.1.3v.4c-.501 3.805-2.403 8.81-8.61 12.014-1.502.8-3.204 1.602-4.906 2.403-12.113 5.606-30.334 14.115-25.228 39.143 0 .1 0 .201.1.201.1.2.3.3.5.3h.301c.2 0 .5.1.701.1.3 0 .7.1 1.001.1.3 0 .6 0 .901.1H101.054c1.101 0 2.202-.1 3.404-.1.7-.1 1.301-.1 2.002-.2.5 0 1.001-.1 1.501-.2.901-.1 1.802-.301 2.703-.401.301 0 .601-.1.801-.1.601-.1 1.202-.2 1.903-.3l1.501-.301c.501-.1 1.101-.2 1.602-.3.601-.1 1.101-.3 1.702-.4.2 0 .3-.101.5-.101.501-.1 1.002-.2 1.402-.3.2 0 .4-.1.601-.2.1 0 .1 0 .2-.1h.2c.501-.1 1.001-.2 1.302-.301.6-.2.901-.2.901-.2.2 0 .4-.1.5-.1 11.313-3.003 23.727-3.504 36.841-1.502h.201c.1 0 .2 0 .3-.1.2-.1.501-.3.701-.4h.1c.4-.2.701-.401 1.101-.501 10.011-4.705 17.119-.1 17.92.401.901.6 1.502 1.401 1.802 2.102.2.3.301.601.301.801 0 .1.1.3.1.4 0 .201 0 .301.1.401 0 .3.1.701 0 .901v.1c0 .401-.1.601-.1.701-.1.3.1.701.4.801.1 0 .2 0 .2.1.901.3 1.702.601 2.603 1.001.501.2.901.4 1.402.501.5.2.901.3 1.301.5.401.2.801.3 1.202.501 2.002.801 3.804 1.601 5.306 2.302.3.1.6.301.901.401l3.203 1.601c.1 0 .1.101.2.101.201.1.301.1.301.2.1 0 .1 0 .2.1h.1c.1 0 .2 0 .4-.1l.301-.301c0-.1.1-.2.1-.2.5-7.808.701-18.821-1.802-27.43zm.4 26.029c-.2-.1-.4-.201-.5-.301-1.202-.6-2.703-1.401-4.705-2.202-.401-.2-.701-.3-1.102-.501-.801-.3-1.501-.7-2.402-1.001-.401-.2-.801-.3-1.202-.5 0 0-.1 0-.2-.1-.901-.401-1.802-.701-2.803-1.102-.401-.1-.701-.3-1.101-.4 0 0-.1 0-.201-.1-.4-.1-.7-.301-1.101-.401v-.3c0-.4 0-.901-.1-1.402 0-.2-.1-.4-.1-.6-.1-.401-.2-.701-.3-1.102-.1-.1-.1-.3-.201-.4-.5-.901-1.201-1.802-2.302-2.603-.501-.3-3.004-1.902-6.908-2.503-1.401-.2-3.103-.3-4.805-.1-.2 0-.401.1-.701.1-.401.1-.901.1-1.402.201-.4.1-.7.1-1.101.2-.4.1-.701.2-1.101.3-.2.1-.401.1-.601.2-.6.201-1.201.401-1.802.701-.3.1-.6.3-1.001.401-.4.2-.801.4-1.101.6l-.601.301c-13.515-2.003-26.229-1.402-37.842 1.701 0 0-.1 0-.2.101-.301.1-1.302.4-1.903.5-.3.1-.7.2-1.201.3-.1 0-.3.101-.5.101-1.002.2-2.103.5-3.404.8-.301.101-.701.201-1.101.201l-1.502.3c-4.505.901-9.811 1.602-13.916 1.302-.3 0-.5 0-.8-.101h-.2c-.201 0-.401-.1-.702-.1h-.1c-4.605-23.626 12.214-31.435 24.528-37.141 1.802-.801 3.504-1.602 5.005-2.403 6.407-3.304 8.61-8.31 9.311-12.314 4.505 3.204 8.81 3.404 11.713 3.104 2.102-.3 3.804-.901 4.705-1.402.2 1.202.801 2.203 1.702 3.104 3.404 3.503 10.812 6.907 18.821 8.51 9.911 2.102 21.624 8.509 25.028 20.222 2.703 8.609 2.503 19.522 2.002 25.829zm-39.244-12.614c-13.515-2.003-26.229-1.402-37.842 1.701 0 0-.1 0-.2.101-.301.1-1.302.4-1.902.5-.301.1-.701.2-1.202.3-.1 0-.3.101-.5.101-1.001.2-2.103.5-3.404.8-.3.101-.701.201-1.101.201l-1.502.3c-4.505.901-9.811 1.602-13.915 1.302-.3 0-.501 0-.801-.101h-.2c-.2 0-.401-.1-.701-.1h-.1c-4.606-23.626 12.213-31.435 24.527-37.141 1.802-.801 3.504-1.602 5.006-2.403 6.407-3.304 8.609-8.31 9.31-12.314-.2-.1-.4-.3-.601-.5 0 .2 0 .4-.1.6 0 .1 0 .3-.1.4v.201c-.1.4-.2.8-.3 1.101-.1.3-.201.5-.301.801 0 .1-.1.3-.1.4-.2.601-.5 1.302-.901 1.903 0 0 0 .1-.1.2-.1.3-.3.5-.5.8-.101.1-.201.201-.201.401-.1.1-.2.2-.3.4-.4.501-.801 1.102-1.301 1.602l-.201.2-.5.501c-.2.2-.301.3-.501.4-.1.1-.3.201-.4.401-.2.1-.301.2-.501.3-.2.1-.3.2-.5.3-.201.101-.301.201-.501.301-.1.1-.2.2-.4.2-.1.1-.301.2-.401.2-.3.2-.5.301-.801.501-3.504 1.802-8.009 3.604-12.514 6.007-.4.2-.901.5-1.301.7-1.902 1.102-3.804 2.303-5.606 3.605l-1.202.9c-.6.501-1.101 1.002-1.702 1.502-.2.2-.4.3-.5.501-.2.2-.401.3-.501.5-5.206 5.407-8.61 12.815-7.008 24.027 0 .401.1.701.2 1.102.1.4.1.7.2 1.101 0 .2.1.501.1.701.201 0 .501.1.702.1.3 0 .6.1.8.1.2 0 .401 0 .601.1h4.305c.601 0 1.201-.1 1.702-.1h1.602c.901-.1 1.802-.2 2.703-.4h.2c.2 0 .3 0 .501-.101.2 0 .5-.1.7-.1h.1c.201 0 .401-.1.501-.1h.1c.2 0 .401-.1.601-.1.2 0 .4-.1.701-.1.2 0 .4-.1.6-.1.201 0 .401-.1.601-.1h.2c.1 0 .301-.1.401-.1H114.669c.1 0 .2 0 .3-.101h.1c.201 0 .401-.1.601-.1.2 0 .401-.1.601-.1.1 0 .3-.1.4-.1h.2c.101 0 .201-.1.401-.1.2-.1.5-.1.801-.2.1 0 .2 0 .3-.1.701-.201 1.201-.301 1.802-.501.1 0 .2-.1.3-.1h.101c.1 0 .2 0 .2-.1.1 0 .2 0 .2-.1.1 0 .2 0 .2-.1h.1c.401-.1.701-.201.901-.201h.501c.901-.3 1.902-.5 2.803-.7.901-.201 1.902-.401 2.803-.601.501-.1.901-.2 1.402-.3l1.802-.301c.2 0 .4-.1.6-.1.601-.1 1.202-.2 1.802-.2.501-.1 1.002-.1 1.502-.2.401 0 .801-.1 1.202-.1.901-.1 1.802-.201 2.803-.201 3.103-.2 6.207-.2 9.31-.1.601 0 1.302 0 1.902.1.301 0 .701 0 1.001.101h.1c.401 0 .701 0 1.102.1.2 0 .5 0 .801.1.3 0 .6 0 .901.1.5.1 1.101.1 1.701.2.201 0 .401 0 .501.1.4 0 .801.1 1.302.1.6.1 1.201.201 1.802.201 0-.201.2-.401.3-.501.4-.3.5-.3.5-.4l.601-.301-.601.301zm.601-.301c.401-.2.801-.4 1.101-.6-.3.2-.7.4-1.101.6zm20.523-.1c-.5-.3-3.003-1.902-6.908-2.503 3.905.601 6.408 2.303 6.908 2.503 1.101.801 1.802 1.702 2.303 2.603-.501-.801-1.202-1.802-2.303-2.603zm-21.124.401c-13.515-2.003-26.229-1.402-37.842 1.701 0 0-.1 0-.2.101-.301.1-1.302.4-1.902.5-.301.1-.701.2-1.202.3-.1 0-.3.101-.5.101-1.001.2-2.103.5-3.404.8-.3.101-.701.201-1.101.201l-1.502.3c-4.505.901-9.811 1.602-13.915 1.302-.3 0-.501 0-.801-.101h-.2c-.2 0-.401-.1-.701-.1h-.1c-4.606-23.626 12.213-31.435 24.527-37.141 1.802-.801 3.504-1.602 5.006-2.403 6.407-3.304 8.609-8.31 9.31-12.314-.2-.1-.4-.3-.601-.5 0 .2 0 .4-.1.6 0 .1 0 .3-.1.4v.201c-.1.4-.2.8-.3 1.101-.1.3-.201.5-.301.801 0 .1-.1.3-.1.4-.2.601-.5 1.302-.901 1.903 0 0 0 .1-.1.2-.1.3-.3.5-.5.8-.101.1-.201.201-.201.401-.1.1-.2.2-.3.4-.4.501-.801 1.102-1.301 1.602l-.201.2-.5.501c-.2.2-.301.3-.501.4-.1.1-.3.201-.4.401-.2.1-.301.2-.501.3-.2.1-.3.2-.5.3-.201.101-.301.201-.501.301-.1.1-.2.2-.4.2-.1.1-.301.2-.401.2-.3.2-.5.301-.801.501-3.504 1.802-8.009 3.604-12.514 6.007-.4.2-.901.5-1.301.7-1.902 1.102-3.804 2.303-5.606 3.605l-1.202.9c-.6.501-1.101 1.002-1.702 1.502-.2.2-.4.3-.5.501-.2.2-.401.3-.501.5-5.206 5.407-8.61 12.815-7.008 24.027 0 .401.1.701.2 1.102.1.4.1.7.2 1.101 0 .2.1.501.1.701.201 0 .501.1.702.1.3 0 .6.1.8.1.2 0 .401 0 .601.1h4.305c.601 0 1.201-.1 1.702-.1h1.602c.901-.1 1.802-.2 2.703-.4h.2c.2 0 .3 0 .501-.101.2 0 .5-.1.7-.1h.1c.201 0 .401-.1.501-.1h.1c.2 0 .401-.1.601-.1.2 0 .4-.1.701-.1.2 0 .4-.1.6-.1.201 0 .401-.1.601-.1h.2c.1 0 .301-.1.401-.1H114.669c.1 0 .2 0 .3-.101h.1c.201 0 .401-.1.601-.1.2 0 .401-.1.601-.1.1 0 .3-.1.4-.1h.2c.101 0 .201-.1.401-.1.2-.1.5-.1.801-.2.1 0 .2 0 .3-.1.701-.201 1.201-.301 1.802-.501.1 0 .2-.1.3-.1h.101c.1 0 .2 0 .2-.1.1 0 .2 0 .2-.1.1 0 .2 0 .2-.1h.1c.401-.1.701-.201.901-.201h.601c.901-.3 1.902-.5 2.803-.7.901-.201 1.902-.401 2.803-.601.501-.1.901-.2 1.402-.3l1.802-.301c.2 0 .4-.1.601-.1.6-.1 1.201-.2 1.802-.2.5-.1 1.001-.1 1.501-.2.401 0 .801-.1 1.202-.1.901-.1 1.802-.201 2.803-.201 3.103-.2 6.207-.2 9.31-.1.601 0 1.302 0 1.902.1.301 0 .701 0 1.001.101h.101c.4 0 .7 0 1.101.1.2 0 .5 0 .801.1.3 0 .6 0 .901.1.5.1 1.101.1 1.702.2.2 0 .4 0 .5.1.401 0 .801.1 1.302.1.6.1 1.201.201 1.802.201 0-.201.2-.401.3-.501.3-.3.4-.3.4-.4l.601-.301-.601.301zm.601-.301c.401-.2.801-.4 1.101-.6-.3.2-.7.4-1.101.6zm20.523-.1c-.5-.3-3.003-1.902-6.908-2.503 3.905.601 6.408 2.303 6.908 2.503 1.101.801 1.802 1.702 2.303 2.603-.501-.801-1.202-1.802-2.303-2.603z"/>
    <path fill="#F8CA06" d="M120.774 108.722c15.017 2.903 23.026 10.111 34.839 17.119 5.006 3.004 10.812 5.907 18.02 8.41 5.006 1.802 9.11 2.402 12.414 2.302 12.714-.4 13.916-11.913 13.916-11.913s.3-2.002.5-5.106c-.3-.2-6.707-3.704-16.618-7.208-6.408-2.302-14.317-4.505-23.126-5.806-11.613-1.702-24.628-1.903-37.743 1.701 0-.1-.901.201-2.202.501z"/>
    <path fill="#181C19" d="M160.019 106.62v-.201c-.601-.1-1.202-.2-1.802-.2-.401-.1-.801-.1-1.302-.1-.2 0-.4-.1-.5-.1-.501-.1-1.102-.1-1.702-.2-.301 0-.601-.101-.901-.101-.201 0-.501-.1-.801-.1-.401 0-.701-.1-1.101-.1-.301 0-.701 0-1.002-.1-.6 0-1.201-.1-1.902-.1-3.003-.1-6.107-.1-9.31.1-.901.1-1.802.1-2.803.2-.401 0-.801.1-1.202.1-.5 0-1.001.101-1.501.201-.601.1-1.202.2-1.802.2-.201 0-.401.1-.601.1l-1.802.3c-.501.101-.901.201-1.402.301-.901.2-1.902.4-2.803.6-1.001.201-1.902.501-2.803.701h-.2H122.477c.5.1.901.2 1.401.301 11.313-3.004 23.627-3.504 36.741-1.502-.4.1-.5-.1-.6-.3zm0 0v-.201c-.601-.1-1.202-.2-1.802-.2-.401-.1-.801-.1-1.302-.1-.2 0-.4-.1-.5-.1-.501-.1-1.102-.1-1.702-.2-.301 0-.601-.101-.901-.101-.201 0-.501-.1-.801-.1-.401 0-.701-.1-1.101-.1-.301 0-.701 0-1.002-.1-.6 0-1.201-.1-1.902-.1-3.003-.1-6.107-.1-9.31.1-.901.1-1.802.1-2.803.2-.401 0-.801.1-1.202.1-.5 0-1.001.101-1.501.201-.601.1-1.202.2-1.802.2-.201 0-.401.1-.601.1l-1.802.3c-.501.101-.901.201-1.402.301-.901.2-1.902.4-2.803.6-1.001.201-1.902.501-2.803.701h-.2H122.477c.5.1.901.2 1.401.301 11.313-3.004 23.627-3.504 36.741-1.502-.4.1-.5-.1-.6-.3zm40.745 12.213l-.1-.1h-.1c-.2-.1-.4-.2-.701-.3-.2-.1-.4-.2-.5-.301-1.202-.6-2.703-1.401-4.706-2.202-.4-.2-.7-.3-1.101-.501-.801-.3-1.502-.7-2.403-1.001-.4-.2-.8-.3-1.201-.5 0 0-.1 0-.2-.1-.901-.401-1.802-.701-2.803-1.102-.401-.1-.701-.3-1.101-.4 0 0-.101 0-.201-.1-.4-.1-.7-.301-1.101-.401-.2-.1-.4-.2-.601-.2h-.1c-.2-.1-.5-.2-.7-.2-6.808-2.303-13.616-4.105-20.323-5.206-.401-.1-.801-.1-1.101-.2-.301-.1-.601-.1-1.002-.2h-.1c-13.515-2.003-26.229-1.402-37.942 1.702-.1 0-.1.1-.2.1-.301.1-1.302.4-1.903.5-.3.1-.5.401-.5.701v.2c.1.2.3.501.5.501h.201c.3.1.6.1.901.2.2 0 .5.1.7.1 1.903.401 3.605.901 5.206 1.402.501.2 1.001.3 1.502.5 1.001.301 1.902.701 2.803 1.101.3.101.601.201.801.401 2.603 1.101 5.006 2.403 7.408 3.804.801.501 1.502.901 2.303 1.402 1.602 1.001 3.304 2.102 5.006 3.203 1.001.601 2.002 1.302 3.003 1.902.5.301 1.101.701 1.602 1.002.5.3 1.101.7 1.702 1.001.3.2.5.3.8.5l.601.301c.1 0 .2.1.3.2 6.007 3.504 11.714 6.207 17.921 8.309 4.404 1.502 8.309 2.303 11.713 2.303H186.949c12.213-1.001 13.515-12.314 13.515-12.414 0-.1.3-1.902.5-4.906v-.3c.201-.3.101-.601-.2-.701zm-14.616 17.019H185.347c-3.304 0-7.108-.701-11.413-2.202-8.009-2.803-13.915-6.007-17.72-8.31-.1 0-.1-.1-.2-.1 0 0-.1 0-.1-.1-.601-.4-1.301-.801-1.902-1.101-.701-.4-1.302-.801-2.002-1.201-1.302-.801-2.503-1.602-3.704-2.403-3.104-2.002-6.107-3.904-9.211-5.706-.4-.201-.701-.401-1.101-.601-.3-.2-.601-.3-.901-.501-2.002-1.001-4.005-1.902-6.207-2.803-1.101-.4-2.202-.801-3.404-1.201-.1 0-.2 0-.2-.1-.501-.1-1.001-.301-1.602-.401-.3-.1-.6-.2-.901-.2-.3-.1-.601-.2-.901-.2 11.313-3.004 23.627-3.504 36.741-1.502h.401c7.508 1.101 15.217 3.104 22.825 5.807.1 0 .1 0 .201.1.4.2.8.3 1.301.5.501.201.901.301 1.402.501.5.2.901.4 1.401.5.501.201.901.301 1.302.501.4.2.8.3 1.201.501 2.002.8 3.804 1.601 5.306 2.302.3.1.601.301.901.401l3.203 1.601c-.2 2.804-.5 4.606-.5 4.706 0 0-.3 2.703-2.102 5.506-2.703 3.504-6.408 5.506-11.313 5.706zm-26.129-29.232v-.201c-.601-.1-1.202-.2-1.802-.2-.401-.1-.801-.1-1.302-.1-.2 0-.4-.1-.5-.1-.501-.1-1.102-.1-1.702-.2-.301 0-.601-.101-.901-.101-.201 0-.501-.1-.801-.1-.401 0-.701-.1-1.101-.1-.301 0-.701 0-1.002-.1-.6 0-1.201-.1-1.902-.1-3.003-.1-6.107-.1-9.31.1-.901.1-1.802.1-2.803.2-.401 0-.801.1-1.202.1-.5 0-1.001.101-1.501.201-.601.1-1.202.2-1.802.2-.201 0-.401.1-.601.1l-1.802.3c-.501.101-.901.201-1.402.301-.901.2-1.902.4-2.803.6-1.001.201-1.902.501-2.803.701h-.2H122.477c.5.1.901.2 1.401.301 11.313-3.004 23.627-3.504 36.741-1.502-.4.1-.5-.1-.6-.3zm0 0v-.201c-.601-.1-1.202-.2-1.802-.2-.401-.1-.801-.1-1.302-.1-.2 0-.4-.1-.5-.1-.501-.1-1.102-.1-1.702-.2-.301 0-.601-.101-.901-.101-.201 0-.501-.1-.801-.1-.401 0-.701-.1-1.101-.1-.301 0-.701 0-1.002-.1-.6 0-1.201-.1-1.902-.1-3.003-.1-6.107-.1-9.31.1-.901.1-1.802.1-2.803.2-.401 0-.801.1-1.202.1-.5 0-1.001.101-1.501.201-.601.1-1.202.2-1.802.2-.201 0-.401.1-.601.1l-1.802.3c-.501.101-.901.201-1.402.301-.901.2-1.902.4-2.803.6-1.001.201-1.902.501-2.803.701h-.2H122.477c.5.1.901.2 1.401.301 11.313-3.004 23.627-3.504 36.741-1.502-.4.1-.5-.1-.6-.3z"/>
    <path fill="#F8CA06" d="M160.719 106.52c8.81 1.301 16.719 3.604 23.126 5.806 0 0 1.001-3.804-2.603-6.307-2.503-1.802-10.412-5.206-20.523.501z"/>
    <path fill="#181C19" d="M184.647 110.023c0-.2-.101-.4-.101-.6-.1-.401-.2-.701-.3-1.102-.1-.1-.1-.3-.2-.4-.501-.901-1.201-1.802-2.303-2.603-.5-.3-3.003-2.002-6.907-2.603-1.402-.2-3.104-.3-4.806-.1-.2 0-.4.1-.701.1-.4.1-.901.1-1.401.2-.401.1-.701.1-1.101.201-.401.1-.701.2-1.102.3-.2.1-.4.1-.6.2-.601.2-1.202.401-1.802.701-.301.1-.601.3-1.001.4-.401.201-.801.401-1.102.601l-.6.3c-.1 0-.201.1-.301.201-.2.1-.3.3-.3.5v.2c0 .201.2.401.4.501h.201c7.608 1.101 15.317 3.103 23.025 5.806H183.946c.1 0 .2 0 .3-.1.2-.1.3-.2.3-.4s.101-.401.101-.701v-.3c.1-.301.1-.801 0-1.302zm-1.402 1.202v.1c-6.808-2.303-13.615-4.105-20.323-5.206 10.011-4.705 17.119-.1 17.92.501.901.6 1.502 1.301 1.802 2.002.1.3.201.6.301.801 0 .1.1.3.1.4 0 .2 0 .3.1.401.2.4.2.7.1 1.001z"/>
    <path fill="#fff" d="M.94 53.16c2.003 3.203 7.41 14.315 7.61 20.022.2 5.706-1.002 17.319 1.401 21.223 2.403 3.905 5.806 4.305 8.71 4.806 2.903.5 5.506.6 10.612 0 5.105-.6 12.113-2.403 14.216 6.707.5 2.203.4 4.505-.2 6.608-1.602 5.406-1.903 13.615 4.905 17.619 6.107 3.604 13.014 2.804 17.72 2.003 1.301-.201 2.502-.501 3.704-.901 3.203-.901 14.716-3.204 17.52 9.811 3.003 13.415 8.309 17.219 13.515 21.223.8.601 1.902 0 1.802-1.001-.401-6.107-.801-19.922 9.71-31.535-7.308-2.303-13.014-7.408-15.317-17.319-.1-.301-.1-.601-.2-1.002-5.706-28.031 17.82-34.638 29.733-40.745 6.708-3.504 8.71-8.91 9.111-13.015-9.111-7.208-19.422-10.612-33.938-12.614-14.417-1.902-35.74 3.104-50.157 7.909-14.416 4.805-35.34 6.207-49.155-1.602-.9-.4-1.902.901-1.301 1.802z"/>
    <path fill="#181C19" d="M135.892 57.264l-.1-.1c-.1-.1-.2-.2-.3-.2-.201-.2-.401-.4-.701-.5-8.409-6.308-18.421-9.912-33.137-11.914-11.113-1.502-26.63 1.101-40.145 4.805-3.604 1.001-7.108 2.003-10.312 3.104-19.922 6.707-38.743 4.004-48.554-1.502-.7-.4-1.502-.3-2.102.3-.601.601-.701 1.602-.3 2.303 2.002 3.203 7.307 14.216 7.508 19.722.1 1.602 0 3.604 0 5.806 0 6.007-.2 12.815 1.702 15.718 2.502 4.005 6.106 4.605 9.01 5.106h.2c2.803.5 5.406.601 10.812 0 .4-.1.901-.1 1.402-.2 4.705-.601 10.211-1.302 11.913 6.407.4 2.002.4 4.204-.2 6.307-.901 3.103-3.204 13.515 5.206 18.42 4.905 2.904 10.311 3.004 15.016 2.503 1.102-.1 2.103-.3 3.104-.5 1.201-.201 2.503-.501 3.804-.901 2.002-.601 7.108-1.602 11.313.901 2.703 1.601 4.505 4.405 5.406 8.409 3.003 13.315 8.209 17.42 13.315 21.324l.4.3c.3.201.701.401 1.101.401.301 0 .601-.1.901-.2.601-.301 1.002-1.002 1.002-1.702-.301-4.706-1.302-18.821 9.31-30.635l.3-.3c.1-.1.1-.2.2-.3v-.401c-.1-.2-.2-.4-.5-.5-1.001-.301-1.902-.701-2.803-1.102-1.302-.6-2.603-1.401-3.704-2.202-.301-.2-.501-.4-.801-.601-.501-.4-1.001-.801-1.402-1.301-.2-.2-.4-.401-.5-.601-.301-.4-.701-.701-1.002-1.101-2.102-2.703-3.704-6.007-4.505-9.911 0-.2-.1-.501-.2-.701v-.2c0-.2-.1-.301-.1-.501-4.605-23.626 12.214-31.435 24.528-37.141 1.802-.801 3.503-1.602 5.005-2.403 6.407-3.304 8.61-8.31 9.311-12.314 0-.2.1-.5.1-.8v-.401c-.2-.3-.301-.5-.501-.7zm-28.532 71.38c.201.1.301.2.501.3.2.1.5.201.5.201.301.1.601.3.801.4.301.1.579.22.901.4.322.181.254.119.401.201.147.082.3.1.4.2-10.512 12.214-9.493 26.329-9.192 31.035 0 .2-.101.3-.201.4-.1 0-.3.1-.5 0l-.401-.3c-5.105-3.905-9.928-7.308-12.731-20.223-1.001-4.405-3.104-7.608-6.108-9.41-2.302-1.402-4.805-1.802-7.007-1.802-2.303 0-4.305.5-5.406.8-1.202.301-2.503.601-3.704.801-1.102.201-2.303.401-3.605.501-4.304.4-9.21.2-13.615-2.403-7.508-4.405-5.406-14.015-4.605-16.819.7-2.302.8-4.705.2-7.007-2.002-8.91-8.71-8.01-13.615-7.409-.5.1-.901.1-1.301.2-5.206.601-7.71.501-10.412 0h-.2c-2.904-.5-5.807-1-8.01-4.505-1.501-2.703-1.3-9.61-1.2-15.117 0-2.202.1-4.304 0-5.906-.301-5.907-5.707-17.02-7.81-20.423-.1-.2 0-.5.1-.6.201-.2.301-.1.401 0 14.016 7.908 35.04 6.607 49.756 1.701 2.803-.9 5.806-1.902 9.01-2.803 13.615-3.804 29.533-6.607 40.846-5.106 15.117 2.003 24.828 5.507 33.237 12.214-.501 3.804-2.403 8.81-8.61 12.114-1.501.8-3.103 1.501-4.905 2.302-12.014 5.606-30.134 14.016-25.228 38.844 0 .1 0 .2.1.3v.2c0 .2.1.501.2.801.7 3.304 1.902 6.207 3.504 8.61.3.4.5.801.801 1.201.3.401.6.701.901 1.101l.1.101c.3.4.6.7.901 1.001l.901.901c.1 0 .1.1.2.2.3.3.701.601 1.001.801.401.3.701.6 1.101.801 0 0 .101.1.201.1.3.2.5.3.801.5.249.167.4.401.6.601z"/>
</svg>
