<svg xmlns="http://www.w3.org/2000/svg" width="380" height="288" fill="none" viewBox="0 0 380 288">
    <ellipse cx="237.95" cy="284.538" fill="#181C19" opacity=".1" rx="22.543" ry="3.006"/>
    <path stroke="#181C19" stroke-linecap="round" stroke-linejoin="round" stroke-miterlimit="10" stroke-width="1.4" d="M62.41 284.406s-6.966-19.304 10.728-32.168c0 0-14.31 0-20.679 22.235-.163.579-1.013.489-1.05-.108-.488-7.744-.542-28.857 11-48.939 0 0-14.364 8.141-17.295 29.399-.09.597-.941.616-1.05.037-1.32-6.387-4.848-18.925-12.736-22.471 0 0 7.761 14.926 4.486 34.846-.072.452-.633.597-.94.253-2.081-2.424-7.563-7.49-7.292-17.947 0 0-4.45 5.246-4.92 17.458-.019.634-.923.706-1.05.091-2.062-9.372-7.218-28.766-17.621-36.854 0 0 10.185 23.592 5.355 54.15"/>
    <ellipse cx="36.569" cy="285.039" fill="#181C19" opacity=".1" rx="36.569" ry="2.505"/>
    <path fill="#F8CA06" fill-rule="evenodd" d="M298.485 8.408c.757-1.873 2.31-3.65 4.267-5.07 2.46-1.784 5.653-3.073 8.989-3.302 3.348-.23 6.85.61 9.871 3.094 3.016 2.48 5.489 6.548 6.891 12.666.087.377-.149.753-.527.84-.377.086-.753-.15-.84-.527-1.353-5.905-3.701-9.664-6.415-11.896-2.709-2.228-5.844-2.986-8.884-2.777-3.05.21-5.994 1.394-8.262 3.038-2.284 1.656-3.788 3.707-4.12 5.589-.049.282-.266.506-.546.564-.281.06-.569-.059-.728-.297-2.793-4.19-7.441-5.032-11.53-3.669-4.116 1.372-7.493 4.923-7.725 9.328-.02.387-.35.684-.737.664-.387-.02-.684-.35-.663-.738.269-5.113 4.156-9.076 8.681-10.584 4.166-1.389 9.018-.744 12.278 3.077zM69.985 35.471c-5.305 2.294-9.2 8.097-10.497 12.878-.101.374-.486.595-.86.493-.374-.101-.595-.486-.494-.86 1.376-5.071 5.495-11.29 11.295-13.798 2.926-1.265 6.27-1.578 9.855-.323 3.36 1.175 6.883 3.71 10.462 8.027 1.798-2.814 5.845-4.643 10.02-3.867 4.742.88 9.529 5.05 11.825 14.487.092.377-.139.756-.515.847-.377.092-.756-.139-.848-.515-2.213-9.097-6.693-12.693-10.718-13.44-4.115-.765-7.889 1.376-8.993 4.026-.095.23-.305.39-.551.425-.247.034-.492-.065-.646-.26-3.704-4.691-7.255-7.271-10.499-8.407-3.23-1.13-6.21-.848-8.836.288z" clip-rule="evenodd"/>
    <ellipse cx="349.887" cy="285.561" fill="#181C19" opacity=".1" rx="18.884" ry="2.042"/>
    <path fill="#F8CA06" d="M379.176 203.294c-18.207 5.171-28.569 22.864-31.525 31.222-.019.053-.027.107-.027.163v.767c0 .26.209.477.467.498 28.487 2.296 33.025-20.143 31.707-32.241-.033-.302-.33-.492-.622-.409zM347.951 242.809v-2.813c0-.104-.032-.205-.092-.289-3.629-5.102-8.168-11.366-16.29-14.614-7.754-3.102-15.214-6.204-20.157-10.139-.331-.263-.827-.042-.825.38.022 6.434 1.985 15.443 9.843 21.553 5.766 4.484 11.951 2.992 26.899 6.409.314.072.622-.165.622-.487zM351.45 191.625c19.21-1.883 21.924-22.828 20.834-33.891-.036-.368-.45-.556-.761-.355-8.725 5.642-13.143 9.156-15.38 12.671-3.602 5.66-2.952 10.134-5.224 18.61-.012.043-.018.087-.018.131v2.341c0 .292.258.522.549.493zM349.577 201.963c-17.585 3.295-24.398-12.296-25.764-21.301-.055-.364.297-.648.645-.53 4.279 1.457 5.424 2.11 10.387 3.351 5.242 1.31 8.425 4.914 10.157 7.863 1.651 2.811 2.834 5.919 4.927 9.893.156.296-.023.663-.352.724z"/>
    <path fill="#181C19" fill-rule="evenodd" d="M349.797 178.532c.382-.066.745.19.81.572.55 3.189 1.321 10.275 1.321 13.225 0 3.506-.912 9.794-1.81 15.709l-.272 1.791c-.356 2.333-.696 4.565-.965 6.508-.339 2.451-.557 4.389-.557 5.479v.521c-.002 5.189-.008 20.447 1.305 30.514 1.148 8.802.612 19.813.213 28.014-.079 1.639-.154 3.166-.208 4.54-.015.387-.341.688-.728.673-.387-.015-.689-.341-.673-.728.055-1.4.13-2.946.21-4.599.398-8.208.925-19.056-.205-27.719-1.325-10.162-1.319-25.498-1.317-30.681v-.535c0-1.203.234-3.238.57-5.671.271-1.954.613-4.199.969-6.533l.271-1.785c.905-5.962 1.794-12.124 1.794-15.498 0-2.841-.758-9.841-1.3-12.987-.066-.381.19-.744.572-.81z" clip-rule="evenodd"/>
    <path fill="#181C19" fill-rule="evenodd" d="M370.937 238.92c.204.133.324.361.319.603-.116 5.452-4.746 17.098-21.817 21.632l-.36-1.356c15.277-4.058 19.995-13.905 20.684-19.156-1.837.819-3.399 1.401-4.768 1.911-.348.13-.684.255-1.009.379-1.851.702-3.334 1.34-4.812 2.419-5.32 3.884-8.262 8.717-9.257 11.435l-1.317-.482c1.088-2.975 4.2-8.036 9.747-12.086 1.636-1.195 3.265-1.885 5.141-2.598.335-.127.677-.254 1.03-.386 1.63-.608 3.475-1.296 5.738-2.361.22-.103.478-.086.681.046zM321.244 242.944c.192-.192.477-.255.732-.164 17.812 6.38 26.115 20.783 28.132 27.28.115.37-.092.763-.462.878-.37.115-.763-.092-.878-.462-1.865-6.009-9.535-19.444-25.919-25.871.447 1.565.692 3.027.929 4.437l.112.666c.348 2.032.745 4.005 1.763 6.217 1.841 4 4.267 7.646 8.615 10.737 1.878 1.335 3.628 1.923 5.986 2.59.316.089.641.18.979.273 2.192.609 4.881 1.356 8.466 2.79.359.144.534.552.39.912-.144.359-.552.534-.911.39-3.51-1.404-6.128-2.131-8.317-2.739l-.988-.276c-2.392-.677-4.335-1.317-6.418-2.797-4.602-3.272-7.165-7.141-9.076-11.294-1.097-2.384-1.519-4.505-1.871-6.567-.039-.224-.076-.447-.113-.669-.308-1.83-.608-3.617-1.316-5.599-.091-.255-.027-.54.165-.732zM324.764 206.348c.138-.2.368-.315.611-.304 5.803.27 10.817 2.575 14.713 5.321 3.893 2.743 6.706 5.952 8.119 8.1.185.281.142.646-.085.877.107.109.18.254.197.419.04.385-.24.73-.625.77-11.783 1.224-17.493-3.295-19.003-5.55-.708-1.057-1.139-2.011-1.674-3.332-.125-.309-.257-.64-.399-.998-.464-1.167-1.045-2.628-1.918-4.625-.098-.222-.073-.479.064-.678zm22.24 13.841c-1.328-2.004-4.006-5.058-7.724-7.678-3.482-2.454-7.844-4.506-12.836-4.985.638 1.496 1.103 2.664 1.482 3.618.14.354.269.678.391.979.524 1.293.912 2.141 1.539 3.078 1.143 1.706 6.146 5.977 17.148 4.988zM366.767 190.498c.175.158.259.394.223.627-.556 3.619-2.121 9.117-5.024 13.895-2.901 4.775-7.211 8.94-13.282 9.63-.385.044-.732-.233-.776-.618-.044-.385.233-.732.618-.776 5.461-.62 9.452-4.373 12.241-8.964 2.51-4.132 3.989-8.853 4.649-12.293-10.883 3.376-14.848 13.189-15.461 17.787-.051.384-.404.654-.788.603-.383-.051-.653-.404-.602-.788.678-5.085 5.127-16.019 17.555-19.261.229-.06.472 0 .647.158z" clip-rule="evenodd"/>
    <path fill="#F8CA06" stroke="#181C19" stroke-linecap="round" stroke-linejoin="round" stroke-miterlimit="10" stroke-width="1.4" d="M229.177 56.558c-2.958 12.543-18.164 13.372-23.784 9.467 3.431-.355 6.035-2.367 5.739-6.509-.178-1.36-1.243-2.425-2.308-3.076-1.834-1.183-2.603-3.49-3.254-5.562-.236-.71-.473-1.36-.769-1.952 0 0 3.491-1.36 4.497-4.378 0 0 3.904-.296 9.111 1.36h.059s.059 0 .119.06c.118.059.295.118.473.177.118.06.236.118.414.178.177.059.414.177.592.295.177.06.414.178.591.296.592.296 1.243.71 1.775 1.065l.059.06.06.059c.591.532 1.005.946 1.183 1.301 0 0 0 .06.059.119.118.355.059.65-.177 1.005-.06.06-.119.06-.178.119l.296.296.059.059c.059.059.118.177.178.236.059.06.059.119.118.119.059.059.059.118.118.118.059.06.059.118.119.118.414.533.946 1.184 1.479 1.834.059.06.118.119.177.237.947 1.124 2.012 2.248 3.077 2.663 0 .177.059.236.118.236z"/>
    <path stroke="#181C19" stroke-linecap="round" stroke-linejoin="round" stroke-miterlimit="10" stroke-width="1.4" d="M229.177 56.558c-.059 0-.118-.059-.177-.059-1.065-.473-2.13-1.597-3.077-2.662.118.118.237.295.414.414.828.887 1.716 1.656 2.485 2.13.178.059.237.118.355.177zM222.431 48.039c-.533-.414-1.184-.77-1.775-1.065-.178-.118-.414-.178-.592-.296-.237-.118-.414-.177-.592-.296-.118-.059-.295-.118-.414-.177-.177-.119-.355-.178-.473-.178 1.42.414 2.781 1.065 3.846 2.012zM223.614 50.524c.237-.296.296-.651.177-1.006.06.118.06.177.119.236.059.355-.059.592-.296.77zM223.735 51.056c.355.355.947 1.184 1.657 2.071-.414-.473-.828-.947-1.124-1.36-.059-.06-.059-.12-.119-.12-.059-.058-.059-.117-.118-.177-.059-.059-.059-.118-.118-.118-.059-.177-.119-.237-.178-.296z"/>
    <path stroke="#181C19" stroke-linecap="round" stroke-linejoin="round" stroke-miterlimit="10" stroke-width="1.4" d="M229.177 56.558c-.059 0-.118-.059-.177-.059-1.065-.473-2.13-1.597-3.077-2.662-.059-.06-.118-.119-.177-.237-.119-.177-.237-.296-.355-.473 1.065 1.242 2.425 2.603 3.49 3.254.119.059.178.118.296.177zM219.237 50.938s2.958.296 4.082-.296"/>
    <path stroke="#181C19" stroke-linecap="round" stroke-linejoin="round" stroke-miterlimit="10" stroke-width="1.4" d="M229.177 56.559c6.271-25.441-12.662-27.808-18.105-22.779-.355.355-.769.71-.887.828m13.43 16.093c.237-.296.296-.65.178-1.006 0 0 0-.059-.059-.118-.178-.473-.651-.947-1.243-1.36l-.059-.06c-.533-.414-1.183-.769-1.775-1.065-.178-.118-.414-.177-.592-.296-.236-.118-.414-.177-.591-.295-.119-.06-.296-.119-.415-.178-.177-.118-.355-.178-.473-.178-.059 0-.059 0-.118-.059m0 0h-.059m.059 0h-.059m0 0l-.119-.118-8.164-11.3m0 0l.059-.06m-.059.06l.059-.06"/>
    <path fill="#181C19" stroke="#181C19" stroke-linecap="round" stroke-linejoin="round" stroke-miterlimit="10" stroke-width="1.4" d="M218.349 45.79c-5.147-1.656-9.111-1.36-9.111-1.36-6.213-2.485-13.431-12.543-7.929-14.2 2.899-.828 6.272 1.42 9.23 4.497l.059.059c1.361 1.36 2.663 2.958 3.728 4.437.059.118.118.178.236.296.06.06.119.177.178.237 1.124 1.597 2.071 3.076 2.721 4.2.06.06.06.119.06.178.591 1.006.887 1.656.828 1.656zM264.734 88.152c-36.979-15.028-72.359-15.856-96.025-13.785-.119 0-.296 0-.414.06 0 0 12.069-9.349 37.096-8.343 5.621 3.905 20.826 3.017 23.784-9.467 0-.059 33.192 15.265 35.559 31.535z"/>
    <path fill="#fff" stroke="#181C19" stroke-linecap="round" stroke-linejoin="round" stroke-miterlimit="10" stroke-width="1.4" d="M157.409 200.803c-15.679 11.064-24.849 42.835-24.731 54.905.118 12.069-14.969 5.266-18.519 4.201-3.55-1.065-6.981-2.781.533-5.503 7.455-2.781 11.833-3.668 6.981-40.705-4.851-36.979 17.632-46.267 17.632-46.267 4.319 10.413 10.472 21.595 18.104 33.369zM236.867 284.344c-13.371-.237-11.064-1.893-6.449-5.147 4.733-3.254 5.332-4.674-1.834-16.448-7.166-11.775-18.186-35.319-18.186-35.319 10.294-6.153 25.84-16.216 34.064-21.541.177.71 2.877 65.853 2.759 70.113-.118 4.378 3.017 8.579-10.354 8.342z"/>
    <path fill="#F8CA06" stroke="#181C19" stroke-linecap="round" stroke-linejoin="round" stroke-miterlimit="10" stroke-width="1.4" d="M287.395 99.157s-1.42 57.213-14.436 78.512c-8.224 13.372-21.655 24.14-40.173 36.091-8.283 5.325-17.572 10.886-27.808 17.04-5.62 3.372-11.537 6.863-17.749 10.59-11.419-14.022-21.536-27.689-29.879-40.587-7.632-11.774-13.785-22.956-18.163-33.369-4.024-9.585-6.508-18.46-7.278-26.506-3.668-39.996 7.574-61.71 7.574-61.71s11.063-3.194 28.813-4.792c.118 0 .296 0 .414-.059 23.666-2.07 59.106-1.242 96.025 13.786 7.514 3.017 15.087 6.685 22.66 11.004z"/>
    <path fill="#fff" d="M244.619 167.375l-52.834-6.568c-6.509-.828-11.064-6.744-10.295-13.193.828-6.509 6.745-11.064 13.194-10.295l52.834 6.567c6.508.828 11.064 6.745 10.295 13.194-.769 6.508-6.686 11.123-13.194 10.295zM158.06 156.488c6.536 0 11.833-5.298 11.833-11.833s-5.297-11.833-11.833-11.833c-6.535 0-11.833 5.298-11.833 11.833s5.298 11.833 11.833 11.833zM178.825 118.386l40.292 5.088c4.969.651 9.466-2.899 10.117-7.81.651-4.969-2.899-9.466-7.81-10.117l-40.291-5.088c-4.97-.65-9.467 2.899-10.118 7.81-.591 4.97 2.899 9.466 7.81 10.117zM247.162 126.965c5 0 9.053-4.053 9.053-9.052 0-5-4.053-9.053-9.053-9.053-4.999 0-9.052 4.053-9.052 9.053 0 4.999 4.053 9.052 9.052 9.052zM177.112 190.331l31.594 3.964c3.905.473 7.395-2.249 7.928-6.153.473-3.905-2.248-7.396-6.153-7.929l-31.594-3.964c-3.905-.473-7.396 2.249-7.929 6.154-.473 3.904 2.249 7.454 6.154 7.928zM230.655 197.016c3.921 0 7.1-3.178 7.1-7.099 0-3.921-3.179-7.1-7.1-7.1s-7.1 3.179-7.1 7.1 3.179 7.099 7.1 7.099z"/>
    <path fill="#F8CA06" stroke="#181C19" stroke-miterlimit="10" stroke-width="1.4" d="M123.211 102.826s-4.852 10.531 9.584 15.087c14.437 4.615 12.366 1.597 6.568-4.97-5.799-6.567-6.686-8.638-6.686-8.638l.828-4.852c-.059-.059-9.525.118-10.294 3.373zM294.494 132.467s1.952 11.419-13.135 12.129c-15.087.71-12.306-1.657-5.029-6.508 7.278-4.852 8.698-6.627 8.698-6.627l.473-4.91c0-.06 9.111 2.544 8.993 5.916z"/>
    <path stroke="#F8CA06" stroke-linecap="round" stroke-linejoin="round" stroke-miterlimit="10" stroke-width="1.4" d="M184.27 108.032l-1.538 4.378M182.198 108.269l2.544 3.905M181.194 110.754l4.556-1.065M195.215 109.452l-1.538 4.378M193.142 109.688l2.544 3.905M192.138 112.174l4.556-1.065M206.161 110.754l-1.538 4.437M204.089 110.99l2.544 3.965M203.085 113.535l4.556-1.124M183.028 181.811l-1.597 4.437M180.955 182.047l2.544 3.964M179.951 184.592l4.556-1.124M193.975 183.231l-1.598 4.438M191.902 183.468l2.544 3.964M190.898 186.012l4.556-1.124M204.919 184.591l-1.597 4.379M202.846 184.828l2.544 3.905M201.842 187.313l4.556-1.065M217.757 112.41l-1.538 4.438M215.685 112.647l2.544 3.964M214.681 115.191l4.556-1.124M195.215 147.673l-1.538 4.437M193.142 147.909l2.544 3.905M192.138 150.394l4.556-1.064M207.05 149.093l-1.597 4.437M204.977 149.329l2.544 3.964M203.973 151.814l4.556-1.065M218.822 150.395l-1.538 4.437M216.808 150.631l2.544 3.964M215.804 153.175l4.556-1.065M230.657 152.051l-1.597 4.378M228.584 152.288l2.544 3.904M227.58 154.773l4.556-1.065M242.488 153.294l-1.597 4.378M240.415 153.53l2.544 3.905M239.411 156.015l4.556-1.065M247.93 116.02l-1.539 4.378M245.857 116.256l2.544 3.905M244.853 118.741l4.556-1.065M231.485 188.023l-1.597 4.378M229.412 188.26l2.544 3.905M228.408 190.745l4.556-1.065M158.828 142.644l-1.597 4.437M156.755 142.88l2.544 3.964M155.751 145.424l4.556-1.065"/>
</svg>
