<svg xmlns="http://www.w3.org/2000/svg" width="366" height="288" fill="none" viewBox="0 0 366 288">
    <ellipse cx="223.5" cy="284" fill="#fff" opacity=".1" rx="22.5" ry="3"/>
    <path stroke="#fff" stroke-linecap="round" stroke-linejoin="round" stroke-miterlimit="10" stroke-width="1.4" d="M48.292 283.868S41.339 264.601 59 251.762c0 0-14.284 0-20.64 22.193-.163.578-1.011.487-1.047-.109-.488-7.728-.542-28.802 10.979-48.846 0 0-14.338 8.126-17.264 29.344-.09.596-.939.614-1.047.036-1.318-6.374-4.84-18.888-12.713-22.428 0 0 7.747 14.898 4.479 34.78-.073.451-.632.596-.94.252-2.076-2.419-7.547-7.476-7.277-17.913 0 0-4.442 5.237-4.911 17.426-.018.632-.921.704-1.048.09-2.058-9.354-7.205-28.712-17.588-36.784 0 0 10.167 23.548 5.345 54.047"/>
    <ellipse cx="22.5" cy="284.5" fill="#fff" opacity=".1" rx="36.5" ry="2.5"/>
    <path fill="#fff" fill-rule="evenodd" d="M283.921 8.392c.755-1.869 2.306-3.644 4.259-5.06 2.456-1.78 5.642-3.067 8.972-3.296 3.341-.229 6.837.608 9.852 3.088 3.01 2.475 5.479 6.536 6.879 12.642.086.377-.15.752-.526.839-.377.086-.753-.15-.839-.527-1.351-5.893-3.694-9.645-6.403-11.873-2.703-2.223-5.833-2.98-8.867-2.772-3.045.209-5.983 1.391-8.246 3.032-2.28 1.654-3.781 3.7-4.112 5.579-.05.282-.266.505-.546.563-.28.06-.568-.058-.726-.296-2.788-4.182-7.427-5.023-11.509-3.662-4.108 1.369-7.478 4.913-7.71 9.31-.02.386-.349.683-.736.662-.386-.02-.682-.35-.662-.736.269-5.103 4.148-9.059 8.665-10.564 4.158-1.386 9.001-.742 12.255 3.07zM55.853 35.404c-5.295 2.29-9.183 8.082-10.477 12.854-.101.373-.486.593-.859.492-.373-.101-.594-.486-.492-.859 1.372-5.061 5.484-11.269 11.272-13.772 2.921-1.262 6.259-1.575 9.838-.322 3.353 1.173 6.87 3.703 10.442 8.012 1.794-2.809 5.834-4.634 10.001-3.86 4.733.879 9.511 5.04 11.802 14.46.092.376-.139.754-.514.846-.376.091-.755-.14-.846-.515-2.209-9.08-6.68-12.669-10.698-13.415-4.107-.763-7.874 1.374-8.976 4.019-.095.229-.305.39-.55.424-.246.034-.492-.065-.645-.26-3.697-4.682-7.24-7.257-10.479-8.39-3.223-1.128-6.198-.847-8.819.286z" clip-rule="evenodd"/>
    <ellipse cx="335.226" cy="285.022" fill="#fff" opacity=".1" rx="18.849" ry="2.038"/>
    <path fill="#F8CA06" d="M364.46 202.91c-18.173 5.161-28.515 22.821-31.466 31.163-.019.053-.027.106-.027.163v.765c0 .259.208.476.466.497 28.433 2.292 32.963-20.105 31.648-32.18-.033-.301-.33-.491-.621-.408zM333.294 242.35v-2.807c0-.104-.032-.205-.092-.289-3.623-5.093-8.153-11.344-16.26-14.587-7.739-3.095-15.185-6.191-20.119-10.119-.329-.263-.824-.042-.823.379.022 6.422 1.981 15.414 9.824 21.513 5.756 4.475 11.929 2.985 26.848 6.397.314.071.622-.165.622-.487zM336.786 191.263c19.174-1.88 21.882-22.785 20.794-33.827-.036-.367-.449-.555-.759-.354-8.709 5.631-13.118 9.138-15.35 12.646-3.596 5.65-2.947 10.115-5.215 18.576-.012.042-.018.087-.018.131v2.336c0 .292.258.521.548.492zM334.917 201.582c-17.552 3.288-24.352-12.273-25.716-21.262-.055-.363.297-.646.644-.528 4.271 1.453 5.414 2.106 10.368 3.344 5.232 1.308 8.408 4.905 10.137 7.848 1.648 2.806 2.828 5.908 4.918 9.874.155.296-.023.662-.351.724z"/>
    <path fill="#fff" fill-rule="evenodd" d="M335.136 178.195c.381-.066.743.19.809.571.549 3.183 1.318 10.255 1.318 13.199 0 3.5-.911 9.776-1.806 15.68l-.272 1.787c-.355 2.329-.695 4.557-.964 6.496-.338 2.447-.555 4.381-.555 5.469v.52c-.002 5.179-.008 20.409 1.302 30.456 1.146 8.785.611 19.776.213 27.961-.079 1.636-.153 3.16-.208 4.532-.015.386-.34.687-.727.672-.386-.016-.687-.341-.671-.727.055-1.397.13-2.94.21-4.59.397-8.193.922-19.02-.205-27.667-1.323-10.143-1.316-25.45-1.314-30.623v-.534c0-1.201.233-3.232.569-5.66.269-1.951.611-4.191.966-6.521l.271-1.781c.903-5.951 1.791-12.102 1.791-15.47 0-2.835-.756-9.822-1.298-12.961-.065-.381.19-.743.571-.809z" clip-rule="evenodd"/>
    <path fill="#fff" fill-rule="evenodd" d="M356.236 238.469c.203.132.324.36.319.602-.116 5.441-4.738 17.065-21.777 21.591l-.359-1.353c15.248-4.051 19.958-13.88 20.645-19.121-1.834.817-3.392 1.398-4.758 1.908-.348.13-.684.255-1.008.378-1.847.701-3.328 1.337-4.803 2.414-5.309 3.877-8.246 8.701-9.239 11.413l-1.315-.481c1.087-2.969 4.192-8.02 9.728-12.062 1.634-1.193 3.26-1.882 5.132-2.593.334-.127.676-.254 1.028-.386 1.627-.606 3.469-1.293 5.728-2.356.219-.104.476-.086.679.046zM306.637 242.485c.191-.191.476-.255.731-.164 17.778 6.368 26.066 20.744 28.078 27.229.115.369-.091.761-.461.876-.369.114-.761-.092-.876-.461-1.861-5.998-9.517-19.407-25.87-25.822.446 1.562.691 3.021.927 4.429l.112.664c.347 2.028.744 3.998 1.76 6.205 1.837 3.993 4.259 7.632 8.599 10.717 1.874 1.333 3.62 1.92 5.974 2.585.315.089.64.18.977.273 2.188.608 4.872 1.353 8.45 2.784.359.144.533.551.39.91-.144.359-.551.534-.91.39-3.503-1.401-6.116-2.127-8.301-2.734l-.987-.275c-2.387-.676-4.326-1.314-6.405-2.792-4.594-3.266-7.151-7.127-9.059-11.272-1.095-2.38-1.516-4.498-1.868-6.555l-.113-.668c-.306-1.827-.606-3.61-1.313-5.588-.091-.255-.027-.54.165-.731zM310.151 205.958c.137-.2.367-.314.609-.303 5.793.269 10.797 2.57 14.686 5.31 3.885 2.738 6.693 5.942 8.103 8.085.185.281.141.645-.085.876.107.109.18.254.197.418.04.384-.24.728-.624.768-11.76 1.222-17.46-3.288-18.967-5.539-.707-1.055-1.137-2.008-1.671-3.326-.125-.309-.256-.638-.398-.996-.463-1.165-1.043-2.623-1.915-4.616-.097-.222-.073-.478.065-.677zm22.198 13.814c-1.326-1.999-3.999-5.047-7.71-7.662-3.475-2.45-7.829-4.498-12.812-4.976.637 1.493 1.101 2.659 1.479 3.611.141.353.269.677.391.977.523 1.291.91 2.137 1.536 3.072 1.141 1.703 6.134 5.966 17.116 4.978zM352.074 190.138c.175.158.259.393.223.626-.556 3.612-2.118 9.1-5.015 13.869-2.896 4.765-7.197 8.923-13.257 9.611-.384.044-.731-.232-.774-.616-.044-.384.232-.731.616-.775 5.451-.619 9.434-4.365 12.218-8.947 2.506-4.124 3.981-8.837 4.64-12.27-10.862 3.37-14.819 13.165-15.431 17.754-.051.383-.403.652-.786.601-.384-.051-.653-.403-.602-.786.677-5.075 5.118-15.989 17.522-19.225.228-.059.471 0 .646.158z" clip-rule="evenodd"/>
    <path fill="#F8CA06" stroke="#F8CA06" stroke-linecap="round" stroke-linejoin="round" stroke-miterlimit="10" stroke-width="1.4" d="M214.744 56.451c-2.953 12.52-18.129 13.346-23.739 9.449 3.425-.354 6.023-2.362 5.728-6.496-.177-1.358-1.24-2.421-2.303-3.07-1.831-1.182-2.599-3.485-3.248-5.552-.236-.708-.473-1.358-.768-1.948 0 0 3.484-1.359 4.488-4.37 0 0 3.898-.296 9.094 1.358h.059s.059 0 .118.059c.119.059.296.118.473.177.118.06.236.118.413.177.177.06.414.177.591.295.177.06.413.178.59.296.591.295 1.24.708 1.772 1.063l.059.059.059.059c.591.531 1.004.945 1.181 1.299 0 0 0 .059.059.118.118.354.059.65-.177 1.004-.059.059-.118.059-.177.118l.295.295.059.06c.059.058.118.176.177.236.059.059.059.118.118.118.059.059.059.118.119.118.059.059.059.118.118.118.413.531.944 1.181 1.476 1.83.059.06.118.119.177.237.945 1.122 2.008 2.244 3.071 2.657 0 .177.059.236.118.236z"/>
    <path stroke="#181C19" stroke-linecap="round" stroke-linejoin="round" stroke-miterlimit="10" stroke-width="1.4" d="M214.744 56.451c-.059 0-.118-.059-.177-.059-1.063-.472-2.126-1.594-3.071-2.657.118.118.236.295.413.413.827.886 1.713 1.654 2.481 2.126.177.06.236.118.354.177zM208.01 47.948c-.531-.413-1.181-.768-1.771-1.063-.177-.118-.414-.177-.591-.295-.236-.118-.413-.177-.59-.296-.118-.058-.296-.118-.414-.177-.177-.118-.354-.177-.472-.177 1.417.414 2.775 1.063 3.838 2.008zM209.191 50.428c.237-.295.296-.65.178-1.004.059.118.059.178.118.236.059.355-.059.591-.296.768z"/>
    <path stroke="#fff" stroke-linecap="round" stroke-linejoin="round" stroke-miterlimit="10" stroke-width="1.4" d="M209.312 50.96c.355.354.945 1.18 1.654 2.067-.413-.473-.827-.945-1.122-1.359-.059-.059-.059-.118-.118-.118-.059-.059-.059-.118-.118-.177s-.059-.118-.118-.118c-.059-.177-.118-.236-.178-.295z"/>
    <path stroke="#fff" stroke-linecap="round" stroke-linejoin="round" stroke-miterlimit="10" stroke-width="1.4" d="M214.744 56.452c-.059 0-.118-.06-.177-.06-1.063-.472-2.126-1.594-3.071-2.657-.059-.059-.118-.118-.177-.236-.118-.177-.236-.296-.354-.473 1.063 1.24 2.421 2.599 3.484 3.248.118.06.177.118.295.178zM204.822 50.842s2.953.295 4.075-.296M214.744 56.452c6.259-25.393-12.638-27.755-18.071-22.736-.354.355-.767.709-.885.827m13.405 16.062c.236-.295.295-.65.177-1.003 0 0 0-.06-.059-.119-.177-.472-.65-.944-1.24-1.358l-.059-.059c-.532-.413-1.181-.768-1.772-1.063-.177-.118-.413-.177-.591-.295-.236-.118-.413-.177-.59-.295-.118-.06-.295-.118-.413-.177-.178-.119-.355-.178-.473-.178-.059 0-.059 0-.118-.059m0 0h-.059m.059 0h-.059m0 0l-.118-.118-8.149-11.279m0 0l.059-.06m-.059.06l.059-.06"/>
    <path fill="#fff" stroke="#fff" stroke-linecap="round" stroke-linejoin="round" stroke-miterlimit="10" stroke-width="1.4" d="M203.936 45.704c-5.137-1.654-9.094-1.358-9.094-1.358-6.2-2.48-13.405-12.52-7.913-14.173 2.894-.827 6.26 1.417 9.212 4.488l.059.059c1.359 1.358 2.658 2.953 3.721 4.429.059.118.118.177.236.295.059.06.118.177.177.236 1.122 1.595 2.067 3.071 2.717 4.193.059.06.059.118.059.177.59 1.004.885 1.654.826 1.654zM250.233 87.986c-36.908-15-72.222-15.827-95.843-13.76-.118 0-.295 0-.413.06 0 0 12.046-9.331 37.026-8.327 5.61 3.897 20.787 3.012 23.739-9.449 0-.059 33.129 15.236 35.491 31.476z"/>
    <path fill="#181C19" stroke="#fff" stroke-linecap="round" stroke-linejoin="round" stroke-miterlimit="10" stroke-width="1.4" d="M143.112 200.423c-15.649 11.043-24.803 42.755-24.685 54.802.118 12.047-14.94 5.255-18.483 4.192-3.544-1.063-6.969-2.775.531-5.492 7.441-2.775 11.811-3.661 6.968-40.628-4.842-36.908 17.598-46.18 17.598-46.18 4.311 10.394 10.453 21.555 18.071 33.306zM222.42 283.807c-13.346-.236-11.043-1.89-6.437-5.138 4.724-3.248 5.321-4.664-1.831-16.417C207 250.5 196 227 196 227c10.275-6.142 25.792-16.185 34-21.5.177.709 2.872 65.728 2.754 69.98-.118 4.37 3.012 8.563-10.334 8.327z"/>
    <path fill="#F8CA06" stroke="#fff" stroke-linecap="round" stroke-linejoin="round" stroke-miterlimit="10" stroke-width="1.4" d="M272.852 98.97s-1.417 57.104-14.409 78.364c-8.208 13.346-21.613 24.093-40.097 36.022-8.267 5.315-17.539 10.866-27.755 17.007-5.61 3.366-11.515 6.851-17.716 10.571-11.397-13.996-21.495-27.637-29.822-40.511-7.618-11.751-13.759-22.912-18.129-33.306-4.016-9.566-6.496-18.424-7.264-26.455-3.661-39.92 7.559-61.593 7.559-61.593s11.043-3.189 28.759-4.783c.118 0 .295 0 .413-.06 23.622-2.066 58.994-1.24 95.844 13.76 7.499 3.012 15.058 6.673 22.617 10.984z"/>
    <path fill="#181C19" d="M230.157 167.058l-52.735-6.555c-6.496-.826-11.043-6.732-10.275-13.168.827-6.496 6.732-11.043 13.169-10.276l52.734 6.555c6.496.827 11.043 6.732 10.276 13.169-.768 6.496-6.673 11.102-13.169 10.275zM143.762 156.193c6.523 0 11.81-5.288 11.81-11.811s-5.287-11.811-11.81-11.811c-6.523 0-11.811 5.288-11.811 11.811s5.288 11.811 11.811 11.811zM164.487 118.162l40.215 5.079c4.961.65 9.449-2.894 10.099-7.795.649-4.961-2.894-9.449-7.795-10.098l-40.216-5.079c-4.96-.65-9.448 2.894-10.098 7.795-.59 4.961 2.894 9.449 7.795 10.098zM232.695 126.725c4.99 0 9.035-4.045 9.035-9.035s-4.045-9.035-9.035-9.035-9.035 4.045-9.035 9.035 4.045 9.035 9.035 9.035zM162.777 189.971l31.534 3.957c3.898.472 7.382-2.244 7.913-6.142.473-3.897-2.244-7.382-6.141-7.913l-31.534-3.957c-3.898-.472-7.382 2.244-7.914 6.142-.472 3.897 2.244 7.441 6.142 7.913zM216.219 196.644c3.914 0 7.087-3.172 7.087-7.086s-3.173-7.087-7.087-7.087c-3.914 0-7.086 3.173-7.086 7.087 0 3.914 3.172 7.086 7.086 7.086z"/>
    <path fill="#F8CA06" stroke="#181C19" stroke-miterlimit="10" stroke-width="1.4" d="M108.978 102.631s-4.843 10.512 9.566 15.059c14.409 4.606 12.342 1.594 6.555-4.961-4.432-5.02-6.826-7.471-7.704-8.343-.245-.243-.354-.592-.286-.93L118 99c-.059-.06-8.255.383-9.022 3.631zM279.938 132.217s1.948 11.397-13.11 12.106c-15.059.709-12.283-1.654-5.02-6.496 5.584-3.722 8.31-5.46 9.272-6.065.265-.167.438-.445.469-.756L272 126.5c0-.059 8.056 2.351 7.938 5.717z"/>
    <path stroke="#fff" stroke-linecap="round" stroke-linejoin="round" stroke-miterlimit="10" stroke-width="1.4" d="M169.922 107.828l-1.535 4.37M167.854 108.064l2.539 3.898M166.852 110.545l4.547-1.063M180.846 109.245l-1.535 4.37M178.777 109.481l2.54 3.898M177.775 111.962l4.547-1.063M191.772 110.545l-1.536 4.429M189.703 110.781l2.539 3.956M188.701 113.32l4.547-1.122M168.682 181.467l-1.594 4.429M166.613 181.703l2.54 3.957M165.611 184.243l4.547-1.122M179.608 182.885l-1.594 4.429M177.539 183.121l2.539 3.957M176.537 185.661l4.547-1.122M190.532 184.243l-1.594 4.37M188.463 184.479l2.539 3.897M187.461 186.959l4.547-1.063M203.346 112.198l-1.535 4.429M201.277 112.434l2.54 3.957M200.275 114.974l4.547-1.122M180.846 147.394l-1.535 4.429M178.777 147.63l2.54 3.897M177.775 150.11l4.547-1.063M192.659 148.811l-1.595 4.429M190.59 149.047l2.539 3.957M189.588 151.528l4.547-1.063M204.408 150.11l-1.535 4.429M202.398 150.346l2.54 3.957M201.396 152.886l4.548-1.063M216.221 151.764l-1.594 4.37M214.152 152l2.54 3.897M213.15 154.48l4.547-1.063M228.03 153.004l-1.594 4.37M225.961 153.24l2.539 3.898M224.959 155.72l4.547-1.063M233.461 115.8l-1.535 4.37M231.393 116.036l2.539 3.898M230.391 118.517l4.547-1.063M217.048 187.668l-1.595 4.37M214.979 187.904l2.539 3.898M213.977 190.384l4.547-1.063M144.528 142.374l-1.594 4.429M142.459 142.61l2.539 3.957M141.457 145.15l4.547-1.063"/>
</svg>
