<svg width="30" height="30" viewBox="0 0 30 30" fill="none" xmlns="http://www.w3.org/2000/svg">
<path fill-rule="evenodd" clip-rule="evenodd" d="M9.5 10C8.95228 10 8.5 10.4523 8.5 11V18C8.5 18.5477 8.95228 19 9.5 19H20.5C20.8775 19 21.2294 18.7595 21.3809 18.4061C21.5984 17.8984 22.1863 17.6633 22.6939 17.8809C23.2015 18.0984 23.4367 18.6863 23.2191 19.1939C22.7706 20.2405 21.7225 21 20.5 21H9.5C7.84772 21 6.5 19.6523 6.5 18V11C6.5 9.34772 7.84772 8 9.5 8H20.5C22.1523 8 23.5 9.34772 23.5 11V15C23.5 15.5523 23.0523 16 22.5 16C21.9477 16 21.5 15.5523 21.5 15V11C21.5 10.4523 21.0477 10 20.5 10H9.5Z" class="--primary-fill-color"/>
<path fill-rule="evenodd" clip-rule="evenodd" d="M7.40039 13.1001C7.40039 12.5478 7.84811 12.1001 8.40039 12.1001H21.6004C22.1527 12.1001 22.6004 12.5478 22.6004 13.1001C22.6004 13.6524 22.1527 14.1001 21.6004 14.1001H8.40039C7.84811 14.1001 7.40039 13.6524 7.40039 13.1001Z" class="--primary-fill-color"/>
<path d="M11 18.1001C11.8284 18.1001 12.5 17.4285 12.5 16.6001C12.5 15.7717 11.8284 15.1001 11 15.1001C10.1716 15.1001 9.5 15.7717 9.5 16.6001C9.5 17.4285 10.1716 18.1001 11 18.1001Z" class="--secondary-fill-color"/>
<path d="M12.5 18.1001C13.3284 18.1001 14 17.4285 14 16.6001C14 15.7717 13.3284 15.1001 12.5 15.1001C11.6716 15.1001 11 15.7717 11 16.6001C11 17.4285 11.6716 18.1001 12.5 18.1001Z" class="--secondary-fill-color"/>
</svg>
