<svg width="30" height="30" viewBox="0 0 30 30" fill="none" xmlns="http://www.w3.org/2000/svg">
<path d="M12.5126 23.0001C9.83364 22.9847 7.61768 17.5161 7.61768 14.731C7.61768 10.1817 11.0305 9.1857 12.3457 9.1857C12.9385 9.1857 13.5714 9.41847 14.1296 9.62445C14.52 9.76813 14.9237 9.91645 15.1483 9.91645C15.2827 9.91645 15.5994 9.79028 15.879 9.67957C16.4754 9.44216 17.2175 9.14709 18.0816 9.14709C18.0832 9.14709 18.0852 9.14709 18.0867 9.14709C18.732 9.14709 20.6885 9.2887 21.8647 11.0551L22.1402 11.4691L21.7437 11.7683C21.1772 12.1958 20.1436 12.9755 20.1436 14.5199C20.1436 16.3491 21.3142 17.0526 21.8765 17.391C22.1248 17.5403 22.3817 17.6943 22.3817 18.0311C22.3817 18.251 20.6266 22.9729 18.078 22.9729C17.4544 22.9729 17.0135 22.7854 16.6247 22.6201C16.2313 22.4527 15.8919 22.3085 15.3311 22.3085C15.0468 22.3085 14.6873 22.4429 14.3067 22.5856C13.7867 22.7797 13.198 23.0001 12.5301 23.0001H12.5126Z" class="--primary-fill-color"/>
<path d="M18.3516 5C18.418 7.3933 16.7064 9.05366 14.9968 8.94952C14.7151 7.03959 16.7062 5 18.3516 5Z" class="--primary-fill-color"/>
</svg>
