<svg width="30" height="30" viewBox="0 0 30 30" fill="none" xmlns="http://www.w3.org/2000/svg">
<path fill-rule="evenodd" clip-rule="evenodd" d="M12.5 8.00012C11.7348 8.00012 11 8.65018 11 10.0001V18.0001C11 20.1478 12.8523 22.0001 15 22.0001C17.1477 22.0001 19 20.1478 19 18.0001V15C19 14.4477 19.4477 14 20 14C20.5523 14 21 14.4477 21 15V18.0001C21 21.2524 18.2523 24.0001 15 24.0001C11.7477 24.0001 9 21.2524 9 18.0001V10.0001C9 7.95006 10.2652 6.00012 12.5 6.00012C14.7348 6.00012 16 7.95006 16 10.0001V17.0001C16 17.5524 15.5523 18.0001 15 18.0001C14.4477 18.0001 14 17.5524 14 17.0001V10.0001C14 8.65018 13.2652 8.00012 12.5 8.00012Z" class="--primary-fill-color"/>
<path fill-rule="evenodd" clip-rule="evenodd" d="M20 8C20.5523 8 21 8.44772 21 9V11C21 11.5523 20.5523 12 20 12C19.4477 12 19 11.5523 19 11V9C19 8.44772 19.4477 8 20 8Z" class="--primary-fill-color"/>
</svg>
