<svg width="30" height="30" viewBox="0 0 30 30" fill="none" xmlns="http://www.w3.org/2000/svg">
<path fill-rule="evenodd" clip-rule="evenodd" d="M8.38984 8.49589C8.77869 8.10369 9.41184 8.10097 9.80404 8.48982L21.504 20.0898C21.8962 20.4787 21.899 21.1118 21.5101 21.504C21.1213 21.8962 20.4881 21.8989 20.0959 21.5101L8.39591 9.91009C8.00371 9.52124 8.001 8.88808 8.38984 8.49589Z" class="--secondary-fill-color"/>
<path fill-rule="evenodd" clip-rule="evenodd" d="M6.26741 11.639C7.61025 8.16996 10.97 5.69995 14.9 5.69995C20.0363 5.69995 24.2 9.73189 24.2 14.9C24.2 20.0522 20.0523 24.2 14.9 24.2C11.0902 24.2 7.83639 21.9529 6.38242 18.5976C6.16283 18.0908 6.39562 17.502 6.90237 17.2824C7.40912 17.0628 7.99794 17.2956 8.21753 17.8023C9.36356 20.447 11.9097 22.2 14.9 22.2C18.9477 22.2 22.2 18.9477 22.2 14.9C22.2 10.868 18.9636 7.69995 14.9 7.69995C11.83 7.69995 9.18971 9.62995 8.13254 12.3609C7.93317 12.876 7.35403 13.1319 6.83898 12.9325C6.32394 12.7331 6.06804 12.154 6.26741 11.639Z" class="--primary-fill-color"/>
</svg>
