<svg width="30" height="30" viewBox="0 0 30 30" fill="none" xmlns="http://www.w3.org/2000/svg">
<path d="M8.9001 22.2001C10.4465 22.2001 11.7001 20.9465 11.7001 19.4001C11.7001 17.8537 10.4465 16.6001 8.9001 16.6001C7.3537 16.6001 6.1001 17.8537 6.1001 19.4001C6.1001 20.9465 7.3537 22.2001 8.9001 22.2001Z" class="--secondary-fill-color"/>
<path fill-rule="evenodd" clip-rule="evenodd" d="M8.9001 17.6001C7.90598 17.6001 7.1001 18.406 7.1001 19.4001C7.1001 20.3942 7.90599 21.2001 8.9001 21.2001C9.89421 21.2001 10.7001 20.3942 10.7001 19.4001C10.7001 18.406 9.89421 17.6001 8.9001 17.6001ZM5.1001 19.4001C5.1001 17.3014 6.80142 15.6001 8.9001 15.6001C10.9988 15.6001 12.7001 17.3014 12.7001 19.4001C12.7001 21.4988 10.9988 23.2001 8.9001 23.2001C6.80141 23.2001 5.1001 21.4988 5.1001 19.4001Z" class="--primary-fill-color"/>
<path d="M21.1 22.2001C22.6464 22.2001 23.9 20.9465 23.9 19.4001C23.9 17.8537 22.6464 16.6001 21.1 16.6001C19.5537 16.6001 18.3 17.8537 18.3 19.4001C18.3 20.9465 19.5537 22.2001 21.1 22.2001Z" class="--secondary-fill-color"/>
<path fill-rule="evenodd" clip-rule="evenodd" d="M21.1 17.6001C20.1059 17.6001 19.3 18.406 19.3 19.4001C19.3 20.3942 20.1059 21.2001 21.1 21.2001C22.0942 21.2001 22.9 20.3942 22.9 19.4001C22.9 18.406 22.0942 17.6001 21.1 17.6001ZM17.3 19.4001C17.3 17.3014 19.0014 15.6001 21.1 15.6001C23.1987 15.6001 24.9 17.3014 24.9 19.4001C24.9 21.4988 23.1987 23.2001 21.1 23.2001C19.0014 23.2001 17.3 21.4988 17.3 19.4001Z" class="--primary-fill-color"/>
<path fill-rule="evenodd" clip-rule="evenodd" d="M12.6593 9.08275L10.3593 16.8828L8.44092 16.3171L10.7409 8.51709L12.6593 9.08275Z" class="--primary-fill-color"/>
<path fill-rule="evenodd" clip-rule="evenodd" d="M19.4708 8.73731C20.0025 8.88684 20.3122 9.43905 20.1627 9.97071L19.2627 13.1707C19.1132 13.7024 18.561 14.0121 18.0293 13.8626C17.4977 13.7131 17.1879 13.1609 17.3374 12.6292L18.2374 9.42922C18.3869 8.89756 18.9392 8.58778 19.4708 8.73731Z" class="--primary-fill-color"/>
<path fill-rule="evenodd" clip-rule="evenodd" d="M10.7 12H18.9615L20.9203 16.6089L19.0796 17.3911L17.6384 14H10.7V12Z" class="--primary-fill-color"/>
<path fill-rule="evenodd" clip-rule="evenodd" d="M7.69995 8.3999C7.69995 7.84762 8.14767 7.3999 8.69995 7.3999H12.7C13.2522 7.3999 13.7 7.84762 13.7 8.3999C13.7 8.95219 13.2522 9.3999 12.7 9.3999H8.69995C8.14767 9.3999 7.69995 8.95219 7.69995 8.3999Z" class="--primary-fill-color"/>
<path fill-rule="evenodd" clip-rule="evenodd" d="M16.7 9.3999C16.7 8.84762 17.1477 8.3999 17.7 8.3999H19.7999C20.3522 8.3999 20.7999 8.84762 20.7999 9.3999C20.7999 9.95219 20.3522 10.3999 19.7999 10.3999H17.7C17.1477 10.3999 16.7 9.95219 16.7 9.3999Z" class="--primary-fill-color"/>
</svg>
