<svg xmlns="http://www.w3.org/2000/svg" width="30" height="30" fill="none" viewBox="-6 0 30 18">
    <path d="M8.367 9.67v2.048h1.675c.564 0 1.023-.46 1.023-1.024 0-.565-.459-1.024-1.023-1.024H8.367z" class="--primary-fill-color"/>
    <path d="M9 0C4.037 0 0 4.037 0 9s4.037 9 9 9 9-4.037 9-9-4.037-9-9-9zm1.041 13.503h-.148v1.136H8.108v-1.136H5.51v-1.786H6.58V6.201H5.51V4.415h2.598V3.28h1.785v1.154c1.303.155 2.317 1.265 2.317 2.609 0 .533-.16 1.029-.434 1.443.654.515 1.074 1.313 1.074 2.208 0 1.549-1.26 2.81-2.809 2.81z" class="--primary-fill-color"/>
    <path d="M10.425 7.043c0-.465-.378-.842-.842-.842H8.367v1.683h1.216c.464 0 .842-.377.842-.841z" class="--primary-fill-color"/>
</svg>
