<svg xmlns="http://www.w3.org/2000/svg" width="30" height="30" fill="none" viewBox="-6 0 30 19">
    <path fill-rule="evenodd" d="M3.393 5.659l2.049 2.048 3.61-3.61 3.61 3.61 2.049-2.048L9.052 0 3.393 5.659zm0 6.827l2.049-2.048 3.61 3.61 3.61-3.61 2.049 2.048-5.659 5.66-5.659-5.66zM2.048 6.972L0 9.021l2.048 2.048L4.096 9.02 2.048 6.972zm5.048 2.049l2.049-2.049 2.048 2.049-2.048 2.048L7.096 9.02zm8.856-2.049l-2.048 2.049 2.048 2.048L18 9.02l-2.048-2.049z" clip-rule="evenodd" class="--primary-fill-color"/>
</svg>
