<svg width="30" height="30" viewBox="0 0 30 30" fill="none" xmlns="http://www.w3.org/2000/svg">
<g clip-path="url(#clip0)">
<path fill-rule="evenodd" clip-rule="evenodd" d="M20.1004 9.5C20.6481 9.5 21.1638 9.80489 21.3866 10.3061L21.3895 10.3126L22.599 12.9332L22.606 12.9472C22.8315 13.3983 22.9004 13.7436 22.9004 14.2V17.1C22.9004 17.6477 22.4481 18.1 21.9004 18.1H15.0004C14.4481 18.1 14.0004 18.5477 14.0004 19.1C14.0004 19.6523 14.4481 20.1 15.0004 20.1H21.9004C23.5527 20.1 24.9004 18.7523 24.9004 17.1V14.2C24.9004 13.4612 24.771 12.8102 24.4021 12.0674L23.2111 9.48682C22.6323 8.1926 21.3504 7.5 20.1004 7.5H16.4004C15.569 7.5 14.7102 7.78252 14.0052 8.481L10.7392 11.5491C10.2746 11.9278 9.55978 12.2385 9.05897 12.3101L9.04275 12.3124L7.34818 12.6114C5.98065 12.7984 5.10039 14.0925 5.10039 15.3V17.6C5.10039 19.0523 6.24811 20.2 7.70039 20.2H11.4004C11.9527 20.2 12.4004 19.7523 12.4004 19.2C12.4004 18.6477 11.9527 18.2 11.4004 18.2H7.70039C7.35268 18.2 7.10039 17.9477 7.10039 17.6V15.3C7.10039 14.9158 7.40803 14.6193 7.62443 14.5923L7.64939 14.5892L9.35928 14.2874C10.2473 14.1563 11.3092 13.6777 12.0406 13.0682L12.0634 13.0492L15.3965 9.91815L15.4075 9.90711C15.7003 9.61428 16.0365 9.5 16.4004 9.5H20.1004Z" class="--primary-fill-color"/>
<path d="M20.4004 21.2C19.2958 21.2 18.4004 20.3045 18.4004 19.2C18.4004 18.0954 19.2958 17.2 20.4004 17.2C21.505 17.2 22.4004 18.0954 22.4004 19.2C22.4004 20.3045 21.505 21.2 20.4004 21.2Z" class="--secondary-fill-color"/>
<path fill-rule="evenodd" clip-rule="evenodd" d="M20.4004 18.2C20.9527 18.2 21.4004 18.6477 21.4004 19.2C21.4004 19.7522 20.9527 20.2 20.4004 20.2C19.8481 20.2 19.4004 19.7522 19.4004 19.2C19.4004 18.6477 19.8481 18.2 20.4004 18.2ZM23.4004 19.2C23.4004 17.5431 22.0572 16.2 20.4004 16.2C18.7435 16.2 17.4004 17.5431 17.4004 19.2C17.4004 20.8568 18.7435 22.2 20.4004 22.2C22.0572 22.2 23.4004 20.8568 23.4004 19.2Z" class="--primary-fill-color"/>
<path d="M9.59961 21.2C8.49504 21.2 7.59961 20.3045 7.59961 19.2C7.59961 18.0954 8.49504 17.2 9.59961 17.2C10.7042 17.2 11.5996 18.0954 11.5996 19.2C11.5996 20.3045 10.7042 21.2 9.59961 21.2Z" class="--secondary-fill-color"/>
<path fill-rule="evenodd" clip-rule="evenodd" d="M9.59961 18.2C10.1519 18.2 10.5996 18.6477 10.5996 19.2C10.5996 19.7522 10.1519 20.2 9.59961 20.2C9.04732 20.2 8.59961 19.7522 8.59961 19.2C8.59961 18.6477 9.04732 18.2 9.59961 18.2ZM12.5996 19.2C12.5996 17.5431 11.2565 16.2 9.59961 16.2C7.94276 16.2 6.59961 17.5431 6.59961 19.2C6.59961 20.8568 7.94276 22.2 9.59961 22.2C11.2565 22.2 12.5996 20.8568 12.5996 19.2Z" class="--primary-fill-color"/>
</g>
<defs>
<clipPath id="clip0">
<path d="M30 0H0V30H30V0Z" fill="white"/>
</clipPath>
</defs>
</svg>
