<svg width="30" height="30" viewBox="0 0 30 30" xmlns="http://www.w3.org/2000/svg">
<path d="M17.4 13.9C18.2285 13.9 18.9 13.2285 18.9 12.4C18.9 11.5716 18.2285 10.9 17.4 10.9C16.5716 10.9 15.9 11.5716 15.9 12.4C15.9 13.2285 16.5716 13.9 17.4 13.9Z" class="--secondary-fill-color"/>
<path d="M16.4 17.6001C16.6 17.7001 16.9 17.8001 17.1 17.9001C18 18.3001 19.1 18.0001 19.8 17.3001L22.3 14.8001C23 14.1001 23.2 13.0001 22.9 12.1001C22.6 11.2001 22 10.0001 20.9 9.00006C19.9 8.00006 18.7 7.40006 17.8 7.10006C16.9 6.70006 15.8 7.00006 15.1 7.70006L12.6 10.1001C11.9 10.8001 11.7 11.9001 12.1 12.9001C12.2 13.2001 12.4 13.5001 12.5 13.8001L7.1 19.2001C7.1 19.3001 7 19.5001 7 19.6001V22.4001C7 22.7001 7.3 23.0001 7.6 23.0001H10.4C10.7 23.0001 11 22.7001 11 22.4001V21.3001H12.8V19.5001H14" class="--primary-stroke-color" fill="none" stroke-width="2" stroke-miterlimit="10" stroke-linecap="round" stroke-linejoin="round"/>
</svg>
