<svg width="30" height="30" viewBox="0 0 30 30" fill="none" xmlns="http://www.w3.org/2000/svg">
<path fill-rule="evenodd" clip-rule="evenodd" d="M10.7569 9.34319C10.3664 8.95266 9.73322 8.95266 9.3427 9.34319C8.95217 9.73371 8.95217 10.3669 9.3427 10.7574L13.5854 15.0001L9.34285 19.2427C8.95232 19.6332 8.95232 20.2664 9.34285 20.6569C9.73337 21.0474 10.3665 21.0474 10.7571 20.6569L14.9996 16.4143L19.2422 20.6569C19.6327 21.0474 20.2659 21.0474 20.6564 20.6569C21.0469 20.2664 21.0469 19.6332 20.6564 19.2427L16.4138 15.0001L20.6566 10.7574C21.0471 10.3669 21.0471 9.73372 20.6566 9.3432C20.266 8.95267 19.6329 8.95267 19.2423 9.3432L14.9996 13.5859L10.7569 9.34319Z" class="--primary-fill-color"/>
</svg>
