<svg width="30" height="30" viewBox="0 0 30 30" fill="none" xmlns="http://www.w3.org/2000/svg">
<path fill-rule="evenodd" clip-rule="evenodd" d="M16.2002 5.69995C16.7525 5.69995 17.2002 6.14767 17.2002 6.69995V10.2C17.2002 10.7522 16.7525 11.2 16.2002 11.2C15.6479 11.2 15.2002 10.7522 15.2002 10.2V6.69995C15.2002 6.14767 15.6479 5.69995 16.2002 5.69995Z" class="--secondary-fill-color"/>
<path fill-rule="evenodd" clip-rule="evenodd" d="M11.5 7.69995V10.2C11.5 10.7522 11.0523 11.2 10.5 11.2C9.94772 11.2 9.5 10.7522 9.5 10.2V7.69995C9.5 7.1727 9.68011 6.65562 10.0679 6.26784C10.4557 5.88007 10.9728 5.69995 11.5 5.69995H18.5C19.0272 5.69995 19.5443 5.88007 19.9321 6.26784C20.3199 6.65562 20.5 7.1727 20.5 7.69995V13.7C20.5 14.2522 20.0523 14.7 19.5 14.7H10.5C9.94772 14.7 9.5 14.2522 9.5 13.7C9.5 13.1477 9.94772 12.7 10.5 12.7H18.5V7.69995H11.5Z" class="--primary-fill-color"/>
<path fill-rule="evenodd" clip-rule="evenodd" d="M13.0152 17.5276C13.0989 17.0491 13.5145 16.7 14.0002 16.7H16.0002C16.486 16.7 16.9015 17.0491 16.9853 17.5276L17.6853 21.5276C17.6895 21.5517 17.6928 21.576 17.6953 21.6004C17.8459 23.1069 16.6715 24.7 15.0002 24.7C13.3564 24.7 12.1563 23.238 12.3043 21.6094C12.3068 21.582 12.3105 21.5547 12.3152 21.5276L13.0152 17.5276ZM14.8404 18.7L14.2935 21.8253C14.2605 22.3756 14.6514 22.7 15.0002 22.7C15.3225 22.7 15.7377 22.309 15.7076 21.8288L15.16 18.7H14.8404Z" class="--primary-fill-color"/>
<path fill-rule="evenodd" clip-rule="evenodd" d="M8 13.7C8 13.1477 8.44772 12.7 9 12.7H21C21.5523 12.7 22 13.1477 22 13.7V15.7C22 17.3522 20.6523 18.7 19 18.7H11C9.34771 18.7 8 17.3522 8 15.7V13.7ZM10 14.7V15.7C10 16.2477 10.4523 16.7 11 16.7H19C19.5477 16.7 20 16.2477 20 15.7V14.7H10Z" class="--primary-fill-color"/>
</svg>
