<svg width="30" height="30" viewBox="0 0 30 30" fill="none" xmlns="http://www.w3.org/2000/svg">
<path fill-rule="evenodd" clip-rule="evenodd" d="M16 12H11C10.4477 12 10 12.4477 10 13V21C10 21.5523 10.4477 22 11 22H16C16.5523 22 17 21.5523 17 21V13C17 12.4477 16.5523 12 16 12ZM11 10C9.34315 10 8 11.3431 8 13V21C8 22.6569 9.34315 24 11 24H16C17.6569 24 19 22.6569 19 21V13C19 11.3431 17.6569 10 16 10H11Z" class="--primary-fill-color"/>
<path fill-rule="evenodd" clip-rule="evenodd" d="M12 7C12 6.44772 12.4477 6 13 6H20C21.6569 6 23 7.34315 23 9V19C23 19.5523 22.5523 20 22 20C21.4477 20 21 19.5523 21 19V9C21 8.44772 20.5523 8 20 8H13C12.4477 8 12 7.55228 12 7Z" class="--primary-fill-color"/>
</svg>
