<svg width="30" height="30" viewBox="0 0 30 30" xmlns="http://www.w3.org/2000/svg">
<path d="M22.9 15.1C22.9 19.5 19.3 23.1 14.9 23.1C11.2 23.1 8.09995 20.6 7.19995 17.2C8.49995 18.6 10.3 19.4 12.4 19.4C16.4 19.4 19.6 16.2 19.6 12.2C19.6 10.4 19 8.79998 17.9 7.59998C20.8 8.79998 22.9 11.7 22.9 15.1Z" class="--primary-stroke-color" fill="none" stroke-width="2" stroke-miterlimit="10" stroke-linecap="round" stroke-linejoin="round"/>
<path d="M12.5 7C13.3284 7 14 6.32843 14 5.5C14 4.67157 13.3284 4 12.5 4C11.6716 4 11 4.67157 11 5.5C11 6.32843 11.6716 7 12.5 7Z" class="--secondary-fill-color"/>
<path d="M9.5 14C10.3284 14 11 13.3284 11 12.5C11 11.6716 10.3284 11 9.5 11C8.67157 11 8 11.6716 8 12.5C8 13.3284 8.67157 14 9.5 14Z" class="--secondary-fill-color"/>
</svg>
