<svg width="30" height="30" viewBox="0 0 30 30" fill="none" xmlns="http://www.w3.org/2000/svg">
<path d="M23 21L22 20L23.1 18.9C23.5 18.5 23.5 17.9 23.1 17.5C22.7 17.1 22.1 17.1 21.7 17.5L20.6 18.6L19.5 17.5C19.1 17.1 18.5 17.1 18.1 17.5C17.7 17.9 17.7 18.5 18.1 18.9L19.2 20L18.1 21C17.7 21.4 17.7 22 18.1 22.4C18.5 22.8 19.1 22.8 19.5 22.4L20.6 21.3L21.7 22.4C22.1 22.8 22.7 22.8 23.1 22.4C23.4 22 23.4 21.4 23 21Z" class="--secondary-fill-color"/>
<path fill-rule="evenodd" clip-rule="evenodd" d="M16 22.5001C16 23.0001 15.5 23.5001 15 23.5001H8.50005C7.40005 23.5001 6.30005 22.6001 6.30005 21.3001V20.7001C6.30005 18.8001 7.20005 17.2001 8.50005 16.1001C8.90005 15.8001 9.50005 15.8001 9.90005 16.2001C10.3 16.6001 10.2 17.2001 9.80005 17.6001C8.90005 18.3001 8.40005 19.4001 8.40005 20.6001V21.0587C8.40005 21.1492 8.43602 21.236 8.50005 21.3001V21.3001C8.56408 21.3641 8.65092 21.4001 8.74147 21.4001H15C15.5 21.5001 16 21.9001 16 22.5001Z" class="--primary-fill-color"/>
<path fill-rule="evenodd" clip-rule="evenodd" d="M14.8999 8.5001C13.1999 8.5001 11.8999 9.8001 11.8999 11.5001C11.8999 13.2001 13.1999 14.5001 14.8999 14.5001C16.5999 14.5001 17.8999 13.2001 17.8999 11.5001C17.8999 9.9001 16.5999 8.5001 14.8999 8.5001ZM9.8999 11.6001C9.8999 8.8001 12.0999 6.6001 14.8999 6.6001C17.6999 6.6001 19.8999 8.8001 19.8999 11.6001C19.8999 14.4001 17.6999 16.6001 14.8999 16.6001C12.0999 16.6001 9.8999 14.3001 9.8999 11.6001Z" class="--primary-fill-color"/>
</svg>
