<svg width="30" height="30" viewBox="0 0 30 30" fill="none" xmlns="http://www.w3.org/2000/svg">
<path fill-rule="evenodd" clip-rule="evenodd" d="M14.4918 6.53868C14.7965 6.35883 15.1737 6.35345 15.4834 6.52452L22.1834 10.2245C22.5003 10.3995 22.6979 10.7321 22.7 11.0941C22.7021 11.456 22.5084 11.7909 22.1936 11.9696L18.4936 14.0696C18.0133 14.3422 17.4029 14.1738 17.1303 13.6935C16.8577 13.2132 17.0261 12.6028 17.5064 12.3302L19.653 11.1118L16 9.09449V18.9999C16 19.5522 15.5523 19.9999 15 19.9999C14.4477 19.9999 14 19.5522 14 18.9999V7.3999C14 7.04604 14.187 6.71852 14.4918 6.53868Z" class="--primary-fill-color"/>
<path fill-rule="evenodd" clip-rule="evenodd" d="M15 20C14.4477 20 14 20.4477 14 21C14 21.5523 14.4477 22 15 22C15.5523 22 16 21.5523 16 21C16 20.4477 15.5523 20 15 20ZM12 21C12 19.3431 13.3431 18 15 18C16.6569 18 18 19.3431 18 21C18 22.6569 16.6569 24 15 24C13.3431 24 12 22.6569 12 21Z" class="--primary-fill-color"/>
<path d="M8.5 22.5C9.32843 22.5 10 21.8284 10 21C10 20.1716 9.32843 19.5 8.5 19.5C7.67157 19.5 7 20.1716 7 21C7 21.8284 7.67157 22.5 8.5 22.5Z" class="--secondary-fill-color"/>
<path d="M21.5 22.5C22.3284 22.5 23 21.8284 23 21C23 20.1716 22.3284 19.5 21.5 19.5C20.6716 19.5 20 20.1716 20 21C20 21.8284 20.6716 22.5 21.5 22.5Z" class="--secondary-fill-color"/>
</svg>
