<svg width="30" height="30" viewBox="0 0 30 30" fill="none" xmlns="http://www.w3.org/2000/svg">
<path fill-rule="evenodd" clip-rule="evenodd" d="M8.5 12.5C8.25228 12.5 8 12.7523 8 13V21.7C8 21.9477 8.25228 22.2 8.5 22.2H21.5C21.7477 22.2 22 21.9477 22 21.7V13C22 12.7523 21.7477 12.5 21.5 12.5H17.4C16.8477 12.5 16.4 12.0523 16.4 11.5C16.4 10.9477 16.8477 10.5 17.4 10.5H21.5C22.8523 10.5 24 11.6477 24 13V21.7C24 23.0523 22.8523 24.2 21.5 24.2H8.5C7.14772 24.2 6 23.0523 6 21.7V13C6 11.6477 7.14772 10.5 8.5 10.5H9.8C10.3523 10.5 10.8 10.9477 10.8 11.5C10.8 12.0523 10.3523 12.5 9.8 12.5H8.5Z" class="--primary-fill-color"/>
<path fill-rule="evenodd" clip-rule="evenodd" d="M9.19995 16.3C9.19995 15.7478 9.64767 15.3 10.2 15.3H13.2C13.7522 15.3 14.2 15.7478 14.2 16.3C14.2 16.8523 13.7522 17.3 13.2 17.3H10.2C9.64767 17.3 9.19995 16.8523 9.19995 16.3Z" class="--secondary-fill-color"/>
<path fill-rule="evenodd" clip-rule="evenodd" d="M9.19995 19.4C9.19995 18.8477 9.64767 18.4 10.2 18.4H15.2C15.7522 18.4 16.2 18.8477 16.2 19.4C16.2 19.9523 15.7522 20.4 15.2 20.4H10.2C9.64767 20.4 9.19995 19.9523 9.19995 19.4Z" class="--secondary-fill-color"/>
<path d="M18.5 18C19.3284 18 20 17.3284 20 16.5C20 15.6716 19.3284 15 18.5 15C17.6716 15 17 15.6716 17 16.5C17 17.3284 17.6716 18 18.5 18Z" class="--primary-fill-color"/>
<path fill-rule="evenodd" clip-rule="evenodd" d="M15.2 7.30005C14.7523 7.30005 14.4 7.65233 14.4 8.10005V12C14.4 12.4478 14.7523 12.8 15.2 12.8C15.7523 12.8 16.2 13.2478 16.2 13.8C16.2 14.3523 15.7523 14.8 15.2 14.8C13.6477 14.8 12.4 13.5523 12.4 12V8.10005C12.4 6.54776 13.6477 5.30005 15.2 5.30005C16.7523 5.30005 18 6.54776 18 8.10005V8.60005C18 9.15233 17.5523 9.60005 17 9.60005C16.4477 9.60005 16 9.15233 16 8.60005V8.10005C16 7.65233 15.6477 7.30005 15.2 7.30005Z" class="--primary-fill-color"/>
</svg>
