<svg width="30" height="30" viewBox="0 0 30 30" fill="none" xmlns="http://www.w3.org/2000/svg">
<path fill-rule="evenodd" clip-rule="evenodd" d="M19.8962 9.61796L11.5071 18.0071C11.1165 18.3976 10.4834 18.3976 10.0928 18.0071C9.70232 17.6166 9.70232 16.9834 10.0928 16.5929L18.4928 8.19287C18.9228 7.7629 19.5015 7.59998 20 7.59998C20.4984 7.59998 21.0771 7.7629 21.5071 8.19287L23.9071 10.5929C24.337 11.0228 24.5 11.6015 24.5 12.1C24.5 12.5985 24.337 13.1771 23.9071 13.6071L15.5071 22.0071C15.3195 22.1946 15.0652 22.3 14.8 22.3H6.69995C6.14767 22.3 5.69995 21.8523 5.69995 21.3C5.69995 20.7477 6.14767 20.3 6.69995 20.3H14.3857L22.482 12.2037C22.4829 12.2017 22.4839 12.1991 22.4852 12.1957C22.4927 12.175 22.5 12.1414 22.5 12.1C22.5 12.0586 22.4927 12.0249 22.4852 12.0042C22.4839 12.0009 22.4829 11.9982 22.482 11.9962L20.1037 9.61796C20.1017 9.61707 20.0991 9.61598 20.0957 9.61477C20.075 9.60723 20.0414 9.59998 20 9.59998C19.9585 9.59998 19.9249 9.60723 19.9042 9.61477C19.9009 9.61598 19.8982 9.61707 19.8962 9.61796Z" class="--primary-fill-color"/>
</svg>
