<svg width="30" height="30" viewBox="0 0 30 30" fill="none" xmlns="http://www.w3.org/2000/svg">
<path fill-rule="evenodd" clip-rule="evenodd" d="M13.5 6.30005C12.9477 6.30005 12.5 6.74776 12.5 7.30005C12.5 7.85233 12.9477 8.30005 13.5 8.30005H13.8994V11.1C13.8994 11.6523 14.3471 12.1 14.8994 12.1C15.4517 12.1 15.8994 11.6523 15.8994 11.1V8.30005H16.3C16.8523 8.30005 17.3 7.85233 17.3 7.30005C17.3 6.74776 16.8523 6.30005 16.3 6.30005H13.5Z" class="--secondary-fill-color"/>
<path fill-rule="evenodd" clip-rule="evenodd" d="M24.8994 16.6001C24.8994 16.0478 24.4517 15.6001 23.8994 15.6001C23.3471 15.6001 22.8994 16.0478 22.8994 16.6001V16.9001H20.0996C19.5473 16.9001 19.0996 17.3479 19.0996 17.9001C19.0996 18.4524 19.5473 18.9001 20.0996 18.9001H22.8994V19.4001C22.8994 19.9524 23.3471 20.4001 23.8994 20.4001C24.4517 20.4001 24.8994 19.9524 24.8994 19.4001V16.6001Z" class="--primary-fill-color"/>
<path fill-rule="evenodd" clip-rule="evenodd" d="M7.09961 14.8C7.09961 14.2478 6.65189 13.8 6.09961 13.8C5.54732 13.8 5.09961 14.2478 5.09961 14.8V17.6C5.09961 18.1523 5.54732 18.6 6.09961 18.6C6.65189 18.6 7.09961 18.1523 7.09961 17.6V17.4001H9.89961C10.4519 17.4001 10.8996 16.9524 10.8996 16.4001C10.8996 15.8479 10.4519 15.4001 9.89961 15.4001H7.09961V14.8Z" class="--primary-fill-color"/>
<path fill-rule="evenodd" clip-rule="evenodd" d="M11.8994 12.1001C11.3517 12.1001 10.8994 12.5524 10.8994 13.1001V18.7001H11.8994C12.2338 18.7001 12.546 18.8672 12.7315 19.1454L14.1315 21.2454C14.3373 21.5541 14.6177 21.7001 14.9994 21.7001H18.0994C18.6471 21.7001 19.0994 21.2478 19.0994 20.7001V17.9001C19.0994 17.3478 19.5471 16.9001 20.0994 16.9001C20.6517 16.9001 21.0994 17.3478 21.0994 17.9001V20.7001C21.0994 22.3524 19.7517 23.7001 18.0994 23.7001H14.9994C13.9811 23.7001 13.0616 23.2461 12.4674 22.3548L11.3642 20.7001H10.8994C10.3722 20.7001 9.85509 20.52 9.46731 20.1322C9.07953 19.7444 8.89941 19.2273 8.89941 18.7001V13.1001C8.89941 11.4478 10.2471 10.1001 11.8994 10.1001H18.0994C18.6517 10.1001 19.0994 10.5478 19.0994 11.1001V13.1001C19.0994 13.6524 18.6517 14.1001 18.0994 14.1001C17.5471 14.1001 17.0994 13.6524 17.0994 13.1001V12.1001H11.8994Z" class="--primary-fill-color"/>
</svg>
