<svg xmlns="http://www.w3.org/2000/svg" width="30" height="30" fill="none" viewBox="0 0 30 30">
    <path fill="#000" d="M24.4 15c-.6-.7-1.3-1.4-2-2-.4-.4-1-.3-1.4.1-.4.4-.3 1 .1 1.4.4.3.8.7 1.2 1.1-2.5 2.6-5 4-7.5 4-.6 0-1 .4-1 1s.4 1 1 1c3.3 0 6.5-1.8 9.6-5.3.3-.4.3-.9 0-1.3zM11.4 18.8c-1.8-.9-3.2-2.3-3.9-3.1 1.4-1.5 5.7-5.4 10.9-2.9.5.2 1.1 0 1.3-.5.2-.5 0-1.1-.5-1.3-7.8-3.7-13.8 4-13.8 4.1-.3.3-.3.8 0 1.2.1.1 2 2.9 5.1 4.4.1.1.3.1.4.1.4 0 .7-.2.9-.6.3-.5.1-1.1-.4-1.4z" class="--primary-fill-color" />
    <path fill="#000" d="M14.9 17.9c1.16 0 2.1-.94 2.1-2.1 0-1.16-.94-2.1-2.1-2.1-1.16 0-2.1.94-2.1 2.1 0 1.16.94 2.1 2.1 2.1z" class="--primary-fill-color"/>
</svg>
