<svg width="30" height="30" viewBox="0 0 30 30" fill="none" xmlns="http://www.w3.org/2000/svg">
<path d="M19 8.32083H19.7C19.8657 8.32083 20 8.18652 20 8.02083V5.40239C20 5.2525 19.8895 5.12608 19.7403 5.11121C19.2657 5.06388 18.3614 5 17.3402 5C12.3246 5 13.1047 10.7705 13.0276 12.266C13.0204 12.4046 12.9022 12.5 12.7635 12.5H10.3C10.1343 12.5 10 12.6343 10 12.8V15.7C10 15.8657 10.1343 16 10.3 16H12.7C12.8657 16 13 16.1343 13 16.3V24.7C13 24.8657 13.1343 25 13.3 25H16.7C16.8657 25 17 24.8657 17 24.7V16.3C17 16.1343 17.1343 16 17.3 16H19.2398C19.3891 16 19.5157 15.8902 19.5368 15.7424L19.9511 12.8424C19.9769 12.6617 19.8367 12.5 19.6541 12.5H17.3206C17.1471 12.5 17.0099 12.3528 17.0178 12.1794C17.1168 9.98291 16.7644 8.32083 19 8.32083Z" class="--primary-fill-color"/>
</svg>
