<svg width="30" height="30" viewBox="0 0 30 30" fill="none" xmlns="http://www.w3.org/2000/svg">
<path fill-rule="evenodd" clip-rule="evenodd" d="M7.59961 10.5C7.59961 9.94772 8.04732 9.5 8.59961 9.5H15.5996C16.1519 9.5 16.5996 9.94772 16.5996 10.5C16.5996 11.0523 16.1519 11.5 15.5996 11.5H8.59961C8.04732 11.5 7.59961 11.0523 7.59961 10.5Z" class="--secondary-fill-color"/>
<path fill-rule="evenodd" clip-rule="evenodd" d="M6.59961 6.8999C6.59961 6.34762 7.04732 5.8999 7.59961 5.8999H22.3996C22.9519 5.8999 23.3996 6.34762 23.3996 6.8999V10.8999C23.3996 11.1723 23.2885 11.433 23.0918 11.6216L18.1918 16.3216C17.7933 16.7039 17.1602 16.6907 16.7779 16.2921C16.3956 15.8936 16.4088 15.2605 16.8074 14.8782L21.3996 10.4734V7.8999H8.59961V10.4734L13.1918 14.8782C13.5904 15.2605 13.6036 15.8936 13.2213 16.2921C12.839 16.6907 12.206 16.7039 11.8074 16.3216L6.90738 11.6216C6.71077 11.433 6.59961 11.1723 6.59961 10.8999V6.8999Z" class="--primary-fill-color"/>
<path fill-rule="evenodd" clip-rule="evenodd" d="M12.5 14.6001C13.0523 14.6001 13.5 15.0478 13.5 15.6001V20.8499L16.5 22.5867V15.6001C16.5 15.0478 16.9477 14.6001 17.5 14.6001C18.0523 14.6001 18.5 15.0478 18.5 15.6001V23.2001C18.5 24.3982 17.2578 25.247 16.1528 24.6945C16.1346 24.6854 16.1166 24.6757 16.099 24.6655L12.3194 22.4774C11.6905 22.1448 11.5 21.5188 11.5 21.0001V15.6001C11.5 15.0478 11.9477 14.6001 12.5 14.6001ZM13.5008 21.0193C13.5007 21.0193 13.5007 21.0186 13.5005 21.0173Z" class="--primary-fill-color"/>
</svg>
