<svg width="30" height="30" viewBox="0 0 30 30" fill="none" xmlns="http://www.w3.org/2000/svg">
<path fill-rule="evenodd" clip-rule="evenodd" d="M7 15C7 10.5977 10.5977 7 15 7C19.4023 7 23 10.5977 23 15C23 17.019 22.194 18.8698 21.024 20.2999C20.6742 20.7273 20.0442 20.7904 19.6168 20.4406C19.1893 20.0909 19.1263 19.4609 19.476 19.0334C20.406 17.8968 21 16.481 21 15C21 11.7023 18.2977 9 15 9C11.7023 9 9 11.7023 9 15C9 18.2977 11.7023 21 15 21C15.5523 21 16 21.4477 16 22C16 22.5523 15.5523 23 15 23C10.5977 23 7 19.4023 7 15Z" class="--primary-fill-color"/>
<path fill-rule="evenodd" clip-rule="evenodd" d="M15 5C15.5523 5 16 5.44772 16 6V8C16 8.55228 15.5523 9 15 9C14.4477 9 14 8.55228 14 8V6C14 5.44772 14.4477 5 15 5Z" class="--primary-fill-color"/>
<path fill-rule="evenodd" clip-rule="evenodd" d="M15 21C15.5523 21 16 21.4477 16 22V24C16 24.5523 15.5523 25 15 25C14.4477 25 14 24.5523 14 24V22C14 21.4477 14.4477 21 15 21Z" class="--primary-fill-color"/>
<path fill-rule="evenodd" clip-rule="evenodd" d="M21 15C21 14.4477 21.4477 14 22 14H24C24.5523 14 25 14.4477 25 15C25 15.5523 24.5523 16 24 16H22C21.4477 16 21 15.5523 21 15Z" class="--primary-fill-color"/>
<path fill-rule="evenodd" clip-rule="evenodd" d="M5 15C5 14.4477 5.44772 14 6 14H8C8.55228 14 9 14.4477 9 15C9 15.5523 8.55228 16 8 16H6C5.44772 16 5 15.5523 5 15Z" class="--primary-fill-color"/>
<path d="M15 17C16.1046 17 17 16.1046 17 15C17 13.8954 16.1046 13 15 13C13.8954 13 13 13.8954 13 15C13 16.1046 13.8954 17 15 17Z" class="--secondary-fill-color"/>
</svg>
