<svg width="30" height="30" viewBox="0 0 30 30" fill="none" xmlns="http://www.w3.org/2000/svg">
<path d="M17.0996 11.5L19.2996 13.7" class="--primary-stroke-color" stroke-width="2" stroke-miterlimit="10" stroke-linecap="round" stroke-linejoin="round"/>
<path fill-rule="evenodd" clip-rule="evenodd" d="M15.1067 9.39299C15.4972 9.78352 15.4972 10.4167 15.1067 10.8072L14.4067 11.5072C14.1256 11.7883 13.9457 12.1065 13.886 12.4645C13.8816 12.4907 13.8762 12.5168 13.8698 12.5426L13.5698 13.7426L12.5996 13.5001L13.5698 13.7426C13.3285 14.7074 12.8427 15.5712 12.2067 16.2072L8.61382 19.8001L9.59961 20.7859L13.1925 17.193C13.9594 16.4261 14.8396 16.0629 15.6249 15.8386C15.6356 15.8355 15.6463 15.8326 15.6571 15.83L16.8571 15.53C17.3929 15.396 17.9358 15.7218 18.0698 16.2576C18.2037 16.7934 17.8779 17.3363 17.3421 17.4702L16.1588 17.7661C15.5509 17.9413 15.0362 18.1777 14.6067 18.6072L11.0067 22.2072C10.2162 22.9977 8.98303 22.9977 8.1925 22.2072L7.1925 21.2072C6.40198 20.4167 6.40198 19.1835 7.1925 18.393L10.7925 14.793C11.1565 14.4289 11.4707 13.8927 11.6295 13.2576L11.9206 12.0932C12.0678 11.2707 12.4824 10.6031 12.9925 10.093L13.6925 9.39299C14.083 9.00247 14.7162 9.00247 15.1067 9.39299Z" class="--primary-fill-color"/>
<path d="M19.2996 13.6001C19.6996 14.0001 19.6996 14.6001 19.2996 15.0001L18.5996 15.7001C18.1996 16.1001 17.6996 16.4001 17.0996 16.5001" class="--primary-stroke-color" stroke-width="2" stroke-miterlimit="10" stroke-linecap="round" stroke-linejoin="round"/>
<path d="M17.1994 8.7001C16.7994 8.3001 16.7994 7.7001 17.1994 7.3001L18.5994 5.9001C18.9994 5.5001 19.5994 5.5001 19.9994 5.9001C20.3994 6.3001 20.3994 6.9001 19.9994 7.3001L18.5994 8.7001C18.1994 9.1001 17.5994 9.1001 17.1994 8.7001Z" class="--primary-fill-color"/>
<path d="M20.5998 12.1C20.1998 11.7 20.1998 11.1 20.5998 10.7L21.9998 9.3C22.3998 8.9 22.9998 8.9 23.3998 9.3C23.7998 9.7 23.7998 10.3 23.3998 10.7L21.9998 12.1C21.5998 12.5 20.9998 12.5 20.5998 12.1Z" class="--primary-fill-color"/>
</svg>
