<svg xmlns="http://www.w3.org/2000/svg" width="18" height="16" fill="none" viewBox="0 0 18 16">
    <path fill="#181C19" d="M3 16C1.402 16 .096 14.751.005 13.176L0 13V3C0 1.402 1.249.096 2.824.005L3 0h12c1.598 0 2.904 1.249 2.995 2.824L18 3v12c0 .552-.448 1-1 1-.513 0-.936-.386-.993-.883L16 15V3c0-.513-.386-.936-.883-.993L15 2H3c-.513 0-.936.386-.993.883L2 3v10l.002.036v-.103c.01-.157-.089-.292-.002-.433l2.973-4.068L11.174 16H3zm2.027-4.432L3.5 14c-.186.232-.173-.016-.448-.001l-.085-.001L3 14h3.826l-1.799-2.432z"/>
    <circle cx="11" cy="6" r="2" stroke="#181C19" stroke-width="2"/>
</svg>
