<svg width="30" height="30" viewBox="0 0 30 30" fill="none" xmlns="http://www.w3.org/2000/svg">
<path d="M14.9783 10.3006C15.779 10.3006 16.5486 10.5165 17.2051 10.925L17.9551 11.4382C18.2165 11.617 18.5681 11.5854 18.7933 11.3623L20.9807 9.19534C21.1207 9.05667 21.1915 8.86284 21.1738 8.66663C21.1561 8.47042 21.0518 8.29237 20.8894 8.18092L19.618 7.30904C19.5921 7.29133 19.5649 7.27539 19.5368 7.26156L18.3052 6.65346C18.2889 6.64536 18.2723 6.63796 18.2553 6.63126C17.1944 6.21242 16.0766 6 14.9331 6C12.5757 6 10.3521 6.90482 8.67178 8.54751C6.96548 10.2157 6.01661 12.4841 6.00022 14.9349C5.98374 17.3863 6.90231 19.6679 8.5865 21.3591C10.2576 23.0374 12.6286 24 15.0915 24C17.5283 24 19.8146 23.0539 21.3641 21.4042C22.5914 20.0975 23.3446 18.3522 23.5426 16.3569C23.5445 16.338 23.5456 16.319 23.5458 16.3001L23.5687 14.5076C23.5692 14.4705 23.5666 14.4335 23.5608 14.3969L23.4647 13.7843C23.4144 13.4628 23.1373 13.2258 22.812 13.2258H15.1759C14.8108 13.2258 14.5151 13.5217 14.5151 13.8866V16.5281C14.5151 16.893 14.8108 17.1889 15.1759 17.1889H19.0688C18.8904 17.58 18.6092 17.9924 18.2537 18.3767C17.4783 19.2153 16.322 19.6962 15.0811 19.6962C13.8139 19.6962 12.6004 19.1997 11.7517 18.334C9.98505 16.5324 10.0053 13.3934 11.7948 11.6165C12.6372 10.7803 13.7976 10.3006 14.9783 10.3006Z" class="--primary-fill-color"/>
</svg>
