<svg width="30" height="30" viewBox="0 0 30 30" fill="none" xmlns="http://www.w3.org/2000/svg">
<path fill-rule="evenodd" clip-rule="evenodd" d="M8.38947 8.49613C8.77832 8.10393 9.41148 8.10122 9.80367 8.49006L21.5037 20.0901C21.8959 20.4789 21.8986 21.1121 21.5097 21.5043C21.1209 21.8965 20.4877 21.8992 20.0955 21.5103L8.39554 9.91033C8.00335 9.52149 8.00063 8.88833 8.38947 8.49613Z" fill="#00B559"/>
<path fill-rule="evenodd" clip-rule="evenodd" d="M6.2679 11.6392C7.61074 8.1702 10.9704 5.7002 14.9005 5.7002C20.0368 5.7002 24.2005 9.73213 24.2005 14.9002C24.2005 20.0525 20.0527 24.2002 14.9005 24.2002C11.0907 24.2002 7.83688 21.9531 6.38291 18.5978C6.16332 18.0911 6.39611 17.5022 6.90286 17.2826C7.40961 17.063 7.99843 17.2958 8.21802 17.8026C9.36405 20.4473 11.9102 22.2002 14.9005 22.2002C18.9482 22.2002 22.2005 18.9479 22.2005 14.9002C22.2005 10.8683 18.9641 7.7002 14.9005 7.7002C11.8305 7.7002 9.19019 9.63019 8.13303 12.3612C7.93366 12.8762 7.35451 13.1321 6.83947 12.9328C6.32443 12.7334 6.06852 12.1542 6.2679 11.6392Z" fill="#00B559"/>
</svg>
