<svg width="30" height="30" viewBox="0 0 30 30" fill="none" xmlns="http://www.w3.org/2000/svg">
<path d="M10.5 12.9996C10.8 12.7996 11.1 12.5996 11.4 12.3996L14.7 9.29961C15.2 8.79961 15.8 8.59961 16.4 8.59961H20.1C21 8.59961 21.9 9.09961 22.3 9.99961L23.5 12.5996C23.8 13.1996 23.9 13.6996 23.9 14.2996V17.1996C23.9 18.2996 23 19.1996 21.9 19.1996H12" stroke="#00B559" stroke-width="2" stroke-miterlimit="10" stroke-linecap="round"/>
<path d="M7.90039 11.4004L9.30039 12.4004C9.60039 12.6004 10.1004 12.9004 10.5004 13.0004" stroke="#00B559" stroke-width="2" stroke-miterlimit="10" stroke-linecap="round"/>
<path d="M20.4004 21.4004C21.505 21.4004 22.4004 20.505 22.4004 19.4004C22.4004 18.2958 21.505 17.4004 20.4004 17.4004C19.2958 17.4004 18.4004 18.2958 18.4004 19.4004C18.4004 20.505 19.2958 21.4004 20.4004 21.4004Z" fill="#CAF1DD" stroke="#00B559" stroke-width="2" stroke-miterlimit="10"/>
<path d="M9.59961 21.4004C10.7042 21.4004 11.5996 20.505 11.5996 19.4004C11.5996 18.2958 10.7042 17.4004 9.59961 17.4004C8.49504 17.4004 7.59961 18.2958 7.59961 19.4004C7.59961 20.505 8.49504 21.4004 9.59961 21.4004Z" fill="#CAF1DD" stroke="#00B559" stroke-width="2" stroke-miterlimit="10"/>
</svg>
