<svg width="30" height="30" viewBox="0 0 30 30" fill="none" xmlns="http://www.w3.org/2000/svg">
<path fill-rule="evenodd" clip-rule="evenodd" d="M22.1067 10.107C22.4972 9.71648 22.4972 9.08332 22.1067 8.6928C21.7162 8.30227 21.083 8.30227 20.6925 8.6928L18.7453 10.64C14.9868 9.11299 11.694 10.1573 9.37933 11.5718C8.168 12.312 7.20593 13.1617 6.54815 13.8228C6.21804 14.1546 5.96134 14.4421 5.78498 14.6496C5.69671 14.7534 5.62835 14.8375 5.58074 14.8973C5.55693 14.9272 5.53829 14.9511 5.52493 14.9684L5.50886 14.9894L5.50382 14.996L5.50205 14.9984L5.50135 14.9993C5.50106 14.9997 5.50078 15 6.30074 15.6L5.50078 15C5.24639 15.3392 5.23355 15.802 5.46873 16.1547L6.30071 15.6001C5.46873 16.1547 5.46888 16.155 5.46904 16.1552L5.46939 16.1557L5.47022 16.157L5.47237 16.1602L5.47869 16.1695L5.49932 16.1996C5.51661 16.2246 5.54095 16.2593 5.57222 16.3028C5.63471 16.3896 5.72501 16.5117 5.84197 16.6608C6.07556 16.9587 6.41731 17.3673 6.8582 17.8215C7.50323 18.4861 8.37629 19.2649 9.44906 19.9362L7.8925 21.4928C7.50198 21.8833 7.50198 22.5165 7.8925 22.907C8.28303 23.2975 8.91619 23.2975 9.30672 22.907L11.7728 20.441C11.7968 20.4192 11.8198 20.3962 11.8418 20.3719L22.1067 10.107ZM10.908 18.4773L17.1772 12.2081C14.5211 11.428 12.2044 12.1892 10.4222 13.2783C9.38356 13.9131 8.54563 14.6508 7.96592 15.2335C7.82099 15.3791 7.69301 15.5143 7.58288 15.6347C7.76738 15.859 8.00557 16.1321 8.29336 16.4286C8.94631 17.1013 9.83371 17.8731 10.908 18.4773ZM21.0322 13.1599C21.3857 12.7356 22.0163 12.6783 22.4406 13.0319C23.0903 13.5733 23.8296 14.3142 24.4596 15.0493C24.7785 15.4213 24.7809 15.9695 24.4653 16.3442C21.1198 20.317 17.7581 21.7001 14.9004 21.7001C14.3481 21.7001 13.9004 21.2524 13.9004 20.7001C13.9004 20.1478 14.3481 19.7001 14.9004 19.7001C16.908 19.7001 19.5268 18.807 22.3621 15.7095C21.9523 15.2777 21.5312 14.8774 21.1602 14.5683C20.7359 14.2147 20.6786 13.5842 21.0322 13.1599Z" class="--primary-fill-color"/>
</svg>
