<svg width="30" height="30" viewBox="0 0 30 30" fill="none" xmlns="http://www.w3.org/2000/svg">
<path fill-rule="evenodd" clip-rule="evenodd" d="M15.0262 5.97631C20.0488 5.99126 24.0379 10.0042 24.0229 15.0268C24.008 20.0494 19.995 24.0385 14.9725 24.0236C9.94987 24.0086 5.96074 19.9957 5.9757 14.9731C5.97954 13.6818 6.24377 12.5129 6.76039 11.3598C6.98619 10.8558 7.57783 10.6302 8.08184 10.856C8.58586 11.0819 8.81139 11.6735 8.58558 12.1775C8.17907 13.0849 7.97867 13.9779 7.97569 14.979C7.96402 18.8971 11.0604 22.0119 14.9784 22.0236C18.8964 22.0352 22.0113 18.9389 22.023 15.0208C22.0346 11.1028 18.9383 7.98797 15.0202 7.9763C14.0045 7.97328 12.9971 8.17387 12.1005 8.56917C11.5951 8.79197 11.0049 8.56292 10.7821 8.05757C10.5593 7.55222 10.7883 6.96194 11.2937 6.73914C12.463 6.22359 13.7494 5.97251 15.0262 5.97631Z" class="--primary-fill-color"/>
<path d="M14 16H16C16 15.08 17.61 14.44 17.61 12.88C17.61 11.66 16.51 11 14.97 11C13.5 11 12.53 11.59 12 12.48L13.49 13.28C13.75 12.83 14.2 12.56 14.74 12.56C15.25 12.56 15.62 12.8 15.62 13.2C15.62 13.95 14 14.69 14 16Z" class="--primary-fill-color"/>
<circle cx="15" cy="18" r="1" class="--secondary-fill-color"/>
</svg>
