<svg width="30" height="30" viewBox="0 0 30 30" fill="none" xmlns="http://www.w3.org/2000/svg">
<path fill-rule="evenodd" clip-rule="evenodd" d="M10.5002 9C10.5002 8.44772 10.948 8 11.5002 8H20.8C22.4523 8 23.8 9.34772 23.8 11V18.5C23.8 20.1523 22.4523 21.5 20.8 21.5H9.80005C8.14776 21.5 6.80005 20.1523 6.80005 18.5V13C6.80005 12.4477 7.24776 12 7.80005 12C8.35233 12 8.80005 12.4477 8.80005 13V18.5C8.80005 19.0477 9.25233 19.5 9.80005 19.5H20.8C21.3478 19.5 21.8 19.0477 21.8 18.5V11C21.8 10.4523 21.3478 10 20.8 10H11.5002C10.948 10 10.5002 9.55228 10.5002 9Z" class="--primary-fill-color"/>
<path fill-rule="evenodd" clip-rule="evenodd" d="M11.2001 12.4001C11.5314 11.9582 12.1582 11.8687 12.6001 12.2001L14.5891 13.6918C14.9388 13.9361 15.4613 13.9361 15.8111 13.6918L17.8001 12.2001C18.2419 11.8687 18.8687 11.9582 19.2001 12.4001C19.5314 12.8419 19.4419 13.4687 19.0001 13.8001L17.0001 15.3001L16.9813 15.3138C15.9336 16.0621 14.4665 16.0621 13.4188 15.3138L13.4001 15.3001L11.4001 13.8001C10.9582 13.4687 10.8687 12.8419 11.2001 12.4001Z" class="--secondary-fill-color"/>
<path d="M7.7998 10C8.35209 10 8.7998 9.55228 8.7998 9C8.7998 8.44772 8.35209 8 7.7998 8C7.24752 8 6.7998 8.44772 6.7998 9C6.7998 9.55228 7.24752 10 7.7998 10Z" class="--primary-fill-color"/>
</svg>
