<svg width="30" height="30" viewBox="0 0 30 30" fill="none" xmlns="http://www.w3.org/2000/svg">
<path fill-rule="evenodd" clip-rule="evenodd" d="M18 16H7V14H18V16Z" class="--primary-fill-color"/>
<path fill-rule="evenodd" clip-rule="evenodd" d="M23 16H18V14H23V16Z" class="--secondary-fill-color"/>
<path fill-rule="evenodd" clip-rule="evenodd" d="M17.084 10.2513C17.608 10.0766 18.1743 10.3598 18.3489 10.8838C18.7852 12.1924 19.0003 13.5997 19.0003 15C19.0003 16.7237 18.6773 18.3453 18.1336 19.759C17.5957 21.1576 16.8484 22.434 16.009 23.5882C15.6842 24.0348 15.0587 24.1336 14.6121 23.8087C14.1654 23.4839 14.0667 22.8585 14.3915 22.4118C15.1522 21.3659 15.8048 20.2424 16.2669 19.041C16.7232 17.8546 17.0003 16.4762 17.0003 15C17.0003 13.8002 16.8154 12.6076 16.4516 11.5162C16.2769 10.9923 16.5601 10.4259 17.084 10.2513Z" class="--primary-fill-color"/>
<path fill-rule="evenodd" clip-rule="evenodd" d="M14.7768 6.00027L14.8 6H15.1L15.1227 6.00026C20.0529 6.11231 24 10.0436 24 15C24 19.9485 20.061 23.8872 15.2232 23.9997L15.2 24H14.8L14.7768 23.9997C9.939 23.8872 6 19.9485 6 15C6 10.0515 9.939 6.11278 14.7768 6.00027ZM14.812 8C11.0549 8.09332 8 11.1524 8 15C8 18.8476 11.0549 21.9067 14.812 22H15.188C18.9451 21.9067 22 18.8476 22 15C22 11.1601 18.9529 8.09351 15.0883 8H14.812Z" class="--primary-fill-color"/>
<path fill-rule="evenodd" clip-rule="evenodd" d="M15.3882 6.19133C15.8348 6.51617 15.9336 7.14159 15.6087 7.58824C14.8481 8.63414 14.1954 9.75765 13.7333 10.959C13.277 12.1454 13 13.5238 13 15.0001C13 16.1998 13.1849 17.3925 13.5487 18.4838C13.7233 19.0078 13.4402 19.5741 12.9162 19.7488C12.3923 19.9234 11.826 19.6402 11.6513 19.1163C11.2151 17.8077 11 16.4003 11 15.0001C11 13.2763 11.323 11.6547 11.8667 10.2411C12.4046 8.84249 13.1519 7.566 13.9913 6.4119C14.3161 5.96525 14.9415 5.8665 15.3882 6.19133Z" class="--primary-fill-color"/>
</svg>
