<svg width="30" height="30" viewBox="0 0 30 30" fill="none" xmlns="http://www.w3.org/2000/svg">
<path fill-rule="evenodd" clip-rule="evenodd" d="M13.7998 13.7C12.1521 13.7 10.7998 15.0522 10.7998 16.7V21C10.7998 21.5477 11.2521 22 11.7998 22H18.0998C18.7147 22 19.0998 21.581 19.0998 21V16.7C19.0998 15.0522 17.7475 13.7 16.0998 13.7H13.7998ZM8.7998 16.7C8.7998 13.9477 11.0475 11.7 13.7998 11.7H16.0998C18.8521 11.7 21.0998 13.9477 21.0998 16.7V21C21.0998 22.6189 19.8849 24 18.0998 24H11.7998C10.1475 24 8.7998 22.6522 8.7998 21V16.7Z" class="--primary-fill-color"/>
<path fill-rule="evenodd" clip-rule="evenodd" d="M14.6004 8.3999C13.9527 8.3999 13.4004 8.95219 13.4004 9.5999V12.5999C13.4004 13.1522 12.9527 13.5999 12.4004 13.5999C11.8481 13.5999 11.4004 13.1522 11.4004 12.5999V9.5999C11.4004 7.84762 12.8481 6.3999 14.6004 6.3999H15.2004C16.9527 6.3999 18.4004 7.84762 18.4004 9.5999C18.4004 10.1522 17.9527 10.5999 17.4004 10.5999C16.8481 10.5999 16.4004 10.1522 16.4004 9.5999C16.4004 8.95219 15.8481 8.3999 15.2004 8.3999H14.6004Z" class="--primary-fill-color"/>
<path d="M15 19.3C14.8136 19.3 14.6972 19.2401 14.6286 19.1715C14.5599 19.1029 14.5 18.9864 14.5 18.8V16.8C14.5 16.6137 14.5599 16.4972 14.6286 16.4286C14.6972 16.36 14.8136 16.3 15 16.3C15.1864 16.3 15.3028 16.36 15.3714 16.4286C15.4401 16.4972 15.5 16.6137 15.5 16.8V18.8C15.5 18.9864 15.4401 19.1029 15.3714 19.1715C15.3028 19.2401 15.1864 19.3 15 19.3Z" class="--secondary-stroke-color"/>
</svg>
