<svg width="30" height="30" viewBox="0 0 30 30" fill="none" xmlns="http://www.w3.org/2000/svg">
<path fill-rule="evenodd" clip-rule="evenodd" d="M11.9004 7C11.9004 6.44772 11.4527 6 10.9004 6H7.90039C7.34811 6 6.90039 6.44772 6.90039 7V23C6.90039 23.5523 7.34811 24 7.90039 24H14.9004C15.4527 24 15.9004 23.5523 15.9004 23C15.9004 22.4477 15.4527 22 14.9004 22H8.90039V8H10.9004C11.4527 8 11.9004 7.55228 11.9004 7Z" class="--primary-fill-color"/>
<path fill-rule="evenodd" clip-rule="evenodd" d="M17.8179 11.9043C17.4336 11.5076 16.8005 11.4976 16.4038 11.8819L13.2038 14.9819C12.9112 15.2653 12.8198 15.6979 12.9727 16.0754C13.1256 16.453 13.4923 16.7001 13.8996 16.7001H23.5996C24.1519 16.7001 24.5996 16.2524 24.5996 15.7001C24.5996 15.1478 24.1519 14.7001 23.5996 14.7001H16.3691L17.7954 13.3183C18.1921 12.9341 18.2021 12.301 17.8179 11.9043Z" class="--primary-fill-color"/>
<circle cx="15" cy="7" r="1" class="--secondary-fill-color"/>
</svg>
