<svg width="30" height="30" viewBox="0 0 30 30" fill="none" xmlns="http://www.w3.org/2000/svg">
<path fill-rule="evenodd" clip-rule="evenodd" d="M18.0996 7C18.0996 6.44772 18.5473 6 19.0996 6H22.0996C22.6519 6 23.0996 6.44772 23.0996 7V23C23.0996 23.5523 22.6519 24 22.0996 24H15.0996C14.5473 24 14.0996 23.5523 14.0996 23C14.0996 22.4477 14.5473 22 15.0996 22H21.0996V8H19.0996C18.5473 8 18.0996 7.55228 18.0996 7Z" class="--primary-fill-color"/>
<path fill-rule="evenodd" clip-rule="evenodd" d="M12.1821 11.9043C12.5664 11.5076 13.1995 11.4976 13.5962 11.8819L16.7962 14.9819C17.0888 15.2653 17.1802 15.6979 17.0273 16.0754C16.8744 16.453 16.5077 16.7001 16.1004 16.7001H6.40039C5.84811 16.7001 5.40039 16.2524 5.40039 15.7001C5.40039 15.1478 5.84811 14.7001 6.40039 14.7001H13.6309L12.2046 13.3183C11.8079 12.9341 11.7979 12.301 12.1821 11.9043Z" class="--primary-fill-color"/>
<circle r="1" transform="matrix(-1 0 0 1 15 7)" class="--secondary-fill-color"/>
</svg>
