<svg width="30" height="30" viewBox="0 0 30 30" fill="none" xmlns="http://www.w3.org/2000/svg">
<path fill-rule="evenodd" clip-rule="evenodd" d="M10.074 16.3668C10.4237 16.7942 10.3607 17.4243 9.93324 17.774C9.05004 18.4966 8.5 19.5192 8.5 20.8V21.4C8.5 21.4504 8.51811 21.4944 8.56162 21.5355C8.6133 21.5843 8.67178 21.6 8.7 21.6H21.6C21.6504 21.6 21.6944 21.5819 21.7355 21.5384C21.7843 21.4867 21.8 21.4283 21.8 21.4V20.8C21.8 20.6728 21.7841 20.5348 21.7577 20.3241L21.7552 20.3038C21.7317 20.1163 21.7 19.8632 21.7 19.6C21.7 19.0477 22.1477 18.6 22.7 18.6C23.2523 18.6 23.7 19.0477 23.7 19.6C23.7 19.7273 23.7159 19.8652 23.7423 20.076L23.7448 20.0963C23.7683 20.2837 23.8 20.5369 23.8 20.8V21.4C23.8 22.4977 22.9054 23.6 21.6 23.6H8.7C7.60234 23.6 6.5 22.7054 6.5 21.4V20.8C6.5 18.8808 7.34996 17.3035 8.66676 16.2261C9.09421 15.8763 9.72423 15.9393 10.074 16.3668Z" class="--primary-fill-color"/>
<path fill-rule="evenodd" clip-rule="evenodd" d="M15.0996 8.69995C13.4428 8.69995 12.0996 10.0431 12.0996 11.7C12.0996 13.3568 13.4428 14.7 15.0996 14.7C16.7565 14.7 18.0996 13.3568 18.0996 11.7C18.0996 10.0431 16.7565 8.69995 15.0996 8.69995ZM10.0996 11.7C10.0996 8.93853 12.3382 6.69995 15.0996 6.69995C17.861 6.69995 20.0996 8.93853 20.0996 11.7C20.0996 14.4614 17.861 16.7 15.0996 16.7C12.3382 16.7 10.0996 14.4614 10.0996 11.7Z" class="--primary-fill-color"/>
<path d="M21 18C21.5523 18 22 17.5523 22 17C22 16.4477 21.5523 16 21 16C20.4477 16 20 16.4477 20 17C20 17.5523 20.4477 18 21 18Z" class="--secondary-fill-color"/>
</svg>
