<svg width="30" height="30" viewBox="0 0 30 30" fill="none" xmlns="http://www.w3.org/2000/svg">
<g clip-path="url(#clip0)">
<path d="M22.1998 12.3C21.5998 12.3 21.1998 12.7 21.1998 13.3V21C21.1998 21.6 20.7998 22 20.1998 22H11.9998C12.0998 21.7 12.1998 21.4 12.1998 21V20.8V20.5V14V9H20.6998C21.2998 9 21.6998 8.6 21.6998 8C21.6998 7.4 21.2998 7 20.6998 7H11.6998C10.8998 7 10.1998 7.7 10.1998 8.5V13H8.99976C7.29976 13 5.99976 14.3 5.99976 16V21C5.99976 22.7 7.29976 24 8.99976 24H9.19976H11.1998H20.1998C21.8998 24 23.1998 22.7 23.1998 21V13.3C23.1998 12.8 22.7998 12.3 22.1998 12.3ZM7.99976 16.1C7.99976 15.5 8.39976 15.1 8.99976 15.1H10.1998V20.6V20.8V21C10.1998 21.6 9.79976 22 9.19976 22H8.99976C8.39976 22 7.99976 21.6 7.99976 21V16.1Z" class="--primary-fill-color"/>
<path d="M17.9998 18H14.9998C14.3998 18 13.9998 17.6 13.9998 17C13.9998 16.4 14.3998 16 14.9998 16H17.9998C18.5998 16 18.9998 16.4 18.9998 17C18.9998 17.5 18.5998 18 17.9998 18Z" class="--secondary-fill-color"/>
<path d="M16.9998 14H14.9998C14.3998 14 13.9998 13.6 13.9998 13C13.9998 12.4 14.3998 12 14.9998 12H16.9998C17.5998 12 17.9998 12.4 17.9998 13C17.9998 13.6 17.5998 14 16.9998 14Z" class="--secondary-fill-color"/>
</g>
<defs>
<clipPath id="clip0">
<path d="M0 0H30V30H0V0Z" fill="white"/>
</clipPath>
</defs>
</svg>
