<svg width="30" height="30" viewBox="0 0 30 30" fill="none" xmlns="http://www.w3.org/2000/svg">
<path d="M7.20714 11.95C6.73571 13.0107 6.5 14.0714 6.5 15.25C6.5 19.8464 10.1536 23.5 14.75 23.5C19.3464 23.5 23 19.8464 23 15.25C23 10.6536 19.3464 7 14.75 7C13.5714 7 12.3929 7.23571 11.3321 7.70714" class="--primary-fill-color" fill-opacity="0.25"/>
<path fill-rule="evenodd" clip-rule="evenodd" d="M14.75 6C19.8987 6 24 10.1013 24 15.25C24 20.3987 19.8987 24.5 14.75 24.5C9.60129 24.5 5.5 20.3987 5.5 15.25C5.5 13.9263 5.76721 12.7276 6.29333 11.5439C6.51764 11.0392 7.1086 10.8119 7.61328 11.0362C8.11797 11.2605 8.34526 11.8515 8.12095 12.3561C7.70421 13.2938 7.5 14.2165 7.5 15.25C7.5 19.2941 10.7059 22.5 14.75 22.5C18.7941 22.5 22 19.2941 22 15.25C22 11.2059 18.7941 8 14.75 8C13.7019 8 12.6628 8.21005 11.7383 8.62095C11.2336 8.84526 10.6426 8.61797 10.4183 8.11328C10.194 7.6086 10.4213 7.01764 10.926 6.79333C12.1229 6.26138 13.4409 6 14.75 6Z" class="--primary-fill-color"/>
</svg>
