<svg width="30" height="30" viewBox="0 0 30 30" fill="none" xmlns="http://www.w3.org/2000/svg">
<path fill-rule="evenodd" clip-rule="evenodd" d="M15.2002 5.30005C15.7525 5.30005 16.2002 5.74776 16.2002 6.30005V8.30005C16.2002 8.85233 15.7525 9.30005 15.2002 9.30005C14.6479 9.30005 14.2002 8.85233 14.2002 8.30005V6.30005C14.2002 5.74776 14.6479 5.30005 15.2002 5.30005Z" class="--primary-fill-color"/>
<path fill-rule="evenodd" clip-rule="evenodd" d="M15.2002 9.30005C12.8688 9.30005 11.2002 10.8325 11.2002 13V15C11.2002 16.593 10.4742 18.1402 9.4073 19.2072L9.2073 19.4072L9.2002 19.4L9.2073 19.4072C9.20474 19.4097 9.20238 19.4121 9.2002 19.4144V20H18.1002C18.6525 20 19.1002 20.4478 19.1002 21C19.1002 21.5523 18.6525 22 18.1002 22H8.2002C7.64791 22 7.2002 21.5523 7.2002 21V19.4C7.2002 19.1334 7.24582 18.8664 7.36138 18.6064C7.47501 18.3507 7.63406 18.152 7.79309 17.9929L7.99309 17.7929L8.69727 18.4971L7.99309 17.7929C8.72614 17.0599 9.2002 16.0071 9.2002 15V13C9.2002 9.56764 11.9316 7.30005 15.2002 7.30005C18.4688 7.30005 21.2002 9.56764 21.2002 13V14.9C21.2002 15.9528 21.6054 16.9694 22.3692 17.6568C22.3822 17.6685 22.3949 17.6805 22.4073 17.6929L22.6073 17.8929C22.7663 18.052 22.9254 18.2507 23.039 18.5064C23.1546 18.7664 23.2002 19.0334 23.2002 19.3V21C23.2002 21.5523 22.7525 22 22.2002 22C21.6479 22 21.2002 21.5523 21.2002 21V19.3144C21.198 19.3121 21.1957 19.3097 21.1931 19.3072L21.2002 19.3L21.1931 19.3072L21.0107 19.1248C19.7884 18.0131 19.2002 16.4387 19.2002 14.9V13C19.2002 10.8325 17.5316 9.30005 15.2002 9.30005Z" class="--primary-fill-color"/>
<path fill-rule="evenodd" clip-rule="evenodd" d="M12.7002 24C12.7002 23.4477 13.1479 23 13.7002 23H16.7002C17.2525 23 17.7002 23.4477 17.7002 24C17.7002 24.5523 17.2525 25 16.7002 25H13.7002C13.1479 25 12.7002 24.5523 12.7002 24Z" class="--secondary-fill-color"/>
</svg>
