<svg xmlns="http://www.w3.org/2000/svg" width="30" height="30" fill="none" viewBox="0 0 30 30">
    <path fill="#00B559" fill-opacity=".25" d="M7.207 11.95c-.471 1.06-.707 2.121-.707 3.3 0 4.596 3.654 8.25 8.25 8.25S23 19.846 23 15.25 19.346 7 14.75 7c-1.179 0-2.357.236-3.418.707"/>
    <path fill="#00B559" fill-rule="evenodd" d="M14.75 6C19.899 6 24 10.101 24 15.25s-4.101 9.25-9.25 9.25-9.25-4.101-9.25-9.25c0-1.324.267-2.522.793-3.706.225-.505.816-.732 1.32-.508.505.225.732.816.508 1.32-.417.938-.621 1.86-.621 2.894 0 4.044 3.206 7.25 7.25 7.25 4.044 0 7.25-3.206 7.25-7.25C22 11.206 18.794 8 14.75 8c-1.048 0-2.087.21-3.012.621-.504.224-1.095-.003-1.32-.508-.224-.504.003-1.095.508-1.32C12.123 6.261 13.441 6 14.75 6z" clip-rule="evenodd"/>
</svg>
