<svg xmlns="http://www.w3.org/2000/svg" width="30" height="30" fill="none" viewBox="0 0 30 30">
    <path fill="#181C19" stroke="#181C19" stroke-width=".35" d="M22.53 10.938c-.653-.814-1.695-1.352-2.863-1.501C19.297 7.178 17.316 6 15.412 6h-4.599c-.639 0-1.265.22-1.763.622-.498.4-.847.965-.983 1.587l-2.003 9.003c-.18.825.023 1.68.56 2.347.545.677 1.354 1.066 2.22 1.066h.765l-.025.11c-.18.798.01 1.621.52 2.26.511.639 1.273 1.005 2.091 1.005 1.24 0 2.31-.841 2.601-2.046l.464-1.916c.077-.317.358-.538.684-.538h1.173c1.701 0 3.253-.595 4.37-1.674.28-.27.288-.715.018-.994-.27-.28-.715-.287-.994-.017-.867.836-2.04 1.279-3.394 1.279h-1.174c-.976 0-1.82.663-2.05 1.613l-.464 1.916c-.138.571-.646.97-1.234.97-.388 0-.75-.173-.992-.476s-.332-.694-.247-1.073l1.117-4.954h1.465c1.145 0 2.157-.194 3.008-.576.91-.409 1.641-1.032 2.175-1.853.212-.326.12-.761-.205-.973-.326-.212-.761-.12-.973.206-.773 1.187-2.12 1.79-4.005 1.79H12.39l.625-2.77c.146-.646.71-1.098 1.372-1.098h4.88c.02 0 .04 0 .06-.002.878.073 1.651.437 2.106 1.004.494.614.63 1.46.404 2.512-.082.38.16.753.54.835.38.081.753-.16.835-.54.397-1.852-.152-3.028-.682-3.688zM14.387 9.41c-.636 0-1.26.219-1.757.616-.496.397-.847.958-.987 1.578-.039.086-1.715 7.515-1.717 7.615H8.845c-.439 0-.85-.198-1.126-.542-.268-.332-.37-.757-.281-1.163L9.44 8.512c.14-.64.718-1.106 1.373-1.106h4.599c1.173 0 2.455.632 2.813 2.004h-3.838z" class="--primary-fill-color"/>
</svg>
