<svg width="30" height="30" viewBox="0 0 30 30" fill="none" xmlns="http://www.w3.org/2000/svg">
<path fill-rule="evenodd" clip-rule="evenodd" d="M9.59961 11.7999C9.59961 8.84762 12.0473 6.3999 14.9996 6.3999C17.937 6.3999 20.3996 8.73283 20.3996 11.7999C20.3996 12.6421 20.0335 13.6111 19.6124 14.4821C19.1733 15.3903 18.5973 16.3433 18.0355 17.1988C17.4714 18.0578 16.9091 18.8372 16.4887 19.4009C16.2782 19.6831 16.1025 19.9124 15.9788 20.0719C15.9169 20.1516 15.868 20.2139 15.8343 20.2567L15.7952 20.3061L15.7847 20.3193L15.7818 20.3229L15.7809 20.324C15.7808 20.3241 15.7805 20.3246 14.9996 19.6999C14.2187 20.3246 14.2187 20.3245 14.2186 20.3244L14.2145 20.3193L14.204 20.3061L14.165 20.2567C14.1312 20.2139 14.0823 20.1516 14.0204 20.0719C13.8968 19.9124 13.721 19.6831 13.5105 19.4009C13.0902 18.8372 12.5279 18.0578 11.9637 17.1988C11.4019 16.3433 10.8259 15.3903 10.3868 14.4821C9.9657 13.6111 9.59961 12.6421 9.59961 11.7999ZM14.9996 19.6999L14.2186 20.3244C14.4083 20.5616 14.6958 20.6999 14.9996 20.6999C15.3034 20.6999 15.5912 20.5612 15.7809 20.324L14.9996 19.6999ZM14.9996 18.0515C15.3884 17.5258 15.8768 16.8424 16.3637 16.101C16.9019 15.2815 17.4259 14.4095 17.8118 13.6115C18.2157 12.7762 18.3996 12.1577 18.3996 11.7999C18.3996 9.86698 16.8622 8.3999 14.9996 8.3999C13.1519 8.3999 11.5996 9.95219 11.5996 11.7999C11.5996 12.1577 11.7835 12.7762 12.1874 13.6115C12.5733 14.4095 13.0973 15.2815 13.6355 16.101C14.1224 16.8424 14.6108 17.5258 14.9996 18.0515Z" class="--primary-fill-color"/>
<path d="M15 13.3C15.8284 13.3 16.5 12.6285 16.5 11.8C16.5 10.9716 15.8284 10.3 15 10.3C14.1716 10.3 13.5 10.9716 13.5 11.8C13.5 12.6285 14.1716 13.3 15 13.3Z" class="--primary-fill-color"/>
<path fill-rule="evenodd" clip-rule="evenodd" d="M10.9333 18.0409C11.1316 18.5564 10.8745 19.135 10.359 19.3333C9.76278 19.5626 9.38741 19.7852 9.17686 19.9723C9.07608 20.0619 9.03175 20.127 9.01368 20.1612C9.00501 20.1776 9.00178 20.1876 9.00061 20.1934C9.00909 20.2178 9.04701 20.2947 9.19443 20.4205C9.41961 20.6126 9.80554 20.8306 10.3732 21.033C11.5003 21.4347 13.1307 21.6999 15 21.6999C16.8693 21.6999 18.4997 21.4347 19.6268 21.033C20.1945 20.8306 20.5804 20.6126 20.8056 20.4205C20.9366 20.3087 20.9811 20.2356 20.9954 20.2035C20.9796 20.1714 20.9323 20.0982 20.7992 19.9842C20.5631 19.7818 20.1718 19.5548 19.6154 19.323C19.1056 19.1106 18.8645 18.5251 19.0769 18.0153C19.2893 17.5055 19.8748 17.2644 20.3846 17.4769C21.0282 17.745 21.6369 18.068 22.1008 18.4657C22.5596 18.8589 23 19.4364 23 20.1999C23 20.9506 22.5802 21.5354 22.1038 21.9419C21.6259 22.3497 20.993 22.6692 20.2982 22.9169C18.9003 23.4152 17.0307 23.6999 15 23.6999C12.9693 23.6999 11.0997 23.4152 9.70175 22.9169C9.00696 22.6692 8.37414 22.3497 7.89619 21.9419C7.41985 21.5354 7 20.9506 7 20.1999C7 19.477 7.37247 18.9003 7.84814 18.4775C8.31259 18.0647 8.93722 17.7373 9.64102 17.4666C10.1565 17.2683 10.7351 17.5255 10.9333 18.0409ZM21.0025 20.2222C21.0024 20.2222 21.0018 20.2205 21.0013 20.2173C21.0024 20.2205 21.0027 20.2222 21.0025 20.2222ZM21.0005 20.1899C21.0009 20.1865 21.0014 20.1848 21.0015 20.1848C21.0017 20.1848 21.0015 20.1865 21.0005 20.1899ZM8.99845 20.1848C8.9986 20.1848 8.9991 20.1865 8.99949 20.1899C8.9985 20.1865 8.9983 20.1848 8.99845 20.1848ZM8.99998 20.1979C8.99999 20.1986 9 20.1992 9 20.1999C9 20.1999 9 20.1998 8.99999 20.1997C8.99997 20.1994 8.99994 20.1988 8.99998 20.1979Z" class="--primary-fill-color"/>
</svg>
