<svg width="30" height="30" viewBox="0 0 30 30" fill="none" xmlns="http://www.w3.org/2000/svg">
<path fill-rule="evenodd" clip-rule="evenodd" d="M23 16C23.5523 16 24 16.4477 24 17V23C24 23.5523 23.5523 24 23 24C22.4477 24 22 23.5523 22 23V17C22 16.4477 22.4477 16 23 16Z" class="--primary-fill-color"/>
<path fill-rule="evenodd" clip-rule="evenodd" d="M13 7C13 6.44772 13.4477 6 14 6H23C23.5523 6 24 6.44772 24 7V17C24 17.5523 23.5523 18 23 18C22.4477 18 22 17.5523 22 17V8H14C13.4477 8 13 7.55228 13 7Z" class="--primary-fill-color"/>
<path fill-rule="evenodd" clip-rule="evenodd" d="M14 10C14.5523 10 15 10.4477 15 11V14C15 14.5523 14.5523 15 14 15H8V22H23C23.5523 22 24 22.4477 24 23C24 23.5523 23.5523 24 23 24H7C6.44772 24 6 23.5523 6 23V14C6 13.4477 6.44772 13 7 13H13V11C13 10.4477 13.4477 10 14 10Z" class="--primary-fill-color"/>
<path d="M18.4998 10C17.6748 10 16.9998 10.675 16.9998 11.5C16.9998 12.325 17.6748 13 18.4998 13C19.3248 13 19.9998 12.325 19.9998 11.5C19.9998 10.675 19.3248 10 18.4998 10Z" class="--secondary-fill-color"/>
<path d="M11.4998 17C10.6748 17 9.99976 17.675 9.99976 18.5C9.99976 19.325 10.6748 20 11.4998 20C12.3248 20 12.9998 19.325 12.9998 18.5C12.9998 17.675 12.3248 17 11.4998 17Z" class="--secondary-fill-color"/>
<path fill-rule="evenodd" clip-rule="evenodd" d="M16 17C16 16.4477 16.4477 16 17 16H19.5C20.0523 16 20.5 16.4477 20.5 17C20.5 17.5523 20.0523 18 19.5 18H18V23C18 23.5523 17.5523 24 17 24C16.4477 24 16 23.5523 16 23V17Z" class="--primary-fill-color"/>
</svg>
