<svg xmlns="http://www.w3.org/2000/svg" width="30" height="30" fill="none" viewBox="0 0 30 30">
    <path stroke="#181C19" stroke-linecap="round" stroke-linejoin="round" stroke-miterlimit="10" stroke-width="2" d="M16.8 10.8l.5 1c.1.2.2.3.4.3l4.9.7c.1 0 .2.1.2.1l-.2.2-3.5 3.4c-.1.1-.1.3-.1.5l.8 4.8v.3s-.1 0-.2-.1l-4.3-2.3c-.1 0-.2-.1-.2-.1-.1 0-.2 0-.2.1L10.4 22c-.1.1-.2.1-.2.1v-.3L11 17c0-.2 0-.3-.1-.5l-3.5-3.4c-.1-.1-.1-.2-.2-.2 0 0 .1-.1.2-.1l4.9-.7c.2 0 .3-.1.4-.3l2.2-4.4c0-.1.1-.2.1-.2"/>
</svg>
