<svg width="30" height="30" viewBox="0 0 30 30" fill="none" xmlns="http://www.w3.org/2000/svg">
<path fill-rule="evenodd" clip-rule="evenodd" d="M12.8008 12C12.2531 12 11.8008 12.4523 11.8008 13V13.2C11.8008 13.7477 12.2531 14.2 12.8008 14.2H14.2008C14.7531 14.2 15.2008 14.6477 15.2008 15.2C15.2008 15.7523 14.7531 16.2 14.2008 16.2H12.8008C11.1485 16.2 9.80078 14.8523 9.80078 13.2V13C9.80078 11.3477 11.1485 10 12.8008 10H15.3008C15.8531 10 16.3008 10.4477 16.3008 11C16.3008 11.5523 15.8531 12 15.3008 12H12.8008Z" class="--secondary-fill-color"/>
<path fill-rule="evenodd" clip-rule="evenodd" d="M8.80078 16.2C8.25307 16.2 7.80078 16.6522 7.80078 17.2V17.5C7.80078 18.0477 8.25307 18.5 8.80078 18.5H13.4008C13.9531 18.5 14.4008 18.9477 14.4008 19.5C14.4008 20.0522 13.9531 20.5 13.4008 20.5H8.80078C7.1485 20.5 5.80078 19.1522 5.80078 17.5V17.2C5.80078 15.5477 7.1485 14.2 8.80078 14.2H15.0008C15.5531 14.2 16.0008 14.6477 16.0008 15.2C16.0008 15.7522 15.5531 16.2 15.0008 16.2H8.80078Z" class="--primary-fill-color"/>
<path fill-rule="evenodd" clip-rule="evenodd" d="M9.80078 21.5C9.80078 20.9523 10.2531 20.5 10.8008 20.5H15.2008C15.7531 20.5 16.2008 20.0523 16.2008 19.5C16.2008 18.9477 15.7531 18.5 15.2008 18.5H10.8008C9.1485 18.5 7.80078 19.8477 7.80078 21.5V21.8C7.80078 23.4523 9.1485 24.8 10.8008 24.8H12.4899C12.4933 24.8 12.4966 24.8 12.5 24.8H18.2C19.8523 24.8 21.2 23.4523 21.2 21.8C21.2 21.2478 20.7523 20.8 20.2 20.8C19.6477 20.8 19.2 21.2478 19.2 21.8C19.2 22.3478 18.7477 22.8 18.2 22.8H13.6108C13.6075 22.8 13.6041 22.8 13.6008 22.8H10.8008C10.2531 22.8 9.80078 22.3477 9.80078 21.8V21.5Z" class="--primary-fill-color"/>
<path fill-rule="evenodd" clip-rule="evenodd" d="M20.1992 5C20.7515 5 21.1992 5.44772 21.1992 6V14.6858L22.4921 13.3929C22.8826 13.0024 23.5158 13.0024 23.9063 13.3929C24.2968 13.7834 24.2968 14.4166 23.9063 14.8071L20.9063 17.8071C20.6203 18.0931 20.1902 18.1787 19.8165 18.0239C19.4429 17.8691 19.1992 17.5045 19.1992 17.1V6C19.1992 5.44772 19.6469 5 20.1992 5Z" class="--primary-fill-color"/>
</svg>
