<svg xmlns="http://www.w3.org/2000/svg" width="30" height="30" fill="none" viewBox="0 0 30 30">
    <path fill="#F8CA06" fill-opacity=".25" d="M7.16 12.45c-.44.99-.66 2.09-.66 3.3 0 4.51 3.74 8.25 8.25 8.25S23 20.26 23 15.75 19.26 7.5 14.75 7.5c-1.21 0-2.31.22-3.41.77"/>
    <path fill="#F8CA06" fill-rule="evenodd" d="M10.893 7.376c1.257-.63 2.514-.876 3.857-.876 5.062 0 9.25 4.188 9.25 9.25S19.812 25 14.75 25 5.5 20.812 5.5 15.75c0-1.334.243-2.574.746-3.706.224-.505.815-.732 1.32-.508.505.225.732.816.508 1.32-.377.848-.574 1.808-.574 2.894 0 3.958 3.292 7.25 7.25 7.25S22 19.708 22 15.75 18.708 8.5 14.75 8.5c-1.077 0-2.02.193-2.963.664-.494.247-1.094.047-1.341-.447-.247-.494-.047-1.094.447-1.341z" clip-rule="evenodd"/>
</svg>
