<svg width="30" height="30" viewBox="0 0 30 30" fill="none" xmlns="http://www.w3.org/2000/svg">
<path fill-rule="evenodd" clip-rule="evenodd" d="M15 6C20.0094 6 24 9.99057 24 15C24 20.0094 20.0094 24 15 24C9.99057 24 6 20.0094 6 15C6 13.7121 6.26007 12.5455 6.77191 11.3939C6.99621 10.8892 7.58717 10.6619 8.09186 10.8862C8.59654 11.1105 8.82383 11.7015 8.59953 12.2061C8.19707 13.1117 8 14.0022 8 15C8 18.9049 11.0951 22 15 22C18.9049 22 22 18.9049 22 15C22 11.0951 18.9049 8 15 8C13.9877 8 12.9842 8.20291 12.0919 8.59953C11.5872 8.82383 10.9962 8.59654 10.7719 8.09185C10.5476 7.58717 10.7749 6.99621 11.2796 6.7719C12.4443 6.25423 13.7266 6 15 6Z" class="--secondary-fill-color"/>
<path d="M14.0005 11.9996C14.0006 11.4475 14.4481 11 15.0002 11V11C15.5523 11 15.9999 11.4477 15.9999 11.9998L15.9995 15.0003C15.9994 15.5524 15.5518 16 14.9997 16V16V16C14.4476 16 14.0001 15.5524 14.0001 15.0003L14.0005 11.9996Z" class="--primary-fill-color"/>
<circle cx="15" cy="18" r="1" class="--primary-fill-color"/>
</svg>
