<svg xmlns="http://www.w3.org/2000/svg" width="19" height="18" fill="none" viewBox="0 0 19 18">
    <path fill="#181C19" d="M11.912 17.971c3.672-.405 6.615-3.295 7.034-6.91.55-4.727-3.183-8.75-7.861-8.802V.139c0-.118-.15-.18-.25-.107L6.398 3.238c-.075.055-.075.162 0 .217l4.435 3.207c.101.074.251.007.251-.107V4.438c3.287.052 5.92 2.806 5.696 6.097-.191 2.83-2.536 5.128-5.412 5.308-.54.128-.811.526-.811 1.194 0 .668.451.98 1.354.934z"/>
    <path stroke="#181C19" stroke-width="2" d="M9.799 10.816L6.256 7.273c-.392-.392-1.026-.392-1.417 0l-3.544 3.543c-.391.391-.391 1.026 0 1.417l3.544 3.543c.39.392 1.025.392 1.417 0l3.543-3.543c.391-.391.391-1.026 0-1.417z"/>
</svg>
