<svg width="30" height="30" viewBox="0 0 30 30" fill="none" xmlns="http://www.w3.org/2000/svg">
<path fill-rule="evenodd" clip-rule="evenodd" d="M11.1211 6.72215C12.4031 6.02285 13.6779 5.80005 14.9999 5.80005C20.0364 5.80005 24.2999 9.93212 24.2999 15C24.2999 20.068 20.0364 24.2001 14.9999 24.2001C10.3943 24.2001 6.48285 20.7273 5.811 16.2484C5.72908 15.7022 6.10543 15.193 6.6516 15.1111C7.19777 15.0292 7.70695 15.4055 7.78888 15.9517C8.31704 19.4728 11.4056 22.2001 14.9999 22.2001C18.9634 22.2001 22.2999 18.9321 22.2999 15C22.2999 11.068 18.9634 7.80005 14.9999 7.80005C13.922 7.80005 12.9967 7.97725 12.0788 8.47794C11.5939 8.74241 10.9865 8.56375 10.722 8.0789C10.4576 7.59405 10.6362 6.98662 11.1211 6.72215Z" class="--primary-fill-color"/>
<path fill-rule="evenodd" clip-rule="evenodd" d="M15 11C15.5523 11 16 11.4477 16 12V15C16 15.5523 15.5523 16 15 16C14.4477 16 14 15.5523 14 15V12C14 11.4477 14.4477 11 15 11Z" class="--primary-fill-color"/>
<path fill-rule="evenodd" clip-rule="evenodd" d="M14.2929 14.2929C14.6834 13.9024 15.3166 13.9024 15.7071 14.2929L17.8071 16.3929C18.1976 16.7834 18.1976 17.4166 17.8071 17.8071C17.4166 18.1976 16.7834 18.1976 16.3929 17.8071L14.2929 15.7071C13.9024 15.3166 13.9024 14.6834 14.2929 14.2929Z" class="--primary-fill-color"/>
<path d="M7.09998 13.7C7.65226 13.7 8.09998 13.2522 8.09998 12.7C8.09998 12.1477 7.65226 11.7 7.09998 11.7C6.54769 11.7 6.09998 12.1477 6.09998 12.7C6.09998 13.2522 6.54769 13.7 7.09998 13.7Z" class="--secondary-fill-color"/>
<path d="M8.80005 10.6001C9.35233 10.6001 9.80005 10.1524 9.80005 9.6001C9.80005 9.04781 9.35233 8.6001 8.80005 8.6001C8.24776 8.6001 7.80005 9.04781 7.80005 9.6001C7.80005 10.1524 8.24776 10.6001 8.80005 10.6001Z" class="--secondary-fill-color"/>
</svg>
