<svg width="30" height="30" viewBox="0 0 30 30" fill="none" xmlns="http://www.w3.org/2000/svg">
<path fill-rule="evenodd" clip-rule="evenodd" d="M11.4534 15.9989C11.6197 16.5256 11.3276 17.0873 10.8009 17.2537C9.33605 17.7163 8.2998 19.116 8.2998 20.8001V21.4001C8.2998 21.4505 8.31792 21.4945 8.36143 21.5356C8.41311 21.5844 8.47158 21.6001 8.4998 21.6001H21.3998C21.4502 21.6001 21.4942 21.582 21.5353 21.5384C21.5841 21.4868 21.5998 21.4283 21.5998 21.4001V20.8001C21.5998 19.3733 20.8068 18.1105 19.6292 17.4824C19.1419 17.2225 18.9576 16.6168 19.2175 16.1295C19.4774 15.6422 20.0831 15.4578 20.5704 15.7177C22.3928 16.6897 23.5998 18.6268 23.5998 20.8001V21.4001C23.5998 22.4977 22.7052 23.6001 21.3998 23.6001H8.4998C7.40214 23.6001 6.2998 22.7054 6.2998 21.4001V20.8001C6.2998 18.2841 7.86356 16.0839 10.1987 15.3465C10.7253 15.1802 11.2871 15.4723 11.4534 15.9989Z" fill="#00B559"/>
<path fill-rule="evenodd" clip-rule="evenodd" d="M10.0996 11.2998C10.0996 8.58089 12.2145 6.2998 14.9996 6.2998C17.7847 6.2998 19.8996 8.58089 19.8996 11.2998C19.8996 14.0356 17.6682 16.2998 14.9996 16.2998C14.4473 16.2998 13.9996 15.8521 13.9996 15.2998C13.9996 14.7475 14.4473 14.2998 14.9996 14.2998C16.531 14.2998 17.8996 12.964 17.8996 11.2998C17.8996 9.61872 16.6145 8.2998 14.9996 8.2998C13.3847 8.2998 12.0996 9.61872 12.0996 11.2998C12.0996 11.5552 12.1639 11.8338 12.2698 12.2573C12.4037 12.7931 12.0779 13.336 11.5421 13.4699C11.0063 13.6039 10.4634 13.2781 10.3295 12.7423C10.3261 12.7288 10.3226 12.715 10.3191 12.701C10.2257 12.3281 10.0996 11.8247 10.0996 11.2998Z" fill="#00B559"/>
<path d="M15 17.2002C16.1046 17.2002 17 16.3048 17 15.2002C17 14.0956 16.1046 13.2002 15 13.2002C13.8954 13.2002 13 14.0956 13 15.2002C13 16.3048 13.8954 17.2002 15 17.2002Z" fill="#00B559"/>
</svg>
