<svg xmlns="http://www.w3.org/2000/svg" width="20" height="20" fill="none" viewBox="0 0 20 20">
    <path fill="#fff" d="M20 5.586L14.414 0H3C1.343 0 0 1.343 0 3v14c0 1.657 1.343 3 3 3h14c1.657 0 3-1.343 3-3V5.586zM13.585 2L18 6.415V17c0 .552-.448 1-1 1H3c-.552 0-1-.448-1-1V3c0-.552.448-1 1-1h10.585z"/>
    <path fill="#fff" d="M7 1v3.5c0 .817.442 1.42.907 1.493L8 6h4c.466 0 .937-.553.994-1.34L13 4.5V2h2v2.5c0 1.825-1.2 3.389-2.824 3.494L12 8H8C6.347 8 5.09 6.5 5.005 4.694L5 4.5V1h2zM7 20v-3.75c0 .047.013.029.116-.036.172-.108.424-.184.709-.207L8 16h4c.357 0 .677.085.884.214l.086.054c.017.01.025.011.028.003L13 16.25V20h2v-3.75c0-1.314-1.306-2.181-2.818-2.246L12 14H8c-1.526 0-2.891.816-2.994 2.095L5 16.25V20h2z"/>
    <path fill="#fff" d="M12 4c0-.552-.448-1-1-1s-1 .448-1 1 .448 1 1 1 1-.448 1-1z"/>
</svg>
