<svg width="30" height="30" viewBox="0 0 30 30" fill="none" xmlns="http://www.w3.org/2000/svg">
<path d="M8.5 22.3999C9.60457 22.3999 10.5 21.5045 10.5 20.3999C10.5 19.2953 9.60457 18.3999 8.5 18.3999C7.39543 18.3999 6.5 19.2953 6.5 20.3999C6.5 21.5045 7.39543 22.3999 8.5 22.3999Z" class="--secondary-fill-color"/>
<path fill-rule="evenodd" clip-rule="evenodd" d="M8.5 19.3999C7.94772 19.3999 7.5 19.8476 7.5 20.3999C7.5 20.9522 7.94772 21.3999 8.5 21.3999C9.05228 21.3999 9.5 20.9522 9.5 20.3999C9.5 19.8476 9.05228 19.3999 8.5 19.3999ZM5.5 20.3999C5.5 18.743 6.84315 17.3999 8.5 17.3999C10.1569 17.3999 11.5 18.743 11.5 20.3999C11.5 22.0568 10.1569 23.3999 8.5 23.3999C6.84315 23.3999 5.5 22.0568 5.5 20.3999Z" class="--primary-fill-color"/>
<path d="M21.5 22.3999C22.6046 22.3999 23.5 21.5045 23.5 20.3999C23.5 19.2953 22.6046 18.3999 21.5 18.3999C20.3954 18.3999 19.5 19.2953 19.5 20.3999C19.5 21.5045 20.3954 22.3999 21.5 22.3999Z" class="--secondary-fill-color"/>
<path fill-rule="evenodd" clip-rule="evenodd" d="M21.5 19.3999C20.9477 19.3999 20.5 19.8476 20.5 20.3999C20.5 20.9522 20.9477 21.3999 21.5 21.3999C22.0523 21.3999 22.5 20.9522 22.5 20.3999C22.5 19.8476 22.0523 19.3999 21.5 19.3999ZM18.5 20.3999C18.5 18.743 19.8431 17.3999 21.5 17.3999C23.1569 17.3999 24.5 18.743 24.5 20.3999C24.5 22.0568 23.1569 23.3999 21.5 23.3999C19.8431 23.3999 18.5 22.0568 18.5 20.3999Z" class="--primary-fill-color"/>
<path fill-rule="evenodd" clip-rule="evenodd" d="M12.7614 8.17469L9.76143 18.6747L7.83838 18.1252L10.8384 7.62524L12.7614 8.17469Z" class="--primary-fill-color"/>
<path fill-rule="evenodd" clip-rule="evenodd" d="M9.6001 20.3999C9.6001 19.8476 10.0478 19.3999 10.6001 19.3999H15.5005C16.0528 19.3999 16.5005 19.8476 16.5005 20.3999C16.5005 20.9522 16.0528 21.3999 15.5005 21.3999H10.6001C10.0478 21.3999 9.6001 20.9522 9.6001 20.3999Z" class="--primary-fill-color"/>
<path fill-rule="evenodd" clip-rule="evenodd" d="M14.5 20.3999C14.5 16.5476 17.6477 13.3999 21.5 13.3999C22.0523 13.3999 22.5 13.8476 22.5 14.3999C22.5 14.9522 22.0523 15.3999 21.5 15.3999C18.7523 15.3999 16.5 17.6522 16.5 20.3999C16.5 20.9522 16.0523 21.3999 15.5 21.3999C14.9477 21.3999 14.5 20.9522 14.5 20.3999Z" class="--primary-fill-color"/>
<path fill-rule="evenodd" clip-rule="evenodd" d="M7.2998 7.8999C7.2998 7.34762 7.74752 6.8999 8.2998 6.8999H12.3998C12.9521 6.8999 13.3998 7.34762 13.3998 7.8999C13.3998 8.45219 12.9521 8.8999 12.3998 8.8999H8.2998C7.74752 8.8999 7.2998 8.45219 7.2998 7.8999Z" class="--primary-fill-color"/>
</svg>
