<svg xmlns="http://www.w3.org/2000/svg" width="30" height="30" fill="none" viewBox="0 0 30 30">
    <g fill="#181C19" fill-rule="evenodd" clip-rule="evenodd" opacity=".3">
        <path d="M14.3 10.82c-1.999 0-3.62 1.621-3.62 3.62 0 2 1.621 3.62 3.62 3.62 2 0 3.62-1.62 3.62-3.62 0-1.999-1.62-3.62-3.62-3.62zm-5.62 3.62c0-3.104 2.517-5.62 5.62-5.62 3.104 0 5.62 2.516 5.62 5.62s-2.516 5.62-5.62 5.62c-3.103 0-5.62-2.516-5.62-5.62z" class="--primary-fill-color"/>
        <path d="M16.812 17.023c.39-.39 1.024-.39 1.415 0l2.8 2.8c.39.39.39 1.024 0 1.414-.39.39-1.024.39-1.415 0l-2.8-2.8c-.39-.39-.39-1.024 0-1.414z" class="--primary-fill-color"/>
    </g>
</svg>
