<svg width="30" height="30" viewBox="0 0 30 30" fill="none" xmlns="http://www.w3.org/2000/svg">
<path fill-rule="evenodd" clip-rule="evenodd" d="M13.6437 10.3632C13.9402 10.8291 13.8028 11.4472 13.3369 11.7437C12.4327 12.3191 12 13.0389 12 13.8V18.6854C12.0283 18.6939 12.0622 18.7 12.1 18.7H19L19 14C19 13.4477 19.4477 13 20 13C20.5523 13 21 13.4477 21 14L21 18.9C21 19.5233 20.6756 20.003 20.2789 20.2939C19.8992 20.5724 19.4355 20.7 19 20.7H12.1C11.5836 20.7 11.0981 20.5299 10.725 20.25C10.3717 19.985 10 19.5203 10 18.9V13.8C10 12.1612 10.9673 10.881 12.2631 10.0564C12.7291 9.75986 13.3472 9.89721 13.6437 10.3632Z" class="--primary-fill-color"/>
<path fill-rule="evenodd" clip-rule="evenodd" d="M14.0946 8.29456C14.0269 8.36229 14 8.43928 14 8.49995V9.69995C14 9.80535 14.0337 9.84447 14.0446 9.85534C14.0555 9.86622 14.0946 9.89995 14.2 9.89995H16.8C16.9012 9.89995 16.9294 9.86982 16.9352 9.86367L16.9355 9.86333C16.9438 9.85449 17 9.78995 17 9.59995V8.49995C17 8.43928 16.9731 8.36229 16.9054 8.29456C16.8377 8.22683 16.7607 8.19995 16.7 8.19995H14.3C14.2393 8.19995 14.1623 8.22683 14.0946 8.29456ZM12 8.49995C12 7.24767 13.0477 6.19995 14.3 6.19995H16.7C17.9523 6.19995 19 7.24767 19 8.49995V9.59995C19 10.21 18.8062 10.7954 18.3895 11.2366C17.9695 11.6813 17.3968 11.9 16.8 11.9H14.2C12.9477 11.9 12 10.9522 12 9.69995V8.49995Z" class="--primary-fill-color"/>
<path d="M19 14C19 13.4477 19.4477 13 20 13V13C20.5523 13 21 13.4477 21 14V19H19V14Z" class="--secondary-fill-color"/>
<path fill-rule="evenodd" clip-rule="evenodd" d="M8.5 20.7C8.5 19.4838 9.51382 18.7 10.5 18.7H20.5C21.0272 18.7 21.5443 18.8801 21.9321 19.2678C22.3199 19.6556 22.5 20.1727 22.5 20.7V21C22.5 23.0522 20.8523 24.7 18.8 24.7H12.2C10.1477 24.7 8.5 23.0522 8.5 21V20.7ZM20.5 20.7H10.5V21C10.5 21.9477 11.2523 22.7 12.2 22.7H18.8C19.7477 22.7 20.5 21.9477 20.5 21V20.7Z" class="--primary-fill-color"/>
</svg>
