<svg width="30" height="30" viewBox="0 0 30 30" fill="none" xmlns="http://www.w3.org/2000/svg">
<path fill-rule="evenodd" clip-rule="evenodd" d="M15 14C14.4477 14 14 14.4477 14 15C14 15.5523 14.4477 16 15 16C15.5523 16 16 15.5523 16 15C16 14.4477 15.5523 14 15 14ZM12 15C12 13.3431 13.3431 12 15 12C16.6569 12 18 13.3431 18 15C18 16.6569 16.6569 18 15 18C13.3431 18 12 16.6569 12 15Z" class="--secondary-fill-color"/>
<path d="M15.0004 24.5C14.2004 24.5 13.6004 23.9 13.5004 23.2C13.4004 22.4 13.0004 21.8 12.3004 21.5C11.5004 21.2 10.8004 21.3 10.2004 21.8C9.60039 22.3 8.80039 22.2 8.30039 21.7C7.70039 21.1 7.70039 20.3 8.10039 19.8C8.60039 19.2 8.70039 18.4 8.40039 17.8C8.10039 17.1 7.50039 16.6 6.70039 16.5C5.90039 16.4 5.40039 15.8 5.40039 15.1C5.40039 14.3 6.00039 13.7 6.70039 13.6C7.50039 13.5 8.10039 13.1 8.40039 12.4C8.70039 11.7 8.60039 10.9 8.10039 10.3C7.70039 9.70002 7.70039 8.80002 8.30039 8.30002C8.90039 7.70002 9.70039 7.70002 10.3004 8.10002C10.9004 8.60002 11.6004 8.70002 12.3004 8.40002C13.0004 8.10002 13.5004 7.50002 13.6004 6.70002C13.7004 5.90002 14.3004 5.40002 15.0004 5.40002C15.8004 5.40002 16.4004 6.00002 16.5004 6.70002C16.6004 7.40002 17.0004 8.10002 17.7004 8.40002C18.4004 8.70002 19.2004 8.60002 19.8004 8.20002C20.4004 7.70002 21.2004 7.80002 21.7004 8.30002C22.2004 8.80002 22.3004 9.60002 21.8004 10.2C21.3004 10.8 21.2004 11.6 21.5004 12.3C21.8004 13 22.4004 13.5 23.2004 13.6C23.9004 13.7 24.5004 14.3 24.5004 15C24.5004 15.8 23.9004 16.4 23.2004 16.5C22.4004 16.6 21.8004 17 21.6004 17.7C21.4004 18.2 20.8004 18.5 20.3004 18.2C19.8004 18 19.5004 17.4 19.8004 16.9C20.1004 16.1 20.7004 15.4 21.5004 15C20.8004 14.6 20.2004 13.9 19.8004 13.1C19.5004 12.3 19.4004 11.4 19.6004 10.5C18.8004 10.7 17.9004 10.6 17.1004 10.3C16.3004 10 15.6004 9.40002 15.1004 8.60002C14.7004 9.30002 14.0004 9.90002 13.2004 10.3C12.4004 10.7 11.4004 10.7 10.6004 10.5C10.8004 11.3 10.8004 12.2 10.4004 13.1C10.1004 13.9 9.50039 14.6 8.70039 15.1C9.40039 15.5 10.0004 16.2 10.4004 17C10.8004 17.9 10.8004 18.8 10.6004 19.6C11.4004 19.4 12.3004 19.4 13.1004 19.8C13.9004 20.1 14.6004 20.7 15.1004 21.5C15.5004 20.8 16.2004 20.2 17.0004 19.8C18.4004 19.2 20.0004 19.4 21.1004 20.4C21.5004 20.7 21.6004 21.4 21.2004 21.8C20.9004 22.2 20.2004 22.3 19.8004 21.9C19.2004 21.4 18.5004 21.3 17.8004 21.6C17.1004 21.9 16.6004 22.5 16.5004 23.3C16.4004 23.9 15.8004 24.5 15.0004 24.5Z" class="--primary-fill-color"/>
</svg>
