<svg width="30" height="30" viewBox="0 0 30 30" fill="none" xmlns="http://www.w3.org/2000/svg">
<path fill-rule="evenodd" clip-rule="evenodd" d="M7 13C7 12.4477 7.44772 12 8 12H11C11.5523 12 12 12.4477 12 13C12 13.5523 11.5523 14 11 14H9V22H21V14H19C18.4477 14 18 13.5523 18 13C18 12.4477 18.4477 12 19 12H22C22.5523 12 23 12.4477 23 13V23C23 23.5523 22.5523 24 22 24H8C7.44772 24 7 23.5523 7 23V13Z" class="--primary-fill-color"/>
<path fill-rule="evenodd" clip-rule="evenodd" d="M15 5C15.2652 5 15.5196 5.10536 15.7071 5.29289L18.7071 8.29289C19.0976 8.68342 19.0976 9.31658 18.7071 9.70711C18.3166 10.0976 17.6834 10.0976 17.2929 9.70711L16 8.41421V16C16 16.5523 15.5523 17 15 17C14.4477 17 14 16.5523 14 16V8.41421L12.7071 9.70711C12.3166 10.0976 11.6834 10.0976 11.2929 9.70711C10.9024 9.31658 10.9024 8.68342 11.2929 8.29289L14.2929 5.29289C14.4804 5.10536 14.7348 5 15 5Z" class="--primary-fill-color"/>
</svg>
