<svg width="30" height="30" viewBox="0 0 30 30" fill="none" xmlns="http://www.w3.org/2000/svg">
<path d="M24.4 15C23.8 14.3 23.1 13.6 22.4 13C22 12.6 21.4 12.7 21 13.1C20.6 13.5 20.7 14.1 21.1 14.5C21.5 14.8 21.9 15.2 22.3 15.6C19.8 18.2 17.3 19.6 14.8 19.6C14.2 19.6 13.8 20 13.8 20.6C13.8 21.2 14.2 21.6 14.8 21.6C18.1 21.6 21.3 19.8 24.4 16.3C24.7 15.9 24.7 15.4 24.4 15Z" class="--primary-fill-color"/>
<path d="M11.4 18.8C9.60005 17.9 8.20005 16.5 7.50005 15.7C8.90005 14.2 13.2 10.3 18.4 12.8C18.9 13 19.5 12.8 19.7 12.3C19.9 11.8 19.7 11.2 19.2 11C11.4 7.29998 5.40005 15 5.40005 15.1C5.10005 15.4 5.10005 15.9 5.40005 16.3C5.50005 16.4 7.40005 19.2 10.5 20.7C10.6 20.8 10.8 20.8 10.9 20.8C11.3 20.8 11.6 20.6 11.8 20.2C12.1 19.7 11.9 19.1 11.4 18.8Z" class="--primary-fill-color"/>
<path d="M14.9 17.9C16.0598 17.9 17 16.9597 17 15.8C17 14.6402 16.0598 13.7 14.9 13.7C13.7403 13.7 12.8 14.6402 12.8 15.8C12.8 16.9597 13.7403 17.9 14.9 17.9Z" class="--primary-fill-color"/>
</svg>
