<svg width="30" height="30" viewBox="0 0 30 30" fill="none" xmlns="http://www.w3.org/2000/svg">
<path fill-rule="evenodd" clip-rule="evenodd" d="M6.99976 14.7C6.99976 14.1477 7.44747 13.7 7.99976 13.7H10.9998C11.552 13.7 11.9998 14.1477 11.9998 14.7C11.9998 15.2522 11.552 15.7 10.9998 15.7H7.99976C7.44747 15.7 6.99976 15.2522 6.99976 14.7Z" class="--secondary-fill-color"/>
<path fill-rule="evenodd" clip-rule="evenodd" d="M4.99976 18.7C4.99976 18.1477 5.44747 17.7 5.99976 17.7H10.9998C11.552 17.7 11.9998 18.1477 11.9998 18.7C11.9998 19.2522 11.552 19.7 10.9998 19.7H5.99976C5.44747 19.7 4.99976 19.2522 4.99976 18.7Z" class="--secondary-fill-color"/>
<path d="M17.3998 18C18.1998 17.2 18.7998 13.8 18.7998 13.8C18.7998 13.8 15.2998 14.4 14.5998 15.2C13.7998 16 13.7998 17.2 14.5998 18C15.3998 18.8 16.6998 18.8 17.3998 18Z" class="--primary-fill-color"/>
<path fill-rule="evenodd" clip-rule="evenodd" d="M14.9998 5C14.4475 5 13.9998 5.44772 13.9998 6C13.9998 6.55228 14.4475 7 14.9998 7V8.25724C13.5447 8.42394 12.1309 8.95135 10.9994 9.79995C10.5576 10.1313 10.4681 10.7581 10.7994 11.2C11.1308 11.6418 11.7576 11.7313 12.1994 11.4C13.2098 10.6422 14.5941 10.2 15.9994 10.2C19.5471 10.2 22.4994 13.1522 22.4994 16.7C22.4994 20.2477 19.5471 23.2 15.9994 23.2C14.5941 23.2 13.2098 22.7577 12.1994 22C11.7576 21.6686 11.1308 21.7581 10.7994 22.2C10.4681 22.6418 10.5576 23.2686 10.9994 23.6C12.3891 24.6422 14.2047 25.2 15.9994 25.2C20.6517 25.2 24.4994 21.3522 24.4994 16.7C24.4994 12.3857 21.1906 8.76343 16.9998 8.25974L16.9998 7C17.552 7 17.9998 6.55228 17.9998 6C17.9998 5.44772 17.552 5 16.9998 5H14.9998Z" class="--primary-fill-color"/>
</svg>
