<svg width="30" height="30" viewBox="0 0 30 30" fill="none" xmlns="http://www.w3.org/2000/svg">
<path fill-rule="evenodd" clip-rule="evenodd" d="M17.1469 12.5788C17.4349 12.1075 18.0503 11.959 18.5216 12.247L22.1216 14.447C22.4188 14.6286 22.6001 14.9519 22.6001 15.3002C22.6001 15.6486 22.4188 15.9719 22.1216 16.1535L18.5216 18.3535C18.0503 18.6415 17.4349 18.4929 17.1469 18.0217C16.8589 17.5504 17.0074 16.9349 17.4787 16.647L19.6824 15.3002L17.4787 13.9535C17.0074 13.6655 16.8589 13.05 17.1469 12.5788Z" class="--primary-fill-color"/>
<path fill-rule="evenodd" clip-rule="evenodd" d="M10.2175 7.62422C10.5366 7.44833 10.9261 7.45994 11.2342 7.65451L15.0342 10.0545C15.5011 10.3494 15.6406 10.967 15.3457 11.434C15.0508 11.9009 14.4332 12.0404 13.9662 11.7455L11.7002 10.3143V20.3857L13.9662 18.9545C14.4332 18.6596 15.0508 18.7991 15.3457 19.266C15.6406 19.733 15.5011 20.3506 15.0342 20.6455L11.2342 23.0455C10.9261 23.2401 10.5366 23.2517 10.2175 23.0758C9.89838 22.8999 9.7002 22.5644 9.7002 22.2V8.5C9.7002 8.13563 9.89838 7.8001 10.2175 7.62422Z" class="--primary-fill-color"/>
</svg>
