<svg width="30" height="30" viewBox="0 0 30 30" fill="none" xmlns="http://www.w3.org/2000/svg">
<path fill-rule="evenodd" clip-rule="evenodd" d="M21.8222 8.17773L9.29346 12.3258L14.7138 14.7896C14.9339 14.8896 15.1103 15.066 15.2104 15.2861L17.6742 20.7065L21.8222 8.17773ZM24.0323 7.86578C24.1401 7.61547 24.1848 7.33076 24.1296 7.03798C24.0689 6.71621 23.9005 6.45502 23.694 6.26915C23.2961 5.91102 22.7451 5.80791 22.2575 5.9298C22.2333 5.93585 22.2094 5.94279 22.1857 5.95062L7.41223 10.8418C6.69741 11.0438 6.40002 11.6917 6.40002 12.2124C6.40002 12.7361 6.6775 13.3067 7.25281 13.5944C7.26385 13.5999 7.27499 13.6052 7.28622 13.6103L13.5448 16.4551L16.382 22.6968C16.9468 24.0496 18.7933 23.8844 19.1582 22.5874L24.0323 7.86578Z" class="--primary-fill-color"/>
<path fill-rule="evenodd" clip-rule="evenodd" d="M17.5072 12.4928C17.8977 12.8834 17.8977 13.5165 17.5072 13.9071L15.0072 16.4071C14.6166 16.7976 13.9835 16.7976 13.5929 16.4071C13.2024 16.0165 13.2024 15.3834 13.5929 14.9928L16.0929 12.4928C16.4835 12.1023 17.1166 12.1023 17.5072 12.4928Z" class="--primary-fill-color"/>
</svg>
