<svg width="30" height="30" viewBox="0 0 30 30" fill="none" xmlns="http://www.w3.org/2000/svg">
<path fill-rule="evenodd" clip-rule="evenodd" d="M11.4536 15.9989C11.6199 16.5256 11.3278 17.0873 10.8012 17.2537C9.33629 17.7163 8.30005 19.116 8.30005 20.8001V21.4001C8.30005 21.4505 8.31816 21.4945 8.36167 21.5356C8.41335 21.5844 8.47183 21.6001 8.50005 21.6001H21.4C21.4504 21.6001 21.4944 21.582 21.5355 21.5384C21.5843 21.4868 21.6 21.4283 21.6 21.4001V20.8001C21.6 19.3733 20.8071 18.1105 19.6295 17.4824C19.1422 17.2225 18.9578 16.6168 19.2177 16.1295C19.4776 15.6422 20.0833 15.4578 20.5706 15.7177C22.393 16.6897 23.6 18.6268 23.6 20.8001V21.4001C23.6 22.4977 22.7054 23.6001 21.4 23.6001H8.50005C7.40238 23.6001 6.30005 22.7054 6.30005 21.4001V20.8001C6.30005 18.2841 7.8638 16.0839 10.1989 15.3465C10.7256 15.1802 11.2873 15.4723 11.4536 15.9989Z" class="--primary-fill-color"/>
<path fill-rule="evenodd" clip-rule="evenodd" d="M10.1001 11.3C10.1001 8.58113 12.215 6.30005 15.0001 6.30005C17.7852 6.30005 19.9001 8.58113 19.9001 11.3C19.9001 14.0359 17.6687 16.3 15.0001 16.3C14.4478 16.3 14.0001 15.8523 14.0001 15.3C14.0001 14.7478 14.4478 14.3 15.0001 14.3C16.5315 14.3 17.9001 12.9642 17.9001 11.3C17.9001 9.61897 16.615 8.30005 15.0001 8.30005C13.3852 8.30005 12.1001 9.61897 12.1001 11.3C12.1001 11.5555 12.1644 11.8341 12.2702 12.2575C12.4042 12.7933 12.0784 13.3362 11.5426 13.4702C11.0068 13.6041 10.4639 13.2784 10.33 12.7426C10.3266 12.729 10.3231 12.7152 10.3196 12.7013C10.2262 12.3284 10.1001 11.825 10.1001 11.3Z" class="--primary-fill-color"/>
<path d="M15 17.2C16.1046 17.2 17 16.3045 17 15.2C17 14.0954 16.1046 13.2 15 13.2C13.8954 13.2 13 14.0954 13 15.2C13 16.3045 13.8954 17.2 15 17.2Z" class="--secondary-fill-color"/>
</svg>
