<svg width="30" height="30" viewBox="0 0 30 30" fill="none" xmlns="http://www.w3.org/2000/svg">
<path fill-rule="evenodd" clip-rule="evenodd" d="M11.9182 8.20435C11.534 7.80768 10.9009 7.79763 10.5042 8.18191L7.3042 11.2819C7.01163 11.5653 6.92022 11.9979 7.07311 12.3755C7.22601 12.7531 7.59265 13.0001 8 13.0001H18C18.5523 13.0001 19 12.5524 19 12.0001C19 11.4479 18.5523 11.0001 18 11.0001H10.4695L11.8958 9.61839C12.2925 9.23411 12.3025 8.60103 11.9182 8.20435Z" class="--primary-fill-color"/>
<path fill-rule="evenodd" clip-rule="evenodd" d="M18.0818 21.7958C18.466 22.1924 19.0991 22.2025 19.4958 21.8182L22.6958 18.7182C22.9884 18.4348 23.0798 18.0022 22.9269 17.6246C22.774 17.2471 22.4074 17 22 17L8 17C7.44772 17 7 17.4477 7 18C7 18.5523 7.44772 19 8 19L19.5305 19L18.1042 20.3817C17.7075 20.766 17.6975 21.3991 18.0818 21.7958Z" class="--primary-fill-color"/>
<circle cx="22" cy="12" r="1" class="--secondary-fill-color"/>
</svg>
