<svg width="30" height="30" viewBox="0 0 30 30" fill="none" xmlns="http://www.w3.org/2000/svg">
<path fill-rule="evenodd" clip-rule="evenodd" d="M14.8 14.8999C14.8 14.3476 15.2477 13.8999 15.8 13.8999H18.8C20.0523 13.8999 21 14.8476 21 16.0999V21.6999C21 22.9522 20.0523 23.8999 18.8 23.8999H11.2C9.94772 23.8999 9 22.9522 9 21.6999V16.0999C9 15.5476 9.44772 15.0999 10 15.0999C10.5523 15.0999 11 15.5476 11 16.0999V21.6999C11 21.8053 11.0337 21.8444 11.0446 21.8553C11.0555 21.8662 11.0946 21.8999 11.2 21.8999H18.8C18.9054 21.8999 18.9445 21.8662 18.9554 21.8553C18.9663 21.8444 19 21.8053 19 21.6999V16.0999C19 15.9945 18.9663 15.9554 18.9554 15.9445C18.9445 15.9336 18.9054 15.8999 18.8 15.8999H15.8C15.2477 15.8999 14.8 15.4522 14.8 14.8999Z" class="--primary-fill-color"/>
<path fill-rule="evenodd" clip-rule="evenodd" d="M15 9.3999C15.5523 9.3999 16 9.84762 16 10.3999V18.2999C16 18.8522 15.5523 19.2999 15 19.2999C14.4477 19.2999 14 18.8522 14 18.2999V10.3999C14 9.84762 14.4477 9.3999 15 9.3999Z" class="--primary-fill-color"/>
<path fill-rule="evenodd" clip-rule="evenodd" d="M15 9C15.5523 9 16 8.55228 16 8C16 7.44772 15.5523 7 15 7C14.4477 7 14 7.44772 14 8C14 8.55228 14.4477 9 15 9ZM15 11C16.6569 11 18 9.65685 18 8C18 6.34315 16.6569 5 15 5C13.3431 5 12 6.34315 12 8C12 9.65685 13.3431 11 15 11Z" class="--secondary-fill-color"/>
</svg>
