<svg xmlns="http://www.w3.org/2000/svg" width="30" height="30" fill="none" viewBox="0 0 30 30">
    <path fill="#00B559" fill-rule="evenodd" d="M13.382 6.034c-.533-.143-1.082.174-1.225.707l-.517 1.932-3.38-.906c-.534-.143-1.083.174-1.226.707-.143.534.174 1.082.707 1.225l13.185 3.533-1.84 8.375c-.05.23-.253.393-.488.393h-7.196c-.234 0-.438-.163-.488-.393L8.98 12.804c-.108-.542-.635-.893-1.177-.784-.541.108-.893.635-.784 1.176l2.18 10c.093.468.504.804.98.804h9.64c.477 0 .887-.336.98-.804l2.06-9.446.336.09c.534.143 1.082-.174 1.225-.707.143-.533-.174-1.082-.707-1.225l-3.38-.906.517-1.931c.143-.534-.174-1.082-.707-1.225l-6.762-1.812zm5.02 4.45l.258-.965-4.83-1.294-.258.966 4.83 1.294z" clip-rule="evenodd"/>
</svg>
