<svg width="30" height="30" viewBox="0 0 30 30" fill="none" xmlns="http://www.w3.org/2000/svg">
<path d="M12.4613 23C11.5965 23 10.7063 22.9358 9.81075 22.8072C8.23347 22.5804 6.6368 21.8243 6.18499 21.5979L5 21.0042L6.28295 20.6176C7.68537 20.1951 8.53849 19.9329 9.59454 19.5223C8.53711 19.0531 7.72215 18.2089 7.32985 17.1177L7.03139 16.2874L7.27614 16.3217C7.04405 16.1073 6.8608 15.8898 6.71874 15.6919C6.21352 14.9887 5.94604 14.1295 6.00295 13.3931L6.0591 12.6684L6.53258 12.8365C6.33285 12.4908 6.1885 12.1217 6.10366 11.7348C5.8969 10.7912 6.06994 9.7888 6.59102 8.91222L7.00346 8.21839L7.55506 8.82552C9.29959 10.7459 11.5092 11.8851 14.1317 12.2186C14.0246 11.542 14.1048 10.889 14.3705 10.3036C14.6798 9.62212 15.23 9.04421 15.9612 8.63228C16.7733 8.1749 17.7581 7.95328 18.7342 8.00823C19.7698 8.06654 20.71 8.42212 21.4568 9.03722C21.8215 8.95039 22.0902 8.85768 22.4533 8.7324C22.6718 8.65703 22.9196 8.57146 23.2297 8.47358L24.3723 8.11282L23.6272 10.0629C23.6763 10.0591 23.727 10.0559 23.7799 10.0538L25 10.0032L24.2789 10.9063C24.2375 10.958 24.227 10.9727 24.2123 10.993C24.1542 11.0733 24.0819 11.1731 23.0921 12.3843C22.8443 12.6876 22.7205 13.0826 22.7435 13.4967C22.8313 15.0706 22.6206 16.4947 22.1169 17.7291C21.6405 18.8969 20.9023 19.8989 19.923 20.7072C18.7111 21.7073 17.1659 22.392 15.33 22.7422C14.4294 22.9139 13.4623 23 12.4613 23V23Z" class="--primary-fill-color"/>
</svg>
