<svg width="30" height="30" viewBox="0 0 30 30" fill="none" xmlns="http://www.w3.org/2000/svg">
<g clip-path="url(#clip0)">
<path fill-rule="evenodd" clip-rule="evenodd" d="M10.4188 7.78627C11.9638 6.68275 13.7633 6 15.8001 6C20.7524 6 24.8001 10.0477 24.8001 15C24.8001 19.9523 20.7524 24 15.8001 24C13.7816 24 11.8668 23.3284 10.3904 22.1926C9.95261 21.8559 9.87072 21.228 10.2075 20.7903C10.5442 20.3525 11.172 20.2706 11.6098 20.6074C12.7333 21.4716 14.2185 22 15.8001 22C19.6478 22 22.8001 18.8477 22.8001 15C22.8001 11.1523 19.6478 8 15.8001 8C14.2369 8 12.8364 8.51725 11.5813 9.41373C11.1319 9.73474 10.5074 9.63065 10.1863 9.18124C9.86534 8.73183 9.96943 8.10728 10.4188 7.78627Z" class="--primary-fill-color"/>
<path fill-rule="evenodd" clip-rule="evenodd" d="M5 17C5 16.4477 5.44772 16 6 16H10C10.5523 16 11 16.4477 11 17C11 17.5523 10.5523 18 10 18H6C5.44772 18 5 17.5523 5 17Z" class="--primary-fill-color"/>
<path fill-rule="evenodd" clip-rule="evenodd" d="M6 13C6 12.4477 6.44772 12 7 12H11C11.5523 12 12 12.4477 12 13C12 13.5523 11.5523 14 11 14H7C6.44772 14 6 13.5523 6 13Z" class="--primary-fill-color"/>
<path d="M16 17C17.1046 17 18 16.1046 18 15C18 13.8954 17.1046 13 16 13C14.8954 13 14 13.8954 14 15C14 16.1046 14.8954 17 16 17Z" class="--secondary-fill-color"/>
</g>
<defs>
<clipPath id="clip0">
<path d="M0 0H30V30H0V0Z" fill="white"/>
</clipPath>
</defs>
</svg>
