<svg width="30" height="30" viewBox="0 0 30 30" fill="none" xmlns="http://www.w3.org/2000/svg">
<path d="M14.5 9C15.3284 9 16 8.32843 16 7.5C16 6.67157 15.3284 6 14.5 6C13.6716 6 13 6.67157 13 7.5C13 8.32843 13.6716 9 14.5 9Z" class="--secondary-fill-color"/>
<path d="M17.5 12C18.3284 12 19 11.3284 19 10.5C19 9.67157 18.3284 9 17.5 9C16.6716 9 16 9.67157 16 10.5C16 11.3284 16.6716 12 17.5 12Z" class="--secondary-fill-color"/>
<path fill-rule="evenodd" clip-rule="evenodd" d="M19.9996 16.3999C19.4519 16.3999 19.0996 16.7522 19.0996 17.2999C19.0996 17.7476 19.5519 18.1999 19.9996 18.1999H22.3775C22.9298 18.1999 23.3775 18.6476 23.3775 19.1999C23.3775 19.7522 22.9298 20.1999 22.3775 20.1999H19.9996C18.4473 20.1999 17.0996 18.8522 17.0996 17.2999C17.0996 15.6476 18.3473 14.3999 19.9996 14.3999H22.3775C22.9298 14.3999 23.3775 14.8476 23.3775 15.3999C23.3775 15.9522 22.9298 16.3999 22.3775 16.3999H19.9996Z" class="--primary-fill-color"/>
<path fill-rule="evenodd" clip-rule="evenodd" d="M7.73902 9.7347C8.17514 9.61679 8.63614 9.80594 8.86378 10.1962C9.05259 10.5198 9.30152 10.6832 9.68488 10.7811C10.1269 10.894 10.667 10.9 11.4 10.9H20.1C22.027 10.9 23.7 12.4228 23.7 14.5V19.1C23.7 19.6523 23.2523 20.1 22.7 20.1C22.1477 20.1 21.7 19.6523 21.7 19.1V14.5C21.7 13.5773 20.973 12.9 20.1 12.9H11.4C11.3798 12.9 11.3596 12.9 11.3391 12.9001C10.6841 12.9002 9.90094 12.9004 9.19012 12.719C9.12645 12.7027 9.06304 12.6849 9 12.6655V19.9C9 20.8228 9.72698 21.5 10.6 21.5H20.1C20.6242 21.5 20.9354 21.3504 21.0929 21.1929C21.4834 20.8024 22.1166 20.8024 22.5071 21.1929C22.8976 21.5835 22.8976 22.2166 22.5071 22.6071C21.8646 23.2497 20.9758 23.5 20.1 23.5H10.6C8.67302 23.5 7 21.9773 7 19.9V10.7C7 10.2483 7.3029 9.8526 7.73902 9.7347Z" class="--primary-fill-color"/>
<path fill-rule="evenodd" clip-rule="evenodd" d="M10.6572 8.41255C10.6576 8.41262 10.658 8.41267 10.5 9.40011L10.658 8.41267C11.2033 8.49993 11.5747 9.01276 11.4874 9.5581C11.4004 10.102 10.8901 10.4728 10.3464 10.3883L10.3385 10.3871C10.3289 10.3859 10.3115 10.3836 10.2874 10.3811C10.239 10.376 10.1656 10.3697 10.0761 10.3667C9.89018 10.3606 9.66772 10.3696 9.46486 10.4143C9.25571 10.4603 9.14273 10.5273 9.09055 10.5784C9.06554 10.6029 9 10.6684 9 10.9001C9 11.4524 8.55228 11.9001 8 11.9001C7.44772 11.9001 7 11.4524 7 10.9001C7 10.1818 7.24696 9.58483 7.6907 9.14996C8.10727 8.74172 8.61929 8.55246 9.03514 8.46097C9.45728 8.3681 9.85982 8.35843 10.1427 8.36786C10.2875 8.37268 10.4094 8.38285 10.4977 8.39218C10.542 8.39686 10.5783 8.40139 10.6054 8.40503L10.639 8.40976L10.6504 8.41148L10.6547 8.41214L10.6564 8.41243L10.6572 8.41255Z" class="--primary-fill-color"/>
</svg>
