<svg width="30" height="30" viewBox="0 0 30 30" fill="none" xmlns="http://www.w3.org/2000/svg">
<path fill-rule="evenodd" clip-rule="evenodd" d="M5.74242 12.6115C7.09045 8.12 11.5731 5.43971 16.0483 6.11098C16.5944 6.19291 16.9708 6.70208 16.8889 7.24826C16.8069 7.79443 16.2978 8.17078 15.7516 8.08885C12.2271 7.56018 8.71011 9.67941 7.65775 13.1873L7.65714 13.1893C6.51595 16.964 8.72131 21.1035 12.4893 22.2427C16.264 23.3839 20.4036 21.1785 21.5427 17.4105L21.5468 17.397L21.5512 17.3837C21.9034 16.3272 21.9848 15.3922 21.8135 14.3643C21.7227 13.8195 22.0908 13.3043 22.6355 13.2135C23.1803 13.1227 23.6955 13.4907 23.7863 14.0355C24.0143 15.4031 23.8972 16.6642 23.453 18.0029C21.9865 22.8265 16.7313 25.6146 11.9105 24.1571C7.07887 22.6964 4.28428 17.4365 5.74242 12.6115Z" class="--primary-fill-color"/>
<path d="M19.0996 9.3999C19.6519 9.3999 20.0996 8.95219 20.0996 8.3999C20.0996 7.84762 19.6519 7.3999 19.0996 7.3999C18.5473 7.3999 18.0996 7.84762 18.0996 8.3999C18.0996 8.95219 18.5473 9.3999 19.0996 9.3999Z" class="--secondary-fill-color"/>
<path d="M21.5996 11.8999C22.1519 11.8999 22.5996 11.4522 22.5996 10.8999C22.5996 10.3476 22.1519 9.8999 21.5996 9.8999C21.0473 9.8999 20.5996 10.3476 20.5996 10.8999C20.5996 11.4522 21.0473 11.8999 21.5996 11.8999Z" class="--secondary-fill-color"/>
</svg>
