<svg width="30" height="30" viewBox="0 0 30 30" fill="none" xmlns="http://www.w3.org/2000/svg">
<g clip-path="url(#clip0)">
<path fill-rule="evenodd" clip-rule="evenodd" d="M10.6757 13.1193C10.886 12.6086 11.4704 12.3651 11.9811 12.5753L18.4717 15.2479L22.7479 14.1324C23.2823 13.993 23.8286 14.3132 23.968 14.8476C24.1074 15.382 23.7872 15.9282 23.2528 16.0676L18.6528 17.2676C18.4427 17.3224 18.2204 17.3074 18.0196 17.2247L11.2196 14.4247C10.7089 14.2144 10.4654 13.63 10.6757 13.1193Z" class="--secondary-fill-color"/>
<path fill-rule="evenodd" clip-rule="evenodd" d="M22.9998 14.0999C23.552 14.0999 23.9998 14.5476 23.9998 15.0999V21.2999C23.9998 21.8521 23.552 22.2999 22.9998 22.2999C22.4475 22.2999 21.9998 21.8521 21.9998 21.2999V15.0999C21.9998 14.5476 22.4475 14.0999 22.9998 14.0999Z" class="--secondary-fill-color"/>
<path fill-rule="evenodd" clip-rule="evenodd" d="M11.6003 12.5C12.1526 12.5 12.6003 12.9477 12.6003 13.5V19.7C12.6003 20.2523 12.1526 20.7 11.6003 20.7C11.0481 20.7 10.6003 20.2523 10.6003 19.7V13.5C10.6003 12.9477 11.0481 12.5 11.6003 12.5Z" class="--secondary-fill-color"/>
<path fill-rule="evenodd" clip-rule="evenodd" d="M7 7.7998C7.55228 7.7998 8 8.24752 8 8.7998V20.7998C8 21.3521 7.55228 21.7998 7 21.7998C6.44772 21.7998 6 21.3521 6 20.7998V8.7998C6 8.24752 6.44772 7.7998 7 7.7998Z" class="--primary-fill-color"/>
<path fill-rule="evenodd" clip-rule="evenodd" d="M11.3476 6.63224C11.5618 6.57634 11.7886 6.59314 11.9923 6.68001L18.4677 9.44157L22.728 8.23754C23.2595 8.08735 23.8121 8.39643 23.9623 8.9279C24.1125 9.45937 23.8034 10.012 23.272 10.1622L18.672 11.4622C18.4522 11.5243 18.2178 11.5093 18.0077 11.4197L11.5219 8.65369L7.25242 9.76747C6.71802 9.90688 6.17179 9.58668 6.03238 9.05228C5.89297 8.51788 6.21318 7.97165 6.74758 7.83224L11.3476 6.63224Z" class="--primary-fill-color"/>
<path fill-rule="evenodd" clip-rule="evenodd" d="M10.6753 19.3192C10.8856 18.8085 11.4701 18.565 11.9807 18.7753L18.4713 21.4479L22.7476 20.3324C23.282 20.1929 23.8282 20.5131 23.9676 21.0475C24.107 21.5819 23.7868 22.1282 23.2524 22.2676L18.6524 23.4676C18.4423 23.5224 18.22 23.5073 18.0192 23.4246L11.2192 20.6246C10.7086 20.4144 10.465 19.8299 10.6753 19.3192Z" class="--primary-fill-color"/>
<path fill-rule="evenodd" clip-rule="evenodd" d="M12.5674 19.4475C12.7068 19.9819 12.3866 20.5282 11.8522 20.6676L7.25218 21.8676C6.71778 22.007 6.17155 21.6868 6.03214 21.1524C5.89273 20.618 6.21293 20.0717 6.74733 19.9323L11.3473 18.7323C11.8817 18.5929 12.428 18.9131 12.5674 19.4475Z" class="--primary-fill-color"/>
</g>
<defs>
<clipPath id="clip0">
<path d="M0 0H30V30H0V0Z" fill="white"/>
</clipPath>
</defs>
</svg>
