<svg xmlns="http://www.w3.org/2000/svg" width="375" height="374" fill="none" viewBox="0 0 375 374">
    <rect width="205" height="330" x="393" y="353" fill="#242725" rx="102.5" transform="rotate(-180 393 353)"/>
    <ellipse cx="16.5" cy="251" fill="#242725" rx="110.5" ry="110" transform="rotate(-180 16.5 251)"/>
    <ellipse fill="#fff" opacity=".1" rx="15.367" ry="1.661" transform="matrix(-1 0 0 1 53.504 371.659)"/>
    <path fill="#fff" d="M29.772 304.746c14.743 4.241 23.14 18.572 25.546 25.363.02.053.028.106.028.162v.524c0 .259-.208.477-.466.497-23.022 1.81-26.76-16.28-25.727-26.137.032-.301.328-.493.62-.409zM55.08 336.754v-2.142c0-.104.031-.205.092-.289 2.95-4.148 6.642-9.23 13.238-11.868 6.23-2.492 12.227-4.984 16.25-8.129.331-.26.827-.038.822.384-.057 5.221-1.692 12.432-8.008 17.343-4.677 3.637-9.694 2.441-21.775 5.189-.314.071-.62-.166-.62-.488zM52.132 295.211c-15.455-1.587-17.713-18.399-16.867-27.419.034-.367.446-.56.755-.359 7.02 4.544 10.584 7.388 12.393 10.231 2.93 4.604 2.403 8.242 4.248 15.132.012.042.018.087.018.131v1.793c0 .291-.257.521-.547.491zM53.877 303.655c14.126 2.57 19.662-9.884 20.82-17.212.058-.362-.292-.647-.64-.528-3.369 1.152-4.33 1.683-8.314 2.68-4.266 1.066-6.856 3.999-8.265 6.398-1.328 2.262-2.284 4.76-3.952 7.941-.155.296.022.662.35.721z" opacity=".1"/>
    <path fill="#fff" fill-rule="evenodd" d="M53.598 284.439c-.38-.065-.743.19-.809.571-.448 2.599-1.076 8.373-1.076 10.784 0 2.865.745 7.993 1.474 12.802l.222 1.458c.29 1.898.566 3.713.785 5.294.276 1.996.452 3.564.452 4.44v.423c.001 4.223.006 16.632-1.06 24.814-.937 7.176-.5 16.151-.175 22.823.064 1.333.125 2.573.169 3.69.015.386.34.687.727.671.386-.015.687-.34.672-.727-.045-1.141-.106-2.4-.172-3.747-.324-6.68-.751-15.492.166-22.529 1.08-8.277 1.075-20.764 1.073-24.981v-.437c0-.989-.191-2.654-.465-4.632-.22-1.591-.5-3.419-.789-5.319l-.22-1.451c-.737-4.856-1.46-9.859-1.46-12.592 0-2.302.617-7.99 1.057-10.546.066-.381-.19-.743-.57-.809z" clip-rule="evenodd"/>
    <path fill="#fff" fill-rule="evenodd" d="M36.304 333.598c-.204.132-.324.36-.319.602.096 4.495 3.904 14.02 17.85 17.724l.36-1.353c-12.162-3.23-16.045-10.977-16.704-15.25 1.407.619 2.613 1.068 3.674 1.464.283.105.556.207.82.307 1.503.571 2.697 1.085 3.885 1.952 4.308 3.146 6.687 7.057 7.487 9.245l1.315-.481c-.894-2.444-3.442-6.583-7.976-9.894-1.346-.983-2.686-1.55-4.214-2.131l-.84-.315c-1.326-.494-2.822-1.052-4.659-1.917-.22-.103-.476-.085-.68.047zM76.902 336.889c-.191-.191-.476-.255-.73-.164-14.54 5.208-21.322 16.965-22.972 22.282-.115.369.092.761.46.876.37.115.762-.092.877-.461 1.5-4.831 7.651-15.624 20.773-20.874-.322 1.187-.51 2.301-.689 3.373l-.091.541c-.282 1.651-.604 3.243-1.425 5.027-1.491 3.241-3.453 6.187-6.967 8.686-1.51 1.073-2.916 1.547-4.832 2.089l-.795.222c-1.784.495-3.978 1.104-6.903 2.274-.359.144-.533.551-.39.91.144.359.551.534.91.39 2.85-1.14 4.973-1.73 6.754-2.224.276-.077.544-.151.805-.225 1.95-.552 3.549-1.077 5.262-2.295 3.769-2.68 5.867-5.848 7.428-9.242.9-1.955 1.246-3.696 1.533-5.376l.092-.545c.25-1.49.493-2.932 1.065-4.533.09-.255.027-.54-.165-.731zM74.052 307.128c-.138-.2-.368-.314-.61-.303-4.753.221-8.857 2.108-12.041 4.353-3.18 2.241-5.482 4.865-6.64 6.626-.162.246-.149.557.01.784-.066.094-.109.206-.122.328-.04.385.24.729.624.769 9.625 1 14.323-2.69 15.584-4.573.584-.872.939-1.658 1.375-2.735.102-.253.21-.522.325-.814.378-.949.85-2.135 1.56-3.758.096-.222.072-.478-.065-.677zm-17.974 11.226c1.11-1.617 3.228-3.987 6.13-6.032 2.769-1.952 6.222-3.586 10.166-4.011-.477 1.123-.83 2.013-1.122 2.746-.114.288-.22.551-.318.795-.425 1.05-.737 1.73-1.24 2.481-.89 1.33-4.853 4.747-13.616 4.021zM39.68 294.207c-.175.158-.258.393-.223.626.455 2.958 1.733 7.449 4.106 11.355 2.371 3.902 5.907 7.329 10.904 7.897.384.044.73-.232.775-.617.043-.384-.233-.731-.617-.774-4.388-.499-7.606-3.515-9.865-7.233-1.982-3.262-3.17-6.981-3.724-9.747 8.634 2.787 11.792 10.62 12.283 14.302.051.383.403.652.786.601.384-.051.653-.403.602-.786-.556-4.169-4.2-13.125-14.381-15.781-.228-.06-.47-.001-.646.157z" clip-rule="evenodd"/>
    <ellipse fill="#fff" opacity=".1" rx="17.267" ry="1.867" transform="matrix(-1 0 0 1 355.59 371.596)"/>
    <path fill="#fff" fill-rule="evenodd" d="M361.667 281.681c-.818-.94-1.866-1.647-3.019-1.288-1.325.413-2.363 1.53-3.181 2.979-.825 1.46-1.482 3.356-2.003 5.504-1.044 4.3-1.573 9.745-1.727 15.077-.097 3.385-.044 6.739.129 9.745-.374-.616-.725-1.197-1.033-1.724l-.015-.024c-1.682-2.62-3.712-5.521-5.738-8.018-2.008-2.476-4.07-4.628-5.819-5.679-.862-.517-1.791-.855-2.655-.657-.936.214-1.529.98-1.848 2.04-.317 1.05-.415 2.52-.294 4.448.121 1.941.468 4.397 1.078 7.448 1.053 5.266 2.531 9.871 4.14 13.764-1.753-1.772-4.094-3.354-6.45-4.507-2.378-1.164-4.846-1.927-6.798-1.962-.974-.018-1.898.144-2.615.607-.753.486-1.199 1.255-1.272 2.252-.069.959.206 2.114.813 3.464.611 1.359 1.583 2.969 2.972 4.86 5.527 7.522 11.808 13.509 15.512 17.011l.253.24c.385.363.737.696 1.054.999l-.315-.157c-4.336-2.168-7.891-3.679-10.736-4.629-2.831-.945-5.016-1.356-6.59-1.273-.792.042-1.479.211-2.021.546-.56.345-.93.846-1.093 1.461-.307 1.161.153 2.603.992 4.102 1.712 3.06 5.403 7.05 10.391 11.132 5.004 4.094 11.364 8.324 18.473 11.848.346.171.766.03.938-.316.172-.347.03-.767-.316-.939-7.012-3.476-13.284-7.647-18.208-11.677-4.94-4.042-8.471-7.899-10.057-10.731-.81-1.448-1.018-2.463-.86-3.061.07-.264.216-.468.474-.628.276-.17.71-.304 1.361-.339 1.31-.069 3.295.275 6.072 1.203 2.763.923 6.254 2.403 10.554 4.553 1.163.581 2.001.972 2.536 1.163.136.049.267.09.387.118.109.025.261.052.421.037.155-.015.502-.097.664-.467.132-.303.028-.577-.01-.667-.091-.22-.272-.444-.436-.632-.183-.21-.422-.459-.705-.74-.511-.509-1.196-1.156-2.005-1.921l-.257-.242c-3.699-3.498-9.899-9.411-15.345-16.823-1.354-1.843-2.266-3.366-2.823-4.605-.561-1.248-.739-2.157-.693-2.789.043-.595.28-.948.635-1.177.39-.252.997-.399 1.83-.383 1.663.03 3.919.7 6.208 1.82 2.278 1.115 4.513 2.638 6.138 4.304.96.984 1.845 1.912 2.659 2.786 2.581 5.252 5.228 8.752 6.845 10.312.38.367.733.656 1.038.834.149.086.331.173.529.208s.541.032.807-.247c.238-.25.252-.56.243-.728-.011-.189-.062-.383-.127-.566-.129-.37-.363-.834-.694-1.384-1.091-1.816-3.421-4.867-7.475-9.231-2.16-4.435-4.283-10.165-5.665-17.077-.603-3.016-.938-5.406-1.054-7.261-.117-1.868-.008-3.143.237-3.957.243-.805.569-1.022.82-1.079.322-.074.849.028 1.622.492 1.521.914 3.451 2.894 5.453 5.361 1.982 2.443 3.978 5.294 5.639 7.881.39.664.832 1.393 1.295 2.155.382.63.778 1.283 1.169 1.94.055.587.115 1.153.18 1.694.235 1.964.535 3.627.893 4.813.177.588.38 1.102.621 1.482.216.342.598.788 1.19.788.557 0 1.088-.175 1.427-.644.311-.433.349-.971.301-1.451-.097-.961-.602-2.206-1.239-3.493-.564-1.141-1.276-2.395-2.007-3.631-.319-3.567-.453-7.929-.325-12.355.152-5.284.676-10.621 1.687-14.787.506-2.085 1.126-3.843 1.862-5.146.743-1.315 1.547-2.071 2.379-2.33.299-.094.801.014 1.546.87.712.819 1.466 2.131 2.205 3.842 1.473 3.406 2.815 8.211 3.675 13.279.859 5.068 1.227 10.35.78 14.714-.017.167-.036.333-.055.498-1.824 2.481-3.375 4.871-4.271 6.587-.261.501-.474.957-.621 1.35-.14.372-.252.762-.245 1.101.004.173.04.415.2.632.182.246.445.355.694.373.222.015.432-.04.601-.104.177-.067.362-.163.552-.279 1.397-.849 2.414-2.251 3.136-3.964.627-1.487 1.046-3.242 1.298-5.159.223-.302.452-.605.683-.909 2.189-2.871 4.661-5.736 6.829-7.7 1.089-.987 2.067-1.715 2.871-2.113.846-.419 1.268-.364 1.459-.237.147.098.372.385.563 1.017.183.608.305 1.436.334 2.461.056 2.047-.263 4.789-1.112 7.935-.604 2.234-1.472 4.663-2.655 7.181-2.265 1.686-4.438 4.003-6.255 6.288-2.155 2.712-3.857 5.443-4.642 7.142-.196.424-.347.81-.43 1.13-.041.157-.073.328-.075.495-.002.145.017.417.212.65.24.286.573.322.802.286.204-.033.385-.126.523-.211.288-.177.628-.472 1.018-.861 4.527-4.528 7.753-9.393 9.96-13.999.299-.214.599-.416.898-.603 2.536-1.583 4.834-1.992 6.69-.717.387.266.8.876.852 2.08.052 1.207-.267 2.947-1.286 5.316-2.036 4.736-6.792 11.821-16.474 21.876-.254.263-.262.678-.018.951.244.274.657.313.947.09 3.093-2.367 6.862-4.386 10.087-5.587 1.614-.602 3.064-.988 4.208-1.12.572-.066 1.042-.066 1.407-.009.369.057.575.163.682.261.128.116.347.467-.166 1.553-.496 1.05-1.573 2.518-3.442 4.475-3.726 3.901-10.443 9.578-21.4 17.504-.313.227-.383.665-.156.978.226.313.664.383.977.157 10.977-7.941 17.776-13.678 21.591-17.672 1.902-1.99 3.102-3.589 3.696-4.843.576-1.219.697-2.409-.156-3.187-.383-.349-.888-.529-1.412-.61-.529-.082-1.134-.073-1.782.002-1.296.15-2.863.575-4.536 1.199-1.77.659-3.691 1.552-5.582 2.61 7.155-7.936 10.992-13.833 12.816-18.076 1.066-2.48 1.462-4.437 1.398-5.928-.065-1.494-.601-2.584-1.458-3.173-2.284-1.571-4.9-1.133-7.355.178.787-1.892 1.403-3.721 1.867-5.441.877-3.248 1.221-6.128 1.16-8.338-.03-1.104-.162-2.063-.393-2.828-.224-.739-.573-1.408-1.127-1.777-.859-.573-1.925-.314-2.856.147-.975.483-2.066 1.311-3.19 2.33-2.033 1.843-4.288 4.411-6.334 7.024.227-4.144-.163-8.857-.927-13.36-.872-5.144-2.24-10.063-3.77-13.601-.762-1.762-1.583-3.227-2.434-4.205zm14.131 44.763c-1.919 3.365-4.413 6.802-7.595 10.075.823-1.592 2.312-3.916 4.17-6.255 1.054-1.325 2.214-2.64 3.425-3.82zm-9.197-8.214c-.18.666-.389 1.286-.629 1.855-.589 1.397-1.346 2.447-2.273 3.113.118-.29.281-.635.487-1.03.558-1.068 1.397-2.435 2.415-3.938zm-12.711 1.733c.113.215.221.428.325.637.636 1.284 1.031 2.328 1.1 3.013.035.344-.027.467-.045.492-.003.005-.009.014-.038.026-.027.011-.078.026-.162.033-.022-.025-.055-.066-.097-.133-.141-.223-.301-.596-.464-1.137-.225-.75-.434-1.742-.619-2.931zm1.215 4.234l-.005-.003.005.003zm-6.735 13.329c-.559-.837-1.337-1.889-2.369-3.161.874 1.316 1.683 2.372 2.369 3.161z" clip-rule="evenodd"/>
    <path stroke="#fff" stroke-linecap="round" stroke-linejoin="round" stroke-width="1.4" d="M243.697 14.597c.831-9.553-9.968-19.105-20.35-5.815-.831-5.814-13.291-13.29-21.597-1.66-2.492-4.846-14.536-9.969-25.749 3.322M47 185c.758-14.354 21.97-22.664 31.06-9.066 2.273-12.843 35.607-27.197 43.94 9.066M352.192 79.94c-2.215-8.168-13.29-19.935-25.749-4.153-2.077-4.984-13.706-7.476-17.443 7.89" opacity=".1"/>
    <ellipse fill="#fff" opacity=".1" rx="15.5" ry="2" transform="matrix(-1 0 0 1 125.5 371)"/>
    <ellipse fill="#fff" opacity=".1" rx="15.5" ry="2" transform="matrix(-1 0 0 1 207.5 371)"/>
    <ellipse fill="#fff" opacity=".1" rx="36.5" ry="2.5" transform="matrix(-1 0 0 1 267.5 371.5)"/>
    <path stroke="#fff" stroke-linecap="round" stroke-linejoin="round" stroke-miterlimit="10" stroke-width="5" d="M132.712 250.15l15.759 23.587M132.704 250.143c7.058-4.713 7.227-16.848.377-27.104-6.849-10.256-18.123-14.749-25.181-10.035-7.058 4.713-7.226 16.849-.377 27.104 6.85 10.256 18.124 14.749 25.181 10.035z"/>
    <path fill="#181C19" stroke="#fff" stroke-linecap="round" stroke-linejoin="round" stroke-miterlimit="10" stroke-width="1.4" d="M216.194 211.144c-3.56-3.9-8.272-2.12-10.262-1.413-2.539.89-5.078.968-6.23.837-1.649-.209-2.382-.733-3.613-1.989 0 0-2.12-2.854-4.424-4.451 0 0 3.037-3.35 2.513-7.173 0 0 4.032-2.46 10.576-3.455 1.885-.288 3.848-.314 5.629.131 2.565.628 2.879 1.518 2.251 2.303 0 0 1.204.053 7.487-.994.445 1.963 2.487 4.057 3.665 5.235.262.236-7.016 10.419-7.592 10.969z"/>
    <path stroke="#fff" stroke-linecap="round" stroke-linejoin="round" stroke-miterlimit="10" stroke-width="1.4" d="M208.367 198.317s3.351-1.283 4.293-2.539"/>
    <path fill="#303331" stroke="#fff" stroke-linecap="round" stroke-linejoin="round" stroke-miterlimit="10" stroke-width="1.4" d="M190.251 185.594c9.922-18.063 27.88-4.084 29.87 9.32-7.069 1.309-7.54.942-7.54.942.628-.785.314-1.675-2.251-2.304-1.728-.366-3.691-.34-5.629-.13.236-.158-7.094-5.236-14.45-7.828z"/>
    <path fill="#fff" stroke="#fff" stroke-linecap="round" stroke-linejoin="round" stroke-miterlimit="10" stroke-width="1.4" d="M177.816 185.778c2.696-2.461 7.566-1.859 12.382-.157 7.383 2.487 14.687 7.539 14.399 7.748-6.44 1.021-10.603 3.456-10.603 3.456-8.01.681-21.257-6.283-16.178-11.047z"/>
    <path fill="#303331" stroke="#fff" stroke-linecap="round" stroke-linejoin="round" stroke-miterlimit="10" stroke-width="1.4" d="M197.713 282.297c-11.571 2.513-21.414 7.775-29.32 13.43-11.911-11.178 6.021-21.493 6.021-21.493 7.461 3.273 15.733 6.362 23.299 8.063zM219.701 364.759c-.759 3.404-3.848 5.812-7.33 5.812h-13.142c-.575 0-1.151-.131-1.623-.445-.733-.471-1.204-1.283 1.048-2.461 3.717-1.937 10.994-3.717 7.277-9.607-3.717-5.89-17.775-19.163-23.639-34.137 10.524-3.534 17.67-2.696 25.629-1.414l.523.262s4.503 24.974 9.451 32.566c1.989 3.037 2.303 7.121 1.806 9.424z"/>
    <path fill="#fff" stroke="#fff" stroke-linecap="round" stroke-linejoin="round" stroke-miterlimit="10" stroke-width="1.4" d="M278.551 299.654c-29.739 4.738-42.723-23.352-42.723-23.352-12.723-25.183-33.378-24.581-33.378-24.581.183-.131.341-.262.524-.393 27.749-20.34 13.246-40.184 13.246-40.184.55-.549 7.854-10.733 7.592-10.995 0 0 55.42 7.042 61.702 59.059 2.147 17.854-1.387 30.969-6.963 40.446z"/>
    <path fill="#303331" stroke="#fff" stroke-linecap="round" stroke-linejoin="round" stroke-miterlimit="10" stroke-width="1.4" d="M278.525 299.653c-8.953 15.184-23.22 21.074-27.88 22.357-7.173 1.937-13.22 2.827-25.995 2.461-6.545-.184-11.806-1.152-16.728-1.938-7.958-1.282-15.105-2.12-25.629 1.414-.497.157-1.021.34-1.518.524-15.707 5.733-34.346 34.372-44.268 43.456-1.885 1.701-4.319 2.644-6.858 2.644h-10.995s-4.189.052 0-2.801c4.188-2.854 9.398-5.315 12.199-12.278s14.529-38.823 23.115-47.409c3.691-3.691 8.534-8.115 14.451-12.356 7.932-5.655 17.775-10.917 29.32-13.43 0 0 28.168.89 38.089-5.995-.026 0 12.985 28.09 42.697 23.351z"/>
    <path fill="#181C19" stroke="#fff" stroke-linecap="round" stroke-linejoin="round" stroke-miterlimit="10" stroke-width="1.4" d="M235.801 276.303c-9.922 6.884-38.09 5.994-38.09 5.994-7.565-1.727-15.838-4.816-23.298-8.063-4.503-1.963-8.718-3.952-12.331-5.759-7.382-3.691-15.314-6.178-23.508-7.382-10.733-1.597-9.738-3.089-9.738-3.089s1.832-4.267 34.267-2.094c29.896 1.989 38.221-3.377 39.347-4.215 0 .026 20.654-.576 33.351 24.608z"/>
    <path stroke="#fff" stroke-linecap="round" stroke-linejoin="round" stroke-miterlimit="10" stroke-width="5" d="M290.383 268.475s3.561 53.273-50.027 59.765v41.305M293.5 369l-27.91-49.11"/>
</svg>
