<svg xmlns="http://www.w3.org/2000/svg" width="487" height="374" fill="none" viewBox="0 0 487 374">
    <rect width="205" height="330" x="487" y="352.7" fill="#F3F3F3" rx="102.5" transform="rotate(-180 487 352.7)"/>
    <ellipse cx="110.5" cy="250.7" fill="#F3F3F3" rx="110.5" ry="110" transform="rotate(-180 110.5 250.7)"/>
    <ellipse fill="#181C19" opacity=".1" rx="15.367" ry="1.661" transform="matrix(-1 0 0 1 147.504 371.359)"/>
    <path fill="#fff" d="M123.772 304.446c14.743 4.242 23.14 18.572 25.546 25.363.019.053.028.106.028.163v.524c0 .258-.208.476-.467.496-23.021 1.81-26.759-16.28-25.726-26.137.032-.301.328-.493.619-.409zM149.079 336.454v-2.142c0-.104.032-.205.093-.289 2.95-4.147 6.642-9.229 13.238-11.868 6.23-2.492 12.227-4.984 16.249-8.129.332-.26.828-.038.823.384-.057 5.221-1.692 12.432-8.008 17.343-4.677 3.637-9.694 2.441-21.774 5.189-.315.071-.621-.165-.621-.488zM146.132 294.911c-15.455-1.587-17.713-18.398-16.867-27.419.034-.367.446-.56.756-.359 7.019 4.545 10.583 7.388 12.392 10.231 2.929 4.604 2.403 8.242 4.248 15.132.012.043.018.087.018.131v1.793c0 .291-.257.521-.547.491zM147.877 303.355c14.126 2.57 19.662-9.884 20.821-17.212.057-.362-.293-.647-.64-.528-3.37 1.153-4.33 1.684-8.315 2.68-4.266 1.066-6.856 3.999-8.265 6.398-1.328 2.262-2.284 4.76-3.952 7.941-.155.296.022.662.351.721z"/>
    <path fill="#181C19" fill-rule="evenodd" d="M147.598 284.14c-.381-.066-.743.19-.808.571-.449 2.598-1.077 8.373-1.077 10.783 0 2.865.745 7.993 1.474 12.802l.222 1.458c.29 1.898.566 3.714.785 5.294.276 1.996.452 3.564.452 4.44v.423c.001 4.223.006 16.632-1.061 24.815-.936 7.175-.499 16.15-.175 22.822.065 1.333.126 2.574.17 3.69.015.386.34.687.727.672.386-.016.687-.341.672-.728-.045-1.141-.107-2.4-.172-3.747-.324-6.68-.751-15.492.166-22.528 1.08-8.278 1.074-20.765 1.073-24.982v-.437c0-.989-.192-2.654-.465-4.632-.22-1.591-.499-3.419-.789-5.318l-.221-1.452c-.736-4.856-1.458-9.859-1.458-12.592 0-2.302.616-7.99 1.056-10.546.066-.381-.19-.743-.571-.808z" clip-rule="evenodd"/>
    <path fill="#181C19" fill-rule="evenodd" d="M130.304 333.298c-.203.132-.324.36-.319.602.096 4.495 3.904 14.02 17.85 17.724l.359-1.353c-12.161-3.23-16.044-10.977-16.703-15.25 1.407.619 2.613 1.068 3.674 1.464.283.106.556.207.82.307 1.503.571 2.697 1.085 3.885 1.952 4.308 3.146 6.687 7.057 7.487 9.245l1.315-.481c-.894-2.444-3.442-6.583-7.976-9.894-1.346-.983-2.686-1.55-4.214-2.13l-.84-.316c-1.326-.494-2.822-1.052-4.659-1.916-.219-.104-.476-.086-.679.046zM170.902 336.589c-.191-.191-.476-.255-.731-.164-14.54 5.209-21.321 16.965-22.971 22.282-.115.369.092.762.461.876.369.115.761-.092.876-.461 1.499-4.831 7.651-15.624 20.773-20.873-.322 1.186-.509 2.3-.689 3.372l-.091.542c-.282 1.65-.604 3.243-1.425 5.026-1.491 3.241-3.453 6.187-6.967 8.686-1.51 1.073-2.916 1.547-4.832 2.089l-.795.222c-1.784.495-3.978 1.105-6.903 2.274-.359.144-.533.551-.39.91.144.359.551.534.91.39 2.849-1.139 4.973-1.729 6.754-2.224.276-.077.544-.151.805-.225 1.95-.551 3.549-1.077 5.262-2.295 3.769-2.679 5.867-5.848 7.428-9.241.9-1.956 1.246-3.696 1.533-5.377l.092-.545c.25-1.489.493-2.932 1.065-4.533.091-.255.027-.54-.165-.731zM168.052 306.828c-.138-.2-.368-.314-.61-.303-4.754.221-8.857 2.109-12.041 4.353-3.181 2.242-5.482 4.865-6.64 6.626-.162.246-.149.557.01.785-.066.094-.109.205-.122.327-.04.385.24.729.624.769 9.625 1 14.323-2.69 15.584-4.573.584-.871.939-1.658 1.375-2.735.102-.252.209-.522.325-.813.378-.95.849-2.136 1.559-3.759.097-.222.073-.478-.064-.677zm-17.974 11.226c1.11-1.617 3.228-3.987 6.129-6.032 2.77-1.952 6.223-3.586 10.167-4.011-.477 1.123-.831 2.013-1.122 2.746-.115.288-.219.551-.318.795-.425 1.05-.737 1.73-1.24 2.481-.891 1.33-4.853 4.747-13.616 4.021zM133.68 293.907c-.175.158-.258.394-.223.626.455 2.958 1.733 7.449 4.106 11.355 2.371 3.902 5.907 7.329 10.904 7.897.384.044.731-.232.775-.616.043-.385-.233-.731-.617-.775-4.388-.499-7.606-3.514-9.865-7.233-1.982-3.262-3.171-6.98-3.724-9.747 8.635 2.787 11.792 10.62 12.283 14.302.051.383.403.653.786.601.384-.051.653-.403.602-.786-.556-4.169-4.2-13.125-14.381-15.781-.228-.06-.471-.001-.646.157z" clip-rule="evenodd"/>
    <ellipse fill="#181C19" opacity=".1" rx="17.267" ry="1.867" transform="matrix(-1 0 0 1 449.589 371.296)"/>
    <path fill="#181C19" fill-rule="evenodd" d="M455.667 281.381c-.818-.94-1.866-1.647-3.019-1.288-1.325.414-2.363 1.53-3.181 2.979-.825 1.46-1.482 3.356-2.004 5.504-1.043 4.3-1.572 9.746-1.726 15.077-.097 3.385-.044 6.74.128 9.745-.373-.616-.724-1.197-1.032-1.723l-.015-.024c-1.682-2.621-3.712-5.521-5.738-8.019-2.008-2.476-4.07-4.628-5.819-5.679-.863-.517-1.791-.855-2.655-.657-.936.214-1.529.98-1.848 2.04-.317 1.05-.415 2.52-.294 4.448.121 1.941.468 4.397 1.078 7.449 1.053 5.265 2.531 9.87 4.14 13.763-1.753-1.772-4.094-3.354-6.45-4.507-2.378-1.163-4.846-1.926-6.798-1.962-.974-.018-1.898.144-2.615.607-.753.486-1.2 1.255-1.272 2.252-.069.96.206 2.114.813 3.464.611 1.359 1.582 2.969 2.972 4.86 5.527 7.522 11.808 13.509 15.511 17.011l.254.24c.385.363.737.696 1.054.999l-.315-.157c-4.336-2.168-7.891-3.678-10.736-4.629-2.831-.945-5.016-1.356-6.59-1.272-.792.042-1.479.211-2.021.545-.56.345-.93.846-1.093 1.461-.307 1.161.153 2.603.992 4.103 1.712 3.06 5.403 7.049 10.391 11.131 5.004 4.094 11.364 8.324 18.473 11.848.346.172.766.03.938-.316.172-.347.03-.767-.316-.938-7.012-3.476-13.284-7.648-18.208-11.677-4.94-4.043-8.471-7.9-10.057-10.732-.81-1.447-1.018-2.463-.86-3.061.07-.264.216-.468.474-.627.276-.17.71-.305 1.361-.339 1.31-.07 3.295.275 6.072 1.202 2.763.923 6.254 2.403 10.554 4.553 1.163.582 2.001.972 2.536 1.163.136.049.267.09.387.118.109.025.261.052.421.037.155-.015.502-.096.664-.466.132-.303.028-.577-.01-.668-.091-.219-.272-.444-.436-.632-.183-.21-.422-.459-.705-.74-.511-.509-1.196-1.156-2.005-1.921l-.257-.242c-3.699-3.498-9.899-9.411-15.345-16.823-1.354-1.843-2.266-3.366-2.823-4.605-.561-1.248-.739-2.157-.693-2.789.043-.595.28-.948.635-1.177.39-.252.997-.399 1.83-.383 1.663.03 3.919.7 6.208 1.82 2.278 1.115 4.513 2.638 6.138 4.304.96.984 1.845 1.912 2.659 2.786 2.581 5.252 5.228 8.752 6.845 10.312.38.367.733.656 1.038.834.149.086.331.174.528.208.199.035.542.032.808-.247.238-.25.252-.56.243-.728-.011-.189-.063-.383-.127-.565-.129-.37-.364-.835-.694-1.385-1.091-1.815-3.421-4.867-7.475-9.231-2.16-4.435-4.283-10.164-5.665-17.077-.603-3.015-.938-5.405-1.054-7.261-.117-1.868-.009-3.143.237-3.957.243-.805.569-1.022.82-1.079.322-.074.849.028 1.622.493 1.521.913 3.451 2.893 5.453 5.36 1.982 2.443 3.978 5.294 5.639 7.881.39.664.832 1.393 1.295 2.156.382.629.778 1.282 1.169 1.939.055.587.115 1.153.18 1.694.235 1.964.535 3.627.893 4.813.177.589.38 1.102.621 1.482.216.342.598.789 1.19.789.557 0 1.088-.175 1.427-.645.311-.433.349-.971.301-1.451-.097-.961-.602-2.206-1.239-3.493-.564-1.14-1.276-2.395-2.007-3.631-.319-3.567-.453-7.929-.325-12.355.152-5.284.676-10.621 1.687-14.787.506-2.085 1.126-3.843 1.862-5.146.742-1.315 1.547-2.071 2.379-2.33.299-.094.801.014 1.546.87.712.819 1.465 2.131 2.205 3.842 1.473 3.407 2.815 8.211 3.675 13.279.859 5.068 1.227 10.35.78 14.714-.017.167-.036.334-.055.498-1.824 2.481-3.375 4.871-4.271 6.587-.261.501-.474.957-.621 1.35-.14.372-.252.762-.245 1.101.004.173.04.416.2.632.182.246.445.355.694.373.222.016.432-.04.601-.104.177-.067.362-.163.552-.278 1.397-.85 2.414-2.252 3.136-3.965.627-1.487 1.046-3.242 1.298-5.159.223-.302.452-.605.683-.909 2.189-2.871 4.661-5.736 6.829-7.7 1.089-.987 2.067-1.715 2.871-2.113.846-.419 1.268-.364 1.459-.237.147.098.372.385.563 1.017.183.608.305 1.436.334 2.461.056 2.047-.263 4.79-1.112 7.935-.604 2.235-1.472 4.664-2.655 7.181-2.265 1.686-4.439 4.003-6.255 6.288-2.155 2.712-3.857 5.443-4.642 7.142-.196.424-.347.81-.43 1.13-.041.157-.073.328-.075.495-.002.145.017.417.212.65.24.286.573.322.802.286.204-.033.385-.126.523-.211.288-.177.628-.472 1.018-.861 4.527-4.527 7.753-9.393 9.96-13.998.299-.215.598-.417.898-.603 2.536-1.584 4.834-1.993 6.69-.717.387.266.8.875.852 2.079.052 1.208-.268 2.947-1.286 5.316-2.036 4.736-6.792 11.821-16.474 21.876-.254.264-.262.679-.018.952.244.273.657.312.947.089 3.093-2.367 6.862-4.385 10.087-5.587 1.614-.602 3.064-.988 4.208-1.12.572-.066 1.042-.066 1.406-.009.369.057.576.163.683.261.128.117.347.467-.166 1.553-.496 1.05-1.573 2.519-3.442 4.475-3.726 3.901-10.443 9.578-21.4 17.505-.313.226-.383.664-.157.977.227.313.665.383.978.157 10.977-7.941 17.776-13.678 21.591-17.671 1.901-1.991 3.102-3.589 3.696-4.844.576-1.218.697-2.409-.156-3.186-.383-.35-.888-.529-1.412-.611-.529-.082-1.134-.073-1.782.002-1.296.15-2.863.575-4.536 1.199-1.77.659-3.691 1.552-5.582 2.61 7.155-7.936 10.992-13.833 12.816-18.075 1.066-2.481 1.462-4.438 1.397-5.929-.064-1.494-.6-2.584-1.457-3.173-2.284-1.57-4.9-1.133-7.355.179.787-1.893 1.403-3.722 1.867-5.442.877-3.248 1.221-6.128 1.16-8.338-.03-1.104-.162-2.063-.393-2.827-.224-.74-.573-1.409-1.127-1.778-.859-.573-1.925-.314-2.856.147-.975.483-2.066 1.312-3.19 2.33-2.033 1.843-4.288 4.411-6.334 7.024.226-4.144-.164-8.857-.927-13.36-.872-5.144-2.24-10.063-3.77-13.601-.762-1.762-1.583-3.227-2.434-4.205zm14.131 44.763c-1.919 3.366-4.413 6.803-7.595 10.075.823-1.592 2.312-3.916 4.17-6.255 1.054-1.325 2.214-2.64 3.425-3.82zm-9.197-8.214c-.18.666-.389 1.286-.629 1.855-.589 1.398-1.347 2.447-2.273 3.113.118-.289.281-.635.487-1.03.558-1.068 1.397-2.435 2.415-3.938zm-12.711 1.733c.113.215.221.428.325.637.635 1.285 1.031 2.328 1.1 3.013.035.344-.027.468-.045.492-.003.005-.01.014-.038.026-.027.012-.078.027-.162.033-.022-.025-.055-.066-.097-.133-.141-.223-.301-.596-.464-1.137-.225-.75-.434-1.742-.619-2.931zm1.215 4.235l-.005-.004.005.004zm-6.735 13.328c-.559-.837-1.337-1.888-2.369-3.161.874 1.316 1.683 2.373 2.369 3.161z" clip-rule="evenodd"/>
    <path stroke="#fff" stroke-linecap="round" stroke-linejoin="round" stroke-width="1.4" d="M337.697 14.297c.831-9.552-9.968-19.105-20.35-5.814-.831-5.815-13.291-13.29-21.597-1.662-2.492-4.845-14.536-9.967-25.749 3.323M141 184.7c.758-14.354 21.97-22.664 31.061-9.065 2.272-12.844 35.606-27.198 43.939 9.065M446.192 79.64c-2.215-8.168-13.29-19.935-25.749-4.153-2.077-4.984-13.706-7.476-17.443 7.89"/>
    <ellipse fill="#181C19" opacity=".1" rx="15.5" ry="2" transform="matrix(-1 0 0 1 219.5 370.7)"/>
    <ellipse fill="#181C19" opacity=".1" rx="15.5" ry="2" transform="matrix(-1 0 0 1 301.5 370.7)"/>
    <ellipse fill="#181C19" opacity=".1" rx="36.5" ry="2.5" transform="matrix(-1 0 0 1 361.5 371.2)"/>
    <path stroke="#181C19" stroke-linecap="round" stroke-linejoin="round" stroke-miterlimit="10" stroke-width="5" d="M226.712 249.851l15.759 23.586"/>
    <path fill="#fff" stroke="#181C19" stroke-linecap="round" stroke-linejoin="round" stroke-miterlimit="10" stroke-width="5" d="M226.704 249.844c7.058-4.714 7.227-16.849.377-27.105-6.849-10.256-18.123-14.749-25.181-10.035s-7.226 16.849-.377 27.105c6.85 10.255 18.124 14.748 25.181 10.035z"/>
    <path fill="#F3F3F3" stroke="#181C19" stroke-linecap="round" stroke-linejoin="round" stroke-miterlimit="10" stroke-width="1.4" d="M310.194 210.844c-3.56-3.9-8.272-2.12-10.262-1.413-2.539.89-5.078.968-6.23.837-1.649-.209-2.382-.733-3.613-1.989 0 0-2.12-2.854-4.424-4.45 0 0 3.037-3.351 2.513-7.173 0 0 4.032-2.461 10.576-3.456 1.885-.288 3.848-.314 5.629.131 2.565.628 2.879 1.518 2.251 2.304 0 0 1.204.052 7.487-.995.445 1.963 2.487 4.058 3.665 5.236.262.235-7.016 10.419-7.592 10.968z"/>
    <path stroke="#181C19" stroke-linecap="round" stroke-linejoin="round" stroke-miterlimit="10" stroke-width="1.4" d="M302.367 198.017s3.351-1.282 4.293-2.539"/>
    <path fill="#fff" stroke="#181C19" stroke-linecap="round" stroke-linejoin="round" stroke-miterlimit="10" stroke-width="1.4" d="M284.251 185.294c9.922-18.063 27.88-4.083 29.87 9.32-7.069 1.309-7.54.942-7.54.942.628-.785.314-1.675-2.251-2.303-1.728-.367-3.691-.341-5.629-.131.236-.157-7.094-5.236-14.45-7.828z"/>
    <path fill="#181C19" stroke="#181C19" stroke-linecap="round" stroke-linejoin="round" stroke-miterlimit="10" stroke-width="1.4" d="M271.816 185.478c2.696-2.461 7.566-1.859 12.382-.157 7.383 2.487 14.687 7.539 14.399 7.749-6.44 1.021-10.603 3.455-10.603 3.455-8.01.681-21.257-6.283-16.178-11.047z"/>
    <path fill="#fff" stroke="#181C19" stroke-linecap="round" stroke-linejoin="round" stroke-miterlimit="10" stroke-width="1.4" d="M291.713 281.997c-11.571 2.514-21.414 7.775-29.32 13.43-11.911-11.178 6.021-21.492 6.021-21.492 7.461 3.272 15.733 6.361 23.299 8.062zM313.701 364.46c-.759 3.403-3.848 5.811-7.33 5.811h-13.142c-.576 0-1.151-.131-1.623-.445-.733-.471-1.204-1.283 1.047-2.461 3.718-1.937 10.995-3.717 7.278-9.607-3.717-5.89-17.775-19.163-23.639-34.137 10.524-3.534 17.67-2.696 25.629-1.413l.523.261s4.503 24.975 9.451 32.566c1.989 3.037 2.303 7.121 1.806 9.425z"/>
    <path fill="#181C19" stroke="#181C19" stroke-linecap="round" stroke-linejoin="round" stroke-miterlimit="10" stroke-width="1.4" d="M372.551 299.354c-29.739 4.738-42.723-23.351-42.723-23.351-12.723-25.184-33.378-24.582-33.378-24.582.183-.131.34-.262.524-.393 27.749-20.34 13.246-40.183 13.246-40.183.55-.55 7.854-10.734 7.592-10.995 0 0 55.42 7.042 61.702 59.058 2.147 17.854-1.387 30.969-6.963 40.446z"/>
    <path fill="#fff" stroke="#181C19" stroke-linecap="round" stroke-linejoin="round" stroke-miterlimit="10" stroke-width="1.4" d="M372.525 299.354c-8.953 15.183-23.22 21.073-27.88 22.356-7.173 1.937-13.22 2.827-25.995 2.461-6.545-.184-11.806-1.152-16.728-1.937-7.958-1.283-15.105-2.121-25.629 1.413-.497.157-1.021.34-1.518.524-15.707 5.733-34.346 34.372-44.268 43.456-1.885 1.702-4.319 2.644-6.859 2.644h-10.994s-4.189.052 0-2.801c4.188-2.854 9.398-5.314 12.199-12.278 2.801-6.963 14.529-38.822 23.115-47.409 3.691-3.691 8.534-8.115 14.451-12.356 7.932-5.655 17.775-10.917 29.32-13.43 0 0 28.168.89 38.089-5.995-.026 0 12.985 28.09 42.697 23.352z"/>
    <path fill="#F3F3F3" stroke="#181C19" stroke-linecap="round" stroke-linejoin="round" stroke-miterlimit="10" stroke-width="1.4" d="M329.801 276.003c-9.922 6.885-38.09 5.995-38.09 5.995-7.565-1.728-15.838-4.817-23.299-8.063-4.502-1.964-8.717-3.953-12.33-5.76-7.382-3.691-15.314-6.178-23.508-7.382-10.733-1.597-9.738-3.089-9.738-3.089s1.832-4.267 34.267-2.094c29.896 1.989 38.221-3.377 39.347-4.215 0 .026 20.654-.576 33.351 24.608z"/>
    <path stroke="#181C19" stroke-linecap="round" stroke-linejoin="round" stroke-miterlimit="10" stroke-width="5" d="M384.383 268.175s3.561 53.273-50.027 59.766v41.304M387.5 368.7l-27.91-49.11"/>
</svg>
