<svg xmlns="http://www.w3.org/2000/svg" width="372" height="346" fill="none" viewBox="0 0 372 346">
    <ellipse fill="#181C19" opacity=".1" rx="17.267" ry="1.867" transform="matrix(-1.00137 0 0 1.00137 339.054 341.765)"/>
    <path fill="#181C19" fill-rule="evenodd" d="M345.14 251.726c-.819-.941-1.869-1.649-3.023-1.29-1.327.414-2.367 1.533-3.185 2.983-.826 1.463-1.485 3.361-2.007 5.512-1.045 4.305-1.574 9.759-1.728 15.098-.098 3.389-.045 6.748.128 9.758-.374-.617-.725-1.199-1.034-1.726l-.015-.024c-1.684-2.624-3.717-5.528-5.745-8.029-2.012-2.48-4.076-4.635-5.828-5.687-.863-.518-1.793-.856-2.659-.658-.936.214-1.53.981-1.85 2.042-.317 1.052-.416 2.524-.295 4.455.122 1.943.469 4.403 1.08 7.459 1.055 5.272 2.535 9.883 4.146 13.782-1.755-1.775-4.1-3.359-6.459-4.513-2.381-1.165-4.853-1.929-6.807-1.965-.976-.018-1.901.144-2.619.608-.754.487-1.201 1.256-1.273 2.255-.07.961.206 2.117.814 3.469.612 1.361 1.584 2.973 2.975 4.866 5.535 7.533 11.824 13.528 15.533 17.035l.254.24c.385.364.738.697 1.056 1l-.316-.157c-4.342-2.171-7.901-3.683-10.751-4.635-2.834-.947-5.022-1.358-6.599-1.274-.792.042-1.48.211-2.023.546-.561.345-.932.847-1.095 1.463-.308 1.163.153 2.607.993 4.108 1.715 3.064 5.411 7.059 10.406 11.147 5.01 4.1 11.38 8.335 18.498 11.864.347.172.767.03.939-.317.172-.347.031-.767-.316-.939-7.021-3.481-13.302-7.658-18.233-11.693-4.947-4.048-8.483-7.91-10.07-10.747-.812-1.449-1.02-2.466-.862-3.065.07-.264.217-.469.475-.628.276-.17.711-.305 1.362-.339 1.312-.07 3.3.275 6.081 1.204 2.766.924 6.262 2.406 10.568 4.559 1.165.582 2.004.973 2.539 1.165.137.049.268.09.388.118.109.025.262.052.422.036.155-.014.503-.096.664-.466.133-.304.029-.578-.009-.669-.092-.22-.273-.444-.437-.633-.183-.21-.423-.459-.706-.74-.512-.51-1.197-1.158-2.008-1.924l-.257-.243c-3.704-3.503-9.912-9.424-15.366-16.846-1.356-1.845-2.269-3.37-2.827-4.611-.562-1.25-.74-2.16-.694-2.793.043-.596.281-.949.636-1.178.39-.253.998-.4 1.832-.384 1.666.03 3.925.701 6.217 1.822 2.281 1.117 4.519 2.642 6.147 4.31.961.985 1.847 1.915 2.662 2.79 2.585 5.259 5.235 8.764 6.855 10.327.38.367.733.656 1.039.834.149.087.331.174.529.209.199.035.542.032.808-.247.239-.251.253-.562.244-.73-.011-.189-.062-.383-.127-.566-.13-.37-.364-.835-.695-1.386-1.093-1.818-3.426-4.874-7.485-9.244-2.164-4.441-4.289-10.178-5.673-17.1-.604-3.02-.939-5.413-1.055-7.271-.118-1.871-.009-3.148.237-3.963.243-.805.569-1.023.821-1.081.323-.073.85.029 1.624.494 1.523.915 3.456 2.897 5.461 5.368 1.984 2.446 3.983 5.301 5.647 7.892.39.665.833 1.395 1.296 2.158.383.631.779 1.284 1.171 1.942.055.588.115 1.155.18 1.697.235 1.966.536 3.631.894 4.82.178.589.381 1.102.622 1.483.216.343.599.79 1.192.79.558 0 1.09-.175 1.428-.646.312-.433.351-.972.302-1.452-.097-.963-.602-2.21-1.24-3.498-.565-1.142-1.279-2.399-2.011-3.637-.319-3.571-.453-7.939-.325-12.371.153-5.291.677-10.636 1.69-14.808.506-2.088 1.128-3.848 1.864-5.152.744-1.317 1.55-2.075 2.382-2.334.3-.094.803.014 1.548.871.713.82 1.468 2.135 2.209 3.847 1.475 3.412 2.819 8.223 3.679 13.298.861 5.075 1.229 10.364.782 14.734-.018.168-.036.334-.056.499-1.826 2.484-3.379 4.877-4.276 6.596-.262.501-.475.958-.623 1.352-.14.372-.251.762-.244 1.102.004.173.039.416.2.633.182.246.445.356.695.373.223.016.432-.04.601-.104.177-.066.363-.163.553-.279 1.4-.85 2.418-2.254 3.141-3.97.627-1.488 1.047-3.246 1.299-5.165.224-.303.453-.606.685-.91 2.192-2.876 4.667-5.744 6.838-7.712 1.09-.987 2.07-1.717 2.875-2.115.847-.42 1.27-.365 1.461-.238.147.098.372.386.563 1.019.184.609.306 1.438.335 2.465.056 2.049-.264 4.795-1.114 7.945-.604 2.238-1.473 4.67-2.658 7.191-2.268 1.688-4.445 4.008-6.263 6.297-2.159 2.716-3.863 5.45-4.649 7.152-.196.424-.348.811-.431 1.131-.041.157-.073.329-.075.496-.002.145.017.418.213.65.24.287.573.323.802.287.204-.033.386-.126.524-.211.288-.177.63-.473 1.02-.863 4.533-4.533 7.763-9.406 9.973-14.017.3-.215.6-.417.899-.604 2.54-1.586 4.841-1.996 6.699-.718.388.266.802.877.854 2.083.052 1.208-.268 2.95-1.287 5.322-2.039 4.743-6.802 11.838-16.498 21.906-.254.264-.262.68-.018.953.244.274.658.313.949.09 3.097-2.37 6.871-4.392 10.101-5.595 1.616-.602 3.068-.989 4.213-1.121.573-.067 1.044-.066 1.409-.01.369.058.576.164.684.262.128.117.347.468-.167 1.556-.497 1.05-1.575 2.521-3.447 4.481-3.731 3.906-10.457 9.591-21.429 17.528-.313.227-.384.665-.157.979.227.313.665.384.979.157 10.992-7.952 17.8-13.696 21.621-17.696 1.904-1.993 3.106-3.594 3.7-4.85.577-1.22.698-2.412-.156-3.191-.383-.35-.888-.529-1.413-.611-.53-.082-1.136-.073-1.785.002-1.298.15-2.866.576-4.542 1.2-1.772.661-3.696 1.555-5.59 2.614 7.165-7.947 11.008-13.852 12.833-18.1 1.068-2.484 1.465-4.444 1.4-5.937-.064-1.496-.601-2.587-1.459-3.177-2.288-1.573-4.907-1.135-7.365.179.788-1.896 1.404-3.727 1.87-5.45.878-3.252 1.222-6.136 1.161-8.349-.03-1.105-.163-2.066-.394-2.831-.224-.741-.574-1.411-1.128-1.78-.861-.574-1.928-.315-2.861.147-.975.484-2.067 1.313-3.193 2.333-2.037 1.846-4.295 4.417-6.343 7.034.227-4.15-.164-8.869-.929-13.379-.873-5.151-2.243-10.077-3.775-13.619-.763-1.765-1.585-3.232-2.437-4.211zm14.15 44.825c-1.921 3.37-4.419 6.811-7.605 10.088.825-1.594 2.315-3.921 4.176-6.263 1.055-1.327 2.217-2.644 3.429-3.825zm-9.21-8.226c-.18.667-.389 1.288-.629 1.858-.59 1.399-1.348 2.45-2.277 3.117.119-.29.282-.636.489-1.031.558-1.07 1.398-2.439 2.417-3.944zm-12.727 1.735c.112.216.221.429.325.639.636 1.286 1.032 2.331 1.101 3.017.035.344-.027.468-.044.492-.004.005-.01.014-.039.027-.027.011-.078.026-.162.033-.022-.025-.055-.067-.097-.134-.141-.223-.301-.597-.465-1.139-.226-.75-.435-1.744-.619-2.935zm1.216 4.241l-.005-.004.005.004zm-6.744 13.347c-.56-.838-1.339-1.891-2.373-3.165.876 1.317 1.686 2.375 2.373 3.165z" clip-rule="evenodd"/>
    <path stroke="#F3F3F3" stroke-linecap="round" stroke-linejoin="round" stroke-width="1.4" d="M3.004 75.804c.758-14.374 22-22.695 31.103-9.078 2.276-12.86 35.655-27.235 44 9.078M335.156 131.477c.832-9.565-9.981-19.131-20.378-5.822-.833-5.823-13.309-13.309-21.626-1.664-2.496-4.852-14.557-9.981-25.785 3.327M252.538 12.657c-2.218-8.179-13.308-19.962-25.784-4.159-2.08-4.99-13.725-7.486-17.468 7.902"/>
    <ellipse fill="#181C19" opacity=".1" rx="16" ry="2" transform="matrix(-1.00137 0 0 1.00137 276.378 342.169)"/>
    <ellipse fill="#181C19" opacity=".1" rx="36.5" ry="2.5" transform="matrix(-1.00137 0 0 1.00137 149.705 341.668)"/>
    <path stroke="#181C19" stroke-miterlimit="10" stroke-width="1.4" d="M151.77 111.456c16.565 8.62 11.386 26.694 11.386 26.694M140.293 85.134s-3.602 11.736 4.138 20.725"/>
    <path fill="#F3F3F3" stroke="#181C19" stroke-miterlimit="10" stroke-width="1.4" d="M164.902 108.37c-3.25 2.026-7.481 3.367-12.959 3.089-.059-.007-.111-.004-.17-.011-.052-.031-.098-.052-.152-.075-3.093-1.588-5.439-3.484-7.194-5.524 0 0 3.788.567 5.846-1.029 2.055-1.587 2.516-3.051 3.98-2.658 1.472.394 1.652 3.745 3.407 3.758 1.632.024 4.503 3.793 7.242 2.45z"/>
    <path stroke="#181C19" stroke-miterlimit="10" stroke-width="1.4" d="M128.562 128.88s4.543-18.243 23.199-17.426M164.902 108.369c.229-.145.45-.293.67-.441 7.346-5.016 9.301-13.537 9.301-13.537"/>
    <path fill="#fff" stroke="#181C19" stroke-miterlimit="10" stroke-width="1.4" d="M175.554 94.582l-35.945-9.631c-.958-.257-1.523-1.236-1.267-2.193l.059-.218c.256-.957 1.235-1.522 2.193-1.266l35.945 9.632c.957.256 1.522 1.235 1.266 2.193l-.058.217c-.257.957-1.244 1.52-2.193 1.266zM165.098 140.524l-.059.217c-.256.957-1.235 1.522-2.193 1.266l-35.945-9.631c-.957-.257-1.522-1.236-1.266-2.194l.058-.217c.257-.957 1.236-1.523 2.193-1.266l35.945 9.631c.95.255 1.523 1.236 1.267 2.194z"/>
    <path fill="#F3F3F3" stroke="#181C19" stroke-miterlimit="10" stroke-width="1.4" d="M160.09 137.328l-28.061-7.519s5.123-2.257 7.024-4.653c1.901-2.397 3.64-2.164 4.728-2.941 1.088-.778 2.369-2.694 3.323-3.551.886-.797 2.663-2.407 3.118-.664.052.194.074.399.071.605-.004.37.095 1.319 1.208 1.703 1.388.484 3.915 3.153 3.669 5.26-.245 2.073-1.339 5.608 1.842 6.512 3.157.898 3.078 5.248 3.078 5.248z"/>
    <g stroke="#181C19" stroke-miterlimit="10" stroke-width="1.4" opacity=".3">
        <path d="M77.715 195.942c11.354-3.582 17.168 6.901 17.168 6.901M60.673 189.249s3.667 6.915 11.21 7.478"/>
        <path fill="#F3F3F3" d="M82.243 188.63c-.552 2.379-1.855 4.891-4.45 7.235-.03.024-.052.049-.081.072-.038.009-.068.021-.103.035-2.11.678-4.022.881-5.733.753 0 0 1.963-1.453 2.171-3.099.21-1.643-.24-2.51.596-2.993.842-.486 2.433.943 3.23.158.747-.725 3.74-.32 4.37-2.161z"/>
        <path d="M75.106 214.26s-6.176-10.273 2.603-18.315M82.243 188.63c.038-.169.07-.335.104-.501 1.05-5.573-1.91-10.296-1.91-10.296"/>
        <path fill="#fff" d="M80.83 177.612l-20.548 11.863c-.547.316-1.243.13-1.56-.418l-.071-.124c-.316-.547-.13-1.243.418-1.559l20.547-11.863c.547-.316 1.244-.13 1.56.417l.072.125c.316.547.124 1.246-.418 1.559zM96.827 203.038l.072.124c.316.548.13 1.244-.418 1.56l-20.547 11.863c-.548.316-1.244.129-1.56-.418l-.072-.124c-.316-.547-.13-1.244.418-1.56l20.548-11.863c.542-.313 1.243-.129 1.56.418z"/>
        <path fill="#F3F3F3" d="M93.128 203.855l-16.04 9.261s1.291-3.327 1.068-5.264c-.223-1.938.666-2.617.806-3.458.14-.841-.146-2.282-.103-3.099.04-.759.115-2.286 1.107-1.705.11.065.213.146.304.241.165.168.638.552 1.313.223.844-.407 3.186-.343 4.025.717.824 1.045 1.925 3.132 3.767 2.106 1.828-1.019 3.753.978 3.753.978z"/>
    </g>
    <path fill="#F3F3F3" stroke="#181C19" stroke-linecap="round" stroke-linejoin="round" stroke-miterlimit="10" stroke-width="1.4" d="M225.271 204.772c-1.193 3.035-1.41 7.155-1.41 7.155-.397 1.987-1.228 3.469-2.24 4.589-1.12 1.229-2.458 1.988-3.614 2.458-.072.036-.144.072-.217.072-.614.253-1.192.397-1.626.506-.181.036-.361.072-.578.144-.614.145-1.229.289-1.843.47h-.036c-.867.253-1.735.542-2.602.867-.036 0-.072.036-.072.036-.036 0-.073.037-.109.037h-.036c-.072.036-.181.072-.253.108-2.927 1.156-5.24 2.566-7.119 4.083-1.012-.578-7.588-2.457-11.997-13.081 8.384-.398 8.239-1.843 8.239-1.843-1.12-.361-1.373-1.409.687-3.686 1.409-1.59 3.324-2.819 5.348-3.758 6.974-3.253 12.431-3.469 12.431-3.469 1.951 4.011 7.047 5.312 7.047 5.312z"/>
    <path stroke="#181C19" stroke-linecap="round" stroke-linejoin="round" stroke-miterlimit="10" stroke-width="1.4" d="M199.65 210.264c1.734.615 5.781-.325 5.781-.325"/>
    <path fill="#fff" stroke="#181C19" stroke-linecap="round" stroke-linejoin="round" stroke-miterlimit="10" stroke-width="1.4" d="M205.793 202.82c-2.024 1.048-3.939 2.277-5.349 3.758-2.059 2.277-1.806 3.325-.686 3.686 0 0 .108 1.554-8.239 1.952-4.409-10.733.289-39.462 23.199-26.236-5.456 7.228-9.214 16.84-8.925 16.84z"/>
    <path fill="#181C19" stroke="#181C19" stroke-linecap="round" stroke-linejoin="round" stroke-miterlimit="10" stroke-width="1.4" d="M218.332 199.243s-5.565.325-12.431 3.469c-.397-.036 3.397-9.613 8.89-16.768 3.541-4.77 7.841-8.456 12.033-7.841 7.986 1.373-.325 16.623-8.492 21.14z"/>
    <path fill="#F3F3F3" stroke="#181C19" stroke-miterlimit="10" stroke-width="1.4" d="M223.103 219.949c-.109 2.71-2.638 4.77-3 5.132-.361.361-2.349 2.059-2.927 7.624-.542 5.565-4.409 36.137-6.035 39.643l-6.649 2.638c-2.385-1.988-5.168-3.217-7.661-3.939-.217-.073-.434-.145-.687-.181-.144-.036-.325-.072-.469-.108-3.18-.796-5.638-.832-5.638-.832s16.153-39.606 18.213-45.785c.217-.687.578-1.337 1.048-1.879.362-.398.795-.795 1.373-1.048.073-.036.145-.072.253-.109h.037c.036 0 .072-.036.108-.036.036 0 .036 0 .072-.036.47-.18 1.554-.542 2.602-.867h.036c.687-.217 1.373-.398 1.807-.47h.036c.542-.072 1.301-.289 2.205-.614.072-.036.144-.072.216-.072 1.121-.47 2.422-1.265 3.614-2.458-.036-.072 1.554.687 1.446 3.397z"/>
    <path fill="#fff" stroke="#181C19" stroke-miterlimit="10" stroke-width="1.4" d="M282.258 341.24h-9.395c-3.18 0-7.011-.976-9.287-3.217-11.42-11.13-31.006-32.863-40.474-31.165-17.165 3.072-27.319 20.671-52.217 29.488-11.745 4.156-24.32 5.71-36.101 1.626-7.733-2.674-15.72-7.625-21.574-16.587 12.901-5.384 21.285-15.792 26.38-24.573 9.107 11.853 28.657-2.06 28.657-2.06 15.286-9.973 27.536-16.08 36.209-19.766 2.529-1.085 4.734-1.952 6.649-2.638 5.384-1.952 8.203-2.53 8.203-2.53s9.54-2.927 22.766 14.599c9.107 12.106 28.295 41.139 35.125 48.692 2.277 2.529 4.517 3.505 5.385 3.939 2.818 1.445 4.697 4.192-.326 4.192z"/>
    <path fill="#181C19" stroke="#181C19" stroke-miterlimit="10" stroke-width="1.4" d="M203.516 225.297c-5.24 7.661-7.408 17.057-6.035 26.236l-7.444 18.357s-5.059-.578-12.828 1.301c-1.193.289-2.458 0-3.361-.831-1.301-1.229-2.096-3.794.867-9.287 0 0-14.744-5.818-26.56 16.695-1.012 1.951-1.88 3.975-2.602 6.071-.904 2.638-2.783 7.517-5.963 13.009-5.095 8.818-13.479 19.225-26.38 24.573-5.962-9.106-9.757-22.332-8.889-41.485 3.216-70.214 87.198-67.72 87.198-67.72 4.481 11.022 11.997 13.081 11.997 13.081z"/>
    <path stroke="#181C19" stroke-miterlimit="10" stroke-width="1.4" d="M210.635 221.214c-.542.253-1.012.65-1.373 1.048-.253.289-.434.578-.614.867.578-1.048 1.12-1.518 1.518-1.734.18-.073.325-.109.469-.181zM139.59 296.848l-.108-.108"/>
    <path fill="#F3F3F3" d="M204.456 275.022c-8.673 3.686-20.96 9.793-36.209 19.767 0 0-19.514 13.912-28.657 2.059 3.18-5.492 5.059-10.371 5.963-13.009.723-2.096 1.554-4.12 2.602-6.071 11.816-22.513 26.56-16.695 26.56-16.695-2.963 5.493-2.168 8.058-.867 9.287.903.831 2.168 1.12 3.361.831 7.914-1.951 14.021-1.554 18.429-.47.181.037.326.073.47.109.217.072.47.144.687.181 4.951 1.481 7.444 3.758 7.661 4.011 0-.036 0 0 0 0z"/>
    <path stroke="#181C19" stroke-miterlimit="10" stroke-width="1.4" d="M204.456 275.022c-8.673 3.686-20.96 9.793-36.209 19.767 0 0-19.514 13.912-28.657 2.059 3.18-5.492 5.059-10.371 5.963-13.009.723-2.096 1.554-4.12 2.602-6.071 11.816-22.513 26.56-16.695 26.56-16.695-2.963 5.493-2.168 8.058-.867 9.287.903.831 2.168 1.12 3.361.831 7.914-1.951 14.021-1.554 18.429-.47.181.037.326.073.47.109.217.072.47.144.687.181 4.951 1.481 7.444 3.758 7.661 4.011zm0 0c0-.036 0 0 0 0z"/>
    <ellipse fill="#181C19" opacity=".1" rx="15.367" ry="1.661" transform="matrix(-1.00137 0 0 1.00137 24.538 343.831)"/>
    <path fill="#F3F3F3" d="M.773 276.825c14.763 4.248 23.171 18.597 25.582 25.398.018.053.027.106.027.163v.525c0 .259-.209.476-.467.497C2.862 305.22-.881 287.105.153 277.235c.032-.302.329-.494.62-.41zM26.115 308.878v-2.146c0-.104.032-.205.092-.289 2.955-4.153 6.652-9.242 13.257-11.884 6.239-2.496 12.244-4.991 16.272-8.141.332-.26.829-.037.824.385-.057 5.228-1.695 12.449-8.02 17.367-4.683 3.642-9.706 2.444-21.804 5.196-.314.071-.62-.166-.62-.488zM23.164 267.277c-15.477-1.589-17.738-18.423-16.89-27.456.034-.368.446-.561.756-.36 7.029 4.551 10.598 7.398 12.41 10.246 2.933 4.609 2.406 8.253 4.254 15.152.011.043.017.087.017.131v1.796c0 .291-.257.521-.547.491zM24.91 275.733c14.146 2.574 19.69-9.897 20.85-17.235.058-.363-.293-.648-.641-.529-3.374 1.154-4.336 1.686-8.326 2.683-4.272 1.068-6.865 4.005-8.276 6.407-1.33 2.265-2.288 4.767-3.958 7.952-.155.296.023.663.351.722z"/>
    <path fill="#181C19" fill-rule="evenodd" d="M24.632 256.491c-.382-.065-.745.19-.81.572-.449 2.602-1.078 8.384-1.078 10.798 0 2.869.745 8.005 1.476 12.82l.222 1.46c.29 1.901.567 3.718.786 5.301.277 1.999.452 3.569.452 4.447v.423c.002 4.229.007 16.655-1.062 24.848-.937 7.185-.5 16.173-.174 22.855.064 1.334.125 2.576.169 3.694.015.387.341.688.728.673.387-.016.688-.342.673-.728-.045-1.143-.107-2.405-.172-3.753-.324-6.689-.752-15.513.167-22.559 1.08-8.29 1.075-20.794 1.073-25.016v-.437c0-.992-.191-2.659-.465-4.639-.22-1.593-.5-3.424-.79-5.326l-.221-1.454c-.738-4.862-1.46-9.872-1.46-12.609 0-2.305.616-8.001 1.057-10.56.066-.381-.19-.744-.571-.81z" clip-rule="evenodd"/>
    <path fill="#181C19" fill-rule="evenodd" d="M7.314 305.717c-.204.132-.324.36-.32.603.097 4.501 3.91 14.039 17.875 17.748l.36-1.355c-12.178-3.234-16.067-10.992-16.727-15.271 1.41.62 2.617 1.07 3.68 1.466.283.106.557.208.82.308 1.506.572 2.701 1.086 3.891 1.955 4.314 3.15 6.696 7.066 7.497 9.257l1.317-.482c-.895-2.447-3.446-6.592-7.987-9.907-1.348-.985-2.689-1.552-4.22-2.134l-.841-.315c-1.328-.495-2.826-1.054-4.665-1.92-.22-.103-.477-.085-.68.047zM47.968 309.013c-.192-.192-.477-.256-.732-.164-14.56 5.215-21.35 16.988-23.003 22.312-.115.37.092.763.462.877.37.115.762-.092.877-.461 1.501-4.838 7.662-15.646 20.802-20.903-.323 1.189-.51 2.304-.69 3.378l-.092.542c-.282 1.653-.604 3.247-1.426 5.033-1.494 3.246-3.458 6.196-6.977 8.698-1.512 1.074-2.92 1.549-4.838 2.092l-.797.222c-1.786.496-3.984 1.106-6.912 2.278-.36.143-.534.551-.39.911.143.359.551.534.91.39 2.854-1.141 4.98-1.732 6.764-2.227l.806-.225c1.952-.553 3.553-1.079 5.269-2.299 3.774-2.683 5.875-5.856 7.439-9.254.9-1.958 1.247-3.701 1.534-5.383.032-.183.062-.365.092-.546.251-1.492.494-2.936 1.067-4.54.09-.255.027-.54-.165-.731zM45.114 279.21c-.137-.199-.368-.314-.61-.303-4.76.222-8.87 2.112-12.058 4.359-3.185 2.245-5.49 4.872-6.65 6.635-.162.247-.148.558.01.786-.065.094-.108.206-.121.328-.04.385.24.73.625.77 9.638 1.001 14.342-2.694 15.605-4.579.585-.873.94-1.66 1.377-2.739.102-.253.21-.523.325-.815.379-.951.85-2.139 1.562-3.763.097-.222.072-.479-.065-.679zm-17.998 11.242c1.111-1.619 3.232-3.992 6.137-6.04 2.774-1.955 6.231-3.591 10.18-4.017-.477 1.125-.831 2.016-1.123 2.751-.114.287-.219.551-.318.795-.426 1.052-.738 1.733-1.242 2.485-.892 1.331-4.86 4.753-13.634 4.026zM10.695 266.272c-.175.158-.26.394-.223.627.455 2.962 1.735 7.459 4.111 11.37 2.374 3.908 5.916 7.34 10.919 7.908.385.044.732-.232.776-.617.043-.385-.233-.732-.618-.776-4.394-.499-7.616-3.519-9.878-7.243-1.985-3.266-3.175-6.99-3.73-9.76 8.647 2.791 11.809 10.635 12.3 14.322.052.384.404.653.788.602.383-.051.653-.404.602-.788-.557-4.174-4.205-13.143-14.4-15.803-.229-.059-.472 0-.647.158z" clip-rule="evenodd"/>
</svg>
