<svg xmlns="http://www.w3.org/2000/svg" width="358" height="346" fill="none" viewBox="0 0 358 346">
    <ellipse fill="#fff" opacity=".1" rx="17.267" ry="1.867" transform="matrix(-1 0 0 1 338.59 341.596)"/>
    <path fill="#fff" fill-rule="evenodd" d="M344.668 251.681c-.818-.94-1.867-1.647-3.019-1.288-1.326.413-2.364 1.53-3.181 2.979-.825 1.46-1.483 3.356-2.004 5.504-1.044 4.3-1.573 9.746-1.726 15.077-.098 3.385-.044 6.739.128 9.745-.373-.616-.724-1.197-1.033-1.723l-.015-.024c-1.682-2.621-3.711-5.521-5.737-8.019-2.009-2.476-4.071-4.628-5.82-5.679-.862-.517-1.79-.855-2.655-.657-.935.214-1.528.98-1.848 2.04-.317 1.05-.415 2.52-.294 4.448.122 1.941.468 4.397 1.079 7.449 1.053 5.265 2.531 9.87 4.139 13.763-1.752-1.772-4.094-3.354-6.449-4.507-2.378-1.163-4.846-1.927-6.798-1.962-.975-.018-1.898.144-2.615.607-.753.486-1.2 1.255-1.272 2.252-.07.96.206 2.114.813 3.464.611 1.359 1.582 2.969 2.971 4.86 5.527 7.522 11.808 13.509 15.512 17.011l.254.24c.384.363.736.696 1.054.999l-.315-.157c-4.336-2.168-7.891-3.678-10.737-4.629-2.83-.945-5.015-1.356-6.59-1.272-.791.041-1.478.211-2.021.545-.56.345-.93.846-1.093 1.461-.307 1.161.153 2.603.992 4.103 1.713 3.06 5.404 7.049 10.392 11.131 5.003 4.094 11.364 8.324 18.472 11.848.347.172.767.03.939-.316.171-.347.03-.767-.317-.938-7.011-3.476-13.284-7.648-18.208-11.677-4.939-4.043-8.471-7.9-10.056-10.732-.81-1.447-1.018-2.463-.86-3.061.07-.264.216-.468.474-.627.276-.171.71-.305 1.36-.339 1.31-.07 3.295.275 6.073 1.202 2.762.923 6.253 2.403 10.553 4.553 1.163.581 2.001.972 2.536 1.163.137.049.267.09.388.118.108.025.261.052.421.037.154-.015.502-.096.663-.466.132-.303.028-.577-.01-.668-.091-.219-.271-.444-.435-.632-.183-.21-.423-.459-.705-.74-.512-.509-1.197-1.156-2.006-1.921l-.256-.242c-3.7-3.498-9.899-9.411-15.346-16.823-1.354-1.843-2.265-3.366-2.822-4.605-.562-1.248-.74-2.157-.694-2.789.043-.595.281-.948.635-1.177.39-.252.997-.399 1.83-.383 1.663.03 3.92.7 6.209 1.82 2.277 1.115 4.512 2.638 6.138 4.304.96.984 1.845 1.912 2.659 2.786 2.58 5.252 5.227 8.752 6.845 10.312.379.367.732.656 1.038.834.148.086.331.174.528.208.199.035.541.032.807-.247.238-.25.253-.56.243-.728-.011-.189-.062-.383-.126-.565-.13-.37-.364-.835-.695-1.385-1.091-1.815-3.421-4.867-7.474-9.231-2.161-4.435-4.283-10.164-5.666-17.077-.603-3.016-.937-5.405-1.054-7.261-.116-1.868-.008-3.143.238-3.957.242-.805.568-1.022.819-1.079.323-.074.849.028 1.622.493 1.522.913 3.452 2.893 5.454 5.36 1.981 2.443 3.978 5.294 5.639 7.881.389.664.832 1.393 1.294 2.155.383.63.779 1.283 1.17 1.94.055.587.115 1.153.179 1.694.235 1.964.536 3.627.893 4.813.177.589.381 1.102.621 1.482.216.342.599.789 1.191.789.557 0 1.088-.175 1.426-.645.311-.433.35-.971.301-1.451-.097-.961-.601-2.206-1.238-3.493-.565-1.14-1.277-2.395-2.008-3.631-.318-3.567-.452-7.929-.325-12.355.153-5.284.676-10.621 1.688-14.787.506-2.085 1.126-3.843 1.862-5.146.742-1.315 1.547-2.071 2.378-2.33.3-.094.802.014 1.546.87.712.819 1.466 2.131 2.206 3.842 1.473 3.407 2.815 8.211 3.674 13.279s1.227 10.35.78 14.714c-.017.167-.035.334-.055.498-1.823 2.481-3.374 4.871-4.27 6.587-.262.501-.474.957-.622 1.35-.14.372-.251.762-.244 1.101.003.173.039.416.2.632.181.246.444.355.693.373.223.015.432-.04.601-.104.177-.067.362-.163.552-.279 1.398-.849 2.415-2.251 3.137-3.964.626-1.487 1.045-3.242 1.297-5.159.224-.302.452-.605.684-.909 2.189-2.871 4.66-5.736 6.829-7.7 1.088-.987 2.067-1.715 2.87-2.113.847-.419 1.269-.364 1.459-.237.147.098.372.385.563 1.017.184.608.306 1.436.334 2.461.057 2.047-.263 4.79-1.112 7.935-.603 2.235-1.471 4.664-2.655 7.181-2.264 1.686-4.438 4.003-6.254 6.288-2.155 2.712-3.857 5.443-4.642 7.142-.196.424-.347.81-.43 1.13-.041.157-.074.328-.076.495-.001.145.018.417.213.65.24.286.573.322.801.286.204-.033.385-.126.524-.211.287-.177.628-.472 1.017-.861 4.528-4.527 7.754-9.393 9.96-13.998.299-.215.599-.417.898-.604 2.536-1.583 4.834-1.992 6.69-.716.387.266.8.875.852 2.079.053 1.208-.267 2.947-1.285 5.316-2.036 4.736-6.792 11.821-16.475 21.876-.254.264-.262.678-.018.952.244.273.657.312.948.089 3.093-2.367 6.861-4.385 10.086-5.587 1.615-.602 3.065-.988 4.208-1.12.572-.066 1.043-.066 1.407-.009.369.057.576.163.683.261.128.116.347.467-.167 1.553-.496 1.05-1.572 2.519-3.442 4.475-3.726 3.901-10.442 9.578-21.399 17.505-.313.226-.384.664-.157.977.227.313.664.383.977.157 10.977-7.941 17.776-13.678 21.592-17.671 1.901-1.991 3.102-3.589 3.695-4.844.576-1.218.697-2.409-.156-3.186-.383-.35-.887-.529-1.411-.611-.529-.082-1.135-.073-1.782.002-1.297.15-2.863.575-4.536 1.199-1.77.659-3.691 1.552-5.583 2.61 7.155-7.936 10.993-13.833 12.816-18.075 1.066-2.481 1.462-4.438 1.398-5.929-.065-1.494-.6-2.584-1.458-3.173-2.284-1.571-4.899-1.133-7.354.179.787-1.893 1.402-3.722 1.867-5.442.877-3.248 1.221-6.128 1.16-8.338-.031-1.104-.163-2.063-.394-2.827-.223-.74-.573-1.409-1.126-1.778-.86-.573-1.925-.314-2.857.147-.974.483-2.065 1.311-3.189 2.33-2.034 1.843-4.289 4.411-6.334 7.024.226-4.144-.164-8.857-.928-13.36-.872-5.144-2.24-10.063-3.769-13.601-.762-1.762-1.584-3.227-2.434-4.205zm14.13 44.763c-1.919 3.366-4.413 6.803-7.595 10.075.824-1.592 2.312-3.916 4.171-6.255 1.053-1.325 2.213-2.64 3.424-3.82zm-9.197-8.214c-.18.666-.389 1.286-.628 1.855-.589 1.398-1.347 2.447-2.274 3.113.118-.289.282-.635.488-1.03.558-1.068 1.396-2.435 2.414-3.938zm-12.71 1.733c.112.215.221.428.324.637.636 1.285 1.031 2.328 1.1 3.013.035.344-.027.468-.044.492-.004.005-.01.014-.039.026-.027.012-.077.027-.161.033-.023-.025-.055-.066-.097-.133-.141-.223-.301-.596-.464-1.137-.226-.75-.435-1.742-.619-2.931zm1.215 4.234l-.005-.003c.003.003.005.004.005.003zm-6.735 13.329c-.559-.837-1.337-1.888-2.37-3.161.874 1.316 1.684 2.373 2.37 3.161z" clip-rule="evenodd"/>
    <path stroke="#fff" stroke-linecap="round" stroke-linejoin="round" stroke-width="1.4" d="M3 76c.758-14.354 21.97-22.664 31.06-9.066C36.334 54.091 69.668 39.737 78 76M334.697 131.597c.831-9.553-9.968-19.105-20.35-5.815-.831-5.814-13.291-13.29-21.597-1.661-2.492-4.845-14.536-9.968-25.749 3.323M252.193 12.94c-2.215-8.168-13.29-19.935-25.75-4.153-2.076-4.984-13.705-7.476-17.443 7.89" opacity=".1"/>
    <ellipse fill="#fff" opacity=".1" rx="16" ry="2" transform="matrix(-1 0 0 1 276 342)"/>
    <ellipse fill="#fff" opacity=".1" rx="36.5" ry="2.5" transform="matrix(-1 0 0 1 149.5 341.5)"/>
    <path stroke="#fff" stroke-miterlimit="10" stroke-width="1.4" d="M151.563 111.603c16.542 8.609 11.37 26.657 11.37 26.657M140.101 85.317s-3.597 11.72 4.133 20.697"/>
    <path fill="#fff" fill-opacity=".1" stroke="#fff" stroke-miterlimit="10" stroke-width="1.4" d="M164.677 108.521c-3.246 2.023-7.471 3.363-12.942 3.085-.058-.007-.111-.004-.169-.011-.052-.031-.098-.052-.152-.075-3.089-1.585-5.432-3.479-7.185-5.516 0 0 3.784.566 5.838-1.027 2.052-1.586 2.513-3.047 3.975-2.655 1.47.394 1.65 3.74 3.403 3.753 1.63.023 4.496 3.788 7.232 2.446z"/>
    <path stroke="#fff" stroke-miterlimit="10" stroke-width="1.4" d="M128.386 129.004s4.538-18.219 23.168-17.403M164.677 108.521c.228-.146.448-.293.669-.441 7.335-5.009 9.288-13.519 9.288-13.519"/>
    <path stroke="#fff" stroke-miterlimit="10" stroke-width="1.4" d="M175.313 94.753l-35.895-9.619c-.956-.256-1.521-1.234-1.265-2.19l.058-.217c.257-.956 1.235-1.52 2.191-1.264l35.895 9.618c.956.256 1.521 1.234 1.265 2.19l-.058.217c-.257.956-1.243 1.519-2.191 1.265zM164.872 140.631l-.058.217c-.256.956-1.234 1.52-2.19 1.264l-35.896-9.618c-.956-.256-1.521-1.234-1.265-2.19l.059-.217c.256-.956 1.234-1.521 2.19-1.264l35.895 9.618c.948.254 1.521 1.234 1.265 2.19z"/>
    <path fill="#fff" fill-opacity=".1" stroke="#fff" stroke-miterlimit="10" stroke-width="1.4" d="M159.871 137.44l-28.023-7.509s5.116-2.254 7.015-4.647c1.898-2.393 3.635-2.16 4.722-2.937 1.086-.776 2.365-2.69 3.318-3.545.885-.796 2.659-2.405 3.114-.664.051.194.074.399.07.604-.004.369.095 1.317 1.207 1.701 1.386.483 3.909 3.149 3.664 5.253-.245 2.07-1.337 5.6 1.839 6.503 3.153.897 3.074 5.241 3.074 5.241z"/>
    <g stroke="#fff" stroke-miterlimit="10" stroke-width="1.4" opacity=".3">
        <path d="M77.609 195.973c11.339-3.577 17.144 6.892 17.144 6.892M60.59 189.29s3.662 6.905 11.194 7.467"/>
        <path fill="#fff" fill-opacity=".1" d="M82.13 188.671c-.55 2.376-1.851 4.885-4.443 7.226-.03.023-.052.048-.081.071-.038.01-.068.021-.103.035-2.107.678-4.017.88-5.725.752 0 0 1.96-1.45 2.168-3.095.21-1.64-.24-2.506.595-2.989.84-.485 2.43.943 3.227.158.745-.724 3.734-.319 4.363-2.158z"/>
        <path d="M75.004 214.267s-6.168-10.259 2.599-18.291M82.131 188.671c.038-.168.07-.334.103-.5 1.049-5.565-1.907-10.282-1.907-10.282"/>
        <path d="M80.72 177.669L60.2 189.516c-.546.315-1.242.129-1.557-.418l-.072-.124c-.316-.546-.13-1.242.417-1.557l20.52-11.847c.546-.316 1.242-.129 1.557.417l.072.124c.315.547.124 1.245-.418 1.558zM96.695 203.06l.072.124c.315.546.129 1.242-.418 1.557L75.83 216.588c-.546.316-1.242.129-1.558-.417l-.071-.124c-.316-.547-.13-1.242.417-1.558l20.52-11.846c.541-.313 1.241-.13 1.557.417z"/>
        <path fill="#fff" fill-opacity=".1" d="M93.001 203.876l-16.019 9.248s1.29-3.323 1.068-5.257c-.224-1.935.665-2.613.804-3.453.14-.84-.146-2.279-.102-3.095.04-.757.115-2.282 1.105-1.703.11.065.213.147.304.241.164.168.636.551 1.31.223.843-.407 3.182-.343 4.02.716.823 1.044 1.923 3.128 3.762 2.103 1.825-1.017 3.748.977 3.748.977z"/>
    </g>
    <path fill="#181C19" stroke="#fff" stroke-linecap="round" stroke-linejoin="round" stroke-miterlimit="10" stroke-width="1.4" d="M224.962 204.791c-1.191 3.031-1.407 7.145-1.407 7.145-.397 1.985-1.227 3.465-2.237 4.583-1.119 1.227-2.454 1.985-3.609 2.454-.072.036-.145.073-.217.073-.613.252-1.191.396-1.624.505-.18.036-.36.072-.577.144-.614.144-1.227.289-1.84.469h-.037c-.866.253-1.732.542-2.598.866-.036 0-.072.036-.072.036-.036 0-.072.037-.108.037h-.036c-.073.036-.181.072-.253.108-2.923 1.155-5.233 2.562-7.109 4.078-1.011-.578-7.579-2.454-11.981-13.064 8.372-.397 8.228-1.84 8.228-1.84-1.119-.361-1.372-1.408.685-3.681 1.408-1.588 3.32-2.815 5.341-3.753 6.965-3.248 12.414-3.465 12.414-3.465 1.949 4.006 7.037 5.305 7.037 5.305z"/>
    <path stroke="#fff" stroke-linecap="round" stroke-linejoin="round" stroke-miterlimit="10" stroke-width="1.4" d="M199.376 210.276c1.733.614 5.774-.325 5.774-.325"/>
    <path fill="#303331" stroke="#fff" stroke-linecap="round" stroke-linejoin="round" stroke-miterlimit="10" stroke-width="1.4" d="M205.511 202.842c-2.021 1.047-3.933 2.274-5.341 3.753-2.057 2.274-1.804 3.32-.685 3.681 0 0 .108 1.552-8.228 1.949-4.403-10.718.288-39.407 23.168-26.2-5.449 7.218-9.203 16.817-8.914 16.817z"/>
    <path fill="#fff" stroke="#fff" stroke-linecap="round" stroke-linejoin="round" stroke-miterlimit="10" stroke-width="1.4" d="M218.033 199.27s-5.557.324-12.414 3.464c-.397-.036 3.393-9.599 8.878-16.745 3.536-4.763 7.831-8.444 12.017-7.83 7.975 1.371-.325 16.6-8.481 21.111z"/>
    <path fill="#181C19" stroke="#fff" stroke-miterlimit="10" stroke-width="1.4" d="M222.797 219.948c-.108 2.706-2.634 4.763-2.995 5.124-.361.361-2.346 2.057-2.923 7.614-.541 5.558-4.403 36.088-6.027 39.588l-6.64 2.635c-2.381-1.985-5.16-3.212-7.65-3.934-.217-.072-.433-.144-.686-.18-.144-.036-.325-.073-.469-.109-3.176-.794-5.63-.83-5.63-.83s16.131-39.551 18.188-45.722c.217-.686.578-1.335 1.047-1.877.361-.397.794-.794 1.371-1.046.072-.036.145-.073.253-.109h.036c.036 0 .072-.036.108-.036.036 0 .036 0 .072-.036.469-.18 1.552-.541 2.599-.866h.036c.685-.216 1.371-.397 1.804-.469h.036c.541-.072 1.299-.289 2.202-.613.072-.037.144-.073.216-.073 1.119-.469 2.418-1.263 3.609-2.454-.036-.072 1.552.686 1.443 3.393z"/>
    <path fill="#303331" stroke="#fff" stroke-miterlimit="10" stroke-width="1.4" d="M281.872 341.072h-9.383c-3.175 0-7.001-.974-9.274-3.212-11.404-11.115-30.963-32.818-40.418-31.122-17.141 3.067-27.282 20.642-52.146 29.447-11.728 4.15-24.287 5.702-36.051 1.624-7.723-2.671-15.698-7.615-21.544-16.564 12.883-5.377 21.255-15.77 26.343-24.54 9.094 11.837 28.618-2.057 28.618-2.057 15.265-9.96 27.498-16.058 36.159-19.739 2.526-1.083 4.728-1.949 6.64-2.635 5.377-1.948 8.192-2.526 8.192-2.526s9.527-2.923 22.735 14.579c9.094 12.09 28.256 41.083 35.077 48.625 2.273 2.526 4.511 3.501 5.377 3.934 2.815 1.443 4.691 4.186-.325 4.186z"/>
    <path fill="#fff" stroke="#fff" stroke-miterlimit="10" stroke-width="1.4" d="M203.238 225.289c-5.233 7.65-7.398 17.033-6.027 26.199l-7.434 18.332s-5.052-.577-12.811 1.299c-1.191.289-2.454 0-3.356-.83-1.299-1.227-2.093-3.789.866-9.274 0 0-14.723-5.81-26.524 16.672-1.01 1.949-1.877 3.97-2.598 6.063-.902 2.634-2.779 7.506-5.955 12.991-5.088 8.806-13.46 19.199-26.343 24.54-5.955-9.094-9.744-22.302-8.878-41.428 3.212-70.118 87.079-67.628 87.079-67.628 4.475 11.007 11.981 13.064 11.981 13.064z"/>
    <path stroke="#fff" stroke-miterlimit="10" stroke-width="1.4" d="M210.347 221.211c-.541.252-1.01.649-1.371 1.046-.253.289-.433.578-.614.866.578-1.046 1.119-1.515 1.516-1.732.18-.072.325-.108.469-.18zM139.399 296.741l-.108-.108"/>
    <path fill="#181C19" d="M204.176 274.945c-8.661 3.681-20.93 9.779-36.159 19.739 0 0-19.487 13.894-28.618 2.057 3.176-5.485 5.053-10.357 5.955-12.991.722-2.093 1.552-4.114 2.598-6.063 11.801-22.482 26.524-16.672 26.524-16.672-2.959 5.485-2.165 8.048-.866 9.274.902.83 2.165 1.119 3.356.83 7.903-1.948 14.002-1.551 18.405-.469.18.036.325.073.469.109.217.072.469.144.686.18 4.944 1.48 7.434 3.753 7.65 4.006 0-.036 0 0 0 0z"/>
    <path stroke="#fff" stroke-miterlimit="10" stroke-width="1.4" d="M204.176 274.945c-8.661 3.681-20.93 9.779-36.159 19.739 0 0-19.487 13.894-28.618 2.057 3.176-5.485 5.053-10.357 5.955-12.991.722-2.093 1.552-4.114 2.598-6.063 11.801-22.482 26.524-16.672 26.524-16.672-2.959 5.485-2.165 8.048-.866 9.274.902.83 2.165 1.119 3.356.83 7.903-1.948 14.002-1.551 18.405-.469.18.036.325.073.469.109.217.072.469.144.686.18 4.944 1.48 7.434 3.753 7.65 4.006zm0 0c0-.036 0 0 0 0z"/>
    <ellipse fill="#fff" opacity=".1" rx="15.367" ry="1.661" transform="matrix(-1 0 0 1 24.505 343.659)"/>
    <path fill="#fff" fill-opacity=".1" d="M.773 276.746c14.742 4.241 23.139 18.572 25.546 25.363.019.053.027.106.027.162v.524c0 .259-.208.477-.466.497-23.021 1.81-26.76-16.28-25.727-26.137.032-.301.329-.493.62-.409zM26.08 308.754v-2.142c0-.104.032-.205.092-.289 2.95-4.148 6.642-9.23 13.239-11.868 6.23-2.492 12.227-4.984 16.249-8.129.332-.26.828-.038.823.384-.057 5.221-1.693 12.432-8.008 17.343-4.678 3.637-9.694 2.441-21.775 5.189-.314.071-.62-.166-.62-.488zM23.133 267.211c-15.456-1.587-17.714-18.398-16.868-27.419.035-.367.446-.56.756-.359 7.02 4.544 10.583 7.388 12.392 10.231 2.93 4.604 2.403 8.242 4.249 15.132.011.042.017.087.017.131v1.793c0 .291-.257.521-.546.491zM24.877 275.655c14.126 2.57 19.662-9.884 20.82-17.212.058-.362-.292-.646-.64-.528-3.369 1.153-4.33 1.684-8.314 2.68-4.266 1.066-6.856 3.999-8.265 6.398-1.328 2.262-2.284 4.76-3.952 7.942-.155.295.022.661.35.72z"/>
    <path fill="#fff" fill-rule="evenodd" d="M24.598 256.44c-.38-.066-.743.19-.808.571-.449 2.599-1.077 8.373-1.077 10.783 0 2.865.745 7.993 1.474 12.802l.222 1.458c.29 1.898.566 3.714.785 5.294.276 1.996.452 3.564.452 4.44v.423c.001 4.223.006 16.632-1.06 24.815-.937 7.175-.5 16.15-.175 22.822.064 1.333.125 2.574.169 3.69.015.386.34.687.727.672.386-.016.687-.341.672-.727-.045-1.142-.107-2.401-.172-3.748-.324-6.68-.751-15.492.166-22.528 1.08-8.278 1.075-20.765 1.073-24.982v-.437c0-.989-.191-2.654-.465-4.632-.22-1.591-.5-3.419-.789-5.318l-.22-1.452c-.737-4.856-1.46-9.859-1.46-12.592 0-2.302.617-7.99 1.057-10.546.066-.38-.19-.743-.57-.808z" clip-rule="evenodd"/>
    <path fill="#fff" fill-rule="evenodd" d="M7.304 305.598c-.203.132-.323.36-.318.602.095 4.495 3.904 14.02 17.85 17.724l.359-1.353c-12.161-3.23-16.045-10.977-16.704-15.25 1.408.619 2.614 1.068 3.675 1.464.283.105.556.207.82.307 1.503.571 2.696 1.085 3.885 1.952 4.307 3.146 6.686 7.057 7.487 9.245l1.314-.481c-.894-2.444-3.441-6.583-7.976-9.894-1.346-.983-2.685-1.55-4.214-2.131l-.84-.315c-1.326-.494-2.822-1.052-4.658-1.917-.22-.103-.477-.085-.68.047zM47.903 308.889c-.192-.191-.476-.255-.731-.164-14.54 5.209-21.322 16.965-22.972 22.282-.114.369.092.762.461.876.37.115.762-.092.876-.461 1.5-4.831 7.652-15.624 20.773-20.873-.322 1.186-.509 2.3-.688 3.372l-.092.541c-.282 1.651-.603 3.244-1.424 5.027-1.492 3.241-3.453 6.187-6.968 8.686-1.51 1.073-2.915 1.547-4.831 2.089l-.796.222c-1.783.495-3.978 1.105-6.902 2.274-.36.144-.534.551-.39.91.143.359.55.534.91.39 2.849-1.139 4.973-1.73 6.753-2.224l.806-.225c1.95-.552 3.548-1.077 5.261-2.295 3.77-2.679 5.867-5.848 7.429-9.241.9-1.956 1.245-3.696 1.532-5.377.032-.182.062-.364.092-.545.25-1.489.493-2.932 1.065-4.533.091-.255.027-.54-.164-.731zM45.053 279.128c-.138-.2-.368-.314-.61-.303-4.753.221-8.857 2.109-12.041 4.353-3.18 2.242-5.482 4.865-6.64 6.626-.162.246-.149.557.01.785-.066.094-.11.205-.122.327-.04.385.24.729.624.769 9.625 1 14.323-2.69 15.584-4.573.584-.871.939-1.658 1.375-2.735.102-.252.21-.522.325-.813.378-.95.85-2.136 1.56-3.759.096-.222.072-.478-.065-.677zm-17.974 11.226c1.11-1.617 3.228-3.987 6.13-6.032 2.769-1.952 6.222-3.586 10.165-4.011-.476 1.123-.83 2.013-1.121 2.746-.114.288-.22.551-.318.795-.425 1.05-.737 1.73-1.24 2.481-.89 1.33-4.853 4.747-13.616 4.021zM10.68 266.207c-.174.158-.258.394-.222.626.455 2.958 1.733 7.449 4.106 11.355 2.37 3.902 5.907 7.329 10.904 7.897.384.044.73-.232.774-.616.044-.385-.232-.731-.616-.775-4.389-.499-7.606-3.514-9.866-7.233-1.982-3.262-3.17-6.98-3.724-9.747 8.635 2.787 11.792 10.62 12.283 14.302.052.383.404.653.787.601.383-.051.652-.403.601-.786-.556-4.169-4.2-13.125-14.38-15.781-.229-.06-.471-.001-.646.157z" clip-rule="evenodd"/>
</svg>
